<svg xmlns="http://www.w3.org/2000/svg" viewBox="0 0 223.23 311.81"><defs><style>.ac9f78d5-d63b-4b64-ad1c-5e28cfb6693d{fill:#fedd00;}.a08aa9e1-0642-418c-a7a5-69bf7d35dc86{fill:#4d4e4f;}.e0bf3509-f71c-4133-b0b9-e40f0166f5e8{fill:#fff;}.a55542c3-c21b-4072-b453-ea411e71b91f,.a5602f4a-4957-4217-aac1-bee59e0ed58b{fill:none;stroke:#fff;stroke-miterlimit:10;}.a55542c3-c21b-4072-b453-ea411e71b91f{stroke-width:0.03px;}.a5602f4a-4957-4217-aac1-bee59e0ed58b{stroke-width:0.05px;}.b53eef45-4aa1-42c2-b4ce-679714bfb378{fill:#2a2664;}.ef58b791-e166-4607-a860-d3e4162d455b{fill:#feda00;}.f7815a2d-93af-4d98-a380-52205b02f397{fill:#6e2e91;}.eff926eb-f0fd-42f0-905a-5fccbcdb89a5{fill:#f05023;}.a61a215d-d8e6-45e2-ad5d-bb7dc6f60aac{fill:#241f20;}</style></defs><g id="a198d833-6d14-4d74-a684-a02e70537641" data-name="Layer 5"><rect class="ac9f78d5-d63b-4b64-ad1c-5e28cfb6693d" width="223.23" height="23.73"/><rect class="ac9f78d5-d63b-4b64-ad1c-5e28cfb6693d" y="279.44" width="223.23" height="32.37"/><rect class="ac9f78d5-d63b-4b64-ad1c-5e28cfb6693d" x="-122.31" y="142.04" width="268.35" height="23.73" transform="translate(165.77 142.04) rotate(90)"/><rect class="ac9f78d5-d63b-4b64-ad1c-5e28cfb6693d" x="77.19" y="144.04" width="268.35" height="23.73" transform="translate(367.27 -55.46) rotate(90)"/><path class="a08aa9e1-0642-418c-a7a5-69bf7d35dc86" d="M62.51,293.38l-.42,0a1.68,1.68,0,0,1-.92-.19.94.94,0,0,1-.39-.69,12.53,12.53,0,0,1,0-3.16,1,1,0,0,1,.39-.69,1.67,1.67,0,0,1,.92-.2l.41,0a2.08,2.08,0,0,1,.36.07V289a4.46,4.46,0,0,0-.66-.06,1.39,1.39,0,0,0-.68.12.73.73,0,0,0-.25.52,10.33,10.33,0,0,0-.06,1.36,10.54,10.54,0,0,0,.06,1.36.69.69,0,0,0,.25.51,1.27,1.27,0,0,0,.68.13,3.82,3.82,0,0,0,.68-.06v.44Z"/><path class="a08aa9e1-0642-418c-a7a5-69bf7d35dc86" d="M63.56,293.18a1.15,1.15,0,0,1-.22-.82,2.05,2.05,0,0,1,.08-.63.56.56,0,0,1,.28-.32,1.1,1.1,0,0,1,.54-.1l.92,0v-.25a2.36,2.36,0,0,0-.06-.63.36.36,0,0,0-.21-.25,1.66,1.66,0,0,0-.53-.06,3.34,3.34,0,0,0-.41,0l-.43.05v-.4a4.34,4.34,0,0,1,1-.1,1.77,1.77,0,0,1,.74.12.64.64,0,0,1,.33.4,3.06,3.06,0,0,1,.09.84v2.27h-.44l0-.49h0a.68.68,0,0,1-.33.43,1.35,1.35,0,0,1-.55.11A.94.94,0,0,1,63.56,293.18Zm1.27-.27a.39.39,0,0,0,.23-.25,2.23,2.23,0,0,0,.1-.75v-.23h-.8a.71.71,0,0,0-.33.05.28.28,0,0,0-.15.18,1.4,1.4,0,0,0-.05.42,1.37,1.37,0,0,0,.05.41.28.28,0,0,0,.17.18.94.94,0,0,0,.38.05A1.16,1.16,0,0,0,64.83,292.91Z"/><path class="a08aa9e1-0642-418c-a7a5-69bf7d35dc86" d="M66.52,289.78H67l0,.66h0a.9.9,0,0,1,.32-.57,1.1,1.1,0,0,1,.61-.15v.5a1,1,0,0,0-.57.16.79.79,0,0,0-.28.46,3,3,0,0,0-.08.81v1.7h-.5Z"/><path class="a08aa9e1-0642-418c-a7a5-69bf7d35dc86" d="M70.73,291.72H68.9a5.08,5.08,0,0,0,0,.82.48.48,0,0,0,.23.34,1.29,1.29,0,0,0,.57.09,5.1,5.1,0,0,0,.89-.07v.4a2.13,2.13,0,0,1-.44.07l-.54,0a1.6,1.6,0,0,1-.83-.16.8.8,0,0,1-.34-.54,5.19,5.19,0,0,1-.09-1.13,7.32,7.32,0,0,1,.07-1.13.84.84,0,0,1,.33-.55,1.54,1.54,0,0,1,.82-.17,1.31,1.31,0,0,1,.76.17.73.73,0,0,1,.29.52,7.76,7.76,0,0,1,.06,1.15Zm-1.59-1.5a.45.45,0,0,0-.19.33,4.8,4.8,0,0,0,0,.8h1.36v-.08a3.38,3.38,0,0,0-.06-.75.44.44,0,0,0-.18-.31.86.86,0,0,0-.41-.07A1.07,1.07,0,0,0,69.14,290.22Z"/><path class="a08aa9e1-0642-418c-a7a5-69bf7d35dc86" d="M73.73,291.72H71.9a4.13,4.13,0,0,0,0,.82.47.47,0,0,0,.22.34,1.37,1.37,0,0,0,.58.09,5,5,0,0,0,.88-.07v.4a1.92,1.92,0,0,1-.44.07l-.54,0a1.56,1.56,0,0,1-.82-.16.81.81,0,0,1-.35-.54,6.1,6.1,0,0,1-.08-1.13,6.23,6.23,0,0,1,.07-1.13.83.83,0,0,1,.32-.55,1.58,1.58,0,0,1,.83-.17,1.33,1.33,0,0,1,.76.17.77.77,0,0,1,.29.52,7.76,7.76,0,0,1,.06,1.15Zm-1.6-1.5a.49.49,0,0,0-.19.33,5.09,5.09,0,0,0,0,.8h1.35v-.08a3.53,3.53,0,0,0,0-.75.45.45,0,0,0-.19-.31.82.82,0,0,0-.4-.07A1.12,1.12,0,0,0,72.13,290.22Z"/><path class="a08aa9e1-0642-418c-a7a5-69bf7d35dc86" d="M74.51,289.78h.43l0,.66h0a.9.9,0,0,1,.32-.57,1.08,1.08,0,0,1,.61-.15v.5a.92.92,0,0,0-.57.16.8.8,0,0,0-.29.46,3.44,3.44,0,0,0-.08.81v1.7h-.49Z"/><path class="a08aa9e1-0642-418c-a7a5-69bf7d35dc86" d="M77.9,288.53h1.46a1,1,0,0,1,.85.31,1.35,1.35,0,0,1,.26.89,1.53,1.53,0,0,1-.17.78.85.85,0,0,1-.54.36v0a.83.83,0,0,1,.59.38,1.67,1.67,0,0,1,.16.8,1.53,1.53,0,0,1-.25.93,1.12,1.12,0,0,1-.93.34H77.9Zm1.86,1.94a.91.91,0,0,0,.19-.64,1.3,1.3,0,0,0-.07-.49.41.41,0,0,0-.22-.26.89.89,0,0,0-.45-.09h-.8v1.68h.8A.71.71,0,0,0,79.76,290.47Zm.06,2.22A1.06,1.06,0,0,0,80,292a1,1,0,0,0-.17-.69.72.72,0,0,0-.58-.2h-.82v1.75h.82A.72.72,0,0,0,79.82,292.69Z"/><path class="a08aa9e1-0642-418c-a7a5-69bf7d35dc86" d="M83.11,292.85h0a.83.83,0,0,1-.29.41,1.11,1.11,0,0,1-.6.14,1,1,0,0,1-.59-.14.65.65,0,0,1-.26-.42,3.41,3.41,0,0,1-.07-.81v-2.25h.5v2.08a4.26,4.26,0,0,0,0,.73.44.44,0,0,0,.17.29.91.91,0,0,0,.42.07.62.62,0,0,0,.46-.15.65.65,0,0,0,.18-.41,5,5,0,0,0,0-.76v-1.85h.5v3.57h-.44Z"/><path class="a08aa9e1-0642-418c-a7a5-69bf7d35dc86" d="M84.82,293.38l-.45-.06v-.42a4.7,4.7,0,0,0,.92.08.84.84,0,0,0,.4-.07.37.37,0,0,0,.18-.19,1.12,1.12,0,0,0,0-.35,1.64,1.64,0,0,0,0-.37.21.21,0,0,0-.09-.14.54.54,0,0,0-.23-.06l-.7-.11a.58.58,0,0,1-.46-.25,1.61,1.61,0,0,1-.11-.68,1.31,1.31,0,0,1,.13-.65.7.7,0,0,1,.37-.31,1.93,1.93,0,0,1,.6-.08l.46,0a2.47,2.47,0,0,1,.4.07v.4l-.4-.06-.46,0a.72.72,0,0,0-.47.12.57.57,0,0,0-.15.47,1.46,1.46,0,0,0,0,.34.27.27,0,0,0,.09.15.53.53,0,0,0,.22.06l.68.09a.76.76,0,0,1,.35.12.54.54,0,0,1,.2.29,2.14,2.14,0,0,1,.06.58,1,1,0,0,1-.25.81,1.17,1.17,0,0,1-.82.23Z"/><path class="a08aa9e1-0642-418c-a7a5-69bf7d35dc86" d="M90,293.35V292.2H88.23v-.41l1.27-3.26h.55l-1.27,3.21H90l.1-1.78h.42v1.78H91v.46h-.5v1.15Z"/><path class="a08aa9e1-0642-418c-a7a5-69bf7d35dc86" d="M91.67,293.35v-.63h.57v.63Z"/><path class="a08aa9e1-0642-418c-a7a5-69bf7d35dc86" d="M93.43,293.22a1,1,0,0,1-.35-.67,18.67,18.67,0,0,1,0-3.23,1,1,0,0,1,.35-.66,1.58,1.58,0,0,1,.9-.19,1.64,1.64,0,0,1,.92.19.9.9,0,0,1,.33.65,18.78,18.78,0,0,1,0,3.24,1,1,0,0,1-.35.67,1.64,1.64,0,0,1-.9.18A1.69,1.69,0,0,1,93.43,293.22Zm1.45-.39a.68.68,0,0,0,.2-.49,19.77,19.77,0,0,0,0-2.81.7.7,0,0,0-.2-.49,1,1,0,0,0-.55-.1,1.07,1.07,0,0,0-.56.1c-.1.07-.16.23-.19.49a14.07,14.07,0,0,0,0,1.41,13.68,13.68,0,0,0,0,1.4c0,.26.09.42.19.49a1,1,0,0,0,.56.11A1,1,0,0,0,94.88,292.83Z"/><path class="a08aa9e1-0642-418c-a7a5-69bf7d35dc86" d="M97.93,294.47v-6.33h.46v6.33Z"/><path class="a08aa9e1-0642-418c-a7a5-69bf7d35dc86" d="M101.25,293.23a.84.84,0,0,1-.38-.63,12.14,12.14,0,0,1-.08-1.66,11.86,11.86,0,0,1,.08-1.65.85.85,0,0,1,.38-.64,3.12,3.12,0,0,1,2.09,0,.82.82,0,0,1,.38.64,11.86,11.86,0,0,1,.08,1.65,12.14,12.14,0,0,1-.08,1.66.82.82,0,0,1-.38.63,2.17,2.17,0,0,1-1,.17A2.21,2.21,0,0,1,101.25,293.23Zm1.92-.21a.71.71,0,0,0,.3-.54,12.15,12.15,0,0,0,.07-1.54,12.46,12.46,0,0,0-.07-1.55.75.75,0,0,0-.3-.54,2.16,2.16,0,0,0-.87-.12,2.19,2.19,0,0,0-.88.12.75.75,0,0,0-.3.54,13.1,13.1,0,0,0-.06,1.55,12.78,12.78,0,0,0,.06,1.54.71.71,0,0,0,.3.54,2,2,0,0,0,.88.13A2,2,0,0,0,103.17,293Zm-1.25-.85a.61.61,0,0,1-.21-.38,5.53,5.53,0,0,1,0-.85,5.63,5.63,0,0,1,0-.85.55.55,0,0,1,.22-.37.89.89,0,0,1,.49-.11,1.55,1.55,0,0,1,.42.05V290a2,2,0,0,0-.35,0,.71.71,0,0,0-.34.06.4.4,0,0,0-.12.26,5.48,5.48,0,0,0,0,.7,5.37,5.37,0,0,0,0,.7.37.37,0,0,0,.12.26.69.69,0,0,0,.34.07,2,2,0,0,0,.36,0v.3a3,3,0,0,1-.43,0A1,1,0,0,1,101.92,292.17Z"/><path class="a08aa9e1-0642-418c-a7a5-69bf7d35dc86" d="M105.13,292.88H107v.47h-2.41v-.56q0-.6,0-.87a1,1,0,0,1,.14-.43,1.21,1.21,0,0,1,.41-.34l.91-.54a.7.7,0,0,0,.32-.32,1.43,1.43,0,0,0,.07-.54,1.72,1.72,0,0,0-.06-.52.4.4,0,0,0-.23-.23,1.57,1.57,0,0,0-.5-.06,8.83,8.83,0,0,0-1,.07v-.42a4.3,4.3,0,0,1,.54-.09l.62,0a2.27,2.27,0,0,1,.64.08.73.73,0,0,1,.39.35,1.65,1.65,0,0,1,.15.79,2.72,2.72,0,0,1-.06.64.89.89,0,0,1-.19.39,1.57,1.57,0,0,1-.36.29l-1,.58a.55.55,0,0,0-.23.22,1.22,1.22,0,0,0,0,.25c0,.11,0,.26,0,.47Z"/><path class="a08aa9e1-0642-418c-a7a5-69bf7d35dc86" d="M108.14,293.22a1,1,0,0,1-.34-.67,16.34,16.34,0,0,1,0-3.23.91.91,0,0,1,.34-.66,1.58,1.58,0,0,1,.9-.19,1.62,1.62,0,0,1,.92.19.91.91,0,0,1,.34.65,14.09,14.09,0,0,1,.07,1.63,11.69,11.69,0,0,1-.08,1.61,1,1,0,0,1-.34.67,2.37,2.37,0,0,1-1.81,0Zm1.45-.39a.68.68,0,0,0,.2-.49,19.77,19.77,0,0,0,0-2.81.7.7,0,0,0-.2-.49,1.56,1.56,0,0,0-1.1,0,.68.68,0,0,0-.2.49c0,.26,0,.73,0,1.41s0,1.15,0,1.4a.68.68,0,0,0,.2.49,1.43,1.43,0,0,0,1.1,0Z"/><path class="a08aa9e1-0642-418c-a7a5-69bf7d35dc86" d="M111.57,292.88h1.9v.47h-2.41v-.56q0-.6,0-.87a.92.92,0,0,1,.15-.43,1.08,1.08,0,0,1,.4-.34l.91-.54a.7.7,0,0,0,.32-.32,1.43,1.43,0,0,0,.07-.54,1.72,1.72,0,0,0-.06-.52.4.4,0,0,0-.23-.23,1.57,1.57,0,0,0-.5-.06,8.83,8.83,0,0,0-1,.07v-.42a4.3,4.3,0,0,1,.54-.09l.62,0a2.27,2.27,0,0,1,.64.08.73.73,0,0,1,.39.35,1.65,1.65,0,0,1,.15.79,2.72,2.72,0,0,1-.06.64.89.89,0,0,1-.19.39,1.57,1.57,0,0,1-.36.29l-1,.58a.55.55,0,0,0-.23.22,1.22,1.22,0,0,0,0,.25c0,.11,0,.26,0,.47Z"/><path class="a08aa9e1-0642-418c-a7a5-69bf7d35dc86" d="M114.66,293.35v-4.18l-.67.33V289l.81-.48h.38v4.82Z"/><path class="a08aa9e1-0642-418c-a7a5-69bf7d35dc86" d="M118.06,293.91a.92.92,0,0,1-.48-.72,11.5,11.5,0,0,1-.1-1.9,11.65,11.65,0,0,1,.1-1.91.88.88,0,0,1,.48-.71,3.38,3.38,0,0,1,1.38-.2,3.61,3.61,0,0,1,1.38.19.92.92,0,0,1,.48.72,11.57,11.57,0,0,1,.1,1.91,6.35,6.35,0,0,1-.06,1c0,.21-.11.35-.2.4a.82.82,0,0,1-.41.08H120l0-.41h0a.53.53,0,0,1-.25.37,1,1,0,0,1-.43.09.75.75,0,0,1-.58-.19,1,1,0,0,1-.17-.7,1.91,1.91,0,0,1,.06-.54.48.48,0,0,1,.22-.28,1,1,0,0,1,.44-.08l.73,0v-.21a2.07,2.07,0,0,0,0-.53.26.26,0,0,0-.16-.21,1.25,1.25,0,0,0-.4-.05l-.36,0a2,2,0,0,0-.33,0v-.37a3.86,3.86,0,0,1,.82-.08,1.26,1.26,0,0,1,.59.11.55.55,0,0,1,.27.34,2.58,2.58,0,0,1,.07.71v1.66h.39a.24.24,0,0,0,.19-.06.65.65,0,0,0,.09-.33,8.47,8.47,0,0,0,0-.86c0-.73,0-1.24,0-1.54a1.21,1.21,0,0,0-.2-.67.77.77,0,0,0-.55-.28,6.47,6.47,0,0,0-.87-.05q-.47,0-.78,0a.89.89,0,0,0-.6.26,1.2,1.2,0,0,0-.21.67c0,.3,0,.83,0,1.58a14.6,14.6,0,0,0,.06,1.61,1,1,0,0,0,.26.66,1.16,1.16,0,0,0,.71.24h.63c.48,0,.79,0,.94,0v.3h-1A3.42,3.42,0,0,1,118.06,293.91Zm1.65-1.5a.4.4,0,0,0,.18-.26,2.3,2.3,0,0,0,0-.53v-.21h-.63a.7.7,0,0,0-.24,0,.24.24,0,0,0-.11.16,1.44,1.44,0,0,0,0,.35,1.5,1.5,0,0,0,0,.35.28.28,0,0,0,.13.15.66.66,0,0,0,.28,0A.55.55,0,0,0,119.71,292.41Z"/><path class="a08aa9e1-0642-418c-a7a5-69bf7d35dc86" d="M123.55,293.31v-.45l.54.05.5,0a1.82,1.82,0,0,0,.45,0,.51.51,0,0,0,.26-.14.43.43,0,0,0,.13-.26,2.08,2.08,0,0,0,0-.47,3.58,3.58,0,0,0,0-.54.34.34,0,0,0-.13-.22,1.18,1.18,0,0,0-.36-.11l-.82-.12a.86.86,0,0,1-.44-.2.8.8,0,0,1-.19-.39,3.67,3.67,0,0,1,0-.64,1.42,1.42,0,0,1,.3-1,1.35,1.35,0,0,1,1-.31,4,4,0,0,1,1.07.12V289a5.08,5.08,0,0,0-.95-.08,1.6,1.6,0,0,0-.48.05.53.53,0,0,0-.26.16.53.53,0,0,0-.12.25,2.25,2.25,0,0,0,0,.4,2.46,2.46,0,0,0,0,.46.32.32,0,0,0,.11.2.7.7,0,0,0,.28.09l.79.13a1.24,1.24,0,0,1,.46.15.6.6,0,0,1,.26.33,2.79,2.79,0,0,1,.08.81,2.34,2.34,0,0,1-.12.84.75.75,0,0,1-.38.45,1.55,1.55,0,0,1-.74.14A7.51,7.51,0,0,1,123.55,293.31Zm1.12,1.5a.49.49,0,0,0,.07-.32v-.11h-.23v-.6h.56v.55a2,2,0,0,1,0,.5.38.38,0,0,1-.2.23,1.18,1.18,0,0,1-.44.06v-.23A.38.38,0,0,0,124.67,294.81Z"/><path class="a08aa9e1-0642-418c-a7a5-69bf7d35dc86" d="M128.15,293.38l-.4,0a1.27,1.27,0,0,1-.76-.18.84.84,0,0,1-.31-.55,6.19,6.19,0,0,1-.07-1.11,5.4,5.4,0,0,1,.08-1.12.92.92,0,0,1,.33-.55,1.26,1.26,0,0,1,.71-.17l.41,0a2,2,0,0,1,.34.07v.41a2.7,2.7,0,0,0-.63-.07.87.87,0,0,0-.49.1.61.61,0,0,0-.2.4,4.82,4.82,0,0,0-.06.9,5,5,0,0,0,.06.93.56.56,0,0,0,.2.39.9.9,0,0,0,.49.1,2.64,2.64,0,0,0,.65-.07v.41Z"/><path class="a08aa9e1-0642-418c-a7a5-69bf7d35dc86" d="M129.46,293.25a.68.68,0,0,1-.32-.51,8.74,8.74,0,0,1,0-2.36.68.68,0,0,1,.32-.51,1.63,1.63,0,0,1,.81-.15,1.68,1.68,0,0,1,.82.15.68.68,0,0,1,.32.51,10,10,0,0,1,0,2.36.68.68,0,0,1-.32.51,1.68,1.68,0,0,1-.82.15A1.63,1.63,0,0,1,129.46,293.25Zm1.31-.37a.56.56,0,0,0,.18-.37c0-.18,0-.49,0-.95s0-.77,0-.95a.56.56,0,0,0-.18-.37,1,1,0,0,0-.5-.09,1,1,0,0,0-.49.09.49.49,0,0,0-.18.37,11.3,11.3,0,0,0,0,1.9.49.49,0,0,0,.18.37,1,1,0,0,0,.49.09A1,1,0,0,0,130.77,292.88Z"/><path class="a08aa9e1-0642-418c-a7a5-69bf7d35dc86" d="M132.26,293.18a1.2,1.2,0,0,1-.22-.82,2.05,2.05,0,0,1,.08-.63.56.56,0,0,1,.28-.32,1.16,1.16,0,0,1,.54-.1l.93,0v-.25a2.36,2.36,0,0,0-.06-.63.37.37,0,0,0-.22-.25,1.63,1.63,0,0,0-.52-.06,3.4,3.4,0,0,0-.42,0l-.43.05v-.4a4.37,4.37,0,0,1,1-.1,1.72,1.72,0,0,1,.73.12.64.64,0,0,1,.33.4,3.06,3.06,0,0,1,.09.84v2.27h-.44l0-.49h0a.69.69,0,0,1-.34.43,1.35,1.35,0,0,1-.55.11A1,1,0,0,1,132.26,293.18Zm1.27-.27a.39.39,0,0,0,.23-.25,2.2,2.2,0,0,0,.11-.75v-.23h-.8a.79.79,0,0,0-.34.05.28.28,0,0,0-.15.18,1.47,1.47,0,0,0,0,.42,1.44,1.44,0,0,0,0,.41.3.3,0,0,0,.17.18,1,1,0,0,0,.38.05A1.12,1.12,0,0,0,133.53,292.91Z"/><path class="a08aa9e1-0642-418c-a7a5-69bf7d35dc86" d="M135.22,293.35v-5.21h.5v5.21Z"/><path class="a08aa9e1-0642-418c-a7a5-69bf7d35dc86" d="M136.61,293.18a1.15,1.15,0,0,1-.22-.82,2.05,2.05,0,0,1,.08-.63.56.56,0,0,1,.28-.32,1.1,1.1,0,0,1,.54-.1l.92,0v-.25a2.36,2.36,0,0,0-.06-.63.36.36,0,0,0-.21-.25,1.66,1.66,0,0,0-.53-.06,3.34,3.34,0,0,0-.41,0l-.43.05v-.4a4.34,4.34,0,0,1,1-.1,1.77,1.77,0,0,1,.74.12.64.64,0,0,1,.33.4,3.06,3.06,0,0,1,.09.84v2.27h-.44l0-.49h0a.73.73,0,0,1-.34.43,1.35,1.35,0,0,1-.55.11A.94.94,0,0,1,136.61,293.18Zm1.27-.27a.39.39,0,0,0,.23-.25,2.23,2.23,0,0,0,.1-.75v-.23h-.8a.71.71,0,0,0-.33.05.28.28,0,0,0-.15.18,1.4,1.4,0,0,0-.05.42,1.37,1.37,0,0,0,.05.41.3.3,0,0,0,.17.18.94.94,0,0,0,.38.05A1.16,1.16,0,0,0,137.88,292.91Z"/><path class="a08aa9e1-0642-418c-a7a5-69bf7d35dc86" d="M141.19,293.25a.88.88,0,0,1-.3-.54,7.26,7.26,0,0,1,0-2.28.83.83,0,0,1,.29-.55,1,1,0,0,1,.63-.16,1.2,1.2,0,0,1,.54.11.73.73,0,0,1,.3.38h0v-2.07h.49v5.21h-.44l0-.49h0a.7.7,0,0,1-.32.43,1.27,1.27,0,0,1-.54.11A1.08,1.08,0,0,1,141.19,293.25Zm1.22-.39a.6.6,0,0,0,.2-.33,2.23,2.23,0,0,0,.06-.41c0-.15,0-.35,0-.62a3.94,3.94,0,0,0-.07-.84.6.6,0,0,0-.2-.38.69.69,0,0,0-.43-.11.88.88,0,0,0-.46.09.52.52,0,0,0-.19.37,6.91,6.91,0,0,0,0,.93,6.51,6.51,0,0,0,0,.93.52.52,0,0,0,.18.37.9.9,0,0,0,.47.09A.8.8,0,0,0,142.41,292.86Z"/><path class="a08aa9e1-0642-418c-a7a5-69bf7d35dc86" d="M146.28,291.72h-1.83a5.08,5.08,0,0,0,.05.82.48.48,0,0,0,.23.34,1.29,1.29,0,0,0,.57.09,5.1,5.1,0,0,0,.89-.07v.4a2.13,2.13,0,0,1-.45.07l-.53,0a1.6,1.6,0,0,1-.83-.16.8.8,0,0,1-.34-.54,5.19,5.19,0,0,1-.09-1.13,7.32,7.32,0,0,1,.07-1.13.84.84,0,0,1,.33-.55,1.54,1.54,0,0,1,.82-.17,1.33,1.33,0,0,1,.76.17.73.73,0,0,1,.29.52,7.76,7.76,0,0,1,.06,1.15Zm-1.59-1.5a.5.5,0,0,0-.2.33,5.09,5.09,0,0,0,0,.8h1.36v-.08a3.38,3.38,0,0,0-.06-.75.48.48,0,0,0-.18-.31.86.86,0,0,0-.41-.07A1.07,1.07,0,0,0,144.69,290.22Z"/><path class="a08aa9e1-0642-418c-a7a5-69bf7d35dc86" d="M149.24,293.35,148,288.53h.55l1,4.12h0l1-4.12h.53l-1.2,4.82Z"/><path class="a08aa9e1-0642-418c-a7a5-69bf7d35dc86" d="M151.65,293.18a1.2,1.2,0,0,1-.22-.82,1.75,1.75,0,0,1,.09-.63.51.51,0,0,1,.27-.32,1.16,1.16,0,0,1,.54-.1l.92,0v-.25a3,3,0,0,0-.05-.63.37.37,0,0,0-.22-.25,1.63,1.63,0,0,0-.52-.06,3.4,3.4,0,0,0-.42,0l-.43.05v-.4a4.37,4.37,0,0,1,1-.1,1.72,1.72,0,0,1,.73.12.64.64,0,0,1,.33.4,3.06,3.06,0,0,1,.09.84v2.27h-.44l0-.49h0a.69.69,0,0,1-.34.43,1.35,1.35,0,0,1-.55.11A1,1,0,0,1,151.65,293.18Zm1.27-.27a.39.39,0,0,0,.23-.25,2.23,2.23,0,0,0,.1-.75v-.23h-.79a.79.79,0,0,0-.34.05.28.28,0,0,0-.15.18,1.4,1.4,0,0,0-.05.42,1.37,1.37,0,0,0,.05.41.3.3,0,0,0,.17.18,1,1,0,0,0,.38.05A1.12,1.12,0,0,0,152.92,292.91Z"/><path class="a08aa9e1-0642-418c-a7a5-69bf7d35dc86" d="M154.61,293.35v-5.21h.5v5.21Z"/><path class="a08aa9e1-0642-418c-a7a5-69bf7d35dc86" d="M156.27,293.25a.68.68,0,0,1-.32-.51,8.74,8.74,0,0,1,0-2.36.68.68,0,0,1,.32-.51,1.63,1.63,0,0,1,.81-.15,1.68,1.68,0,0,1,.82.15.71.71,0,0,1,.32.51,10,10,0,0,1,0,2.36.71.71,0,0,1-.32.51,1.68,1.68,0,0,1-.82.15A1.63,1.63,0,0,1,156.27,293.25Zm1.31-.37a.56.56,0,0,0,.18-.37c0-.18,0-.49,0-.95s0-.77,0-.95a.56.56,0,0,0-.18-.37,1,1,0,0,0-.5-.09,1,1,0,0,0-.49.09.49.49,0,0,0-.18.37,11.3,11.3,0,0,0,0,1.9.49.49,0,0,0,.18.37,1,1,0,0,0,.49.09A1,1,0,0,0,157.58,292.88Z"/><path class="a08aa9e1-0642-418c-a7a5-69bf7d35dc86" d="M159.06,289.78h.43l0,.66h0a.9.9,0,0,1,.32-.57,1.08,1.08,0,0,1,.61-.15v.5a.92.92,0,0,0-.57.16.8.8,0,0,0-.29.46,3.44,3.44,0,0,0-.08.81v1.7h-.49Z"/><path class="a08aa9e1-0642-418c-a7a5-69bf7d35dc86" d="M161,288.73v-.59h.52v.59Zm0,4.62v-3.57h.5v3.57Z"/><path class="a08aa9e1-0642-418c-a7a5-69bf7d35dc86" d="M37.54,301.78l-.4,0a1.27,1.27,0,0,1-.76-.18.84.84,0,0,1-.31-.55,8.33,8.33,0,0,1,0-2.23.89.89,0,0,1,.33-.55,1.26,1.26,0,0,1,.71-.17l.41,0a2,2,0,0,1,.34.07v.41a2.59,2.59,0,0,0-.63-.07.87.87,0,0,0-.49.1.61.61,0,0,0-.2.4,4.82,4.82,0,0,0-.06.9,5,5,0,0,0,.06.93.56.56,0,0,0,.2.39.92.92,0,0,0,.49.1,2.59,2.59,0,0,0,.65-.07v.41A2.39,2.39,0,0,1,37.54,301.78Z"/><path class="a08aa9e1-0642-418c-a7a5-69bf7d35dc86" d="M38.85,301.65a.68.68,0,0,1-.32-.51,8.74,8.74,0,0,1,0-2.36.68.68,0,0,1,.32-.51,1.68,1.68,0,0,1,.82-.15,1.66,1.66,0,0,1,.81.15.68.68,0,0,1,.32.51,10,10,0,0,1,0,2.36.68.68,0,0,1-.32.51,1.66,1.66,0,0,1-.81.15A1.68,1.68,0,0,1,38.85,301.65Zm1.31-.37a.56.56,0,0,0,.18-.37c0-.18,0-.49,0-1s0-.77,0-.95a.56.56,0,0,0-.18-.37,1.41,1.41,0,0,0-1,0A.52.52,0,0,0,39,299a11.3,11.3,0,0,0,0,1.9.52.52,0,0,0,.18.37,1.41,1.41,0,0,0,1,0Z"/><path class="a08aa9e1-0642-418c-a7a5-69bf7d35dc86" d="M43.45,299.66a4.26,4.26,0,0,0,0-.73.41.41,0,0,0-.18-.29.84.84,0,0,0-.41-.07.65.65,0,0,0-.47.15.68.68,0,0,0-.18.41,7.29,7.29,0,0,0,0,.76v1.85h-.5v-3.57h.43l0,.5h0a.77.77,0,0,1,.29-.41,1.11,1.11,0,0,1,.6-.14,1.07,1.07,0,0,1,.59.14.65.65,0,0,1,.26.42,3.41,3.41,0,0,1,.07.81v2.25h-.5Z"/><path class="a08aa9e1-0642-418c-a7a5-69bf7d35dc86" d="M46.24,301.78l-.4,0a1.27,1.27,0,0,1-.76-.18.84.84,0,0,1-.31-.55A6.19,6.19,0,0,1,44.7,300a5.27,5.27,0,0,1,.09-1.12.84.84,0,0,1,.32-.55,1.26,1.26,0,0,1,.71-.17l.41,0a2,2,0,0,1,.34.07v.41a2.59,2.59,0,0,0-.63-.07.87.87,0,0,0-.49.1.61.61,0,0,0-.2.4,5,5,0,0,0,0,.9,5.28,5.28,0,0,0,0,.93.56.56,0,0,0,.2.39.92.92,0,0,0,.49.1,2.59,2.59,0,0,0,.65-.07v.41A2.39,2.39,0,0,1,46.24,301.78Z"/><path class="a08aa9e1-0642-418c-a7a5-69bf7d35dc86" d="M49.49,300.12H47.65a5.08,5.08,0,0,0,.05.82.48.48,0,0,0,.23.34,1.31,1.31,0,0,0,.58.09,5.06,5.06,0,0,0,.88-.07v.4a3.13,3.13,0,0,1-.44.07l-.54,0a1.6,1.6,0,0,1-.83-.16.8.8,0,0,1-.34-.54,5.19,5.19,0,0,1-.09-1.13,7.32,7.32,0,0,1,.07-1.13.84.84,0,0,1,.33-.55,1.54,1.54,0,0,1,.82-.17,1.29,1.29,0,0,1,.77.17.77.77,0,0,1,.29.52,7.76,7.76,0,0,1,.06,1.15Zm-1.6-1.5a.45.45,0,0,0-.19.33,4.8,4.8,0,0,0-.05.8H49v-.08a3.32,3.32,0,0,0-.06-.75.44.44,0,0,0-.18-.31.84.84,0,0,0-.4-.07A1.12,1.12,0,0,0,47.89,298.62Z"/><path class="a08aa9e1-0642-418c-a7a5-69bf7d35dc86" d="M50.26,298.17h.44l0,.5h.05a.69.69,0,0,1,.32-.44,1.19,1.19,0,0,1,.53-.11,1.08,1.08,0,0,1,.63.15.84.84,0,0,1,.3.55,5.25,5.25,0,0,1,.09,1.13,5.61,5.61,0,0,1-.08,1.15.88.88,0,0,1-.3.54,1,1,0,0,1-.63.16,1.13,1.13,0,0,1-.53-.11.7.7,0,0,1-.31-.38h0v1.79h-.5Zm1.65,3.09a.56.56,0,0,0,.19-.37,8.67,8.67,0,0,0,0-1.86.56.56,0,0,0-.19-.37.86.86,0,0,0-.46-.09.73.73,0,0,0-.42.1.63.63,0,0,0-.21.35,2.06,2.06,0,0,0,0,.39c0,.14,0,.33,0,.55a4,4,0,0,0,.06.87.66.66,0,0,0,.21.41.68.68,0,0,0,.42.11A.86.86,0,0,0,51.91,301.26Z"/><path class="a08aa9e1-0642-418c-a7a5-69bf7d35dc86" d="M53.63,301.74V298.6h-.52v-.43h.52v-1h.5v1h.61v.43h-.61v3.14Z"/><path class="a08aa9e1-0642-418c-a7a5-69bf7d35dc86" d="M58.1,301.78l-.4,0a1.27,1.27,0,0,1-.76-.18.89.89,0,0,1-.32-.55,7.6,7.6,0,0,1-.06-1.11,5.4,5.4,0,0,1,.08-1.12.89.89,0,0,1,.33-.55,1.26,1.26,0,0,1,.71-.17l.41,0a1.68,1.68,0,0,1,.33.07v.41a2.59,2.59,0,0,0-.63-.07.86.86,0,0,0-.48.1.61.61,0,0,0-.2.4,4.82,4.82,0,0,0-.06.9,5,5,0,0,0,.06.93.56.56,0,0,0,.2.39.9.9,0,0,0,.49.1,2.64,2.64,0,0,0,.65-.07v.41A2.39,2.39,0,0,1,58.1,301.78Z"/><path class="a08aa9e1-0642-418c-a7a5-69bf7d35dc86" d="M59.12,298.17h.44l0,.67h0a.86.86,0,0,1,.32-.57,1.07,1.07,0,0,1,.6-.15v.5a.85.85,0,0,0-.56.16.8.8,0,0,0-.29.46,3.44,3.44,0,0,0-.08.81v1.69h-.5Z"/><path class="a08aa9e1-0642-418c-a7a5-69bf7d35dc86" d="M63.34,300.12H61.5a4,4,0,0,0,.06.82.47.47,0,0,0,.22.34,1.37,1.37,0,0,0,.58.09,5,5,0,0,0,.88-.07v.4a2.9,2.9,0,0,1-.44.07l-.54,0a1.62,1.62,0,0,1-.83-.16.84.84,0,0,1-.34-.54A6.1,6.1,0,0,1,61,300a6.23,6.23,0,0,1,.07-1.13.79.79,0,0,1,.32-.55,1.58,1.58,0,0,1,.83-.17,1.28,1.28,0,0,1,.76.17.77.77,0,0,1,.29.52,7.76,7.76,0,0,1,.06,1.15Zm-1.6-1.5a.45.45,0,0,0-.19.33,4.8,4.8,0,0,0,0,.8h1.36v-.08a4.28,4.28,0,0,0,0-.75.45.45,0,0,0-.19-.31.82.82,0,0,0-.4-.07A1.12,1.12,0,0,0,61.74,298.62Z"/><path class="a08aa9e1-0642-418c-a7a5-69bf7d35dc86" d="M64.13,301.58a1.15,1.15,0,0,1-.22-.82,2.05,2.05,0,0,1,.08-.63.56.56,0,0,1,.28-.32,1.13,1.13,0,0,1,.54-.1l.92,0v-.25a2.36,2.36,0,0,0-.06-.63.36.36,0,0,0-.21-.25,1.66,1.66,0,0,0-.53-.06,3.34,3.34,0,0,0-.41,0l-.43.05v-.4a4.34,4.34,0,0,1,1-.1,1.74,1.74,0,0,1,.74.12.64.64,0,0,1,.33.4,3,3,0,0,1,.09.84v2.26h-.44l0-.49h0a.69.69,0,0,1-.34.44,1.35,1.35,0,0,1-.55.11A.94.94,0,0,1,64.13,301.58Zm1.27-.27a.39.39,0,0,0,.23-.25,2.23,2.23,0,0,0,.1-.75v-.23h-.8a1,1,0,0,0-.33,0,.3.3,0,0,0-.15.19,1.4,1.4,0,0,0,0,.42,1.37,1.37,0,0,0,0,.41.3.3,0,0,0,.17.18.94.94,0,0,0,.38.05A1.16,1.16,0,0,0,65.4,301.31Z"/><path class="a08aa9e1-0642-418c-a7a5-69bf7d35dc86" d="M67.31,301.74V298.6h-.52v-.43h.52v-1h.49v1h.62v.43H67.8v3.14Z"/><path class="a08aa9e1-0642-418c-a7a5-69bf7d35dc86" d="M70.62,301.65a.94.94,0,0,1-.3-.54,7.27,7.27,0,0,1,0-2.28.79.79,0,0,1,.3-.55,1,1,0,0,1,.62-.16,1.15,1.15,0,0,1,.54.11.65.65,0,0,1,.3.38h0v-2.07h.49v5.2h-.44l0-.49h0a.69.69,0,0,1-.32.44,1.27,1.27,0,0,1-.54.11A1.08,1.08,0,0,1,70.62,301.65Zm1.22-.4a.54.54,0,0,0,.2-.32,2.23,2.23,0,0,0,.06-.41c0-.15,0-.36,0-.62a3.36,3.36,0,0,0-.07-.84.56.56,0,0,0-.2-.38.69.69,0,0,0-.43-.11.88.88,0,0,0-.46.09.52.52,0,0,0-.18.37,8.67,8.67,0,0,0,0,1.86.52.52,0,0,0,.18.37.93.93,0,0,0,.47.09A.71.71,0,0,0,71.84,301.25Z"/><path class="a08aa9e1-0642-418c-a7a5-69bf7d35dc86" d="M75.71,300.12H73.88a5.08,5.08,0,0,0,.05.82.48.48,0,0,0,.23.34,1.29,1.29,0,0,0,.57.09,5.1,5.1,0,0,0,.89-.07v.4a3.13,3.13,0,0,1-.44.07l-.54,0a1.6,1.6,0,0,1-.83-.16.8.8,0,0,1-.34-.54,5.19,5.19,0,0,1-.09-1.13,7.32,7.32,0,0,1,.07-1.13.84.84,0,0,1,.33-.55,1.54,1.54,0,0,1,.82-.17,1.29,1.29,0,0,1,.77.17.77.77,0,0,1,.29.52,8.12,8.12,0,0,1,0,1.15Zm-1.59-1.5a.45.45,0,0,0-.19.33,4.8,4.8,0,0,0-.05.8h1.36v-.08a3.32,3.32,0,0,0-.06-.75.44.44,0,0,0-.18-.31.86.86,0,0,0-.41-.07A1.07,1.07,0,0,0,74.12,298.62Z"/><path class="a08aa9e1-0642-418c-a7a5-69bf7d35dc86" d="M80.19,301.74l-.34-1.33H78.37L78,301.74h-.52l1.26-4.81h.69l1.26,4.81Zm-1.06-4.17h0L78.5,300h1.23Z"/><path class="a08aa9e1-0642-418c-a7a5-69bf7d35dc86" d="M81.29,298.17h.44l0,.67h0a.86.86,0,0,1,.32-.57,1.07,1.07,0,0,1,.6-.15v.5a.9.9,0,0,0-.57.16.79.79,0,0,0-.28.46,3.44,3.44,0,0,0-.08.81v1.69h-.5Z"/><path class="a08aa9e1-0642-418c-a7a5-69bf7d35dc86" d="M86.75,299.66a4.26,4.26,0,0,0,0-.73.47.47,0,0,0-.15-.29.73.73,0,0,0-.38-.07.58.58,0,0,0-.45.14.65.65,0,0,0-.18.4,6.91,6.91,0,0,0,0,.78v1.85H85v-2.08a5.65,5.65,0,0,0,0-.73.47.47,0,0,0-.15-.29.73.73,0,0,0-.38-.07.6.6,0,0,0-.45.15.68.68,0,0,0-.18.41,7.29,7.29,0,0,0,0,.76v1.85h-.5v-3.57h.43l0,.5h0a.79.79,0,0,1,.28-.4.89.89,0,0,1,.56-.15,1.05,1.05,0,0,1,.57.12.69.69,0,0,1,.26.43h0a.77.77,0,0,1,.29-.41,1,1,0,0,1,.57-.14.92.92,0,0,1,.57.14.68.68,0,0,1,.25.42,3.37,3.37,0,0,1,.07.8v2.26h-.5Z"/><path class="a08aa9e1-0642-418c-a7a5-69bf7d35dc86" d="M88.1,297.12v-.58h.52v.58Zm0,4.62v-3.57h.5v3.57Z"/><path class="a08aa9e1-0642-418c-a7a5-69bf7d35dc86" d="M91.3,299.66a4,4,0,0,0,0-.73.44.44,0,0,0-.17-.29.84.84,0,0,0-.41-.07.62.62,0,0,0-.47.15.68.68,0,0,0-.18.41,5,5,0,0,0,0,.76v1.85h-.5v-3.57h.44l0,.5h0a.72.72,0,0,1,.29-.41,1.07,1.07,0,0,1,.59-.14,1,1,0,0,1,.59.14.71.71,0,0,1,.27.42,4.17,4.17,0,0,1,.06.81v2.25H91.3Z"/><path class="a08aa9e1-0642-418c-a7a5-69bf7d35dc86" d="M92.67,301.58a1.15,1.15,0,0,1-.22-.82,2.05,2.05,0,0,1,.08-.63.58.58,0,0,1,.27-.32,1.17,1.17,0,0,1,.55-.1l.92,0v-.25a2.36,2.36,0,0,0-.06-.63.36.36,0,0,0-.21-.25,1.66,1.66,0,0,0-.53-.06,3.34,3.34,0,0,0-.41,0l-.43.05v-.4a4.34,4.34,0,0,1,1-.1,1.69,1.69,0,0,1,.73.12.62.62,0,0,1,.34.4,3,3,0,0,1,.09.84v2.26h-.44l0-.49h0a.66.66,0,0,1-.34.44,1.28,1.28,0,0,1-.55.11A.93.93,0,0,1,92.67,301.58Zm1.27-.27a.39.39,0,0,0,.23-.25,2.23,2.23,0,0,0,.1-.75v-.23h-.8a.92.92,0,0,0-.33,0,.3.3,0,0,0-.15.19,1.4,1.4,0,0,0,0,.42,1.37,1.37,0,0,0,0,.41.28.28,0,0,0,.17.18.94.94,0,0,0,.38.05A1.16,1.16,0,0,0,93.94,301.31Z"/><path class="a08aa9e1-0642-418c-a7a5-69bf7d35dc86" d="M96.91,301.71v-.46a4,4,0,0,0,.54.06l.5,0a1.78,1.78,0,0,0,.44,0,.5.5,0,0,0,.27-.14.43.43,0,0,0,.13-.26,3,3,0,0,0,0-.47,3.22,3.22,0,0,0,0-.54.31.31,0,0,0-.13-.22.84.84,0,0,0-.36-.11l-.81-.12a.82.82,0,0,1-.44-.2.72.72,0,0,1-.19-.39,3.52,3.52,0,0,1,0-.64,1.42,1.42,0,0,1,.31-1,1.34,1.34,0,0,1,1-.31,3.87,3.87,0,0,1,1.06.12v.43a5,5,0,0,0-.94-.09,1.56,1.56,0,0,0-.48.06.58.58,0,0,0-.27.15.47.47,0,0,0-.11.26,2.25,2.25,0,0,0,0,.4,2.46,2.46,0,0,0,0,.46.25.25,0,0,0,.11.2.65.65,0,0,0,.28.09l.78.13a1.18,1.18,0,0,1,.46.15.56.56,0,0,1,.26.33,3.3,3.3,0,0,1,0,1.65.78.78,0,0,1-.38.45,1.68,1.68,0,0,1-.74.14A7.33,7.33,0,0,1,96.91,301.71Z"/><path class="a08aa9e1-0642-418c-a7a5-69bf7d35dc86" d="M99.51,297.51v0l.54-.93h.55l.53.93v0h-.35l-.45-.68-.47.68Zm.56,4.23v-3.57h.5v3.57Z"/><path class="a08aa9e1-0642-418c-a7a5-69bf7d35dc86" d="M101.45,298.17h.43l0,.67h0a.9.9,0,0,1,.32-.57,1.07,1.07,0,0,1,.6-.15v.5a.85.85,0,0,0-.56.16.8.8,0,0,0-.29.46,3.44,3.44,0,0,0-.08.81v1.69h-.49Z"/><path class="a08aa9e1-0642-418c-a7a5-69bf7d35dc86" d="M104.26,301.69a.68.68,0,0,1-.31-.44h0l0,.49h-.43v-5.2h.5v2.07h0a.73.73,0,0,1,.3-.38,1.2,1.2,0,0,1,.54-.11,1,1,0,0,1,.63.16.88.88,0,0,1,.3.54,6.39,6.39,0,0,1,.08,1.14,5.42,5.42,0,0,1-.09,1.14.89.89,0,0,1-.3.55,1.11,1.11,0,0,1-.63.15A1.27,1.27,0,0,1,104.26,301.69Zm.83-.43a.56.56,0,0,0,.19-.37,10.83,10.83,0,0,0,0-1.86.56.56,0,0,0-.19-.37.9.9,0,0,0-.47-.09.73.73,0,0,0-.39.09.54.54,0,0,0-.21.31,2.37,2.37,0,0,0-.06.41,4.89,4.89,0,0,0,0,.58c0,.24,0,.43,0,.57a1.59,1.59,0,0,0,.07.4.46.46,0,0,0,.2.32.68.68,0,0,0,.4.1A.9.9,0,0,0,105.09,301.26Z"/><path class="a08aa9e1-0642-418c-a7a5-69bf7d35dc86" d="M108.41,301.25h0a.83.83,0,0,1-.29.41,1.11,1.11,0,0,1-.6.14,1.07,1.07,0,0,1-.59-.14.65.65,0,0,1-.26-.42,3.41,3.41,0,0,1-.07-.81v-2.26h.5v2.09a4.26,4.26,0,0,0,0,.73.44.44,0,0,0,.17.29.91.91,0,0,0,.42.07.62.62,0,0,0,.46-.15.68.68,0,0,0,.18-.41,5,5,0,0,0,0-.76v-1.86h.5v3.57h-.44Z"/><path class="a08aa9e1-0642-418c-a7a5-69bf7d35dc86" d="M114.24,299.09v.44h-.59v2.15l-.56.09-.57,0a2.4,2.4,0,0,1-1-.15.9.9,0,0,1-.44-.44,2.2,2.2,0,0,1-.11-.75,1.54,1.54,0,0,1,.16-.81.9.9,0,0,1,.5-.35v0a.82.82,0,0,1-.48-.36,1.56,1.56,0,0,1-.15-.77,1.62,1.62,0,0,1,.13-.7.86.86,0,0,1,.44-.42,2.2,2.2,0,0,1,.91-.15,4,4,0,0,1,.56,0,3.71,3.71,0,0,1,.55.09v.4l-.51-.07-.46,0a2.15,2.15,0,0,0-.72.08.55.55,0,0,0-.32.27,1.56,1.56,0,0,0-.07.55,1.31,1.31,0,0,0,.13.65.58.58,0,0,0,.55.23h.44v.44h-.44a.83.83,0,0,0-.46.1.47.47,0,0,0-.21.3,2.37,2.37,0,0,0,0,.53,1.27,1.27,0,0,0,.11.58.49.49,0,0,0,.32.26,1.89,1.89,0,0,0,.6.07,2.78,2.78,0,0,0,.61-.05v-2.23Z"/><path class="a08aa9e1-0642-418c-a7a5-69bf7d35dc86" d="M115.59,297.51v0l.54-.93h.55l.53.93v0h-.35l-.46-.68-.46.68Zm.56,4.23v-3.57h.5v3.57Z"/><path class="a08aa9e1-0642-418c-a7a5-69bf7d35dc86" d="M121,299.66a4.26,4.26,0,0,0,0-.73.43.43,0,0,0-.16-.29.69.69,0,0,0-.37-.07.62.62,0,0,0-.46.14.7.7,0,0,0-.17.4,5.13,5.13,0,0,0,0,.78v1.85h-.5v-2.08a4.26,4.26,0,0,0,0-.73.39.39,0,0,0-.15-.29.69.69,0,0,0-.37-.07.58.58,0,0,0-.45.15.68.68,0,0,0-.18.41,5,5,0,0,0,0,.76v1.85h-.49v-3.57H118l0,.5h0a.73.73,0,0,1,.28-.4.87.87,0,0,1,.56-.15,1.08,1.08,0,0,1,.57.12.74.74,0,0,1,.26.43h0a.76.76,0,0,1,.28-.41,1.06,1.06,0,0,1,.58-.14.92.92,0,0,1,.57.14.68.68,0,0,1,.25.42,4,4,0,0,1,.07.8v2.26H121Z"/><path class="a08aa9e1-0642-418c-a7a5-69bf7d35dc86" d="M123.17,301.69a.69.69,0,0,1-.32-.44h0l0,.49h-.43v-5.2h.49v2.07h0a.69.69,0,0,1,.3-.38,1.16,1.16,0,0,1,.53-.11,1,1,0,0,1,.63.16.79.79,0,0,1,.3.54,7.26,7.26,0,0,1,0,2.28.94.94,0,0,1-.3.55,1.13,1.13,0,0,1-.63.15A1.27,1.27,0,0,1,123.17,301.69Zm.83-.43a.52.52,0,0,0,.18-.37,8.67,8.67,0,0,0,0-1.86.52.52,0,0,0-.18-.37.9.9,0,0,0-.47-.09.76.76,0,0,0-.4.09.53.53,0,0,0-.2.31,2.33,2.33,0,0,0-.07.41c0,.15,0,.35,0,.58s0,.43,0,.57a2.25,2.25,0,0,0,.06.4.54.54,0,0,0,.2.32.71.71,0,0,0,.41.1A.9.9,0,0,0,124,301.26Z"/><path class="a08aa9e1-0642-418c-a7a5-69bf7d35dc86" d="M127.32,301.25h0a.72.72,0,0,1-.29.41,1.07,1.07,0,0,1-.59.14,1,1,0,0,1-.59-.14.71.71,0,0,1-.27-.42,4.17,4.17,0,0,1-.06-.81v-2.26H126v2.09a4,4,0,0,0,0,.73.44.44,0,0,0,.17.29.84.84,0,0,0,.41.07.65.65,0,0,0,.47-.15.74.74,0,0,0,.18-.41,5,5,0,0,0,0-.76v-1.86h.5v3.57h-.44Z"/><path class="a08aa9e1-0642-418c-a7a5-69bf7d35dc86" d="M130.48,299.66a4.26,4.26,0,0,0,0-.73.41.41,0,0,0-.18-.29.84.84,0,0,0-.41-.07.65.65,0,0,0-.47.15.74.74,0,0,0-.18.41,7.29,7.29,0,0,0,0,.76v1.85h-.5v-3.57h.43l0,.5h0a.83.83,0,0,1,.29-.41,1.33,1.33,0,0,1,1.19,0,.65.65,0,0,1,.26.42,3.41,3.41,0,0,1,.07.81v2.25h-.5Z"/><path class="a08aa9e1-0642-418c-a7a5-69bf7d35dc86" d="M131.85,301.58a1.21,1.21,0,0,1-.21-.82,1.78,1.78,0,0,1,.08-.63.51.51,0,0,1,.27-.32,1.16,1.16,0,0,1,.54-.1l.93,0v-.25a2.36,2.36,0,0,0-.06-.63.35.35,0,0,0-.22-.25,1.63,1.63,0,0,0-.52-.06,3.4,3.4,0,0,0-.42,0l-.43.05v-.4a4.43,4.43,0,0,1,1-.1,1.72,1.72,0,0,1,.73.12.64.64,0,0,1,.33.4,3,3,0,0,1,.09.84v2.26h-.44l0-.49h0a.66.66,0,0,1-.34.44,1.35,1.35,0,0,1-.55.11A1,1,0,0,1,131.85,301.58Zm1.77-4.48a.51.51,0,0,1-.22.32.92.92,0,0,1-.53.12.87.87,0,0,1-.51-.12.55.55,0,0,1-.22-.32,2.79,2.79,0,0,1,0-.56h.35a3.59,3.59,0,0,0,0,.4.29.29,0,0,0,.11.2.46.46,0,0,0,.29.08.48.48,0,0,0,.31-.08.29.29,0,0,0,.11-.2,2,2,0,0,0,0-.4h.35A2.68,2.68,0,0,1,133.62,297.1Zm-.5,4.21a.39.39,0,0,0,.23-.25,2.2,2.2,0,0,0,.11-.75v-.23h-.8a.92.92,0,0,0-.33,0,.28.28,0,0,0-.16.19,1.47,1.47,0,0,0,0,.42,1.44,1.44,0,0,0,0,.41.3.3,0,0,0,.17.18,1,1,0,0,0,.38.05A1.12,1.12,0,0,0,133.12,301.31Z"/><path class="a08aa9e1-0642-418c-a7a5-69bf7d35dc86" d="M135,301.74V298.6h-.52v-.43H135v-1h.5v1h.61v.43h-.61v3.14Z"/><path class="a08aa9e1-0642-418c-a7a5-69bf7d35dc86" d="M136.74,301.58a1.15,1.15,0,0,1-.22-.82,2.05,2.05,0,0,1,.08-.63.56.56,0,0,1,.28-.32,1.13,1.13,0,0,1,.54-.1l.92,0v-.25a2.36,2.36,0,0,0-.06-.63.36.36,0,0,0-.21-.25,1.66,1.66,0,0,0-.53-.06,3.34,3.34,0,0,0-.41,0l-.43.05v-.4a4.34,4.34,0,0,1,1-.1,1.74,1.74,0,0,1,.74.12.64.64,0,0,1,.33.4,3,3,0,0,1,.09.84v2.26h-.44l0-.49h0a.69.69,0,0,1-.34.44,1.35,1.35,0,0,1-.55.11A.94.94,0,0,1,136.74,301.58Zm1.77-4.48a.55.55,0,0,1-.22.32,1.21,1.21,0,0,1-1,0,.54.54,0,0,1-.21-.32,2.68,2.68,0,0,1-.05-.56h.35a2,2,0,0,0,0,.4.29.29,0,0,0,.11.2.46.46,0,0,0,.29.08.52.52,0,0,0,.31-.08.29.29,0,0,0,.11-.2,2.13,2.13,0,0,0,0-.4h.35A2.79,2.79,0,0,1,138.51,297.1Zm-.5,4.21a.39.39,0,0,0,.23-.25,2.23,2.23,0,0,0,.1-.75v-.23h-.8a1,1,0,0,0-.33,0,.3.3,0,0,0-.15.19,1.4,1.4,0,0,0-.05.42,1.37,1.37,0,0,0,.05.41.3.3,0,0,0,.17.18.94.94,0,0,0,.38.05A1.16,1.16,0,0,0,138,301.31Z"/><path class="a08aa9e1-0642-418c-a7a5-69bf7d35dc86" d="M139.92,301.74V298.6h-.52v-.43h.52v-1h.49v1H141v.43h-.62v3.14Zm.2,1.47a.57.57,0,0,0,.06-.32v-.11H140v-.6h.56v.55a1.63,1.63,0,0,1,0,.5.36.36,0,0,1-.19.23,1.18,1.18,0,0,1-.44.06v-.24C140,303.28,140.08,303.26,140.12,303.21Z"/><path class="a08aa9e1-0642-418c-a7a5-69bf7d35dc86" d="M141.6,297.12v-.58h.52v.58Zm0,4.62v-3.57h.5v3.57Z"/><path class="a08aa9e1-0642-418c-a7a5-69bf7d35dc86" d="M143.2,301.74V298.6h-.52v-.43h.52v-1h.5v1h.61v.43h-.61v3.14Z"/><path class="a08aa9e1-0642-418c-a7a5-69bf7d35dc86" d="M146.52,301.65a.9.9,0,0,1-.31-.54,6.39,6.39,0,0,1-.08-1.14,5.56,5.56,0,0,1,.08-1.14.88.88,0,0,1,.3-.55,1,1,0,0,1,.62-.16,1.15,1.15,0,0,1,.54.11.65.65,0,0,1,.3.38h0v-2.07h.5v5.2h-.44l0-.49h0a.66.66,0,0,1-.32.44,1.2,1.2,0,0,1-.54.11A1.07,1.07,0,0,1,146.52,301.65Zm1.21-.4a.46.46,0,0,0,.2-.32,2.18,2.18,0,0,0,.07-.41c0-.15,0-.36,0-.62a4.11,4.11,0,0,0-.06-.84.61.61,0,0,0-.21-.38.67.67,0,0,0-.43-.11.84.84,0,0,0-.45.09.49.49,0,0,0-.19.37,8.67,8.67,0,0,0,0,1.86.56.56,0,0,0,.19.37.86.86,0,0,0,.46.09A.69.69,0,0,0,147.73,301.25Z"/><path class="a08aa9e1-0642-418c-a7a5-69bf7d35dc86" d="M151.61,300.12h-1.84a4,4,0,0,0,.06.82.47.47,0,0,0,.22.34,1.34,1.34,0,0,0,.58.09,5,5,0,0,0,.88-.07v.4a2.9,2.9,0,0,1-.44.07l-.54,0a1.62,1.62,0,0,1-.83-.16.84.84,0,0,1-.34-.54,5.33,5.33,0,0,1-.08-1.13,6.23,6.23,0,0,1,.07-1.13.79.79,0,0,1,.32-.55,1.57,1.57,0,0,1,.82-.17,1.29,1.29,0,0,1,.77.17.77.77,0,0,1,.29.52,7.76,7.76,0,0,1,.06,1.15Zm-1.6-1.5a.45.45,0,0,0-.19.33,4.8,4.8,0,0,0,0,.8h1.36v-.08a4.28,4.28,0,0,0,0-.75.45.45,0,0,0-.19-.31.84.84,0,0,0-.4-.07A1.12,1.12,0,0,0,150,298.62Z"/><path class="a08aa9e1-0642-418c-a7a5-69bf7d35dc86" d="M153.67,301.71v-.46a4,4,0,0,0,.54.06l.49,0a1.82,1.82,0,0,0,.45,0,.5.5,0,0,0,.27-.14.49.49,0,0,0,.12-.26,2.05,2.05,0,0,0,0-.47,3.22,3.22,0,0,0,0-.54.31.31,0,0,0-.13-.22,1,1,0,0,0-.36-.11l-.81-.12a.79.79,0,0,1-.44-.2.73.73,0,0,1-.2-.39,3.67,3.67,0,0,1,0-.64,1.42,1.42,0,0,1,.3-1,1.35,1.35,0,0,1,1-.31,4,4,0,0,1,1.07.12v.43a5.09,5.09,0,0,0-1-.09,1.45,1.45,0,0,0-.47.06.58.58,0,0,0-.27.15.57.57,0,0,0-.12.26,2.25,2.25,0,0,0,0,.4,2.46,2.46,0,0,0,0,.46.32.32,0,0,0,.11.2.7.7,0,0,0,.28.09l.79.13a1.24,1.24,0,0,1,.46.15.6.6,0,0,1,.26.33,2.74,2.74,0,0,1,.08.81,2.62,2.62,0,0,1-.11.84.79.79,0,0,1-.39.45,1.65,1.65,0,0,1-.74.14A7.29,7.29,0,0,1,153.67,301.71Z"/><path class="a08aa9e1-0642-418c-a7a5-69bf7d35dc86" d="M156.82,297.12v-.58h.52v.58Zm0,4.62v-3.57h.5v3.57Z"/><path class="a08aa9e1-0642-418c-a7a5-69bf7d35dc86" d="M158.2,301.74v-5.2h.5v5.2Z"/><path class="a08aa9e1-0642-418c-a7a5-69bf7d35dc86" d="M160.25,301.74l-1-3.57h.51l.76,2.94h0l.75-2.94h.5l-1,3.57Z"/><path class="a08aa9e1-0642-418c-a7a5-69bf7d35dc86" d="M162.39,297.12v-.58h.53v.58Zm0,4.62v-3.57h.5v3.57Z"/><path class="a08aa9e1-0642-418c-a7a5-69bf7d35dc86" d="M163.79,301.58a1.21,1.21,0,0,1-.21-.82,1.78,1.78,0,0,1,.08-.63.51.51,0,0,1,.27-.32,1.16,1.16,0,0,1,.54-.1l.93,0v-.25a2.36,2.36,0,0,0-.06-.63.35.35,0,0,0-.22-.25,1.59,1.59,0,0,0-.52-.06,3.4,3.4,0,0,0-.42,0l-.43.05v-.4a4.43,4.43,0,0,1,1-.1,1.69,1.69,0,0,1,.73.12.64.64,0,0,1,.33.4,3,3,0,0,1,.09.84v2.26h-.44l0-.49h0a.66.66,0,0,1-.34.44,1.35,1.35,0,0,1-.55.11A1,1,0,0,1,163.79,301.58Zm1.27-.27a.39.39,0,0,0,.23-.25,2.2,2.2,0,0,0,.11-.75v-.23h-.8a.92.92,0,0,0-.33,0,.31.31,0,0,0-.16.19,1.47,1.47,0,0,0,0,.42,1.44,1.44,0,0,0,0,.41.29.29,0,0,0,.18.18.88.88,0,0,0,.37.05A1.09,1.09,0,0,0,165.06,301.31Z"/><path class="a08aa9e1-0642-418c-a7a5-69bf7d35dc86" d="M168.15,296.93h1.46a1.06,1.06,0,0,1,.86.31,1.35,1.35,0,0,1,.25.89,1.46,1.46,0,0,1-.17.78.82.82,0,0,1-.54.36v0a.89.89,0,0,1,.6.39,1.8,1.8,0,0,1,.16.8,1.48,1.48,0,0,1-.26.92,1.06,1.06,0,0,1-.93.34h-1.43Zm1.87,1.94a1,1,0,0,0,.18-.64,1.59,1.59,0,0,0-.06-.49.48.48,0,0,0-.22-.26,1,1,0,0,0-.46-.09h-.79v1.68h.79A.73.73,0,0,0,170,298.87Zm.06,2.22a1.16,1.16,0,0,0,.15-.68,1.08,1.08,0,0,0-.16-.68.74.74,0,0,0-.58-.2h-.82v1.75h.82A.73.73,0,0,0,170.08,301.09Z"/><path class="a08aa9e1-0642-418c-a7a5-69bf7d35dc86" d="M171.83,301.65a.69.69,0,0,1-.33-.51,10,10,0,0,1,0-2.36.69.69,0,0,1,.33-.51,1.61,1.61,0,0,1,.81-.15,1.68,1.68,0,0,1,.82.15.71.71,0,0,1,.32.51,10,10,0,0,1,0,2.36.71.71,0,0,1-.32.51,1.68,1.68,0,0,1-.82.15A1.61,1.61,0,0,1,171.83,301.65Zm1.31-.37a.52.52,0,0,0,.17-.37,11.3,11.3,0,0,0,0-1.9.52.52,0,0,0-.17-.37,1,1,0,0,0-.5-.09.94.94,0,0,0-.49.09.49.49,0,0,0-.18.37,11.3,11.3,0,0,0,0,1.9.49.49,0,0,0,.18.37.94.94,0,0,0,.49.09A1,1,0,0,0,173.14,301.28Z"/><path class="a08aa9e1-0642-418c-a7a5-69bf7d35dc86" d="M174.63,303.09v-.41l.85,0a1.27,1.27,0,0,0,.6-.1.53.53,0,0,0,.25-.37,4.24,4.24,0,0,0,.06-.84v-.11h0a.67.67,0,0,1-.29.38,1.2,1.2,0,0,1-.54.11,1.08,1.08,0,0,1-.63-.15.84.84,0,0,1-.3-.54,5.42,5.42,0,0,1-.09-1.14,5.25,5.25,0,0,1,.09-1.13.94.94,0,0,1,.3-.55,1.14,1.14,0,0,1,.64-.15,1.22,1.22,0,0,1,.53.11.72.72,0,0,1,.32.44h0l0-.5h.44v3.06a5.72,5.72,0,0,1-.08,1.16.91.91,0,0,1-.37.57,1.6,1.6,0,0,1-.86.18C175.25,303.14,174.93,303.12,174.63,303.09Zm1.48-1.86a.55.55,0,0,0,.2-.33,4.2,4.2,0,0,0,.08-.95c0-.22,0-.4,0-.54a1.48,1.48,0,0,0-.06-.35.55.55,0,0,0-.62-.49.86.86,0,0,0-.46.09.49.49,0,0,0-.19.37,6.25,6.25,0,0,0-.05.92,6.31,6.31,0,0,0,.05.93.49.49,0,0,0,.19.37.86.86,0,0,0,.46.09A.71.71,0,0,0,176.11,301.23Z"/><path class="a08aa9e1-0642-418c-a7a5-69bf7d35dc86" d="M178,301.65a.94.94,0,0,1-.3-.54,7.27,7.27,0,0,1,0-2.28.79.79,0,0,1,.3-.55,1,1,0,0,1,.62-.16,1.15,1.15,0,0,1,.54.11.65.65,0,0,1,.3.38h0v-2.07H180v5.2h-.44l0-.49h0a.69.69,0,0,1-.32.44,1.27,1.27,0,0,1-.54.11A1.11,1.11,0,0,1,178,301.65Zm1.22-.4a.5.5,0,0,0,.2-.32,2.23,2.23,0,0,0,.06-.41c0-.15,0-.36,0-.62a3.36,3.36,0,0,0-.07-.84.56.56,0,0,0-.2-.38.69.69,0,0,0-.43-.11.91.91,0,0,0-.46.09.52.52,0,0,0-.18.37,8.67,8.67,0,0,0,0,1.86.49.49,0,0,0,.19.37.86.86,0,0,0,.46.09A.71.71,0,0,0,179.26,301.25Z"/><path class="a08aa9e1-0642-418c-a7a5-69bf7d35dc86" d="M180.93,301.58a1.2,1.2,0,0,1-.22-.82,2.05,2.05,0,0,1,.08-.63.56.56,0,0,1,.28-.32,1.13,1.13,0,0,1,.54-.1l.92,0v-.25a2.36,2.36,0,0,0-.06-.63.36.36,0,0,0-.21-.25,1.66,1.66,0,0,0-.53-.06,3.34,3.34,0,0,0-.41,0l-.43.05v-.4a4.34,4.34,0,0,1,1-.1,1.74,1.74,0,0,1,.74.12.64.64,0,0,1,.33.4,3,3,0,0,1,.09.84v2.26h-.44l0-.49h0a.69.69,0,0,1-.34.44,1.35,1.35,0,0,1-.55.11A.94.94,0,0,1,180.93,301.58Zm1.27-.27a.39.39,0,0,0,.23-.25,2.23,2.23,0,0,0,.1-.75v-.23h-.8a1,1,0,0,0-.33,0,.3.3,0,0,0-.15.19,1.4,1.4,0,0,0-.05.42,1.37,1.37,0,0,0,.05.41.3.3,0,0,0,.17.18.94.94,0,0,0,.38.05A1.16,1.16,0,0,0,182.2,301.31Z"/><path class="a08aa9e1-0642-418c-a7a5-69bf7d35dc86" d="M185.7,299.66a4.26,4.26,0,0,0,0-.73.44.44,0,0,0-.17-.29.88.88,0,0,0-.42-.07.61.61,0,0,0-.46.15.75.75,0,0,0-.19.41,7.29,7.29,0,0,0,0,.76v1.85h-.5v-3.57h.44l0,.5h0a.79.79,0,0,1,.3-.41,1.31,1.31,0,0,1,1.18,0,.65.65,0,0,1,.26.42,3.41,3.41,0,0,1,.07.81v2.25h-.5Z"/><path class="e0bf3509-f71c-4133-b0b9-e40f0166f5e8" d="M43.1,50.15s-.73,1-.38,1.34c0,0,.13.08.29-.13a8.33,8.33,0,0,0,.22-1.16s0-.2-.13-.05"/><path class="a55542c3-c21b-4072-b453-ea411e71b91f" d="M43.1,50.15s-.73,1-.38,1.34c0,0,.13.08.29-.13a8.33,8.33,0,0,0,.22-1.16S43.27,50,43.1,50.15Z"/><path class="e0bf3509-f71c-4133-b0b9-e40f0166f5e8" d="M42.62,52.58s-.37.68-.22.62.42-.77.22-.62"/><path class="a5602f4a-4957-4217-aac1-bee59e0ed58b" d="M42.62,52.58s-.37.68-.22.62S42.82,52.43,42.62,52.58Z"/><path class="e0bf3509-f71c-4133-b0b9-e40f0166f5e8" d="M42.09,58.12c-.55-.34-.34-.61-.34-.61.12-.22.39.52.39.52s.08.17,0,.09"/><path class="a5602f4a-4957-4217-aac1-bee59e0ed58b" d="M42.09,58.12c-.55-.34-.34-.61-.34-.61.12-.22.39.52.39.52S42.22,58.2,42.09,58.12Z"/><path class="b53eef45-4aa1-42c2-b4ce-679714bfb378" d="M70.71,88.13h4.4a3.74,3.74,0,0,1,2.14.51,2.47,2.47,0,0,1,1,1.46,10.82,10.82,0,0,1,.25,2.55,11.21,11.21,0,0,1-.23,2.49,2.61,2.61,0,0,1-1,1.51,3.61,3.61,0,0,1-2.19.55H73.38v4.26H70.71Zm3.72,6.73a1.91,1.91,0,0,0,.93-.16.82.82,0,0,0,.36-.59,13.36,13.36,0,0,0,0-2.92.82.82,0,0,0-.35-.57,2.19,2.19,0,0,0-.92-.14H73.38v4.38Z"/><path class="b53eef45-4aa1-42c2-b4ce-679714bfb378" d="M85.32,101.46,84,96.81H82.58v4.65H79.91V88.13h4.5a4,4,0,0,1,2.16.49,2.34,2.34,0,0,1,1,1.39,9.35,9.35,0,0,1,.26,2.44,9.53,9.53,0,0,1-.26,2.41,2.35,2.35,0,0,1-1.06,1.43l1.61,5.17Zm-.64-7.1a.73.73,0,0,0,.36-.54,8.07,8.07,0,0,0,.08-1.35A7.59,7.59,0,0,0,85,91.16a.78.78,0,0,0-.36-.54,2.2,2.2,0,0,0-.91-.14H82.58v4h1.19A2,2,0,0,0,84.68,94.36Z"/><path class="b53eef45-4aa1-42c2-b4ce-679714bfb378" d="M90.51,101a2.76,2.76,0,0,1-1.07-1.9,30.92,30.92,0,0,1-.21-4.33,30.8,30.8,0,0,1,.21-4.34,2.71,2.71,0,0,1,1.07-1.89,7.25,7.25,0,0,1,5.73,0,2.68,2.68,0,0,1,1.07,1.89,30.8,30.8,0,0,1,.21,4.34,30.92,30.92,0,0,1-.21,4.33,2.72,2.72,0,0,1-1.07,1.9,7.25,7.25,0,0,1-5.73,0Zm3.91-2a1.54,1.54,0,0,0,.35-1c0-.56.08-1.63.08-3.22s0-2.66-.08-3.22a1.54,1.54,0,0,0-.35-1,2.59,2.59,0,0,0-2.09,0,1.54,1.54,0,0,0-.35,1c0,.56-.08,1.63-.08,3.22s0,2.66.08,3.22a1.54,1.54,0,0,0,.35,1,2.59,2.59,0,0,0,2.09,0Z"/><path class="b53eef45-4aa1-42c2-b4ce-679714bfb378" d="M101,101.46,98.47,88.13h2.72l1.74,10.54h.17l1.69-10.54h2.67l-2.55,13.33Z"/><path class="b53eef45-4aa1-42c2-b4ce-679714bfb378" d="M109.71,101a2.76,2.76,0,0,1-1.07-1.9,30.92,30.92,0,0,1-.21-4.33,30.8,30.8,0,0,1,.21-4.34,2.71,2.71,0,0,1,1.07-1.89,7.28,7.28,0,0,1,5.74,0,2.7,2.7,0,0,1,1.06,1.89,30.8,30.8,0,0,1,.21,4.34,30.92,30.92,0,0,1-.21,4.33,2.75,2.75,0,0,1-1.06,1.9,7.28,7.28,0,0,1-5.74,0Zm3.91-2a1.54,1.54,0,0,0,.35-1c0-.56.08-1.63.08-3.22s0-2.66-.08-3.22a1.54,1.54,0,0,0-.35-1,2.59,2.59,0,0,0-2.09,0,1.54,1.54,0,0,0-.35,1c-.05.56-.07,1.63-.07,3.22s0,2.66.07,3.22a1.54,1.54,0,0,0,.35,1,2.59,2.59,0,0,0,2.09,0Z"/><path class="b53eef45-4aa1-42c2-b4ce-679714bfb378" d="M123.55,101.52a7.64,7.64,0,0,1-1.23.1,4.71,4.71,0,0,1-2.67-.6,3,3,0,0,1-1.13-2,22.94,22.94,0,0,1-.28-4.22,22.11,22.11,0,0,1,.29-4.22,3,3,0,0,1,1.15-2,4.64,4.64,0,0,1,2.64-.6,8.93,8.93,0,0,1,1.27.09,4.11,4.11,0,0,1,1,.22v2.17a15.91,15.91,0,0,0-1.7-.14,2.61,2.61,0,0,0-1.37.26A1.57,1.57,0,0,0,121,91.7a29.62,29.62,0,0,0-.11,3.1,29.62,29.62,0,0,0,.11,3.1A1.52,1.52,0,0,0,121.5,99a2.49,2.49,0,0,0,1.37.27,11.14,11.14,0,0,0,1.74-.14v2.15A5.94,5.94,0,0,1,123.55,101.52Z"/><path class="b53eef45-4aa1-42c2-b4ce-679714bfb378" d="M132,101.46l-.52-2.73h-3l-.53,2.73h-2.65l2.75-13.33H132l2.76,13.33Zm-2-10.81h-.12l-1,5.78h2.19Z"/><path class="b53eef45-4aa1-42c2-b4ce-679714bfb378" d="M141.27,101.46,140,96.81h-1.43v4.65h-2.67V88.13h4.49a3.92,3.92,0,0,1,2.16.49,2.36,2.36,0,0,1,1,1.39,9.41,9.41,0,0,1,.25,2.44,9.09,9.09,0,0,1-.26,2.41,2.34,2.34,0,0,1-1.05,1.43l1.6,5.17Zm-.64-7.1a.73.73,0,0,0,.36-.54,6.87,6.87,0,0,0,.09-1.35,6.47,6.47,0,0,0-.09-1.31.78.78,0,0,0-.36-.54,2.17,2.17,0,0,0-.91-.14h-1.18v4h1.18A2,2,0,0,0,140.63,94.36Z"/><path class="b53eef45-4aa1-42c2-b4ce-679714bfb378" d="M145.44,101.46V88.13h6.47v2.35h-3.8v3.08h3.28V95.9h-3.28v3.22h3.8v2.34Z"/><path class="a08aa9e1-0642-418c-a7a5-69bf7d35dc86" d="M63.92,120.78h1.64A2.92,2.92,0,0,1,67,121a1.31,1.31,0,0,1,.55.94,14.41,14.41,0,0,1,.12,2.24,14.56,14.56,0,0,1-.12,2.25,1.29,1.29,0,0,1-.55.93,2.92,2.92,0,0,1-1.43.26H63.92ZM65.53,127a2.26,2.26,0,0,0,1-.14.94.94,0,0,0,.34-.69,21.06,21.06,0,0,0,0-3.89c-.06-.37-.17-.6-.35-.69a2,2,0,0,0-.94-.15h-.87V127Z"/><path class="a08aa9e1-0642-418c-a7a5-69bf7d35dc86" d="M68.84,127.42a1.7,1.7,0,0,1-.31-1.16,2.63,2.63,0,0,1,.12-.9.81.81,0,0,1,.39-.47,1.76,1.76,0,0,1,.77-.14l1.32,0v-.36a3.25,3.25,0,0,0-.08-.9.5.5,0,0,0-.31-.36,2.21,2.21,0,0,0-.75-.09,4.83,4.83,0,0,0-.59,0c-.24,0-.45,0-.62.07v-.58a7,7,0,0,1,1.41-.14,2.53,2.53,0,0,1,1,.17.9.9,0,0,1,.47.58,4.06,4.06,0,0,1,.13,1.2v3.23h-.63l0-.7h0a1,1,0,0,1-.48.63,1.92,1.92,0,0,1-.79.15A1.39,1.39,0,0,1,68.84,127.42Zm1.81-.37a.59.59,0,0,0,.33-.37,3.12,3.12,0,0,0,.15-1.07v-.33H70a1.13,1.13,0,0,0-.47.07.39.39,0,0,0-.22.26,2.12,2.12,0,0,0-.07.6,2,2,0,0,0,.07.58.41.41,0,0,0,.24.27,1.5,1.5,0,0,0,.54.07A1.73,1.73,0,0,0,70.65,127.05Z"/><path class="a08aa9e1-0642-418c-a7a5-69bf7d35dc86" d="M75.12,127.71l-.58,0a1.83,1.83,0,0,1-1.08-.26,1.25,1.25,0,0,1-.45-.79,9.93,9.93,0,0,1-.1-1.58,7.72,7.72,0,0,1,.13-1.59,1.26,1.26,0,0,1,.46-.79,1.71,1.71,0,0,1,1-.25,3.86,3.86,0,0,1,.58,0,2.29,2.29,0,0,1,.48.09v.58a3.71,3.71,0,0,0-.9-.1,1.13,1.13,0,0,0-.69.16.85.85,0,0,0-.29.56,7.73,7.73,0,0,0-.08,1.29,8,8,0,0,0,.08,1.32A.85.85,0,0,0,74,127a1.28,1.28,0,0,0,.7.15,3.68,3.68,0,0,0,.92-.11v.59A3.47,3.47,0,0,1,75.12,127.71Z"/><path class="a08aa9e1-0642-418c-a7a5-69bf7d35dc86" d="M76.6,127.42a1.7,1.7,0,0,1-.31-1.16,2.63,2.63,0,0,1,.12-.9.81.81,0,0,1,.39-.47,1.76,1.76,0,0,1,.77-.14l1.32,0v-.36a3.25,3.25,0,0,0-.08-.9.5.5,0,0,0-.31-.36,2.21,2.21,0,0,0-.75-.09,4.83,4.83,0,0,0-.59,0c-.24,0-.45,0-.62.07v-.58a7,7,0,0,1,1.41-.14,2.53,2.53,0,0,1,1,.17.9.9,0,0,1,.47.58,4.06,4.06,0,0,1,.13,1.2v3.23H79l0-.7h-.05a1,1,0,0,1-.48.63,1.92,1.92,0,0,1-.79.15A1.39,1.39,0,0,1,76.6,127.42Zm2.53-6.4a.78.78,0,0,1-.31.46,1.38,1.38,0,0,1-.76.17,1.33,1.33,0,0,1-.74-.17A.72.72,0,0,1,77,121a3.33,3.33,0,0,1-.07-.79h.5a4,4,0,0,0,0,.57.49.49,0,0,0,.16.29.69.69,0,0,0,.42.1.73.73,0,0,0,.44-.1.44.44,0,0,0,.16-.29,4,4,0,0,0,0-.57h.5A4.08,4.08,0,0,1,79.13,121Zm-.72,6a.59.59,0,0,0,.33-.37,3.12,3.12,0,0,0,.15-1.07v-.33H77.75a1.13,1.13,0,0,0-.47.07.39.39,0,0,0-.22.26,2.12,2.12,0,0,0-.07.6,2,2,0,0,0,.07.58.41.41,0,0,0,.24.27,1.5,1.5,0,0,0,.54.07A1.73,1.73,0,0,0,78.41,127.05Z"/><path class="a08aa9e1-0642-418c-a7a5-69bf7d35dc86" d="M82,121.61v-.06l.77-1.32h.78l.76,1.32v.06h-.5l-.65-1-.66,1Zm.8,6v-5.1h.71v5.1Z"/><path class="a08aa9e1-0642-418c-a7a5-69bf7d35dc86" d="M85,127.66v-4.49h-.74v-.61H85v-1.48h.71v1.48h.88v.61h-.88v4.49Zm.29,2.09a.75.75,0,0,0,.09-.45v-.16h-.33v-.86h.8v.78a2.62,2.62,0,0,1-.07.72.5.5,0,0,1-.27.33,1.7,1.7,0,0,1-.64.09v-.34A.57.57,0,0,0,85.31,129.75Z"/><path class="a08aa9e1-0642-418c-a7a5-69bf7d35dc86" d="M87.42,121.06v-.83h.75v.83Zm0,6.6v-5.1h.71v5.1Z"/><path class="a08aa9e1-0642-418c-a7a5-69bf7d35dc86" d="M91.72,127.52a1.25,1.25,0,0,1-.43-.77,8.1,8.1,0,0,1-.13-1.63,8.32,8.32,0,0,1,.12-1.63,1.23,1.23,0,0,1,.43-.78,1.48,1.48,0,0,1,.89-.23,1.55,1.55,0,0,1,.77.16,1,1,0,0,1,.43.54h0v-3h.71v7.43h-.63l0-.7h0a1,1,0,0,1-.45.62,1.67,1.67,0,0,1-.78.16A1.48,1.48,0,0,1,91.72,127.52Zm1.73-.56a.73.73,0,0,0,.29-.46,2.52,2.52,0,0,0,.09-.58c0-.22,0-.52,0-.89a5.43,5.43,0,0,0-.09-1.2.88.88,0,0,0-.29-.55,1,1,0,0,0-.62-.16,1.22,1.22,0,0,0-.65.13.74.74,0,0,0-.26.53,8.34,8.34,0,0,0-.07,1.33,9.76,9.76,0,0,0,.07,1.33.78.78,0,0,0,.27.53,1.21,1.21,0,0,0,.66.13A1.06,1.06,0,0,0,93.45,127Z"/><path class="a08aa9e1-0642-418c-a7a5-69bf7d35dc86" d="M96.23,127.53a1,1,0,0,1-.46-.73,13,13,0,0,1,0-3.38,1,1,0,0,1,.46-.73,2.36,2.36,0,0,1,1.16-.21,2.43,2.43,0,0,1,1.17.21,1,1,0,0,1,.45.73,14.33,14.33,0,0,1,0,3.38,1,1,0,0,1-.45.73,2.43,2.43,0,0,1-1.17.21A2.36,2.36,0,0,1,96.23,127.53ZM98.1,127a.71.71,0,0,0,.25-.52,18.52,18.52,0,0,0,0-2.72.71.71,0,0,0-.25-.52,1.87,1.87,0,0,0-1.42,0,.72.72,0,0,0-.25.53,10,10,0,0,0-.06,1.35,10.33,10.33,0,0,0,.06,1.36.71.71,0,0,0,.25.52,1.87,1.87,0,0,0,1.42,0Z"/><path class="a08aa9e1-0642-418c-a7a5-69bf7d35dc86" d="M100.21,122.56h.62l0,1h.06a1.28,1.28,0,0,1,.46-.81,1.48,1.48,0,0,1,.86-.22v.72a1.32,1.32,0,0,0-.81.22,1.22,1.22,0,0,0-.4.66,4.48,4.48,0,0,0-.12,1.16v2.42h-.71Z"/><path class="a08aa9e1-0642-418c-a7a5-69bf7d35dc86" d="M106.23,125.34h-2.62a6.3,6.3,0,0,0,.08,1.17.71.71,0,0,0,.32.49,1.82,1.82,0,0,0,.82.13,7.29,7.29,0,0,0,1.26-.11v.58a4.64,4.64,0,0,1-.63.1,6.74,6.74,0,0,1-.77,0,2.36,2.36,0,0,1-1.18-.23,1.21,1.21,0,0,1-.49-.77,7.94,7.94,0,0,1-.12-1.62,10.09,10.09,0,0,1,.1-1.61,1.16,1.16,0,0,1,.47-.78,2.07,2.07,0,0,1,1.17-.25,1.89,1.89,0,0,1,1.09.24,1.12,1.12,0,0,1,.42.75,10.87,10.87,0,0,1,.08,1.64ZM104,123.2a.63.63,0,0,0-.27.47,6.14,6.14,0,0,0-.07,1.14h1.94v-.12a4.55,4.55,0,0,0-.08-1.06.63.63,0,0,0-.26-.44,1.24,1.24,0,0,0-.58-.11A1.45,1.45,0,0,0,104,123.2Z"/><path class="a08aa9e1-0642-418c-a7a5-69bf7d35dc86" d="M107.85,127.71l-.64-.09V127a8.2,8.2,0,0,0,1.32.11,1.19,1.19,0,0,0,.57-.1.49.49,0,0,0,.25-.28,1.59,1.59,0,0,0,.06-.49,2.1,2.1,0,0,0,0-.52.28.28,0,0,0-.13-.21.89.89,0,0,0-.33-.09l-1-.15a.87.87,0,0,1-.65-.36,2.1,2.1,0,0,1-.17-1,1.89,1.89,0,0,1,.19-.92,1,1,0,0,1,.53-.45,2.58,2.58,0,0,1,.86-.12,5.07,5.07,0,0,1,.66,0,3.87,3.87,0,0,1,.56.1v.58a5.35,5.35,0,0,0-.56-.08,4.87,4.87,0,0,0-.66,0,1.11,1.11,0,0,0-.68.17.84.84,0,0,0-.21.67,2.72,2.72,0,0,0,0,.49.33.33,0,0,0,.14.21.82.82,0,0,0,.31.09l1,.13a1.13,1.13,0,0,1,.51.17.74.74,0,0,1,.27.41,2.93,2.93,0,0,1,.09.83,1.54,1.54,0,0,1-.36,1.17,1.76,1.76,0,0,1-1.17.32Zm.68,2a.75.75,0,0,0,.09-.45v-.16h-.33v-.86h.8v.78a2.62,2.62,0,0,1-.07.72.53.53,0,0,1-.27.33,1.7,1.7,0,0,1-.64.09v-.34A.57.57,0,0,0,108.53,129.75Z"/><path class="a08aa9e1-0642-418c-a7a5-69bf7d35dc86" d="M111.42,127.66v-4.49h-.74v-.61h.74v-1.48h.71v1.48H113v.61h-.88v4.49Z"/><path class="a08aa9e1-0642-418c-a7a5-69bf7d35dc86" d="M113.82,121.06v-.83h.75v.83Zm0,6.6v-5.1h.71v5.1Z"/><path class="a08aa9e1-0642-418c-a7a5-69bf7d35dc86" d="M115.87,128.43a.26.26,0,0,0,.15-.19,2,2,0,0,0,0-.41v-.17h-.33v-.9h.83v.82a3.12,3.12,0,0,1-.07.79.56.56,0,0,1-.29.36,1.6,1.6,0,0,1-.66.1v-.35A.9.9,0,0,0,115.87,128.43Z"/><path class="a08aa9e1-0642-418c-a7a5-69bf7d35dc86" d="M119.66,122.56h.62l0,.71h.06a1,1,0,0,1,.46-.62,1.61,1.61,0,0,1,.76-.17,1.49,1.49,0,0,1,.9.22,1.24,1.24,0,0,1,.44.78,8.21,8.21,0,0,1,.12,1.62,8.37,8.37,0,0,1-.12,1.64,1.23,1.23,0,0,1-.43.78,1.49,1.49,0,0,1-.9.22,1.56,1.56,0,0,1-.76-.16,1,1,0,0,1-.43-.54h0v2.55h-.71ZM122,127a.74.74,0,0,0,.26-.53,12.67,12.67,0,0,0,0-2.66.74.74,0,0,0-.26-.53,1.23,1.23,0,0,0-.67-.13,1,1,0,0,0-.59.15.86.86,0,0,0-.3.5,2.84,2.84,0,0,0-.07.55c0,.21,0,.47,0,.79a6.48,6.48,0,0,0,.08,1.25,1,1,0,0,0,.3.58,1,1,0,0,0,.6.16A1.23,1.23,0,0,0,122,127Z"/><path class="a08aa9e1-0642-418c-a7a5-69bf7d35dc86" d="M124.57,127.53a1,1,0,0,1-.46-.73,13,13,0,0,1,0-3.38,1,1,0,0,1,.46-.73,2.36,2.36,0,0,1,1.16-.21,2.43,2.43,0,0,1,1.17.21,1,1,0,0,1,.45.73,14.33,14.33,0,0,1,0,3.38,1,1,0,0,1-.45.73,2.43,2.43,0,0,1-1.17.21A2.36,2.36,0,0,1,124.57,127.53Zm1.87-.54a.71.71,0,0,0,.25-.52,18.52,18.52,0,0,0,0-2.72.71.71,0,0,0-.25-.52,1.87,1.87,0,0,0-1.42,0,.72.72,0,0,0-.25.53,10,10,0,0,0-.06,1.35,10.33,10.33,0,0,0,.06,1.36.71.71,0,0,0,.25.52,1.87,1.87,0,0,0,1.42,0Z"/><path class="a08aa9e1-0642-418c-a7a5-69bf7d35dc86" d="M128.86,127.66v-4.49h-.74v-.61h.74v-1.48h.71v1.48h.88v.61h-.88v4.49Zm.29,2.09a.75.75,0,0,0,.09-.45v-.16h-.33v-.86h.8v.78a2.62,2.62,0,0,1-.07.72.53.53,0,0,1-.27.33,1.7,1.7,0,0,1-.64.09v-.34A.57.57,0,0,0,129.15,129.75Z"/><path class="a08aa9e1-0642-418c-a7a5-69bf7d35dc86" d="M131.26,121.06v-.83H132v.83Zm0,6.6v-5.1H132v5.1Z"/><path class="a08aa9e1-0642-418c-a7a5-69bf7d35dc86" d="M135.67,127.71l-.64-.09V127a8.2,8.2,0,0,0,1.32.11,1.19,1.19,0,0,0,.57-.1.49.49,0,0,0,.25-.28,1.59,1.59,0,0,0,.06-.49,2.1,2.1,0,0,0,0-.52.28.28,0,0,0-.13-.21.89.89,0,0,0-.33-.09l-1-.15a.87.87,0,0,1-.65-.36,2.1,2.1,0,0,1-.17-1,1.89,1.89,0,0,1,.19-.92,1,1,0,0,1,.53-.45,2.58,2.58,0,0,1,.86-.12,5.07,5.07,0,0,1,.66,0,3.87,3.87,0,0,1,.56.1v.58a5.35,5.35,0,0,0-.56-.08,5,5,0,0,0-.66,0,1.11,1.11,0,0,0-.68.17.84.84,0,0,0-.21.67,2.72,2.72,0,0,0,0,.49.33.33,0,0,0,.14.21.82.82,0,0,0,.31.09l1,.13a1.09,1.09,0,0,1,.51.17.74.74,0,0,1,.27.41,2.93,2.93,0,0,1,.09.83,1.54,1.54,0,0,1-.36,1.17,1.76,1.76,0,0,1-1.17.32Z"/><path class="a08aa9e1-0642-418c-a7a5-69bf7d35dc86" d="M139.34,127.53a1,1,0,0,1-.46-.73,13,13,0,0,1,0-3.38,1,1,0,0,1,.46-.73,2.36,2.36,0,0,1,1.16-.21,2.43,2.43,0,0,1,1.17.21,1,1,0,0,1,.45.73,14.33,14.33,0,0,1,0,3.38,1,1,0,0,1-.45.73,2.43,2.43,0,0,1-1.17.21A2.36,2.36,0,0,1,139.34,127.53Zm1.87-.54a.71.71,0,0,0,.25-.52,18.52,18.52,0,0,0,0-2.72.71.71,0,0,0-.25-.52,1.87,1.87,0,0,0-1.42,0,.72.72,0,0,0-.25.53,10,10,0,0,0-.06,1.35,10.33,10.33,0,0,0,.06,1.36.71.71,0,0,0,.25.52,1.87,1.87,0,0,0,1.42,0Z"/><path class="a08aa9e1-0642-418c-a7a5-69bf7d35dc86" d="M143.32,127.66v-7.43H144v7.43Z"/><path class="a08aa9e1-0642-418c-a7a5-69bf7d35dc86" d="M145.26,121.06v-.83H146v.83Zm0,6.6v-5.1H146v5.1Z"/><path class="a08aa9e1-0642-418c-a7a5-69bf7d35dc86" d="M149.29,127.71l-.58,0a1.83,1.83,0,0,1-1.08-.26,1.25,1.25,0,0,1-.45-.79,9.93,9.93,0,0,1-.1-1.58,7.07,7.07,0,0,1,.13-1.59,1.26,1.26,0,0,1,.46-.79,1.71,1.71,0,0,1,1-.25,3.86,3.86,0,0,1,.58,0,2.29,2.29,0,0,1,.48.09v.58a3.71,3.71,0,0,0-.9-.1,1.13,1.13,0,0,0-.69.16.81.81,0,0,0-.29.56,7.73,7.73,0,0,0-.08,1.29,8,8,0,0,0,.08,1.32.85.85,0,0,0,.29.56,1.28,1.28,0,0,0,.7.15,3.68,3.68,0,0,0,.92-.11v.59A3.8,3.8,0,0,1,149.29,127.71Z"/><path class="a08aa9e1-0642-418c-a7a5-69bf7d35dc86" d="M150.73,121.06v-.83h.75v.83Zm0,6.6v-5.1h.71v5.1Z"/><path class="a08aa9e1-0642-418c-a7a5-69bf7d35dc86" d="M153,127.66v-4.49h-.74v-.61H153v-1.48h.71v1.48h.88v.61h-.88v4.49Z"/><path class="a08aa9e1-0642-418c-a7a5-69bf7d35dc86" d="M155.46,127.42a1.7,1.7,0,0,1-.31-1.16,2.63,2.63,0,0,1,.12-.9.74.74,0,0,1,.39-.47,1.76,1.76,0,0,1,.77-.14l1.32,0v-.36a3.7,3.7,0,0,0-.08-.9.5.5,0,0,0-.31-.36,2.21,2.21,0,0,0-.75-.09,4.83,4.83,0,0,0-.59,0c-.25,0-.45,0-.62.07v-.58a7,7,0,0,1,1.41-.14,2.53,2.53,0,0,1,1.05.17.9.9,0,0,1,.47.58,4.06,4.06,0,0,1,.13,1.2v3.23h-.63l0-.7h0a1,1,0,0,1-.48.63,1.92,1.92,0,0,1-.79.15A1.39,1.39,0,0,1,155.46,127.42Zm1.81-.37a.59.59,0,0,0,.33-.37,3.12,3.12,0,0,0,.15-1.07v-.33h-1.14a1.13,1.13,0,0,0-.47.07.39.39,0,0,0-.22.26,1.81,1.81,0,0,0-.07.6,1.71,1.71,0,0,0,.07.58.41.41,0,0,0,.24.27,1.5,1.5,0,0,0,.54.07A1.73,1.73,0,0,0,157.27,127.05Z"/><path class="a08aa9e1-0642-418c-a7a5-69bf7d35dc86" d="M53.56,139.66v-6.88h3.1v.66H54.31V136H56.4v.65H54.31v3Z"/><path class="a08aa9e1-0642-418c-a7a5-69bf7d35dc86" d="M57.59,139.42a1.7,1.7,0,0,1-.31-1.16,2.63,2.63,0,0,1,.12-.9.81.81,0,0,1,.39-.47,1.76,1.76,0,0,1,.77-.14l1.32.05v-.36a3.25,3.25,0,0,0-.08-.9.5.5,0,0,0-.31-.36,2.21,2.21,0,0,0-.75-.09,4.83,4.83,0,0,0-.59,0c-.24,0-.45,0-.62.07v-.58a7,7,0,0,1,1.41-.14,2.53,2.53,0,0,1,1.05.17.9.9,0,0,1,.47.58,4.06,4.06,0,0,1,.13,1.2v3.23H60l0-.7h-.05a1,1,0,0,1-.48.63,1.92,1.92,0,0,1-.79.15A1.39,1.39,0,0,1,57.59,139.42Zm1.81-.37a.59.59,0,0,0,.33-.37,3.12,3.12,0,0,0,.15-1.07v-.33H58.74a1.13,1.13,0,0,0-.47.07.39.39,0,0,0-.22.26,2.12,2.12,0,0,0-.07.6,2,2,0,0,0,.07.58.41.41,0,0,0,.24.27,1.5,1.5,0,0,0,.54.07A1.73,1.73,0,0,0,59.4,139.05Z"/><path class="a08aa9e1-0642-418c-a7a5-69bf7d35dc86" d="M63.87,139.71l-.58,0a1.83,1.83,0,0,1-1.08-.26,1.25,1.25,0,0,1-.45-.79,9.93,9.93,0,0,1-.1-1.58,7.72,7.72,0,0,1,.13-1.59,1.26,1.26,0,0,1,.46-.79,1.71,1.71,0,0,1,1-.25,3.86,3.86,0,0,1,.58,0,2.29,2.29,0,0,1,.48.09v.58a3.71,3.71,0,0,0-.9-.1,1.13,1.13,0,0,0-.69.16.85.85,0,0,0-.29.56,7.73,7.73,0,0,0-.08,1.29,8,8,0,0,0,.08,1.32.85.85,0,0,0,.29.56,1.28,1.28,0,0,0,.7.15,3.68,3.68,0,0,0,.92-.11v.59A3.47,3.47,0,0,1,63.87,139.71Z"/><path class="a08aa9e1-0642-418c-a7a5-69bf7d35dc86" d="M65.31,133.06v-.83h.75v.83Zm0,6.6v-5.1H66v5.1Z"/><path class="a08aa9e1-0642-418c-a7a5-69bf7d35dc86" d="M67.29,139.66v-7.43H68v7.43Z"/><path class="a08aa9e1-0642-418c-a7a5-69bf7d35dc86" d="M69.23,133.06v-.83H70v.83Zm0,6.6v-5.1H70v5.1Z"/><path class="a08aa9e1-0642-418c-a7a5-69bf7d35dc86" d="M71.52,139.66v-4.49h-.74v-.61h.74v-1.48h.71v1.48h.88v.61h-.88v4.49Z"/><path class="a08aa9e1-0642-418c-a7a5-69bf7d35dc86" d="M74,139.42a1.7,1.7,0,0,1-.31-1.16,2.63,2.63,0,0,1,.12-.9.81.81,0,0,1,.39-.47,1.76,1.76,0,0,1,.77-.14l1.32.05v-.36a3.25,3.25,0,0,0-.08-.9.5.5,0,0,0-.31-.36,2.21,2.21,0,0,0-.75-.09,4.83,4.83,0,0,0-.59,0c-.24,0-.45,0-.62.07v-.58a7,7,0,0,1,1.41-.14,2.53,2.53,0,0,1,1,.17.9.9,0,0,1,.47.58,4.06,4.06,0,0,1,.13,1.2v3.23h-.63l0-.7h-.05a1,1,0,0,1-.48.63,1.92,1.92,0,0,1-.79.15A1.39,1.39,0,0,1,74,139.42Zm1.81-.37a.59.59,0,0,0,.33-.37,3.12,3.12,0,0,0,.15-1.07v-.33H75.11a1.13,1.13,0,0,0-.47.07.39.39,0,0,0-.22.26,1.81,1.81,0,0,0-.07.6,1.71,1.71,0,0,0,.07.58.41.41,0,0,0,.24.27,1.5,1.5,0,0,0,.54.07A1.73,1.73,0,0,0,75.77,139.05Z"/><path class="a08aa9e1-0642-418c-a7a5-69bf7d35dc86" d="M78.5,139.66v-4.49h-.74v-.61h.74v-1.48h.71v1.48h.88v.61h-.88v4.49Z"/><path class="a08aa9e1-0642-418c-a7a5-69bf7d35dc86" d="M81.33,139.53a1,1,0,0,1-.46-.73,13,13,0,0,1,0-3.38,1,1,0,0,1,.46-.73,2.39,2.39,0,0,1,1.16-.21,2.43,2.43,0,0,1,1.17.21,1,1,0,0,1,.45.73,14.33,14.33,0,0,1,0,3.38,1,1,0,0,1-.45.73,2.43,2.43,0,0,1-1.17.21A2.39,2.39,0,0,1,81.33,139.53ZM83.2,139a.68.68,0,0,0,.25-.52,18.52,18.52,0,0,0,0-2.72.68.68,0,0,0-.25-.52,1.87,1.87,0,0,0-1.42,0,.76.76,0,0,0-.25.53,10,10,0,0,0-.06,1.35,10.33,10.33,0,0,0,.06,1.36.75.75,0,0,0,.25.52,1.87,1.87,0,0,0,1.42,0Z"/><path class="a08aa9e1-0642-418c-a7a5-69bf7d35dc86" d="M85.31,134.56h.62l0,.95H86a1.28,1.28,0,0,1,.46-.81,1.48,1.48,0,0,1,.86-.22v.72a1.32,1.32,0,0,0-.81.22,1.22,1.22,0,0,0-.4.66,4.48,4.48,0,0,0-.12,1.16v2.42h-.71Z"/><path class="a08aa9e1-0642-418c-a7a5-69bf7d35dc86" d="M88.1,137.13v-.65h2v.65Z"/><path class="a08aa9e1-0642-418c-a7a5-69bf7d35dc86" d="M93.85,139h0a1.1,1.1,0,0,1-.41.59,1.55,1.55,0,0,1-.85.2,1.49,1.49,0,0,1-.84-.2.94.94,0,0,1-.38-.6,5.58,5.58,0,0,1-.1-1.16v-3.22h.71v3a5.94,5.94,0,0,0,.07,1,.58.58,0,0,0,.24.42,1.25,1.25,0,0,0,.59.1.9.9,0,0,0,.66-.21,1.08,1.08,0,0,0,.27-.59,9.69,9.69,0,0,0,0-1.09v-2.65h.71v5.1h-.63Z"/><path class="a08aa9e1-0642-418c-a7a5-69bf7d35dc86" d="M95.78,139.66v-7.43h.71v7.43Z"/><path class="a08aa9e1-0642-418c-a7a5-69bf7d35dc86" d="M100.34,139h0a1.1,1.1,0,0,1-.41.59,1.55,1.55,0,0,1-.85.2,1.49,1.49,0,0,1-.84-.2.94.94,0,0,1-.38-.6,5.58,5.58,0,0,1-.1-1.16v-3.22h.71v3a5.94,5.94,0,0,0,.07,1,.58.58,0,0,0,.24.42,1.25,1.25,0,0,0,.59.1.9.9,0,0,0,.66-.21,1.08,1.08,0,0,0,.27-.59,7.76,7.76,0,0,0,0-1.09v-2.65H101v5.1h-.63Z"/><path class="a08aa9e1-0642-418c-a7a5-69bf7d35dc86" d="M102.25,133.06v-.83H103v.83Zm0,6.6v-5.1H103v5.1Z"/><path class="a08aa9e1-0642-418c-a7a5-69bf7d35dc86" d="M106.71,139h2.71v.66H106v-.79c0-.58,0-1,0-1.24a1.38,1.38,0,0,1,.21-.62,1.7,1.7,0,0,1,.58-.48l1.3-.78a1,1,0,0,0,.46-.45,2.13,2.13,0,0,0,.1-.77,2.27,2.27,0,0,0-.09-.74.56.56,0,0,0-.33-.34,2.11,2.11,0,0,0-.71-.09,13.42,13.42,0,0,0-1.46.11v-.61a5.65,5.65,0,0,1,.77-.11c.31,0,.6-.05.88-.05a2.93,2.93,0,0,1,.92.12,1,1,0,0,1,.56.49,2.39,2.39,0,0,1,.21,1.13,4.48,4.48,0,0,1-.08.92,1.46,1.46,0,0,1-.27.56,2.08,2.08,0,0,1-.52.4l-1.43.83a.76.76,0,0,0-.32.32,1.09,1.09,0,0,0-.07.36c0,.15,0,.37,0,.67Z"/><path class="a08aa9e1-0642-418c-a7a5-69bf7d35dc86" d="M114.48,139.71l-.58,0a1.83,1.83,0,0,1-1.08-.26,1.25,1.25,0,0,1-.45-.79,9.93,9.93,0,0,1-.1-1.58,7.07,7.07,0,0,1,.13-1.59,1.26,1.26,0,0,1,.46-.79,1.71,1.71,0,0,1,1-.25,3.86,3.86,0,0,1,.58,0,2.29,2.29,0,0,1,.48.09v.58a3.71,3.71,0,0,0-.9-.1,1.13,1.13,0,0,0-.69.16.85.85,0,0,0-.29.56,7.73,7.73,0,0,0-.08,1.29,8,8,0,0,0,.08,1.32.85.85,0,0,0,.29.56,1.28,1.28,0,0,0,.7.15A3.68,3.68,0,0,0,115,139v.59A3.8,3.8,0,0,1,114.48,139.71Z"/><path class="a08aa9e1-0642-418c-a7a5-69bf7d35dc86" d="M116,139.42a1.7,1.7,0,0,1-.31-1.16,2.63,2.63,0,0,1,.12-.9.74.74,0,0,1,.39-.47,1.76,1.76,0,0,1,.77-.14l1.32.05v-.36a3.7,3.7,0,0,0-.08-.9.5.5,0,0,0-.31-.36,2.21,2.21,0,0,0-.75-.09,4.83,4.83,0,0,0-.59,0c-.25,0-.45,0-.62.07v-.58a7,7,0,0,1,1.41-.14,2.53,2.53,0,0,1,1,.17.9.9,0,0,1,.47.58,4.06,4.06,0,0,1,.13,1.2v3.23h-.63l0-.7h-.05a1,1,0,0,1-.48.63,1.92,1.92,0,0,1-.79.15A1.39,1.39,0,0,1,116,139.42Zm1.81-.37a.59.59,0,0,0,.33-.37,3.12,3.12,0,0,0,.15-1.07v-.33h-1.14a1.13,1.13,0,0,0-.47.07.39.39,0,0,0-.22.26,1.81,1.81,0,0,0-.07.6,1.71,1.71,0,0,0,.07.58.41.41,0,0,0,.24.27,1.5,1.5,0,0,0,.54.07A1.73,1.73,0,0,0,117.77,139.05Z"/><path class="a08aa9e1-0642-418c-a7a5-69bf7d35dc86" d="M120.19,134.56h.62l0,.95h.06a1.28,1.28,0,0,1,.46-.81,1.46,1.46,0,0,1,.86-.22v.72a1.32,1.32,0,0,0-.81.22,1.16,1.16,0,0,0-.4.66,4.48,4.48,0,0,0-.12,1.16v2.42h-.71Z"/><path class="a08aa9e1-0642-418c-a7a5-69bf7d35dc86" d="M123.44,139.52a1.2,1.2,0,0,1-.43-.77,7.42,7.42,0,0,1-.13-1.63,8.32,8.32,0,0,1,.12-1.63,1.23,1.23,0,0,1,.43-.78,1.48,1.48,0,0,1,.89-.23,1.55,1.55,0,0,1,.77.16,1,1,0,0,1,.43.54h0v-3h.71v7.43h-.63l0-.7h0a1,1,0,0,1-.45.62,1.67,1.67,0,0,1-.78.16A1.48,1.48,0,0,1,123.44,139.52Zm1.73-.56a.73.73,0,0,0,.29-.46,2.52,2.52,0,0,0,.09-.58c0-.22,0-.52,0-.89a5.43,5.43,0,0,0-.09-1.2.88.88,0,0,0-.29-.55,1,1,0,0,0-.62-.16,1.22,1.22,0,0,0-.65.13.74.74,0,0,0-.26.53,12.67,12.67,0,0,0,0,2.66.78.78,0,0,0,.27.53,1.21,1.21,0,0,0,.66.13A1.06,1.06,0,0,0,125.17,139Z"/><path class="a08aa9e1-0642-418c-a7a5-69bf7d35dc86" d="M130.14,139h0a1.15,1.15,0,0,1-.41.59,1.55,1.55,0,0,1-.85.2,1.49,1.49,0,0,1-.84-.2.94.94,0,0,1-.38-.6,5,5,0,0,1-.1-1.16v-3.22h.71v3a5.08,5.08,0,0,0,.07,1,.58.58,0,0,0,.24.42,1.25,1.25,0,0,0,.59.1.9.9,0,0,0,.66-.21,1.08,1.08,0,0,0,.27-.59,9.69,9.69,0,0,0,0-1.09v-2.65h.71v5.1h-.63Z"/><path class="a08aa9e1-0642-418c-a7a5-69bf7d35dc86" d="M132.07,134.56h.62l0,.95h.06a1.28,1.28,0,0,1,.46-.81,1.46,1.46,0,0,1,.86-.22v.72a1.32,1.32,0,0,0-.81.22,1.16,1.16,0,0,0-.4.66,4.48,4.48,0,0,0-.12,1.16v2.42h-.71Z"/><path class="a08aa9e1-0642-418c-a7a5-69bf7d35dc86" d="M134.9,133.06v-.83h.75v.83Zm0,6.6v-5.1h.71v5.1Z"/><path class="a08aa9e1-0642-418c-a7a5-69bf7d35dc86" d="M142.16,139.66l-.48-1.91h-2.11l-.47,1.91h-.75l1.8-6.88h1l1.8,6.88Zm-1.51-6h-.05l-.85,3.4h1.75Z"/><path class="a08aa9e1-0642-418c-a7a5-69bf7d35dc86" d="M144.92,139.58a1,1,0,0,1-.46-.62h-.06l0,.7h-.62v-7.43h.71v3h.05a1,1,0,0,1,.43-.54,1.56,1.56,0,0,1,.76-.16,1.49,1.49,0,0,1,.9.23,1.23,1.23,0,0,1,.43.78,8.21,8.21,0,0,1,.12,1.62,8.32,8.32,0,0,1-.12,1.63,1.28,1.28,0,0,1-.44.78,1.49,1.49,0,0,1-.9.22A1.61,1.61,0,0,1,144.92,139.58Zm1.18-.61a.74.74,0,0,0,.26-.53,12.67,12.67,0,0,0,0-2.66.74.74,0,0,0-.26-.53,1.23,1.23,0,0,0-.67-.13,1,1,0,0,0-.57.14.75.75,0,0,0-.29.44,3.07,3.07,0,0,0-.09.58c0,.22,0,.5,0,.83s0,.61,0,.82a4.1,4.1,0,0,0,.09.56.77.77,0,0,0,.29.47,1.08,1.08,0,0,0,.58.14A1.23,1.23,0,0,0,146.1,139Z"/><path class="a08aa9e1-0642-418c-a7a5-69bf7d35dc86" d="M148.22,133.06v-.83H149v.83Zm0,6.6v-5.1H149v5.1Z"/><path class="a08aa9e1-0642-418c-a7a5-69bf7d35dc86" d="M150.2,139.66v-7.43h.71v7.43Z"/><path class="a08aa9e1-0642-418c-a7a5-69bf7d35dc86" d="M152.14,133.06v-.83h.75v.83Zm0,6.6v-5.1h.71v5.1Z"/><path class="a08aa9e1-0642-418c-a7a5-69bf7d35dc86" d="M154.43,139.66v-4.49h-.74v-.61h.74v-1.48h.71v1.48H156v.61h-.88v4.49Z"/><path class="a08aa9e1-0642-418c-a7a5-69bf7d35dc86" d="M156.87,139.42a1.7,1.7,0,0,1-.31-1.16,2.63,2.63,0,0,1,.12-.9.74.74,0,0,1,.39-.47,1.76,1.76,0,0,1,.77-.14l1.32.05v-.36a3.7,3.7,0,0,0-.08-.9.5.5,0,0,0-.31-.36,2.21,2.21,0,0,0-.75-.09,4.83,4.83,0,0,0-.59,0c-.25,0-.45,0-.62.07v-.58a7,7,0,0,1,1.41-.14,2.53,2.53,0,0,1,1.05.17.9.9,0,0,1,.47.58,4.06,4.06,0,0,1,.13,1.2v3.23h-.63l0-.7h0a1,1,0,0,1-.48.63,2,2,0,0,1-.79.15A1.39,1.39,0,0,1,156.87,139.42Zm1.81-.37a.59.59,0,0,0,.33-.37,3.12,3.12,0,0,0,.15-1.07v-.33H158a1.13,1.13,0,0,0-.47.07.37.37,0,0,0-.22.26,1.81,1.81,0,0,0-.07.6,1.71,1.71,0,0,0,.07.58.41.41,0,0,0,.24.27,1.5,1.5,0,0,0,.54.07A1.73,1.73,0,0,0,158.68,139.05Z"/><path class="a08aa9e1-0642-418c-a7a5-69bf7d35dc86" d="M161.41,139.66v-4.49h-.74v-.61h.74v-1.48h.71v1.48H163v.61h-.88v4.49Z"/><path class="a08aa9e1-0642-418c-a7a5-69bf7d35dc86" d="M167,137.34h-2.62a6.3,6.3,0,0,0,.08,1.17.68.68,0,0,0,.32.49,1.82,1.82,0,0,0,.82.13,7.29,7.29,0,0,0,1.26-.11v.58a4.64,4.64,0,0,1-.63.1,6.74,6.74,0,0,1-.77,0,2.36,2.36,0,0,1-1.18-.23,1.21,1.21,0,0,1-.49-.77,7.94,7.94,0,0,1-.12-1.62,10.09,10.09,0,0,1,.1-1.61,1.16,1.16,0,0,1,.47-.78,2.07,2.07,0,0,1,1.17-.25,1.89,1.89,0,0,1,1.09.24,1.12,1.12,0,0,1,.42.75,12.42,12.42,0,0,1,.08,1.64Zm-2.28-2.14a.63.63,0,0,0-.27.47,6.14,6.14,0,0,0-.07,1.14h1.94v-.12a4.55,4.55,0,0,0-.08-1.06.63.63,0,0,0-.26-.44,1.24,1.24,0,0,0-.58-.11A1.45,1.45,0,0,0,164.72,135.2Z"/><path class="a08aa9e1-0642-418c-a7a5-69bf7d35dc86" d="M168,139.66v-.9h.82v.9Z"/><path class="ef58b791-e166-4607-a860-d3e4162d455b" d="M173.5,63.4a13.58,13.58,0,1,0-13.58-13.58A13.58,13.58,0,0,0,173.5,63.4"/><path class="f7815a2d-93af-4d98-a380-52205b02f397" d="M180.41,48.78H166.72a.39.39,0,0,1-.39-.39V45.94a.4.4,0,0,1,.39-.39h13.69a.4.4,0,0,1,.39.39v2.45A.39.39,0,0,1,180.41,48.78Zm-13.69-3a.2.2,0,0,0-.19.19v2.45a.19.19,0,0,0,.19.19h13.69a.19.19,0,0,0,.19-.19V45.94a.2.2,0,0,0-.19-.19Z"/><rect class="f7815a2d-93af-4d98-a380-52205b02f397" x="165.91" y="45.99" width="1.09" height="2.33" rx="0.3"/><rect class="f7815a2d-93af-4d98-a380-52205b02f397" x="180.15" y="45.99" width="1.09" height="2.33" rx="0.3"/><path class="f7815a2d-93af-4d98-a380-52205b02f397" d="M174.2,41.62H173a.64.64,0,0,1,.63-.6A.63.63,0,0,1,174.2,41.62Z"/><rect class="f7815a2d-93af-4d98-a380-52205b02f397" x="173.27" y="41.57" width="0.62" height="0.4"/><path class="f7815a2d-93af-4d98-a380-52205b02f397" d="M175,42.31V44h-2.77V42.31a2.46,2.46,0,0,1,1.39-.41A2.42,2.42,0,0,1,175,42.31Z"/><path class="f7815a2d-93af-4d98-a380-52205b02f397" d="M179.45,41.35a12.37,12.37,0,0,1-5.59,0c0-.19,1.25-.33,2.8-.33S179.45,41.16,179.45,41.35Z"/><ellipse class="f7815a2d-93af-4d98-a380-52205b02f397" cx="170.5" cy="41.35" rx="2.8" ry="0.33"/><rect class="f7815a2d-93af-4d98-a380-52205b02f397" x="167.21" y="54.36" width="2.23" height="2.12" rx="0.3"/><rect class="f7815a2d-93af-4d98-a380-52205b02f397" x="177.71" y="54.36" width="2.23" height="2.12" rx="0.3"/><rect class="eff926eb-f0fd-42f0-905a-5fccbcdb89a5" x="166.85" y="50.89" width="13.45" height="4.24" rx="0.59"/><path class="f7815a2d-93af-4d98-a380-52205b02f397" d="M179.71,55.38H167.44a.85.85,0,0,1-.85-.85V51.48a.85.85,0,0,1,.85-.85h12.27a.85.85,0,0,1,.85.85v3.05A.85.85,0,0,1,179.71,55.38Zm-12.27-4.23a.33.33,0,0,0-.33.33v3.05a.33.33,0,0,0,.33.33h12.27a.33.33,0,0,0,.33-.33V51.48a.33.33,0,0,0-.33-.33Z"/><path class="eff926eb-f0fd-42f0-905a-5fccbcdb89a5" d="M179.7,45.35s0,5.5,0,5.54H167.46V45.35c0-1.7,2.73-2.77,6.11-2.77S179.7,43.65,179.7,45.35Z"/><rect class="e0bf3509-f71c-4133-b0b9-e40f0166f5e8" x="167.46" y="45.46" width="12.24" height="5.43" rx="0.64"/><path class="a61a215d-d8e6-45e2-ad5d-bb7dc6f60aac" d="M179.06,51.2h-11a1,1,0,0,1-1-1V46.1a1,1,0,0,1,1-1h11a1,1,0,0,1,.95,1v4.15A1,1,0,0,1,179.06,51.2Zm-11-5.43a.32.32,0,0,0-.32.33v4.15a.32.32,0,0,0,.32.32h11a.32.32,0,0,0,.32-.32V46.1a.32.32,0,0,0-.32-.33Z"/><path class="f7815a2d-93af-4d98-a380-52205b02f397" d="M179.06,51.2h-11a1,1,0,0,1-1-1V46.1a1,1,0,0,1,1-1h11a1,1,0,0,1,.95,1v4.15A1,1,0,0,1,179.06,51.2Zm-11-5.43a.32.32,0,0,0-.32.33v4.15a.32.32,0,0,0,.32.32h11a.32.32,0,0,0,.32-.32V46.1a.32.32,0,0,0-.32-.33Z"/><path class="f7815a2d-93af-4d98-a380-52205b02f397" d="M180,51.2H167.17l0-.28c0-.06,0-5,0-5.57,0-1.81,2.65-3.08,6.43-3.08S180,43.54,180,45.35c0,.06,0,5.51,0,5.57Zm-12.21-.63h11.61V45.35c0-1.4-2.5-2.45-5.81-2.45s-5.8,1.05-5.8,2.45Z"/><path class="f7815a2d-93af-4d98-a380-52205b02f397" d="M170.74,48.8a.28.28,0,1,1-.55,0v-.55a.28.28,0,1,1,.55,0Z"/><path class="f7815a2d-93af-4d98-a380-52205b02f397" d="M177,48.8a.28.28,0,1,1-.55,0v-.55a.28.28,0,1,1,.55,0Z"/><path class="f7815a2d-93af-4d98-a380-52205b02f397" d="M173.59,49.42a1.64,1.64,0,0,1-1-.38.27.27,0,0,1,0-.37.26.26,0,0,1,.37,0,1.08,1.08,0,0,0,.69.25,1.06,1.06,0,0,0,.69-.25.26.26,0,0,1,.34.4A1.6,1.6,0,0,1,173.59,49.42Z"/><path class="f7815a2d-93af-4d98-a380-52205b02f397" d="M176.78,53h-6.41a.22.22,0,0,1-.21-.21.21.21,0,0,1,.21-.21h6.41a.21.21,0,0,1,.21.21A.22.22,0,0,1,176.78,53Z"/><path class="f7815a2d-93af-4d98-a380-52205b02f397" d="M176.78,53.8h-6.41a.21.21,0,0,1-.21-.21.22.22,0,0,1,.21-.21h6.41a.22.22,0,0,1,.21.21A.21.21,0,0,1,176.78,53.8Z"/><path class="f7815a2d-93af-4d98-a380-52205b02f397" d="M180.93,57H166.22a.32.32,0,0,1,0-.63h14.71a.32.32,0,0,1,0,.63Z"/><path class="ef58b791-e166-4607-a860-d3e4162d455b" d="M49.48,267A13.58,13.58,0,1,0,35.9,253.42,13.57,13.57,0,0,0,49.48,267"/><path class="f7815a2d-93af-4d98-a380-52205b02f397" d="M56.39,252.38H42.7a.39.39,0,0,1-.39-.39v-2.45a.39.39,0,0,1,.39-.39H56.39a.38.38,0,0,1,.39.39V252A.38.38,0,0,1,56.39,252.38Zm-13.69-3a.18.18,0,0,0-.18.19V252a.19.19,0,0,0,.18.19H56.39a.2.2,0,0,0,.19-.19v-2.45a.19.19,0,0,0-.19-.19Z"/><rect class="f7815a2d-93af-4d98-a380-52205b02f397" x="41.89" y="249.59" width="1.09" height="2.33" rx="0.3"/><rect class="f7815a2d-93af-4d98-a380-52205b02f397" x="56.13" y="249.59" width="1.09" height="2.33" rx="0.3"/><path class="f7815a2d-93af-4d98-a380-52205b02f397" d="M50.18,245.21H48.93a.63.63,0,0,1,.63-.59A.61.61,0,0,1,50.18,245.21Z"/><rect class="f7815a2d-93af-4d98-a380-52205b02f397" x="49.25" y="245.16" width="0.62" height="0.4"/><path class="f7815a2d-93af-4d98-a380-52205b02f397" d="M50.94,245.9v1.67H48.17V245.9a2.45,2.45,0,0,1,1.39-.4A2.4,2.4,0,0,1,50.94,245.9Z"/><path class="f7815a2d-93af-4d98-a380-52205b02f397" d="M55.44,244.94c0,.18-1.26.33-2.8.33s-2.8-.15-2.8-.33,1.25-.32,2.8-.32S55.44,244.76,55.44,244.94Z"/><ellipse class="f7815a2d-93af-4d98-a380-52205b02f397" cx="46.48" cy="244.94" rx="2.8" ry="0.33"/><rect class="f7815a2d-93af-4d98-a380-52205b02f397" x="43.19" y="257.96" width="2.23" height="2.12" rx="0.3"/><rect class="f7815a2d-93af-4d98-a380-52205b02f397" x="53.69" y="257.96" width="2.23" height="2.12" rx="0.3"/><rect class="eff926eb-f0fd-42f0-905a-5fccbcdb89a5" x="42.83" y="254.48" width="13.45" height="4.24" rx="0.59"/><path class="f7815a2d-93af-4d98-a380-52205b02f397" d="M55.69,259H43.42a.85.85,0,0,1-.85-.85v-3.06a.85.85,0,0,1,.85-.85H55.69a.86.86,0,0,1,.86.85v3.06A.86.86,0,0,1,55.69,259Zm-12.27-4.23a.32.32,0,0,0-.33.32v3.06a.33.33,0,0,0,.33.33H55.69a.33.33,0,0,0,.33-.33v-3.06a.32.32,0,0,0-.33-.32Z"/><path class="eff926eb-f0fd-42f0-905a-5fccbcdb89a5" d="M55.68,249s0,5.5,0,5.53H43.44V249c0-1.7,2.74-2.77,6.12-2.77S55.68,247.25,55.68,249Z"/><rect class="e0bf3509-f71c-4133-b0b9-e40f0166f5e8" x="43.44" y="249.06" width="12.24" height="5.43" rx="0.64"/><path class="a61a215d-d8e6-45e2-ad5d-bb7dc6f60aac" d="M55,254.8h-11a1,1,0,0,1-1-1v-4.16a1,1,0,0,1,1-.95H55a1,1,0,0,1,1,.95v4.16A1,1,0,0,1,55,254.8Zm-11-5.43a.33.33,0,0,0-.32.32v4.16a.33.33,0,0,0,.32.32H55a.32.32,0,0,0,.32-.32v-4.16a.32.32,0,0,0-.32-.32Z"/><path class="f7815a2d-93af-4d98-a380-52205b02f397" d="M55,254.8h-11a1,1,0,0,1-1-1v-4.16a1,1,0,0,1,1-.95H55a1,1,0,0,1,1,.95v4.16A1,1,0,0,1,55,254.8Zm-11-5.43a.33.33,0,0,0-.32.32v4.16a.33.33,0,0,0,.32.32H55a.32.32,0,0,0,.32-.32v-4.16a.32.32,0,0,0-.32-.32Z"/><path class="f7815a2d-93af-4d98-a380-52205b02f397" d="M56,254.8H43.16l0-.29s0-5,0-5.56c0-1.82,2.65-3.08,6.44-3.08S56,247.13,56,249v5.56Zm-12.2-.63h11.6V249c0-1.4-2.49-2.45-5.8-2.45s-5.81,1.05-5.81,2.45C43.75,249.26,43.75,253.05,43.76,254.17Z"/><path class="f7815a2d-93af-4d98-a380-52205b02f397" d="M46.73,252.39a.29.29,0,0,1-.28.3.28.28,0,0,1-.28-.3v-.55a.28.28,0,0,1,.28-.29.29.29,0,0,1,.28.29Z"/><path class="f7815a2d-93af-4d98-a380-52205b02f397" d="M53,252.39a.29.29,0,0,1-.28.3.28.28,0,0,1-.28-.3v-.55a.28.28,0,0,1,.28-.29.29.29,0,0,1,.28.29Z"/><path class="f7815a2d-93af-4d98-a380-52205b02f397" d="M49.58,253a1.54,1.54,0,0,1-1-.38.25.25,0,0,1,0-.37.25.25,0,0,1,.36,0,1.06,1.06,0,0,0,1.39,0,.26.26,0,0,1,.34.4A1.58,1.58,0,0,1,49.58,253Z"/><path class="f7815a2d-93af-4d98-a380-52205b02f397" d="M52.76,256.54H46.35a.21.21,0,0,1-.21-.21.22.22,0,0,1,.21-.21h6.41a.21.21,0,0,1,.21.21A.21.21,0,0,1,52.76,256.54Z"/><path class="f7815a2d-93af-4d98-a380-52205b02f397" d="M52.76,257.4H46.35a.21.21,0,1,1,0-.42h6.41a.21.21,0,0,1,0,.42Z"/><path class="f7815a2d-93af-4d98-a380-52205b02f397" d="M56.91,260.62H42.21a.31.31,0,0,1-.32-.31.32.32,0,0,1,.32-.32h14.7a.32.32,0,0,1,.32.32A.31.31,0,0,1,56.91,260.62Z"/></g></svg>