<svg xmlns="http://www.w3.org/2000/svg" viewBox="0 0 223.23 311.81"><defs><style>.f79cfd08-6c3c-48fb-b303-497a51a4f4a1{fill:#2a2765;}.b19ccfe7-f8f5-4f8f-a522-26f0c8cee220,.bd69b8d8-cbee-43a3-aac8-ad10a114cbe7{fill:#fff;}.f1a56346-50e0-449e-b8c1-bed0ee323417{fill:#2a2664;}.a7588ecd-7374-495d-b514-625a50f349b7{fill:#4d4e4f;}.b19ccfe7-f8f5-4f8f-a522-26f0c8cee220{stroke:#292663;stroke-width:1.5px;}.b19ccfe7-f8f5-4f8f-a522-26f0c8cee220,.f9f13150-be39-4b76-85c5-9bdfd2cc88f0{stroke-miterlimit:10;}.e3db14bc-e2f6-44f2-b2d6-3d55e1be9479{fill:#6a2875;}.ffa3c5d3-67ed-4873-8a39-b698abce882b{fill:#ffda00;}.f8f99cbc-47ad-446f-a391-582d45450262{fill:#f05023;}.eac3f4e5-4e5a-4ab3-9307-9d3d7654da3d{fill:#f05c2a;}.f9f13150-be39-4b76-85c5-9bdfd2cc88f0,.ffb61e4b-572d-4d46-ba43-e6081b19ec2f{fill:none;}.f9f13150-be39-4b76-85c5-9bdfd2cc88f0{stroke:#fff;stroke-width:0.05px;}.abcefd70-258e-4c39-80d5-b24dc0ec4412{fill:#fddb00;}</style></defs><g id="bc0785d1-249d-444b-9fbc-71565d871487" data-name="Layer 5"><rect class="f79cfd08-6c3c-48fb-b303-497a51a4f4a1" width="223.23" height="23.73"/><rect class="f79cfd08-6c3c-48fb-b303-497a51a4f4a1" y="279.44" width="223.23" height="32.37"/><rect class="f79cfd08-6c3c-48fb-b303-497a51a4f4a1" x="-122.31" y="142.04" width="268.35" height="23.73" transform="translate(165.77 142.04) rotate(90)"/><rect class="f79cfd08-6c3c-48fb-b303-497a51a4f4a1" x="77.19" y="144.04" width="268.35" height="23.73" transform="translate(367.27 -55.46) rotate(90)"/><path class="bd69b8d8-cbee-43a3-aac8-ad10a114cbe7" d="M62.51,293.38l-.42,0a1.68,1.68,0,0,1-.92-.19,1,1,0,0,1-.39-.69,11.4,11.4,0,0,1,0-3.16,1,1,0,0,1,.39-.7,1.78,1.78,0,0,1,.92-.19l.41,0a2.08,2.08,0,0,1,.36.07V289a4.65,4.65,0,0,0-.66-.07,1.37,1.37,0,0,0-.68.13.71.71,0,0,0-.25.52,15.33,15.33,0,0,0,0,2.71.71.71,0,0,0,.25.52,1.27,1.27,0,0,0,.68.13,3.82,3.82,0,0,0,.68-.06v.44Z"/><path class="bd69b8d8-cbee-43a3-aac8-ad10a114cbe7" d="M63.56,293.18a1.15,1.15,0,0,1-.22-.82,2.05,2.05,0,0,1,.08-.63.64.64,0,0,1,.27-.33,1.34,1.34,0,0,1,.55-.09l.92,0v-.25a2.36,2.36,0,0,0-.06-.63.38.38,0,0,0-.21-.26,2,2,0,0,0-.53-.06l-.41,0-.43.05v-.4a4.34,4.34,0,0,1,1-.1,1.69,1.69,0,0,1,.73.12.62.62,0,0,1,.34.4,3,3,0,0,1,.09.84v2.26h-.44l0-.49h0a.66.66,0,0,1-.34.44,1.27,1.27,0,0,1-.54.11A.94.94,0,0,1,63.56,293.18Zm1.27-.27a.44.44,0,0,0,.23-.25,2.23,2.23,0,0,0,.1-.75v-.23h-.8a.92.92,0,0,0-.33,0,.27.27,0,0,0-.15.19,1.4,1.4,0,0,0-.05.42,1.25,1.25,0,0,0,.05.4.29.29,0,0,0,.17.19.94.94,0,0,0,.38.05A1.16,1.16,0,0,0,64.83,292.91Z"/><path class="bd69b8d8-cbee-43a3-aac8-ad10a114cbe7" d="M66.52,289.77H67l0,.67h0a.87.87,0,0,1,.32-.57,1.1,1.1,0,0,1,.61-.15v.5a.9.9,0,0,0-.57.16.8.8,0,0,0-.28.45,3.1,3.1,0,0,0-.08.82v1.69h-.5Z"/><path class="bd69b8d8-cbee-43a3-aac8-ad10a114cbe7" d="M70.73,291.72H68.9a5.08,5.08,0,0,0,0,.82.48.48,0,0,0,.23.34,1.29,1.29,0,0,0,.57.09,5.1,5.1,0,0,0,.89-.07v.4a3.07,3.07,0,0,1-.45.07l-.53,0a1.71,1.71,0,0,1-.83-.16.8.8,0,0,1-.34-.54,5.25,5.25,0,0,1-.09-1.13,7.32,7.32,0,0,1,.07-1.13.84.84,0,0,1,.33-.55,1.54,1.54,0,0,1,.82-.17,1.24,1.24,0,0,1,.76.17.73.73,0,0,1,.29.52,7.76,7.76,0,0,1,.06,1.15Zm-1.59-1.5a.45.45,0,0,0-.19.33,4.8,4.8,0,0,0,0,.8h1.36v-.09a3.28,3.28,0,0,0-.06-.74.48.48,0,0,0-.18-.31.86.86,0,0,0-.41-.07A1.07,1.07,0,0,0,69.14,290.22Z"/><path class="bd69b8d8-cbee-43a3-aac8-ad10a114cbe7" d="M73.73,291.72H71.9a4.13,4.13,0,0,0,0,.82.47.47,0,0,0,.22.34,1.37,1.37,0,0,0,.58.09,5,5,0,0,0,.88-.07v.4a2.9,2.9,0,0,1-.44.07l-.54,0a1.66,1.66,0,0,1-.82-.16.81.81,0,0,1-.35-.54,8.55,8.55,0,0,1,0-2.26.83.83,0,0,1,.32-.55,1.58,1.58,0,0,1,.83-.17,1.26,1.26,0,0,1,.76.17.77.77,0,0,1,.29.52,7.76,7.76,0,0,1,.06,1.15Zm-1.6-1.5a.49.49,0,0,0-.19.33,5.09,5.09,0,0,0,0,.8h1.35v-.09a3.42,3.42,0,0,0,0-.74.45.45,0,0,0-.19-.31.82.82,0,0,0-.4-.07A1.12,1.12,0,0,0,72.13,290.22Z"/><path class="bd69b8d8-cbee-43a3-aac8-ad10a114cbe7" d="M74.51,289.77h.43l0,.67h0a.87.87,0,0,1,.32-.57,1.08,1.08,0,0,1,.61-.15v.5a.86.86,0,0,0-.57.16.81.81,0,0,0-.29.45,3.59,3.59,0,0,0-.08.82v1.69h-.49Z"/><path class="bd69b8d8-cbee-43a3-aac8-ad10a114cbe7" d="M77.9,288.53h1.46a1,1,0,0,1,.85.31,1.35,1.35,0,0,1,.26.89,1.49,1.49,0,0,1-.17.77.82.82,0,0,1-.54.37v0a.81.81,0,0,1,.59.39,1.67,1.67,0,0,1,.16.8,1.48,1.48,0,0,1-.25.92,1.09,1.09,0,0,1-.93.34H77.9Zm1.86,1.94a.91.91,0,0,0,.19-.64,1.55,1.55,0,0,0-.07-.49.46.46,0,0,0-.22-.27,1,1,0,0,0-.45-.08h-.8v1.68h.8A.71.71,0,0,0,79.76,290.47Zm.06,2.22A1.1,1.1,0,0,0,80,292a1.07,1.07,0,0,0-.17-.68.72.72,0,0,0-.58-.2h-.82v1.75h.82A.72.72,0,0,0,79.82,292.69Z"/><path class="bd69b8d8-cbee-43a3-aac8-ad10a114cbe7" d="M83.11,292.85h0a.76.76,0,0,1-.29.41,1.31,1.31,0,0,1-1.18,0,.71.71,0,0,1-.27-.42,4.17,4.17,0,0,1-.06-.81v-2.26h.5v2.09a4.26,4.26,0,0,0,0,.73.44.44,0,0,0,.17.29.88.88,0,0,0,.42.07.62.62,0,0,0,.46-.15.68.68,0,0,0,.18-.41,5,5,0,0,0,0-.76v-1.86h.5v3.57h-.44Z"/><path class="bd69b8d8-cbee-43a3-aac8-ad10a114cbe7" d="M84.82,293.38l-.45-.06v-.42a5.62,5.62,0,0,0,.92.08.84.84,0,0,0,.4-.07.35.35,0,0,0,.18-.2,1,1,0,0,0,0-.34,1.64,1.64,0,0,0,0-.37.21.21,0,0,0-.09-.14.54.54,0,0,0-.23-.06l-.7-.11a.61.61,0,0,1-.46-.25,1.61,1.61,0,0,1-.11-.68,1.29,1.29,0,0,1,.13-.65.7.7,0,0,1,.37-.31,1.93,1.93,0,0,1,.6-.08l.46,0a1.71,1.71,0,0,1,.4.07v.4l-.4-.06-.46,0a.72.72,0,0,0-.47.12.57.57,0,0,0-.15.47,1.46,1.46,0,0,0,0,.34.23.23,0,0,0,.09.15l.22.06.68.09a.76.76,0,0,1,.35.12.5.5,0,0,1,.2.29,2.09,2.09,0,0,1,.06.58,1,1,0,0,1-.25.81,1.22,1.22,0,0,1-.82.23Z"/><path class="bd69b8d8-cbee-43a3-aac8-ad10a114cbe7" d="M90,293.34V292.2H88.23v-.41l1.27-3.26h.55l-1.27,3.21H90l.1-1.78h.42v1.78H91v.46h-.5v1.14Z"/><path class="bd69b8d8-cbee-43a3-aac8-ad10a114cbe7" d="M91.67,293.34v-.63h.57v.63Z"/><path class="bd69b8d8-cbee-43a3-aac8-ad10a114cbe7" d="M93.43,293.21a1,1,0,0,1-.35-.66,18.67,18.67,0,0,1,0-3.23,1,1,0,0,1,.35-.66,1.56,1.56,0,0,1,.9-.19,1.64,1.64,0,0,1,.92.19.9.9,0,0,1,.33.65,18.78,18.78,0,0,1,0,3.24,1,1,0,0,1-.35.66,2.23,2.23,0,0,1-1.8,0Zm1.45-.38a.68.68,0,0,0,.2-.49,19.77,19.77,0,0,0,0-2.81.68.68,0,0,0-.2-.49,1,1,0,0,0-.55-.11,1,1,0,0,0-.56.11c-.1.07-.16.23-.19.49a13.92,13.92,0,0,0,0,1.41,13.68,13.68,0,0,0,0,1.4c0,.26.09.42.19.49a1,1,0,0,0,.56.11A1,1,0,0,0,94.88,292.83Z"/><path class="bd69b8d8-cbee-43a3-aac8-ad10a114cbe7" d="M97.93,294.47v-6.33h.46v6.33Z"/><path class="bd69b8d8-cbee-43a3-aac8-ad10a114cbe7" d="M101.25,293.23a.82.82,0,0,1-.38-.64,11.86,11.86,0,0,1-.08-1.65,12.14,12.14,0,0,1,.08-1.66.85.85,0,0,1,.38-.64,3.3,3.3,0,0,1,2.09,0,.85.85,0,0,1,.38.64,12.14,12.14,0,0,1,.08,1.66,11.86,11.86,0,0,1-.08,1.65.82.82,0,0,1-.38.64,2.3,2.3,0,0,1-1,.17A2.35,2.35,0,0,1,101.25,293.23Zm1.92-.21a.71.71,0,0,0,.3-.54,12.15,12.15,0,0,0,.07-1.54,12.34,12.34,0,0,0-.07-1.55.71.71,0,0,0-.3-.54,2.12,2.12,0,0,0-.87-.13,2.15,2.15,0,0,0-.88.13.71.71,0,0,0-.3.54,13,13,0,0,0-.06,1.55,12.78,12.78,0,0,0,.06,1.54.71.71,0,0,0,.3.54,2,2,0,0,0,.88.13A2,2,0,0,0,103.17,293Zm-1.25-.86a.55.55,0,0,1-.21-.37,5.53,5.53,0,0,1,0-.85,5.63,5.63,0,0,1,0-.85.55.55,0,0,1,.22-.37.89.89,0,0,1,.49-.11,1.61,1.61,0,0,1,.42.05V290a2,2,0,0,0-.36,0,.68.68,0,0,0-.33.07.37.37,0,0,0-.12.26,8.18,8.18,0,0,0,0,1.4.37.37,0,0,0,.12.26.69.69,0,0,0,.33.06,2.05,2.05,0,0,0,.37,0v.29a2,2,0,0,1-.43,0A.93.93,0,0,1,101.92,292.16Z"/><path class="bd69b8d8-cbee-43a3-aac8-ad10a114cbe7" d="M105.13,292.88H107v.46h-2.41v-.55a8.56,8.56,0,0,1,0-.87,1,1,0,0,1,.14-.43,1.21,1.21,0,0,1,.41-.34l.91-.54a.75.75,0,0,0,.32-.32,1.46,1.46,0,0,0,.07-.54,1.72,1.72,0,0,0-.06-.52.43.43,0,0,0-.23-.23,1.52,1.52,0,0,0-.5-.07,9.22,9.22,0,0,0-1,.08v-.43a4.55,4.55,0,0,1,.54-.08l.61,0a2.3,2.3,0,0,1,.65.08.73.73,0,0,1,.39.35,1.65,1.65,0,0,1,.15.79,2.72,2.72,0,0,1-.06.64.89.89,0,0,1-.19.39,1.57,1.57,0,0,1-.36.29l-1,.58a.55.55,0,0,0-.23.22,1.09,1.09,0,0,0,0,.25c0,.1,0,.26,0,.47Z"/><path class="bd69b8d8-cbee-43a3-aac8-ad10a114cbe7" d="M108.14,293.21a.91.91,0,0,1-.34-.66,16.34,16.34,0,0,1,0-3.23.91.91,0,0,1,.34-.66,1.58,1.58,0,0,1,.9-.19,1.62,1.62,0,0,1,.92.19.91.91,0,0,1,.34.65,14.09,14.09,0,0,1,.07,1.63,11.69,11.69,0,0,1-.08,1.61,1,1,0,0,1-.34.66,1.6,1.6,0,0,1-.91.19A1.58,1.58,0,0,1,108.14,293.21Zm1.45-.38a.68.68,0,0,0,.2-.49,19.77,19.77,0,0,0,0-2.81.68.68,0,0,0-.2-.49,1.43,1.43,0,0,0-1.1,0,.68.68,0,0,0-.2.49c0,.26,0,.72,0,1.41s0,1.15,0,1.4a.68.68,0,0,0,.2.49,1.43,1.43,0,0,0,1.1,0Z"/><path class="bd69b8d8-cbee-43a3-aac8-ad10a114cbe7" d="M111.57,292.88h1.9v.46h-2.41v-.55a8.56,8.56,0,0,1,0-.87,1,1,0,0,1,.14-.43,1.21,1.21,0,0,1,.41-.34l.91-.54a.75.75,0,0,0,.32-.32,1.46,1.46,0,0,0,.07-.54,1.72,1.72,0,0,0-.06-.52.43.43,0,0,0-.23-.23,1.52,1.52,0,0,0-.5-.07,9.22,9.22,0,0,0-1,.08v-.43a4.55,4.55,0,0,1,.54-.08l.61,0a2.3,2.3,0,0,1,.65.08.73.73,0,0,1,.39.35,1.65,1.65,0,0,1,.15.79,2.72,2.72,0,0,1-.06.64.89.89,0,0,1-.19.39,1.57,1.57,0,0,1-.36.29l-1,.58a.55.55,0,0,0-.23.22,1.09,1.09,0,0,0,0,.25c0,.1,0,.26,0,.47Z"/><path class="bd69b8d8-cbee-43a3-aac8-ad10a114cbe7" d="M114.66,293.34v-4.17l-.67.33V289l.81-.48h.38v4.81Z"/><path class="bd69b8d8-cbee-43a3-aac8-ad10a114cbe7" d="M118.06,293.91a.92.92,0,0,1-.48-.72,11.5,11.5,0,0,1-.1-1.9,11.65,11.65,0,0,1,.1-1.91.92.92,0,0,1,.48-.72,5.11,5.11,0,0,1,2.76,0,.9.9,0,0,1,.48.72,11.49,11.49,0,0,1,.1,1.91,6.35,6.35,0,0,1-.06,1,.64.64,0,0,1-.2.4.82.82,0,0,1-.41.08H120l0-.41h0a.55.55,0,0,1-.25.37,1,1,0,0,1-.43.09.75.75,0,0,1-.58-.2,1,1,0,0,1-.17-.69,1.87,1.87,0,0,1,.06-.54.48.48,0,0,1,.22-.28.91.91,0,0,1,.44-.08l.73,0v-.21a2,2,0,0,0,0-.52.26.26,0,0,0-.16-.21,1.25,1.25,0,0,0-.4-.05l-.36,0a2,2,0,0,0-.33,0v-.37a3.79,3.79,0,0,1,.82-.08,1.14,1.14,0,0,1,.59.11.52.52,0,0,1,.27.34,2.58,2.58,0,0,1,.07.71v1.66h.39a.24.24,0,0,0,.19-.06.69.69,0,0,0,.09-.33,8.47,8.47,0,0,0,0-.86c0-.73,0-1.24,0-1.54a1.28,1.28,0,0,0-.2-.68.8.8,0,0,0-.55-.27,6.47,6.47,0,0,0-.87-.05q-.47,0-.78,0a.89.89,0,0,0-.6.26,1.2,1.2,0,0,0-.21.67c0,.3,0,.83,0,1.58a14.6,14.6,0,0,0,.06,1.61,1.06,1.06,0,0,0,.26.66,1.16,1.16,0,0,0,.71.24h.63c.48,0,.79,0,.94,0v.3h-1A3.42,3.42,0,0,1,118.06,293.91Zm1.65-1.5a.43.43,0,0,0,.18-.26,2.3,2.3,0,0,0,0-.53v-.22h-.63a.65.65,0,0,0-.24,0,.25.25,0,0,0-.11.15,1.6,1.6,0,0,0,0,.36,1.4,1.4,0,0,0,0,.34.27.27,0,0,0,.13.16.66.66,0,0,0,.28,0A.63.63,0,0,0,119.71,292.41Z"/><path class="bd69b8d8-cbee-43a3-aac8-ad10a114cbe7" d="M123.55,293.31v-.46a4.46,4.46,0,0,0,.54.06l.5,0a2.36,2.36,0,0,0,.44,0,.58.58,0,0,0,.27-.14.43.43,0,0,0,.13-.26,3,3,0,0,0,0-.47,3.58,3.58,0,0,0,0-.54.31.31,0,0,0-.13-.22,1,1,0,0,0-.36-.11l-.82-.13a.79.79,0,0,1-.44-.2.8.8,0,0,1-.19-.38,3.67,3.67,0,0,1,0-.64,1.42,1.42,0,0,1,.3-1,1.35,1.35,0,0,1,1-.31,4.51,4.51,0,0,1,1.07.11V289a5.09,5.09,0,0,0-.95-.09,1.56,1.56,0,0,0-.48.06.51.51,0,0,0-.26.15.57.57,0,0,0-.12.26,2.25,2.25,0,0,0,0,.4,2.46,2.46,0,0,0,0,.46.32.32,0,0,0,.11.2.7.7,0,0,0,.28.09l.78.13a1.46,1.46,0,0,1,.47.14.66.66,0,0,1,.26.34,3.64,3.64,0,0,1,0,1.65.79.79,0,0,1-.39.45,1.68,1.68,0,0,1-.74.14A7.51,7.51,0,0,1,123.55,293.31Zm1.12,1.5a.5.5,0,0,0,.07-.32v-.11h-.23v-.6h.56v.54a2,2,0,0,1,0,.5.4.4,0,0,1-.2.24,1.18,1.18,0,0,1-.44.06v-.24C124.53,294.88,124.63,294.86,124.67,294.81Z"/><path class="bd69b8d8-cbee-43a3-aac8-ad10a114cbe7" d="M128.15,293.38l-.4,0a1.27,1.27,0,0,1-.76-.18.84.84,0,0,1-.31-.55,6.19,6.19,0,0,1-.07-1.11,5.4,5.4,0,0,1,.08-1.12.89.89,0,0,1,.33-.55,1.26,1.26,0,0,1,.71-.17l.41,0a2,2,0,0,1,.34.07v.4a3.39,3.39,0,0,0-.64-.07.85.85,0,0,0-.48.11.61.61,0,0,0-.2.4,4.75,4.75,0,0,0-.06.9,5.12,5.12,0,0,0,.06.93.56.56,0,0,0,.2.39.9.9,0,0,0,.49.1,2.64,2.64,0,0,0,.65-.07v.41Z"/><path class="bd69b8d8-cbee-43a3-aac8-ad10a114cbe7" d="M129.46,293.25a.72.72,0,0,1-.32-.51,6.42,6.42,0,0,1-.08-1.18,6.35,6.35,0,0,1,.08-1.18.68.68,0,0,1,.32-.51,1.63,1.63,0,0,1,.81-.15,1.68,1.68,0,0,1,.82.15.71.71,0,0,1,.32.51,6.58,6.58,0,0,1,.07,1.18,6.65,6.65,0,0,1-.07,1.18.75.75,0,0,1-.32.51,1.68,1.68,0,0,1-.82.15A1.63,1.63,0,0,1,129.46,293.25Zm1.31-.37a.56.56,0,0,0,.18-.37c0-.18,0-.49,0-.95s0-.78,0-.95a.56.56,0,0,0-.18-.37,1,1,0,0,0-.5-.1.94.94,0,0,0-.49.1.49.49,0,0,0-.18.37,11.3,11.3,0,0,0,0,1.9.49.49,0,0,0,.18.37,1,1,0,0,0,.49.09A1,1,0,0,0,130.77,292.88Z"/><path class="bd69b8d8-cbee-43a3-aac8-ad10a114cbe7" d="M132.26,293.18a1.2,1.2,0,0,1-.22-.82,2.05,2.05,0,0,1,.08-.63.61.61,0,0,1,.28-.33,1.32,1.32,0,0,1,.54-.09l.93,0v-.25a2.87,2.87,0,0,0-.06-.63.39.39,0,0,0-.22-.26,2,2,0,0,0-.52-.06l-.42,0-.43.05v-.4a4.37,4.37,0,0,1,1-.1,1.72,1.72,0,0,1,.73.12.64.64,0,0,1,.33.4,3,3,0,0,1,.09.84v2.26h-.44l0-.49h0a.69.69,0,0,1-.34.44,1.35,1.35,0,0,1-.55.11A1,1,0,0,1,132.26,293.18Zm1.27-.27a.41.41,0,0,0,.23-.25,2.2,2.2,0,0,0,.11-.75v-.23h-.8a1,1,0,0,0-.34,0,.27.27,0,0,0-.15.19,1.47,1.47,0,0,0,0,.42,1.32,1.32,0,0,0,0,.4.32.32,0,0,0,.17.19,1,1,0,0,0,.38.05A1.12,1.12,0,0,0,133.53,292.91Z"/><path class="bd69b8d8-cbee-43a3-aac8-ad10a114cbe7" d="M135.22,293.34v-5.2h.5v5.2Z"/><path class="bd69b8d8-cbee-43a3-aac8-ad10a114cbe7" d="M136.61,293.18a1.15,1.15,0,0,1-.22-.82,2.05,2.05,0,0,1,.08-.63.61.61,0,0,1,.28-.33,1.25,1.25,0,0,1,.54-.09l.92,0v-.25a2.36,2.36,0,0,0-.06-.63.38.38,0,0,0-.21-.26,2,2,0,0,0-.53-.06l-.41,0-.43.05v-.4a4.34,4.34,0,0,1,1-.1,1.77,1.77,0,0,1,.74.12.64.64,0,0,1,.33.4,3,3,0,0,1,.09.84v2.26h-.44l0-.49h0a.72.72,0,0,1-.34.44,1.35,1.35,0,0,1-.55.11A.94.94,0,0,1,136.61,293.18Zm1.27-.27a.41.41,0,0,0,.23-.25,2.23,2.23,0,0,0,.1-.75v-.23h-.8a.92.92,0,0,0-.33,0,.27.27,0,0,0-.15.19,1.4,1.4,0,0,0-.05.42,1.25,1.25,0,0,0,.05.4.29.29,0,0,0,.17.19.94.94,0,0,0,.38.05A1.16,1.16,0,0,0,137.88,292.91Z"/><path class="bd69b8d8-cbee-43a3-aac8-ad10a114cbe7" d="M141.19,293.25a.94.94,0,0,1-.3-.54,5.42,5.42,0,0,1-.09-1.14,5.6,5.6,0,0,1,.09-1.15.83.83,0,0,1,.29-.54,1,1,0,0,1,.63-.16,1.08,1.08,0,0,1,.54.11.7.7,0,0,1,.3.38h0v-2.07h.5v5.2h-.44l0-.49h0a.69.69,0,0,1-.32.44,1.27,1.27,0,0,1-.54.11A1.08,1.08,0,0,1,141.19,293.25Zm1.22-.4a.54.54,0,0,0,.2-.32,2.37,2.37,0,0,0,.06-.41c0-.15,0-.36,0-.62a4.11,4.11,0,0,0-.06-.84.6.6,0,0,0-.2-.38.69.69,0,0,0-.43-.11.86.86,0,0,0-.46.09.56.56,0,0,0-.19.37,6.82,6.82,0,0,0,0,.93,6.51,6.51,0,0,0,0,.93.52.52,0,0,0,.18.37.9.9,0,0,0,.47.09A.71.71,0,0,0,142.41,292.85Z"/><path class="bd69b8d8-cbee-43a3-aac8-ad10a114cbe7" d="M146.28,291.72h-1.83a5.08,5.08,0,0,0,.05.82.48.48,0,0,0,.23.34,1.29,1.29,0,0,0,.57.09,4.91,4.91,0,0,0,.88-.07v.4a2.7,2.7,0,0,1-.44.07l-.53,0a1.71,1.71,0,0,1-.83-.16.8.8,0,0,1-.34-.54,5.25,5.25,0,0,1-.09-1.13,7.32,7.32,0,0,1,.07-1.13.84.84,0,0,1,.33-.55,1.54,1.54,0,0,1,.82-.17,1.26,1.26,0,0,1,.76.17.73.73,0,0,1,.29.52,7.76,7.76,0,0,1,.06,1.15Zm-1.59-1.5a.46.46,0,0,0-.2.33,5.09,5.09,0,0,0,0,.8h1.36v-.09a3.28,3.28,0,0,0-.06-.74.48.48,0,0,0-.18-.31.89.89,0,0,0-.41-.07A1.07,1.07,0,0,0,144.69,290.22Z"/><path class="bd69b8d8-cbee-43a3-aac8-ad10a114cbe7" d="M149.24,293.34,148,288.53h.55l1,4.12h0l1-4.12h.53l-1.2,4.81Z"/><path class="bd69b8d8-cbee-43a3-aac8-ad10a114cbe7" d="M151.65,293.18a1.2,1.2,0,0,1-.22-.82,2.05,2.05,0,0,1,.08-.63.61.61,0,0,1,.28-.33,1.32,1.32,0,0,1,.54-.09l.92,0v-.25a3,3,0,0,0-.05-.63.39.39,0,0,0-.22-.26,2,2,0,0,0-.52-.06l-.42,0-.43.05v-.4a4.37,4.37,0,0,1,1-.1,1.72,1.72,0,0,1,.73.12.64.64,0,0,1,.33.4,3,3,0,0,1,.09.84v2.26h-.44l0-.49h0a.69.69,0,0,1-.34.44,1.35,1.35,0,0,1-.55.11A1,1,0,0,1,151.65,293.18Zm1.27-.27a.41.41,0,0,0,.23-.25,2.23,2.23,0,0,0,.1-.75v-.23h-.79a1,1,0,0,0-.34,0,.27.27,0,0,0-.15.19,1.4,1.4,0,0,0-.05.42,1.25,1.25,0,0,0,.05.4.32.32,0,0,0,.17.19,1,1,0,0,0,.38.05A1.12,1.12,0,0,0,152.92,292.91Z"/><path class="bd69b8d8-cbee-43a3-aac8-ad10a114cbe7" d="M154.61,293.34v-5.2h.5v5.2Z"/><path class="bd69b8d8-cbee-43a3-aac8-ad10a114cbe7" d="M156.27,293.25a.72.72,0,0,1-.32-.51,6.42,6.42,0,0,1-.08-1.18,6.35,6.35,0,0,1,.08-1.18.68.68,0,0,1,.32-.51,1.63,1.63,0,0,1,.81-.15,1.68,1.68,0,0,1,.82.15.71.71,0,0,1,.32.51,7.7,7.7,0,0,1,.07,1.18,7.8,7.8,0,0,1-.07,1.18.75.75,0,0,1-.32.51,1.68,1.68,0,0,1-.82.15A1.63,1.63,0,0,1,156.27,293.25Zm1.31-.37a.56.56,0,0,0,.18-.37c0-.18,0-.49,0-.95s0-.78,0-.95a.56.56,0,0,0-.18-.37,1,1,0,0,0-.5-.1.94.94,0,0,0-.49.1.49.49,0,0,0-.18.37,11.3,11.3,0,0,0,0,1.9.49.49,0,0,0,.18.37,1,1,0,0,0,.49.09A1,1,0,0,0,157.58,292.88Z"/><path class="bd69b8d8-cbee-43a3-aac8-ad10a114cbe7" d="M159.06,289.77h.43l0,.67h0a.87.87,0,0,1,.32-.57,1.08,1.08,0,0,1,.61-.15v.5a.86.86,0,0,0-.57.16.81.81,0,0,0-.29.45,3.59,3.59,0,0,0-.08.82v1.69h-.49Z"/><path class="bd69b8d8-cbee-43a3-aac8-ad10a114cbe7" d="M161,288.72v-.58h.52v.58Zm0,4.62v-3.57h.5v3.57Z"/><path class="bd69b8d8-cbee-43a3-aac8-ad10a114cbe7" d="M37.54,301.77l-.4,0a1.27,1.27,0,0,1-.76-.18.84.84,0,0,1-.31-.56A6,6,0,0,1,36,300a6.21,6.21,0,0,1,.08-1.12.89.89,0,0,1,.33-.55,1.18,1.18,0,0,1,.71-.17l.41,0a2,2,0,0,1,.34.07v.4a3.38,3.38,0,0,0-.63-.07.86.86,0,0,0-.49.11.59.59,0,0,0-.2.4,4.75,4.75,0,0,0-.06.9,5.12,5.12,0,0,0,.06.93.56.56,0,0,0,.2.39.9.9,0,0,0,.49.1,2.59,2.59,0,0,0,.65-.07v.41A1.58,1.58,0,0,1,37.54,301.77Z"/><path class="bd69b8d8-cbee-43a3-aac8-ad10a114cbe7" d="M38.85,301.65a.72.72,0,0,1-.32-.51,6.42,6.42,0,0,1-.08-1.18,6.35,6.35,0,0,1,.08-1.18.72.72,0,0,1,.32-.52,1.78,1.78,0,0,1,.81-.14,1.83,1.83,0,0,1,.82.14.72.72,0,0,1,.32.52,6.58,6.58,0,0,1,.07,1.18,6.65,6.65,0,0,1-.07,1.18.72.72,0,0,1-.32.51,1.68,1.68,0,0,1-.82.15A1.63,1.63,0,0,1,38.85,301.65Zm1.31-.38a.51.51,0,0,0,.18-.36c0-.18,0-.49,0-1s0-.78,0-.95a.56.56,0,0,0-.18-.37,1,1,0,0,0-.5-.1.94.94,0,0,0-.49.1A.49.49,0,0,0,39,299a11.3,11.3,0,0,0,0,1.9.45.45,0,0,0,.18.36.85.85,0,0,0,.49.1A.89.89,0,0,0,40.16,301.27Z"/><path class="bd69b8d8-cbee-43a3-aac8-ad10a114cbe7" d="M43.45,299.66a4.26,4.26,0,0,0,0-.73.41.41,0,0,0-.18-.29.84.84,0,0,0-.41-.07.65.65,0,0,0-.47.15.68.68,0,0,0-.18.41,7.16,7.16,0,0,0,0,.76v1.85h-.5v-3.57h.43l0,.5h0a.77.77,0,0,1,.29-.41,1.09,1.09,0,0,1,.59-.14,1,1,0,0,1,.6.14.65.65,0,0,1,.26.42,3.41,3.41,0,0,1,.07.81v2.25h-.5Z"/><path class="bd69b8d8-cbee-43a3-aac8-ad10a114cbe7" d="M46.24,301.77l-.4,0a1.27,1.27,0,0,1-.76-.18.84.84,0,0,1-.31-.56,6,6,0,0,1-.07-1.1,6.21,6.21,0,0,1,.08-1.12.89.89,0,0,1,.33-.55,1.18,1.18,0,0,1,.71-.17l.41,0a2,2,0,0,1,.34.07v.4a3.2,3.2,0,0,0-.63-.07.86.86,0,0,0-.49.11.59.59,0,0,0-.2.4,4.75,4.75,0,0,0-.06.9,5.12,5.12,0,0,0,.06.93.56.56,0,0,0,.2.39.92.92,0,0,0,.49.1,2.59,2.59,0,0,0,.65-.07v.41A1.58,1.58,0,0,1,46.24,301.77Z"/><path class="bd69b8d8-cbee-43a3-aac8-ad10a114cbe7" d="M49.49,300.12H47.65a4.85,4.85,0,0,0,.05.81.5.5,0,0,0,.23.35,1.31,1.31,0,0,0,.58.09,5.06,5.06,0,0,0,.88-.07v.4a3.13,3.13,0,0,1-.44.07l-.54,0a1.58,1.58,0,0,1-.83-.17.76.76,0,0,1-.34-.53,5.29,5.29,0,0,1-.09-1.14,7.27,7.27,0,0,1,.07-1.12.84.84,0,0,1,.33-.55,1.54,1.54,0,0,1,.82-.17,1.29,1.29,0,0,1,.77.17.77.77,0,0,1,.29.52,7.76,7.76,0,0,1,.06,1.15Zm-1.6-1.5a.45.45,0,0,0-.19.33,4.8,4.8,0,0,0-.05.8H49v-.09a3.28,3.28,0,0,0-.06-.74.44.44,0,0,0-.18-.31.84.84,0,0,0-.4-.07A1.12,1.12,0,0,0,47.89,298.62Z"/><path class="bd69b8d8-cbee-43a3-aac8-ad10a114cbe7" d="M50.26,298.17h.44l0,.5h.05a.71.71,0,0,1,.31-.44,1.27,1.27,0,0,1,.54-.11,1.08,1.08,0,0,1,.63.15.79.79,0,0,1,.3.54,5.42,5.42,0,0,1,.09,1.14,6.43,6.43,0,0,1-.08,1.15.91.91,0,0,1-.3.54,1,1,0,0,1-.63.16,1.13,1.13,0,0,1-.53-.11.7.7,0,0,1-.31-.38h0v1.78h-.5Zm1.65,3.09a.56.56,0,0,0,.19-.37,6.51,6.51,0,0,0,0-.93,6.31,6.31,0,0,0,0-.93.56.56,0,0,0-.19-.37.88.88,0,0,0-.46-.09.73.73,0,0,0-.42.1.58.58,0,0,0-.21.35,2.06,2.06,0,0,0,0,.39c0,.14,0,.32,0,.55a4.05,4.05,0,0,0,.06.87.69.69,0,0,0,.21.41.68.68,0,0,0,.42.11A.88.88,0,0,0,51.91,301.26Z"/><path class="bd69b8d8-cbee-43a3-aac8-ad10a114cbe7" d="M53.63,301.74V298.6h-.52v-.43h.52v-1h.5v1h.61v.43h-.61v3.14Z"/><path class="bd69b8d8-cbee-43a3-aac8-ad10a114cbe7" d="M58.1,301.77l-.4,0a1.27,1.27,0,0,1-.76-.18.89.89,0,0,1-.32-.56,7.35,7.35,0,0,1-.06-1.1,5.4,5.4,0,0,1,.08-1.12.89.89,0,0,1,.33-.55,1.16,1.16,0,0,1,.71-.17l.41,0a1.68,1.68,0,0,1,.33.07v.4a3.2,3.2,0,0,0-.63-.07.85.85,0,0,0-.48.11.64.64,0,0,0-.21.4,6.12,6.12,0,0,0-.05.9,6.61,6.61,0,0,0,.05.93.61.61,0,0,0,.21.39.9.9,0,0,0,.49.1,2.64,2.64,0,0,0,.65-.07v.41A1.58,1.58,0,0,1,58.1,301.77Z"/><path class="bd69b8d8-cbee-43a3-aac8-ad10a114cbe7" d="M59.12,298.17h.44l0,.67h0a.83.83,0,0,1,.32-.57,1.07,1.07,0,0,1,.6-.15v.5a.9.9,0,0,0-.57.16.85.85,0,0,0-.28.45,3.59,3.59,0,0,0-.08.82v1.69h-.5Z"/><path class="bd69b8d8-cbee-43a3-aac8-ad10a114cbe7" d="M63.34,300.12H61.5a3.77,3.77,0,0,0,.06.81.49.49,0,0,0,.22.35,1.37,1.37,0,0,0,.58.09,5,5,0,0,0,.88-.07v.4a2.9,2.9,0,0,1-.44.07l-.54,0a1.61,1.61,0,0,1-.83-.17.79.79,0,0,1-.34-.53,8.55,8.55,0,0,1,0-2.26.79.79,0,0,1,.32-.55,1.58,1.58,0,0,1,.83-.17,1.28,1.28,0,0,1,.76.17.77.77,0,0,1,.29.52,7.76,7.76,0,0,1,.06,1.15Zm-1.6-1.5a.45.45,0,0,0-.19.33,4.8,4.8,0,0,0,0,.8h1.36v-.09a4.23,4.23,0,0,0,0-.74.45.45,0,0,0-.19-.31.84.84,0,0,0-.4-.07A1.12,1.12,0,0,0,61.74,298.62Z"/><path class="bd69b8d8-cbee-43a3-aac8-ad10a114cbe7" d="M64.13,301.58a1.15,1.15,0,0,1-.22-.82,2.05,2.05,0,0,1,.08-.63.61.61,0,0,1,.28-.33,1.25,1.25,0,0,1,.54-.09l.92,0v-.25a2.31,2.31,0,0,0-.06-.63.38.38,0,0,0-.21-.26,1.66,1.66,0,0,0-.53-.06l-.41,0-.43.05v-.41a5,5,0,0,1,1-.09,1.74,1.74,0,0,1,.74.12.64.64,0,0,1,.33.4,3,3,0,0,1,.09.84v2.26h-.44l0-.49h0a.69.69,0,0,1-.34.44,1.35,1.35,0,0,1-.55.11A1,1,0,0,1,64.13,301.58Zm1.27-.27a.41.41,0,0,0,.23-.25,2.23,2.23,0,0,0,.1-.75v-.23h-.8a.92.92,0,0,0-.33,0,.28.28,0,0,0-.15.18,1.53,1.53,0,0,0,0,.43,1.25,1.25,0,0,0,0,.4.32.32,0,0,0,.17.19,1.41,1.41,0,0,0,.78,0Z"/><path class="bd69b8d8-cbee-43a3-aac8-ad10a114cbe7" d="M67.31,301.74V298.6h-.52v-.43h.52v-1h.49v1h.62v.43H67.8v3.14Z"/><path class="bd69b8d8-cbee-43a3-aac8-ad10a114cbe7" d="M70.62,301.65a.94.94,0,0,1-.3-.54,5.47,5.47,0,0,1-.09-1.15,5.55,5.55,0,0,1,.09-1.14.88.88,0,0,1,.29-.55,1.13,1.13,0,0,1,.63-.15,1,1,0,0,1,.54.11.62.62,0,0,1,.3.38h0v-2.07h.49v5.2h-.44l0-.49h0a.69.69,0,0,1-.32.44,1.27,1.27,0,0,1-.54.11A1.08,1.08,0,0,1,70.62,301.65Zm1.22-.4a.54.54,0,0,0,.2-.32,2.37,2.37,0,0,0,.06-.41c0-.15,0-.36,0-.62a3.36,3.36,0,0,0-.07-.84.56.56,0,0,0-.2-.38.69.69,0,0,0-.43-.11.88.88,0,0,0-.46.09.52.52,0,0,0-.18.37,6.31,6.31,0,0,0,0,.93,6.51,6.51,0,0,0,0,.93.52.52,0,0,0,.18.37.93.93,0,0,0,.47.09A.71.71,0,0,0,71.84,301.25Z"/><path class="bd69b8d8-cbee-43a3-aac8-ad10a114cbe7" d="M75.71,300.12H73.88a4.85,4.85,0,0,0,.05.81.5.5,0,0,0,.23.35,1.29,1.29,0,0,0,.57.09,5.1,5.1,0,0,0,.89-.07v.4a3.13,3.13,0,0,1-.44.07l-.54,0a1.58,1.58,0,0,1-.83-.17.76.76,0,0,1-.34-.53,5.29,5.29,0,0,1-.09-1.14,7.27,7.27,0,0,1,.07-1.12.84.84,0,0,1,.33-.55,1.54,1.54,0,0,1,.82-.17,1.24,1.24,0,0,1,.76.17.7.7,0,0,1,.29.52,7.76,7.76,0,0,1,.06,1.15Zm-1.59-1.5a.45.45,0,0,0-.19.33,4.8,4.8,0,0,0-.05.8h1.36v-.09a3.28,3.28,0,0,0-.06-.74.44.44,0,0,0-.18-.31.86.86,0,0,0-.41-.07A1.1,1.1,0,0,0,74.12,298.62Z"/><path class="bd69b8d8-cbee-43a3-aac8-ad10a114cbe7" d="M80.19,301.74l-.34-1.33H78.37L78,301.74h-.52l1.26-4.81h.69l1.26,4.81Zm-1.06-4.18h0l-.6,2.38h1.23Z"/><path class="bd69b8d8-cbee-43a3-aac8-ad10a114cbe7" d="M81.29,298.17h.44l0,.67h0a.83.83,0,0,1,.32-.57,1.07,1.07,0,0,1,.6-.15v.5a.9.9,0,0,0-.57.16.8.8,0,0,0-.28.45,3.59,3.59,0,0,0-.08.82v1.69h-.5Z"/><path class="bd69b8d8-cbee-43a3-aac8-ad10a114cbe7" d="M86.75,299.66a4.26,4.26,0,0,0,0-.73.47.47,0,0,0-.15-.29.73.73,0,0,0-.38-.07.58.58,0,0,0-.45.14.62.62,0,0,0-.18.4,6.77,6.77,0,0,0,0,.78v1.85H85v-2.08a5.53,5.53,0,0,0,0-.73.44.44,0,0,0-.15-.29.73.73,0,0,0-.38-.07.58.58,0,0,0-.45.15.65.65,0,0,0-.18.41,7.16,7.16,0,0,0,0,.76v1.85h-.5v-3.57h.43l0,.5h0a.86.86,0,0,1,.28-.41,1,1,0,0,1,.56-.14,1.05,1.05,0,0,1,.57.12.69.69,0,0,1,.26.43h0a.77.77,0,0,1,.29-.41,1.27,1.27,0,0,1,1.14,0,.71.71,0,0,1,.25.43,3.37,3.37,0,0,1,.07.8v2.26h-.5Z"/><path class="bd69b8d8-cbee-43a3-aac8-ad10a114cbe7" d="M88.1,297.12v-.58h.52v.58Zm0,4.62v-3.57h.5v3.57Z"/><path class="bd69b8d8-cbee-43a3-aac8-ad10a114cbe7" d="M91.3,299.66a4,4,0,0,0,0-.73.44.44,0,0,0-.17-.29.84.84,0,0,0-.41-.07.62.62,0,0,0-.47.15.68.68,0,0,0-.18.41,4.92,4.92,0,0,0,0,.76v1.85h-.5v-3.57h.44l0,.5h0a.72.72,0,0,1,.29-.41,1.07,1.07,0,0,1,.59-.14,1,1,0,0,1,.59.14.71.71,0,0,1,.27.42,4.17,4.17,0,0,1,.06.81v2.25H91.3Z"/><path class="bd69b8d8-cbee-43a3-aac8-ad10a114cbe7" d="M92.67,301.58a1.15,1.15,0,0,1-.22-.82,2.05,2.05,0,0,1,.08-.63.6.6,0,0,1,.27-.33,1.34,1.34,0,0,1,.55-.09l.92,0v-.25a2.31,2.31,0,0,0-.06-.63.37.37,0,0,0-.22-.26,1.55,1.55,0,0,0-.52-.06l-.41,0-.43.05v-.41a5,5,0,0,1,1-.09,1.69,1.69,0,0,1,.73.12.62.62,0,0,1,.34.4,3,3,0,0,1,.09.84v2.26h-.44l0-.49h0a.66.66,0,0,1-.34.44,1.3,1.3,0,0,1-.54.11A1,1,0,0,1,92.67,301.58Zm1.27-.27a.44.44,0,0,0,.23-.25,2.23,2.23,0,0,0,.1-.75v-.23h-.8a.92.92,0,0,0-.33,0,.28.28,0,0,0-.15.18,1.53,1.53,0,0,0,0,.43,1.25,1.25,0,0,0,0,.4.29.29,0,0,0,.17.19,1.41,1.41,0,0,0,.78,0Z"/><path class="bd69b8d8-cbee-43a3-aac8-ad10a114cbe7" d="M96.91,301.71v-.46a4,4,0,0,0,.54.06l.5,0a2.45,2.45,0,0,0,.44,0,.58.58,0,0,0,.27-.14.43.43,0,0,0,.13-.26,3,3,0,0,0,0-.47,3.22,3.22,0,0,0,0-.54.31.31,0,0,0-.13-.22.84.84,0,0,0-.36-.11l-.81-.13a.75.75,0,0,1-.44-.2.72.72,0,0,1-.19-.39,3.4,3.4,0,0,1,0-.63,1.38,1.38,0,0,1,.31-1,1.34,1.34,0,0,1,1-.31,4.36,4.36,0,0,1,1.06.11v.44a5,5,0,0,0-.94-.09,1.52,1.52,0,0,0-.48.06.51.51,0,0,0-.27.15.57.57,0,0,0-.12.26c0,.11,0,.24,0,.39s0,.37,0,.47a.31.31,0,0,0,.12.2.65.65,0,0,0,.28.09l.78.13a1.39,1.39,0,0,1,.46.14.66.66,0,0,1,.26.34,2.28,2.28,0,0,1,.09.8,2.4,2.4,0,0,1-.12.85.82.82,0,0,1-.38.45,1.68,1.68,0,0,1-.74.14A7.33,7.33,0,0,1,96.91,301.71Z"/><path class="bd69b8d8-cbee-43a3-aac8-ad10a114cbe7" d="M99.51,297.51v0l.54-.93h.55l.53.93v0h-.35l-.45-.68-.47.68Zm.56,4.23v-3.57h.5v3.57Z"/><path class="bd69b8d8-cbee-43a3-aac8-ad10a114cbe7" d="M101.45,298.17h.43l0,.67h0a.87.87,0,0,1,.32-.57,1.07,1.07,0,0,1,.6-.15v.5a.85.85,0,0,0-.56.16.81.81,0,0,0-.29.45,3.59,3.59,0,0,0-.08.82v1.69h-.49Z"/><path class="bd69b8d8-cbee-43a3-aac8-ad10a114cbe7" d="M104.26,301.69a.73.73,0,0,1-.32-.44h0l0,.49h-.44v-5.2h.5v2.07h0a.7.7,0,0,1,.3-.38,1.08,1.08,0,0,1,.54-.11,1.13,1.13,0,0,1,.63.15.94.94,0,0,1,.3.55,6.39,6.39,0,0,1,.08,1.14,5.42,5.42,0,0,1-.09,1.14.89.89,0,0,1-.3.55,1.13,1.13,0,0,1-.63.15A1.27,1.27,0,0,1,104.26,301.69Zm.83-.43a.52.52,0,0,0,.18-.37,5.28,5.28,0,0,0,0-.93,5.14,5.14,0,0,0,0-.93.52.52,0,0,0-.18-.37.9.9,0,0,0-.47-.09.73.73,0,0,0-.39.09.54.54,0,0,0-.21.31,2.23,2.23,0,0,0-.06.41,4.8,4.8,0,0,0,0,.58c0,.24,0,.43,0,.57a1.43,1.43,0,0,0,.07.39.46.46,0,0,0,.2.33.68.68,0,0,0,.4.1A.9.9,0,0,0,105.09,301.26Z"/><path class="bd69b8d8-cbee-43a3-aac8-ad10a114cbe7" d="M108.41,301.25h0a.88.88,0,0,1-.29.41,1.11,1.11,0,0,1-.6.14,1.07,1.07,0,0,1-.59-.14.68.68,0,0,1-.26-.42,3.41,3.41,0,0,1-.07-.81v-2.26h.5v2.09a4.26,4.26,0,0,0,0,.73.44.44,0,0,0,.17.29.91.91,0,0,0,.42.07.62.62,0,0,0,.46-.15.68.68,0,0,0,.18-.41,5,5,0,0,0,0-.76v-1.86h.5v3.57h-.44Z"/><path class="bd69b8d8-cbee-43a3-aac8-ad10a114cbe7" d="M114.24,299.09v.43h-.59v2.16l-.56.08a4,4,0,0,1-.57,0,2.4,2.4,0,0,1-1-.15.9.9,0,0,1-.44-.44,2.2,2.2,0,0,1-.11-.75,1.54,1.54,0,0,1,.16-.81.9.9,0,0,1,.5-.35v0a.82.82,0,0,1-.48-.36,1.56,1.56,0,0,1-.15-.77,1.62,1.62,0,0,1,.13-.7.86.86,0,0,1,.44-.42,2.2,2.2,0,0,1,.91-.15,4,4,0,0,1,.56,0,3.71,3.71,0,0,1,.55.09v.4l-.51-.07-.46,0a2.09,2.09,0,0,0-.72.09.52.52,0,0,0-.32.27,1.56,1.56,0,0,0-.07.55,1.34,1.34,0,0,0,.13.65.58.58,0,0,0,.55.23h.44v.43h-.44a.82.82,0,0,0-.46.11.47.47,0,0,0-.21.3,2.3,2.3,0,0,0,0,.53,1.27,1.27,0,0,0,.11.58.49.49,0,0,0,.32.26,1.89,1.89,0,0,0,.6.07,3.58,3.58,0,0,0,.61-.05v-2.23Z"/><path class="bd69b8d8-cbee-43a3-aac8-ad10a114cbe7" d="M115.59,297.51v0l.54-.93h.55l.53.93v0h-.35l-.46-.68-.46.68Zm.56,4.23v-3.57h.5v3.57Z"/><path class="bd69b8d8-cbee-43a3-aac8-ad10a114cbe7" d="M121,299.66a4.26,4.26,0,0,0,0-.73.43.43,0,0,0-.16-.29.69.69,0,0,0-.37-.07.62.62,0,0,0-.46.14.67.67,0,0,0-.17.4,5,5,0,0,0,0,.78v1.85h-.5v-2.08a4.18,4.18,0,0,0,0-.73.37.37,0,0,0-.15-.29.69.69,0,0,0-.37-.07.58.58,0,0,0-.45.15.65.65,0,0,0-.18.41,4.92,4.92,0,0,0,0,.76v1.85h-.5v-3.57H118l0,.5h0a.8.8,0,0,1,.28-.41.94.94,0,0,1,.56-.14,1.08,1.08,0,0,1,.57.12.68.68,0,0,1,.25.43h0a.76.76,0,0,1,.28-.41,1.06,1.06,0,0,1,.58-.14,1,1,0,0,1,.57.13.71.71,0,0,1,.25.43,4,4,0,0,1,.07.8v2.26H121Z"/><path class="bd69b8d8-cbee-43a3-aac8-ad10a114cbe7" d="M123.17,301.69a.69.69,0,0,1-.32-.44h0l0,.49h-.43v-5.2h.49v2.07h0a.62.62,0,0,1,.3-.38,1,1,0,0,1,.53-.11,1.08,1.08,0,0,1,.63.15.84.84,0,0,1,.3.55,7.26,7.26,0,0,1,0,2.28.94.94,0,0,1-.3.55,1.13,1.13,0,0,1-.63.15A1.27,1.27,0,0,1,123.17,301.69Zm.83-.43a.52.52,0,0,0,.18-.37,6.51,6.51,0,0,0,0-.93,6.31,6.31,0,0,0,0-.93.52.52,0,0,0-.18-.37.9.9,0,0,0-.47-.09.76.76,0,0,0-.4.09.53.53,0,0,0-.2.31,2.18,2.18,0,0,0-.07.41c0,.15,0,.34,0,.58s0,.43,0,.57a2,2,0,0,0,.06.39.54.54,0,0,0,.2.33.71.71,0,0,0,.41.1A.9.9,0,0,0,124,301.26Z"/><path class="bd69b8d8-cbee-43a3-aac8-ad10a114cbe7" d="M127.32,301.25h0a.76.76,0,0,1-.29.41,1.07,1.07,0,0,1-.59.14,1,1,0,0,1-.59-.14.74.74,0,0,1-.27-.42,4.17,4.17,0,0,1-.06-.81v-2.26H126v2.09a4,4,0,0,0,0,.73.44.44,0,0,0,.17.29.84.84,0,0,0,.41.07.65.65,0,0,0,.47-.15.74.74,0,0,0,.18-.41,5,5,0,0,0,0-.76v-1.86h.5v3.57h-.44Z"/><path class="bd69b8d8-cbee-43a3-aac8-ad10a114cbe7" d="M130.48,299.66a4.26,4.26,0,0,0,0-.73.41.41,0,0,0-.18-.29.84.84,0,0,0-.41-.07.65.65,0,0,0-.47.15.68.68,0,0,0-.18.41,7.16,7.16,0,0,0,0,.76v1.85h-.5v-3.57h.43l0,.5h0a.83.83,0,0,1,.29-.41,1.09,1.09,0,0,1,.59-.14,1,1,0,0,1,.6.14.65.65,0,0,1,.26.42,3.41,3.41,0,0,1,.07.81v2.25h-.5Z"/><path class="bd69b8d8-cbee-43a3-aac8-ad10a114cbe7" d="M131.85,301.58a1.21,1.21,0,0,1-.21-.82,1.78,1.78,0,0,1,.08-.63.56.56,0,0,1,.27-.33,1.32,1.32,0,0,1,.54-.09l.93,0v-.25a2.31,2.31,0,0,0-.06-.63.37.37,0,0,0-.22-.26,1.63,1.63,0,0,0-.52-.06l-.42,0-.43.05v-.41a5.06,5.06,0,0,1,1-.09,1.72,1.72,0,0,1,.73.12.64.64,0,0,1,.33.4,3,3,0,0,1,.09.84v2.26h-.44l0-.49h0a.66.66,0,0,1-.34.44,1.35,1.35,0,0,1-.55.11A1,1,0,0,1,131.85,301.58Zm1.77-4.49a.51.51,0,0,1-.22.33.91.91,0,0,1-.52.12.89.89,0,0,1-.52-.12.54.54,0,0,1-.22-.33,2.62,2.62,0,0,1,0-.55h.35a3.59,3.59,0,0,0,0,.4.31.31,0,0,0,.11.2.68.68,0,0,0,.6,0,.31.31,0,0,0,.11-.2,2,2,0,0,0,0-.4h.35A2.51,2.51,0,0,1,133.62,297.09Zm-.5,4.22a.41.41,0,0,0,.23-.25,2.2,2.2,0,0,0,.11-.75v-.23h-.8a.92.92,0,0,0-.33,0,.26.26,0,0,0-.16.18,1.6,1.6,0,0,0,0,.43,1.32,1.32,0,0,0,0,.4.32.32,0,0,0,.17.19,1.2,1.2,0,0,0,.38.05A1.12,1.12,0,0,0,133.12,301.31Z"/><path class="bd69b8d8-cbee-43a3-aac8-ad10a114cbe7" d="M135,301.74V298.6h-.52v-.43H135v-1h.5v1h.61v.43h-.61v3.14Z"/><path class="bd69b8d8-cbee-43a3-aac8-ad10a114cbe7" d="M136.74,301.58a1.15,1.15,0,0,1-.22-.82,2.05,2.05,0,0,1,.08-.63.61.61,0,0,1,.28-.33,1.25,1.25,0,0,1,.54-.09l.92,0v-.25a2.31,2.31,0,0,0-.06-.63.38.38,0,0,0-.21-.26,1.66,1.66,0,0,0-.53-.06l-.41,0-.43.05v-.41a5,5,0,0,1,1-.09,1.77,1.77,0,0,1,.74.12.64.64,0,0,1,.33.4,3,3,0,0,1,.09.84v2.26h-.44l0-.49h0a.65.65,0,0,1-.33.44,1.35,1.35,0,0,1-.55.11A1,1,0,0,1,136.74,301.58Zm1.77-4.49a.54.54,0,0,1-.22.33,1.21,1.21,0,0,1-1,0,.53.53,0,0,1-.21-.33,2.51,2.51,0,0,1-.05-.55h.35a2,2,0,0,0,0,.4.31.31,0,0,0,.11.2.46.46,0,0,0,.29.07.53.53,0,0,0,.31-.07.31.31,0,0,0,.11-.2,2.13,2.13,0,0,0,0-.4h.35A2.62,2.62,0,0,1,138.51,297.09Zm-.5,4.22a.41.41,0,0,0,.23-.25,2.23,2.23,0,0,0,.1-.75v-.23h-.8a.92.92,0,0,0-.33,0,.28.28,0,0,0-.15.18,1.53,1.53,0,0,0-.05.43,1.25,1.25,0,0,0,.05.4.32.32,0,0,0,.17.19,1.41,1.41,0,0,0,.78,0Z"/><path class="bd69b8d8-cbee-43a3-aac8-ad10a114cbe7" d="M139.92,301.74V298.6h-.52v-.43h.52v-1h.49v1H141v.43h-.62v3.14Zm.2,1.47a.6.6,0,0,0,.06-.32v-.11H140v-.6h.56v.54a1.59,1.59,0,0,1,0,.5.36.36,0,0,1-.19.24,1.18,1.18,0,0,1-.44.06v-.24C140,303.28,140.08,303.26,140.12,303.21Z"/><path class="bd69b8d8-cbee-43a3-aac8-ad10a114cbe7" d="M141.6,297.12v-.58h.52v.58Zm0,4.62v-3.57h.5v3.57Z"/><path class="bd69b8d8-cbee-43a3-aac8-ad10a114cbe7" d="M143.2,301.74V298.6h-.52v-.43h.52v-1h.5v1h.61v.43h-.61v3.14Z"/><path class="bd69b8d8-cbee-43a3-aac8-ad10a114cbe7" d="M146.51,301.65a.94.94,0,0,1-.3-.54,6.43,6.43,0,0,1-.08-1.15,5.68,5.68,0,0,1,.08-1.14.94.94,0,0,1,.3-.55,1.07,1.07,0,0,1,.62-.15,1,1,0,0,1,.54.11.62.62,0,0,1,.3.38h0v-2.07h.5v5.2h-.44l0-.49h0a.66.66,0,0,1-.32.44,1.2,1.2,0,0,1-.54.11A1.13,1.13,0,0,1,146.51,301.65Zm1.22-.4a.46.46,0,0,0,.2-.32,2.33,2.33,0,0,0,.07-.41c0-.15,0-.36,0-.62a4.11,4.11,0,0,0-.06-.84.61.61,0,0,0-.21-.38.67.67,0,0,0-.43-.11.91.91,0,0,0-.46.09.52.52,0,0,0-.18.37,6.31,6.31,0,0,0,0,.93,6.51,6.51,0,0,0,0,.93.56.56,0,0,0,.19.37.86.86,0,0,0,.46.09A.69.69,0,0,0,147.73,301.25Z"/><path class="bd69b8d8-cbee-43a3-aac8-ad10a114cbe7" d="M151.61,300.12h-1.84a3.77,3.77,0,0,0,.06.81.49.49,0,0,0,.22.35,1.34,1.34,0,0,0,.58.09,5,5,0,0,0,.88-.07v.4a3.13,3.13,0,0,1-.44.07l-.54,0a1.61,1.61,0,0,1-.83-.17.79.79,0,0,1-.34-.53,5.44,5.44,0,0,1-.08-1.14,6.18,6.18,0,0,1,.07-1.12.79.79,0,0,1,.32-.55,1.57,1.57,0,0,1,.82-.17,1.29,1.29,0,0,1,.77.17.77.77,0,0,1,.29.52,7.76,7.76,0,0,1,.06,1.15Zm-1.6-1.5a.45.45,0,0,0-.19.33,4.8,4.8,0,0,0,0,.8h1.36v-.09a4.23,4.23,0,0,0,0-.74.45.45,0,0,0-.19-.31.84.84,0,0,0-.4-.07A1.12,1.12,0,0,0,150,298.62Z"/><path class="bd69b8d8-cbee-43a3-aac8-ad10a114cbe7" d="M153.67,301.71v-.46a4.08,4.08,0,0,0,.53.06l.5,0a2.48,2.48,0,0,0,.45,0,.58.58,0,0,0,.27-.14.49.49,0,0,0,.12-.26,2.05,2.05,0,0,0,0-.47,3.22,3.22,0,0,0,0-.54.31.31,0,0,0-.13-.22,1,1,0,0,0-.36-.11l-.81-.13a.7.7,0,0,1-.64-.59,3.55,3.55,0,0,1,0-.63,1.38,1.38,0,0,1,.31-1,1.31,1.31,0,0,1,1-.31,4.45,4.45,0,0,1,1.07.11v.44a5.09,5.09,0,0,0-1-.09,1.56,1.56,0,0,0-.48.06.51.51,0,0,0-.26.15.57.57,0,0,0-.12.26,2.21,2.21,0,0,0,0,.39,2.59,2.59,0,0,0,0,.47.35.35,0,0,0,.11.2.7.7,0,0,0,.28.09l.79.13a1.48,1.48,0,0,1,.46.14.66.66,0,0,1,.26.34,2.66,2.66,0,0,1,.08.8,2.69,2.69,0,0,1-.11.85.79.79,0,0,1-.39.45,1.68,1.68,0,0,1-.74.14A7.29,7.29,0,0,1,153.67,301.71Z"/><path class="bd69b8d8-cbee-43a3-aac8-ad10a114cbe7" d="M156.82,297.12v-.58h.52v.58Zm0,4.62v-3.57h.5v3.57Z"/><path class="bd69b8d8-cbee-43a3-aac8-ad10a114cbe7" d="M158.2,301.74v-5.2h.5v5.2Z"/><path class="bd69b8d8-cbee-43a3-aac8-ad10a114cbe7" d="M160.25,301.74l-1-3.57h.51l.76,2.94h0l.75-2.94h.5l-1,3.57Z"/><path class="bd69b8d8-cbee-43a3-aac8-ad10a114cbe7" d="M162.39,297.12v-.58h.53v.58Zm0,4.62v-3.57h.5v3.57Z"/><path class="bd69b8d8-cbee-43a3-aac8-ad10a114cbe7" d="M163.79,301.58a1.21,1.21,0,0,1-.21-.82,1.78,1.78,0,0,1,.08-.63.56.56,0,0,1,.27-.33,1.32,1.32,0,0,1,.54-.09l.93,0v-.25a2.31,2.31,0,0,0-.06-.63.37.37,0,0,0-.22-.26,1.59,1.59,0,0,0-.52-.06l-.42,0-.43.05v-.41a5.13,5.13,0,0,1,1-.09,1.69,1.69,0,0,1,.73.12.64.64,0,0,1,.33.4,3,3,0,0,1,.09.84v2.26h-.44l0-.49h0a.66.66,0,0,1-.34.44,1.35,1.35,0,0,1-.55.11A1,1,0,0,1,163.79,301.58Zm1.27-.27a.41.41,0,0,0,.23-.25,2.2,2.2,0,0,0,.11-.75v-.23h-.8a.92.92,0,0,0-.33,0,.26.26,0,0,0-.16.18,1.6,1.6,0,0,0,0,.43,1.32,1.32,0,0,0,0,.4.32.32,0,0,0,.17.19,1.2,1.2,0,0,0,.38.05A1.09,1.09,0,0,0,165.06,301.31Z"/><path class="bd69b8d8-cbee-43a3-aac8-ad10a114cbe7" d="M168.15,296.93h1.46a1.06,1.06,0,0,1,.86.31,1.35,1.35,0,0,1,.25.89,1.4,1.4,0,0,1-.17.77.8.8,0,0,1-.54.37v0a.83.83,0,0,1,.6.39,1.77,1.77,0,0,1,.16.8,1.48,1.48,0,0,1-.26.92,1.06,1.06,0,0,1-.93.34h-1.43Zm1.87,1.94a1,1,0,0,0,.18-.64,1.54,1.54,0,0,0-.06-.49.54.54,0,0,0-.22-.27,1.12,1.12,0,0,0-.46-.08h-.79v1.68h.79A.73.73,0,0,0,170,298.87Zm.06,2.22a1.18,1.18,0,0,0,.15-.68,1.08,1.08,0,0,0-.16-.68.75.75,0,0,0-.58-.2h-.82v1.75h.82A.75.75,0,0,0,170.08,301.09Z"/><path class="bd69b8d8-cbee-43a3-aac8-ad10a114cbe7" d="M171.83,301.65a.73.73,0,0,1-.33-.51,7.8,7.8,0,0,1-.07-1.18,7.7,7.7,0,0,1,.07-1.18.73.73,0,0,1,.33-.52,1.75,1.75,0,0,1,.81-.14,1.83,1.83,0,0,1,.82.14.75.75,0,0,1,.32.52,7.7,7.7,0,0,1,.07,1.18,7.8,7.8,0,0,1-.07,1.18.75.75,0,0,1-.32.51,1.68,1.68,0,0,1-.82.15A1.61,1.61,0,0,1,171.83,301.65Zm1.31-.38a.47.47,0,0,0,.17-.36,6.88,6.88,0,0,0,0-1,6.78,6.78,0,0,0,0-.95.52.52,0,0,0-.17-.37,1,1,0,0,0-.5-.1.92.92,0,0,0-.49.1.49.49,0,0,0-.18.37,11.3,11.3,0,0,0,0,1.9.45.45,0,0,0,.18.36.83.83,0,0,0,.49.1A.89.89,0,0,0,173.14,301.27Z"/><path class="bd69b8d8-cbee-43a3-aac8-ad10a114cbe7" d="M174.63,303.09v-.41l.85,0a1.25,1.25,0,0,0,.6-.11.51.51,0,0,0,.25-.36,4.29,4.29,0,0,0,.06-.85v-.1h0a.67.67,0,0,1-.29.38,1.2,1.2,0,0,1-.54.11,1,1,0,0,1-.63-.16.79.79,0,0,1-.3-.53,7.27,7.27,0,0,1,0-2.28.88.88,0,0,1,.3-.54,1.14,1.14,0,0,1,.64-.15,1.22,1.22,0,0,1,.53.11.72.72,0,0,1,.32.44h0l0-.5h.44v3.06a6.35,6.35,0,0,1-.08,1.15.86.86,0,0,1-.37.57,1.5,1.5,0,0,1-.86.19C175.25,303.14,174.93,303.12,174.63,303.09Zm1.48-1.86a.55.55,0,0,0,.2-.33,4.26,4.26,0,0,0,.08-.95c0-.22,0-.4,0-.54a1.68,1.68,0,0,0-.06-.36.55.55,0,0,0-.62-.48.86.86,0,0,0-.46.09.48.48,0,0,0-.19.36,8.67,8.67,0,0,0,0,1.86.51.51,0,0,0,.19.37.86.86,0,0,0,.46.09A.71.71,0,0,0,176.11,301.23Z"/><path class="bd69b8d8-cbee-43a3-aac8-ad10a114cbe7" d="M178,301.65a.94.94,0,0,1-.3-.54,5.47,5.47,0,0,1-.09-1.15,5.55,5.55,0,0,1,.09-1.14.84.84,0,0,1,.3-.55,1.07,1.07,0,0,1,.62-.15,1,1,0,0,1,.54.11.62.62,0,0,1,.3.38h0v-2.07H180v5.2h-.44l0-.49h0a.69.69,0,0,1-.32.44,1.27,1.27,0,0,1-.54.11A1.08,1.08,0,0,1,178,301.65Zm1.22-.4a.54.54,0,0,0,.2-.32,2.37,2.37,0,0,0,.06-.41c0-.15,0-.36,0-.62a3.36,3.36,0,0,0-.07-.84.56.56,0,0,0-.2-.38.69.69,0,0,0-.43-.11.91.91,0,0,0-.46.09.52.52,0,0,0-.18.37,6.31,6.31,0,0,0,0,.93,6.51,6.51,0,0,0,0,.93.49.49,0,0,0,.19.37.86.86,0,0,0,.46.09A.71.71,0,0,0,179.26,301.25Z"/><path class="bd69b8d8-cbee-43a3-aac8-ad10a114cbe7" d="M180.93,301.58a1.2,1.2,0,0,1-.22-.82,2.05,2.05,0,0,1,.08-.63.61.61,0,0,1,.28-.33,1.28,1.28,0,0,1,.54-.09l.92,0v-.25a2.31,2.31,0,0,0-.06-.63.38.38,0,0,0-.21-.26,1.66,1.66,0,0,0-.53-.06l-.41,0-.43.05v-.41a5.06,5.06,0,0,1,1-.09,1.72,1.72,0,0,1,.73.12.64.64,0,0,1,.33.4,3,3,0,0,1,.09.84v2.26h-.44l0-.49h0a.69.69,0,0,1-.34.44,1.35,1.35,0,0,1-.55.11A1,1,0,0,1,180.93,301.58Zm1.27-.27a.41.41,0,0,0,.23-.25,2.23,2.23,0,0,0,.1-.75v-.23h-.8a.92.92,0,0,0-.33,0,.28.28,0,0,0-.15.18,1.53,1.53,0,0,0-.05.43,1.25,1.25,0,0,0,.05.4.32.32,0,0,0,.17.19,1.41,1.41,0,0,0,.78,0Z"/><path class="bd69b8d8-cbee-43a3-aac8-ad10a114cbe7" d="M185.7,299.66a4.26,4.26,0,0,0,0-.73.44.44,0,0,0-.17-.29.88.88,0,0,0-.42-.07.65.65,0,0,0-.47.15.82.82,0,0,0-.18.41,7.16,7.16,0,0,0,0,.76v1.85h-.5v-3.57h.44l0,.5h0a.79.79,0,0,1,.3-.41,1,1,0,0,1,.59-.14,1,1,0,0,1,.59.14.65.65,0,0,1,.26.42,3.41,3.41,0,0,1,.07.81v2.25h-.5Z"/><path class="f1a56346-50e0-449e-b8c1-bed0ee323417" d="M91.41,101.46V88.13h2.67V99h3.37v2.42Z"/><path class="f1a56346-50e0-449e-b8c1-bed0ee323417" d="M98.62,89.43V87.07h2.54v2.36Zm0,12V91.58h2.5v9.88Z"/><path class="f1a56346-50e0-449e-b8c1-bed0ee323417" d="M111.62,96.12a16,16,0,0,0-.06-1.7.9.9,0,0,0-.22-.6,1.1,1.1,0,0,0-.61-.13.91.91,0,0,0-.66.2,1.12,1.12,0,0,0-.24.7c0,.35,0,1,0,1.82v5h-2.5V96.12a16,16,0,0,0-.06-1.7.9.9,0,0,0-.22-.6,1.13,1.13,0,0,0-.63-.13.87.87,0,0,0-.65.2,1.23,1.23,0,0,0-.24.72q-.06.54-.06,1.8v5h-2.5V91.58h2.36l.08,1.18h.14a2,2,0,0,1,.81-1,2.56,2.56,0,0,1,1.34-.31,2.27,2.27,0,0,1,1.33.32,1.62,1.62,0,0,1,.64,1h.16a1.88,1.88,0,0,1,.81-1,2.66,2.66,0,0,1,1.36-.31,2.17,2.17,0,0,1,1.35.36,1.8,1.8,0,0,1,.64,1.08,8.64,8.64,0,0,1,.18,2v6.6h-2.5Z"/><path class="f1a56346-50e0-449e-b8c1-bed0ee323417" d="M118.48,100.3h-.16l-.08,1.16h-2.36V87.07h2.5v5.56h.14a1.92,1.92,0,0,1,2-1.2,2.16,2.16,0,0,1,1.49.47,2.78,2.78,0,0,1,.74,1.56,17.2,17.2,0,0,1,.21,3.08,16.35,16.35,0,0,1-.23,3.11,2.63,2.63,0,0,1-.77,1.53,2.27,2.27,0,0,1-1.48.44A1.86,1.86,0,0,1,118.48,100.3Zm1.65-1.09a1,1,0,0,0,.27-.7,17.79,17.79,0,0,0,.07-2,17.58,17.58,0,0,0-.07-2,1,1,0,0,0-.27-.71,1.23,1.23,0,0,0-.72-.16,1.17,1.17,0,0,0-.58.12.7.7,0,0,0-.29.43,9.81,9.81,0,0,0-.16,2.3,9.94,9.94,0,0,0,.14,2.21.72.72,0,0,0,.28.5,1,1,0,0,0,.61.14A1.16,1.16,0,0,0,120.13,99.21Z"/><path class="f1a56346-50e0-449e-b8c1-bed0ee323417" d="M124.64,100.89a3.92,3.92,0,0,1-.52-2.28,5.36,5.36,0,0,1,.23-1.79,1.65,1.65,0,0,1,.78-.95,3.26,3.26,0,0,1,1.54-.3c.47,0,1.09,0,1.86.08V95.2a3.86,3.86,0,0,0-.12-1.15.68.68,0,0,0-.47-.43,4.47,4.47,0,0,0-1.17-.1c-.54,0-1.27,0-2.17.13V91.72a14.41,14.41,0,0,1,2.93-.29,5.08,5.08,0,0,1,2.2.38,2,2,0,0,1,1,1.22,8.16,8.16,0,0,1,.27,2.39v6h-2.38l-.08-1.16h-.13a1.74,1.74,0,0,1-.82,1,2.61,2.61,0,0,1-1.26.3A2,2,0,0,1,124.64,100.89ZM128,99.37a.68.68,0,0,0,.34-.29,2.83,2.83,0,0,0,.21-1.34v-.48h-1.16a.82.82,0,0,0-.67.21,1.71,1.71,0,0,0-.16.93,1.44,1.44,0,0,0,.16.83c.11.15.36.22.75.22A1.56,1.56,0,0,0,128,99.37Z"/><path class="f1a56346-50e0-449e-b8c1-bed0ee323417" d="M91.69,124.71v-9.82h-.12l-1.91,9.82H87.2l-1.88-9.82h-.16v9.82h-2.5V111.38h4l1.75,9.23h.13l1.73-9.23h4v13.33Z"/><path class="f1a56346-50e0-449e-b8c1-bed0ee323417" d="M96.28,124.14a3.9,3.9,0,0,1-.52-2.27,5.7,5.7,0,0,1,.23-1.8,1.71,1.71,0,0,1,.79-.95,3.26,3.26,0,0,1,1.54-.3c.46,0,1.08,0,1.86.08v-.44a3.51,3.51,0,0,0-.13-1.16.66.66,0,0,0-.46-.43,4.61,4.61,0,0,0-1.18-.1c-.54,0-1.26,0-2.17.14V115a14.48,14.48,0,0,1,2.93-.29,5.1,5.1,0,0,1,2.21.38,2.07,2.07,0,0,1,1,1.23,8.09,8.09,0,0,1,.27,2.38v6h-2.39l-.07-1.16h-.14a1.77,1.77,0,0,1-.81,1,2.66,2.66,0,0,1-1.26.3A2,2,0,0,1,96.28,124.14Zm3.35-1.52a.7.7,0,0,0,.33-.29,2.65,2.65,0,0,0,.22-1.34v-.48H99a.82.82,0,0,0-.67.21,1.69,1.69,0,0,0-.17.93,1.48,1.48,0,0,0,.17.84,1,1,0,0,0,.74.21A1.62,1.62,0,0,0,99.63,122.62Z"/><path class="f1a56346-50e0-449e-b8c1-bed0ee323417" d="M105,124.71v-7.79h-1.22v-2.09H105V112h2.5v2.87h1.57v2.09h-1.57v7.79Z"/><path class="f1a56346-50e0-449e-b8c1-bed0ee323417" d="M116.94,120.55h-4.4a7.55,7.55,0,0,0,.1,1.53.72.72,0,0,0,.44.56,3.91,3.91,0,0,0,1.26.14c.49,0,1.28,0,2.36-.12v1.92a12.13,12.13,0,0,1-1.35.2,15,15,0,0,1-1.59.09,4.73,4.73,0,0,1-2.51-.51,2.33,2.33,0,0,1-1-1.53,22,22,0,0,1,0-6.06,2.46,2.46,0,0,1,1-1.56,5.63,5.63,0,0,1,4.68,0,2.16,2.16,0,0,1,.87,1.48,21.07,21.07,0,0,1,.17,3.14Zm-4-3.66a.78.78,0,0,0-.28.56,7.86,7.86,0,0,0-.08,1.41h2a8.06,8.06,0,0,0-.08-1.42.79.79,0,0,0-.27-.56,1.21,1.21,0,0,0-.66-.13A1.25,1.25,0,0,0,112.9,116.89Z"/><path class="f1a56346-50e0-449e-b8c1-bed0ee323417" d="M118.51,114.83h2.36l.08,1.63h.15a2.52,2.52,0,0,1,.84-1.4,2.49,2.49,0,0,1,1.45-.38v2.61a3.19,3.19,0,0,0-1.39.26,1.5,1.5,0,0,0-.75.89,5.18,5.18,0,0,0-.25,1.78v4.49h-2.49Z"/><path class="f1a56346-50e0-449e-b8c1-bed0ee323417" d="M129,119.37a15.91,15.91,0,0,0-.06-1.71.88.88,0,0,0-.23-.59,1.26,1.26,0,0,0-.66-.13,1,1,0,0,0-.71.2,1.16,1.16,0,0,0-.26.72q-.06.54-.06,1.8v5h-2.5v-9.88h2.37L127,116h.14a1.82,1.82,0,0,1,.83-1,2.87,2.87,0,0,1,1.36-.3,2.21,2.21,0,0,1,1.4.37,1.81,1.81,0,0,1,.64,1.11,10,10,0,0,1,.17,2.06v6.49H129Z"/><path class="f1a56346-50e0-449e-b8c1-bed0ee323417" d="M133.39,124.14a3.9,3.9,0,0,1-.53-2.27,5.39,5.39,0,0,1,.24-1.8,1.65,1.65,0,0,1,.78-.95,3.26,3.26,0,0,1,1.54-.3c.47,0,1.09,0,1.86.08v-.44a3.89,3.89,0,0,0-.12-1.16.68.68,0,0,0-.47-.43,4.57,4.57,0,0,0-1.17-.1c-.54,0-1.27,0-2.17.14V115a14.39,14.39,0,0,1,2.92-.29,5.1,5.1,0,0,1,2.21.38,2,2,0,0,1,1,1.23,8.09,8.09,0,0,1,.27,2.38v6H137.4l-.08-1.16h-.14a1.69,1.69,0,0,1-.81,1,2.61,2.61,0,0,1-1.26.3A2,2,0,0,1,133.39,124.14Zm5.45-12.39a1.52,1.52,0,0,1-.74.88,3.22,3.22,0,0,1-1.63.32,3.16,3.16,0,0,1-1.61-.32,1.52,1.52,0,0,1-.72-.88,5.13,5.13,0,0,1-.17-1.43h1.53a2.88,2.88,0,0,0,.05.67.56.56,0,0,0,.25.36,1.14,1.14,0,0,0,.67.15c.45,0,.73-.09.85-.28a1.75,1.75,0,0,0,.17-.9H139A4.71,4.71,0,0,1,138.84,111.75Zm-2.11,10.87a.72.72,0,0,0,.34-.29,2.8,2.8,0,0,0,.21-1.34v-.48h-1.16a.82.82,0,0,0-.67.21,1.71,1.71,0,0,0-.16.93,1.5,1.5,0,0,0,.16.84q.17.21.75.21A1.56,1.56,0,0,0,136.73,122.62Z"/><path class="a7588ecd-7374-495d-b514-625a50f349b7" d="M63.32,150.61V150l.77.08a6.71,6.71,0,0,0,.71,0,2.72,2.72,0,0,0,.64-.06.76.76,0,0,0,.38-.19.63.63,0,0,0,.19-.38,4.06,4.06,0,0,0,0-.67,4.58,4.58,0,0,0,0-.77.43.43,0,0,0-.18-.32,1.56,1.56,0,0,0-.52-.15l-1.16-.18a1.09,1.09,0,0,1-.63-.29,1,1,0,0,1-.27-.55,5.34,5.34,0,0,1-.07-.91,2.06,2.06,0,0,1,.44-1.48A2,2,0,0,1,65,143.7a5.79,5.79,0,0,1,1.52.16v.62a7.53,7.53,0,0,0-1.35-.12,2.53,2.53,0,0,0-.68.07.73.73,0,0,0-.55.6,4.06,4.06,0,0,0,0,.56,4.54,4.54,0,0,0,0,.66.43.43,0,0,0,.16.29,1.16,1.16,0,0,0,.4.13l1.12.18a2.13,2.13,0,0,1,.66.21.85.85,0,0,1,.37.48,5.06,5.06,0,0,1,0,2.36,1.13,1.13,0,0,1-.55.64,2.38,2.38,0,0,1-1.06.2A10.07,10.07,0,0,1,63.32,150.61Z"/><path class="a7588ecd-7374-495d-b514-625a50f349b7" d="M69.89,150.7a3.86,3.86,0,0,1-.58,0,1.83,1.83,0,0,1-1.08-.26,1.25,1.25,0,0,1-.45-.79,9.93,9.93,0,0,1-.1-1.58,7.91,7.91,0,0,1,.13-1.6,1.32,1.32,0,0,1,.46-.79,1.79,1.79,0,0,1,1-.24l.58,0a3,3,0,0,1,.48.1v.58a3.71,3.71,0,0,0-.9-.1,1.22,1.22,0,0,0-.69.15.88.88,0,0,0-.29.56,7.87,7.87,0,0,0-.08,1.3,8,8,0,0,0,.08,1.32.85.85,0,0,0,.29.56,1.28,1.28,0,0,0,.7.15,3.68,3.68,0,0,0,.92-.11v.59A2.54,2.54,0,0,1,69.89,150.7Z"/><path class="a7588ecd-7374-495d-b514-625a50f349b7" d="M71.35,145.56H72l0,.95h.06a1.28,1.28,0,0,1,.46-.81,1.48,1.48,0,0,1,.86-.22v.72a1.32,1.32,0,0,0-.81.22,1.19,1.19,0,0,0-.4.65,4.56,4.56,0,0,0-.12,1.17v2.42h-.71Z"/><path class="a7588ecd-7374-495d-b514-625a50f349b7" d="M74.18,144.06v-.83h.75v.83Zm0,6.6v-5.1h.71v5.1Z"/><path class="a7588ecd-7374-495d-b514-625a50f349b7" d="M78.76,150h-.05a1,1,0,0,1-.41.58,1.46,1.46,0,0,1-.85.21,1.49,1.49,0,0,1-.84-.2,1,1,0,0,1-.38-.61,5.47,5.47,0,0,1-.1-1.15v-3.22h.71v3a5.94,5.94,0,0,0,.07,1,.56.56,0,0,0,.24.41,1.23,1.23,0,0,0,.59.11.86.86,0,0,0,.66-.22,1,1,0,0,0,.27-.59,7.6,7.6,0,0,0,0-1.08v-2.65h.71v5.1H78.8Z"/><path class="a7588ecd-7374-495d-b514-625a50f349b7" d="M80.76,151.42a.23.23,0,0,0,.15-.18,2,2,0,0,0,0-.41v-.17h-.33v-.9h.83v.82a3,3,0,0,1-.07.78.56.56,0,0,1-.29.36,1.54,1.54,0,0,1-.66.11v-.35A.71.71,0,0,0,80.76,151.42Z"/><path class="a7588ecd-7374-495d-b514-625a50f349b7" d="M86.6,150.7a3.86,3.86,0,0,1-.58,0,1.83,1.83,0,0,1-1.08-.26,1.25,1.25,0,0,1-.45-.79,9.93,9.93,0,0,1-.1-1.58,7.91,7.91,0,0,1,.13-1.6,1.32,1.32,0,0,1,.46-.79,1.79,1.79,0,0,1,1-.24l.58,0a3,3,0,0,1,.48.1v.58a3.71,3.71,0,0,0-.9-.1,1.22,1.22,0,0,0-.69.15.88.88,0,0,0-.29.56,7.87,7.87,0,0,0-.08,1.3,8,8,0,0,0,.08,1.32.85.85,0,0,0,.29.56,1.28,1.28,0,0,0,.7.15,3.68,3.68,0,0,0,.92-.11v.59A2.54,2.54,0,0,1,86.6,150.7Z"/><path class="a7588ecd-7374-495d-b514-625a50f349b7" d="M88,144.06v-.83h.75v.83Zm0,6.6v-5.1h.71v5.1Z"/><path class="a7588ecd-7374-495d-b514-625a50f349b7" d="M90.33,150.66v-4.49h-.74v-.61h.74v-1.48H91v1.48h.88v.61H91v4.49Z"/><path class="a7588ecd-7374-495d-b514-625a50f349b7" d="M95.92,148.34H93.3a6.1,6.1,0,0,0,.08,1.16.68.68,0,0,0,.32.49,1.8,1.8,0,0,0,.82.14,7.29,7.29,0,0,0,1.26-.11v.58a4.64,4.64,0,0,1-.63.1,6.74,6.74,0,0,1-.77,0,2.24,2.24,0,0,1-1.18-.24,1.16,1.16,0,0,1-.49-.76,7.94,7.94,0,0,1-.12-1.62,10.24,10.24,0,0,1,.1-1.62,1.18,1.18,0,0,1,.47-.77,2.07,2.07,0,0,1,1.17-.25,1.89,1.89,0,0,1,1.09.24,1.12,1.12,0,0,1,.42.75,10.87,10.87,0,0,1,.08,1.64Zm-2.28-2.14a.61.61,0,0,0-.27.46,7.34,7.34,0,0,0-.07,1.15h1.94v-.12a4.71,4.71,0,0,0-.08-1.07.65.65,0,0,0-.26-.44,1.26,1.26,0,0,0-.58-.1A1.45,1.45,0,0,0,93.64,146.2Z"/><path class="a7588ecd-7374-495d-b514-625a50f349b7" d="M97.54,150.7c-.26,0-.47,0-.64-.08V150a8.2,8.2,0,0,0,1.32.11,1.19,1.19,0,0,0,.57-.1.49.49,0,0,0,.25-.28,1.59,1.59,0,0,0,.06-.49,2.25,2.25,0,0,0,0-.53.32.32,0,0,0-.13-.21,1.21,1.21,0,0,0-.33-.08l-1-.15a.85.85,0,0,1-.65-.37,2,2,0,0,1-.17-1A2,2,0,0,1,97,146a1,1,0,0,1,.53-.44,2.58,2.58,0,0,1,.86-.12,5.07,5.07,0,0,1,.66,0,3.87,3.87,0,0,1,.56.1v.58l-.56-.09-.66,0a1.11,1.11,0,0,0-.68.17.84.84,0,0,0-.21.67,2.51,2.51,0,0,0,0,.48.33.33,0,0,0,.14.22.82.82,0,0,0,.31.09l1,.13a1.28,1.28,0,0,1,.51.16.81.81,0,0,1,.27.42,2.93,2.93,0,0,1,.09.83,1.5,1.5,0,0,1-.36,1.16,1.7,1.7,0,0,1-1.17.33A6.41,6.41,0,0,1,97.54,150.7Z"/><path class="a7588ecd-7374-495d-b514-625a50f349b7" d="M102.85,150.7a3.86,3.86,0,0,1-.58,0,1.83,1.83,0,0,1-1.08-.26,1.25,1.25,0,0,1-.45-.79,9.93,9.93,0,0,1-.1-1.58,7.91,7.91,0,0,1,.13-1.6,1.32,1.32,0,0,1,.46-.79,1.79,1.79,0,0,1,1-.24l.58,0a3,3,0,0,1,.48.1v.58a3.71,3.71,0,0,0-.9-.1,1.22,1.22,0,0,0-.69.15.84.84,0,0,0-.29.56,7.87,7.87,0,0,0-.08,1.3,8,8,0,0,0,.08,1.32.85.85,0,0,0,.29.56,1.28,1.28,0,0,0,.7.15,3.68,3.68,0,0,0,.92-.11v.59A2.7,2.7,0,0,1,102.85,150.7Z"/><path class="a7588ecd-7374-495d-b514-625a50f349b7" d="M104.38,151.42a.25.25,0,0,0,.15-.18,2,2,0,0,0,0-.41v-.17h-.33v-.9h.83v.82a3,3,0,0,1-.07.78.56.56,0,0,1-.29.36,1.57,1.57,0,0,1-.66.11v-.35A.71.71,0,0,0,104.38,151.42Z"/><path class="a7588ecd-7374-495d-b514-625a50f349b7" d="M108.19,150.42a1.7,1.7,0,0,1-.31-1.16,2.74,2.74,0,0,1,.12-.91.75.75,0,0,1,.39-.46,1.76,1.76,0,0,1,.77-.14l1.32.05v-.36a3.86,3.86,0,0,0-.08-.91.54.54,0,0,0-.31-.36,2.59,2.59,0,0,0-.75-.08l-.59,0-.62.08v-.58a7,7,0,0,1,1.41-.14,2.53,2.53,0,0,1,1,.17.9.9,0,0,1,.47.58,4.06,4.06,0,0,1,.13,1.2v3.23h-.63l0-.7h0a1,1,0,0,1-.48.62,1.8,1.8,0,0,1-.79.16A1.39,1.39,0,0,1,108.19,150.42ZM110,150a.54.54,0,0,0,.33-.36,3.12,3.12,0,0,0,.15-1.07v-.33h-1.14a1.37,1.37,0,0,0-.47.06.39.39,0,0,0-.22.26,1.88,1.88,0,0,0-.07.61,1.71,1.71,0,0,0,.07.58.39.39,0,0,0,.24.26,1.46,1.46,0,0,0,.54.08A1.48,1.48,0,0,0,110,150Z"/><path class="a7588ecd-7374-495d-b514-625a50f349b7" d="M112.93,150.7c-.26,0-.47,0-.64-.08V150a8.2,8.2,0,0,0,1.32.11,1.19,1.19,0,0,0,.57-.1.49.49,0,0,0,.25-.28,1.59,1.59,0,0,0,.06-.49,2.25,2.25,0,0,0,0-.53.32.32,0,0,0-.13-.21,1.21,1.21,0,0,0-.33-.08l-1-.15a.85.85,0,0,1-.65-.37,2,2,0,0,1-.17-1,2,2,0,0,1,.19-.93,1,1,0,0,1,.53-.44,2.58,2.58,0,0,1,.86-.12,5.07,5.07,0,0,1,.66,0,3.87,3.87,0,0,1,.56.1v.58l-.56-.09-.66,0a1.11,1.11,0,0,0-.68.17.84.84,0,0,0-.21.67,2.51,2.51,0,0,0,0,.48.33.33,0,0,0,.14.22.82.82,0,0,0,.31.09l1,.13a1.28,1.28,0,0,1,.51.16.81.81,0,0,1,.27.42,2.93,2.93,0,0,1,.09.83,1.5,1.5,0,0,1-.36,1.16,1.7,1.7,0,0,1-1.17.33A6.41,6.41,0,0,1,112.93,150.7Z"/><path class="a7588ecd-7374-495d-b514-625a50f349b7" d="M118.24,150.7a3.86,3.86,0,0,1-.58,0,1.83,1.83,0,0,1-1.08-.26,1.25,1.25,0,0,1-.45-.79,9.93,9.93,0,0,1-.1-1.58,7.23,7.23,0,0,1,.13-1.6,1.32,1.32,0,0,1,.46-.79,1.79,1.79,0,0,1,1-.24l.58,0a3,3,0,0,1,.48.1v.58a3.71,3.71,0,0,0-.9-.1,1.22,1.22,0,0,0-.69.15.84.84,0,0,0-.29.56,7.87,7.87,0,0,0-.08,1.3,8,8,0,0,0,.08,1.32.85.85,0,0,0,.29.56,1.28,1.28,0,0,0,.7.15,3.68,3.68,0,0,0,.92-.11v.59A2.7,2.7,0,0,1,118.24,150.7Z"/><path class="a7588ecd-7374-495d-b514-625a50f349b7" d="M122.3,150h0a1.09,1.09,0,0,1-.41.58,1.46,1.46,0,0,1-.85.21,1.49,1.49,0,0,1-.84-.2,1,1,0,0,1-.38-.61,4.87,4.87,0,0,1-.1-1.15v-3.22h.71v3a5.08,5.08,0,0,0,.07,1,.56.56,0,0,0,.24.41,1.23,1.23,0,0,0,.59.11.86.86,0,0,0,.66-.22,1,1,0,0,0,.27-.59,9.49,9.49,0,0,0,.05-1.08v-2.65H123v5.1h-.63Z"/><path class="a7588ecd-7374-495d-b514-625a50f349b7" d="M124.23,150.66v-7.43h.71v7.43Z"/><path class="a7588ecd-7374-495d-b514-625a50f349b7" d="M126.5,150.66v-4.49h-.74v-.61h.74v-1.48h.71v1.48h.88v.61h-.88v4.49Z"/><path class="a7588ecd-7374-495d-b514-625a50f349b7" d="M129,151.42a.25.25,0,0,0,.15-.18,2,2,0,0,0,0-.41v-.17h-.33v-.9h.83v.82a3,3,0,0,1-.07.78.56.56,0,0,1-.29.36,1.57,1.57,0,0,1-.66.11v-.35A.71.71,0,0,0,129,151.42Z"/><path class="a7588ecd-7374-495d-b514-625a50f349b7" d="M133.74,150.66l-1.4-5.1h.74l1.08,4.2h.06l1.07-4.2H136l-1.4,5.1Z"/><path class="a7588ecd-7374-495d-b514-625a50f349b7" d="M137.24,150.53a1,1,0,0,1-.46-.73,13,13,0,0,1,0-3.38,1,1,0,0,1,.46-.73,2.36,2.36,0,0,1,1.16-.21,2.43,2.43,0,0,1,1.17.21,1,1,0,0,1,.45.73,14.33,14.33,0,0,1,0,3.38,1,1,0,0,1-.45.73,2.43,2.43,0,0,1-1.17.21A2.36,2.36,0,0,1,137.24,150.53Zm1.87-.54a.71.71,0,0,0,.25-.52,18.52,18.52,0,0,0,0-2.72.71.71,0,0,0-.25-.52,1.87,1.87,0,0,0-1.42,0,.71.71,0,0,0-.25.52,10.33,10.33,0,0,0-.06,1.36,10,10,0,0,0,.06,1.35.72.72,0,0,0,.25.53,1.87,1.87,0,0,0,1.42,0Z"/><path class="a7588ecd-7374-495d-b514-625a50f349b7" d="M141.22,145.56h.62l0,.95h.06a1.28,1.28,0,0,1,.46-.81,1.46,1.46,0,0,1,.86-.22v.72a1.32,1.32,0,0,0-.81.22,1.14,1.14,0,0,0-.4.65,4.56,4.56,0,0,0-.12,1.17v2.42h-.71Z"/><path class="a7588ecd-7374-495d-b514-625a50f349b7" d="M145.25,150.58a1,1,0,0,1-.46-.62h-.06l0,.7h-.62v-7.43h.71v3h.05a1,1,0,0,1,.43-.54,1.56,1.56,0,0,1,.76-.16,1.49,1.49,0,0,1,.9.22,1.23,1.23,0,0,1,.43.78,11.13,11.13,0,0,1,0,3.26,1.28,1.28,0,0,1-.44.78,1.49,1.49,0,0,1-.9.22A1.61,1.61,0,0,1,145.25,150.58Zm1.18-.61a.74.74,0,0,0,.26-.53,12.67,12.67,0,0,0,0-2.66.74.74,0,0,0-.26-.53,1.23,1.23,0,0,0-.67-.13,1,1,0,0,0-.57.14.75.75,0,0,0-.29.44,3.07,3.07,0,0,0-.09.58c0,.22,0,.5,0,.83s0,.61,0,.82a4.1,4.1,0,0,0,.09.56.77.77,0,0,0,.29.47,1.08,1.08,0,0,0,.58.14A1.23,1.23,0,0,0,146.43,150Z"/><path class="a7588ecd-7374-495d-b514-625a50f349b7" d="M151.74,148.34h-2.62a6.1,6.1,0,0,0,.08,1.16.66.66,0,0,0,.32.49,1.8,1.8,0,0,0,.82.14,7.29,7.29,0,0,0,1.26-.11v.58a4.64,4.64,0,0,1-.63.1,6.74,6.74,0,0,1-.77,0,2.24,2.24,0,0,1-1.18-.24,1.16,1.16,0,0,1-.49-.76,7.94,7.94,0,0,1-.12-1.62,10.24,10.24,0,0,1,.1-1.62,1.14,1.14,0,0,1,.47-.77,2.07,2.07,0,0,1,1.17-.25,1.89,1.89,0,0,1,1.09.24,1.12,1.12,0,0,1,.42.75,12.42,12.42,0,0,1,.08,1.64Zm-2.28-2.14a.61.61,0,0,0-.27.46,6.27,6.27,0,0,0-.07,1.15h1.94v-.12a4.71,4.71,0,0,0-.08-1.07.65.65,0,0,0-.26-.44,1.26,1.26,0,0,0-.58-.1A1.45,1.45,0,0,0,149.46,146.2Z"/><path class="a7588ecd-7374-495d-b514-625a50f349b7" d="M153.36,150.7c-.26,0-.47,0-.64-.08V150a8.2,8.2,0,0,0,1.32.11,1.21,1.21,0,0,0,.57-.1.49.49,0,0,0,.25-.28,1.59,1.59,0,0,0,.06-.49,2.25,2.25,0,0,0,0-.53.32.32,0,0,0-.13-.21,1.21,1.21,0,0,0-.33-.08l-1-.15a.83.83,0,0,1-.65-.37,2,2,0,0,1-.17-1,2,2,0,0,1,.19-.93,1,1,0,0,1,.53-.44,2.58,2.58,0,0,1,.86-.12,5.07,5.07,0,0,1,.66,0,3.87,3.87,0,0,1,.56.1v.58l-.56-.09-.66,0a1.11,1.11,0,0,0-.68.17.84.84,0,0,0-.21.67,2.51,2.51,0,0,0,0,.48.33.33,0,0,0,.14.22.77.77,0,0,0,.31.09l1,.13a1.33,1.33,0,0,1,.51.16.81.81,0,0,1,.27.42,2.93,2.93,0,0,1,.09.83,1.5,1.5,0,0,1-.36,1.16,1.7,1.7,0,0,1-1.17.33A6.41,6.41,0,0,1,153.36,150.7Z"/><path class="a7588ecd-7374-495d-b514-625a50f349b7" d="M158.67,150.7a3.86,3.86,0,0,1-.58,0,1.83,1.83,0,0,1-1.08-.26,1.25,1.25,0,0,1-.45-.79,9.93,9.93,0,0,1-.1-1.58,7.23,7.23,0,0,1,.13-1.6,1.32,1.32,0,0,1,.46-.79,1.79,1.79,0,0,1,1-.24l.58,0a3,3,0,0,1,.48.1v.58a3.76,3.76,0,0,0-.9-.1,1.22,1.22,0,0,0-.69.15.84.84,0,0,0-.29.56,7.87,7.87,0,0,0-.08,1.3,8,8,0,0,0,.08,1.32.85.85,0,0,0,.29.56,1.28,1.28,0,0,0,.7.15,3.68,3.68,0,0,0,.92-.11v.59A2.7,2.7,0,0,1,158.67,150.7Z"/><path class="a7588ecd-7374-495d-b514-625a50f349b7" d="M60.35,162.7a3.86,3.86,0,0,1-.58,0,1.83,1.83,0,0,1-1.08-.26,1.25,1.25,0,0,1-.45-.79,10.2,10.2,0,0,1-.09-1.58,8,8,0,0,1,.12-1.6,1.32,1.32,0,0,1,.46-.79,1.79,1.79,0,0,1,1-.24l.58,0a3,3,0,0,1,.48.1v.58a3.68,3.68,0,0,0-.89-.1,1.23,1.23,0,0,0-.7.15.88.88,0,0,0-.29.56,7.87,7.87,0,0,0-.08,1.3,8,8,0,0,0,.08,1.32.85.85,0,0,0,.29.56,1.28,1.28,0,0,0,.7.15,3.68,3.68,0,0,0,.92-.11v.59A2.54,2.54,0,0,1,60.35,162.7Z"/><path class="a7588ecd-7374-495d-b514-625a50f349b7" d="M62.22,162.53a1,1,0,0,1-.46-.73,13,13,0,0,1,0-3.38,1,1,0,0,1,.46-.73,2.39,2.39,0,0,1,1.16-.21,2.43,2.43,0,0,1,1.17.21,1,1,0,0,1,.45.73,14.33,14.33,0,0,1,0,3.38,1,1,0,0,1-.45.73,2.43,2.43,0,0,1-1.17.21A2.39,2.39,0,0,1,62.22,162.53Zm1.87-.54a.68.68,0,0,0,.25-.52,18.52,18.52,0,0,0,0-2.72.68.68,0,0,0-.25-.52,1.87,1.87,0,0,0-1.42,0,.75.75,0,0,0-.25.52,10.33,10.33,0,0,0-.06,1.36,10,10,0,0,0,.06,1.35.76.76,0,0,0,.25.53,1.87,1.87,0,0,0,1.42,0Z"/><path class="a7588ecd-7374-495d-b514-625a50f349b7" d="M66.2,157.56h.62l0,.95h.06a1.28,1.28,0,0,1,.46-.81,1.48,1.48,0,0,1,.86-.22v.72a1.32,1.32,0,0,0-.81.22,1.19,1.19,0,0,0-.4.65,4.56,4.56,0,0,0-.12,1.17v2.42H66.2Z"/><path class="a7588ecd-7374-495d-b514-625a50f349b7" d="M72.22,160.34H69.6a6.1,6.1,0,0,0,.08,1.16A.68.68,0,0,0,70,162a1.8,1.8,0,0,0,.82.14,7.29,7.29,0,0,0,1.26-.11v.58a4.64,4.64,0,0,1-.63.1,6.74,6.74,0,0,1-.77,0,2.26,2.26,0,0,1-1.18-.24,1.16,1.16,0,0,1-.49-.76,8.1,8.1,0,0,1-.11-1.62A10.52,10.52,0,0,1,69,158.5a1.18,1.18,0,0,1,.47-.77,2.07,2.07,0,0,1,1.17-.25,1.89,1.89,0,0,1,1.09.24,1.12,1.12,0,0,1,.42.75,10.87,10.87,0,0,1,.08,1.64Zm-2.28-2.14a.61.61,0,0,0-.27.46,7.34,7.34,0,0,0-.07,1.15h1.94v-.12a4.71,4.71,0,0,0-.08-1.07.65.65,0,0,0-.26-.44,1.23,1.23,0,0,0-.58-.1A1.45,1.45,0,0,0,69.94,158.2Z"/><path class="a7588ecd-7374-495d-b514-625a50f349b7" d="M75.38,162.7a3.86,3.86,0,0,1-.58,0,1.83,1.83,0,0,1-1.08-.26,1.25,1.25,0,0,1-.45-.79,9.93,9.93,0,0,1-.1-1.58,7.91,7.91,0,0,1,.13-1.6,1.32,1.32,0,0,1,.46-.79,1.79,1.79,0,0,1,1-.24l.58,0a3,3,0,0,1,.48.1v.58a3.71,3.71,0,0,0-.9-.1,1.22,1.22,0,0,0-.69.15.88.88,0,0,0-.29.56,7.87,7.87,0,0,0-.08,1.3,8,8,0,0,0,.08,1.32.85.85,0,0,0,.29.56,1.28,1.28,0,0,0,.7.15,3.68,3.68,0,0,0,.92-.11v.59A2.54,2.54,0,0,1,75.38,162.7Z"/><path class="a7588ecd-7374-495d-b514-625a50f349b7" d="M77.15,162.66v-4.49h-.74v-.61h.74v-1.48h.71v1.48h.88v.61h-.88v4.49Z"/><path class="a7588ecd-7374-495d-b514-625a50f349b7" d="M82,162.7c-.26,0-.47,0-.64-.08V162a8.2,8.2,0,0,0,1.32.11,1.19,1.19,0,0,0,.57-.1.49.49,0,0,0,.25-.28,1.59,1.59,0,0,0,.06-.49,2.25,2.25,0,0,0,0-.53.32.32,0,0,0-.13-.21,1.11,1.11,0,0,0-.33-.08l-1-.15a.85.85,0,0,1-.65-.37,2,2,0,0,1-.17-1,2,2,0,0,1,.19-.93,1,1,0,0,1,.53-.44,2.58,2.58,0,0,1,.86-.12,5.07,5.07,0,0,1,.66,0,3.87,3.87,0,0,1,.56.1v.58l-.56-.09q-.33,0-.66,0a1.11,1.11,0,0,0-.68.17.84.84,0,0,0-.21.67,2.51,2.51,0,0,0,0,.48.37.37,0,0,0,.14.22.82.82,0,0,0,.31.09l1,.13a1.23,1.23,0,0,1,.51.16.81.81,0,0,1,.27.42,2.93,2.93,0,0,1,.09.83,1.5,1.5,0,0,1-.36,1.16,1.7,1.7,0,0,1-1.17.33A6.41,6.41,0,0,1,82,162.7Zm.68,2.05a.75.75,0,0,0,.09-.45v-.16h-.33v-.86h.8v.78a2.49,2.49,0,0,1-.07.71.46.46,0,0,1-.27.33,1.49,1.49,0,0,1-.64.1v-.34A.57.57,0,0,0,82.68,164.75Z"/><path class="a7588ecd-7374-495d-b514-625a50f349b7" d="M85.24,156.06v-.83H86v.83Zm0,6.6v-5.1H86v5.1Z"/><path class="a7588ecd-7374-495d-b514-625a50f349b7" d="M91.19,162.7a3.86,3.86,0,0,1-.58,0,1.83,1.83,0,0,1-1.08-.26,1.25,1.25,0,0,1-.45-.79,9.93,9.93,0,0,1-.1-1.58,7.91,7.91,0,0,1,.13-1.6,1.32,1.32,0,0,1,.46-.79,1.79,1.79,0,0,1,1-.24l.58,0a3,3,0,0,1,.48.1v.58a3.71,3.71,0,0,0-.9-.1,1.22,1.22,0,0,0-.69.15.88.88,0,0,0-.29.56,7.87,7.87,0,0,0-.08,1.3,8,8,0,0,0,.08,1.32.85.85,0,0,0,.29.56,1.28,1.28,0,0,0,.7.15,3.68,3.68,0,0,0,.92-.11v.59A2.54,2.54,0,0,1,91.19,162.7Z"/><path class="a7588ecd-7374-495d-b514-625a50f349b7" d="M92.65,162.66v-7.43h.71v7.43Z"/><path class="a7588ecd-7374-495d-b514-625a50f349b7" d="M94.63,162.42a1.7,1.7,0,0,1-.31-1.16,2.74,2.74,0,0,1,.12-.91.82.82,0,0,1,.39-.46,1.76,1.76,0,0,1,.77-.14l1.32.05v-.36a3.38,3.38,0,0,0-.08-.91.54.54,0,0,0-.31-.36,2.59,2.59,0,0,0-.75-.08l-.59,0-.62.08v-.58a7,7,0,0,1,1.41-.14,2.53,2.53,0,0,1,1,.17.9.9,0,0,1,.47.58,4.06,4.06,0,0,1,.13,1.2v3.23H97l0-.7h0a1,1,0,0,1-.48.62,1.77,1.77,0,0,1-.79.16A1.39,1.39,0,0,1,94.63,162.42Zm1.81-.38a.54.54,0,0,0,.33-.36,3.12,3.12,0,0,0,.15-1.07v-.33H95.78a1.37,1.37,0,0,0-.47.06.41.41,0,0,0-.22.26,2.21,2.21,0,0,0-.07.61,2,2,0,0,0,.07.58.39.39,0,0,0,.24.26,1.46,1.46,0,0,0,.54.08A1.48,1.48,0,0,0,96.44,162Z"/><path class="a7588ecd-7374-495d-b514-625a50f349b7" d="M98.86,157.56h.62l0,.95h.06a1.28,1.28,0,0,1,.46-.81,1.48,1.48,0,0,1,.86-.22v.72a1.32,1.32,0,0,0-.81.22,1.19,1.19,0,0,0-.4.65,4.56,4.56,0,0,0-.12,1.17v2.42h-.71Z"/><path class="a7588ecd-7374-495d-b514-625a50f349b7" d="M102.83,156.61v-.06l.77-1.32h.78l.76,1.32v.06h-.5l-.65-1-.66,1Zm.8,6v-5.1h.71v5.1Z"/><path class="a7588ecd-7374-495d-b514-625a50f349b7" d="M108.18,159.68a6.29,6.29,0,0,0-.06-1,.59.59,0,0,0-.25-.42,1.22,1.22,0,0,0-.59-.1.89.89,0,0,0-.67.22,1.07,1.07,0,0,0-.26.59,9.49,9.49,0,0,0,0,1.08v2.65h-.71v-5.1h.62l0,.71h.06a1.11,1.11,0,0,1,.42-.59,1.53,1.53,0,0,1,.84-.2,1.5,1.5,0,0,1,.85.2.94.94,0,0,1,.38.6,5.71,5.71,0,0,1,.09,1.16v3.22h-.71Z"/><path class="a7588ecd-7374-495d-b514-625a50f349b7" d="M112,162.66v-7.43h.71v7.43Z"/><path class="a7588ecd-7374-495d-b514-625a50f349b7" d="M114,156.06v-.83h.75v.83Zm0,6.6v-5.1h.71v5.1Z"/><path class="a7588ecd-7374-495d-b514-625a50f349b7" d="M120.91,159.68a6.29,6.29,0,0,0-.06-1,.6.6,0,0,0-.22-.42,1,1,0,0,0-.54-.1.89.89,0,0,0-.64.2,1,1,0,0,0-.26.58,9.84,9.84,0,0,0,0,1.11v2.65h-.71v-3a6.51,6.51,0,0,0-.05-1,.6.6,0,0,0-.22-.42,1,1,0,0,0-.54-.1.87.87,0,0,0-.64.21,1.07,1.07,0,0,0-.26.59,9.69,9.69,0,0,0,0,1.09v2.65H116v-5.1h.62l0,.71h.06a1.11,1.11,0,0,1,.4-.58,1.29,1.29,0,0,1,.8-.21,1.49,1.49,0,0,1,.82.18.91.91,0,0,1,.36.61h.06a1.15,1.15,0,0,1,.41-.59,1.48,1.48,0,0,1,.82-.2,1.38,1.38,0,0,1,.81.19,1,1,0,0,1,.37.61,5.66,5.66,0,0,1,.09,1.15v3.23h-.71Z"/><path class="a7588ecd-7374-495d-b514-625a50f349b7" d="M124,162.58a1,1,0,0,1-.46-.62h-.06l0,.7h-.62v-7.43h.71v3h0a1,1,0,0,1,.43-.54,1.56,1.56,0,0,1,.76-.16,1.49,1.49,0,0,1,.9.22,1.23,1.23,0,0,1,.43.78,11.13,11.13,0,0,1,0,3.26,1.28,1.28,0,0,1-.44.78,1.49,1.49,0,0,1-.9.22A1.61,1.61,0,0,1,124,162.58Zm1.18-.61a.74.74,0,0,0,.26-.53,12.67,12.67,0,0,0,0-2.66.74.74,0,0,0-.26-.53,1.23,1.23,0,0,0-.67-.13,1,1,0,0,0-.57.14.75.75,0,0,0-.29.44,3.07,3.07,0,0,0-.09.58c0,.22,0,.5,0,.83s0,.61,0,.82a4.1,4.1,0,0,0,.09.56.77.77,0,0,0,.29.47,1.08,1.08,0,0,0,.58.14A1.23,1.23,0,0,0,125.21,162Z"/><path class="a7588ecd-7374-495d-b514-625a50f349b7" d="M127.37,162.42a1.7,1.7,0,0,1-.31-1.16,2.74,2.74,0,0,1,.12-.91.75.75,0,0,1,.39-.46,1.76,1.76,0,0,1,.77-.14l1.32.05v-.36a3.86,3.86,0,0,0-.08-.91.54.54,0,0,0-.31-.36,2.59,2.59,0,0,0-.75-.08l-.59,0-.62.08v-.58a7,7,0,0,1,1.41-.14,2.53,2.53,0,0,1,1.05.17.9.9,0,0,1,.47.58,4.06,4.06,0,0,1,.13,1.2v3.23h-.63l0-.7h0a1,1,0,0,1-.48.62,1.77,1.77,0,0,1-.79.16A1.39,1.39,0,0,1,127.37,162.42Zm1.81-.38a.54.54,0,0,0,.33-.36,3.12,3.12,0,0,0,.15-1.07v-.33h-1.14a1.37,1.37,0,0,0-.47.06.41.41,0,0,0-.22.26,2.21,2.21,0,0,0-.07.61,2,2,0,0,0,.07.58.39.39,0,0,0,.24.26,1.46,1.46,0,0,0,.54.08A1.48,1.48,0,0,0,129.18,162Z"/><path class="a7588ecd-7374-495d-b514-625a50f349b7" d="M138.47,159.68a6.29,6.29,0,0,0-.06-1,.6.6,0,0,0-.22-.42,1,1,0,0,0-.54-.1.89.89,0,0,0-.64.2,1,1,0,0,0-.26.58,9.84,9.84,0,0,0-.05,1.11v2.65H136v-3a8,8,0,0,0-.05-1,.6.6,0,0,0-.22-.42,1,1,0,0,0-.54-.1.85.85,0,0,0-.64.21,1.07,1.07,0,0,0-.26.59,9.69,9.69,0,0,0-.05,1.09v2.65h-.71v-5.1h.62l0,.71h.06a1.17,1.17,0,0,1,.4-.58,1.29,1.29,0,0,1,.8-.21,1.49,1.49,0,0,1,.82.18,1,1,0,0,1,.36.61h.06a1.15,1.15,0,0,1,.41-.59,1.48,1.48,0,0,1,.82-.2,1.38,1.38,0,0,1,.81.19,1,1,0,0,1,.37.61,5.66,5.66,0,0,1,.09,1.15v3.23h-.71Z"/><path class="a7588ecd-7374-495d-b514-625a50f349b7" d="M140.43,162.42a1.7,1.7,0,0,1-.31-1.16,2.74,2.74,0,0,1,.12-.91.82.82,0,0,1,.39-.46,1.76,1.76,0,0,1,.77-.14l1.32.05v-.36a3.38,3.38,0,0,0-.08-.91.54.54,0,0,0-.31-.36,2.59,2.59,0,0,0-.75-.08l-.59,0-.62.08v-.58a7,7,0,0,1,1.41-.14,2.53,2.53,0,0,1,1.05.17.9.9,0,0,1,.47.58,4.06,4.06,0,0,1,.13,1.2v3.23h-.63l0-.7h0a1,1,0,0,1-.48.62,1.8,1.8,0,0,1-.79.16A1.39,1.39,0,0,1,140.43,162.42Zm1.81-.38a.54.54,0,0,0,.33-.36,3.12,3.12,0,0,0,.15-1.07v-.33h-1.14a1.37,1.37,0,0,0-.47.06.39.39,0,0,0-.22.26,1.88,1.88,0,0,0-.07.61,1.71,1.71,0,0,0,.07.58.39.39,0,0,0,.24.26,1.46,1.46,0,0,0,.54.08A1.48,1.48,0,0,0,142.24,162Z"/><path class="a7588ecd-7374-495d-b514-625a50f349b7" d="M145,162.66v-4.49h-.74v-.61H145v-1.48h.71v1.48h.88v.61h-.88v4.49Z"/><path class="a7588ecd-7374-495d-b514-625a50f349b7" d="M150.56,160.34h-2.62a6.1,6.1,0,0,0,.08,1.16.66.66,0,0,0,.32.49,1.8,1.8,0,0,0,.82.14,7.29,7.29,0,0,0,1.26-.11v.58a4.64,4.64,0,0,1-.63.1,6.74,6.74,0,0,1-.77,0,2.24,2.24,0,0,1-1.18-.24,1.16,1.16,0,0,1-.49-.76,7.94,7.94,0,0,1-.12-1.62,10.24,10.24,0,0,1,.1-1.62,1.14,1.14,0,0,1,.47-.77,2.07,2.07,0,0,1,1.17-.25,1.89,1.89,0,0,1,1.09.24,1.12,1.12,0,0,1,.42.75,10.87,10.87,0,0,1,.08,1.64Zm-2.28-2.14a.61.61,0,0,0-.27.46,6.27,6.27,0,0,0-.07,1.15h1.94v-.12a4.71,4.71,0,0,0-.08-1.07.65.65,0,0,0-.26-.44,1.23,1.23,0,0,0-.58-.1A1.45,1.45,0,0,0,148.28,158.2Z"/><path class="a7588ecd-7374-495d-b514-625a50f349b7" d="M151.67,157.56h.62l0,.95h.06a1.28,1.28,0,0,1,.46-.81,1.46,1.46,0,0,1,.86-.22v.72a1.32,1.32,0,0,0-.81.22,1.19,1.19,0,0,0-.4.65,4.56,4.56,0,0,0-.12,1.17v2.42h-.71Z"/><path class="a7588ecd-7374-495d-b514-625a50f349b7" d="M157.11,159.68a6.29,6.29,0,0,0-.06-1,.62.62,0,0,0-.25-.42,1.22,1.22,0,0,0-.59-.1.89.89,0,0,0-.67.22,1.07,1.07,0,0,0-.26.59,9.49,9.49,0,0,0-.05,1.08v2.65h-.71v-5.1h.62l0,.71h.06a1.11,1.11,0,0,1,.42-.59,1.89,1.89,0,0,1,1.69,0,.94.94,0,0,1,.38.6,5.71,5.71,0,0,1,.09,1.16v3.22h-.71Z"/><path class="a7588ecd-7374-495d-b514-625a50f349b7" d="M159.07,162.42a1.7,1.7,0,0,1-.31-1.16,2.74,2.74,0,0,1,.12-.91.78.78,0,0,1,.39-.46,1.76,1.76,0,0,1,.77-.14l1.32.05v-.36a3.86,3.86,0,0,0-.08-.91.54.54,0,0,0-.31-.36,2.59,2.59,0,0,0-.75-.08l-.59,0-.62.08v-.58a7,7,0,0,1,1.41-.14,2.53,2.53,0,0,1,1.05.17.9.9,0,0,1,.47.58,4.06,4.06,0,0,1,.13,1.2v3.23h-.63l0-.7h-.05a1,1,0,0,1-.48.62,1.8,1.8,0,0,1-.79.16A1.39,1.39,0,0,1,159.07,162.42Zm2.53-6.4a.78.78,0,0,1-.31.46,1.4,1.4,0,0,1-.76.17,1.33,1.33,0,0,1-.74-.17.72.72,0,0,1-.3-.46,3.33,3.33,0,0,1-.07-.79h.5a3.78,3.78,0,0,0,0,.56.46.46,0,0,0,.16.29.68.68,0,0,0,.42.11.73.73,0,0,0,.44-.11.42.42,0,0,0,.16-.29,3.78,3.78,0,0,0,0-.56h.5A4.08,4.08,0,0,1,161.6,156Zm-.72,6a.54.54,0,0,0,.33-.36,3.12,3.12,0,0,0,.15-1.07v-.33h-1.14a1.37,1.37,0,0,0-.47.06.39.39,0,0,0-.22.26,1.88,1.88,0,0,0-.07.61,1.71,1.71,0,0,0,.07.58.39.39,0,0,0,.24.26,1.46,1.46,0,0,0,.54.08A1.48,1.48,0,0,0,160.88,162Z"/><path class="a7588ecd-7374-495d-b514-625a50f349b7" d="M163.23,162.66v-.9h.82v.9Z"/><circle class="b19ccfe7-f8f5-4f8f-a522-26f0c8cee220" cx="173.2" cy="50.55" r="13.29"/><path class="e3db14bc-e2f6-44f2-b2d6-3d55e1be9479" d="M179.31,57.46H168.2a2.77,2.77,0,0,1,0-5.53h11.11a.46.46,0,0,1,.46.46.45.45,0,0,1-.46.46H168.2a1.85,1.85,0,0,0,0,3.69h11.11a.46.46,0,0,1,.46.46.45.45,0,0,1-.46.46Z"/><path class="ffa3c5d3-67ed-4873-8a39-b698abce882b" d="M178.5,51.93H166.29a.23.23,0,1,1,0-.46H178.5a.69.69,0,0,0,.7-.69V49.39a.69.69,0,0,0-.7-.69H166.29a.23.23,0,1,1,0-.46H178.5a1.16,1.16,0,0,1,1.16,1.15v1.39a1.16,1.16,0,0,1-1.16,1.15Z"/><path class="f8f99cbc-47ad-446f-a391-582d45450262" d="M178.85,48.24H167.78a1.38,1.38,0,0,1-1.38-1.38V45a1.38,1.38,0,0,1,1.38-1.38h11.07a.46.46,0,0,1,.46.46.45.45,0,0,1-.46.46H167.78a.47.47,0,0,0-.46.46v1.85a.47.47,0,0,0,.46.46h11.07a.46.46,0,0,1,0,.92Z"/><rect class="f8f99cbc-47ad-446f-a391-582d45450262" x="167.18" y="44.98" width="11.72" height="0.42"/><rect class="f8f99cbc-47ad-446f-a391-582d45450262" x="167.18" y="45.68" width="11.72" height="0.42"/><rect class="f8f99cbc-47ad-446f-a391-582d45450262" x="167.18" y="46.47" width="11.72" height="0.42"/><rect class="ffa3c5d3-67ed-4873-8a39-b698abce882b" x="166.26" y="49.12" width="12.08" height="0.43"/><rect class="ffa3c5d3-67ed-4873-8a39-b698abce882b" x="166.26" y="49.82" width="12.08" height="0.43"/><rect class="ffa3c5d3-67ed-4873-8a39-b698abce882b" x="166.26" y="50.62" width="12.08" height="0.43"/><rect class="e3db14bc-e2f6-44f2-b2d6-3d55e1be9479" x="167.82" y="53.47" width="11.5" height="0.15"/><rect class="e3db14bc-e2f6-44f2-b2d6-3d55e1be9479" x="167.67" y="53.33" width="11.78" height="0.43"/><rect class="e3db14bc-e2f6-44f2-b2d6-3d55e1be9479" x="167.82" y="54.18" width="11.5" height="0.15"/><rect class="e3db14bc-e2f6-44f2-b2d6-3d55e1be9479" x="167.67" y="54.03" width="11.78" height="0.43"/><rect class="e3db14bc-e2f6-44f2-b2d6-3d55e1be9479" x="167.82" y="54.97" width="11.5" height="0.15"/><rect class="e3db14bc-e2f6-44f2-b2d6-3d55e1be9479" x="167.67" y="54.83" width="11.78" height="0.43"/><rect class="e3db14bc-e2f6-44f2-b2d6-3d55e1be9479" x="167.82" y="55.77" width="11.5" height="0.15"/><rect class="e3db14bc-e2f6-44f2-b2d6-3d55e1be9479" x="167.67" y="55.63" width="11.78" height="0.43"/><circle class="b19ccfe7-f8f5-4f8f-a522-26f0c8cee220" cx="50.43" cy="252.76" r="13.29"/><path class="e3db14bc-e2f6-44f2-b2d6-3d55e1be9479" d="M56.55,259.68H45.44a2.77,2.77,0,1,1,0-5.53H56.55a.46.46,0,0,1,.46.46.47.47,0,0,1-.46.46H45.44a1.85,1.85,0,0,0,0,3.69H56.55a.46.46,0,0,1,0,.92Z"/><path class="ffa3c5d3-67ed-4873-8a39-b698abce882b" d="M55.74,254.15H43.52a.23.23,0,1,1,0-.46H55.74a.69.69,0,0,0,.69-.69v-1.39a.69.69,0,0,0-.69-.69H43.52a.23.23,0,0,1,0-.46H55.74a1.15,1.15,0,0,1,1.15,1.15V253a1.15,1.15,0,0,1-1.15,1.15Z"/><path class="f8f99cbc-47ad-446f-a391-582d45450262" d="M56.09,250.46H45a1.38,1.38,0,0,1-1.38-1.38v-1.85A1.38,1.38,0,0,1,45,245.85H56.09a.46.46,0,1,1,0,.92H45a.47.47,0,0,0-.46.46v1.85a.47.47,0,0,0,.46.46H56.09a.46.46,0,0,1,.46.46.47.47,0,0,1-.46.46Z"/><rect class="f8f99cbc-47ad-446f-a391-582d45450262" x="44.42" y="247.19" width="11.72" height="0.42"/><rect class="f8f99cbc-47ad-446f-a391-582d45450262" x="44.42" y="247.9" width="11.72" height="0.42"/><rect class="f8f99cbc-47ad-446f-a391-582d45450262" x="44.42" y="248.69" width="11.72" height="0.42"/><rect class="ffa3c5d3-67ed-4873-8a39-b698abce882b" x="43.5" y="251.34" width="12.08" height="0.43"/><rect class="ffa3c5d3-67ed-4873-8a39-b698abce882b" x="43.5" y="252.04" width="12.08" height="0.43"/><rect class="ffa3c5d3-67ed-4873-8a39-b698abce882b" x="43.5" y="252.83" width="12.08" height="0.43"/><rect class="e3db14bc-e2f6-44f2-b2d6-3d55e1be9479" x="45.05" y="255.69" width="11.5" height="0.15"/><rect class="e3db14bc-e2f6-44f2-b2d6-3d55e1be9479" x="44.91" y="255.55" width="11.78" height="0.43"/><rect class="e3db14bc-e2f6-44f2-b2d6-3d55e1be9479" x="45.05" y="256.39" width="11.5" height="0.15"/><rect class="e3db14bc-e2f6-44f2-b2d6-3d55e1be9479" x="44.91" y="256.25" width="11.78" height="0.43"/><rect class="e3db14bc-e2f6-44f2-b2d6-3d55e1be9479" x="45.05" y="257.19" width="11.5" height="0.15"/><rect class="e3db14bc-e2f6-44f2-b2d6-3d55e1be9479" x="44.91" y="257.05" width="11.78" height="0.43"/><rect class="e3db14bc-e2f6-44f2-b2d6-3d55e1be9479" x="45.05" y="257.99" width="11.5" height="0.15"/><rect class="e3db14bc-e2f6-44f2-b2d6-3d55e1be9479" x="44.91" y="257.85" width="11.78" height="0.43"/><path class="eac3f4e5-4e5a-4ab3-9307-9d3d7654da3d" d="M64.62,50.43a14.09,14.09,0,1,1-14.1-14.1A14.1,14.1,0,0,1,64.62,50.43Z"/><path class="bd69b8d8-cbee-43a3-aac8-ad10a114cbe7" d="M47,50.85v5.76l2.5-.86s5.75.38,7.19-.87l3.77-4.22s2-2.39-1.07-1.13l-3.13,1.52a1.72,1.72,0,0,1-.92.09A5.6,5.6,0,0,1,51.94,50s-1.27-1.06-5,.86Z"/><path class="f9f13150-be39-4b76-85c5-9bdfd2cc88f0" d="M47,50.85v5.76l2.5-.86s5.75.38,7.19-.87l3.77-4.22s2-2.39-1.07-1.13l-3.13,1.52a1.72,1.72,0,0,1-.92.09A5.6,5.6,0,0,1,51.94,50S50.67,48.93,47,50.85Z"/><path class="bd69b8d8-cbee-43a3-aac8-ad10a114cbe7" d="M51.29,52.06s5.36,1.56,5.59.47c0,0-.2-.92-2.18-1.36Z"/><path class="f9f13150-be39-4b76-85c5-9bdfd2cc88f0" d="M51.29,52.06s5.36,1.56,5.59.47c0,0-.2-.92-2.18-1.36"/><path class="bd69b8d8-cbee-43a3-aac8-ad10a114cbe7" d="M56.89,52.38s.26.74-1.58.59c0,0-2.19-.45-2.33-.4a10.64,10.64,0,0,0,3.27.57s1.34-.34.78-1c0,0-.45-.67-.14.22Z"/><path class="f9f13150-be39-4b76-85c5-9bdfd2cc88f0" d="M56.89,52.38s.26.74-1.58.59c0,0-2.19-.45-2.33-.4a10.64,10.64,0,0,0,3.27.57s1.34-.34.78-1C57,52.16,56.58,51.49,56.89,52.38Z"/><polygon class="bd69b8d8-cbee-43a3-aac8-ad10a114cbe7" points="46.97 54.21 49.47 55.76 46.98 56.61 46.97 54.21"/><polygon class="f9f13150-be39-4b76-85c5-9bdfd2cc88f0" points="46.97 54.21 49.47 55.76 46.98 56.61 46.97 54.21"/><polygon class="bd69b8d8-cbee-43a3-aac8-ad10a114cbe7" points="46.98 50.5 46.98 49.54 43.49 49.54 43.49 50.02 43.49 57.35 46.98 57.35 46.98 50.5"/><polygon class="f9f13150-be39-4b76-85c5-9bdfd2cc88f0" points="46.98 50.5 46.98 49.54 43.49 49.54 43.49 50.02 43.49 57.35 46.98 57.35 46.98 50.5"/><rect class="bd69b8d8-cbee-43a3-aac8-ad10a114cbe7" x="41.83" y="50.02" width="1.66" height="7.32"/><rect class="f9f13150-be39-4b76-85c5-9bdfd2cc88f0" x="41.83" y="50.02" width="1.66" height="7.32"/><path class="bd69b8d8-cbee-43a3-aac8-ad10a114cbe7" d="M57.44,44.6l1-.7-.29-.68H57l-.31-.55L57,41.6l-.68-.41-.89.62-.6-.17-.29-1.08h-.87l-.29,1-.65.21-.88-.67-.68.46.38,1-.47.59-1-.08-.27.83.91.58,0,.6-.93.66h0l.27.79,1.08-.06.35.53-.35,1,.65.46,1-.61.59.26v0l.36,1h.71l.41-1,.76-.15.84.51.55-.45-.35-.94.47-.59h1.06l.25-.69-.92-.74Zm-3.37,1.58a1.37,1.37,0,1,1,1.36-1.37A1.37,1.37,0,0,1,54.07,46.18Z"/><polygon class="bd69b8d8-cbee-43a3-aac8-ad10a114cbe7" points="58.14 46.53 57.1 46.41 57.08 46.53 58.14 46.53"/><polygon class="f9f13150-be39-4b76-85c5-9bdfd2cc88f0" points="58.14 46.53 57.1 46.41 57.08 46.53 58.14 46.53"/><polygon class="bd69b8d8-cbee-43a3-aac8-ad10a114cbe7" points="56.41 48.52 55.68 47.9 55.57 48 56.41 48.52"/><polygon class="f9f13150-be39-4b76-85c5-9bdfd2cc88f0" points="56.41 48.52 55.68 47.9 55.57 48 56.41 48.52"/><polygon class="bd69b8d8-cbee-43a3-aac8-ad10a114cbe7" points="53.32 48.15 53.45 48.13 53.68 49.15 53.33 48.17 53.32 48.15"/><polyline class="f9f13150-be39-4b76-85c5-9bdfd2cc88f0" points="53.32 48.15 53.45 48.13 53.68 49.15 53.33 48.17"/><polygon class="bd69b8d8-cbee-43a3-aac8-ad10a114cbe7" points="51.47 47.05 51.59 47.12 51.12 48.04 51.47 47.05"/><polygon class="f9f13150-be39-4b76-85c5-9bdfd2cc88f0" points="51.47 47.05 51.59 47.12 51.12 48.04 51.47 47.05"/><polygon class="bd69b8d8-cbee-43a3-aac8-ad10a114cbe7" points="50.71 45.13 50.78 45.23 49.77 45.79 50.71 45.13"/><polygon class="f9f13150-be39-4b76-85c5-9bdfd2cc88f0" points="50.71 45.13 50.78 45.23 49.77 45.79 50.71 45.13"/><polygon class="bd69b8d8-cbee-43a3-aac8-ad10a114cbe7" points="43.17 50.02 43.49 51.66 43.49 50.02 43.17 50.02"/><polygon class="f9f13150-be39-4b76-85c5-9bdfd2cc88f0" points="43.17 50.02 43.49 51.66 43.49 50.02 43.17 50.02"/><polygon class="bd69b8d8-cbee-43a3-aac8-ad10a114cbe7" points="46.97 55.93 46.65 57.35 46.98 57.35 46.98 55.89 46.97 55.93"/><polyline class="f9f13150-be39-4b76-85c5-9bdfd2cc88f0" points="46.97 55.93 46.65 57.35 46.98 57.35 46.98 55.89"/><path class="abcefd70-258e-4c39-80d5-b24dc0ec4412" d="M96.68,50.43a14,14,0,1,1-4.1-9.92A14,14,0,0,1,96.68,50.43Z"/><path class="bd69b8d8-cbee-43a3-aac8-ad10a114cbe7" d="M77.08,47.75s-2-.73-.64-2.8A2.59,2.59,0,0,0,77,43s3.43,2.58,2.05,4.12l-.08.59-1.54.4Z"/><path class="f9f13150-be39-4b76-85c5-9bdfd2cc88f0" d="M77.08,47.75s-2-.73-.64-2.8A2.59,2.59,0,0,0,77,43s3.43,2.58,2.05,4.12l-.08.59-1.54.4Z"/><path class="bd69b8d8-cbee-43a3-aac8-ad10a114cbe7" d="M89.13,59.24c-.55.15-1.54-.19-6.46-3.74-2.76-2.15-6.12-5.22-5.27-7.36l1.53-.41s.21-.73,5.59,5.64L89,58.54c.21.24.42.62.11.7Z"/><path class="f9f13150-be39-4b76-85c5-9bdfd2cc88f0" d="M89.13,59.24c-.55.15-1.54-.19-6.46-3.74-2.76-2.15-6.12-5.22-5.27-7.36l1.53-.41s.21-.73,5.59,5.64L89,58.54C89.23,58.78,89.44,59.16,89.13,59.24Z"/><polygon class="bd69b8d8-cbee-43a3-aac8-ad10a114cbe7" points="77.08 47.75 79.01 47.16 78.93 47.75 77.39 48.15 77.08 47.75"/><polygon class="f9f13150-be39-4b76-85c5-9bdfd2cc88f0" points="77.08 47.75 79.01 47.16 78.93 47.75 77.39 48.15 77.08 47.75"/><path class="bd69b8d8-cbee-43a3-aac8-ad10a114cbe7" d="M76.29,45.19s-.11,1.15.62.21c0,0,.34-.85.46-.36,0,0,.71,1.13.71.18,0,0-.11-.42.07-.59,0,0,.53.45.56.17A9.69,9.69,0,0,0,77,43a2,2,0,0,1-.17,1.3Z"/><path class="f9f13150-be39-4b76-85c5-9bdfd2cc88f0" d="M76.29,45.19s-.11,1.15.62.21c0,0,.34-.85.46-.36,0,0,.71,1.13.71.18,0,0-.11-.42.07-.59,0,0,.53.45.56.17A9.69,9.69,0,0,0,77,43a2,2,0,0,1-.17,1.3Z"/><path class="bd69b8d8-cbee-43a3-aac8-ad10a114cbe7" d="M76.57,43.26s-.8.08-.6-.45c0,0,.11-.25.6.45Z"/><path class="f9f13150-be39-4b76-85c5-9bdfd2cc88f0" d="M76.57,43.26s-.8.08-.6-.45C76,42.81,76.08,42.56,76.57,43.26Z"/><path class="bd69b8d8-cbee-43a3-aac8-ad10a114cbe7" d="M76.65,42.66s-1-.65-.41-1c0,0,.55-.29.41,1Z"/><path class="f9f13150-be39-4b76-85c5-9bdfd2cc88f0" d="M76.65,42.66s-1-.65-.41-1C76.24,41.62,76.79,41.33,76.65,42.66Z"/><path class="bd69b8d8-cbee-43a3-aac8-ad10a114cbe7" d="M78.73,47.8a2.64,2.64,0,0,0-.3.1,22.24,22.24,0,0,1,2.88,1.83s-1.54-2-2.34-2Z"/><path class="f9f13150-be39-4b76-85c5-9bdfd2cc88f0" d="M78.73,47.8a2.64,2.64,0,0,0-.3.1,22.24,22.24,0,0,1,2.88,1.83s-1.54-2-2.34-2"/><path class="bd69b8d8-cbee-43a3-aac8-ad10a114cbe7" d="M77.56,49.13s.61,2,.44,1c0,0-.64-2.21-.44-1Z"/><path class="f9f13150-be39-4b76-85c5-9bdfd2cc88f0" d="M77.56,49.13s.61,2,.44,1C78,50.12,77.36,47.91,77.56,49.13Z"/><polygon class="bd69b8d8-cbee-43a3-aac8-ad10a114cbe7" points="78.47 47.33 78.54 47.85 78.93 47.75 79.01 47.16 78.47 47.33"/><polygon class="f9f13150-be39-4b76-85c5-9bdfd2cc88f0" points="78.47 47.33 78.54 47.85 78.93 47.75 79.01 47.16 78.47 47.33"/><path class="bd69b8d8-cbee-43a3-aac8-ad10a114cbe7" d="M88.12,58.12a2.54,2.54,0,0,0-1-1.38s-.43-.31.16.34c0,0,.63.75.65.83s.25.61.19.21Z"/><path class="f9f13150-be39-4b76-85c5-9bdfd2cc88f0" d="M88.12,58.12a2.54,2.54,0,0,0-1-1.38s-.43-.31.16.34c0,0,.63.75.65.83S88.18,58.52,88.12,58.12Z"/><path class="bd69b8d8-cbee-43a3-aac8-ad10a114cbe7" d="M78.62,44.89A2.22,2.22,0,0,1,79,47.16a1.31,1.31,0,0,0,.2-1.49,4.63,4.63,0,0,0-.5-.87s0,.09-.09.09Z"/><path class="f9f13150-be39-4b76-85c5-9bdfd2cc88f0" d="M78.62,44.89A2.22,2.22,0,0,1,79,47.16a1.31,1.31,0,0,0,.2-1.49,4.63,4.63,0,0,0-.5-.87S78.73,44.89,78.62,44.89Z"/><path class="bd69b8d8-cbee-43a3-aac8-ad10a114cbe7" d="M77,43l1.66,1.85s.17,0,0-.15A11.49,11.49,0,0,0,77,43Z"/><path class="f9f13150-be39-4b76-85c5-9bdfd2cc88f0" d="M77,43l1.66,1.85s.17,0,0-.15A11.49,11.49,0,0,0,77,43Z"/><path class="bd69b8d8-cbee-43a3-aac8-ad10a114cbe7" d="M77.29,44.89s0-.4-.82.88c0,0,.3,0,.51-.54a.81.81,0,0,1,.31-.34Z"/><path class="f9f13150-be39-4b76-85c5-9bdfd2cc88f0" d="M77.29,44.89s0-.4-.82.88c0,0,.3,0,.51-.54A.81.81,0,0,1,77.29,44.89Z"/><path class="bd69b8d8-cbee-43a3-aac8-ad10a114cbe7" d="M78.15,44.63s-.24-.14-.18,1c0,0,.15,0,.09-.48a.57.57,0,0,1,.09-.48Z"/><path class="f9f13150-be39-4b76-85c5-9bdfd2cc88f0" d="M78.15,44.63s-.24-.14-.18,1c0,0,.15,0,.09-.48A.57.57,0,0,1,78.15,44.63Z"/><path class="bd69b8d8-cbee-43a3-aac8-ad10a114cbe7" d="M76.32,41.6l.33,1.06s.12-.94-.2-1Z"/><path class="f9f13150-be39-4b76-85c5-9bdfd2cc88f0" d="M76.32,41.6l.33,1.06s.12-.94-.2-1Z"/><path class="bd69b8d8-cbee-43a3-aac8-ad10a114cbe7" d="M76,42.79l.58.47a4.62,4.62,0,0,0-.36-.42s-.14-.13-.22-.05Z"/><path class="f9f13150-be39-4b76-85c5-9bdfd2cc88f0" d="M76,42.79l.58.47a4.62,4.62,0,0,0-.36-.42S76.07,42.71,76,42.79Z"/><path class="bd69b8d8-cbee-43a3-aac8-ad10a114cbe7" d="M76.17,46.48s.43,1.26.48.69c0,0-.59-1.33-.48-.69Z"/><path class="f9f13150-be39-4b76-85c5-9bdfd2cc88f0" d="M76.17,46.48s.43,1.26.48.69C76.65,47.17,76.06,45.84,76.17,46.48Z"/><path class="bd69b8d8-cbee-43a3-aac8-ad10a114cbe7" d="M76.65,44.89s.52-.79.3-.69c0,0-.54.85-.3.69Z"/><path class="f9f13150-be39-4b76-85c5-9bdfd2cc88f0" d="M76.65,44.89s.52-.79.3-.69C77,44.2,76.41,45.05,76.65,44.89Z"/><path class="ffb61e4b-572d-4d46-ba43-e6081b19ec2f" d="M76,43s0,.14.08.06S76,42.87,76,43"/><path class="f9f13150-be39-4b76-85c5-9bdfd2cc88f0" d="M76,43s0,.14.08.06S76,42.87,76,43Z"/><path class="ffb61e4b-572d-4d46-ba43-e6081b19ec2f" d="M76.11,41.91s0,.14.07.07,0-.21-.07-.07"/><path class="f9f13150-be39-4b76-85c5-9bdfd2cc88f0" d="M76.11,41.91s0,.14.07.07S76.16,41.77,76.11,41.91Z"/><path class="ffb61e4b-572d-4d46-ba43-e6081b19ec2f" d="M77.28,47.82s.11.21.18.12-.17-.3-.18-.12"/><path class="f9f13150-be39-4b76-85c5-9bdfd2cc88f0" d="M77.28,47.82s.11.21.18.12S77.29,47.64,77.28,47.82Z"/></g></svg>