<svg xmlns="http://www.w3.org/2000/svg" viewBox="0 0 223.23 311.81"><defs><style>.a68f9912-1b80-48e9-9976-d414721b7ee2{fill:#2a2765;}.a844f175-6c0a-47fa-bc31-cc121e3d2b50{fill:#fff;}.a3b118ae-1ec0-4f9f-9e22-e9a49906813f{fill:#292663;}</style></defs><g id="afc840a6-fd24-4ff4-a24c-bd1e13663dc7" data-name="Layer 5"><rect class="a68f9912-1b80-48e9-9976-d414721b7ee2" width="223.23" height="23.73"/><rect class="a68f9912-1b80-48e9-9976-d414721b7ee2" y="288.08" width="223.23" height="23.73"/><rect class="a68f9912-1b80-48e9-9976-d414721b7ee2" x="-122.31" y="142.04" width="268.35" height="23.73" transform="translate(165.77 142.04) rotate(90)"/><rect class="a68f9912-1b80-48e9-9976-d414721b7ee2" x="77.19" y="144.04" width="268.35" height="23.73" transform="translate(367.27 -55.46) rotate(90)"/><path class="a844f175-6c0a-47fa-bc31-cc121e3d2b50" d="M63.61,301.8a2.88,2.88,0,0,1-.41,0,1.68,1.68,0,0,1-.92-.19,1,1,0,0,1-.4-.68,9.8,9.8,0,0,1-.1-1.59,9.66,9.66,0,0,1,.1-1.58,1,1,0,0,1,.4-.69,1.68,1.68,0,0,1,.92-.19l.41,0L64,297v.43a4.46,4.46,0,0,0-.66-.06,1.39,1.39,0,0,0-.68.12.74.74,0,0,0-.26.52,15.44,15.44,0,0,0,0,2.72.74.74,0,0,0,.26.52,1.39,1.39,0,0,0,.68.12,3.82,3.82,0,0,0,.68-.06v.44Z"/><path class="a844f175-6c0a-47fa-bc31-cc121e3d2b50" d="M64.67,301.6a1.14,1.14,0,0,1-.22-.81,2.17,2.17,0,0,1,.08-.64.51.51,0,0,1,.27-.32,1.17,1.17,0,0,1,.55-.1l.92,0v-.26a2.36,2.36,0,0,0-.06-.63.35.35,0,0,0-.22-.25,1.59,1.59,0,0,0-.52-.06l-.41,0-.44.06v-.41a4.49,4.49,0,0,1,1-.1,1.69,1.69,0,0,1,.73.12.67.67,0,0,1,.34.41,3,3,0,0,1,.09.84v2.26h-.44l0-.49h0a.64.64,0,0,1-.34.43,1.18,1.18,0,0,1-.55.11A.93.93,0,0,1,64.67,301.6Zm1.26-.26a.44.44,0,0,0,.24-.26,2.47,2.47,0,0,0,.1-.75v-.23h-.8a.87.87,0,0,0-.33,0,.28.28,0,0,0-.15.18,1.4,1.4,0,0,0,0,.42,1.37,1.37,0,0,0,0,.41.26.26,0,0,0,.17.18.91.91,0,0,0,.38.06A1.07,1.07,0,0,0,65.93,301.34Z"/><path class="a844f175-6c0a-47fa-bc31-cc121e3d2b50" d="M67.63,298.2h.43l0,.66h0a.87.87,0,0,1,.32-.56,1,1,0,0,1,.61-.16v.51a.92.92,0,0,0-.57.15.74.74,0,0,0-.28.46,2.92,2.92,0,0,0-.09.81v1.7h-.49Z"/><path class="a844f175-6c0a-47fa-bc31-cc121e3d2b50" d="M71.84,300.14H70a5.08,5.08,0,0,0,0,.82.48.48,0,0,0,.22.34,1.2,1.2,0,0,0,.58.1,5,5,0,0,0,.88-.08v.41c-.1,0-.25,0-.44.07l-.54,0a1.58,1.58,0,0,1-.82-.16.8.8,0,0,1-.34-.54,5.13,5.13,0,0,1-.09-1.13,6.23,6.23,0,0,1,.07-1.13.79.79,0,0,1,.33-.54,1.44,1.44,0,0,1,.82-.18,1.33,1.33,0,0,1,.76.17.75.75,0,0,1,.29.52,7.85,7.85,0,0,1,.06,1.15Zm-1.59-1.49a.42.42,0,0,0-.2.32,5.09,5.09,0,0,0,0,.8h1.36v-.08a3.38,3.38,0,0,0-.06-.75.48.48,0,0,0-.19-.31,1,1,0,0,0-.4-.07A.9.9,0,0,0,70.25,298.65Z"/><path class="a844f175-6c0a-47fa-bc31-cc121e3d2b50" d="M74.84,300.14H73a4,4,0,0,0,.06.82.45.45,0,0,0,.22.34,1.2,1.2,0,0,0,.58.1,5,5,0,0,0,.88-.08v.41c-.11,0-.25,0-.44.07l-.54,0a1.62,1.62,0,0,1-.83-.16.84.84,0,0,1-.34-.54,6,6,0,0,1-.08-1.13,6.23,6.23,0,0,1,.07-1.13.75.75,0,0,1,.32-.54,1.48,1.48,0,0,1,.83-.18,1.35,1.35,0,0,1,.76.17.79.79,0,0,1,.29.52,7.85,7.85,0,0,1,.06,1.15Zm-1.6-1.49a.41.41,0,0,0-.19.32,4.8,4.8,0,0,0,0,.8h1.36v-.08a4.36,4.36,0,0,0,0-.75.48.48,0,0,0-.19-.31,1,1,0,0,0-.4-.07A1,1,0,0,0,73.24,298.65Z"/><path class="a844f175-6c0a-47fa-bc31-cc121e3d2b50" d="M75.62,298.2h.43l0,.66h0a.87.87,0,0,1,.32-.56,1,1,0,0,1,.6-.16v.51a.91.91,0,0,0-.56.15.8.8,0,0,0-.29.46,3.44,3.44,0,0,0-.08.81v1.7h-.49Z"/><path class="a844f175-6c0a-47fa-bc31-cc121e3d2b50" d="M79,297h1.47a1,1,0,0,1,.85.31,1.36,1.36,0,0,1,.26.9,1.49,1.49,0,0,1-.17.77.87.87,0,0,1-.54.36v0a.83.83,0,0,1,.59.39,1.6,1.6,0,0,1,.16.79,1.53,1.53,0,0,1-.25.93,1.12,1.12,0,0,1-.93.34H79Zm1.87,1.94a1,1,0,0,0,.18-.64,1.59,1.59,0,0,0-.06-.49.41.41,0,0,0-.22-.26.89.89,0,0,0-.45-.09h-.8v1.68h.8A.68.68,0,0,0,80.87,298.89Zm.06,2.22a1.06,1.06,0,0,0,.16-.67,1.13,1.13,0,0,0-.17-.69.72.72,0,0,0-.58-.19h-.82v1.75h.82A.72.72,0,0,0,80.93,301.11Z"/><path class="a844f175-6c0a-47fa-bc31-cc121e3d2b50" d="M84.22,301.27h0a.72.72,0,0,1-.29.41,1,1,0,0,1-.59.14,1,1,0,0,1-.59-.14.71.71,0,0,1-.27-.42,4.17,4.17,0,0,1-.06-.81V298.2h.49v2.08a3.93,3.93,0,0,0,0,.73.41.41,0,0,0,.17.29.82.82,0,0,0,.41.08.61.61,0,0,0,.47-.16.68.68,0,0,0,.18-.41,4.92,4.92,0,0,0,0-.76V298.2h.5v3.57h-.44Z"/><path class="a844f175-6c0a-47fa-bc31-cc121e3d2b50" d="M85.93,301.8l-.45-.06v-.41a5.53,5.53,0,0,0,.92.07.84.84,0,0,0,.4-.07.33.33,0,0,0,.18-.19,1.53,1.53,0,0,0,0-.35,1.48,1.48,0,0,0,0-.36.24.24,0,0,0-.09-.15.54.54,0,0,0-.23-.06l-.7-.1a.6.6,0,0,1-.46-.26,1.42,1.42,0,0,1-.12-.68,1.24,1.24,0,0,1,.14-.64.68.68,0,0,1,.36-.31,1.75,1.75,0,0,1,.61-.09l.46,0a2.32,2.32,0,0,1,.39.07v.41a1.89,1.89,0,0,0-.39-.06l-.46,0a.77.77,0,0,0-.48.12.63.63,0,0,0-.14.47,2.56,2.56,0,0,0,0,.34.28.28,0,0,0,.1.15.49.49,0,0,0,.22.06l.68.09a.76.76,0,0,1,.35.12.48.48,0,0,1,.19.29,1.75,1.75,0,0,1,.07.58,1.13,1.13,0,0,1-.25.82,1.24,1.24,0,0,1-.82.22A4.52,4.52,0,0,1,85.93,301.8Z"/><path class="a844f175-6c0a-47fa-bc31-cc121e3d2b50" d="M91.12,301.77v-1.14H89.33v-.42L90.61,297h.55l-1.27,3.22h1.24l.09-1.79h.43v1.79h.5v.46h-.5v1.14Z"/><path class="a844f175-6c0a-47fa-bc31-cc121e3d2b50" d="M92.78,301.77v-.63h.57v.63Z"/><path class="a844f175-6c0a-47fa-bc31-cc121e3d2b50" d="M94.54,301.64a1,1,0,0,1-.35-.67,18.55,18.55,0,0,1,0-3.22,1,1,0,0,1,.35-.67,1.64,1.64,0,0,1,.9-.18,1.74,1.74,0,0,1,.92.18.93.93,0,0,1,.33.65,12.08,12.08,0,0,1,.07,1.63,10.17,10.17,0,0,1-.08,1.61,1,1,0,0,1-.34.67,1.69,1.69,0,0,1-.9.18A1.64,1.64,0,0,1,94.54,301.64Zm1.45-.38a.76.76,0,0,0,.2-.5,13.82,13.82,0,0,0,0-1.4,13.68,13.68,0,0,0,0-1.4.76.76,0,0,0-.2-.5,1,1,0,0,0-.55-.1,1.07,1.07,0,0,0-.56.1.7.7,0,0,0-.19.49,19.91,19.91,0,0,0,0,2.82.7.7,0,0,0,.19.49,1.07,1.07,0,0,0,.56.1A1,1,0,0,0,96,301.26Z"/><path class="a844f175-6c0a-47fa-bc31-cc121e3d2b50" d="M101.84,295.6h.28v7h-.28Z"/><path class="a844f175-6c0a-47fa-bc31-cc121e3d2b50" d="M106.49,302.33a1,1,0,0,1-.49-.72,18.1,18.1,0,0,1,0-3.8,1,1,0,0,1,.49-.72,3.39,3.39,0,0,1,1.37-.19,3.68,3.68,0,0,1,1.39.18.94.94,0,0,1,.48.72,13.37,13.37,0,0,1,.09,1.91,6.35,6.35,0,0,1-.06,1.05.59.59,0,0,1-.19.4.78.78,0,0,1-.42.08h-.74l0-.4h0a.57.57,0,0,1-.26.36.94.94,0,0,1-.43.09.71.71,0,0,1-.57-.19,1,1,0,0,1-.18-.7,1.91,1.91,0,0,1,.06-.54.53.53,0,0,1,.22-.28,1.08,1.08,0,0,1,.44-.08l.73,0v-.21a2.2,2.2,0,0,0,0-.53.28.28,0,0,0-.17-.21,1.21,1.21,0,0,0-.4-.05l-.36,0-.32,0v-.36a3.12,3.12,0,0,1,.81-.09,1.31,1.31,0,0,1,.6.11.57.57,0,0,1,.27.35,2.89,2.89,0,0,1,.07.7V301h.39a.25.25,0,0,0,.19-.06.64.64,0,0,0,.09-.32,8.56,8.56,0,0,0,0-.87c0-.72,0-1.24,0-1.54a1.44,1.44,0,0,0-.2-.67.79.79,0,0,0-.56-.28,6.58,6.58,0,0,0-.86,0c-.32,0-.58,0-.78,0a.89.89,0,0,0-.6.26,1.23,1.23,0,0,0-.22.67c0,.31,0,.83,0,1.58s0,1.3,0,1.61a1.07,1.07,0,0,0,.26.66,1.22,1.22,0,0,0,.72.24l.62,0c.48,0,.8,0,.95,0v.29h-1A3.39,3.39,0,0,1,106.49,302.33Zm1.65-1.49a.41.41,0,0,0,.17-.27,2.3,2.3,0,0,0,0-.53v-.21h-.62a.54.54,0,0,0-.25,0s-.08.07-.11.15a1.48,1.48,0,0,0,0,.36,1,1,0,0,0,0,.34.23.23,0,0,0,.12.15.69.69,0,0,0,.28,0A.68.68,0,0,0,108.14,300.84Z"/><path class="a844f175-6c0a-47fa-bc31-cc121e3d2b50" d="M111.09,301.31H113v.46h-2.41v-.56q0-.6,0-.87a.91.91,0,0,1,.14-.43,1.1,1.1,0,0,1,.41-.33c.16-.11.47-.29.91-.55a.74.74,0,0,0,.32-.31,1.5,1.5,0,0,0,.07-.54,1.63,1.63,0,0,0-.06-.52.42.42,0,0,0-.23-.24,1.57,1.57,0,0,0-.5-.06,8.83,8.83,0,0,0-1,.07V297a3.12,3.12,0,0,1,.54-.08l.61,0a1.88,1.88,0,0,1,.64.08.7.7,0,0,1,.4.34,1.65,1.65,0,0,1,.15.79,2.72,2.72,0,0,1-.06.64.88.88,0,0,1-.19.4,1.55,1.55,0,0,1-.36.28l-1,.58a.61.61,0,0,0-.23.22,1.22,1.22,0,0,0-.05.25c0,.11,0,.27,0,.48Z"/><path class="a844f175-6c0a-47fa-bc31-cc121e3d2b50" d="M114.1,301.64a1,1,0,0,1-.34-.67,16.24,16.24,0,0,1,0-3.22,1,1,0,0,1,.34-.67,1.69,1.69,0,0,1,.9-.18,1.72,1.72,0,0,1,.92.18.93.93,0,0,1,.34.65,14.09,14.09,0,0,1,.07,1.63,11.58,11.58,0,0,1-.08,1.61,1,1,0,0,1-.34.67,2.37,2.37,0,0,1-1.81,0Zm1.45-.38a.71.71,0,0,0,.2-.5,13.82,13.82,0,0,0,0-1.4,13.68,13.68,0,0,0,0-1.4.71.71,0,0,0-.2-.5,1.56,1.56,0,0,0-1.1,0,.7.7,0,0,0-.2.49c0,.26,0,.73,0,1.41s0,1.15,0,1.41a.7.7,0,0,0,.2.49,1.56,1.56,0,0,0,1.1,0Z"/><path class="a844f175-6c0a-47fa-bc31-cc121e3d2b50" d="M117.53,301.31h1.9v.46H117v-.56q0-.6,0-.87a.91.91,0,0,1,.14-.43,1.1,1.1,0,0,1,.41-.33c.16-.11.47-.29.91-.55a.74.74,0,0,0,.32-.31,1.5,1.5,0,0,0,.07-.54,1.63,1.63,0,0,0-.06-.52.41.41,0,0,0-.24-.24,1.46,1.46,0,0,0-.49-.06,8.83,8.83,0,0,0-1,.07V297a3.15,3.15,0,0,1,.53-.08l.62,0a1.92,1.92,0,0,1,.64.08.7.7,0,0,1,.4.34,1.65,1.65,0,0,1,.15.79,2.72,2.72,0,0,1-.06.64,1,1,0,0,1-.19.4,1.55,1.55,0,0,1-.36.28l-1,.58a.61.61,0,0,0-.23.22,1.22,1.22,0,0,0,0,.25c0,.11,0,.27,0,.48Z"/><path class="a844f175-6c0a-47fa-bc31-cc121e3d2b50" d="M120.62,301.77v-4.18l-.68.33v-.49l.82-.48h.38v4.82Z"/><path class="a844f175-6c0a-47fa-bc31-cc121e3d2b50" d="M123.39,301.73v-.45l.54.06.49,0a1.82,1.82,0,0,0,.45,0,.57.57,0,0,0,.27-.13.49.49,0,0,0,.13-.27,2.91,2.91,0,0,0,0-.47,3.39,3.39,0,0,0,0-.54.33.33,0,0,0-.13-.22,1.18,1.18,0,0,0-.36-.11l-.81-.12a.82.82,0,0,1-.44-.2.72.72,0,0,1-.19-.39,3.52,3.52,0,0,1,0-.64,1.39,1.39,0,0,1,.31-1,1.36,1.36,0,0,1,1-.3,4,4,0,0,1,1.06.11v.43a6,6,0,0,0-1-.08,1.86,1.86,0,0,0-.47.05.59.59,0,0,0-.27.16.52.52,0,0,0-.12.26,3.84,3.84,0,0,0,0,.39,4.48,4.48,0,0,0,0,.46.27.27,0,0,0,.12.2.6.6,0,0,0,.28.09l.78.13a1.18,1.18,0,0,1,.46.15.6.6,0,0,1,.26.33,3.69,3.69,0,0,1,0,1.66.81.81,0,0,1-.39.44,1.51,1.51,0,0,1-.73.14A7.33,7.33,0,0,1,123.39,301.73Zm1.12,1.5a.56.56,0,0,0,.06-.31v-.12h-.23v-.6h.56v.55a2,2,0,0,1-.05.5.37.37,0,0,1-.19.23,1.2,1.2,0,0,1-.45.07v-.24C124.37,303.31,124.47,303.28,124.51,303.23Z"/><path class="a844f175-6c0a-47fa-bc31-cc121e3d2b50" d="M128,301.8a2.68,2.68,0,0,1-.4,0,1.29,1.29,0,0,1-.76-.18.86.86,0,0,1-.31-.55,6.19,6.19,0,0,1-.07-1.11,5.11,5.11,0,0,1,.09-1.11,1,1,0,0,1,.32-.56,1.27,1.27,0,0,1,.72-.17l.4,0a1.31,1.31,0,0,1,.34.06v.41a2.59,2.59,0,0,0-.63-.07.81.81,0,0,0-.49.11.6.6,0,0,0-.2.39,6.28,6.28,0,0,0,0,.91,6.45,6.45,0,0,0,0,.92.57.57,0,0,0,.21.39.86.86,0,0,0,.49.11,2.55,2.55,0,0,0,.64-.08v.41A2.15,2.15,0,0,1,128,301.8Z"/><path class="a844f175-6c0a-47fa-bc31-cc121e3d2b50" d="M129.29,301.68a.75.75,0,0,1-.32-.51,6.78,6.78,0,0,1-.07-1.19,6.65,6.65,0,0,1,.07-1.18.75.75,0,0,1,.32-.51,1.68,1.68,0,0,1,.82-.15,1.61,1.61,0,0,1,.81.15.69.69,0,0,1,.32.51,6.65,6.65,0,0,1,.07,1.18,6.78,6.78,0,0,1-.07,1.19.69.69,0,0,1-.32.51,1.75,1.75,0,0,1-.81.14A1.83,1.83,0,0,1,129.29,301.68Zm1.31-.38a.49.49,0,0,0,.18-.37,8.88,8.88,0,0,0,0-.95,9.19,9.19,0,0,0,0-1,.45.45,0,0,0-.18-.36.85.85,0,0,0-.49-.1.89.89,0,0,0-.5.1.51.51,0,0,0-.18.36,9.19,9.19,0,0,0,0,1,9,9,0,0,0,0,.95.56.56,0,0,0,.18.37,1,1,0,0,0,.5.1A.94.94,0,0,0,130.6,301.3Z"/><path class="a844f175-6c0a-47fa-bc31-cc121e3d2b50" d="M132.1,301.6a1.14,1.14,0,0,1-.22-.81,2.17,2.17,0,0,1,.08-.64.51.51,0,0,1,.27-.32,1.17,1.17,0,0,1,.55-.1l.92,0v-.26a2.36,2.36,0,0,0-.06-.63.35.35,0,0,0-.22-.25,1.59,1.59,0,0,0-.52-.06l-.42,0-.43.06v-.41a4.49,4.49,0,0,1,1-.1,1.69,1.69,0,0,1,.73.12.7.7,0,0,1,.34.41,3,3,0,0,1,.09.84v2.26h-.45l0-.49h0a.64.64,0,0,1-.34.43,1.18,1.18,0,0,1-.55.11A.93.93,0,0,1,132.1,301.6Zm1.26-.26a.4.4,0,0,0,.23-.26,2.16,2.16,0,0,0,.11-.75v-.23h-.8a.87.87,0,0,0-.33,0,.28.28,0,0,0-.15.18,1.13,1.13,0,0,0,0,.42,1.11,1.11,0,0,0,0,.41.26.26,0,0,0,.17.18.89.89,0,0,0,.37.06A1.09,1.09,0,0,0,133.36,301.34Z"/><path class="a844f175-6c0a-47fa-bc31-cc121e3d2b50" d="M135.06,301.77v-5.2h.49v5.2Z"/><path class="a844f175-6c0a-47fa-bc31-cc121e3d2b50" d="M136.44,301.6a1.19,1.19,0,0,1-.21-.81,1.88,1.88,0,0,1,.08-.64.51.51,0,0,1,.27-.32,1.16,1.16,0,0,1,.54-.1l.93,0v-.26a2.36,2.36,0,0,0-.06-.63.35.35,0,0,0-.22-.25,1.59,1.59,0,0,0-.52-.06l-.42,0-.43.06v-.41a4.43,4.43,0,0,1,1-.1,1.72,1.72,0,0,1,.73.12.66.66,0,0,1,.33.41,3,3,0,0,1,.09.84v2.26h-.44l0-.49h0a.64.64,0,0,1-.34.43,1.2,1.2,0,0,1-.55.11A1,1,0,0,1,136.44,301.6Zm1.27-.26a.43.43,0,0,0,.23-.26,2.16,2.16,0,0,0,.11-.75v-.23h-.8a.87.87,0,0,0-.33,0,.26.26,0,0,0-.16.18,1.47,1.47,0,0,0,0,.42,1.44,1.44,0,0,0,0,.41.28.28,0,0,0,.17.18.94.94,0,0,0,.38.06A1.12,1.12,0,0,0,137.71,301.34Z"/><path class="a844f175-6c0a-47fa-bc31-cc121e3d2b50" d="M141,301.67a.88.88,0,0,1-.3-.54,6.39,6.39,0,0,1-.08-1.14,5.56,5.56,0,0,1,.08-1.14.91.91,0,0,1,.3-.55,1,1,0,0,1,.62-.16,1.15,1.15,0,0,1,.54.11.65.65,0,0,1,.3.38h0v-2.06h.5v5.2h-.44l0-.49h0a.64.64,0,0,1-.32.43,1.08,1.08,0,0,1-.54.11A1.13,1.13,0,0,1,141,301.67Zm1.22-.39a.48.48,0,0,0,.2-.32,2.5,2.5,0,0,0,.07-.41c0-.16,0-.36,0-.62a4,4,0,0,0-.06-.84.63.63,0,0,0-.21-.39.74.74,0,0,0-.43-.11.91.91,0,0,0-.46.09.54.54,0,0,0-.18.37,6.51,6.51,0,0,0-.05.93,6.31,6.31,0,0,0,.05.93.52.52,0,0,0,.19.37.76.76,0,0,0,.46.1A.77.77,0,0,0,142.24,301.28Z"/><path class="a844f175-6c0a-47fa-bc31-cc121e3d2b50" d="M146.12,300.14h-1.84a4,4,0,0,0,.06.82.45.45,0,0,0,.22.34,1.18,1.18,0,0,0,.58.1,5,5,0,0,0,.88-.08v.41l-.44.07-.54,0a1.62,1.62,0,0,1-.83-.16.84.84,0,0,1-.34-.54,5.27,5.27,0,0,1-.08-1.13,6.23,6.23,0,0,1,.07-1.13.75.75,0,0,1,.32-.54,1.47,1.47,0,0,1,.82-.18,1.37,1.37,0,0,1,.77.17.79.79,0,0,1,.29.52,7.85,7.85,0,0,1,.06,1.15Zm-1.6-1.49a.41.41,0,0,0-.19.32,4.8,4.8,0,0,0-.05.8h1.36v-.08a3.38,3.38,0,0,0-.06-.75.43.43,0,0,0-.18-.31,1,1,0,0,0-.4-.07A1,1,0,0,0,144.52,298.65Z"/><path class="a844f175-6c0a-47fa-bc31-cc121e3d2b50" d="M149.07,301.77l-1.2-4.82h.54l1,4.12h0l1-4.12H151l-1.19,4.82Z"/><path class="a844f175-6c0a-47fa-bc31-cc121e3d2b50" d="M151.49,301.6a1.14,1.14,0,0,1-.22-.81,2.17,2.17,0,0,1,.08-.64.51.51,0,0,1,.27-.32,1.17,1.17,0,0,1,.55-.1l.92,0v-.26a2.36,2.36,0,0,0-.06-.63.35.35,0,0,0-.22-.25,1.59,1.59,0,0,0-.52-.06l-.42,0-.43.06v-.41a4.49,4.49,0,0,1,1-.1,1.69,1.69,0,0,1,.73.12.7.7,0,0,1,.34.41,3,3,0,0,1,.09.84v2.26h-.45l0-.49h0a.64.64,0,0,1-.34.43,1.18,1.18,0,0,1-.55.11A.93.93,0,0,1,151.49,301.6Zm1.26-.26a.4.4,0,0,0,.23-.26,2.16,2.16,0,0,0,.11-.75v-.23h-.8a.87.87,0,0,0-.33,0,.29.29,0,0,0-.16.18,1.47,1.47,0,0,0,0,.42,1.44,1.44,0,0,0,0,.41.27.27,0,0,0,.18.18.89.89,0,0,0,.37.06A1.09,1.09,0,0,0,152.75,301.34Z"/><path class="a844f175-6c0a-47fa-bc31-cc121e3d2b50" d="M154.45,301.77v-5.2h.49v5.2Z"/><path class="a844f175-6c0a-47fa-bc31-cc121e3d2b50" d="M156.1,301.68a.75.75,0,0,1-.32-.51,6.78,6.78,0,0,1-.07-1.19,6.65,6.65,0,0,1,.07-1.18.75.75,0,0,1,.32-.51,1.68,1.68,0,0,1,.82-.15,1.61,1.61,0,0,1,.81.15.69.69,0,0,1,.32.51,6.65,6.65,0,0,1,.07,1.18,6.78,6.78,0,0,1-.07,1.19.69.69,0,0,1-.32.51,1.75,1.75,0,0,1-.81.14A1.83,1.83,0,0,1,156.1,301.68Zm1.31-.38a.49.49,0,0,0,.18-.37c0-.17,0-.49,0-.95s0-.77,0-1a.45.45,0,0,0-.18-.36.85.85,0,0,0-.49-.1.87.87,0,0,0-.5.1.51.51,0,0,0-.18.36,9.19,9.19,0,0,0,0,1,9,9,0,0,0,0,.95.56.56,0,0,0,.18.37,1,1,0,0,0,.5.1A.94.94,0,0,0,157.41,301.3Z"/><path class="a844f175-6c0a-47fa-bc31-cc121e3d2b50" d="M158.89,298.2h.44l0,.66h.05a.87.87,0,0,1,.31-.56,1,1,0,0,1,.61-.16v.51a1,1,0,0,0-.57.15.79.79,0,0,0-.28.46,3.44,3.44,0,0,0-.08.81v1.7h-.5Z"/><path class="a844f175-6c0a-47fa-bc31-cc121e3d2b50" d="M160.87,297.15v-.58h.53v.58Zm0,4.62V298.2h.49v3.57Z"/><path class="a3b118ae-1ec0-4f9f-9e22-e9a49906813f" d="M111.14,204.15A48.19,48.19,0,1,0,63,156a48.18,48.18,0,0,0,48.18,48.19"/><path class="a844f175-6c0a-47fa-bc31-cc121e3d2b50" d="M86.1,163l-.73-3.43H81.5L80.79,163H78.27l3.38-15.13h3.63L88.67,163Zm-2.6-12.65h-.13l-1.41,7h2.93Z"/><path class="a844f175-6c0a-47fa-bc31-cc121e3d2b50" d="M92.5,161.58h-.16L92.26,163H90.08V146.62h2.37V153h.14A2.25,2.25,0,0,1,95,151.57a2.58,2.58,0,0,1,1.75.53,3.2,3.2,0,0,1,.86,1.78,18.3,18.3,0,0,1,.25,3.49,18.71,18.71,0,0,1-.26,3.55,2.94,2.94,0,0,1-.88,1.72,2.75,2.75,0,0,1-1.76.5A2.21,2.21,0,0,1,92.5,161.58Zm2.45-.85a1.31,1.31,0,0,0,.4-.9,30.55,30.55,0,0,0,0-4.94A1.34,1.34,0,0,0,95,154a2,2,0,0,0-1-.2,1.65,1.65,0,0,0-.82.16,1.09,1.09,0,0,0-.44.61,12.5,12.5,0,0,0-.2,2.81,14.22,14.22,0,0,0,.16,2.66,1.15,1.15,0,0,0,.43.73,1.58,1.58,0,0,0,.87.2A1.9,1.9,0,0,0,95,160.73Z"/><path class="a844f175-6c0a-47fa-bc31-cc121e3d2b50" d="M99.85,149v-2.42h2.42V149Zm0,13.92V151.74h2.37V163Z"/><path class="a844f175-6c0a-47fa-bc31-cc121e3d2b50" d="M104.58,163V146.62H107V163Z"/><path class="a844f175-6c0a-47fa-bc31-cc121e3d2b50" d="M109.26,149v-2.42h2.42V149Zm0,13.92V151.74h2.38V163Z"/><path class="a844f175-6c0a-47fa-bc31-cc121e3d2b50" d="M114.65,163v-9.17h-1.47v-2h1.47v-3.25H117v3.25h1.8v2H117V163Z"/><path class="a844f175-6c0a-47fa-bc31-cc121e3d2b50" d="M120.47,162.35a4.29,4.29,0,0,1-.6-2.56,6.24,6.24,0,0,1,.26-2,1.91,1.91,0,0,1,.87-1.08,3.52,3.52,0,0,1,1.68-.33c.56,0,1.34,0,2.33.09v-.55a5.1,5.1,0,0,0-.16-1.54.9.9,0,0,0-.57-.6,5.28,5.28,0,0,0-1.36-.13,23.66,23.66,0,0,0-2.53.18v-1.87a14.13,14.13,0,0,1,3.22-.35A5.44,5.44,0,0,1,126,152a2.16,2.16,0,0,1,1.1,1.36,9.15,9.15,0,0,1,.3,2.67v7h-2.2l-.09-1.38H125a2.34,2.34,0,0,1-2.51,1.56A2.38,2.38,0,0,1,120.47,162.35Zm3.73-1.46a1,1,0,0,0,.51-.35,3.64,3.64,0,0,0,.3-1.85v-.59h-1.65a1.78,1.78,0,0,0-.71.11.66.66,0,0,0-.33.42,3.14,3.14,0,0,0-.1.94,1.86,1.86,0,0,0,.24,1.14,1.43,1.43,0,0,0,1,.27A2.33,2.33,0,0,0,124.2,160.89Z"/><path class="a844f175-6c0a-47fa-bc31-cc121e3d2b50" d="M130.34,163v-9.17h-1.48v-2h1.48v-3.25h2.37v3.25h1.81v2h-1.81V163Z"/><path class="a844f175-6c0a-47fa-bc31-cc121e3d2b50" d="M143.36,158.17h-5.21a10,10,0,0,0,.13,2,1,1,0,0,0,.57.75,4.58,4.58,0,0,0,1.54.18c.71,0,1.61-.06,2.71-.17v1.87a10.49,10.49,0,0,1-1.47.25c-.6.06-1.19.1-1.77.1a5.15,5.15,0,0,1-2.71-.56,2.59,2.59,0,0,1-1.12-1.72,17.44,17.44,0,0,1-.26-3.49,18.57,18.57,0,0,1,.24-3.47,2.68,2.68,0,0,1,1.08-1.75,4.64,4.64,0,0,1,2.62-.58,4.31,4.31,0,0,1,2.52.56,2.44,2.44,0,0,1,.94,1.67,23,23,0,0,1,.19,3.55Zm-4.68-4.36a1,1,0,0,0-.41.75,11.84,11.84,0,0,0-.12,1.85h2.95v0a11.17,11.17,0,0,0-.11-1.84,1.09,1.09,0,0,0-.4-.75,1.79,1.79,0,0,0-.92-.18A1.88,1.88,0,0,0,138.68,153.81Z"/></g></svg>