<svg xmlns="http://www.w3.org/2000/svg" viewBox="0 0 223.23 311.81"><defs><style>.f3090045-520b-49fb-a268-1052e091b226{fill:#fedd00;}.b51c5b10-59f8-49a4-8a9b-f50ebdbf9ea4{fill:#4e4e4f;}.a23f6c48-5e2c-4861-85ea-b503f1931f9c{fill:#fddb00;}.ad64e3b0-48a5-4ae3-8fa3-6fc0790905e2{fill:#4d4e4f;}</style></defs><g id="e1754e20-ab29-4ac6-b500-7ef3e2568a17" data-name="Layer 5"><rect class="f3090045-520b-49fb-a268-1052e091b226" y="288.08" width="223.23" height="23.73"/><rect class="f3090045-520b-49fb-a268-1052e091b226" width="223.23" height="23.73"/><rect class="f3090045-520b-49fb-a268-1052e091b226" x="-122.31" y="142.04" width="268.35" height="23.73" transform="translate(165.77 142.04) rotate(90)"/><rect class="f3090045-520b-49fb-a268-1052e091b226" x="77.19" y="144.04" width="268.35" height="23.73" transform="translate(367.27 -55.46) rotate(90)"/><path class="b51c5b10-59f8-49a4-8a9b-f50ebdbf9ea4" d="M63.61,301.8a2.88,2.88,0,0,1-.41,0,1.68,1.68,0,0,1-.92-.19,1,1,0,0,1-.4-.68,9.8,9.8,0,0,1-.1-1.59,9.66,9.66,0,0,1,.1-1.58,1,1,0,0,1,.4-.69,1.68,1.68,0,0,1,.92-.19l.41,0L64,297v.43a4.46,4.46,0,0,0-.66-.06,1.39,1.39,0,0,0-.68.12.74.74,0,0,0-.26.52,15.44,15.44,0,0,0,0,2.72.74.74,0,0,0,.26.52,1.39,1.39,0,0,0,.68.12,3.82,3.82,0,0,0,.68-.06v.44Z"/><path class="b51c5b10-59f8-49a4-8a9b-f50ebdbf9ea4" d="M64.67,301.6a1.14,1.14,0,0,1-.22-.81,2.17,2.17,0,0,1,.08-.64.51.51,0,0,1,.27-.32,1.17,1.17,0,0,1,.55-.1l.92,0v-.26a2.36,2.36,0,0,0-.06-.63.35.35,0,0,0-.22-.25,1.59,1.59,0,0,0-.52-.06l-.41,0-.44.06v-.41a4.49,4.49,0,0,1,1-.1,1.69,1.69,0,0,1,.73.12.7.7,0,0,1,.34.41,3,3,0,0,1,.09.84v2.26h-.44l0-.49h0a.64.64,0,0,1-.34.43,1.18,1.18,0,0,1-.55.11A.93.93,0,0,1,64.67,301.6Zm1.26-.26a.4.4,0,0,0,.23-.26,2.16,2.16,0,0,0,.11-.75v-.23h-.8a.87.87,0,0,0-.33,0,.32.32,0,0,0-.16.18,1.47,1.47,0,0,0,0,.42,1.44,1.44,0,0,0,0,.41.29.29,0,0,0,.18.18.89.89,0,0,0,.37.06A1.09,1.09,0,0,0,65.93,301.34Z"/><path class="b51c5b10-59f8-49a4-8a9b-f50ebdbf9ea4" d="M67.63,298.2h.43l0,.66h0a.87.87,0,0,1,.32-.56,1,1,0,0,1,.61-.16v.51a.92.92,0,0,0-.57.15.74.74,0,0,0-.28.46,2.92,2.92,0,0,0-.09.81v1.7h-.49Z"/><path class="b51c5b10-59f8-49a4-8a9b-f50ebdbf9ea4" d="M71.84,300.14H70a4.13,4.13,0,0,0,0,.82.48.48,0,0,0,.22.34,1.2,1.2,0,0,0,.58.1,5,5,0,0,0,.88-.08v.41c-.1,0-.25,0-.44.07l-.54,0a1.58,1.58,0,0,1-.82-.16.8.8,0,0,1-.34-.54,5.13,5.13,0,0,1-.09-1.13,6.23,6.23,0,0,1,.07-1.13.79.79,0,0,1,.33-.54,1.44,1.44,0,0,1,.82-.18,1.33,1.33,0,0,1,.76.17.75.75,0,0,1,.29.52,7.85,7.85,0,0,1,.06,1.15Zm-1.59-1.49a.42.42,0,0,0-.2.32,5.09,5.09,0,0,0,0,.8h1.36v-.08a3.38,3.38,0,0,0-.06-.75.48.48,0,0,0-.19-.31,1,1,0,0,0-.4-.07A.9.9,0,0,0,70.25,298.65Z"/><path class="b51c5b10-59f8-49a4-8a9b-f50ebdbf9ea4" d="M74.84,300.14H73a4,4,0,0,0,.06.82.45.45,0,0,0,.22.34,1.18,1.18,0,0,0,.58.1,5,5,0,0,0,.88-.08v.41c-.11,0-.25,0-.44.07l-.54,0a1.62,1.62,0,0,1-.83-.16.84.84,0,0,1-.34-.54,5.27,5.27,0,0,1-.08-1.13,6.23,6.23,0,0,1,.07-1.13.75.75,0,0,1,.32-.54,1.48,1.48,0,0,1,.83-.18,1.35,1.35,0,0,1,.76.17.79.79,0,0,1,.29.52,7.85,7.85,0,0,1,.06,1.15Zm-1.6-1.49a.41.41,0,0,0-.19.32,4.8,4.8,0,0,0,0,.8h1.36v-.08a4.36,4.36,0,0,0,0-.75.48.48,0,0,0-.19-.31,1,1,0,0,0-.4-.07A1,1,0,0,0,73.24,298.65Z"/><path class="b51c5b10-59f8-49a4-8a9b-f50ebdbf9ea4" d="M75.61,298.2h.44l0,.66h0a.87.87,0,0,1,.32-.56,1,1,0,0,1,.6-.16v.51a.91.91,0,0,0-.56.15.8.8,0,0,0-.29.46,3.44,3.44,0,0,0-.08.81v1.7h-.5Z"/><path class="b51c5b10-59f8-49a4-8a9b-f50ebdbf9ea4" d="M79,297h1.47a1,1,0,0,1,.85.31,1.36,1.36,0,0,1,.26.9,1.49,1.49,0,0,1-.17.77.87.87,0,0,1-.55.36v0a.83.83,0,0,1,.6.39,1.6,1.6,0,0,1,.16.79,1.53,1.53,0,0,1-.25.93,1.12,1.12,0,0,1-.93.34H79Zm1.87,1.94a1,1,0,0,0,.18-.64,1.59,1.59,0,0,0-.06-.49.41.41,0,0,0-.22-.26.89.89,0,0,0-.45-.09h-.8v1.68h.8A.68.68,0,0,0,80.87,298.89Zm.06,2.22a1.06,1.06,0,0,0,.16-.67,1.13,1.13,0,0,0-.17-.69.72.72,0,0,0-.58-.19h-.82v1.75h.82A.72.72,0,0,0,80.93,301.11Z"/><path class="b51c5b10-59f8-49a4-8a9b-f50ebdbf9ea4" d="M84.22,301.27h0a.72.72,0,0,1-.29.41,1,1,0,0,1-.59.14,1,1,0,0,1-.59-.14.71.71,0,0,1-.27-.42,4.17,4.17,0,0,1-.06-.81V298.2h.49v2.08a3.93,3.93,0,0,0,0,.73.41.41,0,0,0,.17.29.82.82,0,0,0,.41.08.61.61,0,0,0,.47-.16.68.68,0,0,0,.18-.41,4.92,4.92,0,0,0,0-.76V298.2h.5v3.57h-.44Z"/><path class="b51c5b10-59f8-49a4-8a9b-f50ebdbf9ea4" d="M85.93,301.8l-.45-.06v-.41a5.53,5.53,0,0,0,.92.07.84.84,0,0,0,.4-.07.33.33,0,0,0,.18-.19,1.53,1.53,0,0,0,0-.35,1.48,1.48,0,0,0,0-.36.21.21,0,0,0-.1-.15.49.49,0,0,0-.22-.06l-.7-.1a.6.6,0,0,1-.46-.26,1.42,1.42,0,0,1-.12-.68,1.24,1.24,0,0,1,.14-.64.68.68,0,0,1,.36-.31,1.75,1.75,0,0,1,.61-.09l.46,0a2.32,2.32,0,0,1,.39.07v.41a1.89,1.89,0,0,0-.39-.06l-.46,0a.77.77,0,0,0-.48.12.63.63,0,0,0-.14.47,2.56,2.56,0,0,0,0,.34.24.24,0,0,0,.1.15.49.49,0,0,0,.22.06l.68.09a.76.76,0,0,1,.35.12.48.48,0,0,1,.19.29,1.75,1.75,0,0,1,.07.58,1.13,1.13,0,0,1-.25.82,1.24,1.24,0,0,1-.82.22A4.52,4.52,0,0,1,85.93,301.8Z"/><path class="b51c5b10-59f8-49a4-8a9b-f50ebdbf9ea4" d="M91.12,301.77v-1.14H89.33v-.42L90.61,297h.55l-1.27,3.22h1.24l.09-1.79h.42v1.79h.51v.46h-.51v1.14Z"/><path class="b51c5b10-59f8-49a4-8a9b-f50ebdbf9ea4" d="M92.78,301.77v-.63h.57v.63Z"/><path class="b51c5b10-59f8-49a4-8a9b-f50ebdbf9ea4" d="M94.54,301.64a1,1,0,0,1-.35-.67,18.55,18.55,0,0,1,0-3.22,1,1,0,0,1,.35-.67,1.64,1.64,0,0,1,.9-.18,1.68,1.68,0,0,1,.91.18.93.93,0,0,1,.34.65,12.08,12.08,0,0,1,.07,1.63,10.17,10.17,0,0,1-.08,1.61,1,1,0,0,1-.34.67,1.69,1.69,0,0,1-.9.18A1.64,1.64,0,0,1,94.54,301.64Zm1.45-.38a.76.76,0,0,0,.2-.5,13.82,13.82,0,0,0,0-1.4,13.68,13.68,0,0,0,0-1.4.76.76,0,0,0-.2-.5,1,1,0,0,0-.55-.1,1.07,1.07,0,0,0-.56.1.7.7,0,0,0-.19.49,19.91,19.91,0,0,0,0,2.82.7.7,0,0,0,.19.49,1.07,1.07,0,0,0,.56.1A1,1,0,0,0,96,301.26Z"/><path class="b51c5b10-59f8-49a4-8a9b-f50ebdbf9ea4" d="M101.84,295.6h.28v7h-.28Z"/><path class="b51c5b10-59f8-49a4-8a9b-f50ebdbf9ea4" d="M106.49,302.33a1,1,0,0,1-.49-.72,18.1,18.1,0,0,1,0-3.8,1,1,0,0,1,.49-.72,3.39,3.39,0,0,1,1.37-.19,3.68,3.68,0,0,1,1.39.18.94.94,0,0,1,.48.72,13.37,13.37,0,0,1,.09,1.91,6.35,6.35,0,0,1-.06,1.05.59.59,0,0,1-.19.4.78.78,0,0,1-.42.08h-.74l0-.4h0a.57.57,0,0,1-.26.36.94.94,0,0,1-.43.09.71.71,0,0,1-.57-.19,1,1,0,0,1-.18-.7,1.91,1.91,0,0,1,.06-.54.53.53,0,0,1,.22-.28,1.08,1.08,0,0,1,.44-.08l.73,0v-.21a2.2,2.2,0,0,0,0-.53.28.28,0,0,0-.17-.21,1.21,1.21,0,0,0-.4-.05l-.36,0-.33,0v-.36a3.26,3.26,0,0,1,.82-.09,1.31,1.31,0,0,1,.6.11.57.57,0,0,1,.27.35,3,3,0,0,1,.06.7V301h.4a.25.25,0,0,0,.19-.06.64.64,0,0,0,.09-.32,8.56,8.56,0,0,0,0-.87c0-.72,0-1.24,0-1.54a1.44,1.44,0,0,0-.2-.67.79.79,0,0,0-.56-.28,6.58,6.58,0,0,0-.86,0c-.32,0-.58,0-.78,0a.89.89,0,0,0-.6.26,1.23,1.23,0,0,0-.22.67c0,.31,0,.83,0,1.58s0,1.3,0,1.61a1.07,1.07,0,0,0,.26.66,1.22,1.22,0,0,0,.72.24l.62,0c.48,0,.8,0,.94,0v.29h-1A3.39,3.39,0,0,1,106.49,302.33Zm1.65-1.49a.41.41,0,0,0,.17-.27,2.3,2.3,0,0,0,0-.53v-.21h-.62a.54.54,0,0,0-.25,0,.2.2,0,0,0-.11.15,1.48,1.48,0,0,0,0,.36,1,1,0,0,0,0,.34.23.23,0,0,0,.12.15.69.69,0,0,0,.28,0A.68.68,0,0,0,108.14,300.84Z"/><path class="b51c5b10-59f8-49a4-8a9b-f50ebdbf9ea4" d="M111.09,301.31H113v.46h-2.41v-.56q0-.6,0-.87a.91.91,0,0,1,.14-.43,1.1,1.1,0,0,1,.41-.33c.16-.11.47-.29.91-.55a.74.74,0,0,0,.32-.31,1.5,1.5,0,0,0,.07-.54,1.63,1.63,0,0,0-.06-.52.41.41,0,0,0-.24-.24,1.46,1.46,0,0,0-.49-.06,8.83,8.83,0,0,0-1,.07V297a3.15,3.15,0,0,1,.53-.08l.62,0a1.92,1.92,0,0,1,.64.08.7.7,0,0,1,.4.34,1.65,1.65,0,0,1,.15.79,2.72,2.72,0,0,1-.06.64,1,1,0,0,1-.19.4,1.55,1.55,0,0,1-.36.28l-1,.58a.61.61,0,0,0-.23.22,1.22,1.22,0,0,0-.05.25c0,.11,0,.27,0,.48Z"/><path class="b51c5b10-59f8-49a4-8a9b-f50ebdbf9ea4" d="M114.1,301.64a1,1,0,0,1-.34-.67,16.24,16.24,0,0,1,0-3.22,1,1,0,0,1,.34-.67,1.69,1.69,0,0,1,.9-.18,1.72,1.72,0,0,1,.92.18.93.93,0,0,1,.34.65,14.09,14.09,0,0,1,.07,1.63,11.58,11.58,0,0,1-.08,1.61,1,1,0,0,1-.34.67,2.37,2.37,0,0,1-1.81,0Zm1.45-.38a.71.71,0,0,0,.2-.5,13.82,13.82,0,0,0,0-1.4,13.68,13.68,0,0,0,0-1.4.71.71,0,0,0-.2-.5,1.56,1.56,0,0,0-1.1,0,.7.7,0,0,0-.2.49,19.91,19.91,0,0,0,0,2.82.7.7,0,0,0,.2.49,1.56,1.56,0,0,0,1.1,0Z"/><path class="b51c5b10-59f8-49a4-8a9b-f50ebdbf9ea4" d="M117.53,301.31h1.9v.46H117v-.56q0-.6,0-.87a.91.91,0,0,1,.14-.43,1.1,1.1,0,0,1,.41-.33c.16-.11.47-.29.91-.55a.74.74,0,0,0,.32-.31,1.5,1.5,0,0,0,.07-.54,1.63,1.63,0,0,0-.06-.52.41.41,0,0,0-.24-.24,1.5,1.5,0,0,0-.49-.06,8.83,8.83,0,0,0-1,.07V297a3.15,3.15,0,0,1,.53-.08l.62,0a1.88,1.88,0,0,1,.64.08.7.7,0,0,1,.4.34,1.65,1.65,0,0,1,.15.79,2.72,2.72,0,0,1-.06.64.88.88,0,0,1-.19.4,1.55,1.55,0,0,1-.36.28l-1,.58a.54.54,0,0,0-.23.22.79.79,0,0,0,0,.25c0,.11,0,.27,0,.48Z"/><path class="b51c5b10-59f8-49a4-8a9b-f50ebdbf9ea4" d="M120.62,301.77v-4.18l-.68.33v-.49l.82-.48h.38v4.82Z"/><path class="b51c5b10-59f8-49a4-8a9b-f50ebdbf9ea4" d="M123.39,301.73v-.45l.54.06.49,0a1.82,1.82,0,0,0,.45,0,.57.57,0,0,0,.27-.13.49.49,0,0,0,.13-.27,2.91,2.91,0,0,0,0-.47,3.39,3.39,0,0,0,0-.54.33.33,0,0,0-.13-.22,1.18,1.18,0,0,0-.36-.11l-.81-.12a.82.82,0,0,1-.44-.2.72.72,0,0,1-.19-.39,3.52,3.52,0,0,1,0-.64,1.39,1.39,0,0,1,.31-1,1.36,1.36,0,0,1,1-.3,4,4,0,0,1,1.06.11v.43a6,6,0,0,0-1-.08,1.92,1.92,0,0,0-.47.05.59.59,0,0,0-.27.16.52.52,0,0,0-.12.26,2.18,2.18,0,0,0,0,.39,2.7,2.7,0,0,0,0,.46.27.27,0,0,0,.12.2.6.6,0,0,0,.28.09l.78.13a1.18,1.18,0,0,1,.46.15.6.6,0,0,1,.26.33,3.69,3.69,0,0,1,0,1.66.81.81,0,0,1-.39.44,1.51,1.51,0,0,1-.73.14A7.33,7.33,0,0,1,123.39,301.73Zm1.12,1.5a.56.56,0,0,0,.06-.31v-.12h-.23v-.6h.56v.55a2,2,0,0,1-.05.5.37.37,0,0,1-.19.23,1.2,1.2,0,0,1-.45.07v-.24C124.37,303.31,124.47,303.28,124.51,303.23Z"/><path class="b51c5b10-59f8-49a4-8a9b-f50ebdbf9ea4" d="M128,301.8a2.68,2.68,0,0,1-.4,0,1.29,1.29,0,0,1-.76-.18.86.86,0,0,1-.31-.55,6.19,6.19,0,0,1-.07-1.11,5.11,5.11,0,0,1,.09-1.11.91.91,0,0,1,.32-.56,1.27,1.27,0,0,1,.72-.17l.4,0a1.31,1.31,0,0,1,.34.06v.41a2.59,2.59,0,0,0-.63-.07.81.81,0,0,0-.49.11.56.56,0,0,0-.2.39,5.09,5.09,0,0,0,0,.91,5.22,5.22,0,0,0,0,.92.53.53,0,0,0,.21.39.86.86,0,0,0,.49.11,2.55,2.55,0,0,0,.64-.08v.41A2.15,2.15,0,0,1,128,301.8Z"/><path class="b51c5b10-59f8-49a4-8a9b-f50ebdbf9ea4" d="M129.29,301.68a.75.75,0,0,1-.32-.51,6.78,6.78,0,0,1-.07-1.19,6.65,6.65,0,0,1,.07-1.18.75.75,0,0,1,.32-.51,1.68,1.68,0,0,1,.82-.15,1.61,1.61,0,0,1,.81.15.69.69,0,0,1,.32.51,6.65,6.65,0,0,1,.07,1.18,6.78,6.78,0,0,1-.07,1.19.69.69,0,0,1-.32.51,1.75,1.75,0,0,1-.81.14A1.83,1.83,0,0,1,129.29,301.68Zm1.31-.38a.49.49,0,0,0,.18-.37,8.88,8.88,0,0,0,0-.95,9.19,9.19,0,0,0,0-1,.45.45,0,0,0-.18-.36.85.85,0,0,0-.49-.1.87.87,0,0,0-.5.1.51.51,0,0,0-.18.36,9.19,9.19,0,0,0,0,1,9,9,0,0,0,0,.95.56.56,0,0,0,.18.37,1,1,0,0,0,.5.1A.94.94,0,0,0,130.6,301.3Z"/><path class="b51c5b10-59f8-49a4-8a9b-f50ebdbf9ea4" d="M132.1,301.6a1.14,1.14,0,0,1-.22-.81,2.17,2.17,0,0,1,.08-.64.51.51,0,0,1,.27-.32,1.16,1.16,0,0,1,.54-.1l.93,0v-.26a2.36,2.36,0,0,0-.06-.63.35.35,0,0,0-.22-.25,1.59,1.59,0,0,0-.52-.06l-.42,0-.43.06v-.41a4.49,4.49,0,0,1,1-.1,1.69,1.69,0,0,1,.73.12.66.66,0,0,1,.33.41,2.59,2.59,0,0,1,.1.84v2.26h-.44l0-.49h0a.64.64,0,0,1-.34.43,1.18,1.18,0,0,1-.55.11A.93.93,0,0,1,132.1,301.6Zm1.26-.26a.4.4,0,0,0,.23-.26,2.16,2.16,0,0,0,.11-.75v-.23h-.8a.87.87,0,0,0-.33,0,.29.29,0,0,0-.16.18,1.47,1.47,0,0,0,0,.42,1.44,1.44,0,0,0,0,.41.27.27,0,0,0,.18.18.89.89,0,0,0,.37.06A1.09,1.09,0,0,0,133.36,301.34Z"/><path class="b51c5b10-59f8-49a4-8a9b-f50ebdbf9ea4" d="M135.06,301.77v-5.2h.49v5.2Z"/><path class="b51c5b10-59f8-49a4-8a9b-f50ebdbf9ea4" d="M136.44,301.6a1.19,1.19,0,0,1-.21-.81,1.88,1.88,0,0,1,.08-.64.51.51,0,0,1,.27-.32,1.16,1.16,0,0,1,.54-.1l.93,0v-.26a2.36,2.36,0,0,0-.06-.63.35.35,0,0,0-.22-.25,1.63,1.63,0,0,0-.52-.06l-.42,0-.43.06v-.41a4.37,4.37,0,0,1,1-.1,1.69,1.69,0,0,1,.73.12.66.66,0,0,1,.33.41,3,3,0,0,1,.09.84v2.26h-.44l0-.49h0a.64.64,0,0,1-.34.43,1.2,1.2,0,0,1-.55.11A1,1,0,0,1,136.44,301.6Zm1.27-.26a.43.43,0,0,0,.23-.26,2.16,2.16,0,0,0,.11-.75v-.23h-.8a.87.87,0,0,0-.33,0,.26.26,0,0,0-.16.18,1.47,1.47,0,0,0,0,.42,1.44,1.44,0,0,0,0,.41.28.28,0,0,0,.17.18.94.94,0,0,0,.38.06A1.09,1.09,0,0,0,137.71,301.34Z"/><path class="b51c5b10-59f8-49a4-8a9b-f50ebdbf9ea4" d="M141,301.67a.88.88,0,0,1-.3-.54,6.39,6.39,0,0,1-.08-1.14,5.56,5.56,0,0,1,.08-1.14.91.91,0,0,1,.3-.55,1,1,0,0,1,.62-.16,1.15,1.15,0,0,1,.54.11.65.65,0,0,1,.3.38h0v-2.06h.5v5.2h-.44l0-.49h0a.64.64,0,0,1-.32.43,1.08,1.08,0,0,1-.54.11A1.13,1.13,0,0,1,141,301.67Zm1.22-.39a.52.52,0,0,0,.2-.32,1.76,1.76,0,0,0,.07-.41c0-.16,0-.36,0-.62a4,4,0,0,0-.06-.84.63.63,0,0,0-.21-.39.74.74,0,0,0-.43-.11.91.91,0,0,0-.46.09.54.54,0,0,0-.18.37,6.51,6.51,0,0,0-.05.93,6.31,6.31,0,0,0,.05.93.56.56,0,0,0,.19.37.76.76,0,0,0,.46.1A.77.77,0,0,0,142.24,301.28Z"/><path class="b51c5b10-59f8-49a4-8a9b-f50ebdbf9ea4" d="M146.12,300.14h-1.84a4,4,0,0,0,.06.82.45.45,0,0,0,.22.34,1.18,1.18,0,0,0,.58.1,5.05,5.05,0,0,0,.88-.08v.41c-.11,0-.25,0-.44.07l-.54,0a1.62,1.62,0,0,1-.83-.16.84.84,0,0,1-.34-.54,5.27,5.27,0,0,1-.08-1.13,6.23,6.23,0,0,1,.07-1.13.75.75,0,0,1,.32-.54,1.47,1.47,0,0,1,.82-.18,1.37,1.37,0,0,1,.77.17.79.79,0,0,1,.29.52,7.85,7.85,0,0,1,.06,1.15Zm-1.6-1.49a.41.41,0,0,0-.19.32,4.8,4.8,0,0,0-.05.8h1.36v-.08a4.36,4.36,0,0,0,0-.75.48.48,0,0,0-.19-.31,1,1,0,0,0-.4-.07A1,1,0,0,0,144.52,298.65Z"/><path class="b51c5b10-59f8-49a4-8a9b-f50ebdbf9ea4" d="M149.07,301.77l-1.2-4.82h.54l1,4.12h0l1-4.12H151l-1.19,4.82Z"/><path class="b51c5b10-59f8-49a4-8a9b-f50ebdbf9ea4" d="M151.49,301.6a1.14,1.14,0,0,1-.22-.81,2.17,2.17,0,0,1,.08-.64.51.51,0,0,1,.27-.32,1.16,1.16,0,0,1,.54-.1l.93,0v-.26a2.36,2.36,0,0,0-.06-.63.35.35,0,0,0-.22-.25,1.59,1.59,0,0,0-.52-.06l-.42,0-.43.06v-.41a4.49,4.49,0,0,1,1-.1,1.69,1.69,0,0,1,.73.12.66.66,0,0,1,.33.41,2.59,2.59,0,0,1,.1.84v2.26h-.45l0-.49h0a.64.64,0,0,1-.34.43,1.18,1.18,0,0,1-.55.11A.93.93,0,0,1,151.49,301.6Zm1.26-.26a.4.4,0,0,0,.23-.26,2.16,2.16,0,0,0,.11-.75v-.23h-.8a.87.87,0,0,0-.33,0,.29.29,0,0,0-.16.18,1.47,1.47,0,0,0,0,.42,1.44,1.44,0,0,0,0,.41.27.27,0,0,0,.18.18.89.89,0,0,0,.37.06A1.09,1.09,0,0,0,152.75,301.34Z"/><path class="b51c5b10-59f8-49a4-8a9b-f50ebdbf9ea4" d="M154.45,301.77v-5.2h.49v5.2Z"/><path class="b51c5b10-59f8-49a4-8a9b-f50ebdbf9ea4" d="M156.1,301.68a.75.75,0,0,1-.32-.51,6.78,6.78,0,0,1-.07-1.19,6.65,6.65,0,0,1,.07-1.18.75.75,0,0,1,.32-.51,1.68,1.68,0,0,1,.82-.15,1.61,1.61,0,0,1,.81.15.69.69,0,0,1,.32.51,6.65,6.65,0,0,1,.07,1.18,6.78,6.78,0,0,1-.07,1.19.69.69,0,0,1-.32.51,1.75,1.75,0,0,1-.81.14A1.83,1.83,0,0,1,156.1,301.68Zm1.31-.38a.49.49,0,0,0,.18-.37,8.88,8.88,0,0,0,0-.95,9.19,9.19,0,0,0,0-1,.45.45,0,0,0-.18-.36.85.85,0,0,0-.49-.1.87.87,0,0,0-.5.1.51.51,0,0,0-.18.36,9.19,9.19,0,0,0,0,1,9,9,0,0,0,0,.95.56.56,0,0,0,.18.37,1,1,0,0,0,.5.1A.94.94,0,0,0,157.41,301.3Z"/><path class="b51c5b10-59f8-49a4-8a9b-f50ebdbf9ea4" d="M158.89,298.2h.44l0,.66h.05a.87.87,0,0,1,.31-.56,1,1,0,0,1,.61-.16v.51a1,1,0,0,0-.57.15.79.79,0,0,0-.28.46,3.44,3.44,0,0,0-.08.81v1.7h-.5Z"/><path class="b51c5b10-59f8-49a4-8a9b-f50ebdbf9ea4" d="M160.87,297.15v-.58h.53v.58Zm0,4.62V298.2h.49v3.57Z"/><path class="a23f6c48-5e2c-4861-85ea-b503f1931f9c" d="M111.14,204.15A48.19,48.19,0,1,0,63,156a48.18,48.18,0,0,0,48.18,48.19"/><path class="ad64e3b0-48a5-4ae3-8fa3-6fc0790905e2" d="M69.47,149.2h4.32a3.66,3.66,0,0,1,2.15.53,2.56,2.56,0,0,1,1,1.49,10.28,10.28,0,0,1,.25,2.54,10.57,10.57,0,0,1-.24,2.49,2.61,2.61,0,0,1-1,1.53,3.58,3.58,0,0,1-2.19.56h-2V163H69.47Zm3.74,7.08a2.26,2.26,0,0,0,1.12-.2,1,1,0,0,0,.44-.7,13,13,0,0,0,0-3.22,1,1,0,0,0-.44-.7,2.31,2.31,0,0,0-1.1-.2H71.75v5Z"/><path class="ad64e3b0-48a5-4ae3-8fa3-6fc0790905e2" d="M84.59,163l-1.48-5h-2v5H78.87V149.2h4.44a3.89,3.89,0,0,1,2.17.5,2.46,2.46,0,0,1,1,1.42,9.52,9.52,0,0,1,.25,2.44,8.91,8.91,0,0,1-.29,2.46,2.24,2.24,0,0,1-1.17,1.44L87,163Zm-.72-7.27a.91.91,0,0,0,.45-.66,9.81,9.81,0,0,0,0-2.93.93.93,0,0,0-.45-.65,2.46,2.46,0,0,0-1.1-.19H81.15v4.62h1.62A2.33,2.33,0,0,0,83.87,155.69Z"/><path class="ad64e3b0-48a5-4ae3-8fa3-6fc0790905e2" d="M89.69,162.53a2.77,2.77,0,0,1-1.08-1.94,46.34,46.34,0,0,1,0-9,2.79,2.79,0,0,1,1.08-1.94,7.32,7.32,0,0,1,5.76,0,2.82,2.82,0,0,1,1.09,2,44.14,44.14,0,0,1,0,9,2.78,2.78,0,0,1-1.09,1.95,7.32,7.32,0,0,1-5.76,0Zm4.22-1.72a1.65,1.65,0,0,0,.47-1.2c.07-.63.11-1.81.11-3.53s0-2.89-.11-3.53a1.69,1.69,0,0,0-.47-1.2,2.6,2.6,0,0,0-1.34-.25,2.53,2.53,0,0,0-1.33.25,1.73,1.73,0,0,0-.46,1.19c-.07.63-.11,1.81-.11,3.54s0,2.92.11,3.54a1.68,1.68,0,0,0,.46,1.19,2.43,2.43,0,0,0,1.33.25A2.5,2.5,0,0,0,93.91,160.81Z"/><path class="ad64e3b0-48a5-4ae3-8fa3-6fc0790905e2" d="M100.77,163,97.89,149.2h2.34l2.16,11.24h.14l2.14-11.24H107L104.07,163Z"/><path class="ad64e3b0-48a5-4ae3-8fa3-6fc0790905e2" d="M109.39,162.53a2.77,2.77,0,0,1-1.08-1.94,46.34,46.34,0,0,1,0-9,2.79,2.79,0,0,1,1.08-1.94,7.32,7.32,0,0,1,5.76,0,2.82,2.82,0,0,1,1.09,2,44.14,44.14,0,0,1,0,9,2.78,2.78,0,0,1-1.09,1.95,7.32,7.32,0,0,1-5.76,0Zm4.22-1.72a1.65,1.65,0,0,0,.47-1.2c.07-.63.11-1.81.11-3.53s0-2.89-.11-3.53a1.69,1.69,0,0,0-.47-1.2,2.6,2.6,0,0,0-1.34-.25,2.53,2.53,0,0,0-1.33.25,1.73,1.73,0,0,0-.46,1.19c-.07.63-.11,1.81-.11,3.54s0,2.92.11,3.54a1.68,1.68,0,0,0,.46,1.19,2.43,2.43,0,0,0,1.33.25A2.5,2.5,0,0,0,113.61,160.81Z"/><path class="ad64e3b0-48a5-4ae3-8fa3-6fc0790905e2" d="M123.64,163a8.91,8.91,0,0,1-1.23.09,4.84,4.84,0,0,1-2.72-.59,3,3,0,0,1-1.14-2,24.93,24.93,0,0,1-.28-4.43,24.64,24.64,0,0,1,.29-4.4,3.1,3.1,0,0,1,1.15-2,4.77,4.77,0,0,1,2.7-.6,9.11,9.11,0,0,1,1.26.09,4.44,4.44,0,0,1,1,.23v1.9a13.48,13.48,0,0,0-1.8-.16,3,3,0,0,0-1.59.3,1.74,1.74,0,0,0-.58,1.26,45.05,45.05,0,0,0,0,6.84,1.74,1.74,0,0,0,.58,1.26,3,3,0,0,0,1.59.3,9.55,9.55,0,0,0,1.84-.16v1.9A5.21,5.21,0,0,1,123.64,163Z"/><path class="ad64e3b0-48a5-4ae3-8fa3-6fc0790905e2" d="M132.63,163l-.66-3.12h-3.52l-.64,3.12h-2.3l3.08-13.76h3.3L135,163Zm-2.36-11.5h-.12l-1.28,6.34h2.66Z"/><path class="ad64e3b0-48a5-4ae3-8fa3-6fc0790905e2" d="M142.09,163l-1.48-5h-2v5h-2.28V149.2h4.44a3.89,3.89,0,0,1,2.17.5,2.46,2.46,0,0,1,1,1.42,9.52,9.52,0,0,1,.25,2.44,8.91,8.91,0,0,1-.29,2.46,2.24,2.24,0,0,1-1.17,1.44l1.74,5.5Zm-.72-7.27a.91.91,0,0,0,.45-.66,9.81,9.81,0,0,0,0-2.93.93.93,0,0,0-.45-.65,2.46,2.46,0,0,0-1.1-.19h-1.62v4.62h1.62A2.33,2.33,0,0,0,141.37,155.69Z"/><path class="ad64e3b0-48a5-4ae3-8fa3-6fc0790905e2" d="M146.17,163V149.2h6.56v2.06h-4.28V155h3.7V157h-3.7v3.86h4.28V163Z"/></g></svg>