<svg xmlns="http://www.w3.org/2000/svg" viewBox="0 0 223.23 311.81"><defs><style>.f6e6790d-8a8e-4dce-a7ee-0fbd0b7b8f04{fill:#00bcef;}.a35c9cc2-3698-46ce-9504-311f73e8e103,.bfe4f912-7fc8-407d-a77d-1c9ec23b3ce8{fill:#fff;}.bb4cf8d2-ef04-41bb-b898-da9c24a25749,.f130e7f6-579a-4739-9beb-fffe5d1c3c00{fill:none;stroke:#fff;}.a35c9cc2-3698-46ce-9504-311f73e8e103,.bb4cf8d2-ef04-41bb-b898-da9c24a25749,.f130e7f6-579a-4739-9beb-fffe5d1c3c00{stroke-miterlimit:10;}.bb4cf8d2-ef04-41bb-b898-da9c24a25749{stroke-width:0.03px;}.f130e7f6-579a-4739-9beb-fffe5d1c3c00{stroke-width:0.05px;}.f3f5449a-92f5-44b2-bfc7-7303cbe028c9{fill:#ec008c;}.a2091aa6-cd68-4912-bfaa-073b09904fb3{fill:#99ca3c;}.fae5ae25-3e9a-4cd5-be57-683f84ea038c{fill:#2a2664;}.a4637792-3619-4a2b-a9cf-3e642470b6e1{fill:#4d4e4f;}.ef7fd6d2-8f46-43db-882e-257d616a4737{fill:#67328c;}.f4ee13dc-67e6-4d3f-b804-a51f44d85878{fill:#f05c2a;}.a35c9cc2-3698-46ce-9504-311f73e8e103{stroke:#26b9ec;stroke-width:1.5px;}.b8ae9886-8033-43ed-9a91-d51bc6ae2dd8{fill:#282560;}.ba447d2e-6230-492c-8dc8-8ba8b08dc0bc{fill:#ffdfb2;}.e1505b9d-c5f9-4392-82af-1afb503b20ce{fill:#50b5e7;}.b87f5eb1-a2b3-4dde-b2ef-b246849ce2d8{fill:#43a0c5;}.ea4d6d80-a879-486e-b7f8-e27ea410726d{fill:#24baed;}</style></defs><g id="e1ca1d3b-6dfd-497a-bb51-405da39eb184" data-name="Layer 5"><rect class="f6e6790d-8a8e-4dce-a7ee-0fbd0b7b8f04" width="223.23" height="23.73"/><rect class="f6e6790d-8a8e-4dce-a7ee-0fbd0b7b8f04" y="279.44" width="223.23" height="32.37"/><rect class="f6e6790d-8a8e-4dce-a7ee-0fbd0b7b8f04" x="-122.31" y="142.04" width="268.35" height="23.73" transform="translate(165.77 142.04) rotate(90)"/><rect class="f6e6790d-8a8e-4dce-a7ee-0fbd0b7b8f04" x="77.19" y="144.04" width="268.35" height="23.73" transform="translate(367.27 -55.46) rotate(90)"/><path class="bfe4f912-7fc8-407d-a77d-1c9ec23b3ce8" d="M62.5,293.38l-.41,0a1.68,1.68,0,0,1-.92-.19,1,1,0,0,1-.39-.69,11.4,11.4,0,0,1,0-3.16,1,1,0,0,1,.39-.7,1.78,1.78,0,0,1,.92-.19l.41,0a2.3,2.3,0,0,1,.36.07V289a4.65,4.65,0,0,0-.66-.07,1.37,1.37,0,0,0-.68.13.71.71,0,0,0-.26.52,18.39,18.39,0,0,0,0,2.71.71.71,0,0,0,.26.52,1.27,1.27,0,0,0,.68.13,3.82,3.82,0,0,0,.68-.06v.44Z"/><path class="bfe4f912-7fc8-407d-a77d-1c9ec23b3ce8" d="M63.56,293.18a1.15,1.15,0,0,1-.22-.82,2.05,2.05,0,0,1,.08-.63.6.6,0,0,1,.27-.33,1.34,1.34,0,0,1,.55-.09l.92,0v-.25a2.31,2.31,0,0,0-.06-.63.37.37,0,0,0-.22-.26,1.93,1.93,0,0,0-.52-.06l-.41,0-.43.05v-.4a4.34,4.34,0,0,1,1-.1,1.69,1.69,0,0,1,.73.12.62.62,0,0,1,.34.4,3,3,0,0,1,.09.84v2.26h-.44l0-.49h0a.66.66,0,0,1-.34.44,1.31,1.31,0,0,1-.55.11A.93.93,0,0,1,63.56,293.18Zm1.26-.27a.42.42,0,0,0,.24-.25,2.23,2.23,0,0,0,.1-.75v-.23h-.8a.92.92,0,0,0-.33,0,.27.27,0,0,0-.15.19,1.4,1.4,0,0,0-.05.42,1.25,1.25,0,0,0,.05.4.29.29,0,0,0,.17.19.94.94,0,0,0,.38.05A1.07,1.07,0,0,0,64.82,292.91Z"/><path class="bfe4f912-7fc8-407d-a77d-1c9ec23b3ce8" d="M66.52,289.77H67l0,.67h0a.87.87,0,0,1,.32-.57,1.08,1.08,0,0,1,.61-.15v.5a.86.86,0,0,0-.57.16.75.75,0,0,0-.28.45,3.1,3.1,0,0,0-.08.82v1.69h-.5Z"/><path class="bfe4f912-7fc8-407d-a77d-1c9ec23b3ce8" d="M70.73,291.72H68.9a5.08,5.08,0,0,0,0,.82.5.5,0,0,0,.22.34,1.37,1.37,0,0,0,.58.09,5,5,0,0,0,.88-.07v.4a2.7,2.7,0,0,1-.44.07l-.53,0a1.71,1.71,0,0,1-.83-.16.8.8,0,0,1-.34-.54,5.25,5.25,0,0,1-.09-1.13,6.23,6.23,0,0,1,.07-1.13.84.84,0,0,1,.33-.55,1.54,1.54,0,0,1,.82-.17,1.26,1.26,0,0,1,.76.17.73.73,0,0,1,.29.52,7.76,7.76,0,0,1,.06,1.15Zm-1.59-1.5a.46.46,0,0,0-.2.33,5.09,5.09,0,0,0,0,.8h1.36v-.09a3.28,3.28,0,0,0-.06-.74.45.45,0,0,0-.19-.31.82.82,0,0,0-.4-.07A1.07,1.07,0,0,0,69.14,290.22Z"/><path class="bfe4f912-7fc8-407d-a77d-1c9ec23b3ce8" d="M73.73,291.72H71.9a4.13,4.13,0,0,0,0,.82.47.47,0,0,0,.22.34,1.37,1.37,0,0,0,.58.09,5,5,0,0,0,.88-.07v.4a2.9,2.9,0,0,1-.44.07l-.54,0a1.73,1.73,0,0,1-.83-.16.84.84,0,0,1-.34-.54,8.55,8.55,0,0,1,0-2.26.79.79,0,0,1,.32-.55,1.58,1.58,0,0,1,.83-.17,1.28,1.28,0,0,1,.76.17.77.77,0,0,1,.29.52,7.76,7.76,0,0,1,.06,1.15Zm-1.6-1.5a.45.45,0,0,0-.19.33,5.09,5.09,0,0,0,0,.8h1.35v-.09a4.23,4.23,0,0,0,0-.74.45.45,0,0,0-.19-.31.84.84,0,0,0-.4-.07A1.12,1.12,0,0,0,72.13,290.22Z"/><path class="bfe4f912-7fc8-407d-a77d-1c9ec23b3ce8" d="M74.51,289.77h.43l0,.67h0a.87.87,0,0,1,.32-.57,1.07,1.07,0,0,1,.6-.15v.5a.85.85,0,0,0-.56.16.81.81,0,0,0-.29.45,3.59,3.59,0,0,0-.08.82v1.69h-.49Z"/><path class="bfe4f912-7fc8-407d-a77d-1c9ec23b3ce8" d="M77.89,288.53h1.47a1,1,0,0,1,.85.31,1.35,1.35,0,0,1,.26.89,1.49,1.49,0,0,1-.17.77.85.85,0,0,1-.54.37v0a.83.83,0,0,1,.59.39,1.67,1.67,0,0,1,.16.8,1.48,1.48,0,0,1-.25.92,1.09,1.09,0,0,1-.93.34H77.89Zm1.87,1.94a1,1,0,0,0,.18-.64,1.59,1.59,0,0,0-.06-.49.46.46,0,0,0-.22-.27,1,1,0,0,0-.45-.08h-.8v1.68h.8A.71.71,0,0,0,79.76,290.47Zm.06,2.22A1.1,1.1,0,0,0,80,292a1.07,1.07,0,0,0-.17-.68.72.72,0,0,0-.58-.2h-.82v1.75h.82A.72.72,0,0,0,79.82,292.69Z"/><path class="bfe4f912-7fc8-407d-a77d-1c9ec23b3ce8" d="M83.11,292.85h0a.76.76,0,0,1-.29.41,1.31,1.31,0,0,1-1.18,0,.71.71,0,0,1-.27-.42,4.17,4.17,0,0,1-.06-.81v-2.26h.49v2.09a4,4,0,0,0,0,.73.44.44,0,0,0,.17.29.86.86,0,0,0,.41.07.65.65,0,0,0,.47-.15.74.74,0,0,0,.18-.41,5,5,0,0,0,0-.76v-1.86h.5v3.57h-.44Z"/><path class="bfe4f912-7fc8-407d-a77d-1c9ec23b3ce8" d="M84.82,293.38l-.45-.06v-.42a5.62,5.62,0,0,0,.92.08.84.84,0,0,0,.4-.07.35.35,0,0,0,.18-.2,1.37,1.37,0,0,0,0-.34,1.64,1.64,0,0,0,0-.37.21.21,0,0,0-.09-.14.54.54,0,0,0-.23-.06l-.7-.11a.6.6,0,0,1-.46-.25,1.45,1.45,0,0,1-.12-.68,1.28,1.28,0,0,1,.14-.65.72.72,0,0,1,.36-.31,2,2,0,0,1,.61-.08l.46,0a1.52,1.52,0,0,1,.39.07v.4l-.39-.06-.46,0a.77.77,0,0,0-.48.12.61.61,0,0,0-.14.47,1.46,1.46,0,0,0,0,.34.23.23,0,0,0,.09.15l.22.06.68.09a.76.76,0,0,1,.35.12.45.45,0,0,1,.19.29,1.71,1.71,0,0,1,.07.58,1.09,1.09,0,0,1-.25.81,1.22,1.22,0,0,1-.82.23Z"/><path class="bfe4f912-7fc8-407d-a77d-1c9ec23b3ce8" d="M90,293.34V292.2H88.23v-.41l1.27-3.26h.55l-1.27,3.21H90l.1-1.78h.42v1.78H91v.46h-.5v1.14Z"/><path class="bfe4f912-7fc8-407d-a77d-1c9ec23b3ce8" d="M91.67,293.34v-.63h.57v.63Z"/><path class="bfe4f912-7fc8-407d-a77d-1c9ec23b3ce8" d="M93.43,293.21a.92.92,0,0,1-.35-.66,18.67,18.67,0,0,1,0-3.23.92.92,0,0,1,.35-.66,1.56,1.56,0,0,1,.9-.19,1.64,1.64,0,0,1,.92.19.9.9,0,0,1,.33.65,12.08,12.08,0,0,1,.07,1.63,10.26,10.26,0,0,1-.08,1.61.91.91,0,0,1-.34.66,1.58,1.58,0,0,1-.9.19A1.56,1.56,0,0,1,93.43,293.21Zm1.45-.38a.68.68,0,0,0,.2-.49,19.77,19.77,0,0,0,0-2.81.68.68,0,0,0-.2-.49,1,1,0,0,0-.55-.11,1,1,0,0,0-.56.11c-.1.07-.16.23-.19.49a13.92,13.92,0,0,0,0,1.41,13.68,13.68,0,0,0,0,1.4c0,.26.09.42.19.49a1,1,0,0,0,.56.11A1,1,0,0,0,94.88,292.83Z"/><path class="bfe4f912-7fc8-407d-a77d-1c9ec23b3ce8" d="M97.93,294.47v-6.33h.46v6.33Z"/><path class="bfe4f912-7fc8-407d-a77d-1c9ec23b3ce8" d="M101.25,293.23a.82.82,0,0,1-.38-.64,11.86,11.86,0,0,1-.08-1.65,12.14,12.14,0,0,1,.08-1.66.85.85,0,0,1,.38-.64,3.3,3.3,0,0,1,2.09,0,.88.88,0,0,1,.38.64,12.14,12.14,0,0,1,.08,1.66,11.86,11.86,0,0,1-.08,1.65.85.85,0,0,1-.38.64,3.3,3.3,0,0,1-2.09,0Zm1.92-.21a.71.71,0,0,0,.3-.54,12.78,12.78,0,0,0,.06-1.54,13,13,0,0,0-.06-1.55.71.71,0,0,0-.3-.54,2.15,2.15,0,0,0-.88-.13,2.12,2.12,0,0,0-.87.13.71.71,0,0,0-.3.54,13,13,0,0,0-.06,1.55,12.78,12.78,0,0,0,.06,1.54.71.71,0,0,0,.3.54,2,2,0,0,0,.87.13A2,2,0,0,0,103.17,293Zm-1.25-.86a.52.52,0,0,1-.21-.37,4.48,4.48,0,0,1,0-.85,5.63,5.63,0,0,1,0-.85.55.55,0,0,1,.22-.37.89.89,0,0,1,.49-.11,1.61,1.61,0,0,1,.42.05V290a2.09,2.09,0,0,0-.36,0,.62.62,0,0,0-.33.07.37.37,0,0,0-.12.26,8.18,8.18,0,0,0,0,1.4.37.37,0,0,0,.12.26.64.64,0,0,0,.33.06,2.05,2.05,0,0,0,.37,0v.29a2,2,0,0,1-.43,0A.93.93,0,0,1,101.92,292.16Z"/><path class="bfe4f912-7fc8-407d-a77d-1c9ec23b3ce8" d="M105.13,292.88H107v.46h-2.41v-.55a8.56,8.56,0,0,1,0-.87.79.79,0,0,1,.14-.43,1.21,1.21,0,0,1,.41-.34l.91-.54a.75.75,0,0,0,.32-.32,1.46,1.46,0,0,0,.07-.54,1.72,1.72,0,0,0-.06-.52.42.42,0,0,0-.24-.23,1.46,1.46,0,0,0-.49-.07,9.22,9.22,0,0,0-1,.08v-.43a4.67,4.67,0,0,1,.53-.08l.62,0a2.22,2.22,0,0,1,.64.08.72.72,0,0,1,.4.35,1.65,1.65,0,0,1,.15.79,2.72,2.72,0,0,1-.06.64,1,1,0,0,1-.19.39,1.57,1.57,0,0,1-.36.29l-1,.58a.49.49,0,0,0-.23.22.73.73,0,0,0,0,.25c0,.1,0,.26,0,.47Z"/><path class="bfe4f912-7fc8-407d-a77d-1c9ec23b3ce8" d="M108.14,293.21a.91.91,0,0,1-.34-.66,16.34,16.34,0,0,1,0-3.23.91.91,0,0,1,.34-.66,1.58,1.58,0,0,1,.9-.19,1.62,1.62,0,0,1,.92.19.91.91,0,0,1,.34.65,14.09,14.09,0,0,1,.07,1.63,11.69,11.69,0,0,1-.08,1.61,1,1,0,0,1-.34.66,1.6,1.6,0,0,1-.91.19A1.58,1.58,0,0,1,108.14,293.21Zm1.45-.38a.68.68,0,0,0,.2-.49,19.77,19.77,0,0,0,0-2.81.68.68,0,0,0-.2-.49,1.43,1.43,0,0,0-1.1,0,.68.68,0,0,0-.2.49,13.92,13.92,0,0,0-.05,1.41,13.68,13.68,0,0,0,.05,1.4.68.68,0,0,0,.2.49,1.43,1.43,0,0,0,1.1,0Z"/><path class="bfe4f912-7fc8-407d-a77d-1c9ec23b3ce8" d="M111.57,292.88h1.9v.46h-2.41v-.55a8.56,8.56,0,0,1,0-.87.88.88,0,0,1,.14-.43,1.21,1.21,0,0,1,.41-.34l.91-.54a.75.75,0,0,0,.32-.32,1.46,1.46,0,0,0,.07-.54,1.72,1.72,0,0,0-.06-.52.42.42,0,0,0-.24-.23,1.46,1.46,0,0,0-.49-.07,9.22,9.22,0,0,0-1,.08v-.43a4.67,4.67,0,0,1,.53-.08l.62,0a2.22,2.22,0,0,1,.64.08.72.72,0,0,1,.4.35,1.65,1.65,0,0,1,.15.79,2.72,2.72,0,0,1-.06.64,1,1,0,0,1-.19.39,1.57,1.57,0,0,1-.36.29l-1,.58a.49.49,0,0,0-.23.22.73.73,0,0,0,0,.25c0,.1,0,.26,0,.47Z"/><path class="bfe4f912-7fc8-407d-a77d-1c9ec23b3ce8" d="M114.66,293.34v-4.17l-.68.33V289l.82-.48h.38v4.81Z"/><path class="bfe4f912-7fc8-407d-a77d-1c9ec23b3ce8" d="M118.06,293.91a1,1,0,0,1-.49-.72,13.2,13.2,0,0,1-.09-1.9,13.37,13.37,0,0,1,.09-1.91,1,1,0,0,1,.49-.72,5.11,5.11,0,0,1,2.76,0,.9.9,0,0,1,.48.72,11.49,11.49,0,0,1,.1,1.91,5.19,5.19,0,0,1-.07,1,.6.6,0,0,1-.19.4.82.82,0,0,1-.41.08H120l0-.41h0a.56.56,0,0,1-.26.37.91.91,0,0,1-.43.09.74.74,0,0,1-.57-.2,1,1,0,0,1-.17-.69,1.87,1.87,0,0,1,.06-.54.45.45,0,0,1,.22-.28.89.89,0,0,1,.44-.08c.16,0,.41,0,.72,0v-.21a2.15,2.15,0,0,0,0-.52.28.28,0,0,0-.16-.21,1.28,1.28,0,0,0-.41-.05l-.35,0a1.83,1.83,0,0,0-.33,0v-.37a3.79,3.79,0,0,1,.82-.08,1.17,1.17,0,0,1,.59.11.55.55,0,0,1,.27.34,2.58,2.58,0,0,1,.07.71v1.66h.39a.25.25,0,0,0,.19-.06.69.69,0,0,0,.09-.33,8.47,8.47,0,0,0,0-.86c0-.73,0-1.24,0-1.54a1.37,1.37,0,0,0-.2-.68.82.82,0,0,0-.55-.27,6.58,6.58,0,0,0-.87-.05q-.47,0-.78,0a.89.89,0,0,0-.6.26,1.2,1.2,0,0,0-.22.67c0,.3,0,.83,0,1.58s0,1.3,0,1.61a1.19,1.19,0,0,0,.26.66,1.22,1.22,0,0,0,.72.24h.62c.48,0,.8,0,1,0v.3h-1A3.42,3.42,0,0,1,118.06,293.91Zm1.65-1.5a.43.43,0,0,0,.18-.26,2.42,2.42,0,0,0,0-.53v-.22h-.62a.65.65,0,0,0-.24,0,.22.22,0,0,0-.11.15,1.6,1.6,0,0,0,0,.36,1.4,1.4,0,0,0,0,.34.24.24,0,0,0,.13.16.66.66,0,0,0,.28,0A.63.63,0,0,0,119.71,292.41Z"/><path class="bfe4f912-7fc8-407d-a77d-1c9ec23b3ce8" d="M123.55,293.31v-.46a4.46,4.46,0,0,0,.54.06l.5,0a2.36,2.36,0,0,0,.44,0,.58.58,0,0,0,.27-.14.43.43,0,0,0,.13-.26,3,3,0,0,0,0-.47c0-.26,0-.44,0-.54a.34.34,0,0,0-.13-.22,1,1,0,0,0-.36-.11l-.82-.13a.79.79,0,0,1-.44-.2.72.72,0,0,1-.19-.38,3.52,3.52,0,0,1,0-.64,1.42,1.42,0,0,1,.31-1,1.35,1.35,0,0,1,1-.31,4.36,4.36,0,0,1,1.06.11V289a4.91,4.91,0,0,0-.94-.09,1.56,1.56,0,0,0-.48.06.51.51,0,0,0-.26.15.57.57,0,0,0-.12.26,2.21,2.21,0,0,0,0,.39,2.51,2.51,0,0,0,0,.47.28.28,0,0,0,.11.2.7.7,0,0,0,.28.09l.78.13a1.55,1.55,0,0,1,.47.14.72.72,0,0,1,.26.34,2.66,2.66,0,0,1,.08.8,2.4,2.4,0,0,1-.12.85.75.75,0,0,1-.38.45,1.68,1.68,0,0,1-.74.14A7.51,7.51,0,0,1,123.55,293.31Zm1.12,1.5a.58.58,0,0,0,.07-.32v-.11h-.24v-.6h.57v.54a2,2,0,0,1,0,.5.4.4,0,0,1-.2.24,1.18,1.18,0,0,1-.44.06v-.24C124.53,294.88,124.63,294.86,124.67,294.81Z"/><path class="bfe4f912-7fc8-407d-a77d-1c9ec23b3ce8" d="M128.15,293.38l-.4,0a1.27,1.27,0,0,1-.76-.18.85.85,0,0,1-.32-.55,7.31,7.31,0,0,1-.07-1.11,5.27,5.27,0,0,1,.09-1.12.89.89,0,0,1,.33-.55,1.24,1.24,0,0,1,.71-.17l.41,0a1.68,1.68,0,0,1,.33.07v.4a3.2,3.2,0,0,0-.63-.07.85.85,0,0,0-.48.11.66.66,0,0,0-.21.4,6.12,6.12,0,0,0-.05.9,6.61,6.61,0,0,0,.05.93.61.61,0,0,0,.21.39.9.9,0,0,0,.49.1,2.51,2.51,0,0,0,.64-.07v.41A2,2,0,0,1,128.15,293.38Z"/><path class="bfe4f912-7fc8-407d-a77d-1c9ec23b3ce8" d="M129.46,293.25a.69.69,0,0,1-.32-.51,6.42,6.42,0,0,1-.08-1.18,6.35,6.35,0,0,1,.08-1.18.65.65,0,0,1,.32-.51,1.63,1.63,0,0,1,.81-.15,1.68,1.68,0,0,1,.82.15.71.71,0,0,1,.32.51,7.7,7.7,0,0,1,.07,1.18,7.8,7.8,0,0,1-.07,1.18.75.75,0,0,1-.32.51,1.68,1.68,0,0,1-.82.15A1.63,1.63,0,0,1,129.46,293.25Zm1.31-.37a.52.52,0,0,0,.17-.37,6.88,6.88,0,0,0,0-.95,6.78,6.78,0,0,0,0-.95.52.52,0,0,0-.17-.37,1,1,0,0,0-.5-.1.92.92,0,0,0-.49.1.49.49,0,0,0-.18.37,11.3,11.3,0,0,0,0,1.9.49.49,0,0,0,.18.37.94.94,0,0,0,.49.09A1,1,0,0,0,130.77,292.88Z"/><path class="bfe4f912-7fc8-407d-a77d-1c9ec23b3ce8" d="M132.26,293.18a1.2,1.2,0,0,1-.22-.82,2.05,2.05,0,0,1,.08-.63.61.61,0,0,1,.28-.33,1.32,1.32,0,0,1,.54-.09l.92,0v-.25a2.31,2.31,0,0,0-.06-.63.38.38,0,0,0-.21-.26,2,2,0,0,0-.52-.06l-.42,0-.43.05v-.4a4.37,4.37,0,0,1,1-.1,1.72,1.72,0,0,1,.73.12.64.64,0,0,1,.33.4,3,3,0,0,1,.09.84v2.26h-.44l0-.49h0a.69.69,0,0,1-.34.44,1.35,1.35,0,0,1-.55.11A1,1,0,0,1,132.26,293.18Zm1.27-.27a.41.41,0,0,0,.23-.25,2.23,2.23,0,0,0,.1-.75v-.23h-.79a1,1,0,0,0-.34,0,.27.27,0,0,0-.15.19,1.4,1.4,0,0,0-.05.42,1.25,1.25,0,0,0,.05.4.32.32,0,0,0,.17.19.94.94,0,0,0,.38.05A1.16,1.16,0,0,0,133.53,292.91Z"/><path class="bfe4f912-7fc8-407d-a77d-1c9ec23b3ce8" d="M135.22,293.34v-5.2h.5v5.2Z"/><path class="bfe4f912-7fc8-407d-a77d-1c9ec23b3ce8" d="M136.61,293.18a1.15,1.15,0,0,1-.22-.82,2.05,2.05,0,0,1,.08-.63.6.6,0,0,1,.27-.33,1.34,1.34,0,0,1,.55-.09l.92,0v-.25a2.31,2.31,0,0,0-.06-.63.37.37,0,0,0-.22-.26,1.87,1.87,0,0,0-.52-.06l-.41,0-.43.05v-.4a4.34,4.34,0,0,1,1-.1,1.69,1.69,0,0,1,.73.12.62.62,0,0,1,.34.4,3,3,0,0,1,.09.84v2.26h-.44l0-.49h0a.66.66,0,0,1-.34.44,1.3,1.3,0,0,1-.54.11A.94.94,0,0,1,136.61,293.18Zm1.26-.27a.42.42,0,0,0,.24-.25,2.23,2.23,0,0,0,.1-.75v-.23h-.8a.92.92,0,0,0-.33,0,.27.27,0,0,0-.15.19,1.4,1.4,0,0,0-.05.42,1.25,1.25,0,0,0,.05.4.29.29,0,0,0,.17.19.94.94,0,0,0,.38.05A1.07,1.07,0,0,0,137.87,292.91Z"/><path class="bfe4f912-7fc8-407d-a77d-1c9ec23b3ce8" d="M141.19,293.25a.94.94,0,0,1-.3-.54,5.42,5.42,0,0,1-.09-1.14,6.6,6.6,0,0,1,.08-1.15.88.88,0,0,1,.3-.54,1,1,0,0,1,.63-.16,1.08,1.08,0,0,1,.54.11.7.7,0,0,1,.3.38h0v-2.07h.5v5.2h-.44l0-.49h0a.73.73,0,0,1-.32.44,1.27,1.27,0,0,1-.54.11A1.08,1.08,0,0,1,141.19,293.25Zm1.21-.4a.51.51,0,0,0,.21-.32,2.37,2.37,0,0,0,.06-.41c0-.15,0-.36,0-.62a4.11,4.11,0,0,0-.06-.84.61.61,0,0,0-.21-.38.67.67,0,0,0-.43-.11.84.84,0,0,0-.45.09.49.49,0,0,0-.19.37,6.82,6.82,0,0,0,0,.93,5.28,5.28,0,0,0,0,.93.52.52,0,0,0,.18.37.9.9,0,0,0,.47.09A.66.66,0,0,0,142.4,292.85Z"/><path class="bfe4f912-7fc8-407d-a77d-1c9ec23b3ce8" d="M146.28,291.72h-1.83a4.13,4.13,0,0,0,.05.82.47.47,0,0,0,.22.34,1.37,1.37,0,0,0,.58.09,5,5,0,0,0,.88-.07v.4a2.7,2.7,0,0,1-.44.07l-.54,0a1.66,1.66,0,0,1-.82-.16.81.81,0,0,1-.35-.54,8.55,8.55,0,0,1,0-2.26.84.84,0,0,1,.33-.55,1.54,1.54,0,0,1,.82-.17,1.26,1.26,0,0,1,.76.17.77.77,0,0,1,.29.52,7.76,7.76,0,0,1,.06,1.15Zm-1.59-1.5a.46.46,0,0,0-.2.33,5.09,5.09,0,0,0,0,.8h1.36v-.09a3.28,3.28,0,0,0-.06-.74.45.45,0,0,0-.19-.31.82.82,0,0,0-.4-.07A1,1,0,0,0,144.69,290.22Z"/><path class="bfe4f912-7fc8-407d-a77d-1c9ec23b3ce8" d="M149.24,293.34,148,288.53h.55l1,4.12h.05l1-4.12h.53l-1.2,4.81Z"/><path class="bfe4f912-7fc8-407d-a77d-1c9ec23b3ce8" d="M151.65,293.18a1.15,1.15,0,0,1-.22-.82,2.05,2.05,0,0,1,.08-.63.61.61,0,0,1,.28-.33,1.28,1.28,0,0,1,.54-.09l.92,0v-.25a2.31,2.31,0,0,0-.06-.63.38.38,0,0,0-.21-.26,2,2,0,0,0-.53-.06l-.41,0-.43.05v-.4a4.34,4.34,0,0,1,1-.1,1.74,1.74,0,0,1,.74.12.64.64,0,0,1,.33.4,3,3,0,0,1,.09.84v2.26h-.44l0-.49h0a.69.69,0,0,1-.34.44,1.35,1.35,0,0,1-.55.11A.94.94,0,0,1,151.65,293.18Zm1.27-.27a.41.41,0,0,0,.23-.25,2.23,2.23,0,0,0,.1-.75v-.23h-.8a1,1,0,0,0-.33,0,.27.27,0,0,0-.15.19,1.4,1.4,0,0,0-.05.42,1.25,1.25,0,0,0,.05.4.32.32,0,0,0,.17.19.94.94,0,0,0,.38.05A1.16,1.16,0,0,0,152.92,292.91Z"/><path class="bfe4f912-7fc8-407d-a77d-1c9ec23b3ce8" d="M154.61,293.34v-5.2h.5v5.2Z"/><path class="bfe4f912-7fc8-407d-a77d-1c9ec23b3ce8" d="M156.27,293.25a.73.73,0,0,1-.33-.51,7.8,7.8,0,0,1-.07-1.18,7.7,7.7,0,0,1,.07-1.18.69.69,0,0,1,.33-.51,1.61,1.61,0,0,1,.81-.15,1.68,1.68,0,0,1,.82.15.71.71,0,0,1,.32.51,7.7,7.7,0,0,1,.07,1.18,7.8,7.8,0,0,1-.07,1.18.75.75,0,0,1-.32.51,1.68,1.68,0,0,1-.82.15A1.61,1.61,0,0,1,156.27,293.25Zm1.31-.37a.52.52,0,0,0,.17-.37,6.88,6.88,0,0,0,0-.95,6.78,6.78,0,0,0,0-.95.52.52,0,0,0-.17-.37,1.3,1.3,0,0,0-1,0,.52.52,0,0,0-.17.37,11.3,11.3,0,0,0,0,1.9.52.52,0,0,0,.17.37,1.43,1.43,0,0,0,1,0Z"/><path class="bfe4f912-7fc8-407d-a77d-1c9ec23b3ce8" d="M159.06,289.77h.43l0,.67h0a.87.87,0,0,1,.32-.57,1.07,1.07,0,0,1,.6-.15v.5a.85.85,0,0,0-.56.16.81.81,0,0,0-.29.45,3.59,3.59,0,0,0-.08.82v1.69h-.49Z"/><path class="bfe4f912-7fc8-407d-a77d-1c9ec23b3ce8" d="M161,288.72v-.58h.52v.58Zm0,4.62v-3.57h.5v3.57Z"/><path class="bfe4f912-7fc8-407d-a77d-1c9ec23b3ce8" d="M37.54,301.77l-.4,0a1.27,1.27,0,0,1-.76-.18.84.84,0,0,1-.31-.56A5.81,5.81,0,0,1,36,300a5.27,5.27,0,0,1,.09-1.12.89.89,0,0,1,.33-.55,1.18,1.18,0,0,1,.71-.17l.41,0a1.68,1.68,0,0,1,.33.07v.4a3.2,3.2,0,0,0-.63-.07.85.85,0,0,0-.48.11.63.63,0,0,0-.21.39,6.38,6.38,0,0,0,0,.91,6.61,6.61,0,0,0,0,.93.61.61,0,0,0,.21.39.9.9,0,0,0,.49.1,2.23,2.23,0,0,0,.65-.08v.42A1.58,1.58,0,0,1,37.54,301.77Z"/><path class="bfe4f912-7fc8-407d-a77d-1c9ec23b3ce8" d="M38.85,301.65a.69.69,0,0,1-.32-.51,6.42,6.42,0,0,1-.08-1.18,6.35,6.35,0,0,1,.08-1.18.69.69,0,0,1,.32-.52,1.78,1.78,0,0,1,.81-.14,1.83,1.83,0,0,1,.82.14.75.75,0,0,1,.32.52,7.7,7.7,0,0,1,.07,1.18,7.8,7.8,0,0,1-.07,1.18.75.75,0,0,1-.32.51,1.68,1.68,0,0,1-.82.15A1.63,1.63,0,0,1,38.85,301.65Zm1.31-.38a.47.47,0,0,0,.17-.36,6.88,6.88,0,0,0,0-1,6.78,6.78,0,0,0,0-.95.52.52,0,0,0-.17-.37,1,1,0,0,0-.5-.1.92.92,0,0,0-.49.1A.49.49,0,0,0,39,299a11.3,11.3,0,0,0,0,1.9.45.45,0,0,0,.18.36.83.83,0,0,0,.49.1A.89.89,0,0,0,40.16,301.27Z"/><path class="bfe4f912-7fc8-407d-a77d-1c9ec23b3ce8" d="M43.45,299.66a5.65,5.65,0,0,0,0-.73.44.44,0,0,0-.18-.29.84.84,0,0,0-.41-.07.65.65,0,0,0-.47.15.68.68,0,0,0-.18.41,6.64,6.64,0,0,0,0,.76v1.85h-.49v-3.57h.43l0,.5h0a.77.77,0,0,1,.29-.41,1.09,1.09,0,0,1,.59-.14,1,1,0,0,1,.59.14.63.63,0,0,1,.27.42,4,4,0,0,1,.07.81v2.25h-.5Z"/><path class="bfe4f912-7fc8-407d-a77d-1c9ec23b3ce8" d="M46.24,301.77l-.4,0a1.27,1.27,0,0,1-.76-.18.84.84,0,0,1-.31-.56,6,6,0,0,1-.07-1.1,6.21,6.21,0,0,1,.08-1.12.89.89,0,0,1,.33-.55,1.18,1.18,0,0,1,.71-.17l.41,0a2,2,0,0,1,.34.07v.4a3.39,3.39,0,0,0-.64-.07.85.85,0,0,0-.48.11.63.63,0,0,0-.21.39,6.38,6.38,0,0,0-.05.91,6.61,6.61,0,0,0,.05.93.61.61,0,0,0,.21.39.9.9,0,0,0,.49.1,2.18,2.18,0,0,0,.65-.08v.42A1.58,1.58,0,0,1,46.24,301.77Z"/><path class="bfe4f912-7fc8-407d-a77d-1c9ec23b3ce8" d="M49.48,300.12H47.65a4.85,4.85,0,0,0,.05.81.5.5,0,0,0,.23.35,1.29,1.29,0,0,0,.57.09,4.27,4.27,0,0,0,.89-.08v.41a3.13,3.13,0,0,1-.44.07l-.54,0a1.58,1.58,0,0,1-.83-.17.76.76,0,0,1-.34-.53,5.29,5.29,0,0,1-.09-1.14,7.52,7.52,0,0,1,.07-1.13.84.84,0,0,1,.33-.54,1.54,1.54,0,0,1,.82-.17,1.24,1.24,0,0,1,.76.17.7.7,0,0,1,.29.52,7.76,7.76,0,0,1,.06,1.15Zm-1.59-1.5a.45.45,0,0,0-.19.33,3.9,3.9,0,0,0-.05.8H49v-.09a3.28,3.28,0,0,0-.06-.74.48.48,0,0,0-.18-.31.86.86,0,0,0-.41-.07A1.1,1.1,0,0,0,47.89,298.62Z"/><path class="bfe4f912-7fc8-407d-a77d-1c9ec23b3ce8" d="M50.26,298.17h.44l0,.5h0a.76.76,0,0,1,.32-.44,1.27,1.27,0,0,1,.54-.11,1.13,1.13,0,0,1,.63.15.88.88,0,0,1,.3.54,5.42,5.42,0,0,1,.09,1.14,6.43,6.43,0,0,1-.08,1.15.91.91,0,0,1-.3.54,1,1,0,0,1-.63.16,1.2,1.2,0,0,1-.54-.11.73.73,0,0,1-.3-.38h0v1.78h-.5Zm1.65,3.09a.52.52,0,0,0,.18-.37,5.28,5.28,0,0,0,0-.93,5.14,5.14,0,0,0,0-.93.52.52,0,0,0-.18-.37.9.9,0,0,0-.47-.09.71.71,0,0,0-.41.1.58.58,0,0,0-.21.35,2.06,2.06,0,0,0,0,.39c0,.14,0,.32,0,.55a5.2,5.2,0,0,0,.05.87.83.83,0,0,0,.21.41.72.72,0,0,0,.42.11A.9.9,0,0,0,51.91,301.26Z"/><path class="bfe4f912-7fc8-407d-a77d-1c9ec23b3ce8" d="M53.63,301.74V298.6h-.52v-.43h.52v-1h.49v1h.62v.43h-.62v3.14Z"/><path class="bfe4f912-7fc8-407d-a77d-1c9ec23b3ce8" d="M58.1,301.77l-.4,0a1.27,1.27,0,0,1-.76-.18.85.85,0,0,1-.32-.56,7.06,7.06,0,0,1-.07-1.1,5.27,5.27,0,0,1,.09-1.12.89.89,0,0,1,.33-.55,1.16,1.16,0,0,1,.71-.17l.41,0a1.68,1.68,0,0,1,.33.07v.4a3.2,3.2,0,0,0-.63-.07.85.85,0,0,0-.48.11.63.63,0,0,0-.21.39,6.38,6.38,0,0,0-.05.91,6.61,6.61,0,0,0,.05.93.61.61,0,0,0,.21.39.9.9,0,0,0,.49.1,2.12,2.12,0,0,0,.64-.08v.42A1.39,1.39,0,0,1,58.1,301.77Z"/><path class="bfe4f912-7fc8-407d-a77d-1c9ec23b3ce8" d="M59.12,298.17h.44l0,.67h.05a.83.83,0,0,1,.32-.57,1.07,1.07,0,0,1,.6-.15v.5a.9.9,0,0,0-.57.16.8.8,0,0,0-.28.45,3.59,3.59,0,0,0-.08.82v1.69h-.5Z"/><path class="bfe4f912-7fc8-407d-a77d-1c9ec23b3ce8" d="M63.34,300.12H61.5a3.77,3.77,0,0,0,.06.81.46.46,0,0,0,.22.35,1.34,1.34,0,0,0,.58.09,4.24,4.24,0,0,0,.88-.08v.41a2.9,2.9,0,0,1-.44.07l-.54,0a1.61,1.61,0,0,1-.83-.17.79.79,0,0,1-.34-.53A5.44,5.44,0,0,1,61,300a6.38,6.38,0,0,1,.07-1.13.79.79,0,0,1,.32-.54,1.57,1.57,0,0,1,.82-.17,1.29,1.29,0,0,1,.77.17.77.77,0,0,1,.29.52,7.76,7.76,0,0,1,.06,1.15Zm-1.6-1.5a.45.45,0,0,0-.19.33,4.8,4.8,0,0,0,0,.8h1.36v-.09a4.23,4.23,0,0,0,0-.74.45.45,0,0,0-.19-.31.84.84,0,0,0-.4-.07A1.12,1.12,0,0,0,61.74,298.62Z"/><path class="bfe4f912-7fc8-407d-a77d-1c9ec23b3ce8" d="M64.13,301.58a1.15,1.15,0,0,1-.22-.82,2.05,2.05,0,0,1,.08-.63.64.64,0,0,1,.27-.33,1.34,1.34,0,0,1,.55-.09l.92,0v-.25a2.31,2.31,0,0,0-.06-.63.37.37,0,0,0-.22-.26,1.55,1.55,0,0,0-.52-.06l-.41,0-.43.05v-.41a5,5,0,0,1,1-.09,1.69,1.69,0,0,1,.73.12.62.62,0,0,1,.34.4,3,3,0,0,1,.09.84v2.26h-.44l0-.49h0a.66.66,0,0,1-.34.44,1.28,1.28,0,0,1-.55.11A1,1,0,0,1,64.13,301.58Zm1.27-.27a.44.44,0,0,0,.23-.25,2.23,2.23,0,0,0,.1-.75v-.23h-.8a.92.92,0,0,0-.33,0,.28.28,0,0,0-.15.18,1.53,1.53,0,0,0,0,.43,1.25,1.25,0,0,0,0,.4.29.29,0,0,0,.17.19,1.41,1.41,0,0,0,.78,0Z"/><path class="bfe4f912-7fc8-407d-a77d-1c9ec23b3ce8" d="M67.31,301.74V298.6h-.52v-.43h.52v-1h.49v1h.62v.43H67.8v3.14Z"/><path class="bfe4f912-7fc8-407d-a77d-1c9ec23b3ce8" d="M70.62,301.65a.94.94,0,0,1-.3-.54,5.47,5.47,0,0,1-.09-1.15,5.55,5.55,0,0,1,.09-1.14.88.88,0,0,1,.29-.55,1.11,1.11,0,0,1,.63-.15,1.08,1.08,0,0,1,.54.11.7.7,0,0,1,.3.38h0v-2.07h.49v5.2h-.44l0-.49h0a.69.69,0,0,1-.32.44,1.27,1.27,0,0,1-.54.11A1.08,1.08,0,0,1,70.62,301.65Zm1.21-.4a.51.51,0,0,0,.21-.32,2.37,2.37,0,0,0,.06-.41c0-.15,0-.36,0-.62a3.94,3.94,0,0,0-.07-.84.6.6,0,0,0-.2-.38.72.72,0,0,0-.44-.11.84.84,0,0,0-.45.09.56.56,0,0,0-.19.37,6.72,6.72,0,0,0,0,.93,5.28,5.28,0,0,0,0,.93.52.52,0,0,0,.18.37.9.9,0,0,0,.47.09A.66.66,0,0,0,71.83,301.25Z"/><path class="bfe4f912-7fc8-407d-a77d-1c9ec23b3ce8" d="M75.71,300.12H73.88a4.85,4.85,0,0,0,.05.81.5.5,0,0,0,.23.35,1.29,1.29,0,0,0,.57.09,4.34,4.34,0,0,0,.89-.08v.41a3.07,3.07,0,0,1-.45.07l-.53,0a1.58,1.58,0,0,1-.83-.17.76.76,0,0,1-.34-.53,5.29,5.29,0,0,1-.09-1.14,7.52,7.52,0,0,1,.07-1.13.84.84,0,0,1,.33-.54,1.54,1.54,0,0,1,.82-.17,1.26,1.26,0,0,1,.76.17.73.73,0,0,1,.29.52,7.76,7.76,0,0,1,.06,1.15Zm-1.59-1.5a.46.46,0,0,0-.2.33,5.09,5.09,0,0,0,0,.8h1.36v-.09a3.28,3.28,0,0,0-.06-.74.45.45,0,0,0-.19-.31.79.79,0,0,0-.4-.07A1.07,1.07,0,0,0,74.12,298.62Z"/><path class="bfe4f912-7fc8-407d-a77d-1c9ec23b3ce8" d="M80.19,301.74l-.34-1.33H78.37L78,301.74h-.52l1.26-4.81h.68l1.27,4.81Zm-1.06-4.18h0l-.59,2.38h1.22Z"/><path class="bfe4f912-7fc8-407d-a77d-1c9ec23b3ce8" d="M81.29,298.17h.44l0,.67h0a.87.87,0,0,1,.31-.57,1.13,1.13,0,0,1,.61-.15v.5a.9.9,0,0,0-.57.16.8.8,0,0,0-.28.45,3.59,3.59,0,0,0-.08.82v1.69h-.5Z"/><path class="bfe4f912-7fc8-407d-a77d-1c9ec23b3ce8" d="M86.75,299.66a4.26,4.26,0,0,0,0-.73.47.47,0,0,0-.15-.29.73.73,0,0,0-.38-.07.58.58,0,0,0-.45.14.62.62,0,0,0-.18.4,5,5,0,0,0,0,.78v1.85H85v-2.08a5.53,5.53,0,0,0,0-.73.44.44,0,0,0-.15-.29.73.73,0,0,0-.38-.07.58.58,0,0,0-.45.15.65.65,0,0,0-.18.41,6.64,6.64,0,0,0,0,.76v1.85h-.49v-3.57h.43l0,.5h0a.86.86,0,0,1,.28-.41,1,1,0,0,1,.56-.14,1.05,1.05,0,0,1,.57.12.74.74,0,0,1,.26.43h0a.77.77,0,0,1,.29-.41,1.27,1.27,0,0,1,1.14,0,.71.71,0,0,1,.25.43,3.37,3.37,0,0,1,.07.8v2.26h-.5Z"/><path class="bfe4f912-7fc8-407d-a77d-1c9ec23b3ce8" d="M88.1,297.12v-.58h.52v.58Zm0,4.62v-3.57h.5v3.57Z"/><path class="bfe4f912-7fc8-407d-a77d-1c9ec23b3ce8" d="M91.29,299.66a4.26,4.26,0,0,0,0-.73.44.44,0,0,0-.17-.29.88.88,0,0,0-.42-.07.61.61,0,0,0-.46.15.75.75,0,0,0-.19.41,7.16,7.16,0,0,0,0,.76v1.85h-.5v-3.57h.44l0,.5h0a.72.72,0,0,1,.29-.41,1,1,0,0,1,.59-.14,1,1,0,0,1,.59.14.71.71,0,0,1,.27.42,4.17,4.17,0,0,1,.06.81v2.25h-.5Z"/><path class="bfe4f912-7fc8-407d-a77d-1c9ec23b3ce8" d="M92.67,301.58a1.15,1.15,0,0,1-.22-.82,2.05,2.05,0,0,1,.08-.63.56.56,0,0,1,.27-.33,1.34,1.34,0,0,1,.55-.09l.92,0v-.25a2.31,2.31,0,0,0-.06-.63.37.37,0,0,0-.22-.26,1.59,1.59,0,0,0-.52-.06l-.41,0a3.88,3.88,0,0,0-.44.05v-.41a5.21,5.21,0,0,1,1-.09,1.69,1.69,0,0,1,.73.12.65.65,0,0,1,.34.4,3,3,0,0,1,.09.84v2.26h-.45l0-.49h0a.66.66,0,0,1-.34.44,1.31,1.31,0,0,1-.55.11A1,1,0,0,1,92.67,301.58Zm1.26-.27a.38.38,0,0,0,.23-.25,2,2,0,0,0,.11-.75v-.23h-.8a.92.92,0,0,0-.33,0,.28.28,0,0,0-.15.18,1.23,1.23,0,0,0,0,.43,1,1,0,0,0,0,.4.29.29,0,0,0,.17.19,1.13,1.13,0,0,0,.37.05A1.09,1.09,0,0,0,93.93,301.31Z"/><path class="bfe4f912-7fc8-407d-a77d-1c9ec23b3ce8" d="M96.91,301.71v-.46a4,4,0,0,0,.54.06l.49,0a2.48,2.48,0,0,0,.45,0,.58.58,0,0,0,.27-.14.49.49,0,0,0,.13-.26,3,3,0,0,0,0-.47,3.22,3.22,0,0,0,0-.54.31.31,0,0,0-.13-.22,1,1,0,0,0-.36-.11l-.81-.13a.75.75,0,0,1-.44-.2.72.72,0,0,1-.19-.39,2.71,2.71,0,0,1,0-.63,1.38,1.38,0,0,1,.31-1,1.32,1.32,0,0,1,1-.31,4.42,4.42,0,0,1,1.06.11v.44a5,5,0,0,0-1-.09,1.49,1.49,0,0,0-.47.06.51.51,0,0,0-.27.15.57.57,0,0,0-.12.26,2.3,2.3,0,0,0,0,.39,2.84,2.84,0,0,0,0,.47.31.31,0,0,0,.12.2.6.6,0,0,0,.28.09l.78.13a1.39,1.39,0,0,1,.46.14.66.66,0,0,1,.26.34,2.36,2.36,0,0,1,.08.8,2.43,2.43,0,0,1-.11.85.79.79,0,0,1-.39.45,1.63,1.63,0,0,1-.73.14A7.33,7.33,0,0,1,96.91,301.71Z"/><path class="bfe4f912-7fc8-407d-a77d-1c9ec23b3ce8" d="M99.51,297.51v0l.54-.93h.55l.53.93v0h-.35l-.46-.68-.46.68Zm.56,4.23v-3.57h.5v3.57Z"/><path class="bfe4f912-7fc8-407d-a77d-1c9ec23b3ce8" d="M101.44,298.17h.44l0,.67h0a.87.87,0,0,1,.32-.57,1.07,1.07,0,0,1,.6-.15v.5a.85.85,0,0,0-.56.16.81.81,0,0,0-.29.45,3.59,3.59,0,0,0-.08.82v1.69h-.5Z"/><path class="bfe4f912-7fc8-407d-a77d-1c9ec23b3ce8" d="M104.26,301.69a.73.73,0,0,1-.32-.44h0l0,.49h-.43v-5.2h.5v2.07h0a.7.7,0,0,1,.3-.38,1.06,1.06,0,0,1,.54-.11,1.07,1.07,0,0,1,.62.15.89.89,0,0,1,.31.55,6.39,6.39,0,0,1,.08,1.14,5.42,5.42,0,0,1-.09,1.14.94.94,0,0,1-.3.55,1.13,1.13,0,0,1-.63.15A1.27,1.27,0,0,1,104.26,301.69Zm.83-.43a.52.52,0,0,0,.18-.37,5.28,5.28,0,0,0,0-.93,5.14,5.14,0,0,0,0-.93.52.52,0,0,0-.18-.37.9.9,0,0,0-.47-.09.76.76,0,0,0-.4.09.58.58,0,0,0-.2.31,3.46,3.46,0,0,0-.07.41c0,.15,0,.34,0,.58s0,.43,0,.57a2,2,0,0,0,.06.39.5.5,0,0,0,.21.33.68.68,0,0,0,.4.1A.9.9,0,0,0,105.09,301.26Z"/><path class="bfe4f912-7fc8-407d-a77d-1c9ec23b3ce8" d="M108.41,301.25h0a.76.76,0,0,1-.29.41,1.31,1.31,0,0,1-1.18,0,.68.68,0,0,1-.26-.42,3.41,3.41,0,0,1-.07-.81v-2.26h.5v2.09a4.26,4.26,0,0,0,0,.73.44.44,0,0,0,.17.29.88.88,0,0,0,.42.07.62.62,0,0,0,.46-.15.68.68,0,0,0,.18-.41,5,5,0,0,0,0-.76v-1.86h.5v3.57h-.44Z"/><path class="bfe4f912-7fc8-407d-a77d-1c9ec23b3ce8" d="M114.24,299.09v.43h-.59v2.16l-.56.08a4,4,0,0,1-.57,0,2.4,2.4,0,0,1-1-.15.9.9,0,0,1-.44-.44,2,2,0,0,1-.11-.75,1.54,1.54,0,0,1,.16-.81.86.86,0,0,1,.5-.35v0a.82.82,0,0,1-.48-.36,1.56,1.56,0,0,1-.15-.77,1.79,1.79,0,0,1,.12-.7.85.85,0,0,1,.45-.42,2.2,2.2,0,0,1,.91-.15,4,4,0,0,1,.56,0,3.71,3.71,0,0,1,.55.09v.4l-.51-.07-.46,0a2.2,2.2,0,0,0-.73.09.53.53,0,0,0-.31.27,1.56,1.56,0,0,0-.07.55,1.48,1.48,0,0,0,.12.65.61.61,0,0,0,.56.23h.43v.43h-.43a.82.82,0,0,0-.46.11.47.47,0,0,0-.21.3,2.3,2.3,0,0,0,0,.53,1.27,1.27,0,0,0,.11.58.49.49,0,0,0,.32.26,1.89,1.89,0,0,0,.6.07,3.58,3.58,0,0,0,.61-.05v-2.23Z"/><path class="bfe4f912-7fc8-407d-a77d-1c9ec23b3ce8" d="M115.59,297.51v0l.54-.93h.55l.53.93v0h-.35l-.46-.68-.46.68Zm.56,4.23v-3.57h.5v3.57Z"/><path class="bfe4f912-7fc8-407d-a77d-1c9ec23b3ce8" d="M121,299.66a5.65,5.65,0,0,0,0-.73.43.43,0,0,0-.16-.29.71.71,0,0,0-.38-.07.61.61,0,0,0-.45.14.74.74,0,0,0-.18.4,7.33,7.33,0,0,0,0,.78v1.85h-.5v-2.08a4.18,4.18,0,0,0,0-.73.37.37,0,0,0-.15-.29.69.69,0,0,0-.37-.07.62.62,0,0,0-.46.15.7.7,0,0,0-.17.41,4.92,4.92,0,0,0,0,.76v1.85h-.5v-3.57H118l0,.5h0a.85.85,0,0,1,.27-.41,1,1,0,0,1,.57-.14,1.1,1.1,0,0,1,.57.12.68.68,0,0,1,.25.43h0a.76.76,0,0,1,.28-.41,1.06,1.06,0,0,1,.58-.14,1,1,0,0,1,.56.13.72.72,0,0,1,.26.43,4,4,0,0,1,.07.8v2.26H121Z"/><path class="bfe4f912-7fc8-407d-a77d-1c9ec23b3ce8" d="M123.17,301.69a.66.66,0,0,1-.32-.44h0l0,.49h-.43v-5.2h.49v2.07h0a.62.62,0,0,1,.3-.38,1,1,0,0,1,.53-.11,1.08,1.08,0,0,1,.63.15.84.84,0,0,1,.3.55,7.26,7.26,0,0,1,0,2.28.89.89,0,0,1-.31.55,1.08,1.08,0,0,1-.63.15A1.22,1.22,0,0,1,123.17,301.69Zm.82-.43a.49.49,0,0,0,.19-.37,6.51,6.51,0,0,0,0-.93,6.31,6.31,0,0,0,0-.93.49.49,0,0,0-.19-.37.86.86,0,0,0-.46-.09.76.76,0,0,0-.4.09.49.49,0,0,0-.2.31,1.59,1.59,0,0,0-.07.41c0,.15,0,.34,0,.58s0,.43,0,.57a2,2,0,0,0,.06.39.54.54,0,0,0,.2.33.71.71,0,0,0,.41.1A.86.86,0,0,0,124,301.26Z"/><path class="bfe4f912-7fc8-407d-a77d-1c9ec23b3ce8" d="M127.32,301.25h0a.76.76,0,0,1-.29.41,1.07,1.07,0,0,1-.59.14,1,1,0,0,1-.59-.14.69.69,0,0,1-.27-.42,4.17,4.17,0,0,1-.06-.81v-2.26H126v2.09a4,4,0,0,0,0,.73.4.4,0,0,0,.17.29.84.84,0,0,0,.41.07.61.61,0,0,0,.46-.15.75.75,0,0,0,.19-.41,5,5,0,0,0,0-.76v-1.86h.49v3.57h-.44Z"/><path class="bfe4f912-7fc8-407d-a77d-1c9ec23b3ce8" d="M130.48,299.66a4,4,0,0,0,0-.73.4.4,0,0,0-.17-.29.84.84,0,0,0-.41-.07.65.65,0,0,0-.47.15.68.68,0,0,0-.18.41,6.64,6.64,0,0,0,0,.76v1.85h-.49v-3.57h.43l0,.5h0a.77.77,0,0,1,.29-.41,1.09,1.09,0,0,1,.59-.14,1,1,0,0,1,.59.14.63.63,0,0,1,.27.42,4,4,0,0,1,.07.81v2.25h-.5Z"/><path class="bfe4f912-7fc8-407d-a77d-1c9ec23b3ce8" d="M131.85,301.58a1.2,1.2,0,0,1-.22-.82,1.75,1.75,0,0,1,.09-.63.56.56,0,0,1,.27-.33,1.32,1.32,0,0,1,.54-.09l.92,0v-.25a3,3,0,0,0,0-.63.39.39,0,0,0-.22-.26,1.63,1.63,0,0,0-.52-.06l-.42,0-.43.05v-.41a5.06,5.06,0,0,1,1-.09,1.72,1.72,0,0,1,.73.12.64.64,0,0,1,.33.4,3,3,0,0,1,.09.84v2.26h-.44l0-.49h0a.69.69,0,0,1-.34.44,1.35,1.35,0,0,1-.55.11A1,1,0,0,1,131.85,301.58Zm1.77-4.49a.51.51,0,0,1-.22.33.92.92,0,0,1-.53.12.87.87,0,0,1-.51-.12.51.51,0,0,1-.22-.33,2.62,2.62,0,0,1,0-.55h.35a2.13,2.13,0,0,0,0,.4.31.31,0,0,0,.11.2.46.46,0,0,0,.29.07.51.51,0,0,0,.31-.07.31.31,0,0,0,.11-.2,2,2,0,0,0,0-.4h.34A2.62,2.62,0,0,1,133.62,297.09Zm-.5,4.22a.41.41,0,0,0,.23-.25,2.23,2.23,0,0,0,.1-.75v-.23h-.79a1,1,0,0,0-.34,0,.28.28,0,0,0-.15.18,1.53,1.53,0,0,0,0,.43,1.25,1.25,0,0,0,0,.4.32.32,0,0,0,.17.19,1.2,1.2,0,0,0,.38.05A1.12,1.12,0,0,0,133.12,301.31Z"/><path class="bfe4f912-7fc8-407d-a77d-1c9ec23b3ce8" d="M135,301.74V298.6h-.52v-.43H135v-1h.5v1h.61v.43h-.61v3.14Z"/><path class="bfe4f912-7fc8-407d-a77d-1c9ec23b3ce8" d="M136.74,301.58a1.15,1.15,0,0,1-.22-.82,2.05,2.05,0,0,1,.08-.63.64.64,0,0,1,.27-.33,1.34,1.34,0,0,1,.55-.09l.92,0v-.25a2.31,2.31,0,0,0-.06-.63.38.38,0,0,0-.21-.26,1.66,1.66,0,0,0-.53-.06l-.41,0-.43.05v-.41a5,5,0,0,1,1-.09,1.69,1.69,0,0,1,.73.12.65.65,0,0,1,.34.4,3,3,0,0,1,.09.84v2.26h-.44l0-.49h0a.66.66,0,0,1-.34.44,1.27,1.27,0,0,1-.54.11A1,1,0,0,1,136.74,301.58Zm1.77-4.49a.54.54,0,0,1-.22.33.94.94,0,0,1-.53.12.91.91,0,0,1-.52-.12.53.53,0,0,1-.21-.33,2.51,2.51,0,0,1-.05-.55h.35a3.59,3.59,0,0,0,0,.4.37.37,0,0,0,.12.2.44.44,0,0,0,.29.07.53.53,0,0,0,.31-.07.31.31,0,0,0,.11-.2,3.59,3.59,0,0,0,0-.4h.35A2.62,2.62,0,0,1,138.51,297.09Zm-.51,4.22a.42.42,0,0,0,.24-.25,2.23,2.23,0,0,0,.1-.75v-.23h-.8a.92.92,0,0,0-.33,0,.28.28,0,0,0-.15.18,1.53,1.53,0,0,0-.05.43,1.25,1.25,0,0,0,.05.4.29.29,0,0,0,.17.19,1.16,1.16,0,0,0,.38.05A1.07,1.07,0,0,0,138,301.31Z"/><path class="bfe4f912-7fc8-407d-a77d-1c9ec23b3ce8" d="M139.92,301.74V298.6h-.52v-.43h.52v-1h.49v1H141v.43h-.62v3.14Zm.2,1.47a.6.6,0,0,0,.06-.32v-.11H140v-.6h.56v.54a2,2,0,0,1,0,.5.36.36,0,0,1-.19.24,1.24,1.24,0,0,1-.45.06v-.24C140,303.28,140.08,303.26,140.12,303.21Z"/><path class="bfe4f912-7fc8-407d-a77d-1c9ec23b3ce8" d="M141.6,297.12v-.58h.52v.58Zm0,4.62v-3.57h.5v3.57Z"/><path class="bfe4f912-7fc8-407d-a77d-1c9ec23b3ce8" d="M143.2,301.74V298.6h-.52v-.43h.52v-1h.5v1h.61v.43h-.61v3.14Z"/><path class="bfe4f912-7fc8-407d-a77d-1c9ec23b3ce8" d="M146.51,301.65a.94.94,0,0,1-.3-.54,5.61,5.61,0,0,1-.08-1.15,5.68,5.68,0,0,1,.08-1.14.89.89,0,0,1,.3-.55,1.07,1.07,0,0,1,.62-.15,1,1,0,0,1,.54.11.62.62,0,0,1,.3.38h0v-2.07h.49v5.2h-.44l0-.49h0a.66.66,0,0,1-.32.44,1.24,1.24,0,0,1-.54.11A1.11,1.11,0,0,1,146.51,301.65Zm1.22-.4a.5.5,0,0,0,.2-.32,1.68,1.68,0,0,0,.06-.41c0-.15,0-.36,0-.62a4.11,4.11,0,0,0-.06-.84.61.61,0,0,0-.21-.38.69.69,0,0,0-.43-.11.91.91,0,0,0-.46.09.52.52,0,0,0-.18.37,6.31,6.31,0,0,0,0,.93,6.51,6.51,0,0,0,0,.93.52.52,0,0,0,.19.37.86.86,0,0,0,.46.09A.71.71,0,0,0,147.73,301.25Z"/><path class="bfe4f912-7fc8-407d-a77d-1c9ec23b3ce8" d="M151.61,300.12h-1.84a4.85,4.85,0,0,0,0,.81.5.5,0,0,0,.23.35,1.34,1.34,0,0,0,.58.09,4.24,4.24,0,0,0,.88-.08v.41a3.13,3.13,0,0,1-.44.07l-.54,0a1.58,1.58,0,0,1-.83-.17.76.76,0,0,1-.34-.53,5.44,5.44,0,0,1-.08-1.14,7.82,7.82,0,0,1,.06-1.13.84.84,0,0,1,.33-.54,1.57,1.57,0,0,1,.82-.17,1.29,1.29,0,0,1,.77.17.77.77,0,0,1,.29.52,7.76,7.76,0,0,1,.06,1.15Zm-1.6-1.5a.45.45,0,0,0-.19.33,4.8,4.8,0,0,0,0,.8h1.36v-.09a3.28,3.28,0,0,0-.06-.74.41.41,0,0,0-.18-.31.84.84,0,0,0-.4-.07A1.12,1.12,0,0,0,150,298.62Z"/><path class="bfe4f912-7fc8-407d-a77d-1c9ec23b3ce8" d="M153.66,301.71v-.46a4.46,4.46,0,0,0,.54.06l.5,0a2.36,2.36,0,0,0,.44,0,.58.58,0,0,0,.27-.14.43.43,0,0,0,.13-.26,3,3,0,0,0,0-.47,3.58,3.58,0,0,0,0-.54.31.31,0,0,0-.13-.22,1,1,0,0,0-.36-.11l-.82-.13a.79.79,0,0,1-.44-.2.8.8,0,0,1-.19-.39,3.55,3.55,0,0,1,0-.63,1.42,1.42,0,0,1,.3-1,1.35,1.35,0,0,1,1-.31,4.36,4.36,0,0,1,1.06.11v.44a4.91,4.91,0,0,0-.94-.09,1.56,1.56,0,0,0-.48.06.51.51,0,0,0-.26.15.57.57,0,0,0-.12.26,2.21,2.21,0,0,0,0,.39,2.59,2.59,0,0,0,0,.47.3.3,0,0,0,.11.2.7.7,0,0,0,.28.09l.78.13a1.46,1.46,0,0,1,.47.14.66.66,0,0,1,.26.34,2.66,2.66,0,0,1,.08.8,2.69,2.69,0,0,1-.11.85.79.79,0,0,1-.39.45,1.68,1.68,0,0,1-.74.14A7.51,7.51,0,0,1,153.66,301.71Z"/><path class="bfe4f912-7fc8-407d-a77d-1c9ec23b3ce8" d="M156.81,297.12v-.58h.53v.58Zm0,4.62v-3.57h.49v3.57Z"/><path class="bfe4f912-7fc8-407d-a77d-1c9ec23b3ce8" d="M158.2,301.74v-5.2h.5v5.2Z"/><path class="bfe4f912-7fc8-407d-a77d-1c9ec23b3ce8" d="M160.24,301.74l-1-3.57h.52l.76,2.94h0l.75-2.94h.5l-1,3.57Z"/><path class="bfe4f912-7fc8-407d-a77d-1c9ec23b3ce8" d="M162.39,297.12v-.58h.53v.58Zm0,4.62v-3.57h.49v3.57Z"/><path class="bfe4f912-7fc8-407d-a77d-1c9ec23b3ce8" d="M163.79,301.58a1.21,1.21,0,0,1-.21-.82,1.78,1.78,0,0,1,.08-.63.56.56,0,0,1,.27-.33,1.32,1.32,0,0,1,.54-.09l.93,0v-.25a2.31,2.31,0,0,0-.06-.63.37.37,0,0,0-.22-.26,1.63,1.63,0,0,0-.52-.06l-.42,0-.43.05v-.41a5.06,5.06,0,0,1,1-.09,1.69,1.69,0,0,1,.73.12.64.64,0,0,1,.33.4,3,3,0,0,1,.09.84v2.26h-.44l0-.49h0a.66.66,0,0,1-.34.44,1.35,1.35,0,0,1-.55.11A1,1,0,0,1,163.79,301.58Zm1.27-.27a.41.41,0,0,0,.23-.25,2.2,2.2,0,0,0,.11-.75v-.23h-.8a.92.92,0,0,0-.33,0,.26.26,0,0,0-.16.18,1.6,1.6,0,0,0,0,.43,1.32,1.32,0,0,0,0,.4.32.32,0,0,0,.17.19,1.2,1.2,0,0,0,.38.05A1.12,1.12,0,0,0,165.06,301.31Z"/><path class="bfe4f912-7fc8-407d-a77d-1c9ec23b3ce8" d="M168.15,296.93h1.46a1,1,0,0,1,.85.31,1.3,1.3,0,0,1,.26.89,1.4,1.4,0,0,1-.17.77.8.8,0,0,1-.54.37v0a.79.79,0,0,1,.59.39,1.65,1.65,0,0,1,.16.8,1.48,1.48,0,0,1-.25.92,1.09,1.09,0,0,1-.93.34h-1.43Zm1.87,1.94a1,1,0,0,0,.18-.64,1.54,1.54,0,0,0-.06-.49.51.51,0,0,0-.23-.27,1,1,0,0,0-.45-.08h-.8v1.68h.8A.73.73,0,0,0,170,298.87Zm0,2.21a1,1,0,0,0,.16-.67,1.08,1.08,0,0,0-.16-.68.76.76,0,0,0-.59-.2h-.82v1.75h.82A.69.69,0,0,0,170.07,301.08Z"/><path class="bfe4f912-7fc8-407d-a77d-1c9ec23b3ce8" d="M171.82,301.65a.75.75,0,0,1-.32-.51,6.65,6.65,0,0,1-.07-1.18,6.58,6.58,0,0,1,.07-1.18.75.75,0,0,1,.32-.52,2.47,2.47,0,0,1,1.64,0,.71.71,0,0,1,.31.52,6.58,6.58,0,0,1,.07,1.18,6.65,6.65,0,0,1-.07,1.18.71.71,0,0,1-.31.51,2.32,2.32,0,0,1-1.64,0Zm1.31-.38a.45.45,0,0,0,.18-.36,6.88,6.88,0,0,0,0-1,6.78,6.78,0,0,0,0-.95.49.49,0,0,0-.18-.37.94.94,0,0,0-.49-.1,1,1,0,0,0-.5.1.52.52,0,0,0-.17.37,11.3,11.3,0,0,0,0,1.9.47.47,0,0,0,.17.36.89.89,0,0,0,.5.1A.85.85,0,0,0,173.13,301.27Z"/><path class="bfe4f912-7fc8-407d-a77d-1c9ec23b3ce8" d="M174.63,303.09v-.41l.85,0a1.25,1.25,0,0,0,.6-.11.54.54,0,0,0,.25-.36,4.29,4.29,0,0,0,.06-.85v-.1h0a.67.67,0,0,1-.29.38,1.2,1.2,0,0,1-.54.11,1.06,1.06,0,0,1-.64-.16.83.83,0,0,1-.29-.54,5.25,5.25,0,0,1-.09-1.13,5.42,5.42,0,0,1,.09-1.14.88.88,0,0,1,.3-.54,1.08,1.08,0,0,1,.63-.15,1.24,1.24,0,0,1,.54.11.72.72,0,0,1,.32.44h0l0-.5h.44v3.06a6.35,6.35,0,0,1-.08,1.15.86.86,0,0,1-.37.57,1.5,1.5,0,0,1-.86.19A9.36,9.36,0,0,1,174.63,303.09Zm1.48-1.86a.6.6,0,0,0,.2-.33,4.26,4.26,0,0,0,.08-.95c0-.22,0-.4,0-.54a1.68,1.68,0,0,0-.06-.36.61.61,0,0,0-.21-.37.63.63,0,0,0-.41-.11.9.9,0,0,0-.47.09.51.51,0,0,0-.18.36,8.67,8.67,0,0,0,0,1.86.54.54,0,0,0,.18.37.9.9,0,0,0,.47.09A.71.71,0,0,0,176.11,301.23Z"/><path class="bfe4f912-7fc8-407d-a77d-1c9ec23b3ce8" d="M178,301.65a.94.94,0,0,1-.3-.54,5.47,5.47,0,0,1-.09-1.15,5.55,5.55,0,0,1,.09-1.14.88.88,0,0,1,.29-.55,1.13,1.13,0,0,1,.63-.15,1.08,1.08,0,0,1,.54.11.66.66,0,0,1,.3.38h0v-2.07H180v5.2h-.44l0-.49h0a.69.69,0,0,1-.32.44,1.27,1.27,0,0,1-.54.11A1.08,1.08,0,0,1,178,301.65Zm1.22-.4a.54.54,0,0,0,.2-.32,2.37,2.37,0,0,0,.06-.41c0-.15,0-.36,0-.62a3.94,3.94,0,0,0-.07-.84.56.56,0,0,0-.2-.38.69.69,0,0,0-.43-.11.88.88,0,0,0-.46.09.52.52,0,0,0-.18.37,5.14,5.14,0,0,0,0,.93,6.51,6.51,0,0,0,0,.93.52.52,0,0,0,.18.37.93.93,0,0,0,.47.09A.71.71,0,0,0,179.26,301.25Z"/><path class="bfe4f912-7fc8-407d-a77d-1c9ec23b3ce8" d="M180.93,301.58a1.15,1.15,0,0,1-.22-.82,2.05,2.05,0,0,1,.08-.63.61.61,0,0,1,.28-.33,1.25,1.25,0,0,1,.54-.09l.92,0v-.25a2.31,2.31,0,0,0-.06-.63.37.37,0,0,0-.22-.26,1.55,1.55,0,0,0-.52-.06l-.41,0-.43.05v-.41a5,5,0,0,1,1-.09,1.69,1.69,0,0,1,.73.12.62.62,0,0,1,.34.4,3,3,0,0,1,.09.84v2.26h-.44l0-.49h0a.66.66,0,0,1-.34.44,1.27,1.27,0,0,1-.54.11A1,1,0,0,1,180.93,301.58Zm1.27-.27a.44.44,0,0,0,.23-.25,2.23,2.23,0,0,0,.1-.75v-.23h-.8a.92.92,0,0,0-.33,0,.28.28,0,0,0-.15.18,1.53,1.53,0,0,0-.05.43,1.25,1.25,0,0,0,.05.4.29.29,0,0,0,.17.19,1.41,1.41,0,0,0,.78,0Z"/><path class="bfe4f912-7fc8-407d-a77d-1c9ec23b3ce8" d="M185.7,299.66a4.26,4.26,0,0,0,0-.73.44.44,0,0,0-.17-.29.91.91,0,0,0-.42-.07.65.65,0,0,0-.47.15.74.74,0,0,0-.18.41,7.16,7.16,0,0,0,0,.76v1.85h-.5v-3.57h.43l0,.5h0a.83.83,0,0,1,.29-.41,1.11,1.11,0,0,1,.6-.14,1,1,0,0,1,.59.14.65.65,0,0,1,.26.42,3.41,3.41,0,0,1,.07.81v2.25h-.5Z"/><path class="bfe4f912-7fc8-407d-a77d-1c9ec23b3ce8" d="M43.1,50.15s-.73,1-.38,1.34c0,0,.13.08.29-.13a8.33,8.33,0,0,0,.22-1.16s0-.2-.13-.05"/><path class="bb4cf8d2-ef04-41bb-b898-da9c24a25749" d="M43.1,50.15s-.73,1-.38,1.34c0,0,.13.08.29-.13a8.33,8.33,0,0,0,.22-1.16S43.27,50,43.1,50.15Z"/><path class="bfe4f912-7fc8-407d-a77d-1c9ec23b3ce8" d="M42.62,52.58s-.37.68-.22.62.42-.77.22-.62"/><path class="f130e7f6-579a-4739-9beb-fffe5d1c3c00" d="M42.62,52.58s-.37.68-.22.62S42.82,52.43,42.62,52.58Z"/><path class="bfe4f912-7fc8-407d-a77d-1c9ec23b3ce8" d="M42.09,58.12c-.55-.34-.34-.61-.34-.61.12-.22.39.52.39.52s.08.17,0,.09"/><path class="f130e7f6-579a-4739-9beb-fffe5d1c3c00" d="M42.09,58.12c-.55-.34-.34-.61-.34-.61.12-.22.39.52.39.52S42.22,58.2,42.09,58.12Z"/><path class="f3f5449a-92f5-44b2-bfc7-7303cbe028c9" d="M64.24,50.38A13.94,13.94,0,1,1,50.3,36.3,14,14,0,0,1,64.24,50.38"/><path class="bfe4f912-7fc8-407d-a77d-1c9ec23b3ce8" d="M45.92,53.3l-.19-.79s-.21-.33.38-1.58a6.28,6.28,0,0,0,0-2.84s-.94-4.05,1.45-6.16a6.21,6.21,0,0,1,6.18-2s3,.6,4.21,4.45a6.37,6.37,0,0,1-1.18,5.81,13.34,13.34,0,0,1-1.9,1.69,11.07,11.07,0,0,0-1.53,1.43,8,8,0,0,0-1,1.68,2.39,2.39,0,0,1-1.18.77,13.17,13.17,0,0,1-5.26-2.45"/><path class="f130e7f6-579a-4739-9beb-fffe5d1c3c00" d="M45.92,53.3l-.19-.79s-.21-.33.38-1.58a6.28,6.28,0,0,0,0-2.84s-.94-4.05,1.45-6.16a6.21,6.21,0,0,1,6.18-2s3,.6,4.21,4.45a6.37,6.37,0,0,1-1.18,5.81,13.34,13.34,0,0,1-1.9,1.69,11.07,11.07,0,0,0-1.53,1.43,8,8,0,0,0-1,1.68,2.39,2.39,0,0,1-1.18.77A13.17,13.17,0,0,1,45.92,53.3Z"/><path class="bfe4f912-7fc8-407d-a77d-1c9ec23b3ce8" d="M45.92,53.3l-.35.82s-.11.18.13.37l-.2.38s-.56-.19-.23.32l-.17.41s-.52-.06-.15.35l-.19.38s-.46-.08-.16.34l-.17.4s-.5-.37.48,1.63L44.8,59l.57.68a1,1,0,0,0,1.28.68l.93,0,.17-.14s1.52-.42,1.52-.69c0,0,.74.11.36-.43l.11-.36s.58.07.25-.4l.06-.36s.56.09.27-.4l.12-.38s.6,0,.23-.43a1.76,1.76,0,0,0,.51-1,13.88,13.88,0,0,1-5.26-2.45"/><path class="f130e7f6-579a-4739-9beb-fffe5d1c3c00" d="M45.92,53.3l-.35.82s-.11.18.13.37l-.2.38s-.56-.19-.23.32l-.17.41s-.52-.06-.15.35l-.19.38s-.46-.08-.16.34l-.17.4s-.5-.37.48,1.63L44.8,59l.57.68a1,1,0,0,0,1.28.68l.93,0,.17-.14s1.52-.42,1.52-.69c0,0,.74.11.36-.43l.11-.36s.58.07.25-.4l.06-.36s.56.09.27-.4l.12-.38s.6,0,.23-.43a1.76,1.76,0,0,0,.51-1A13.88,13.88,0,0,1,45.92,53.3Z"/><path class="bfe4f912-7fc8-407d-a77d-1c9ec23b3ce8" d="M50.61,56.75c0,.06-.48,0-2.35-.47l2.16.84s.6.09.19-.37"/><path class="f3f5449a-92f5-44b2-bfc7-7303cbe028c9" d="M50.61,56.75c0,.06-.48,0-2.35-.47l2.16.84S51,57.21,50.61,56.75Z"/><path class="bfe4f912-7fc8-407d-a77d-1c9ec23b3ce8" d="M45.52,54.93a9.17,9.17,0,0,0,2.07,1.12l-2.27-.88s-.35-.44.2-.24"/><path class="f3f5449a-92f5-44b2-bfc7-7303cbe028c9" d="M45.52,54.93a9.17,9.17,0,0,0,2.07,1.12l-2.27-.88S45,54.73,45.52,54.93Z"/><path class="bfe4f912-7fc8-407d-a77d-1c9ec23b3ce8" d="M45.12,55.64a10.15,10.15,0,0,0,2.16,1.18L45,55.93s-.38-.33.11-.29"/><path class="f3f5449a-92f5-44b2-bfc7-7303cbe028c9" d="M45.12,55.64a10.15,10.15,0,0,0,2.16,1.18L45,55.93S44.63,55.6,45.12,55.64Z"/><path class="bfe4f912-7fc8-407d-a77d-1c9ec23b3ce8" d="M44.79,56.39A11.7,11.7,0,0,0,47,57.55l-2.3-.89s-.31-.38.14-.27"/><path class="f3f5449a-92f5-44b2-bfc7-7303cbe028c9" d="M44.79,56.39A11.7,11.7,0,0,0,47,57.55l-2.3-.89S44.34,56.28,44.79,56.39Z"/><path class="bfe4f912-7fc8-407d-a77d-1c9ec23b3ce8" d="M44.45,57.14a25.27,25.27,0,0,0,2.28,1.12l-2.34-.91s-.16-.4.06-.21"/><path class="f3f5449a-92f5-44b2-bfc7-7303cbe028c9" d="M44.45,57.14a25.27,25.27,0,0,0,2.28,1.12l-2.34-.91S44.23,57,44.45,57.14Z"/><path class="a2091aa6-cd68-4912-bfaa-073b09904fb3" d="M50.26,57.56c0,.06-.51,0-2.38-.51l2.15.84s.54.13.23-.33"/><path class="f3f5449a-92f5-44b2-bfc7-7303cbe028c9" d="M50.26,57.56c0,.06-.51,0-2.38-.51l2.15.84S50.57,58,50.26,57.56Z"/><path class="bfe4f912-7fc8-407d-a77d-1c9ec23b3ce8" d="M50,58.33a7.61,7.61,0,0,1-2.41-.51l2.17.84s.56.1.24-.33"/><path class="f3f5449a-92f5-44b2-bfc7-7303cbe028c9" d="M50,58.33a7.61,7.61,0,0,1-2.41-.51l2.17.84S50.27,58.76,50,58.33Z"/><path class="bfe4f912-7fc8-407d-a77d-1c9ec23b3ce8" d="M49.59,59.09c0,.06-.5,0-2.37-.49l2,.85s.75.13.37-.36"/><path class="f3f5449a-92f5-44b2-bfc7-7303cbe028c9" d="M49.59,59.09c0,.06-.5,0-2.37-.49l2,.85S50,59.58,49.59,59.09Z"/><path class="bfe4f912-7fc8-407d-a77d-1c9ec23b3ce8" d="M47.74,60.15l-1.89-.65s.64.4.63.5-1-.09-1.07-.36a.9.9,0,0,0,1.23.66l.92,0Z"/><path class="f130e7f6-579a-4739-9beb-fffe5d1c3c00" d="M47.74,60.15l-1.89-.65s.64.4.63.5-1-.09-1.07-.36a.9.9,0,0,0,1.23.66l.92,0Z"/><path class="bfe4f912-7fc8-407d-a77d-1c9ec23b3ce8" d="M46.63,54.16s2,1.31,1.82.93c0,0-2.41-1.49-1.82-.93"/><path class="f130e7f6-579a-4739-9beb-fffe5d1c3c00" d="M46.63,54.16s2,1.31,1.82.93C48.45,55.09,46,53.6,46.63,54.16Z"/><path class="fae5ae25-3e9a-4cd5-be57-683f84ea038c" d="M92,101.52a7.64,7.64,0,0,1-1.23.1,4.68,4.68,0,0,1-2.67-.6,3.07,3.07,0,0,1-1.14-2,23,23,0,0,1-.28-4.22,23,23,0,0,1,.29-4.22,3.09,3.09,0,0,1,1.16-2,4.64,4.64,0,0,1,2.64-.6,10.69,10.69,0,0,1,1.27.08,4.74,4.74,0,0,1,1,.23v2.17a15.86,15.86,0,0,0-1.71-.14,2.56,2.56,0,0,0-1.36.26,1.53,1.53,0,0,0-.49,1.12,30.49,30.49,0,0,0-.1,3.1,30.49,30.49,0,0,0,.1,3.1A1.48,1.48,0,0,0,89.92,99a2.47,2.47,0,0,0,1.36.26A11.18,11.18,0,0,0,93,99.14v2.15A6.37,6.37,0,0,1,92,101.52Z"/><path class="fae5ae25-3e9a-4cd5-be57-683f84ea038c" d="M95.39,101.19a2,2,0,0,1-1-1.43,25,25,0,0,1,0-6.47,2.07,2.07,0,0,1,1-1.44,5.09,5.09,0,0,1,2.4-.42,5.17,5.17,0,0,1,2.41.42,2.1,2.1,0,0,1,1,1.44,25,25,0,0,1,0,6.47,2.06,2.06,0,0,1-1,1.43,5,5,0,0,1-2.41.43A5,5,0,0,1,95.39,101.19Zm3.17-1.84a1.11,1.11,0,0,0,.25-.72c0-.37,0-1.07,0-2.11s0-1.73,0-2.1a1.12,1.12,0,0,0-.25-.73,1.28,1.28,0,0,0-.77-.17,1.25,1.25,0,0,0-.76.17,1.07,1.07,0,0,0-.25.73c0,.37,0,1.07,0,2.1s0,1.74,0,2.11a1.06,1.06,0,0,0,.25.72,1.17,1.17,0,0,0,.76.18A1.2,1.2,0,0,0,98.56,99.35Z"/><path class="fae5ae25-3e9a-4cd5-be57-683f84ea038c" d="M103.53,93.67h-1.22V91.58h1.22V91a7.76,7.76,0,0,1,.32-2.68,1.61,1.61,0,0,1,1.11-1,11.24,11.24,0,0,1,2.7-.22v1.86a5.38,5.38,0,0,0-1.1.08.61.61,0,0,0-.43.39,3.6,3.6,0,0,0-.1,1v1.14h1.63v2.09H106v7.79h-2.5Z"/><path class="fae5ae25-3e9a-4cd5-be57-683f84ea038c" d="M115.56,97.3h-4.4a7.61,7.61,0,0,0,.1,1.53.72.72,0,0,0,.44.56,4,4,0,0,0,1.26.14q.74,0,2.37-.12v1.92c-.35.07-.8.14-1.36.2a14.67,14.67,0,0,1-1.59.09,4.76,4.76,0,0,1-2.51-.51,2.31,2.31,0,0,1-1-1.53,21,21,0,0,1,0-6.06,2.39,2.39,0,0,1,1-1.56,4.19,4.19,0,0,1,2.39-.53,4.08,4.08,0,0,1,2.29.49,2.19,2.19,0,0,1,.88,1.48,22.94,22.94,0,0,1,.16,3.14Zm-4-3.67a.83.83,0,0,0-.28.57,9,9,0,0,0-.08,1.41h2.06a9.19,9.19,0,0,0-.08-1.42.79.79,0,0,0-.27-.56,1.21,1.21,0,0,0-.66-.13A1.31,1.31,0,0,0,111.52,93.63Z"/><path class="fae5ae25-3e9a-4cd5-be57-683f84ea038c" d="M117.75,101.46V93.67h-1.22V91.58h1.22V88.71h2.5v2.87h1.57v2.09h-1.57v7.79Z"/><path class="fae5ae25-3e9a-4cd5-be57-683f84ea038c" d="M123.1,100.89a3.9,3.9,0,0,1-.53-2.27,5.39,5.39,0,0,1,.24-1.8,1.65,1.65,0,0,1,.78-.95,3.26,3.26,0,0,1,1.54-.3c.47,0,1.09,0,1.86.08v-.44a3.89,3.89,0,0,0-.12-1.16.68.68,0,0,0-.47-.43,4.57,4.57,0,0,0-1.17-.1c-.54,0-1.27,0-2.17.13V91.72a14.39,14.39,0,0,1,2.92-.29,5.1,5.1,0,0,1,2.21.38,2,2,0,0,1,1,1.23,8,8,0,0,1,.27,2.38v6h-2.38L127,100.3h-.14a1.73,1.73,0,0,1-.81,1,2.61,2.61,0,0,1-1.26.3A2,2,0,0,1,123.1,100.89Zm3.34-1.52a.72.72,0,0,0,.34-.29,2.83,2.83,0,0,0,.21-1.34v-.48h-1.16a.82.82,0,0,0-.67.21,1.69,1.69,0,0,0-.17.93,1.42,1.42,0,0,0,.17.83c.11.15.36.22.75.22A1.56,1.56,0,0,0,126.44,99.37Z"/><path class="fae5ae25-3e9a-4cd5-be57-683f84ea038c" d="M131.23,91.58h2.37l.08,1.63h.15a2.52,2.52,0,0,1,.83-1.4,2.55,2.55,0,0,1,1.46-.38V94a3.32,3.32,0,0,0-1.39.25,1.55,1.55,0,0,0-.75.9,5,5,0,0,0-.25,1.78v4.49h-2.5Z"/><path class="a4637792-3619-4a2b-a9cf-3e642470b6e1" d="M70.41,127.61V127l.77.08c.28,0,.51,0,.71,0a2.62,2.62,0,0,0,.63-.06.8.8,0,0,0,.39-.19.71.71,0,0,0,.18-.38,3.9,3.9,0,0,0,0-.67,5.91,5.91,0,0,0,0-.77.47.47,0,0,0-.19-.32,1.49,1.49,0,0,0-.51-.15l-1.16-.18a1.16,1.16,0,0,1-.63-.29,1.11,1.11,0,0,1-.28-.55,5.5,5.5,0,0,1-.06-.91,2,2,0,0,1,.44-1.48,1.94,1.94,0,0,1,1.41-.43,5.84,5.84,0,0,1,1.52.16v.62a7.7,7.7,0,0,0-1.35-.12,2.44,2.44,0,0,0-.68.07.75.75,0,0,0-.38.23.67.67,0,0,0-.17.37,2.86,2.86,0,0,0,0,.56,3.5,3.5,0,0,0,0,.66.41.41,0,0,0,.16.29,1.32,1.32,0,0,0,.4.13l1.12.18a1.71,1.71,0,0,1,.66.21.89.89,0,0,1,.37.48,3.51,3.51,0,0,1,.12,1.15,3.58,3.58,0,0,1-.17,1.21,1.16,1.16,0,0,1-.55.64,2.33,2.33,0,0,1-1,.2A11.22,11.22,0,0,1,70.41,127.61Z"/><path class="a4637792-3619-4a2b-a9cf-3e642470b6e1" d="M78.1,125.34H75.48a6.32,6.32,0,0,0,.07,1.16.68.68,0,0,0,.32.49,1.85,1.85,0,0,0,.83.14A7.29,7.29,0,0,0,78,127v.58a5.24,5.24,0,0,1-.63.1c-.27,0-.53,0-.77,0a2.21,2.21,0,0,1-1.18-.24,1.13,1.13,0,0,1-.49-.76,8.07,8.07,0,0,1-.12-1.62,9.15,9.15,0,0,1,.1-1.62,1.11,1.11,0,0,1,.46-.77,2.14,2.14,0,0,1,1.18-.25,1.91,1.91,0,0,1,1.09.24,1.07,1.07,0,0,1,.41.75,10.47,10.47,0,0,1,.09,1.64Zm-2.28-2.14a.65.65,0,0,0-.28.46,7.58,7.58,0,0,0-.06,1.15h1.94v-.12a5.38,5.38,0,0,0-.08-1.07.66.66,0,0,0-.27-.44,1.19,1.19,0,0,0-.57-.1A1.42,1.42,0,0,0,75.82,123.2Z"/><path class="a4637792-3619-4a2b-a9cf-3e642470b6e1" d="M81.53,127.53a1.07,1.07,0,0,1-.46-.73,14.33,14.33,0,0,1,0-3.38,1,1,0,0,1,.46-.73,2.43,2.43,0,0,1,1.17-.21,2.36,2.36,0,0,1,1.16.21,1,1,0,0,1,.46.73,14.33,14.33,0,0,1,0,3.38,1,1,0,0,1-.46.73,2.36,2.36,0,0,1-1.16.21A2.43,2.43,0,0,1,81.53,127.53ZM83.4,127a.74.74,0,0,0,.26-.52,13.3,13.3,0,0,0,0-1.36,13,13,0,0,0,0-1.36.7.7,0,0,0-.26-.52,1.22,1.22,0,0,0-.7-.14,1.24,1.24,0,0,0-.71.14.72.72,0,0,0-.26.52,13.3,13.3,0,0,0,0,1.36,13.07,13.07,0,0,0,0,1.35A.74.74,0,0,0,82,127a1.33,1.33,0,0,0,.71.14A1.31,1.31,0,0,0,83.4,127Z"/><path class="a4637792-3619-4a2b-a9cf-3e642470b6e1" d="M87.56,127.7a5.66,5.66,0,0,1-.57,0,1.84,1.84,0,0,1-1.09-.26,1.22,1.22,0,0,1-.44-.79,8.93,8.93,0,0,1-.1-1.58,8,8,0,0,1,.12-1.6,1.3,1.3,0,0,1,.47-.79,1.74,1.74,0,0,1,1-.24l.58,0a3,3,0,0,1,.48.1v.58a3.82,3.82,0,0,0-.9-.1,1.28,1.28,0,0,0-.7.15.88.88,0,0,0-.29.56,8.07,8.07,0,0,0-.07,1.3,8.44,8.44,0,0,0,.07,1.32.82.82,0,0,0,.3.56,1.25,1.25,0,0,0,.7.15,3.74,3.74,0,0,0,.92-.11v.59A2.82,2.82,0,0,1,87.56,127.7Z"/><path class="a4637792-3619-4a2b-a9cf-3e642470b6e1" d="M91.63,127h0a1.09,1.09,0,0,1-.42.58,1.43,1.43,0,0,1-.84.21,1.5,1.5,0,0,1-.85-.2,1,1,0,0,1-.38-.61,5.6,5.6,0,0,1-.09-1.15v-3.22h.71v3a6.29,6.29,0,0,0,.06,1A.62.62,0,0,0,90,127a1.2,1.2,0,0,0,.59.11.86.86,0,0,0,.66-.22,1,1,0,0,0,.26-.59,7.32,7.32,0,0,0,.06-1.08v-2.65h.71v5.1h-.63Z"/><path class="a4637792-3619-4a2b-a9cf-3e642470b6e1" d="M93.56,122.56h.62l0,.71h.06a1,1,0,0,1,.45-.63,1.65,1.65,0,0,1,.77-.16,1.54,1.54,0,0,1,.9.22,1.22,1.22,0,0,1,.43.77A8.1,8.1,0,0,1,97,125.1a8.25,8.25,0,0,1-.12,1.63,1.28,1.28,0,0,1-.43.78,1.53,1.53,0,0,1-.9.23,1.62,1.62,0,0,1-.76-.16,1,1,0,0,1-.43-.54h0v2.55h-.71ZM95.91,127a.81.81,0,0,0,.27-.53,9.76,9.76,0,0,0,.07-1.33,9.65,9.65,0,0,0-.07-1.33.76.76,0,0,0-.27-.53,1.21,1.21,0,0,0-.66-.13,1,1,0,0,0-.59.15.82.82,0,0,0-.3.5,2.79,2.79,0,0,0-.08.55c0,.2,0,.47,0,.79a5.8,5.8,0,0,0,.08,1.25,1,1,0,0,0,.3.57,1,1,0,0,0,.6.17A1.31,1.31,0,0,0,95.91,127Z"/><path class="a4637792-3619-4a2b-a9cf-3e642470b6e1" d="M98.08,127.42a1.66,1.66,0,0,1-.31-1.16,3.08,3.08,0,0,1,.11-.91.78.78,0,0,1,.39-.46,1.65,1.65,0,0,1,.78-.14c.19,0,.63,0,1.32,0v-.36a3.24,3.24,0,0,0-.09-.91.52.52,0,0,0-.31-.36,2.56,2.56,0,0,0-.74-.08l-.6,0c-.24,0-.45,0-.61.08v-.58a6.24,6.24,0,0,1,1.41-.14,2.36,2.36,0,0,1,1,.17.91.91,0,0,1,.48.58,4.43,4.43,0,0,1,.13,1.2v3.23h-.63l0-.7h0a.93.93,0,0,1-.49.62,1.73,1.73,0,0,1-.78.16A1.36,1.36,0,0,1,98.08,127.42Zm2.52-6.4a.77.77,0,0,1-.31.46,1.34,1.34,0,0,1-.75.17,1.3,1.3,0,0,1-.74-.17.77.77,0,0,1-.31-.46,4.16,4.16,0,0,1-.06-.79h.5a3.78,3.78,0,0,0,0,.56.42.42,0,0,0,.16.29.64.64,0,0,0,.42.11.69.69,0,0,0,.43-.11.43.43,0,0,0,.17-.29,3.78,3.78,0,0,0,0-.56h.5A3.39,3.39,0,0,1,100.6,121Zm-.71,6a.62.62,0,0,0,.33-.36,3.16,3.16,0,0,0,.15-1.07v-.33H99.23a1.43,1.43,0,0,0-.48.06.39.39,0,0,0-.22.26,2.24,2.24,0,0,0-.06.61,2.09,2.09,0,0,0,.06.58.43.43,0,0,0,.25.26,1.46,1.46,0,0,0,.54.08A1.55,1.55,0,0,0,99.89,127Z"/><path class="a4637792-3619-4a2b-a9cf-3e642470b6e1" d="M106.27,127.7c-.2,0-.39,0-.57,0a1.84,1.84,0,0,1-1.09-.26,1.22,1.22,0,0,1-.44-.79,8.93,8.93,0,0,1-.1-1.58,8,8,0,0,1,.12-1.6,1.3,1.3,0,0,1,.47-.79,1.74,1.74,0,0,1,1-.24l.58,0a3,3,0,0,1,.48.1v.58a3.82,3.82,0,0,0-.9-.1,1.25,1.25,0,0,0-.7.15.88.88,0,0,0-.29.56,8.07,8.07,0,0,0-.07,1.3,8.44,8.44,0,0,0,.07,1.32.82.82,0,0,0,.3.56,1.25,1.25,0,0,0,.7.15,3.74,3.74,0,0,0,.92-.11v.59A2.82,2.82,0,0,1,106.27,127.7Z"/><path class="a4637792-3619-4a2b-a9cf-3e642470b6e1" d="M110.34,127h0a1.09,1.09,0,0,1-.42.58,1.45,1.45,0,0,1-.84.21,1.5,1.5,0,0,1-.85-.2,1,1,0,0,1-.38-.61,5.6,5.6,0,0,1-.09-1.15v-3.22h.71v3a6.29,6.29,0,0,0,.06,1,.62.62,0,0,0,.25.41,1.2,1.2,0,0,0,.59.11.86.86,0,0,0,.66-.22,1,1,0,0,0,.26-.59,7.32,7.32,0,0,0,.06-1.08v-2.65H111v5.1h-.63Z"/><path class="a4637792-3619-4a2b-a9cf-3e642470b6e1" d="M114.19,122.56h.62l0,.71h.06a1,1,0,0,1,.45-.63,1.65,1.65,0,0,1,.77-.16,1.54,1.54,0,0,1,.9.22,1.22,1.22,0,0,1,.43.77,8.1,8.1,0,0,1,.13,1.63,8.25,8.25,0,0,1-.12,1.63,1.28,1.28,0,0,1-.43.78,1.53,1.53,0,0,1-.9.23,1.62,1.62,0,0,1-.76-.16A1,1,0,0,1,115,127h0v2.55h-.71Zm2.35,4.41a.81.81,0,0,0,.27-.53,9.76,9.76,0,0,0,.07-1.33,9.65,9.65,0,0,0-.07-1.33.76.76,0,0,0-.27-.53,1.21,1.21,0,0,0-.66-.13,1,1,0,0,0-.59.15.82.82,0,0,0-.3.5,2.79,2.79,0,0,0-.08.55c0,.2,0,.47,0,.79a5.8,5.8,0,0,0,.08,1.25,1,1,0,0,0,.3.57,1,1,0,0,0,.6.17A1.31,1.31,0,0,0,116.54,127Z"/><path class="a4637792-3619-4a2b-a9cf-3e642470b6e1" d="M118.69,122.56h.62l0,1h.06a1.18,1.18,0,0,1,.45-.81,1.52,1.52,0,0,1,.87-.22v.72a1.28,1.28,0,0,0-.81.22,1.11,1.11,0,0,0-.41.65,4.63,4.63,0,0,0-.11,1.17v2.42h-.71Z"/><path class="a4637792-3619-4a2b-a9cf-3e642470b6e1" d="M124.71,125.34h-2.62a6.32,6.32,0,0,0,.07,1.16.68.68,0,0,0,.32.49,1.82,1.82,0,0,0,.83.14,7.29,7.29,0,0,0,1.26-.11v.58a5.24,5.24,0,0,1-.63.1c-.27,0-.53,0-.77,0a2.21,2.21,0,0,1-1.18-.24,1.13,1.13,0,0,1-.49-.76,8.07,8.07,0,0,1-.12-1.62,9.15,9.15,0,0,1,.1-1.62,1.11,1.11,0,0,1,.46-.77,2.11,2.11,0,0,1,1.18-.25,1.91,1.91,0,0,1,1.09.24,1.11,1.11,0,0,1,.41.75,10.47,10.47,0,0,1,.09,1.64Zm-2.28-2.14a.62.62,0,0,0-.28.46,7.58,7.58,0,0,0-.06,1.15H124v-.12a5.38,5.38,0,0,0-.08-1.07.7.7,0,0,0-.27-.44,1.19,1.19,0,0,0-.57-.1A1.42,1.42,0,0,0,122.43,123.2Z"/><path class="a4637792-3619-4a2b-a9cf-3e642470b6e1" d="M125.82,122.56h.62l0,.71h.06a1,1,0,0,1,.45-.63,1.65,1.65,0,0,1,.77-.16,1.54,1.54,0,0,1,.9.22,1.22,1.22,0,0,1,.43.77,8.1,8.1,0,0,1,.13,1.63,8.25,8.25,0,0,1-.12,1.63,1.28,1.28,0,0,1-.43.78,1.53,1.53,0,0,1-.9.23,1.62,1.62,0,0,1-.76-.16,1,1,0,0,1-.43-.54h0v2.55h-.71Zm2.35,4.41a.81.81,0,0,0,.27-.53,9.76,9.76,0,0,0,.07-1.33,9.65,9.65,0,0,0-.07-1.33.76.76,0,0,0-.27-.53,1.21,1.21,0,0,0-.66-.13,1,1,0,0,0-.59.15.82.82,0,0,0-.3.5,2.79,2.79,0,0,0-.08.55c0,.2,0,.47,0,.79a5.8,5.8,0,0,0,.08,1.25,1,1,0,0,0,.3.57,1,1,0,0,0,.6.17A1.31,1.31,0,0,0,128.17,127Z"/><path class="a4637792-3619-4a2b-a9cf-3e642470b6e1" d="M130.34,127.42a1.66,1.66,0,0,1-.31-1.16,2.78,2.78,0,0,1,.11-.91.78.78,0,0,1,.39-.46,1.65,1.65,0,0,1,.78-.14c.19,0,.63,0,1.32,0v-.36a3.24,3.24,0,0,0-.09-.91.54.54,0,0,0-.31-.36,2.56,2.56,0,0,0-.74-.08l-.6,0c-.24,0-.45,0-.61.08v-.58a6.24,6.24,0,0,1,1.41-.14,2.36,2.36,0,0,1,1,.17.91.91,0,0,1,.48.58,4.43,4.43,0,0,1,.13,1.2v3.23h-.63l0-.7h0a1,1,0,0,1-.49.62,1.73,1.73,0,0,1-.78.16A1.36,1.36,0,0,1,130.34,127.42Zm1.81-.38a.62.62,0,0,0,.33-.36,3.16,3.16,0,0,0,.15-1.07v-.33h-1.14a1.4,1.4,0,0,0-.48.06.39.39,0,0,0-.22.26,2.24,2.24,0,0,0-.06.61,2.09,2.09,0,0,0,.06.58.43.43,0,0,0,.25.26,1.46,1.46,0,0,0,.54.08A1.55,1.55,0,0,0,132.15,127Z"/><path class="a4637792-3619-4a2b-a9cf-3e642470b6e1" d="M134.57,122.56h.62l0,1h.06a1.18,1.18,0,0,1,.45-.81,1.52,1.52,0,0,1,.87-.22v.72a1.28,1.28,0,0,0-.81.22,1.11,1.11,0,0,0-.41.65,4.63,4.63,0,0,0-.11,1.17v2.42h-.71Z"/><path class="a4637792-3619-4a2b-a9cf-3e642470b6e1" d="M137.44,127.42a1.66,1.66,0,0,1-.31-1.16,2.78,2.78,0,0,1,.11-.91.78.78,0,0,1,.39-.46,1.65,1.65,0,0,1,.78-.14c.19,0,.63,0,1.32,0v-.36a3.24,3.24,0,0,0-.09-.91.54.54,0,0,0-.31-.36,2.56,2.56,0,0,0-.74-.08l-.6,0c-.24,0-.45,0-.61.08v-.58a6.24,6.24,0,0,1,1.41-.14,2.36,2.36,0,0,1,1,.17.91.91,0,0,1,.48.58,4.43,4.43,0,0,1,.13,1.2v3.23h-.63l0-.7h-.05a1,1,0,0,1-.49.62,1.73,1.73,0,0,1-.78.16A1.36,1.36,0,0,1,137.44,127.42Zm1.81-.38a.62.62,0,0,0,.33-.36,3.16,3.16,0,0,0,.15-1.07v-.33h-1.14a1.4,1.4,0,0,0-.48.06.39.39,0,0,0-.22.26,2.24,2.24,0,0,0-.06.61,2.09,2.09,0,0,0,.06.58.43.43,0,0,0,.25.26,1.46,1.46,0,0,0,.54.08A1.55,1.55,0,0,0,139.25,127Z"/><path class="a4637792-3619-4a2b-a9cf-3e642470b6e1" d="M141.67,122.56h.62l0,1h.06a1.18,1.18,0,0,1,.45-.81,1.52,1.52,0,0,1,.87-.22v.72a1.28,1.28,0,0,0-.81.22,1.11,1.11,0,0,0-.41.65,4.63,4.63,0,0,0-.11,1.17v2.42h-.71Z"/><path class="a4637792-3619-4a2b-a9cf-3e642470b6e1" d="M147.69,125.34h-2.62a6.32,6.32,0,0,0,.07,1.16.68.68,0,0,0,.32.49,1.82,1.82,0,0,0,.83.14,7.29,7.29,0,0,0,1.26-.11v.58a5.24,5.24,0,0,1-.63.1c-.27,0-.53,0-.77,0a2.21,2.21,0,0,1-1.18-.24,1.13,1.13,0,0,1-.49-.76,8.07,8.07,0,0,1-.12-1.62,9.15,9.15,0,0,1,.1-1.62,1.11,1.11,0,0,1,.46-.77,2.11,2.11,0,0,1,1.18-.25,1.91,1.91,0,0,1,1.09.24,1.11,1.11,0,0,1,.41.75,10.47,10.47,0,0,1,.09,1.64Zm-2.28-2.14a.62.62,0,0,0-.28.46,7.58,7.58,0,0,0-.06,1.15H147v-.12a5.38,5.38,0,0,0-.08-1.07.7.7,0,0,0-.27-.44,1.19,1.19,0,0,0-.57-.1A1.42,1.42,0,0,0,145.41,123.2Z"/><path class="a4637792-3619-4a2b-a9cf-3e642470b6e1" d="M148.82,127.42a1.66,1.66,0,0,1-.31-1.16,2.78,2.78,0,0,1,.11-.91.78.78,0,0,1,.39-.46,1.65,1.65,0,0,1,.78-.14c.19,0,.63,0,1.32,0v-.36a3.24,3.24,0,0,0-.09-.91.54.54,0,0,0-.31-.36,2.56,2.56,0,0,0-.74-.08l-.6,0c-.24,0-.45,0-.61.08v-.58a6.24,6.24,0,0,1,1.41-.14,2.36,2.36,0,0,1,1,.17.91.91,0,0,1,.48.58,4.43,4.43,0,0,1,.13,1.2v3.23h-.63l0-.7h-.05a1,1,0,0,1-.49.62,1.73,1.73,0,0,1-.78.16A1.36,1.36,0,0,1,148.82,127.42Zm1.81-.38a.62.62,0,0,0,.33-.36,3.16,3.16,0,0,0,.15-1.07v-.33H150a1.4,1.4,0,0,0-.48.06.39.39,0,0,0-.22.26,2.24,2.24,0,0,0-.06.61,2.09,2.09,0,0,0,.06.58.43.43,0,0,0,.25.26,1.46,1.46,0,0,0,.54.08A1.55,1.55,0,0,0,150.63,127Z"/><path class="a4637792-3619-4a2b-a9cf-3e642470b6e1" d="M60,134.56h.62l0,.71h.06a1,1,0,0,1,.45-.63,1.65,1.65,0,0,1,.77-.16,1.54,1.54,0,0,1,.9.22,1.22,1.22,0,0,1,.43.77,7.42,7.42,0,0,1,.13,1.63,8.25,8.25,0,0,1-.12,1.63,1.28,1.28,0,0,1-.43.78,1.53,1.53,0,0,1-.9.23,1.62,1.62,0,0,1-.76-.16,1,1,0,0,1-.43-.54h0v2.55H60ZM62.35,139a.81.81,0,0,0,.27-.53,9.76,9.76,0,0,0,.07-1.33,9.65,9.65,0,0,0-.07-1.33.76.76,0,0,0-.27-.53,1.21,1.21,0,0,0-.66-.13,1,1,0,0,0-.59.15.82.82,0,0,0-.3.5,2.79,2.79,0,0,0-.08.55c0,.2,0,.47,0,.79a5.8,5.8,0,0,0,.08,1.25,1,1,0,0,0,.3.57,1,1,0,0,0,.6.17A1.31,1.31,0,0,0,62.35,139Z"/><path class="a4637792-3619-4a2b-a9cf-3e642470b6e1" d="M64.3,134.56h.62l0,.95H65a1.22,1.22,0,0,1,.45-.81,1.52,1.52,0,0,1,.87-.22v.72a1.28,1.28,0,0,0-.81.22,1.11,1.11,0,0,0-.41.65,5.15,5.15,0,0,0-.11,1.17v2.42H64.3Z"/><path class="a4637792-3619-4a2b-a9cf-3e642470b6e1" d="M67,139.42a1.66,1.66,0,0,1-.31-1.16,3.08,3.08,0,0,1,.11-.91.78.78,0,0,1,.39-.46,1.67,1.67,0,0,1,.78-.14c.19,0,.63,0,1.32.05v-.36a3.24,3.24,0,0,0-.09-.91.52.52,0,0,0-.31-.36,2.56,2.56,0,0,0-.74-.08l-.6,0c-.24,0-.45,0-.61.08v-.58a6.24,6.24,0,0,1,1.41-.14,2.36,2.36,0,0,1,1,.17.91.91,0,0,1,.48.58,4.43,4.43,0,0,1,.13,1.2v3.23h-.63l0-.7h0a.93.93,0,0,1-.49.62,1.73,1.73,0,0,1-.78.16A1.36,1.36,0,0,1,67,139.42Zm2.52-6.4a.73.73,0,0,1-.31.46,1.34,1.34,0,0,1-.75.17,1.3,1.3,0,0,1-.74-.17.81.81,0,0,1-.31-.46,4.16,4.16,0,0,1-.06-.79h.5a3.78,3.78,0,0,0,0,.56.42.42,0,0,0,.16.29.64.64,0,0,0,.42.11.69.69,0,0,0,.43-.11.43.43,0,0,0,.17-.29,3.78,3.78,0,0,0,0-.56h.5A3.39,3.39,0,0,1,69.49,133Zm-.71,6a.62.62,0,0,0,.33-.36,3.16,3.16,0,0,0,.15-1.07v-.33H68.12a1.43,1.43,0,0,0-.48.06.42.42,0,0,0-.22.26,2.24,2.24,0,0,0-.06.61,2.09,2.09,0,0,0,.06.58.46.46,0,0,0,.25.26,1.46,1.46,0,0,0,.54.08A1.55,1.55,0,0,0,68.78,139Z"/><path class="a4637792-3619-4a2b-a9cf-3e642470b6e1" d="M70.31,141a1.62,1.62,0,0,0,.46-.05.31.31,0,0,0,.19-.16,1.4,1.4,0,0,0,0-.35v-5.91h.71v5.71a2.32,2.32,0,0,1-.13.88.66.66,0,0,1-.41.36,3.49,3.49,0,0,1-.86.08Zm.67-8v-.83h.75v.83Z"/><path class="a4637792-3619-4a2b-a9cf-3e642470b6e1" d="M72.74,133.06v-.83h.75v.83Zm0,6.6v-5.1h.71v5.1Z"/><path class="a4637792-3619-4a2b-a9cf-3e642470b6e1" d="M74.83,139.66v-4.49h-.74v-.61h.74v-1.48h.71v1.48h.88v.61h-.88v4.49Z"/><path class="a4637792-3619-4a2b-a9cf-3e642470b6e1" d="M79.65,139H79.6a1.09,1.09,0,0,1-.42.58,1.43,1.43,0,0,1-.84.21,1.5,1.5,0,0,1-.85-.2,1,1,0,0,1-.38-.61,5.6,5.6,0,0,1-.09-1.15v-3.22h.71v3a6.29,6.29,0,0,0,.06,1A.62.62,0,0,0,78,139a1.2,1.2,0,0,0,.59.11.86.86,0,0,0,.66-.22,1,1,0,0,0,.26-.59,7.32,7.32,0,0,0,.06-1.08v-2.65h.71v5.1h-.63Z"/><path class="a4637792-3619-4a2b-a9cf-3e642470b6e1" d="M81.38,134.56H82l0,.95h.06a1.22,1.22,0,0,1,.45-.81,1.52,1.52,0,0,1,.87-.22v.72a1.28,1.28,0,0,0-.81.22,1.11,1.11,0,0,0-.41.65,5.15,5.15,0,0,0-.11,1.17v2.42h-.71Z"/><path class="a4637792-3619-4a2b-a9cf-3e642470b6e1" d="M84,133.06v-.83h.75v.83Zm0,6.6v-5.1h.71v5.1Z"/><path class="a4637792-3619-4a2b-a9cf-3e642470b6e1" d="M85.79,139.66v-7.43h.71v7.43Z"/><path class="a4637792-3619-4a2b-a9cf-3e642470b6e1" d="M88,139.53a1.07,1.07,0,0,1-.46-.73,14.33,14.33,0,0,1,0-3.38,1,1,0,0,1,.46-.73,2.43,2.43,0,0,1,1.17-.21,2.36,2.36,0,0,1,1.16.21,1,1,0,0,1,.46.73,14.33,14.33,0,0,1,0,3.38,1,1,0,0,1-.46.73,2.36,2.36,0,0,1-1.16.21A2.43,2.43,0,0,1,88,139.53Zm1.87-.54a.74.74,0,0,0,.26-.52,13.3,13.3,0,0,0,0-1.36,13,13,0,0,0,0-1.36.7.7,0,0,0-.26-.52,1.22,1.22,0,0,0-.7-.14,1.24,1.24,0,0,0-.71.14.72.72,0,0,0-.26.52,13.3,13.3,0,0,0-.05,1.36,13.07,13.07,0,0,0,.05,1.35.74.74,0,0,0,.26.53,1.33,1.33,0,0,0,.71.14A1.31,1.31,0,0,0,89.82,139Z"/><path class="a4637792-3619-4a2b-a9cf-3e642470b6e1" d="M91.74,134.56h.62l0,.95h.06a1.22,1.22,0,0,1,.45-.81,1.52,1.52,0,0,1,.87-.22v.72a1.28,1.28,0,0,0-.81.22,1.11,1.11,0,0,0-.41.65,5.15,5.15,0,0,0-.11,1.17v2.42h-.71Z"/><path class="a4637792-3619-4a2b-a9cf-3e642470b6e1" d="M94.46,140.42a.28.28,0,0,0,.14-.18,1.44,1.44,0,0,0,0-.41v-.17h-.33v-.9h.83v.82a2.94,2.94,0,0,1-.08.78.53.53,0,0,1-.29.36,1.52,1.52,0,0,1-.65.11v-.35A.77.77,0,0,0,94.46,140.42Z"/><path class="a4637792-3619-4a2b-a9cf-3e642470b6e1" d="M98.16,139.66v-4.49h-.74v-.61h.74v-1.48h.71v1.48h.88v.61h-.88v4.49Z"/><path class="a4637792-3619-4a2b-a9cf-3e642470b6e1" d="M100.78,139.53a1.07,1.07,0,0,1-.46-.73,14.33,14.33,0,0,1,0-3.38,1,1,0,0,1,.46-.73,2.43,2.43,0,0,1,1.17-.21,2.36,2.36,0,0,1,1.16.21,1,1,0,0,1,.46.73,14.33,14.33,0,0,1,0,3.38,1,1,0,0,1-.46.73,2.36,2.36,0,0,1-1.16.21A2.43,2.43,0,0,1,100.78,139.53Zm1.87-.54a.74.74,0,0,0,.26-.52,13.3,13.3,0,0,0,0-1.36,13,13,0,0,0,0-1.36.7.7,0,0,0-.26-.52,1.22,1.22,0,0,0-.7-.14,1.24,1.24,0,0,0-.71.14.72.72,0,0,0-.26.52,13.3,13.3,0,0,0,0,1.36,13.07,13.07,0,0,0,0,1.35.74.74,0,0,0,.26.53,1.33,1.33,0,0,0,.71.14A1.31,1.31,0,0,0,102.65,139Z"/><path class="a4637792-3619-4a2b-a9cf-3e642470b6e1" d="M104.57,134.56h.62l0,.95h.06a1.22,1.22,0,0,1,.45-.81,1.52,1.52,0,0,1,.87-.22v.72a1.28,1.28,0,0,0-.81.22,1.11,1.11,0,0,0-.41.65,5.15,5.15,0,0,0-.11,1.17v2.42h-.71Z"/><path class="a4637792-3619-4a2b-a9cf-3e642470b6e1" d="M107.53,139.66v-4.49h-.74v-.61h.74v-1.48h.71v1.48h.88v.61h-.88v4.49Z"/><path class="a4637792-3619-4a2b-a9cf-3e642470b6e1" d="M112.35,139h0a1.09,1.09,0,0,1-.42.58,1.43,1.43,0,0,1-.84.21,1.5,1.5,0,0,1-.85-.2,1,1,0,0,1-.38-.61,5.6,5.6,0,0,1-.09-1.15v-3.22h.71v3a6.29,6.29,0,0,0,.06,1,.62.62,0,0,0,.25.41,1.2,1.2,0,0,0,.59.11.86.86,0,0,0,.66-.22,1,1,0,0,0,.26-.59,7.32,7.32,0,0,0,.06-1.08v-2.65H113v5.1h-.63Z"/><path class="a4637792-3619-4a2b-a9cf-3e642470b6e1" d="M114.08,134.56h.62l0,.95h.06a1.22,1.22,0,0,1,.45-.81,1.52,1.52,0,0,1,.87-.22v.72a1.28,1.28,0,0,0-.81.22,1.11,1.11,0,0,0-.41.65,5.15,5.15,0,0,0-.11,1.17v2.42h-.71Z"/><path class="a4637792-3619-4a2b-a9cf-3e642470b6e1" d="M116.71,133.06v-.83h.75v.83Zm0,6.6v-5.1h.71v5.1Z"/><path class="a4637792-3619-4a2b-a9cf-3e642470b6e1" d="M118.49,139.66v-7.43h.71v7.43Z"/><path class="a4637792-3619-4a2b-a9cf-3e642470b6e1" d="M120.65,139.53a1.07,1.07,0,0,1-.46-.73,14.33,14.33,0,0,1,0-3.38,1,1,0,0,1,.46-.73,2.43,2.43,0,0,1,1.17-.21,2.36,2.36,0,0,1,1.16.21,1,1,0,0,1,.46.73,14.33,14.33,0,0,1,0,3.38,1,1,0,0,1-.46.73,2.36,2.36,0,0,1-1.16.21A2.43,2.43,0,0,1,120.65,139.53Zm1.87-.54a.74.74,0,0,0,.26-.52,13.3,13.3,0,0,0,0-1.36,13,13,0,0,0,0-1.36.7.7,0,0,0-.26-.52,1.22,1.22,0,0,0-.7-.14,1.24,1.24,0,0,0-.71.14.72.72,0,0,0-.26.52,13.3,13.3,0,0,0,0,1.36,13.07,13.07,0,0,0,0,1.35.74.74,0,0,0,.26.53,1.33,1.33,0,0,0,.71.14A1.31,1.31,0,0,0,122.52,139Z"/><path class="a4637792-3619-4a2b-a9cf-3e642470b6e1" d="M124.44,134.56h.62l0,.95h.06a1.22,1.22,0,0,1,.45-.81,1.52,1.52,0,0,1,.87-.22v.72a1.28,1.28,0,0,0-.81.22,1.11,1.11,0,0,0-.41.65,5.15,5.15,0,0,0-.11,1.17v2.42h-.71Z"/><path class="a4637792-3619-4a2b-a9cf-3e642470b6e1" d="M127.16,140.42a.28.28,0,0,0,.14-.18,1.44,1.44,0,0,0,0-.41v-.17H127v-.9h.83v.82a2.94,2.94,0,0,1-.08.78.53.53,0,0,1-.29.36,1.52,1.52,0,0,1-.65.11v-.35A.77.77,0,0,0,127.16,140.42Z"/><path class="a4637792-3619-4a2b-a9cf-3e642470b6e1" d="M130.94,139.52a1.33,1.33,0,0,1-.43-.77,11.13,11.13,0,0,1,0-3.26,1.27,1.27,0,0,1,.42-.79,1.51,1.51,0,0,1,.9-.22,1.57,1.57,0,0,1,.77.16,1,1,0,0,1,.43.54h.05v-3h.71v7.43h-.63l0-.7h-.05a1,1,0,0,1-.46.62,1.79,1.79,0,0,1-.77.16A1.59,1.59,0,0,1,130.94,139.52Zm1.74-.56a.8.8,0,0,0,.29-.46,4.6,4.6,0,0,0,.09-.59c0-.21,0-.51,0-.88a5.43,5.43,0,0,0-.09-1.2.86.86,0,0,0-.3-.55,1,1,0,0,0-.61-.16,1.19,1.19,0,0,0-.65.13.72.72,0,0,0-.27.53,10.1,10.1,0,0,0-.06,1.33,8.34,8.34,0,0,0,.07,1.33.76.76,0,0,0,.26.53,1.33,1.33,0,0,0,.67.13A1.08,1.08,0,0,0,132.68,139Z"/><path class="a4637792-3619-4a2b-a9cf-3e642470b6e1" d="M137.45,139h0a1.09,1.09,0,0,1-.42.58,1.43,1.43,0,0,1-.84.21,1.5,1.5,0,0,1-.85-.2,1,1,0,0,1-.38-.61,5.6,5.6,0,0,1-.09-1.15v-3.22h.71v3a6.29,6.29,0,0,0,.06,1,.62.62,0,0,0,.25.41,1.2,1.2,0,0,0,.59.11.86.86,0,0,0,.66-.22,1,1,0,0,0,.26-.59,7.32,7.32,0,0,0,.06-1.08v-2.65h.71v5.1h-.63Z"/><path class="a4637792-3619-4a2b-a9cf-3e642470b6e1" d="M139.18,139.66v-7.43h.71v7.43Z"/><path class="a4637792-3619-4a2b-a9cf-3e642470b6e1" d="M143,139.7a5.66,5.66,0,0,1-.57,0,1.84,1.84,0,0,1-1.09-.26,1.22,1.22,0,0,1-.44-.79,8.93,8.93,0,0,1-.1-1.58,8,8,0,0,1,.12-1.6,1.3,1.3,0,0,1,.47-.79,1.74,1.74,0,0,1,1-.24l.58,0a3,3,0,0,1,.48.1v.58a3.82,3.82,0,0,0-.9-.1,1.28,1.28,0,0,0-.7.15.88.88,0,0,0-.29.56,8.07,8.07,0,0,0-.07,1.3,8.44,8.44,0,0,0,.07,1.32.82.82,0,0,0,.3.56,1.25,1.25,0,0,0,.7.15,3.74,3.74,0,0,0,.92-.11v.59A2.82,2.82,0,0,1,143,139.7Z"/><path class="a4637792-3619-4a2b-a9cf-3e642470b6e1" d="M144.23,133.06v-.83H145v.83Zm0,6.6v-5.1H145v5.1Z"/><path class="a4637792-3619-4a2b-a9cf-3e642470b6e1" d="M148.61,139h-.05a1.09,1.09,0,0,1-.42.58,1.43,1.43,0,0,1-.84.21,1.5,1.5,0,0,1-.85-.2,1,1,0,0,1-.38-.61,5.6,5.6,0,0,1-.09-1.15v-3.22h.71v3a6.29,6.29,0,0,0,.06,1,.62.62,0,0,0,.25.41,1.2,1.2,0,0,0,.59.11.86.86,0,0,0,.66-.22,1,1,0,0,0,.26-.59,7.32,7.32,0,0,0,.06-1.08v-2.65h.71v5.1h-.63Z"/><path class="a4637792-3619-4a2b-a9cf-3e642470b6e1" d="M150.34,134.56H151l0,.95h.06a1.22,1.22,0,0,1,.45-.81,1.52,1.52,0,0,1,.87-.22v.72a1.28,1.28,0,0,0-.81.22,1.11,1.11,0,0,0-.41.65,5.15,5.15,0,0,0-.11,1.17v2.42h-.71Z"/><path class="a4637792-3619-4a2b-a9cf-3e642470b6e1" d="M153,133.06v-.83h.75v.83Zm0,6.6v-5.1h.71v5.1Z"/><path class="a4637792-3619-4a2b-a9cf-3e642470b6e1" d="M154.75,139.66v-7.43h.71v7.43Z"/><path class="a4637792-3619-4a2b-a9cf-3e642470b6e1" d="M156.91,139.53a1.07,1.07,0,0,1-.46-.73,14.33,14.33,0,0,1,0-3.38,1,1,0,0,1,.46-.73,2.43,2.43,0,0,1,1.17-.21,2.36,2.36,0,0,1,1.16.21,1,1,0,0,1,.46.73,14.33,14.33,0,0,1,0,3.38,1,1,0,0,1-.46.73,2.36,2.36,0,0,1-1.16.21A2.43,2.43,0,0,1,156.91,139.53Zm1.87-.54a.74.74,0,0,0,.26-.52,13.3,13.3,0,0,0,.05-1.36,13,13,0,0,0-.05-1.36.7.7,0,0,0-.26-.52,1.22,1.22,0,0,0-.7-.14,1.24,1.24,0,0,0-.71.14.72.72,0,0,0-.26.52,10.86,10.86,0,0,0-.05,1.36,10.67,10.67,0,0,0,.05,1.35.74.74,0,0,0,.26.53,1.33,1.33,0,0,0,.71.14A1.31,1.31,0,0,0,158.78,139Z"/><path class="a4637792-3619-4a2b-a9cf-3e642470b6e1" d="M160.7,134.56h.62l0,.95h.06a1.22,1.22,0,0,1,.45-.81,1.52,1.52,0,0,1,.87-.22v.72a1.28,1.28,0,0,0-.81.22,1.11,1.11,0,0,0-.41.65,5.15,5.15,0,0,0-.11,1.17v2.42h-.71Z"/><path class="a4637792-3619-4a2b-a9cf-3e642470b6e1" d="M61.23,151.7a6.13,6.13,0,0,1-.64-.08V151a8,8,0,0,0,1.32.11,1.39,1.39,0,0,0,.57-.1.52.52,0,0,0,.25-.28,1.63,1.63,0,0,0,.06-.49,3,3,0,0,0,0-.53.33.33,0,0,0-.14-.21,1.11,1.11,0,0,0-.32-.08l-1-.15a.83.83,0,0,1-.65-.37,1.93,1.93,0,0,1-.17-1,1.84,1.84,0,0,1,.19-.93,1,1,0,0,1,.52-.44,2.64,2.64,0,0,1,.87-.12,5.29,5.29,0,0,1,.66,0,3,3,0,0,1,.56.1v.58a3.6,3.6,0,0,0-.57-.09l-.65,0a1,1,0,0,0-.68.17.82.82,0,0,0-.21.67,1.88,1.88,0,0,0,0,.48.32.32,0,0,0,.13.22.88.88,0,0,0,.32.09l1,.13a1.09,1.09,0,0,1,.5.16.7.7,0,0,1,.28.42,2.93,2.93,0,0,1,.09.83,1.5,1.5,0,0,1-.36,1.16,1.7,1.7,0,0,1-1.17.33C61.73,151.74,61.49,151.72,61.23,151.7Zm.68,2.05a.8.8,0,0,0,.09-.45v-.16h-.33v-.86h.8v.78a2.92,2.92,0,0,1-.07.71.49.49,0,0,1-.28.33,1.44,1.44,0,0,1-.63.1v-.34A.57.57,0,0,0,61.91,153.75Z"/><path class="a4637792-3619-4a2b-a9cf-3e642470b6e1" d="M64.47,145.06v-.83h.75v.83Zm0,6.6v-5.1h.71v5.1Z"/><path class="a4637792-3619-4a2b-a9cf-3e642470b6e1" d="M68.39,151.42a1.66,1.66,0,0,1-.31-1.16,3.08,3.08,0,0,1,.11-.91.78.78,0,0,1,.39-.46,1.67,1.67,0,0,1,.78-.14c.19,0,.63,0,1.32.05v-.36a3.24,3.24,0,0,0-.09-.91.52.52,0,0,0-.31-.36,2.56,2.56,0,0,0-.74-.08l-.6,0c-.24,0-.45,0-.61.08v-.58a6.24,6.24,0,0,1,1.41-.14,2.36,2.36,0,0,1,1,.17.91.91,0,0,1,.48.58,4.43,4.43,0,0,1,.13,1.2v3.23h-.63l0-.7h0a.93.93,0,0,1-.49.62,1.73,1.73,0,0,1-.78.16A1.36,1.36,0,0,1,68.39,151.42ZM70.2,151a.62.62,0,0,0,.33-.36,3.16,3.16,0,0,0,.15-1.07v-.33H69.54a1.43,1.43,0,0,0-.48.06.42.42,0,0,0-.22.26,2.24,2.24,0,0,0-.06.61,2.09,2.09,0,0,0,.06.58.46.46,0,0,0,.25.26,1.46,1.46,0,0,0,.54.08A1.55,1.55,0,0,0,70.2,151Z"/><path class="a4637792-3619-4a2b-a9cf-3e642470b6e1" d="M72.62,151.66v-7.43h.71v7.43Z"/><path class="a4637792-3619-4a2b-a9cf-3e642470b6e1" d="M74.89,151.66v-4.49h-.74v-.61h.74v-1.48h.71v1.48h.88v.61H75.6v4.49Z"/><path class="a4637792-3619-4a2b-a9cf-3e642470b6e1" d="M77.71,151.53a1.07,1.07,0,0,1-.46-.73,14.33,14.33,0,0,1,0-3.38,1,1,0,0,1,.46-.73,2.43,2.43,0,0,1,1.17-.21,2.36,2.36,0,0,1,1.16.21,1,1,0,0,1,.46.73,14.33,14.33,0,0,1,0,3.38,1,1,0,0,1-.46.73,2.36,2.36,0,0,1-1.16.21A2.43,2.43,0,0,1,77.71,151.53Zm1.87-.54a.74.74,0,0,0,.26-.52,13.3,13.3,0,0,0,0-1.36,13,13,0,0,0,0-1.36.7.7,0,0,0-.26-.52,1.22,1.22,0,0,0-.7-.14,1.24,1.24,0,0,0-.71.14.72.72,0,0,0-.26.52,13.3,13.3,0,0,0,0,1.36,13.07,13.07,0,0,0,0,1.35.74.74,0,0,0,.26.53,1.33,1.33,0,0,0,.71.14A1.31,1.31,0,0,0,79.58,151Z"/><path class="a4637792-3619-4a2b-a9cf-3e642470b6e1" d="M81.7,146.56h.62l0,.95h.06a1.22,1.22,0,0,1,.45-.81,1.52,1.52,0,0,1,.87-.22v.72a1.28,1.28,0,0,0-.81.22,1.11,1.11,0,0,0-.41.65,5.15,5.15,0,0,0-.11,1.17v2.42H81.7Z"/><path class="a4637792-3619-4a2b-a9cf-3e642470b6e1" d="M86.47,146.56h.62l0,.71h.06a1,1,0,0,1,.45-.63,1.65,1.65,0,0,1,.77-.16,1.54,1.54,0,0,1,.9.22,1.22,1.22,0,0,1,.43.77,7.42,7.42,0,0,1,.13,1.63,8.25,8.25,0,0,1-.12,1.63,1.28,1.28,0,0,1-.43.78,1.53,1.53,0,0,1-.9.23,1.62,1.62,0,0,1-.76-.16,1,1,0,0,1-.43-.54h0v2.55h-.71ZM88.82,151a.81.81,0,0,0,.27-.53,9.76,9.76,0,0,0,.07-1.33,9.65,9.65,0,0,0-.07-1.33.76.76,0,0,0-.27-.53,1.21,1.21,0,0,0-.66-.13,1,1,0,0,0-.59.15.82.82,0,0,0-.3.5,2.79,2.79,0,0,0-.08.55c0,.2,0,.47,0,.79a5.8,5.8,0,0,0,.08,1.25,1,1,0,0,0,.3.57,1,1,0,0,0,.6.17A1.31,1.31,0,0,0,88.82,151Z"/><path class="a4637792-3619-4a2b-a9cf-3e642470b6e1" d="M91,146.56h.62l0,.95h.06a1.22,1.22,0,0,1,.45-.81,1.52,1.52,0,0,1,.87-.22v.72a1.28,1.28,0,0,0-.81.22,1.11,1.11,0,0,0-.41.65,5.15,5.15,0,0,0-.11,1.17v2.42H91Z"/><path class="a4637792-3619-4a2b-a9cf-3e642470b6e1" d="M94.22,151.53a1.07,1.07,0,0,1-.46-.73,14.33,14.33,0,0,1,0-3.38,1,1,0,0,1,.46-.73,2.43,2.43,0,0,1,1.17-.21,2.36,2.36,0,0,1,1.16.21,1,1,0,0,1,.46.73,14.33,14.33,0,0,1,0,3.38,1,1,0,0,1-.46.73,2.36,2.36,0,0,1-1.16.21A2.43,2.43,0,0,1,94.22,151.53Zm1.87-.54a.74.74,0,0,0,.26-.52,13.3,13.3,0,0,0,.05-1.36,13,13,0,0,0-.05-1.36.7.7,0,0,0-.26-.52,1.22,1.22,0,0,0-.7-.14,1.24,1.24,0,0,0-.71.14.72.72,0,0,0-.26.52,13.3,13.3,0,0,0,0,1.36,13.07,13.07,0,0,0,0,1.35.74.74,0,0,0,.26.53,1.33,1.33,0,0,0,.71.14A1.31,1.31,0,0,0,96.09,151Z"/><path class="a4637792-3619-4a2b-a9cf-3e642470b6e1" d="M98.6,151.52a1.33,1.33,0,0,1-.43-.77,11.13,11.13,0,0,1,0-3.26,1.27,1.27,0,0,1,.42-.79,1.51,1.51,0,0,1,.9-.22,1.57,1.57,0,0,1,.77.16,1,1,0,0,1,.43.54h0v-3h.71v7.43h-.63l0-.7h0a1,1,0,0,1-.46.62,1.79,1.79,0,0,1-.77.16A1.59,1.59,0,0,1,98.6,151.52Zm1.74-.56a.8.8,0,0,0,.29-.46,4.6,4.6,0,0,0,.09-.59c0-.21,0-.51,0-.88a5.43,5.43,0,0,0-.09-1.2.86.86,0,0,0-.3-.55,1,1,0,0,0-.61-.16,1.19,1.19,0,0,0-.65.13.72.72,0,0,0-.27.53,10.1,10.1,0,0,0-.06,1.33,8.34,8.34,0,0,0,.07,1.33.76.76,0,0,0,.26.53,1.36,1.36,0,0,0,.67.13A1.08,1.08,0,0,0,100.34,151Z"/><path class="a4637792-3619-4a2b-a9cf-3e642470b6e1" d="M105.31,151h0a1.09,1.09,0,0,1-.42.58,1.41,1.41,0,0,1-.84.21,1.5,1.5,0,0,1-.85-.2,1,1,0,0,1-.38-.61,5.6,5.6,0,0,1-.09-1.15v-3.22h.71v3a6.29,6.29,0,0,0,.06,1,.62.62,0,0,0,.25.41,1.2,1.2,0,0,0,.59.11.86.86,0,0,0,.66-.22,1,1,0,0,0,.26-.59,7.32,7.32,0,0,0,.06-1.08v-2.65H106v5.1h-.63Z"/><path class="a4637792-3619-4a2b-a9cf-3e642470b6e1" d="M107.75,151.7a6.13,6.13,0,0,1-.64-.08V151a8,8,0,0,0,1.32.11,1.39,1.39,0,0,0,.57-.1.52.52,0,0,0,.25-.28,1.63,1.63,0,0,0,.06-.49,3,3,0,0,0,0-.53.33.33,0,0,0-.14-.21,1.11,1.11,0,0,0-.32-.08l-1-.15a.83.83,0,0,1-.65-.37,1.93,1.93,0,0,1-.17-1,1.84,1.84,0,0,1,.19-.93,1,1,0,0,1,.52-.44,2.64,2.64,0,0,1,.87-.12,5.29,5.29,0,0,1,.66,0,3,3,0,0,1,.56.1v.58a3.6,3.6,0,0,0-.57-.09l-.65,0a1,1,0,0,0-.68.17.82.82,0,0,0-.21.67,1.88,1.88,0,0,0,0,.48.32.32,0,0,0,.13.22.88.88,0,0,0,.32.09l1,.13a1.09,1.09,0,0,1,.5.16.7.7,0,0,1,.28.42,2.93,2.93,0,0,1,.09.83,1.5,1.5,0,0,1-.36,1.16,1.7,1.7,0,0,1-1.17.33C108.25,151.74,108,151.72,107.75,151.7Z"/><path class="a4637792-3619-4a2b-a9cf-3e642470b6e1" d="M114.18,149.34h-2.62a6.32,6.32,0,0,0,.07,1.16.68.68,0,0,0,.32.49,1.85,1.85,0,0,0,.83.14A7.29,7.29,0,0,0,114,151v.58a5.24,5.24,0,0,1-.63.1c-.27,0-.53,0-.77,0a2.21,2.21,0,0,1-1.18-.24,1.13,1.13,0,0,1-.49-.76,8.07,8.07,0,0,1-.12-1.62,9.15,9.15,0,0,1,.1-1.62,1.11,1.11,0,0,1,.46-.77,2.14,2.14,0,0,1,1.18-.25,1.91,1.91,0,0,1,1.09.24,1.07,1.07,0,0,1,.41.75,10.47,10.47,0,0,1,.09,1.64Zm-2.28-2.14a.65.65,0,0,0-.28.46,7.58,7.58,0,0,0-.06,1.15h1.94v-.12a5.38,5.38,0,0,0-.08-1.07.66.66,0,0,0-.27-.44,1.19,1.19,0,0,0-.57-.1A1.42,1.42,0,0,0,111.9,147.2Z"/><path class="a4637792-3619-4a2b-a9cf-3e642470b6e1" d="M117.6,151.52a1.33,1.33,0,0,1-.43-.77,11.13,11.13,0,0,1,0-3.26,1.27,1.27,0,0,1,.42-.79,1.51,1.51,0,0,1,.9-.22,1.57,1.57,0,0,1,.77.16,1,1,0,0,1,.43.54h0v-3h.71v7.43h-.63l0-.7h0a1,1,0,0,1-.46.62,1.79,1.79,0,0,1-.77.16A1.59,1.59,0,0,1,117.6,151.52Zm1.74-.56a.8.8,0,0,0,.29-.46,4.6,4.6,0,0,0,.09-.59c0-.21,0-.51,0-.88a5.43,5.43,0,0,0-.09-1.2.86.86,0,0,0-.3-.55,1,1,0,0,0-.61-.16,1.19,1.19,0,0,0-.65.13.72.72,0,0,0-.27.53,10.1,10.1,0,0,0-.06,1.33,8.34,8.34,0,0,0,.07,1.33.76.76,0,0,0,.26.53,1.33,1.33,0,0,0,.67.13A1.08,1.08,0,0,0,119.34,151Z"/><path class="a4637792-3619-4a2b-a9cf-3e642470b6e1" d="M124.88,149.34h-2.62a6.32,6.32,0,0,0,.07,1.16.68.68,0,0,0,.32.49,1.85,1.85,0,0,0,.83.14,7.29,7.29,0,0,0,1.26-.11v.58a5.24,5.24,0,0,1-.63.1c-.27,0-.53,0-.77,0a2.21,2.21,0,0,1-1.18-.24,1.13,1.13,0,0,1-.49-.76,8.07,8.07,0,0,1-.12-1.62,9.15,9.15,0,0,1,.1-1.62,1.11,1.11,0,0,1,.46-.77,2.14,2.14,0,0,1,1.18-.25,1.91,1.91,0,0,1,1.09.24,1.07,1.07,0,0,1,.41.75,10.47,10.47,0,0,1,.09,1.64Zm-2.28-2.14a.65.65,0,0,0-.28.46,7.58,7.58,0,0,0-.06,1.15h1.94v-.12a5.38,5.38,0,0,0-.08-1.07.66.66,0,0,0-.27-.44,1.19,1.19,0,0,0-.57-.1A1.42,1.42,0,0,0,122.6,147.2Z"/><path class="a4637792-3619-4a2b-a9cf-3e642470b6e1" d="M130,151.7a5.66,5.66,0,0,1-.57,0,1.84,1.84,0,0,1-1.09-.26,1.22,1.22,0,0,1-.44-.79,8.93,8.93,0,0,1-.1-1.58,8,8,0,0,1,.12-1.6,1.3,1.3,0,0,1,.47-.79,1.74,1.74,0,0,1,1-.24l.58,0a3,3,0,0,1,.48.1v.58a3.82,3.82,0,0,0-.9-.1,1.28,1.28,0,0,0-.7.15.88.88,0,0,0-.29.56,8.07,8.07,0,0,0-.07,1.3,8.44,8.44,0,0,0,.07,1.32.82.82,0,0,0,.3.56,1.25,1.25,0,0,0,.7.15,3.74,3.74,0,0,0,.92-.11v.59A2.82,2.82,0,0,1,130,151.7Z"/><path class="a4637792-3619-4a2b-a9cf-3e642470b6e1" d="M131.82,151.53a1.07,1.07,0,0,1-.46-.73,14.33,14.33,0,0,1,0-3.38,1,1,0,0,1,.46-.73,2.43,2.43,0,0,1,1.17-.21,2.36,2.36,0,0,1,1.16.21,1,1,0,0,1,.46.73,14.33,14.33,0,0,1,0,3.38,1,1,0,0,1-.46.73,2.36,2.36,0,0,1-1.16.21A2.43,2.43,0,0,1,131.82,151.53Zm1.87-.54a.74.74,0,0,0,.26-.52,13.3,13.3,0,0,0,.05-1.36,13,13,0,0,0-.05-1.36.7.7,0,0,0-.26-.52,1.22,1.22,0,0,0-.7-.14,1.24,1.24,0,0,0-.71.14.72.72,0,0,0-.26.52,13.3,13.3,0,0,0-.05,1.36,13.07,13.07,0,0,0,.05,1.35.74.74,0,0,0,.26.53,1.33,1.33,0,0,0,.71.14A1.31,1.31,0,0,0,133.69,151Z"/><path class="a4637792-3619-4a2b-a9cf-3e642470b6e1" d="M136.12,147.17h-.74v-.61h.74v-.86a2.35,2.35,0,0,1,.15-1,.75.75,0,0,1,.49-.4,4.27,4.27,0,0,1,1-.09v.56a2.33,2.33,0,0,0-.61.05.4.4,0,0,0-.27.22,1.32,1.32,0,0,0-.07.51v1h.95v.61h-.95v4.49h-.71Z"/><path class="a4637792-3619-4a2b-a9cf-3e642470b6e1" d="M141.79,149.34h-2.62a6.32,6.32,0,0,0,.07,1.16.68.68,0,0,0,.32.49,1.85,1.85,0,0,0,.83.14,7.29,7.29,0,0,0,1.26-.11v.58a5.24,5.24,0,0,1-.63.1c-.27,0-.53,0-.77,0a2.21,2.21,0,0,1-1.18-.24,1.13,1.13,0,0,1-.49-.76,8.07,8.07,0,0,1-.12-1.62,9.15,9.15,0,0,1,.1-1.62,1.11,1.11,0,0,1,.46-.77,2.14,2.14,0,0,1,1.18-.25,1.91,1.91,0,0,1,1.09.24,1.07,1.07,0,0,1,.41.75,10.47,10.47,0,0,1,.09,1.64Zm-2.28-2.14a.65.65,0,0,0-.28.46,7.58,7.58,0,0,0-.06,1.15h1.94v-.12a5.38,5.38,0,0,0-.08-1.07.66.66,0,0,0-.27-.44,1.19,1.19,0,0,0-.57-.1A1.42,1.42,0,0,0,139.51,147.2Z"/><path class="a4637792-3619-4a2b-a9cf-3e642470b6e1" d="M143.21,151.66v-4.49h-.74v-.61h.74v-1.48h.71v1.48h.88v.61h-.88v4.49Z"/><path class="a4637792-3619-4a2b-a9cf-3e642470b6e1" d="M145.65,151.42a1.66,1.66,0,0,1-.31-1.16,3.08,3.08,0,0,1,.11-.91.78.78,0,0,1,.39-.46,1.67,1.67,0,0,1,.78-.14c.19,0,.63,0,1.32.05v-.36a3.24,3.24,0,0,0-.09-.91.52.52,0,0,0-.31-.36,2.56,2.56,0,0,0-.74-.08l-.6,0c-.24,0-.45,0-.61.08v-.58a6.24,6.24,0,0,1,1.41-.14,2.36,2.36,0,0,1,1,.17.91.91,0,0,1,.48.58,4.43,4.43,0,0,1,.13,1.2v3.23H148l0-.7h0a.93.93,0,0,1-.49.62,1.73,1.73,0,0,1-.78.16A1.36,1.36,0,0,1,145.65,151.42Zm2.52-6.4a.73.73,0,0,1-.31.46,1.34,1.34,0,0,1-.75.17,1.3,1.3,0,0,1-.74-.17.81.81,0,0,1-.31-.46,4.16,4.16,0,0,1-.06-.79h.5a3.78,3.78,0,0,0,0,.56.42.42,0,0,0,.16.29.64.64,0,0,0,.42.11.69.69,0,0,0,.43-.11.43.43,0,0,0,.17-.29,3.78,3.78,0,0,0,0-.56h.5A3.39,3.39,0,0,1,148.17,145Zm-.71,6a.62.62,0,0,0,.33-.36,3.16,3.16,0,0,0,.15-1.07v-.33H146.8a1.43,1.43,0,0,0-.48.06.42.42,0,0,0-.22.26,2.24,2.24,0,0,0-.06.61,2.09,2.09,0,0,0,.06.58.46.46,0,0,0,.25.26,1.46,1.46,0,0,0,.54.08A1.55,1.55,0,0,0,147.46,151Z"/><path class="a4637792-3619-4a2b-a9cf-3e642470b6e1" d="M149.88,146.56h.62l0,.95h.06a1.22,1.22,0,0,1,.45-.81,1.52,1.52,0,0,1,.87-.22v.72a1.28,1.28,0,0,0-.81.22,1.11,1.11,0,0,0-.41.65,5.15,5.15,0,0,0-.11,1.17v2.42h-.71Z"/><path class="a4637792-3619-4a2b-a9cf-3e642470b6e1" d="M152.71,145.06v-.83h.75v.83Zm0,6.6v-5.1h.71v5.1Z"/><path class="a4637792-3619-4a2b-a9cf-3e642470b6e1" d="M157.86,149.34h-2.62a6.32,6.32,0,0,0,.07,1.16.68.68,0,0,0,.32.49,1.85,1.85,0,0,0,.83.14,7.29,7.29,0,0,0,1.26-.11v.58a5.24,5.24,0,0,1-.63.1c-.27,0-.53,0-.77,0a2.21,2.21,0,0,1-1.18-.24,1.13,1.13,0,0,1-.49-.76,8.07,8.07,0,0,1-.12-1.62,9.15,9.15,0,0,1,.1-1.62,1.11,1.11,0,0,1,.46-.77,2.14,2.14,0,0,1,1.18-.25,1.91,1.91,0,0,1,1.09.24,1.07,1.07,0,0,1,.41.75,10.47,10.47,0,0,1,.09,1.64Zm-2.28-2.14a.65.65,0,0,0-.28.46,7.58,7.58,0,0,0-.06,1.15h1.94v-.12a5.38,5.38,0,0,0-.08-1.07.66.66,0,0,0-.27-.44,1.19,1.19,0,0,0-.57-.1A1.42,1.42,0,0,0,155.58,147.2Z"/><path class="a4637792-3619-4a2b-a9cf-3e642470b6e1" d="M158.9,151.66v-.9h.82v.9Z"/><path class="ef7fd6d2-8f46-43db-882e-257d616a4737" d="M129.47,50.38A14.08,14.08,0,1,1,115.39,36.3a14.08,14.08,0,0,1,14.08,14.08"/><polygon class="bfe4f912-7fc8-407d-a77d-1c9ec23b3ce8" points="124.69 54.04 104.81 53.99 104.82 53.66 124.69 53.71 124.69 54.04"/><rect class="bfe4f912-7fc8-407d-a77d-1c9ec23b3ce8" x="107.69" y="43.34" width="0.33" height="14.47"/><rect class="bfe4f912-7fc8-407d-a77d-1c9ec23b3ce8" x="109.95" y="43.59" width="2.83" height="10.23"/><path class="bfe4f912-7fc8-407d-a77d-1c9ec23b3ce8" d="M112.93,54H109.8V43.44h3.13Zm-2.83-.3h2.53V43.74H110.1Z"/><rect class="bfe4f912-7fc8-407d-a77d-1c9ec23b3ce8" x="114.8" y="46.13" width="2.19" height="7.7"/><path class="bfe4f912-7fc8-407d-a77d-1c9ec23b3ce8" d="M117.11,53.94h-2.42V46h2.42Zm-2.19-.23h2V46.24h-2Z"/><rect class="bfe4f912-7fc8-407d-a77d-1c9ec23b3ce8" x="118.81" y="44.01" width="2.79" height="9.81"/><path class="bfe4f912-7fc8-407d-a77d-1c9ec23b3ce8" d="M121.74,54h-3.07V43.87h3.07ZM119,53.68h2.49V44.16H119Z"/><polygon class="bfe4f912-7fc8-407d-a77d-1c9ec23b3ce8" points="107.85 43.84 108.64 43.84 108.25 43.15 107.85 42.47 107.46 43.15 107.06 43.84 107.85 43.84"/><path class="bfe4f912-7fc8-407d-a77d-1c9ec23b3ce8" d="M108.74,43.89H107l.88-1.53Zm-1.58-.11h1.39l-.7-1.2Z"/><polygon class="bfe4f912-7fc8-407d-a77d-1c9ec23b3ce8" points="124.26 53.88 124.23 54.67 124.93 54.3 125.63 53.93 124.96 53.51 124.29 53.09 124.26 53.88"/><path class="bfe4f912-7fc8-407d-a77d-1c9ec23b3ce8" d="M124.18,54.76l0-1.76,1.51.93Zm.16-1.57,0,1.39,1.23-.65Z"/><path class="f4ee13dc-67e6-4d3f-b804-a51f44d85878" d="M96.64,50.38A13.86,13.86,0,1,1,82.77,36.52,13.86,13.86,0,0,1,96.64,50.38Z"/><path class="bfe4f912-7fc8-407d-a77d-1c9ec23b3ce8" d="M79.26,50.8v5.66l2.46-.85s5.66.38,7.07-.85l3.71-4.15s2-2.35-1-1.11L88.37,51a1.7,1.7,0,0,1-.91.09A5.54,5.54,0,0,1,84.17,50s-1.25-1-4.91.85Z"/><path class="f130e7f6-579a-4739-9beb-fffe5d1c3c00" d="M79.26,50.8v5.66l2.46-.85s5.66.38,7.07-.85l3.71-4.15s2-2.35-1-1.11L88.37,51a1.7,1.7,0,0,1-.91.09A5.54,5.54,0,0,1,84.17,50S82.92,48.91,79.26,50.8Z"/><path class="bfe4f912-7fc8-407d-a77d-1c9ec23b3ce8" d="M83.53,52s5.27,1.53,5.49.46c0,0-.19-.9-2.14-1.34Z"/><path class="f130e7f6-579a-4739-9beb-fffe5d1c3c00" d="M83.53,52s5.27,1.53,5.49.46c0,0-.19-.9-2.14-1.34"/><path class="bfe4f912-7fc8-407d-a77d-1c9ec23b3ce8" d="M89,52.3s.26.73-1.55.58c0,0-2.16-.44-2.3-.39a10.38,10.38,0,0,0,3.22.56s1.32-.34.77-1c0,0-.44-.65-.14.22Z"/><path class="f130e7f6-579a-4739-9beb-fffe5d1c3c00" d="M89,52.3s.26.73-1.55.58c0,0-2.16-.44-2.3-.39a10.38,10.38,0,0,0,3.22.56s1.32-.34.77-1C89.18,52.08,88.74,51.43,89,52.3Z"/><polygon class="bfe4f912-7fc8-407d-a77d-1c9ec23b3ce8" points="79.28 54.1 81.74 55.62 79.29 56.46 79.28 54.1"/><polygon class="f130e7f6-579a-4739-9beb-fffe5d1c3c00" points="79.28 54.1 81.74 55.62 79.29 56.46 79.28 54.1"/><polygon class="bfe4f912-7fc8-407d-a77d-1c9ec23b3ce8" points="79.29 50.45 79.29 49.51 75.86 49.51 75.86 49.98 75.86 57.19 79.29 57.19 79.29 50.45"/><polygon class="f130e7f6-579a-4739-9beb-fffe5d1c3c00" points="79.29 50.45 79.29 49.51 75.86 49.51 75.86 49.98 75.86 57.19 79.29 57.19 79.29 50.45"/><rect class="bfe4f912-7fc8-407d-a77d-1c9ec23b3ce8" x="74.22" y="49.98" width="1.64" height="7.2"/><rect class="f130e7f6-579a-4739-9beb-fffe5d1c3c00" x="74.22" y="49.98" width="1.64" height="7.2"/><path class="bfe4f912-7fc8-407d-a77d-1c9ec23b3ce8" d="M89.58,44.65l.93-.69-.29-.67H89.14l-.3-.54.3-1-.67-.41-.87.61L87,41.74l-.29-1.06h-.85l-.29,1-.63.2-.87-.65-.67.45.38,1-.47.58-1-.08L82,44l.89.57,0,.59-.91.65h0l.26.78,1.06-.07.35.53-.35,1,.64.46,1-.61.58.26v0l.34,1h.71l.4-1,.75-.15.82.51.55-.45-.35-.93.46-.58h1l.24-.68-.9-.72ZM86.26,46.2a1.34,1.34,0,1,1,1.34-1.34A1.34,1.34,0,0,1,86.26,46.2Z"/><polygon class="bfe4f912-7fc8-407d-a77d-1c9ec23b3ce8" points="90.27 46.55 89.24 46.43 89.22 46.55 90.27 46.55"/><polygon class="f130e7f6-579a-4739-9beb-fffe5d1c3c00" points="90.27 46.55 89.24 46.43 89.22 46.55 90.27 46.55"/><polygon class="bfe4f912-7fc8-407d-a77d-1c9ec23b3ce8" points="88.57 48.5 87.84 47.9 87.73 47.99 88.57 48.5"/><polygon class="f130e7f6-579a-4739-9beb-fffe5d1c3c00" points="88.57 48.5 87.84 47.9 87.73 47.99 88.57 48.5"/><polygon class="bfe4f912-7fc8-407d-a77d-1c9ec23b3ce8" points="85.53 48.14 85.66 48.12 85.88 49.12 85.54 48.16 85.53 48.14"/><polyline class="f130e7f6-579a-4739-9beb-fffe5d1c3c00" points="85.53 48.14 85.66 48.12 85.88 49.12 85.54 48.16"/><polygon class="bfe4f912-7fc8-407d-a77d-1c9ec23b3ce8" points="83.7 47.05 83.82 47.13 83.36 48.03 83.7 47.05"/><polygon class="f130e7f6-579a-4739-9beb-fffe5d1c3c00" points="83.7 47.05 83.82 47.13 83.36 48.03 83.7 47.05"/><polygon class="bfe4f912-7fc8-407d-a77d-1c9ec23b3ce8" points="82.96 45.17 83.03 45.27 82.03 45.82 82.96 45.17"/><polygon class="f130e7f6-579a-4739-9beb-fffe5d1c3c00" points="82.96 45.17 83.03 45.27 82.03 45.82 82.96 45.17"/><polygon class="bfe4f912-7fc8-407d-a77d-1c9ec23b3ce8" points="75.54 49.98 75.86 51.59 75.86 49.98 75.54 49.98"/><polygon class="f130e7f6-579a-4739-9beb-fffe5d1c3c00" points="75.54 49.98 75.86 51.59 75.86 49.98 75.54 49.98"/><polygon class="bfe4f912-7fc8-407d-a77d-1c9ec23b3ce8" points="79.28 55.79 78.96 57.19 79.29 57.19 79.29 55.75 79.28 55.79"/><polyline class="f130e7f6-579a-4739-9beb-fffe5d1c3c00" points="79.28 55.79 78.96 57.19 79.29 57.19 79.29 55.75"/><path class="a35c9cc2-3698-46ce-9504-311f73e8e103" d="M50.35,266.2A13.2,13.2,0,1,0,37.16,253a13.2,13.2,0,0,0,13.19,13.2"/><path class="b8ae9886-8033-43ed-9a91-d51bc6ae2dd8" d="M54.46,251.41c0,2.8-1.87,5.65-4.2,5.65s-4.2-2.85-4.2-5.65a4.2,4.2,0,0,1,4.2-4.55c2.33,0,4.2,1.72,4.2,4.55"/><path class="ba447d2e-6230-492c-8dc8-8ba8b08dc0bc" d="M52.25,255s0,0,0-.07a1.49,1.49,0,0,1-.25.46,2.37,2.37,0,0,1-3.67,0,1.14,1.14,0,0,1-.24-.46s0,0,0,.06a1.36,1.36,0,0,0,.13-.46l0-.61.13-1.89H51.9l.19,2.5a.86.86,0,0,0,.1.38s0,.08.06.09"/><path class="ba447d2e-6230-492c-8dc8-8ba8b08dc0bc" d="M54,251.31a.47.47,0,0,0-.33,0v-.13c0-2.36-1.54-3.23-3.45-3.23s-3.45.87-3.45,3.23v.13a.47.47,0,0,0-.33,0c-.29.16-.34.73-.09,1.27a1.14,1.14,0,0,0,.8.75c.55,1.7,1.73,3.16,3.07,3.16s2.51-1.46,3.07-3.18c.26,0,.6-.29.8-.75s.2-1.09-.09-1.25"/><path class="b8ae9886-8033-43ed-9a91-d51bc6ae2dd8" d="M53,254.33a6.51,6.51,0,0,0-.25-2.6,1.84,1.84,0,0,0-1.5-1.47c-2.51-.44-2.77-2.1-2.77-2.1l1.89-.69,2.73.69.93,1.72.38,2.16-.74,2.11Z"/><path class="b8ae9886-8033-43ed-9a91-d51bc6ae2dd8" d="M47.28,253.75s.66-3.16,2.44-4.55-.86-.9-.86-.9l-1.36.5-1.34,2.75.19,1.5Z"/><rect class="ba447d2e-6230-492c-8dc8-8ba8b08dc0bc" x="48.3" y="252.55" width="3.95" height="4.82"/><path class="e1505b9d-c5f9-4392-82af-1afb503b20ce" d="M58.75,257.5a6.27,6.27,0,0,1-.36.62l-.29.42,0,0v0l-.11.15,0,0h0a1.58,1.58,0,0,0-.12.15l0,0a.41.41,0,0,1-.09.1h0l-.06.07,0,.05,0,0,0,.05-.16.18a.34.34,0,0,1-.08.09l-.06.06s0,.05-.06.07l-.1.11-.07.06a.46.46,0,0,1-.07.07l-.09.09h0l0,0,0,0-.18.16-.07.07h0l0,0-.22.18,0,0-.08.06h0l-.27.2,0,0,0,0-.2.14-.07.05-.09.05a.41.41,0,0,1-.11.07l0,0-.23.13h0l-.21.11-.06,0c-.23.13-.48.24-.72.35l-.05,0-.19.08-.22.09-.05,0,0,0-.09,0h0l-.3.11-.26.07-.29.08h0l-.26.06-.1,0h0l-.16,0-.07,0-.08,0h-.07l-.14,0-.13,0h-.17l-.11,0H49.77l-.22,0h-.71l-.23,0-.11,0h-.13l-.21-.05-.08,0H48l-.12,0-.1,0h-.05l-.15,0-.19-.06-.18-.06-.08,0-.07,0h0l-.33-.12-.28-.11h0l-.26-.13-.13-.06-.16-.08-.24-.13h0l-.1-.06-.27-.16h0l0,0h0l-.08-.05-.12-.08h0l-.09-.06,0,0-.12-.09-.16-.11v0a4.63,4.63,0,0,1-.42-.32l-.09-.08-.08-.06-.13-.12-.09-.07-.09-.09-.12-.11,0,0h0l-.07-.06,0,0h0l-.17-.18-.05-.06-.06-.06L43,259.4h0v0l-.06-.07-.11-.13-.12-.14,0,0a.18.18,0,0,0,0-.07v0a.05.05,0,0,1,0,0l0,0-.07-.08a.18.18,0,0,0,0-.07v0l-.22-.3q-.24-.35-.45-.72l.11-.21,3.5-.86.11,0,.11,0,.4-.09h0l.1,0h0l.09,0h0l.11,0,.07,0h0l.3-.07.46-.12h.12l.32-.08h0l.2-.06h0l0,.08,0,0a2.52,2.52,0,0,0,.43.49,2.6,2.6,0,0,0,1,.62l.35.1.18,0h0a2,2,0,0,0,.35,0h0a2.06,2.06,0,0,0,.35,0h0l.23,0a2.81,2.81,0,0,0,1.09-.51,2.09,2.09,0,0,0,.28-.24,2,2,0,0,0,.24-.26l.06-.08a2.14,2.14,0,0,0,.13-.19l0,0h0l.33.09.23.05.08,0,.58.14.06,0,.09,0h0l.09,0,.14,0,.28.07.44.11h0l.12,0h0l3.5.86Z"/><path class="b87f5eb1-a2b3-4dde-b2ef-b246849ce2d8" d="M58.75,257.5a6.27,6.27,0,0,1-.36.62l-.29.42,0,0v0l-.11.15,0,0h0a1.58,1.58,0,0,0-.12.15l0,0a.41.41,0,0,1-.09.1h0l-.06.07,0,.05,0,0,0,.05-.16.18a.34.34,0,0,1-.08.09l-.06.06s0,.05-.06.07l-.1.11-.07.06a.46.46,0,0,1-.07.07l-.09.09h0l0,0,0,0-.18.16-.07.07h0l0,0-.22.18,0,0-.08.06h0l-.27.2,0,0,0,0-.2.14-.07.05-.09.05a.41.41,0,0,1-.11.07l0,0-.23.13h0l-.21.11-.06,0c-.23.13-.48.24-.72.35l-.05,0-.19.08-.22.09-.05,0,0,0-.09,0h0l-.3.11-.26.07-.29.08h0l-.26.06-.1,0h0l-.16,0-.07,0-.08,0h-.07l-.14,0-.13,0h-.17l-.11,0H49.77l-.22,0h-.18V257.2l.35.1.18,0h0a2,2,0,0,0,.35,0h0a2.06,2.06,0,0,0,.35,0h0l.23,0a2.81,2.81,0,0,0,1.09-.51,2.09,2.09,0,0,0,.28-.24,2,2,0,0,0,.24-.26l.06-.08a2.14,2.14,0,0,0,.13-.19l0,0h0l.33.09.23.05.08,0,.58.14.06,0,.09,0h0l.09,0,.14,0,.28.07.44.11h0l.12,0h0l3.5.86Z"/><path class="bfe4f912-7fc8-407d-a77d-1c9ec23b3ce8" d="M50.15,258.33a.48.48,0,1,1-.48.48.47.47,0,0,1,.48-.48"/><path class="bfe4f912-7fc8-407d-a77d-1c9ec23b3ce8" d="M51.72,258.33a.48.48,0,1,1-.48.48.48.48,0,0,1,.48-.48"/><path class="bfe4f912-7fc8-407d-a77d-1c9ec23b3ce8" d="M50.15,259.71a.48.48,0,1,1-.48.47.47.47,0,0,1,.48-.47"/><path class="bfe4f912-7fc8-407d-a77d-1c9ec23b3ce8" d="M51.72,259.71a.48.48,0,1,1-.48.47.48.48,0,0,1,.48-.47"/><path class="ea4d6d80-a879-486e-b7f8-e27ea410726d" d="M54.92,245.39a1.66,1.66,0,0,0-1.79-1.5,2,2,0,0,0-1.31.47,1.79,1.79,0,0,0-1.73-1.09,1.82,1.82,0,0,0-1.63.89,2.07,2.07,0,0,0-1-.28,1.66,1.66,0,0,0-1.79,1.49,1.45,1.45,0,0,0,.83,1.27c.19.64,0,0-.18,2.07,0,0,0,0,0,0s-.12.09-.1.17c0,.23.06.44.1.67a.18.18,0,0,0,.2.13,43.72,43.72,0,0,1,7.59,0,.19.19,0,0,0,.21-.13c0-.23.06-.44.1-.67,0-.08-.05-.16-.16-.17s0,0,0,0c-.08-2.06-.27-1.44-.08-2.06a1.47,1.47,0,0,0,.78-1.25"/><path class="a35c9cc2-3698-46ce-9504-311f73e8e103" d="M172.67,63.69a13.2,13.2,0,1,0-13.2-13.19,13.18,13.18,0,0,0,13.2,13.19"/><path class="b8ae9886-8033-43ed-9a91-d51bc6ae2dd8" d="M176.77,48.9c0,2.81-1.87,5.65-4.2,5.65s-4.2-2.84-4.2-5.65a4.2,4.2,0,0,1,4.2-4.54c2.33,0,4.2,1.72,4.2,4.54"/><path class="ba447d2e-6230-492c-8dc8-8ba8b08dc0bc" d="M174.56,52.47s0,0,0-.08a1.49,1.49,0,0,1-.25.46,2.35,2.35,0,0,1-3.66,0,1.28,1.28,0,0,1-.25-.46s0,0,0,.06a1,1,0,0,0,.13-.46l0-.61.14-1.89h3.59l.19,2.5a.79.79,0,0,0,.09.38s0,.08.06.1"/><path class="ba447d2e-6230-492c-8dc8-8ba8b08dc0bc" d="M176.35,48.8a.47.47,0,0,0-.33,0v-.13c0-2.36-1.53-3.23-3.45-3.23s-3.45.87-3.45,3.23v.13a.47.47,0,0,0-.33,0c-.29.16-.33.74-.09,1.27s.51.74.8.76c.56,1.69,1.74,3.16,3.07,3.16s2.52-1.47,3.07-3.18c.27,0,.6-.29.8-.76s.2-1.09-.09-1.25"/><path class="b8ae9886-8033-43ed-9a91-d51bc6ae2dd8" d="M175.28,51.82a6.75,6.75,0,0,0-.25-2.6,1.88,1.88,0,0,0-1.51-1.47c-2.5-.43-2.77-2.1-2.77-2.1l1.89-.68,2.73.68.94,1.72.38,2.16-.75,2.12Z"/><path class="b8ae9886-8033-43ed-9a91-d51bc6ae2dd8" d="M169.6,51.25s.66-3.16,2.43-4.56-.86-.89-.86-.89l-1.35.49L168.47,49l.19,1.5Z"/><rect class="ba447d2e-6230-492c-8dc8-8ba8b08dc0bc" x="170.61" y="50.05" width="3.95" height="4.82"/><path class="e1505b9d-c5f9-4392-82af-1afb503b20ce" d="M181.06,55c-.11.21-.23.41-.36.61a3.13,3.13,0,0,1-.29.42.05.05,0,0,1,0,0v0l-.11.15,0,0h0l-.12.16h0l-.09.11h0l-.06.07,0,0,0,0s0,0,0,0l-.16.19-.09.09-.05.06-.06.06a1.14,1.14,0,0,1-.11.11l-.06.07a.27.27,0,0,0-.08.07l-.08.08h0l0,0s0,0,0,0l-.17.15-.08.07h0l0,0-.23.19h0l-.08.06h0l-.28.2,0,0,0,0-.2.14-.07,0-.08.06-.11.06,0,0-.23.14h0l-.21.12-.05,0c-.24.13-.48.25-.73.36l-.05,0-.18.08-.23.08,0,0-.05,0-.09,0h0l-.31.1-.26.08-.28.07h0l-.25.06-.11,0h-.05l-.15,0h-.08l-.08,0h-.07L174,60l-.12,0h-.49l-.18,0h-1.81l-.12,0h-.09l-.23,0-.11,0h-.12l-.22,0-.07,0h-.1l-.12,0-.1,0h0l-.15,0-.19-.05-.19-.06-.08,0-.06,0-.05,0-.32-.11-.29-.12h0l-.27-.12-.13-.07-.16-.08-.24-.12h0l-.1-.06-.27-.15h0l0,0,0,0-.08-.05-.13-.08h0l-.09-.06,0,0-.13-.09-.15-.11h0l-.41-.32-.1-.08-.07-.07-.14-.11a.6.6,0,0,1-.08-.08l-.09-.08-.12-.12,0,0h0l-.06-.07,0,0h0c-.06-.06-.12-.11-.17-.17l-.06-.06a.18.18,0,0,1-.05-.07.12.12,0,0,1,0-.05h0l-.06-.07-.11-.13-.13-.15s0,0,0,0l0-.06,0,0,0,0,0,0s-.05-.05-.06-.08l-.06-.07v0l-.21-.29q-.24-.35-.45-.72l.1-.21,3.51-.87.1,0,.11,0,.4-.1h0l.1,0h0l.1,0h0l.11,0,.08,0h0l.3-.08.46-.11h.13l.32-.08H170l.19-.05h0a.22.22,0,0,0,.05.08l0,0a2.53,2.53,0,0,0,.42.5,2.86,2.86,0,0,0,1,.61l.35.1.19,0h0l.35,0h0l.35,0h0l.23,0a2.9,2.9,0,0,0,1.1-.5,2.16,2.16,0,0,0,.27-.25,1.48,1.48,0,0,0,.24-.26.16.16,0,0,0,.06-.08,1.27,1.27,0,0,0,.13-.19l0,0h0l.32.08.24.06h.07l.58.15h.06l.09,0h0l.08,0,.15,0,.27.07.44.11h0l.12,0h0L181,55Z"/><path class="b87f5eb1-a2b3-4dde-b2ef-b246849ce2d8" d="M181.06,55c-.11.21-.23.41-.36.61a3.13,3.13,0,0,1-.29.42.05.05,0,0,1,0,0v0l-.11.15,0,0h0l-.12.16h0l-.09.11h0l-.06.07,0,0,0,0s0,0,0,0l-.16.19-.09.09-.05.06-.06.06a1.14,1.14,0,0,1-.11.11l-.06.07a.27.27,0,0,0-.08.07l-.08.08h0l0,0s0,0,0,0l-.17.15-.08.07h0l0,0-.23.19h0l-.08.06h0l-.28.2,0,0,0,0-.2.14-.07,0-.08.06-.11.06,0,0-.23.14h0l-.21.12-.05,0c-.24.13-.48.25-.73.36l-.05,0-.18.08-.23.08,0,0-.05,0-.09,0h0l-.31.1-.26.08-.28.07h0l-.25.06-.11,0h-.05l-.15,0h-.08l-.08,0h-.07L174,60l-.12,0h-.49l-.18,0h-1.49V54.69l.35.1.19,0h0l.35,0h0l.35,0h0l.23,0a2.9,2.9,0,0,0,1.1-.5,2.16,2.16,0,0,0,.27-.25,1.48,1.48,0,0,0,.24-.26.16.16,0,0,0,.06-.08,1.27,1.27,0,0,0,.13-.19l0,0h0l.32.08.24.06h.07l.58.15h.06l.09,0h0l.08,0,.15,0,.27.07.44.11h0l.12,0h0L181,55Z"/><path class="bfe4f912-7fc8-407d-a77d-1c9ec23b3ce8" d="M172.46,55.82a.48.48,0,0,1,0,1,.48.48,0,0,1,0-1"/><path class="bfe4f912-7fc8-407d-a77d-1c9ec23b3ce8" d="M174,55.82a.48.48,0,1,1-.47.48.48.48,0,0,1,.47-.48"/><path class="bfe4f912-7fc8-407d-a77d-1c9ec23b3ce8" d="M172.46,57.2a.48.48,0,0,1,0,.95.48.48,0,1,1,0-.95"/><path class="bfe4f912-7fc8-407d-a77d-1c9ec23b3ce8" d="M174,57.2a.48.48,0,1,1-.47.48.47.47,0,0,1,.47-.48"/><path class="ea4d6d80-a879-486e-b7f8-e27ea410726d" d="M177.23,42.88a1.66,1.66,0,0,0-1.79-1.49,2,2,0,0,0-1.31.47,1.76,1.76,0,0,0-1.72-1.1,1.81,1.81,0,0,0-1.64.9,2.07,2.07,0,0,0-1-.29,1.66,1.66,0,0,0-1.79,1.5,1.45,1.45,0,0,0,.83,1.26c.19.64,0,0-.17,2.07,0,0,0,0,0,0s-.13.09-.11.18.07.44.1.66a.17.17,0,0,0,.21.13,45.68,45.68,0,0,1,7.58,0,.17.17,0,0,0,.21-.13c0-.22.07-.44.1-.66s-.05-.16-.15-.17,0,0,0,0c-.09-2.06-.28-1.43-.09-2.06a1.44,1.44,0,0,0,.78-1.25"/></g></svg>