<svg xmlns="http://www.w3.org/2000/svg" viewBox="0 0 223.23 311.81"><defs><style>.f4f0ee76-1a68-4730-8137-04028150091d{fill:#00bcef;}.a92b5101-b50d-43c4-b4dd-7c4929c6ce54,.b7da902f-c560-4188-9334-9776e52ac838{fill:#fff;}.b38ce614-dc50-4e57-b55e-a86671c2b703,.be628fcc-879b-42ac-8426-11ec857ac8b8{fill:none;stroke:#fff;}.b38ce614-dc50-4e57-b55e-a86671c2b703,.b7da902f-c560-4188-9334-9776e52ac838,.be628fcc-879b-42ac-8426-11ec857ac8b8{stroke-miterlimit:10;}.be628fcc-879b-42ac-8426-11ec857ac8b8{stroke-width:0.03px;}.b38ce614-dc50-4e57-b55e-a86671c2b703{stroke-width:0.05px;}.f4bcdd5b-5679-4507-95f7-a09d71188b45{fill:#ec008c;}.aed73496-86da-400b-8f32-f4b881842a86{fill:#99ca3c;}.ab1fa5b8-1e9a-4eb0-8c0a-f1cafa4ca8cd{fill:#2a2664;}.f5ca5cd3-9571-4c83-84e1-20c1ab90d427{fill:#4d4e4f;}.a2ce1785-866e-442d-896c-8e2fdbfd1930{fill:#67328c;}.b7da902f-c560-4188-9334-9776e52ac838{stroke:#26b9ec;stroke-width:1.5px;}.ef5d0879-9ece-4873-93c4-ff3b535139e3{fill:#ffdfb2;}.ad847802-b36e-48df-b7c2-22bbed17966f{fill:#fedc00;}.bafe43f6-c1d9-4649-8724-7f1c63ccd68b{fill:#282560;}.ac468603-97af-47af-b44d-35389c87033e{fill:#24baed;}.b943e54a-5fa1-4c2a-856a-fde7bcf87f37{fill:#f05c2a;}</style></defs><g id="fd845b8b-d61a-4b7a-b86a-c9029c7d9cde" data-name="Layer 5"><rect class="f4f0ee76-1a68-4730-8137-04028150091d" width="223.23" height="23.73"/><rect class="f4f0ee76-1a68-4730-8137-04028150091d" y="279.44" width="223.23" height="32.37"/><rect class="f4f0ee76-1a68-4730-8137-04028150091d" x="-122.31" y="142.04" width="268.35" height="23.73" transform="translate(165.77 142.04) rotate(90)"/><rect class="f4f0ee76-1a68-4730-8137-04028150091d" x="77.19" y="144.04" width="268.35" height="23.73" transform="translate(367.27 -55.46) rotate(90)"/><path class="a92b5101-b50d-43c4-b4dd-7c4929c6ce54" d="M62.51,293.37l-.42,0a1.68,1.68,0,0,1-.92-.19,1,1,0,0,1-.39-.69,8.41,8.41,0,0,1-.11-1.59,8.31,8.31,0,0,1,.11-1.57,1,1,0,0,1,.39-.7,1.78,1.78,0,0,1,.92-.19l.41,0a2.08,2.08,0,0,1,.36.07V289a3.53,3.53,0,0,0-.66-.07,1.37,1.37,0,0,0-.68.13.71.71,0,0,0-.25.52,15.33,15.33,0,0,0,0,2.71.71.71,0,0,0,.25.52,1.27,1.27,0,0,0,.68.13,3.08,3.08,0,0,0,.68-.07v.45Z"/><path class="a92b5101-b50d-43c4-b4dd-7c4929c6ce54" d="M63.56,293.18a1.15,1.15,0,0,1-.22-.82,2.05,2.05,0,0,1,.08-.63.64.64,0,0,1,.27-.33,1.34,1.34,0,0,1,.55-.09l.92,0v-.25a2.36,2.36,0,0,0-.06-.63.38.38,0,0,0-.21-.26,2,2,0,0,0-.53-.06l-.41,0-.43.05v-.4a4.34,4.34,0,0,1,1-.1,1.77,1.77,0,0,1,.74.12.64.64,0,0,1,.33.4,3,3,0,0,1,.09.84v2.26h-.44l0-.49h0a.68.68,0,0,1-.33.44,1.35,1.35,0,0,1-.55.11A.94.94,0,0,1,63.56,293.18Zm1.27-.27a.44.44,0,0,0,.23-.25,2.23,2.23,0,0,0,.1-.75v-.23h-.8a.92.92,0,0,0-.33,0,.27.27,0,0,0-.15.19,1.4,1.4,0,0,0-.05.42,1.25,1.25,0,0,0,.05.4.29.29,0,0,0,.17.19,1.41,1.41,0,0,0,.78,0Z"/><path class="a92b5101-b50d-43c4-b4dd-7c4929c6ce54" d="M66.52,289.77H67l0,.67h0a.87.87,0,0,1,.32-.57,1.1,1.1,0,0,1,.61-.15v.5a.88.88,0,0,0-.57.16.75.75,0,0,0-.28.45,3.1,3.1,0,0,0-.08.82v1.69h-.5Z"/><path class="a92b5101-b50d-43c4-b4dd-7c4929c6ce54" d="M70.73,291.72H68.9a4.85,4.85,0,0,0,0,.81.48.48,0,0,0,.23.35,1.29,1.29,0,0,0,.57.09,5.1,5.1,0,0,0,.89-.07v.4a3.07,3.07,0,0,1-.45.07l-.53,0a1.6,1.6,0,0,1-.83-.16.8.8,0,0,1-.34-.54,5.25,5.25,0,0,1-.09-1.13,7.57,7.57,0,0,1,.07-1.14.84.84,0,0,1,.33-.54,1.54,1.54,0,0,1,.82-.17,1.24,1.24,0,0,1,.76.17.73.73,0,0,1,.29.52,7.76,7.76,0,0,1,.06,1.15Zm-1.59-1.5a.5.5,0,0,0-.2.33,5.09,5.09,0,0,0,0,.8h1.36v-.08a3.32,3.32,0,0,0-.06-.75.48.48,0,0,0-.18-.31.86.86,0,0,0-.41-.07A1.07,1.07,0,0,0,69.14,290.22Z"/><path class="a92b5101-b50d-43c4-b4dd-7c4929c6ce54" d="M73.73,291.72H71.9a4,4,0,0,0,0,.81.47.47,0,0,0,.22.35,1.37,1.37,0,0,0,.58.09,5,5,0,0,0,.88-.07v.4a2.9,2.9,0,0,1-.44.07l-.54,0a1.56,1.56,0,0,1-.82-.16.81.81,0,0,1-.35-.54,6.18,6.18,0,0,1-.08-1.13,6.43,6.43,0,0,1,.07-1.14.83.83,0,0,1,.32-.54,1.58,1.58,0,0,1,.83-.17,1.26,1.26,0,0,1,.76.17.77.77,0,0,1,.29.52,7.76,7.76,0,0,1,.06,1.15Zm-1.6-1.5a.49.49,0,0,0-.19.33,5.09,5.09,0,0,0,0,.8h1.35v-.08a3.47,3.47,0,0,0,0-.75.45.45,0,0,0-.19-.31.82.82,0,0,0-.4-.07A1.12,1.12,0,0,0,72.13,290.22Z"/><path class="a92b5101-b50d-43c4-b4dd-7c4929c6ce54" d="M74.51,289.77h.43l0,.67h0a.87.87,0,0,1,.32-.57,1.08,1.08,0,0,1,.61-.15v.5a.86.86,0,0,0-.57.16.81.81,0,0,0-.29.45,3.59,3.59,0,0,0-.08.82v1.69h-.49Z"/><path class="a92b5101-b50d-43c4-b4dd-7c4929c6ce54" d="M77.9,288.53h1.46a1,1,0,0,1,.85.31,1.35,1.35,0,0,1,.26.89,1.56,1.56,0,0,1-.17.78.85.85,0,0,1-.54.36v0a.81.81,0,0,1,.59.39,1.67,1.67,0,0,1,.16.8,1.48,1.48,0,0,1-.25.92,1.09,1.09,0,0,1-.93.34H77.9Zm1.86,1.94a.91.91,0,0,0,.19-.64,1.5,1.5,0,0,0-.07-.49.46.46,0,0,0-.22-.27,1,1,0,0,0-.45-.08h-.8v1.68h.8A.71.71,0,0,0,79.76,290.47Zm.06,2.21A1,1,0,0,0,80,292a1.07,1.07,0,0,0-.17-.68.72.72,0,0,0-.58-.2h-.82v1.75h.82A.69.69,0,0,0,79.82,292.68Z"/><path class="a92b5101-b50d-43c4-b4dd-7c4929c6ce54" d="M83.11,292.85h0a.76.76,0,0,1-.29.41,1.31,1.31,0,0,1-1.18,0,.74.74,0,0,1-.27-.42,4.17,4.17,0,0,1-.06-.81v-2.26h.5v2.09a4.26,4.26,0,0,0,0,.73.44.44,0,0,0,.17.29.88.88,0,0,0,.42.07.62.62,0,0,0,.46-.15.68.68,0,0,0,.18-.41,5,5,0,0,0,0-.76v-1.86h.5v3.57h-.44Z"/><path class="a92b5101-b50d-43c4-b4dd-7c4929c6ce54" d="M84.82,293.37l-.45-.05v-.42a5.62,5.62,0,0,0,.92.08.84.84,0,0,0,.4-.07.35.35,0,0,0,.18-.2,1,1,0,0,0,0-.34,1.64,1.64,0,0,0,0-.37.21.21,0,0,0-.09-.14.54.54,0,0,0-.23-.06l-.7-.11a.61.61,0,0,1-.46-.25,1.47,1.47,0,0,1-.11-.68,1.31,1.31,0,0,1,.13-.65.7.7,0,0,1,.37-.31,1.93,1.93,0,0,1,.6-.08l.46,0a2.47,2.47,0,0,1,.4.07v.4l-.4-.06-.46,0a.72.72,0,0,0-.47.12.57.57,0,0,0-.15.47,1.46,1.46,0,0,0,0,.34.27.27,0,0,0,.09.15.75.75,0,0,0,.22.06l.68.09a.76.76,0,0,1,.35.12.51.51,0,0,1,.2.28,2.22,2.22,0,0,1,.06.59,1,1,0,0,1-.25.81,1.22,1.22,0,0,1-.82.23Z"/><path class="a92b5101-b50d-43c4-b4dd-7c4929c6ce54" d="M90,293.34V292.2H88.23v-.41l1.27-3.26h.55l-1.27,3.21H90l.1-1.78h.42v1.78H91v.46h-.5v1.14Z"/><path class="a92b5101-b50d-43c4-b4dd-7c4929c6ce54" d="M91.67,293.34v-.63h.57v.63Z"/><path class="a92b5101-b50d-43c4-b4dd-7c4929c6ce54" d="M93.43,293.21a1,1,0,0,1-.35-.66,18.67,18.67,0,0,1,0-3.23,1,1,0,0,1,.35-.66,1.56,1.56,0,0,1,.9-.19,1.64,1.64,0,0,1,.92.19.9.9,0,0,1,.33.65,12,12,0,0,1,.07,1.62,12.21,12.21,0,0,1-.07,1.62.92.92,0,0,1-.35.66,2.23,2.23,0,0,1-1.8,0Zm1.45-.38a.68.68,0,0,0,.2-.49,19.77,19.77,0,0,0,0-2.81.68.68,0,0,0-.2-.49,1,1,0,0,0-.55-.11,1,1,0,0,0-.56.11c-.1.07-.16.23-.19.49a19.77,19.77,0,0,0,0,2.81c0,.26.09.42.19.49a1,1,0,0,0,.56.11A1,1,0,0,0,94.88,292.83Z"/><path class="a92b5101-b50d-43c4-b4dd-7c4929c6ce54" d="M97.93,294.47v-6.33h.46v6.33Z"/><path class="a92b5101-b50d-43c4-b4dd-7c4929c6ce54" d="M101.25,293.23a.82.82,0,0,1-.38-.63,12.21,12.21,0,0,1-.08-1.67,12.07,12.07,0,0,1,.08-1.65.85.85,0,0,1,.38-.64,3.3,3.3,0,0,1,2.09,0,.85.85,0,0,1,.38.64,12.07,12.07,0,0,1,.08,1.65,12.21,12.21,0,0,1-.08,1.67.82.82,0,0,1-.38.63,2.3,2.3,0,0,1-1,.17A2.35,2.35,0,0,1,101.25,293.23Zm1.92-.21a.71.71,0,0,0,.3-.54,19.92,19.92,0,0,0,0-3.09.71.71,0,0,0-.3-.54,2.12,2.12,0,0,0-.87-.13,2.15,2.15,0,0,0-.88.13.71.71,0,0,0-.3.54,19.92,19.92,0,0,0,0,3.09.71.71,0,0,0,.3.54,2.15,2.15,0,0,0,.88.13A2.12,2.12,0,0,0,103.17,293Zm-1.25-.86a.55.55,0,0,1-.21-.37,5.53,5.53,0,0,1,0-.85,5.63,5.63,0,0,1,0-.85.55.55,0,0,1,.22-.37.89.89,0,0,1,.49-.11,1.61,1.61,0,0,1,.42.05V290a2,2,0,0,0-.35,0,.59.59,0,0,0-.34.07.37.37,0,0,0-.12.26,8.18,8.18,0,0,0,0,1.4.37.37,0,0,0,.12.26.71.71,0,0,0,.34.06,2,2,0,0,0,.36,0v.29a2,2,0,0,1-.43,0A.93.93,0,0,1,101.92,292.16Z"/><path class="a92b5101-b50d-43c4-b4dd-7c4929c6ce54" d="M105.13,292.88H107v.46h-2.41v-.55a8.7,8.7,0,0,1,0-.87,1,1,0,0,1,.14-.43,1.21,1.21,0,0,1,.41-.34l.91-.54a.75.75,0,0,0,.32-.32,1.43,1.43,0,0,0,.07-.54,1.72,1.72,0,0,0-.06-.52.4.4,0,0,0-.23-.23,1.29,1.29,0,0,0-.5-.07,9.22,9.22,0,0,0-1,.08v-.43a4.55,4.55,0,0,1,.54-.08l.61,0a2.3,2.3,0,0,1,.65.08.69.69,0,0,1,.39.35,1.65,1.65,0,0,1,.15.79,2.72,2.72,0,0,1-.06.64.89.89,0,0,1-.19.39,1.57,1.57,0,0,1-.36.29l-1,.58a.55.55,0,0,0-.23.22,1.09,1.09,0,0,0,0,.25c0,.1,0,.26,0,.47Z"/><path class="a92b5101-b50d-43c4-b4dd-7c4929c6ce54" d="M108.14,293.21a.91.91,0,0,1-.34-.66,16.34,16.34,0,0,1,0-3.23.91.91,0,0,1,.34-.66,1.58,1.58,0,0,1,.9-.19,1.62,1.62,0,0,1,.92.19.91.91,0,0,1,.34.65,14,14,0,0,1,.07,1.62,11.76,11.76,0,0,1-.08,1.62,1,1,0,0,1-.34.66,1.6,1.6,0,0,1-.91.19A1.58,1.58,0,0,1,108.14,293.21Zm1.45-.38a.68.68,0,0,0,.2-.49,19.77,19.77,0,0,0,0-2.81.68.68,0,0,0-.2-.49,1.43,1.43,0,0,0-1.1,0,.68.68,0,0,0-.2.49c0,.25,0,.73,0,1.4s0,1.16,0,1.41a.68.68,0,0,0,.2.49,1.43,1.43,0,0,0,1.1,0Z"/><path class="a92b5101-b50d-43c4-b4dd-7c4929c6ce54" d="M111.57,292.88h1.9v.46h-2.41v-.55a8.7,8.7,0,0,1,0-.87.79.79,0,0,1,.15-.43,1.08,1.08,0,0,1,.4-.34l.91-.54a.75.75,0,0,0,.32-.32,1.43,1.43,0,0,0,.07-.54,1.72,1.72,0,0,0-.06-.52.43.43,0,0,0-.23-.23,1.29,1.29,0,0,0-.5-.07,9.22,9.22,0,0,0-1,.08v-.43a4.55,4.55,0,0,1,.54-.08l.61,0a2.3,2.3,0,0,1,.65.08.69.69,0,0,1,.39.35,1.65,1.65,0,0,1,.15.79,2.72,2.72,0,0,1-.06.64.89.89,0,0,1-.19.39,1.57,1.57,0,0,1-.36.29l-1,.58a.55.55,0,0,0-.23.22,1.09,1.09,0,0,0,0,.25c0,.1,0,.26,0,.47Z"/><path class="a92b5101-b50d-43c4-b4dd-7c4929c6ce54" d="M114.66,293.34v-4.17l-.67.33V289l.81-.48h.38v4.81Z"/><path class="a92b5101-b50d-43c4-b4dd-7c4929c6ce54" d="M118.06,293.91a.92.92,0,0,1-.48-.72,18.2,18.2,0,0,1,0-3.81.92.92,0,0,1,.48-.72,3.61,3.61,0,0,1,1.38-.19,3.42,3.42,0,0,1,1.38.19.9.9,0,0,1,.48.71,11.71,11.71,0,0,1,.1,1.92,6.43,6.43,0,0,1-.06,1,.64.64,0,0,1-.2.4.82.82,0,0,1-.41.08H120l0-.41h0a.56.56,0,0,1-.25.37,1,1,0,0,1-.43.09.79.79,0,0,1-.58-.19,1.06,1.06,0,0,1-.17-.7,1.87,1.87,0,0,1,.06-.54.45.45,0,0,1,.22-.28.89.89,0,0,1,.44-.08l.73,0v-.21a2.18,2.18,0,0,0,0-.53.28.28,0,0,0-.16-.2,1.25,1.25,0,0,0-.4-.05,2.43,2.43,0,0,0-.36,0,1.83,1.83,0,0,0-.33,0v-.37a3.79,3.79,0,0,1,.82-.08,1.14,1.14,0,0,1,.59.11.52.52,0,0,1,.27.34,2.58,2.58,0,0,1,.07.71v1.66h.39a.24.24,0,0,0,.19-.06.69.69,0,0,0,.09-.33,8.47,8.47,0,0,0,0-.86c0-.73,0-1.24,0-1.54a1.28,1.28,0,0,0-.2-.68.82.82,0,0,0-.55-.27,6.47,6.47,0,0,0-.87-.05q-.47,0-.78,0a.89.89,0,0,0-.6.26,1.2,1.2,0,0,0-.21.67c0,.3,0,.83,0,1.58a14.6,14.6,0,0,0,.06,1.61,1.06,1.06,0,0,0,.26.66,1.16,1.16,0,0,0,.71.24h.62c.49,0,.8,0,1,0v.3h-1A3.61,3.61,0,0,1,118.06,293.91Zm1.65-1.5a.43.43,0,0,0,.18-.26,2.34,2.34,0,0,0,0-.54v-.21h-.63a.65.65,0,0,0-.24,0,.25.25,0,0,0-.11.15,1.6,1.6,0,0,0,0,.36,1.4,1.4,0,0,0,0,.34.27.27,0,0,0,.13.16.66.66,0,0,0,.28,0A.63.63,0,0,0,119.71,292.41Z"/><path class="a92b5101-b50d-43c4-b4dd-7c4929c6ce54" d="M123.55,293.31v-.46a4.46,4.46,0,0,0,.54.06l.5,0a1.73,1.73,0,0,0,.44,0,.58.58,0,0,0,.27-.14.43.43,0,0,0,.13-.26,3,3,0,0,0,0-.47,3.58,3.58,0,0,0,0-.54.34.34,0,0,0-.13-.22,1,1,0,0,0-.36-.11l-.82-.13a.79.79,0,0,1-.44-.2.8.8,0,0,1-.19-.39,3.48,3.48,0,0,1,0-.63,1.42,1.42,0,0,1,.3-1,1.35,1.35,0,0,1,1-.31,4.51,4.51,0,0,1,1.07.11V289a5.09,5.09,0,0,0-.95-.09,1.56,1.56,0,0,0-.48.06.51.51,0,0,0-.26.15.57.57,0,0,0-.12.26,2.21,2.21,0,0,0,0,.39,2.51,2.51,0,0,0,0,.47.35.35,0,0,0,.11.2.7.7,0,0,0,.28.09l.78.13a1.55,1.55,0,0,1,.47.14.66.66,0,0,1,.26.34,2.66,2.66,0,0,1,.08.8,2.4,2.4,0,0,1-.12.85.75.75,0,0,1-.38.45,1.68,1.68,0,0,1-.74.14A7.51,7.51,0,0,1,123.55,293.31Zm1.12,1.5a.49.49,0,0,0,.07-.32v-.11h-.23v-.6h.56v.54a2,2,0,0,1,0,.5.4.4,0,0,1-.2.24,1.18,1.18,0,0,1-.44.06v-.24C124.53,294.88,124.63,294.86,124.67,294.81Z"/><path class="a92b5101-b50d-43c4-b4dd-7c4929c6ce54" d="M128.15,293.37l-.4,0a1.27,1.27,0,0,1-.76-.18.84.84,0,0,1-.31-.55,6.19,6.19,0,0,1-.07-1.11,5.4,5.4,0,0,1,.08-1.12.89.89,0,0,1,.33-.55,1.18,1.18,0,0,1,.71-.17l.41,0a2,2,0,0,1,.34.07v.4a3.39,3.39,0,0,0-.64-.07.85.85,0,0,0-.48.11.66.66,0,0,0-.21.4,6.12,6.12,0,0,0-.05.9,6.61,6.61,0,0,0,.05.93.61.61,0,0,0,.21.39.9.9,0,0,0,.49.1,2.64,2.64,0,0,0,.65-.07v.41A1.58,1.58,0,0,1,128.15,293.37Z"/><path class="a92b5101-b50d-43c4-b4dd-7c4929c6ce54" d="M129.46,293.25a.72.72,0,0,1-.32-.51,6.42,6.42,0,0,1-.08-1.18,6.35,6.35,0,0,1,.08-1.18.72.72,0,0,1,.32-.52,1.78,1.78,0,0,1,.81-.14,1.83,1.83,0,0,1,.82.14.75.75,0,0,1,.32.52,7.7,7.7,0,0,1,.07,1.18,7.8,7.8,0,0,1-.07,1.18.75.75,0,0,1-.32.51,1.68,1.68,0,0,1-.82.15A1.63,1.63,0,0,1,129.46,293.25Zm1.31-.38a.51.51,0,0,0,.18-.36c0-.18,0-.49,0-.95s0-.78,0-.95a.56.56,0,0,0-.18-.37,1,1,0,0,0-.5-.1.94.94,0,0,0-.49.1.49.49,0,0,0-.18.37,11.3,11.3,0,0,0,0,1.9.45.45,0,0,0,.18.36.85.85,0,0,0,.49.1A.89.89,0,0,0,130.77,292.87Z"/><path class="a92b5101-b50d-43c4-b4dd-7c4929c6ce54" d="M132.26,293.18a1.2,1.2,0,0,1-.22-.82,2.05,2.05,0,0,1,.08-.63.61.61,0,0,1,.28-.33,1.32,1.32,0,0,1,.54-.09l.92,0v-.25a3,3,0,0,0-.05-.63.39.39,0,0,0-.22-.26,2,2,0,0,0-.52-.06l-.42,0-.43.05v-.4a4.37,4.37,0,0,1,1-.1,1.72,1.72,0,0,1,.73.12.64.64,0,0,1,.33.4,3,3,0,0,1,.09.84v2.26h-.44l0-.49h0a.69.69,0,0,1-.34.44,1.35,1.35,0,0,1-.55.11A1,1,0,0,1,132.26,293.18Zm1.27-.27a.41.41,0,0,0,.23-.25,2.23,2.23,0,0,0,.1-.75v-.23h-.79a1,1,0,0,0-.34,0,.27.27,0,0,0-.15.19,1.4,1.4,0,0,0-.05.42,1.25,1.25,0,0,0,.05.4.32.32,0,0,0,.17.19,1.2,1.2,0,0,0,.38.05A1.12,1.12,0,0,0,133.53,292.91Z"/><path class="a92b5101-b50d-43c4-b4dd-7c4929c6ce54" d="M135.22,293.34v-5.2h.5v5.2Z"/><path class="a92b5101-b50d-43c4-b4dd-7c4929c6ce54" d="M136.61,293.18a1.15,1.15,0,0,1-.22-.82,2.05,2.05,0,0,1,.08-.63.64.64,0,0,1,.27-.33,1.34,1.34,0,0,1,.55-.09l.92,0v-.25a2.36,2.36,0,0,0-.06-.63.38.38,0,0,0-.21-.26,2,2,0,0,0-.53-.06l-.41,0-.43.05v-.4a4.34,4.34,0,0,1,1-.1,1.69,1.69,0,0,1,.73.12.62.62,0,0,1,.34.4,3,3,0,0,1,.09.84v2.26h-.44l0-.49h0a.66.66,0,0,1-.34.44,1.27,1.27,0,0,1-.54.11A.94.94,0,0,1,136.61,293.18Zm1.27-.27a.41.41,0,0,0,.23-.25,2.23,2.23,0,0,0,.1-.75v-.23h-.8a.92.92,0,0,0-.33,0,.27.27,0,0,0-.15.19,1.4,1.4,0,0,0-.05.42,1.25,1.25,0,0,0,.05.4.29.29,0,0,0,.17.19,1.41,1.41,0,0,0,.78,0Z"/><path class="a92b5101-b50d-43c4-b4dd-7c4929c6ce54" d="M141.19,293.25a.94.94,0,0,1-.3-.54,7.26,7.26,0,0,1,0-2.28.88.88,0,0,1,.29-.56,1.11,1.11,0,0,1,.63-.15,1.2,1.2,0,0,1,.54.11.7.7,0,0,1,.3.38h0v-2.07h.5v5.2h-.44l0-.49h0a.69.69,0,0,1-.32.44,1.27,1.27,0,0,1-.54.11A1.08,1.08,0,0,1,141.19,293.25Zm1.21-.4a.51.51,0,0,0,.21-.32,2.37,2.37,0,0,0,.06-.41c0-.15,0-.36,0-.62a4.11,4.11,0,0,0-.06-.84.56.56,0,0,0-.21-.38.64.64,0,0,0-.42-.11.86.86,0,0,0-.46.09.52.52,0,0,0-.19.37,6.72,6.72,0,0,0,0,.93,6.51,6.51,0,0,0,0,.93.52.52,0,0,0,.18.37.9.9,0,0,0,.47.09A.66.66,0,0,0,142.4,292.85Z"/><path class="a92b5101-b50d-43c4-b4dd-7c4929c6ce54" d="M146.28,291.72h-1.83a4.85,4.85,0,0,0,.05.81.48.48,0,0,0,.23.35,1.29,1.29,0,0,0,.57.09,5,5,0,0,0,.88-.07v.4a2.7,2.7,0,0,1-.44.07l-.54,0a1.58,1.58,0,0,1-.82-.16.8.8,0,0,1-.34-.54,5.25,5.25,0,0,1-.09-1.13,7.57,7.57,0,0,1,.07-1.14.84.84,0,0,1,.33-.54,1.54,1.54,0,0,1,.82-.17,1.26,1.26,0,0,1,.76.17.73.73,0,0,1,.29.52,7.76,7.76,0,0,1,.06,1.15Zm-1.59-1.5a.46.46,0,0,0-.2.33,5.09,5.09,0,0,0,0,.8h1.36v-.08a3.32,3.32,0,0,0-.06-.75.48.48,0,0,0-.18-.31.89.89,0,0,0-.41-.07A1,1,0,0,0,144.69,290.22Z"/><path class="a92b5101-b50d-43c4-b4dd-7c4929c6ce54" d="M149.24,293.34,148,288.53h.55l1,4.12h0l1-4.12h.53l-1.2,4.81Z"/><path class="a92b5101-b50d-43c4-b4dd-7c4929c6ce54" d="M151.65,293.18a1.2,1.2,0,0,1-.22-.82,2.05,2.05,0,0,1,.08-.63.61.61,0,0,1,.28-.33,1.32,1.32,0,0,1,.54-.09l.92,0v-.25a2.36,2.36,0,0,0-.06-.63.38.38,0,0,0-.21-.26,2,2,0,0,0-.52-.06l-.42,0-.43.05v-.4a4.37,4.37,0,0,1,1-.1,1.72,1.72,0,0,1,.73.12.64.64,0,0,1,.33.4,3,3,0,0,1,.09.84v2.26h-.44l0-.49h0a.69.69,0,0,1-.34.44,1.35,1.35,0,0,1-.55.11A1,1,0,0,1,151.65,293.18Zm1.27-.27a.41.41,0,0,0,.23-.25,2.23,2.23,0,0,0,.1-.75v-.23h-.79a1,1,0,0,0-.34,0,.27.27,0,0,0-.15.19,1.4,1.4,0,0,0-.05.42,1.25,1.25,0,0,0,.05.4.32.32,0,0,0,.17.19,1.2,1.2,0,0,0,.38.05A1.12,1.12,0,0,0,152.92,292.91Z"/><path class="a92b5101-b50d-43c4-b4dd-7c4929c6ce54" d="M154.61,293.34v-5.2h.5v5.2Z"/><path class="a92b5101-b50d-43c4-b4dd-7c4929c6ce54" d="M156.27,293.25a.69.69,0,0,1-.32-.51,6.42,6.42,0,0,1-.08-1.18,6.35,6.35,0,0,1,.08-1.18.69.69,0,0,1,.32-.52,1.78,1.78,0,0,1,.81-.14,1.83,1.83,0,0,1,.82.14.75.75,0,0,1,.32.52,7.7,7.7,0,0,1,.07,1.18,7.8,7.8,0,0,1-.07,1.18.75.75,0,0,1-.32.51,1.68,1.68,0,0,1-.82.15A1.63,1.63,0,0,1,156.27,293.25Zm1.31-.38a.51.51,0,0,0,.18-.36c0-.18,0-.49,0-.95s0-.78,0-.95a.56.56,0,0,0-.18-.37,1,1,0,0,0-.5-.1.94.94,0,0,0-.49.1.49.49,0,0,0-.18.37,11.3,11.3,0,0,0,0,1.9.45.45,0,0,0,.18.36.85.85,0,0,0,.49.1A.89.89,0,0,0,157.58,292.87Z"/><path class="a92b5101-b50d-43c4-b4dd-7c4929c6ce54" d="M159.06,289.77h.43l0,.67h0a.87.87,0,0,1,.32-.57,1.08,1.08,0,0,1,.61-.15v.5a.86.86,0,0,0-.57.16.81.81,0,0,0-.29.45,3.59,3.59,0,0,0-.08.82v1.69h-.49Z"/><path class="a92b5101-b50d-43c4-b4dd-7c4929c6ce54" d="M161,288.72v-.58h.52v.58Zm0,4.62v-3.57h.5v3.57Z"/><path class="a92b5101-b50d-43c4-b4dd-7c4929c6ce54" d="M37.54,301.77l-.4,0a1.27,1.27,0,0,1-.76-.18.84.84,0,0,1-.31-.56A6,6,0,0,1,36,300a6.21,6.21,0,0,1,.08-1.12.89.89,0,0,1,.33-.55,1.26,1.26,0,0,1,.71-.17,2.88,2.88,0,0,1,.41,0,2,2,0,0,1,.34.07v.4a3.38,3.38,0,0,0-.63-.07.86.86,0,0,0-.49.11.56.56,0,0,0-.2.39,7,7,0,0,0,0,1.83.56.56,0,0,0,.2.4.92.92,0,0,0,.49.1,2.23,2.23,0,0,0,.65-.08v.42A1.58,1.58,0,0,1,37.54,301.77Z"/><path class="a92b5101-b50d-43c4-b4dd-7c4929c6ce54" d="M38.85,301.65a.72.72,0,0,1-.32-.51,6.42,6.42,0,0,1-.08-1.18,6.55,6.55,0,0,1,.08-1.19.68.68,0,0,1,.32-.5,1.63,1.63,0,0,1,.81-.15,1.68,1.68,0,0,1,.82.15.68.68,0,0,1,.32.5,6.78,6.78,0,0,1,.07,1.19,6.65,6.65,0,0,1-.07,1.18.72.72,0,0,1-.32.51,1.68,1.68,0,0,1-.82.15A1.63,1.63,0,0,1,38.85,301.65Zm1.31-.38a.51.51,0,0,0,.18-.36c0-.18,0-.49,0-1s0-.78,0-.95a.56.56,0,0,0-.18-.37,1,1,0,0,0-.5-.1.94.94,0,0,0-.49.1A.49.49,0,0,0,39,299a11.3,11.3,0,0,0,0,1.9.45.45,0,0,0,.18.36.85.85,0,0,0,.49.1A.89.89,0,0,0,40.16,301.27Z"/><path class="a92b5101-b50d-43c4-b4dd-7c4929c6ce54" d="M43.45,299.66a4.26,4.26,0,0,0,0-.73.41.41,0,0,0-.18-.29.84.84,0,0,0-.41-.07.65.65,0,0,0-.47.15.68.68,0,0,0-.18.41,7.16,7.16,0,0,0,0,.76v1.85h-.5v-3.57h.43l0,.5h0a.77.77,0,0,1,.29-.41,1.09,1.09,0,0,1,.59-.14,1,1,0,0,1,.6.14.65.65,0,0,1,.26.42,3.41,3.41,0,0,1,.07.81v2.25h-.5Z"/><path class="a92b5101-b50d-43c4-b4dd-7c4929c6ce54" d="M46.24,301.77l-.4,0a1.27,1.27,0,0,1-.76-.18.84.84,0,0,1-.31-.56,6,6,0,0,1-.07-1.1,6.21,6.21,0,0,1,.08-1.12.89.89,0,0,1,.33-.55,1.26,1.26,0,0,1,.71-.17,2.88,2.88,0,0,1,.41,0,2,2,0,0,1,.34.07v.4a3.38,3.38,0,0,0-.63-.07.86.86,0,0,0-.49.11.56.56,0,0,0-.2.39,7,7,0,0,0,0,1.83.56.56,0,0,0,.2.4.92.92,0,0,0,.49.1,2.18,2.18,0,0,0,.65-.08v.42A1.58,1.58,0,0,1,46.24,301.77Z"/><path class="a92b5101-b50d-43c4-b4dd-7c4929c6ce54" d="M49.49,300.12H47.65a4.85,4.85,0,0,0,.05.81.5.5,0,0,0,.23.35,1.31,1.31,0,0,0,.58.09,4.24,4.24,0,0,0,.88-.08v.41a3.13,3.13,0,0,1-.44.07l-.54,0a1.58,1.58,0,0,1-.83-.17.78.78,0,0,1-.34-.53,5.29,5.29,0,0,1-.09-1.14,7.27,7.27,0,0,1,.07-1.12.84.84,0,0,1,.33-.55,1.54,1.54,0,0,1,.82-.17,1.38,1.38,0,0,1,.77.16.82.82,0,0,1,.29.53,7.76,7.76,0,0,1,.06,1.15Zm-1.6-1.5a.45.45,0,0,0-.19.33,4.71,4.71,0,0,0-.05.8H49v-.09a3.28,3.28,0,0,0-.06-.74.44.44,0,0,0-.18-.31.86.86,0,0,0-.41-.07A1.1,1.1,0,0,0,47.89,298.62Z"/><path class="a92b5101-b50d-43c4-b4dd-7c4929c6ce54" d="M50.26,298.17h.44l0,.5h.05a.71.71,0,0,1,.31-.44,1.27,1.27,0,0,1,.54-.11,1.08,1.08,0,0,1,.63.15.79.79,0,0,1,.3.54,5.42,5.42,0,0,1,.09,1.14,6.51,6.51,0,0,1-.08,1.15.91.91,0,0,1-.3.54,1,1,0,0,1-.63.16,1.13,1.13,0,0,1-.53-.11.7.7,0,0,1-.31-.38h0v1.78h-.5Zm1.65,3.09a.56.56,0,0,0,.19-.37,6.51,6.51,0,0,0,0-.93,6.31,6.31,0,0,0,0-.93.56.56,0,0,0-.19-.37.9.9,0,0,0-.47-.09.71.71,0,0,0-.41.1.58.58,0,0,0-.21.35,2.06,2.06,0,0,0,0,.39c0,.14,0,.32,0,.55a4.05,4.05,0,0,0,.06.87.69.69,0,0,0,.21.41.67.67,0,0,0,.41.11A.9.9,0,0,0,51.91,301.26Z"/><path class="a92b5101-b50d-43c4-b4dd-7c4929c6ce54" d="M53.63,301.74V298.6h-.52v-.43h.52v-1h.5v1h.61v.43h-.61v3.14Z"/><path class="a92b5101-b50d-43c4-b4dd-7c4929c6ce54" d="M58.1,301.77l-.4,0a1.27,1.27,0,0,1-.76-.18.89.89,0,0,1-.32-.56,7.35,7.35,0,0,1-.06-1.1,5.4,5.4,0,0,1,.08-1.12.89.89,0,0,1,.33-.55,1.24,1.24,0,0,1,.71-.17,2.88,2.88,0,0,1,.41,0,1.68,1.68,0,0,1,.33.07v.4a3.2,3.2,0,0,0-.63-.07.85.85,0,0,0-.48.11.61.61,0,0,0-.21.39,8.4,8.4,0,0,0,0,1.83.61.61,0,0,0,.21.4.9.9,0,0,0,.49.1,2.12,2.12,0,0,0,.64-.08v.42A1.39,1.39,0,0,1,58.1,301.77Z"/><path class="a92b5101-b50d-43c4-b4dd-7c4929c6ce54" d="M59.12,298.17h.44l0,.67h0a.83.83,0,0,1,.32-.57,1.07,1.07,0,0,1,.6-.15v.5a.91.91,0,0,0-.56.15.87.87,0,0,0-.29.46,3.59,3.59,0,0,0-.08.82v1.69h-.5Z"/><path class="a92b5101-b50d-43c4-b4dd-7c4929c6ce54" d="M63.34,300.12H61.5a3.77,3.77,0,0,0,.06.81.49.49,0,0,0,.22.35,1.37,1.37,0,0,0,.58.09,4.18,4.18,0,0,0,.88-.08v.41a2.9,2.9,0,0,1-.44.07l-.54,0a1.61,1.61,0,0,1-.83-.17.81.81,0,0,1-.34-.53A5.44,5.44,0,0,1,61,300a6.18,6.18,0,0,1,.07-1.12.79.79,0,0,1,.32-.55,1.58,1.58,0,0,1,.83-.17,1.36,1.36,0,0,1,.76.16.82.82,0,0,1,.29.53,7.76,7.76,0,0,1,.06,1.15Zm-1.6-1.5a.45.45,0,0,0-.19.33,4.71,4.71,0,0,0,0,.8h1.36v-.09a4.23,4.23,0,0,0,0-.74.45.45,0,0,0-.19-.31.84.84,0,0,0-.4-.07A1.12,1.12,0,0,0,61.74,298.62Z"/><path class="a92b5101-b50d-43c4-b4dd-7c4929c6ce54" d="M64.13,301.58a1.15,1.15,0,0,1-.22-.82,2.05,2.05,0,0,1,.08-.63.61.61,0,0,1,.28-.33,1.25,1.25,0,0,1,.54-.09l.92,0v-.25a2.39,2.39,0,0,0-.06-.64.38.38,0,0,0-.21-.25,1.66,1.66,0,0,0-.53-.06l-.41,0-.43.05v-.41a5,5,0,0,1,1-.09,1.74,1.74,0,0,1,.74.12.64.64,0,0,1,.33.4,3,3,0,0,1,.09.84v2.26h-.44l0-.49h0a.72.72,0,0,1-.34.44,1.35,1.35,0,0,1-.55.11A1,1,0,0,1,64.13,301.58Zm1.27-.27a.41.41,0,0,0,.23-.25,2.23,2.23,0,0,0,.1-.75v-.23h-.8a.92.92,0,0,0-.33,0,.28.28,0,0,0-.15.18,1.53,1.53,0,0,0,0,.43,1.25,1.25,0,0,0,0,.4.29.29,0,0,0,.17.19,1.41,1.41,0,0,0,.78,0Z"/><path class="a92b5101-b50d-43c4-b4dd-7c4929c6ce54" d="M67.31,301.74V298.6h-.52v-.43h.52v-1h.49v1h.62v.43H67.8v3.14Z"/><path class="a92b5101-b50d-43c4-b4dd-7c4929c6ce54" d="M70.62,301.65a.94.94,0,0,1-.3-.54,5.47,5.47,0,0,1-.09-1.15,5.55,5.55,0,0,1,.09-1.14.88.88,0,0,1,.29-.55,1.13,1.13,0,0,1,.63-.15,1,1,0,0,1,.54.11.62.62,0,0,1,.3.38h0v-2.07h.49v5.2h-.44l0-.49h0a.69.69,0,0,1-.32.44,1.27,1.27,0,0,1-.54.11A1.08,1.08,0,0,1,70.62,301.65Zm1.22-.4a.54.54,0,0,0,.2-.32,2.37,2.37,0,0,0,.06-.41c0-.15,0-.36,0-.62a3.36,3.36,0,0,0-.07-.84.56.56,0,0,0-.2-.38.69.69,0,0,0-.43-.11.88.88,0,0,0-.46.09.52.52,0,0,0-.18.37,6.31,6.31,0,0,0,0,.93,6.51,6.51,0,0,0,0,.93.52.52,0,0,0,.18.37.93.93,0,0,0,.47.09A.71.71,0,0,0,71.84,301.25Z"/><path class="a92b5101-b50d-43c4-b4dd-7c4929c6ce54" d="M75.71,300.12H73.88a4.85,4.85,0,0,0,.05.81.5.5,0,0,0,.23.35,1.29,1.29,0,0,0,.57.09,4.27,4.27,0,0,0,.89-.08v.41a3.13,3.13,0,0,1-.44.07l-.54,0a1.58,1.58,0,0,1-.83-.17.78.78,0,0,1-.34-.53,5.29,5.29,0,0,1-.09-1.14,7.27,7.27,0,0,1,.07-1.12.84.84,0,0,1,.33-.55,1.54,1.54,0,0,1,.82-.17,1.32,1.32,0,0,1,.76.16.78.78,0,0,1,.29.53,7.76,7.76,0,0,1,.06,1.15Zm-1.59-1.5a.45.45,0,0,0-.19.33,4.71,4.71,0,0,0-.05.8h1.36v-.09a3.28,3.28,0,0,0-.06-.74.44.44,0,0,0-.18-.31.86.86,0,0,0-.41-.07A1.07,1.07,0,0,0,74.12,298.62Z"/><path class="a92b5101-b50d-43c4-b4dd-7c4929c6ce54" d="M80.19,301.74l-.34-1.33H78.37L78,301.74h-.52l1.26-4.81h.69l1.26,4.81Zm-1.06-4.18h0l-.6,2.38h1.23Z"/><path class="a92b5101-b50d-43c4-b4dd-7c4929c6ce54" d="M81.29,298.17h.44l0,.67h0a.83.83,0,0,1,.32-.57,1.07,1.07,0,0,1,.6-.15v.5a1,1,0,0,0-.57.15.86.86,0,0,0-.28.46,3.59,3.59,0,0,0-.08.82v1.69h-.5Z"/><path class="a92b5101-b50d-43c4-b4dd-7c4929c6ce54" d="M86.75,299.66a4.26,4.26,0,0,0,0-.73.47.47,0,0,0-.15-.29.73.73,0,0,0-.38-.07.58.58,0,0,0-.45.14.62.62,0,0,0-.18.4,6.77,6.77,0,0,0,0,.78v1.85H85v-2.08a5.53,5.53,0,0,0,0-.73.44.44,0,0,0-.15-.29.73.73,0,0,0-.38-.07.55.55,0,0,0-.45.15.65.65,0,0,0-.18.41,6.64,6.64,0,0,0,0,.76v1.85h-.49v-3.57h.43l0,.5h0a.79.79,0,0,1,.28-.4.89.89,0,0,1,.56-.15,1.05,1.05,0,0,1,.57.12.69.69,0,0,1,.26.43h0a.77.77,0,0,1,.29-.41,1.27,1.27,0,0,1,1.14,0,.74.74,0,0,1,.25.43,3.37,3.37,0,0,1,.07.8v2.26h-.5Z"/><path class="a92b5101-b50d-43c4-b4dd-7c4929c6ce54" d="M88.1,297.12v-.58h.52v.58Zm0,4.62v-3.57h.5v3.57Z"/><path class="a92b5101-b50d-43c4-b4dd-7c4929c6ce54" d="M91.3,299.66a4,4,0,0,0,0-.73.44.44,0,0,0-.17-.29.86.86,0,0,0-.41-.07.62.62,0,0,0-.47.15.68.68,0,0,0-.18.41,4.92,4.92,0,0,0,0,.76v1.85h-.5v-3.57h.44l0,.5h0a.72.72,0,0,1,.29-.41,1,1,0,0,1,.59-.14,1,1,0,0,1,.59.14.71.71,0,0,1,.27.42,4.17,4.17,0,0,1,.06.81v2.25H91.3Z"/><path class="a92b5101-b50d-43c4-b4dd-7c4929c6ce54" d="M92.67,301.58a1.15,1.15,0,0,1-.22-.82,2.05,2.05,0,0,1,.08-.63.6.6,0,0,1,.27-.33,1.34,1.34,0,0,1,.55-.09l.92,0v-.25a2.39,2.39,0,0,0-.06-.64.37.37,0,0,0-.22-.25,1.55,1.55,0,0,0-.52-.06l-.41,0-.43.05v-.41a5,5,0,0,1,1-.09,1.69,1.69,0,0,1,.73.12.62.62,0,0,1,.34.4,3,3,0,0,1,.09.84v2.26h-.44l0-.49h0a.66.66,0,0,1-.34.44,1.31,1.31,0,0,1-.55.11A1,1,0,0,1,92.67,301.58Zm1.27-.27a.44.44,0,0,0,.23-.25,2.23,2.23,0,0,0,.1-.75v-.23h-.8a.92.92,0,0,0-.33,0,.28.28,0,0,0-.15.18,1.53,1.53,0,0,0,0,.43,1.25,1.25,0,0,0,0,.4.29.29,0,0,0,.17.19,1.41,1.41,0,0,0,.78,0Z"/><path class="a92b5101-b50d-43c4-b4dd-7c4929c6ce54" d="M96.91,301.71v-.46a4,4,0,0,0,.54.06l.5,0a2.45,2.45,0,0,0,.44,0,.58.58,0,0,0,.27-.14.43.43,0,0,0,.13-.26,3,3,0,0,0,0-.47,3.22,3.22,0,0,0,0-.54.29.29,0,0,0-.13-.22.84.84,0,0,0-.36-.11l-.81-.13a.75.75,0,0,1-.44-.2.72.72,0,0,1-.19-.38,3.6,3.6,0,0,1,0-.64,1.38,1.38,0,0,1,.31-1,1.32,1.32,0,0,1,1-.31,4.36,4.36,0,0,1,1.06.11v.44a5,5,0,0,0-.94-.09,1.56,1.56,0,0,0-.48.06.51.51,0,0,0-.27.15.57.57,0,0,0-.12.26c0,.11,0,.23,0,.39s0,.37,0,.47a.29.29,0,0,0,.12.2.65.65,0,0,0,.28.09l.78.13a1.39,1.39,0,0,1,.46.14.66.66,0,0,1,.26.34,2.28,2.28,0,0,1,.09.8,2.4,2.4,0,0,1-.12.85.78.78,0,0,1-.38.45,1.68,1.68,0,0,1-.74.14A7.33,7.33,0,0,1,96.91,301.71Z"/><path class="a92b5101-b50d-43c4-b4dd-7c4929c6ce54" d="M99.51,297.51v0l.54-.93h.55l.53.93v0h-.35l-.45-.68-.47.68Zm.56,4.23v-3.57h.5v3.57Z"/><path class="a92b5101-b50d-43c4-b4dd-7c4929c6ce54" d="M101.45,298.17h.43l0,.67h0a.87.87,0,0,1,.32-.57,1.07,1.07,0,0,1,.6-.15v.5a.91.91,0,0,0-.56.15.87.87,0,0,0-.29.46,3.59,3.59,0,0,0-.08.82v1.69h-.49Z"/><path class="a92b5101-b50d-43c4-b4dd-7c4929c6ce54" d="M104.26,301.69a.73.73,0,0,1-.32-.44h0l0,.49h-.43v-5.2h.5v2.07h0a.7.7,0,0,1,.3-.38,1.08,1.08,0,0,1,.54-.11,1.13,1.13,0,0,1,.63.15.94.94,0,0,1,.3.55,6.39,6.39,0,0,1,.08,1.14,5.42,5.42,0,0,1-.09,1.14.89.89,0,0,1-.3.55,1.13,1.13,0,0,1-.63.15A1.27,1.27,0,0,1,104.26,301.69Zm.83-.43a.56.56,0,0,0,.19-.37,6.91,6.91,0,0,0,0-.93,6.72,6.72,0,0,0,0-.93.56.56,0,0,0-.19-.37.9.9,0,0,0-.47-.09.73.73,0,0,0-.39.09.54.54,0,0,0-.21.31,2.23,2.23,0,0,0-.06.41,4.8,4.8,0,0,0,0,.58c0,.24,0,.43,0,.57a1.43,1.43,0,0,0,.07.39.46.46,0,0,0,.2.33.68.68,0,0,0,.4.1A.9.9,0,0,0,105.09,301.26Z"/><path class="a92b5101-b50d-43c4-b4dd-7c4929c6ce54" d="M108.41,301.25h0a.88.88,0,0,1-.29.41,1.11,1.11,0,0,1-.6.14,1.07,1.07,0,0,1-.59-.14.65.65,0,0,1-.26-.42,3.41,3.41,0,0,1-.07-.81v-2.26h.5v2.09a4.26,4.26,0,0,0,0,.73.44.44,0,0,0,.17.29.91.91,0,0,0,.42.07.62.62,0,0,0,.46-.15.68.68,0,0,0,.18-.41,5,5,0,0,0,0-.76v-1.86h.5v3.57h-.44Z"/><path class="a92b5101-b50d-43c4-b4dd-7c4929c6ce54" d="M114.24,299.09v.43h-.59v2.16l-.56.09-.57,0a2.4,2.4,0,0,1-1-.15.9.9,0,0,1-.44-.44,2.22,2.22,0,0,1-.11-.76,1.52,1.52,0,0,1,.16-.8.9.9,0,0,1,.5-.35v0a.82.82,0,0,1-.48-.36,1.56,1.56,0,0,1-.15-.77,1.79,1.79,0,0,1,.12-.7.92.92,0,0,1,.45-.42,2.2,2.2,0,0,1,.91-.15,4,4,0,0,1,.56,0,3.71,3.71,0,0,1,.55.09v.4l-.51-.07-.46,0a2.09,2.09,0,0,0-.72.09.47.47,0,0,0-.32.27,1.56,1.56,0,0,0-.07.55,1.27,1.27,0,0,0,.13.64c.08.16.27.24.55.24h.44v.43h-.44a.82.82,0,0,0-.46.11.47.47,0,0,0-.21.3,2.27,2.27,0,0,0,0,.52,1.29,1.29,0,0,0,.11.59.49.49,0,0,0,.32.26,1.89,1.89,0,0,0,.6.07,3.58,3.58,0,0,0,.61-.05v-2.23Z"/><path class="a92b5101-b50d-43c4-b4dd-7c4929c6ce54" d="M115.59,297.51v0l.54-.93h.55l.53.93v0h-.35l-.46-.68-.46.68Zm.56,4.23v-3.57h.5v3.57Z"/><path class="a92b5101-b50d-43c4-b4dd-7c4929c6ce54" d="M121,299.66a4.26,4.26,0,0,0,0-.73.43.43,0,0,0-.16-.29.69.69,0,0,0-.37-.07.62.62,0,0,0-.46.14.67.67,0,0,0-.17.4,5,5,0,0,0,0,.78v1.85h-.5v-2.08a4.18,4.18,0,0,0,0-.73.37.37,0,0,0-.15-.29.69.69,0,0,0-.37-.07.55.55,0,0,0-.45.15.65.65,0,0,0-.18.41,4.92,4.92,0,0,0,0,.76v1.85h-.5v-3.57H118l0,.5h0a.73.73,0,0,1,.28-.4.87.87,0,0,1,.56-.15,1.08,1.08,0,0,1,.57.12.68.68,0,0,1,.25.43h0a.76.76,0,0,1,.28-.41,1.06,1.06,0,0,1,.58-.14,1,1,0,0,1,.56.13.7.7,0,0,1,.26.43,4,4,0,0,1,.07.8v2.26H121Z"/><path class="a92b5101-b50d-43c4-b4dd-7c4929c6ce54" d="M123.17,301.69a.69.69,0,0,1-.32-.44h0l0,.49h-.43v-5.2h.49v2.07h0a.62.62,0,0,1,.3-.38,1,1,0,0,1,.53-.11,1.08,1.08,0,0,1,.63.15.84.84,0,0,1,.3.55,7.26,7.26,0,0,1,0,2.28.94.94,0,0,1-.3.55,1.14,1.14,0,0,1-.64.15A1.22,1.22,0,0,1,123.17,301.69Zm.83-.43a.52.52,0,0,0,.18-.37,6.51,6.51,0,0,0,0-.93,6.31,6.31,0,0,0,0-.93.52.52,0,0,0-.18-.37.93.93,0,0,0-.47-.09.76.76,0,0,0-.4.09.53.53,0,0,0-.2.31,2.18,2.18,0,0,0-.07.41c0,.15,0,.34,0,.58s0,.43,0,.57a2,2,0,0,0,.06.39.54.54,0,0,0,.2.33.71.71,0,0,0,.41.1A.93.93,0,0,0,124,301.26Z"/><path class="a92b5101-b50d-43c4-b4dd-7c4929c6ce54" d="M127.32,301.25h0a.76.76,0,0,1-.29.41,1.07,1.07,0,0,1-.59.14,1,1,0,0,1-.59-.14.71.71,0,0,1-.27-.42,4.17,4.17,0,0,1-.06-.81v-2.26H126v2.09a4,4,0,0,0,0,.73.44.44,0,0,0,.17.29.84.84,0,0,0,.41.07.65.65,0,0,0,.47-.15.74.74,0,0,0,.18-.41,5,5,0,0,0,0-.76v-1.86h.5v3.57h-.44Z"/><path class="a92b5101-b50d-43c4-b4dd-7c4929c6ce54" d="M130.48,299.66a4.26,4.26,0,0,0,0-.73.44.44,0,0,0-.18-.29.84.84,0,0,0-.41-.07.65.65,0,0,0-.47.15.68.68,0,0,0-.18.41,6.64,6.64,0,0,0,0,.76v1.85h-.49v-3.57h.43l0,.5h0a.77.77,0,0,1,.29-.41,1.09,1.09,0,0,1,.59-.14,1,1,0,0,1,.6.14.65.65,0,0,1,.26.42,3.41,3.41,0,0,1,.07.81v2.25h-.5Z"/><path class="a92b5101-b50d-43c4-b4dd-7c4929c6ce54" d="M131.85,301.58a1.21,1.21,0,0,1-.21-.82,1.78,1.78,0,0,1,.08-.63.56.56,0,0,1,.27-.33,1.32,1.32,0,0,1,.54-.09l.93,0v-.25a2.39,2.39,0,0,0-.06-.64.4.4,0,0,0-.22-.25,1.63,1.63,0,0,0-.52-.06l-.42,0-.43.05v-.41a5.06,5.06,0,0,1,1-.09,1.72,1.72,0,0,1,.73.12.64.64,0,0,1,.33.4,3,3,0,0,1,.09.84v2.26h-.44l0-.49h0a.66.66,0,0,1-.34.44,1.35,1.35,0,0,1-.55.11A1,1,0,0,1,131.85,301.58Zm1.77-4.48a.51.51,0,0,1-.22.32.92.92,0,0,1-.53.12.87.87,0,0,1-.51-.12.51.51,0,0,1-.22-.32,2.86,2.86,0,0,1,0-.56h.35a2.13,2.13,0,0,0,0,.4.31.31,0,0,0,.11.2.46.46,0,0,0,.29.07.49.49,0,0,0,.31-.07.31.31,0,0,0,.11-.2,2,2,0,0,0,0-.4h.35A2.75,2.75,0,0,1,133.62,297.1Zm-.5,4.21a.41.41,0,0,0,.23-.25,2.2,2.2,0,0,0,.11-.75v-.23h-.8a.92.92,0,0,0-.33,0,.26.26,0,0,0-.16.18,1.6,1.6,0,0,0,0,.43,1.32,1.32,0,0,0,0,.4.32.32,0,0,0,.17.19,1.2,1.2,0,0,0,.38.05A1.12,1.12,0,0,0,133.12,301.31Z"/><path class="a92b5101-b50d-43c4-b4dd-7c4929c6ce54" d="M135,301.74V298.6h-.52v-.43H135v-1h.5v1h.61v.43h-.61v3.14Z"/><path class="a92b5101-b50d-43c4-b4dd-7c4929c6ce54" d="M136.74,301.58a1.15,1.15,0,0,1-.22-.82,2.05,2.05,0,0,1,.08-.63.61.61,0,0,1,.28-.33,1.25,1.25,0,0,1,.54-.09l.92,0v-.25a2.39,2.39,0,0,0-.06-.64.38.38,0,0,0-.21-.25,1.66,1.66,0,0,0-.53-.06l-.41,0-.43.05v-.41a5,5,0,0,1,1-.09,1.77,1.77,0,0,1,.74.12.64.64,0,0,1,.33.4,3,3,0,0,1,.09.84v2.26h-.44l0-.49h0a.65.65,0,0,1-.33.44,1.35,1.35,0,0,1-.55.11A1,1,0,0,1,136.74,301.58Zm1.77-4.48a.55.55,0,0,1-.22.32,1.21,1.21,0,0,1-1,0,.54.54,0,0,1-.21-.32,2.75,2.75,0,0,1-.05-.56h.35a2,2,0,0,0,0,.4.31.31,0,0,0,.11.2.46.46,0,0,0,.29.07.53.53,0,0,0,.31-.07.31.31,0,0,0,.11-.2,3.59,3.59,0,0,0,0-.4h.35A2.86,2.86,0,0,1,138.51,297.1Zm-.5,4.21a.41.41,0,0,0,.23-.25,2.23,2.23,0,0,0,.1-.75v-.23h-.8a.92.92,0,0,0-.33,0,.28.28,0,0,0-.15.18,1.53,1.53,0,0,0-.05.43,1.25,1.25,0,0,0,.05.4.32.32,0,0,0,.17.19,1.41,1.41,0,0,0,.78,0Z"/><path class="a92b5101-b50d-43c4-b4dd-7c4929c6ce54" d="M139.92,301.74V298.6h-.52v-.43h.52v-1h.49v1H141v.43h-.62v3.14Zm.2,1.47a.6.6,0,0,0,.06-.32v-.11H140v-.6h.56v.54a1.59,1.59,0,0,1,0,.5.32.32,0,0,1-.19.23,1,1,0,0,1-.44.07v-.24C140,303.28,140.08,303.26,140.12,303.21Z"/><path class="a92b5101-b50d-43c4-b4dd-7c4929c6ce54" d="M141.6,297.12v-.58h.52v.58Zm0,4.62v-3.57h.5v3.57Z"/><path class="a92b5101-b50d-43c4-b4dd-7c4929c6ce54" d="M143.2,301.74V298.6h-.52v-.43h.52v-1h.5v1h.61v.43h-.61v3.14Z"/><path class="a92b5101-b50d-43c4-b4dd-7c4929c6ce54" d="M146.51,301.65a.94.94,0,0,1-.3-.54,5.61,5.61,0,0,1-.08-1.15,5.68,5.68,0,0,1,.08-1.14.89.89,0,0,1,.3-.55,1.07,1.07,0,0,1,.62-.15,1,1,0,0,1,.54.11.62.62,0,0,1,.3.38h0v-2.07h.5v5.2h-.44l0-.49h0a.66.66,0,0,1-.32.44,1.2,1.2,0,0,1-.54.11A1.13,1.13,0,0,1,146.51,301.65Zm1.22-.4a.46.46,0,0,0,.2-.32,2.33,2.33,0,0,0,.07-.41c0-.15,0-.36,0-.62a4.11,4.11,0,0,0-.06-.84.61.61,0,0,0-.21-.38.67.67,0,0,0-.43-.11.91.91,0,0,0-.46.09.52.52,0,0,0-.18.37,6.31,6.31,0,0,0,0,.93,6.51,6.51,0,0,0,0,.93.52.52,0,0,0,.19.37.86.86,0,0,0,.46.09A.69.69,0,0,0,147.73,301.25Z"/><path class="a92b5101-b50d-43c4-b4dd-7c4929c6ce54" d="M151.61,300.12h-1.84a3.77,3.77,0,0,0,.06.81.49.49,0,0,0,.22.35,1.34,1.34,0,0,0,.58.09,4.18,4.18,0,0,0,.88-.08v.41a3.13,3.13,0,0,1-.44.07l-.54,0a1.61,1.61,0,0,1-.83-.17.81.81,0,0,1-.34-.53,5.44,5.44,0,0,1-.08-1.14,6.18,6.18,0,0,1,.07-1.12.79.79,0,0,1,.32-.55,1.57,1.57,0,0,1,.82-.17,1.38,1.38,0,0,1,.77.16.82.82,0,0,1,.29.53,7.76,7.76,0,0,1,.06,1.15Zm-1.6-1.5a.45.45,0,0,0-.19.33,4.71,4.71,0,0,0,0,.8h1.36v-.09a3.28,3.28,0,0,0-.06-.74.41.41,0,0,0-.18-.31.84.84,0,0,0-.4-.07A1.12,1.12,0,0,0,150,298.62Z"/><path class="a92b5101-b50d-43c4-b4dd-7c4929c6ce54" d="M153.66,301.71v-.46a4.46,4.46,0,0,0,.54.06l.5,0a2.48,2.48,0,0,0,.45,0,.5.5,0,0,0,.26-.14.43.43,0,0,0,.13-.26,2.05,2.05,0,0,0,0-.47,3.22,3.22,0,0,0,0-.54.29.29,0,0,0-.13-.22,1,1,0,0,0-.36-.11l-.81-.13a.73.73,0,0,1-.44-.2.74.74,0,0,1-.2-.38,3.75,3.75,0,0,1,0-.64,1.42,1.42,0,0,1,.3-1,1.35,1.35,0,0,1,1-.31,4.45,4.45,0,0,1,1.07.11v.44a5.09,5.09,0,0,0-1-.09,1.56,1.56,0,0,0-.48.06.51.51,0,0,0-.26.15.57.57,0,0,0-.12.26,2.13,2.13,0,0,0,0,.39,2.59,2.59,0,0,0,0,.47.32.32,0,0,0,.11.2.7.7,0,0,0,.28.09l.79.13a1.48,1.48,0,0,1,.46.14.66.66,0,0,1,.26.34,2.66,2.66,0,0,1,.08.8,2.69,2.69,0,0,1-.11.85.79.79,0,0,1-.39.45,1.68,1.68,0,0,1-.74.14A7.51,7.51,0,0,1,153.66,301.71Z"/><path class="a92b5101-b50d-43c4-b4dd-7c4929c6ce54" d="M156.82,297.12v-.58h.52v.58Zm0,4.62v-3.57h.5v3.57Z"/><path class="a92b5101-b50d-43c4-b4dd-7c4929c6ce54" d="M158.2,301.74v-5.2h.5v5.2Z"/><path class="a92b5101-b50d-43c4-b4dd-7c4929c6ce54" d="M160.24,301.74l-1-3.57h.51l.76,2.94h0l.75-2.94h.5l-1,3.57Z"/><path class="a92b5101-b50d-43c4-b4dd-7c4929c6ce54" d="M162.39,297.12v-.58h.53v.58Zm0,4.62v-3.57h.49v3.57Z"/><path class="a92b5101-b50d-43c4-b4dd-7c4929c6ce54" d="M163.79,301.58a1.21,1.21,0,0,1-.21-.82,1.78,1.78,0,0,1,.08-.63.56.56,0,0,1,.27-.33,1.32,1.32,0,0,1,.54-.09l.93,0v-.25a2.39,2.39,0,0,0-.06-.64.37.37,0,0,0-.22-.25,1.59,1.59,0,0,0-.52-.06l-.42,0-.43.05v-.41a5.13,5.13,0,0,1,1-.09,1.69,1.69,0,0,1,.73.12.64.64,0,0,1,.33.4,3,3,0,0,1,.09.84v2.26h-.44l0-.49h0a.66.66,0,0,1-.34.44,1.35,1.35,0,0,1-.55.11A1,1,0,0,1,163.79,301.58Zm1.27-.27a.41.41,0,0,0,.23-.25,2.2,2.2,0,0,0,.11-.75v-.23h-.8a.92.92,0,0,0-.33,0,.26.26,0,0,0-.16.18,1.6,1.6,0,0,0,0,.43,1.32,1.32,0,0,0,0,.4.32.32,0,0,0,.17.19,1.2,1.2,0,0,0,.38.05A1.09,1.09,0,0,0,165.06,301.31Z"/><path class="a92b5101-b50d-43c4-b4dd-7c4929c6ce54" d="M168.15,296.93h1.46a1.06,1.06,0,0,1,.86.31,1.35,1.35,0,0,1,.25.89,1.4,1.4,0,0,1-.17.77.8.8,0,0,1-.54.37v0a.83.83,0,0,1,.6.39,1.77,1.77,0,0,1,.16.8,1.48,1.48,0,0,1-.26.92,1.06,1.06,0,0,1-.93.34h-1.43Zm1.87,1.94a1,1,0,0,0,.18-.64,1.54,1.54,0,0,0-.06-.49.54.54,0,0,0-.22-.27,1.12,1.12,0,0,0-.46-.08h-.79v1.68h.79A.73.73,0,0,0,170,298.87Zm.06,2.22a1.18,1.18,0,0,0,.15-.68,1.08,1.08,0,0,0-.16-.68.75.75,0,0,0-.58-.2h-.82v1.75h.82A.75.75,0,0,0,170.08,301.09Z"/><path class="a92b5101-b50d-43c4-b4dd-7c4929c6ce54" d="M171.83,301.65a.73.73,0,0,1-.33-.51,7.8,7.8,0,0,1-.07-1.18,8,8,0,0,1,.07-1.19.69.69,0,0,1,.33-.5,1.61,1.61,0,0,1,.81-.15,1.68,1.68,0,0,1,.82.15.71.71,0,0,1,.32.5,8,8,0,0,1,.07,1.19,7.8,7.8,0,0,1-.07,1.18.75.75,0,0,1-.32.51,1.68,1.68,0,0,1-.82.15A1.61,1.61,0,0,1,171.83,301.65Zm1.31-.38a.47.47,0,0,0,.17-.36,6.88,6.88,0,0,0,0-1,6.78,6.78,0,0,0,0-.95.52.52,0,0,0-.17-.37,1,1,0,0,0-.5-.1.92.92,0,0,0-.49.1.49.49,0,0,0-.18.37,11.3,11.3,0,0,0,0,1.9.45.45,0,0,0,.18.36.83.83,0,0,0,.49.1A.89.89,0,0,0,173.14,301.27Z"/><path class="a92b5101-b50d-43c4-b4dd-7c4929c6ce54" d="M174.63,303.09v-.41l.85,0a1.25,1.25,0,0,0,.6-.11.51.51,0,0,0,.25-.36,4.29,4.29,0,0,0,.06-.85v-.1h0a.67.67,0,0,1-.29.38,1.2,1.2,0,0,1-.54.11,1,1,0,0,1-.63-.16.79.79,0,0,1-.3-.53,7.27,7.27,0,0,1,0-2.28.88.88,0,0,1,.3-.54,1.12,1.12,0,0,1,.64-.15,1.22,1.22,0,0,1,.53.11.72.72,0,0,1,.32.44h0l0-.5h.44v3.06a6.43,6.43,0,0,1-.08,1.15.86.86,0,0,1-.37.57,1.5,1.5,0,0,1-.86.19C175.25,303.14,174.93,303.12,174.63,303.09Zm1.48-1.86a.6.6,0,0,0,.2-.33,4.26,4.26,0,0,0,.08-.95c0-.22,0-.4,0-.54a1.68,1.68,0,0,0-.06-.36.55.55,0,0,0-.62-.48.86.86,0,0,0-.46.09.48.48,0,0,0-.19.36,8.67,8.67,0,0,0,0,1.86.53.53,0,0,0,.19.37.86.86,0,0,0,.46.09A.71.71,0,0,0,176.11,301.23Z"/><path class="a92b5101-b50d-43c4-b4dd-7c4929c6ce54" d="M178,301.65a.94.94,0,0,1-.3-.54,5.47,5.47,0,0,1-.09-1.15,5.55,5.55,0,0,1,.09-1.14.88.88,0,0,1,.29-.55,1.13,1.13,0,0,1,.63-.15,1,1,0,0,1,.54.11.62.62,0,0,1,.3.38h0v-2.07H180v5.2h-.44l0-.49h0a.69.69,0,0,1-.32.44,1.27,1.27,0,0,1-.54.11A1.08,1.08,0,0,1,178,301.65Zm1.22-.4a.54.54,0,0,0,.2-.32,2.37,2.37,0,0,0,.06-.41c0-.15,0-.36,0-.62a3.36,3.36,0,0,0-.07-.84.56.56,0,0,0-.2-.38.69.69,0,0,0-.43-.11.91.91,0,0,0-.46.09.52.52,0,0,0-.18.37,6.31,6.31,0,0,0,0,.93,6.51,6.51,0,0,0,0,.93.49.49,0,0,0,.19.37.86.86,0,0,0,.46.09A.71.71,0,0,0,179.26,301.25Z"/><path class="a92b5101-b50d-43c4-b4dd-7c4929c6ce54" d="M180.93,301.58a1.15,1.15,0,0,1-.22-.82,2.05,2.05,0,0,1,.08-.63.61.61,0,0,1,.28-.33,1.25,1.25,0,0,1,.54-.09l.92,0v-.25a2.39,2.39,0,0,0-.06-.64.38.38,0,0,0-.21-.25,1.66,1.66,0,0,0-.53-.06l-.41,0-.43.05v-.41a5,5,0,0,1,1-.09,1.77,1.77,0,0,1,.74.12.64.64,0,0,1,.33.4,3,3,0,0,1,.09.84v2.26h-.44l0-.49h0a.69.69,0,0,1-.34.44,1.35,1.35,0,0,1-.55.11A1,1,0,0,1,180.93,301.58Zm1.27-.27a.41.41,0,0,0,.23-.25,2.23,2.23,0,0,0,.1-.75v-.23h-.8a.92.92,0,0,0-.33,0,.28.28,0,0,0-.15.18,1.53,1.53,0,0,0-.05.43,1.25,1.25,0,0,0,.05.4.32.32,0,0,0,.17.19,1.41,1.41,0,0,0,.78,0Z"/><path class="a92b5101-b50d-43c4-b4dd-7c4929c6ce54" d="M185.7,299.66a4.26,4.26,0,0,0,0-.73.44.44,0,0,0-.17-.29.88.88,0,0,0-.42-.07.65.65,0,0,0-.47.15.82.82,0,0,0-.18.41,7.16,7.16,0,0,0,0,.76v1.85h-.5v-3.57h.43l0,.5h0a.79.79,0,0,1,.3-.41,1,1,0,0,1,.59-.14,1,1,0,0,1,.59.14.65.65,0,0,1,.26.42,3.41,3.41,0,0,1,.07.81v2.25h-.5Z"/><path class="a92b5101-b50d-43c4-b4dd-7c4929c6ce54" d="M43.1,50.15s-.73,1-.38,1.34c0,0,.13.08.29-.13a8.33,8.33,0,0,0,.22-1.16s0-.2-.13-.05"/><path class="be628fcc-879b-42ac-8426-11ec857ac8b8" d="M43.1,50.15s-.73,1-.38,1.34c0,0,.13.08.29-.13a8.33,8.33,0,0,0,.22-1.16S43.27,50,43.1,50.15Z"/><path class="a92b5101-b50d-43c4-b4dd-7c4929c6ce54" d="M42.62,52.58s-.37.68-.22.62.42-.77.22-.62"/><path class="b38ce614-dc50-4e57-b55e-a86671c2b703" d="M42.62,52.58s-.37.68-.22.62S42.82,52.43,42.62,52.58Z"/><path class="a92b5101-b50d-43c4-b4dd-7c4929c6ce54" d="M42.09,58.12c-.55-.34-.34-.61-.34-.61.12-.22.39.52.39.52s.08.17,0,.09"/><path class="b38ce614-dc50-4e57-b55e-a86671c2b703" d="M42.09,58.12c-.55-.34-.34-.61-.34-.61.12-.22.39.52.39.52S42.22,58.2,42.09,58.12Z"/><path class="f4bcdd5b-5679-4507-95f7-a09d71188b45" d="M64.24,50.38A13.94,13.94,0,1,1,50.3,36.3,14,14,0,0,1,64.24,50.38"/><path class="a92b5101-b50d-43c4-b4dd-7c4929c6ce54" d="M45.92,53.3l-.19-.79s-.21-.33.38-1.58a6.28,6.28,0,0,0,0-2.84s-.94-4.05,1.45-6.16a6.21,6.21,0,0,1,6.18-2s3,.6,4.21,4.45a6.37,6.37,0,0,1-1.18,5.81,13.34,13.34,0,0,1-1.9,1.69,11.07,11.07,0,0,0-1.53,1.43,8,8,0,0,0-1,1.68,2.39,2.39,0,0,1-1.18.77,13.17,13.17,0,0,1-5.26-2.45"/><path class="b38ce614-dc50-4e57-b55e-a86671c2b703" d="M45.92,53.3l-.19-.79s-.21-.33.38-1.58a6.28,6.28,0,0,0,0-2.84s-.94-4.05,1.45-6.16a6.21,6.21,0,0,1,6.18-2s3,.6,4.21,4.45a6.37,6.37,0,0,1-1.18,5.81,13.34,13.34,0,0,1-1.9,1.69,11.07,11.07,0,0,0-1.53,1.43,8,8,0,0,0-1,1.68,2.39,2.39,0,0,1-1.18.77A13.17,13.17,0,0,1,45.92,53.3Z"/><path class="a92b5101-b50d-43c4-b4dd-7c4929c6ce54" d="M45.92,53.3l-.35.82s-.11.18.13.37l-.2.38s-.56-.19-.23.32l-.17.41s-.52-.06-.15.35l-.19.38s-.46-.08-.16.34l-.17.4s-.5-.37.48,1.63L44.8,59l.57.68a1,1,0,0,0,1.28.68l.93,0,.17-.14s1.52-.42,1.52-.69c0,0,.74.11.36-.43l.11-.36s.58.07.25-.4l.06-.36s.56.09.27-.4l.12-.38s.6,0,.23-.43a1.76,1.76,0,0,0,.51-1,13.88,13.88,0,0,1-5.26-2.45"/><path class="b38ce614-dc50-4e57-b55e-a86671c2b703" d="M45.92,53.3l-.35.82s-.11.18.13.37l-.2.38s-.56-.19-.23.32l-.17.41s-.52-.06-.15.35l-.19.38s-.46-.08-.16.34l-.17.4s-.5-.37.48,1.63L44.8,59l.57.68a1,1,0,0,0,1.28.68l.93,0,.17-.14s1.52-.42,1.52-.69c0,0,.74.11.36-.43l.11-.36s.58.07.25-.4l.06-.36s.56.09.27-.4l.12-.38s.6,0,.23-.43a1.76,1.76,0,0,0,.51-1A13.88,13.88,0,0,1,45.92,53.3Z"/><path class="a92b5101-b50d-43c4-b4dd-7c4929c6ce54" d="M50.61,56.75c0,.06-.48,0-2.35-.47l2.16.84s.6.09.19-.37"/><path class="f4bcdd5b-5679-4507-95f7-a09d71188b45" d="M50.61,56.75c0,.06-.48,0-2.35-.47l2.16.84S51,57.21,50.61,56.75Z"/><path class="a92b5101-b50d-43c4-b4dd-7c4929c6ce54" d="M45.52,54.93a9.17,9.17,0,0,0,2.07,1.12l-2.27-.88s-.35-.44.2-.24"/><path class="f4bcdd5b-5679-4507-95f7-a09d71188b45" d="M45.52,54.93a9.17,9.17,0,0,0,2.07,1.12l-2.27-.88S45,54.73,45.52,54.93Z"/><path class="a92b5101-b50d-43c4-b4dd-7c4929c6ce54" d="M45.12,55.64a10.15,10.15,0,0,0,2.16,1.18L45,55.93s-.38-.33.11-.29"/><path class="f4bcdd5b-5679-4507-95f7-a09d71188b45" d="M45.12,55.64a10.15,10.15,0,0,0,2.16,1.18L45,55.93S44.63,55.6,45.12,55.64Z"/><path class="a92b5101-b50d-43c4-b4dd-7c4929c6ce54" d="M44.79,56.39A11.7,11.7,0,0,0,47,57.55l-2.3-.89s-.31-.38.14-.27"/><path class="f4bcdd5b-5679-4507-95f7-a09d71188b45" d="M44.79,56.39A11.7,11.7,0,0,0,47,57.55l-2.3-.89S44.34,56.28,44.79,56.39Z"/><path class="a92b5101-b50d-43c4-b4dd-7c4929c6ce54" d="M44.45,57.14a25.27,25.27,0,0,0,2.28,1.12l-2.34-.91s-.16-.4.06-.21"/><path class="f4bcdd5b-5679-4507-95f7-a09d71188b45" d="M44.45,57.14a25.27,25.27,0,0,0,2.28,1.12l-2.34-.91S44.23,57,44.45,57.14Z"/><path class="aed73496-86da-400b-8f32-f4b881842a86" d="M50.26,57.56c0,.06-.51,0-2.38-.51l2.15.84s.54.13.23-.33"/><path class="f4bcdd5b-5679-4507-95f7-a09d71188b45" d="M50.26,57.56c0,.06-.51,0-2.38-.51l2.15.84S50.57,58,50.26,57.56Z"/><path class="a92b5101-b50d-43c4-b4dd-7c4929c6ce54" d="M50,58.33a7.61,7.61,0,0,1-2.41-.51l2.17.84s.56.1.24-.33"/><path class="f4bcdd5b-5679-4507-95f7-a09d71188b45" d="M50,58.33a7.61,7.61,0,0,1-2.41-.51l2.17.84S50.27,58.76,50,58.33Z"/><path class="a92b5101-b50d-43c4-b4dd-7c4929c6ce54" d="M49.59,59.09c0,.06-.5,0-2.37-.49l2,.85s.75.13.37-.36"/><path class="f4bcdd5b-5679-4507-95f7-a09d71188b45" d="M49.59,59.09c0,.06-.5,0-2.37-.49l2,.85S50,59.58,49.59,59.09Z"/><path class="a92b5101-b50d-43c4-b4dd-7c4929c6ce54" d="M47.74,60.15l-1.89-.65s.64.4.63.5-1-.09-1.07-.36a.9.9,0,0,0,1.23.66l.92,0Z"/><path class="b38ce614-dc50-4e57-b55e-a86671c2b703" d="M47.74,60.15l-1.89-.65s.64.4.63.5-1-.09-1.07-.36a.9.9,0,0,0,1.23.66l.92,0Z"/><path class="a92b5101-b50d-43c4-b4dd-7c4929c6ce54" d="M46.63,54.16s2,1.31,1.82.93c0,0-2.41-1.49-1.82-.93"/><path class="b38ce614-dc50-4e57-b55e-a86671c2b703" d="M46.63,54.16s2,1.31,1.82.93C48.45,55.09,46,53.6,46.63,54.16Z"/><path class="ab1fa5b8-1e9a-4eb0-8c0a-f1cafa4ca8cd" d="M85.45,101.46V88.13h6.18v2.35h-3.5v3.39h3.08v2.34H88.13v5.25Z"/><path class="ab1fa5b8-1e9a-4eb0-8c0a-f1cafa4ca8cd" d="M99.6,97.3H95.2a8.74,8.74,0,0,0,.09,1.53.75.75,0,0,0,.45.56,3.91,3.91,0,0,0,1.26.14c.49,0,1.28,0,2.36-.12v1.92c-.35.07-.8.14-1.35.2a15,15,0,0,1-1.59.09,4.63,4.63,0,0,1-2.51-.52,2.28,2.28,0,0,1-1-1.52,22,22,0,0,1,0-6.06,2.41,2.41,0,0,1,1-1.56,5.63,5.63,0,0,1,4.68,0,2.14,2.14,0,0,1,.87,1.48,21.07,21.07,0,0,1,.17,3.14Zm-4-3.66a.78.78,0,0,0-.28.56,7.86,7.86,0,0,0-.08,1.41h2a8.06,8.06,0,0,0-.08-1.42.79.79,0,0,0-.27-.56,1.21,1.21,0,0,0-.66-.13A1.25,1.25,0,0,0,95.56,93.64Z"/><path class="ab1fa5b8-1e9a-4eb0-8c0a-f1cafa4ca8cd" d="M101.16,91.58h2.37l.08,1.63h.15a2.06,2.06,0,0,1,2.29-1.78V94a3.32,3.32,0,0,0-1.39.25,1.55,1.55,0,0,0-.75.9,5,5,0,0,0-.25,1.78v4.49h-2.5Z"/><path class="ab1fa5b8-1e9a-4eb0-8c0a-f1cafa4ca8cd" d="M115.91,96.12a16,16,0,0,0-.06-1.7.9.9,0,0,0-.22-.6,1.08,1.08,0,0,0-.61-.13.91.91,0,0,0-.66.2,1.12,1.12,0,0,0-.24.7c0,.35-.05,1-.05,1.82v5h-2.5V96.12a16,16,0,0,0-.06-1.7.9.9,0,0,0-.22-.6,1.13,1.13,0,0,0-.63-.13.87.87,0,0,0-.65.2,1.31,1.31,0,0,0-.24.72q-.06.54-.06,1.8v5h-2.5V91.58h2.36l.08,1.18h.14a2,2,0,0,1,.81-1,2.58,2.58,0,0,1,1.34-.31,2.31,2.31,0,0,1,1.34.32,1.61,1.61,0,0,1,.63,1h.16a1.88,1.88,0,0,1,.81-1,2.68,2.68,0,0,1,1.36-.31,2.2,2.2,0,0,1,1.36.36,1.85,1.85,0,0,1,.64,1.08,9.35,9.35,0,0,1,.17,2v6.6h-2.5Z"/><path class="ab1fa5b8-1e9a-4eb0-8c0a-f1cafa4ca8cd" d="M120.15,89.43V87.07h2.54v2.36Zm0,12V91.58h2.5v9.88Z"/><path class="ab1fa5b8-1e9a-4eb0-8c0a-f1cafa4ca8cd" d="M131.12,97.3h-4.4a7.61,7.61,0,0,0,.1,1.53.72.72,0,0,0,.44.56,4,4,0,0,0,1.26.14q.73,0,2.37-.12v1.92c-.35.07-.8.14-1.36.2a14.67,14.67,0,0,1-1.59.09,4.65,4.65,0,0,1-2.51-.52,2.27,2.27,0,0,1-1-1.52,21,21,0,0,1,0-6.06,2.39,2.39,0,0,1,1-1.56,4.19,4.19,0,0,1,2.39-.53,4.08,4.08,0,0,1,2.29.49A2.15,2.15,0,0,1,131,93.4a21.4,21.4,0,0,1,.16,3.14Zm-4-3.66a.78.78,0,0,0-.28.56,9,9,0,0,0-.08,1.41h2.06a9.19,9.19,0,0,0-.08-1.42.79.79,0,0,0-.27-.56,1.21,1.21,0,0,0-.66-.13A1.29,1.29,0,0,0,127.08,93.64Z"/><path class="ab1fa5b8-1e9a-4eb0-8c0a-f1cafa4ca8cd" d="M132.69,91.58h2.36l.08,1.63h.16a2.06,2.06,0,0,1,2.28-1.78V94a3.27,3.27,0,0,0-1.38.25,1.53,1.53,0,0,0-.76.9,5.22,5.22,0,0,0-.24,1.78v4.49h-2.5Z"/><path class="f5ca5cd3-9571-4c83-84e1-20c1ab90d427" d="M59.74,127.7a4.22,4.22,0,0,1-.6,0,2.5,2.5,0,0,1-1.32-.27,1.5,1.5,0,0,1-.56-1,18.31,18.31,0,0,1,0-4.52,1.55,1.55,0,0,1,.56-1,2.5,2.5,0,0,1,1.32-.27,4.08,4.08,0,0,1,.59,0,2.55,2.55,0,0,1,.51.1v.61a6.1,6.1,0,0,0-.94-.09,1.91,1.91,0,0,0-1,.18,1,1,0,0,0-.37.74,23.56,23.56,0,0,0,0,3.88,1,1,0,0,0,.37.74,1.91,1.91,0,0,0,1,.18,5.15,5.15,0,0,0,1-.09v.63C60.12,127.65,59.94,127.68,59.74,127.7Z"/><path class="f5ca5cd3-9571-4c83-84e1-20c1ab90d427" d="M61.22,122.56h.62l0,1h.06a1.22,1.22,0,0,1,.46-.81,1.46,1.46,0,0,1,.86-.22v.72a1.28,1.28,0,0,0-.81.22,1.17,1.17,0,0,0-.41.65,5.15,5.15,0,0,0-.11,1.17v2.42h-.71Z"/><path class="f5ca5cd3-9571-4c83-84e1-20c1ab90d427" d="M67.24,125.34H64.62a7.39,7.39,0,0,0,.07,1.16A.67.67,0,0,0,65,127a1.77,1.77,0,0,0,.82.14A7.29,7.29,0,0,0,67.1,127v.58a4.64,4.64,0,0,1-.63.1c-.27,0-.52,0-.77,0a2.24,2.24,0,0,1-1.18-.24,1.13,1.13,0,0,1-.49-.76,8.07,8.07,0,0,1-.12-1.62,9.15,9.15,0,0,1,.1-1.62,1.12,1.12,0,0,1,.47-.77,2.07,2.07,0,0,1,1.17-.25,1.89,1.89,0,0,1,1.09.24,1.07,1.07,0,0,1,.41.75,10.47,10.47,0,0,1,.09,1.64ZM65,123.2a.61.61,0,0,0-.27.46,6.19,6.19,0,0,0-.07,1.15h1.94v-.12a5.38,5.38,0,0,0-.08-1.07.62.62,0,0,0-.27-.44,1.19,1.19,0,0,0-.57-.1A1.45,1.45,0,0,0,65,123.2Z"/><path class="f5ca5cd3-9571-4c83-84e1-20c1ab90d427" d="M68.86,127.7c-.26,0-.47,0-.64-.08V127a8.2,8.2,0,0,0,1.32.11,1.39,1.39,0,0,0,.57-.1.49.49,0,0,0,.25-.28,1.63,1.63,0,0,0,.06-.49,2.25,2.25,0,0,0,0-.53.33.33,0,0,0-.14-.21,1.11,1.11,0,0,0-.32-.08l-1-.15a.83.83,0,0,1-.65-.37,2.05,2.05,0,0,1-.17-1,1.84,1.84,0,0,1,.19-.93,1,1,0,0,1,.53-.44,2.58,2.58,0,0,1,.86-.12,5.07,5.07,0,0,1,.66,0,3,3,0,0,1,.56.1v.58a4.92,4.92,0,0,0-.57-.09l-.65,0a1,1,0,0,0-.68.17.82.82,0,0,0-.21.67,1.88,1.88,0,0,0,0,.48.36.36,0,0,0,.13.22.88.88,0,0,0,.32.09l1,.13a1.09,1.09,0,0,1,.5.16.73.73,0,0,1,.28.42,2.93,2.93,0,0,1,.09.83,1.5,1.5,0,0,1-.36,1.16,1.7,1.7,0,0,1-1.17.33A6.29,6.29,0,0,1,68.86,127.7Zm.68,2a.8.8,0,0,0,.09-.45v-.16H69.3v-.86h.8v.78a2.49,2.49,0,0,1-.07.71.49.49,0,0,1-.28.33,1.42,1.42,0,0,1-.63.1v-.34A.57.57,0,0,0,69.54,129.75Z"/><path class="f5ca5cd3-9571-4c83-84e1-20c1ab90d427" d="M72.43,127.66v-4.49h-.74v-.61h.74v-1.48h.71v1.48H74v.61h-.88v4.49Z"/><path class="f5ca5cd3-9571-4c83-84e1-20c1ab90d427" d="M78,125.34H75.4a6.32,6.32,0,0,0,.07,1.16.71.71,0,0,0,.32.49,1.85,1.85,0,0,0,.83.14,7.29,7.29,0,0,0,1.26-.11v.58a4.64,4.64,0,0,1-.63.1c-.27,0-.52,0-.77,0a2.24,2.24,0,0,1-1.18-.24,1.13,1.13,0,0,1-.49-.76,8.07,8.07,0,0,1-.12-1.62,9.15,9.15,0,0,1,.1-1.62,1.14,1.14,0,0,1,.46-.77,2.14,2.14,0,0,1,1.18-.25,1.89,1.89,0,0,1,1.09.24,1.07,1.07,0,0,1,.41.75,10.47,10.47,0,0,1,.09,1.64Zm-2.28-2.14a.65.65,0,0,0-.28.46,7.58,7.58,0,0,0-.06,1.15h1.94v-.12a5.38,5.38,0,0,0-.08-1.07.62.62,0,0,0-.27-.44,1.19,1.19,0,0,0-.57-.1A1.45,1.45,0,0,0,75.74,123.2Z"/><path class="f5ca5cd3-9571-4c83-84e1-20c1ab90d427" d="M81.05,122.56h.62l0,.71h.06a1,1,0,0,1,.45-.63,1.65,1.65,0,0,1,.77-.16,1.54,1.54,0,0,1,.9.22,1.18,1.18,0,0,1,.43.77,7.42,7.42,0,0,1,.13,1.63,8.25,8.25,0,0,1-.12,1.63,1.23,1.23,0,0,1-.43.78,1.53,1.53,0,0,1-.9.23,1.65,1.65,0,0,1-.76-.16,1,1,0,0,1-.43-.54h0v2.55h-.71ZM83.4,127a.81.81,0,0,0,.27-.53,12.67,12.67,0,0,0,0-2.66.76.76,0,0,0-.27-.53,1.21,1.21,0,0,0-.66-.13,1,1,0,0,0-.59.15.82.82,0,0,0-.3.5,2.79,2.79,0,0,0-.08.55c0,.2,0,.47,0,.79a6.56,6.56,0,0,0,.08,1.25,1,1,0,0,0,.3.57,1,1,0,0,0,.6.17A1.31,1.31,0,0,0,83.4,127Z"/><path class="f5ca5cd3-9571-4c83-84e1-20c1ab90d427" d="M85.55,127.66v-7.43h.71v7.43Z"/><path class="f5ca5cd3-9571-4c83-84e1-20c1ab90d427" d="M87.53,127.42a1.66,1.66,0,0,1-.31-1.16,3.08,3.08,0,0,1,.11-.91.82.82,0,0,1,.39-.46,1.7,1.7,0,0,1,.78-.14c.19,0,.63,0,1.32,0v-.36a3.29,3.29,0,0,0-.09-.91.52.52,0,0,0-.31-.36,2.51,2.51,0,0,0-.74-.08l-.6,0-.61.08v-.58a6.24,6.24,0,0,1,1.41-.14,2.33,2.33,0,0,1,1,.17.91.91,0,0,1,.48.58,4.06,4.06,0,0,1,.13,1.2v3.23H89.9l0-.7h0a.93.93,0,0,1-.49.62,1.73,1.73,0,0,1-.78.16A1.37,1.37,0,0,1,87.53,127.42Zm1.81-.38a.57.57,0,0,0,.33-.36,3.16,3.16,0,0,0,.15-1.07v-.33H88.68a1.48,1.48,0,0,0-.48.06.45.45,0,0,0-.22.26,2.24,2.24,0,0,0-.06.61,2.09,2.09,0,0,0,.06.58.46.46,0,0,0,.25.26,1.46,1.46,0,0,0,.54.08A1.55,1.55,0,0,0,89.34,127Z"/><path class="f5ca5cd3-9571-4c83-84e1-20c1ab90d427" d="M94.35,124.68a5.14,5.14,0,0,0-.07-1,.58.58,0,0,0-.24-.42,1.25,1.25,0,0,0-.59-.1.87.87,0,0,0-.67.22,1,1,0,0,0-.26.59,9.24,9.24,0,0,0,0,1.08v2.65h-.71v-5.1h.62l0,.71h.06a1.11,1.11,0,0,1,.41-.59,1.55,1.55,0,0,1,.85-.2,1.41,1.41,0,0,1,.84.2.94.94,0,0,1,.38.6,5,5,0,0,1,.1,1.16v3.22h-.71Z"/><path class="f5ca5cd3-9571-4c83-84e1-20c1ab90d427" d="M96.6,127.66v-4.49h-.74v-.61h.74v-1.48h.71v1.48h.88v.61h-.88v4.49Z"/><path class="f5ca5cd3-9571-4c83-84e1-20c1ab90d427" d="M102.19,125.34H99.57a6.32,6.32,0,0,0,.07,1.16.68.68,0,0,0,.32.49,1.85,1.85,0,0,0,.83.14,7.29,7.29,0,0,0,1.26-.11v.58a4.64,4.64,0,0,1-.63.1c-.27,0-.52,0-.77,0a2.24,2.24,0,0,1-1.18-.24,1.13,1.13,0,0,1-.49-.76,8.07,8.07,0,0,1-.12-1.62,9.15,9.15,0,0,1,.1-1.62,1.14,1.14,0,0,1,.46-.77,2.14,2.14,0,0,1,1.18-.25,1.89,1.89,0,0,1,1.09.24,1.07,1.07,0,0,1,.41.75,10.47,10.47,0,0,1,.09,1.64Zm-2.28-2.14a.65.65,0,0,0-.28.46,7.58,7.58,0,0,0-.06,1.15h1.94v-.12a5.38,5.38,0,0,0-.08-1.07.62.62,0,0,0-.27-.44,1.19,1.19,0,0,0-.57-.1A1.45,1.45,0,0,0,99.91,123.2Z"/><path class="f5ca5cd3-9571-4c83-84e1-20c1ab90d427" d="M105.73,127.7c-.26,0-.47,0-.64-.08V127a8.2,8.2,0,0,0,1.32.11,1.39,1.39,0,0,0,.57-.1.49.49,0,0,0,.25-.28,1.63,1.63,0,0,0,.06-.49,2.25,2.25,0,0,0,0-.53.33.33,0,0,0-.14-.21,1.11,1.11,0,0,0-.32-.08l-1-.15a.83.83,0,0,1-.65-.37,2.05,2.05,0,0,1-.17-1,1.84,1.84,0,0,1,.19-.93,1,1,0,0,1,.52-.44,2.64,2.64,0,0,1,.87-.12,5.07,5.07,0,0,1,.66,0,3,3,0,0,1,.56.1v.58a5.3,5.3,0,0,0-.57-.09l-.65,0a1,1,0,0,0-.68.17.82.82,0,0,0-.21.67,1.88,1.88,0,0,0,0,.48.36.36,0,0,0,.13.22.88.88,0,0,0,.32.09l1,.13a1.09,1.09,0,0,1,.5.16.73.73,0,0,1,.28.42,2.93,2.93,0,0,1,.09.83,1.5,1.5,0,0,1-.36,1.16,1.7,1.7,0,0,1-1.17.33A6.29,6.29,0,0,1,105.73,127.7Zm.68,2a.8.8,0,0,0,.09-.45v-.16h-.33v-.86h.8v.78a2.92,2.92,0,0,1-.07.71.49.49,0,0,1-.28.33,1.42,1.42,0,0,1-.63.1v-.34A.57.57,0,0,0,106.41,129.75Z"/><path class="f5ca5cd3-9571-4c83-84e1-20c1ab90d427" d="M109,121.06v-.83h.75v.83Zm0,6.6v-5.1h.71v5.1Z"/><path class="f5ca5cd3-9571-4c83-84e1-20c1ab90d427" d="M112.89,127.42a1.66,1.66,0,0,1-.31-1.16,3.08,3.08,0,0,1,.11-.91.82.82,0,0,1,.39-.46,1.7,1.7,0,0,1,.78-.14c.19,0,.63,0,1.32,0v-.36a3.29,3.29,0,0,0-.09-.91.52.52,0,0,0-.31-.36,2.51,2.51,0,0,0-.74-.08l-.6,0-.61.08v-.58a6.24,6.24,0,0,1,1.41-.14,2.33,2.33,0,0,1,1,.17.91.91,0,0,1,.48.58,4.06,4.06,0,0,1,.13,1.2v3.23h-.63l0-.7h0a.93.93,0,0,1-.49.62,1.73,1.73,0,0,1-.78.16A1.37,1.37,0,0,1,112.89,127.42Zm1.81-.38a.57.57,0,0,0,.33-.36,3.16,3.16,0,0,0,.15-1.07v-.33H114a1.43,1.43,0,0,0-.48.06.45.45,0,0,0-.22.26,2.24,2.24,0,0,0-.06.61,2.09,2.09,0,0,0,.06.58.46.46,0,0,0,.25.26,1.46,1.46,0,0,0,.54.08A1.55,1.55,0,0,0,114.7,127Z"/><path class="f5ca5cd3-9571-4c83-84e1-20c1ab90d427" d="M119.71,124.68a5.14,5.14,0,0,0-.07-1,.58.58,0,0,0-.24-.42,1.25,1.25,0,0,0-.59-.1.87.87,0,0,0-.67.22,1,1,0,0,0-.26.59,9.24,9.24,0,0,0,0,1.08v2.65h-.71v-5.1h.62l0,.71h.06a1.11,1.11,0,0,1,.41-.59,1.55,1.55,0,0,1,.85-.2,1.41,1.41,0,0,1,.84.2.94.94,0,0,1,.38.6,5,5,0,0,1,.1,1.16v3.22h-.71Z"/><path class="f5ca5cd3-9571-4c83-84e1-20c1ab90d427" d="M121.63,121.06v-.83h.75v.83Zm0,6.6v-5.1h.71v5.1Z"/><path class="f5ca5cd3-9571-4c83-84e1-20c1ab90d427" d="M128.56,124.68a6.29,6.29,0,0,0-.06-1,.6.6,0,0,0-.22-.42,1.05,1.05,0,0,0-.54-.1.92.92,0,0,0-.65.2,1,1,0,0,0-.25.58,9.58,9.58,0,0,0,0,1.11v2.65h-.71v-3a6.13,6.13,0,0,0-.06-1,.6.6,0,0,0-.21-.42,1.05,1.05,0,0,0-.54-.1.89.89,0,0,0-.65.21,1.06,1.06,0,0,0-.25.59,7.68,7.68,0,0,0-.05,1.09v2.65h-.71v-5.1h.62l0,.71h.06a1.15,1.15,0,0,1,.39-.58,1.35,1.35,0,0,1,.81-.21,1.43,1.43,0,0,1,.81.18,1,1,0,0,1,.37.61h.06a1.11,1.11,0,0,1,.41-.59,1.46,1.46,0,0,1,.82-.2,1.38,1.38,0,0,1,.81.19,1,1,0,0,1,.36.61,4.87,4.87,0,0,1,.1,1.15v3.23h-.71Z"/><path class="f5ca5cd3-9571-4c83-84e1-20c1ab90d427" d="M130.52,127.42a1.66,1.66,0,0,1-.31-1.16,3.08,3.08,0,0,1,.11-.91.82.82,0,0,1,.39-.46,1.67,1.67,0,0,1,.78-.14c.19,0,.63,0,1.32,0v-.36a3.29,3.29,0,0,0-.09-.91.52.52,0,0,0-.31-.36,2.51,2.51,0,0,0-.74-.08l-.6,0-.61.08v-.58a6.24,6.24,0,0,1,1.41-.14,2.33,2.33,0,0,1,1,.17.91.91,0,0,1,.48.58,4.06,4.06,0,0,1,.13,1.2v3.23h-.63l0-.7h0a.93.93,0,0,1-.49.62,1.73,1.73,0,0,1-.78.16A1.37,1.37,0,0,1,130.52,127.42Zm1.81-.38a.57.57,0,0,0,.33-.36,3.16,3.16,0,0,0,.15-1.07v-.33h-1.14a1.43,1.43,0,0,0-.48.06.45.45,0,0,0-.22.26,2.24,2.24,0,0,0-.06.61,2.09,2.09,0,0,0,.06.58.46.46,0,0,0,.25.26,1.46,1.46,0,0,0,.54.08A1.55,1.55,0,0,0,132.33,127Z"/><path class="f5ca5cd3-9571-4c83-84e1-20c1ab90d427" d="M134.75,127.66v-7.43h.71v7.43Z"/><path class="f5ca5cd3-9571-4c83-84e1-20c1ab90d427" d="M139.88,125.34h-2.62a6.32,6.32,0,0,0,.07,1.16.68.68,0,0,0,.32.49,1.85,1.85,0,0,0,.83.14,7.29,7.29,0,0,0,1.26-.11v.58a5.24,5.24,0,0,1-.63.1c-.27,0-.53,0-.77,0a2.21,2.21,0,0,1-1.18-.24,1.13,1.13,0,0,1-.49-.76,8.07,8.07,0,0,1-.12-1.62,9.15,9.15,0,0,1,.1-1.62,1.14,1.14,0,0,1,.46-.77,2.14,2.14,0,0,1,1.18-.25,1.89,1.89,0,0,1,1.09.24,1.07,1.07,0,0,1,.41.75,10.47,10.47,0,0,1,.09,1.64Zm-2.28-2.14a.65.65,0,0,0-.28.46,7.58,7.58,0,0,0-.06,1.15h1.94v-.12a5.38,5.38,0,0,0-.08-1.07.62.62,0,0,0-.27-.44,1.19,1.19,0,0,0-.57-.1A1.45,1.45,0,0,0,137.6,123.2Z"/><path class="f5ca5cd3-9571-4c83-84e1-20c1ab90d427" d="M142.91,122.56h.62l0,.71h.06a1,1,0,0,1,.45-.63,1.65,1.65,0,0,1,.77-.16,1.54,1.54,0,0,1,.9.22,1.22,1.22,0,0,1,.43.77,7.42,7.42,0,0,1,.13,1.63,8.25,8.25,0,0,1-.12,1.63,1.28,1.28,0,0,1-.43.78,1.53,1.53,0,0,1-.9.23,1.62,1.62,0,0,1-.76-.16,1,1,0,0,1-.43-.54h0v2.55h-.71Zm2.35,4.41a.81.81,0,0,0,.27-.53,9.76,9.76,0,0,0,.07-1.33,9.65,9.65,0,0,0-.07-1.33.76.76,0,0,0-.27-.53,1.21,1.21,0,0,0-.66-.13,1,1,0,0,0-.59.15.82.82,0,0,0-.3.5,2.79,2.79,0,0,0-.08.55c0,.2,0,.47,0,.79a6.56,6.56,0,0,0,.08,1.25,1,1,0,0,0,.3.57,1,1,0,0,0,.6.17A1.31,1.31,0,0,0,145.26,127Z"/><path class="f5ca5cd3-9571-4c83-84e1-20c1ab90d427" d="M150.58,125.34H148a6.32,6.32,0,0,0,.07,1.16.68.68,0,0,0,.32.49,1.85,1.85,0,0,0,.83.14,7.29,7.29,0,0,0,1.26-.11v.58a5.24,5.24,0,0,1-.63.1c-.27,0-.53,0-.77,0a2.24,2.24,0,0,1-1.18-.24,1.13,1.13,0,0,1-.49-.76,8.07,8.07,0,0,1-.12-1.62,9.15,9.15,0,0,1,.1-1.62,1.11,1.11,0,0,1,.46-.77,2.14,2.14,0,0,1,1.18-.25,1.91,1.91,0,0,1,1.09.24,1.07,1.07,0,0,1,.41.75,10.47,10.47,0,0,1,.09,1.64Zm-2.28-2.14a.65.65,0,0,0-.28.46,7.58,7.58,0,0,0-.06,1.15h1.94v-.12a5.38,5.38,0,0,0-.08-1.07.66.66,0,0,0-.27-.44,1.19,1.19,0,0,0-.57-.1A1.42,1.42,0,0,0,148.3,123.2Z"/><path class="f5ca5cd3-9571-4c83-84e1-20c1ab90d427" d="M154.28,124.68a5.14,5.14,0,0,0-.07-1,.58.58,0,0,0-.24-.42,1.25,1.25,0,0,0-.59-.1.87.87,0,0,0-.67.22,1,1,0,0,0-.26.59,7.43,7.43,0,0,0,0,1.08v2.65h-.71v-5.1h.62l0,.71h.06a1.11,1.11,0,0,1,.41-.59,1.55,1.55,0,0,1,.85-.2,1.41,1.41,0,0,1,.84.2.94.94,0,0,1,.38.6,5,5,0,0,1,.1,1.16v3.22h-.71Z"/><path class="f5ca5cd3-9571-4c83-84e1-20c1ab90d427" d="M156.53,127.66v-4.49h-.74v-.61h.74v-1.48h.71v1.48h.88v.61h-.88v4.49Z"/><path class="f5ca5cd3-9571-4c83-84e1-20c1ab90d427" d="M159,122.56h.62l0,1h.06a1.22,1.22,0,0,1,.45-.81,1.52,1.52,0,0,1,.87-.22v.72a1.28,1.28,0,0,0-.81.22,1.11,1.11,0,0,0-.41.65,5.15,5.15,0,0,0-.11,1.17v2.42H159Z"/><path class="f5ca5cd3-9571-4c83-84e1-20c1ab90d427" d="M164.4,127h-.05a1.05,1.05,0,0,1-.42.58,1.43,1.43,0,0,1-.84.21,1.5,1.5,0,0,1-.85-.2,1,1,0,0,1-.38-.61,5.6,5.6,0,0,1-.09-1.15v-3.22h.71v3a6.29,6.29,0,0,0,.06,1,.62.62,0,0,0,.25.41,1.2,1.2,0,0,0,.59.11.86.86,0,0,0,.66-.22,1,1,0,0,0,.26-.59,7.32,7.32,0,0,0,.06-1.08v-2.65h.71v5.1h-.63Z"/><path class="f5ca5cd3-9571-4c83-84e1-20c1ab90d427" d="M60.68,136.68a6,6,0,0,0-.07-1,.56.56,0,0,0-.25-.42,1.2,1.2,0,0,0-.58-.1.86.86,0,0,0-.67.22.92.92,0,0,0-.26.59,7.14,7.14,0,0,0-.06,1.08v2.65h-.71v-7.43h.71v2.94h.06a1.15,1.15,0,0,1,1.22-.69,1.49,1.49,0,0,1,.84.19.94.94,0,0,1,.38.61,5.47,5.47,0,0,1,.1,1.15v3.23h-.71Z"/><path class="f5ca5cd3-9571-4c83-84e1-20c1ab90d427" d="M62.46,134.56h.62l0,.95h.07a1.18,1.18,0,0,1,.45-.81,1.5,1.5,0,0,1,.86-.22v.72a1.32,1.32,0,0,0-.81.22,1.15,1.15,0,0,0-.4.65,4.56,4.56,0,0,0-.12,1.17v2.42h-.71Z"/><path class="f5ca5cd3-9571-4c83-84e1-20c1ab90d427" d="M65.19,139.42a1.66,1.66,0,0,1-.32-1.16,2.74,2.74,0,0,1,.12-.91.82.82,0,0,1,.39-.46,1.63,1.63,0,0,1,.77-.14c.2,0,.64,0,1.33.05v-.36a3.29,3.29,0,0,0-.09-.91.54.54,0,0,0-.31-.36,2.59,2.59,0,0,0-.75-.08l-.59,0-.62.08v-.58a6.36,6.36,0,0,1,1.41-.14,2.38,2.38,0,0,1,1,.17.91.91,0,0,1,.48.58,4.43,4.43,0,0,1,.13,1.2v3.23h-.63l0-.7h0a1,1,0,0,1-.49.62,1.77,1.77,0,0,1-.79.16A1.35,1.35,0,0,1,65.19,139.42ZM67,139a.57.57,0,0,0,.33-.36,2.91,2.91,0,0,0,.16-1.07v-.33H66.33a1.37,1.37,0,0,0-.47.06.41.41,0,0,0-.22.26,2.15,2.15,0,0,0-.07.61,2,2,0,0,0,.07.58.43.43,0,0,0,.25.26,1.82,1.82,0,0,0,1.1,0Z"/><path class="f5ca5cd3-9571-4c83-84e1-20c1ab90d427" d="M71.86,136.68a6,6,0,0,0-.07-1,.59.59,0,0,0-.25-.42,1.22,1.22,0,0,0-.59-.1.89.89,0,0,0-.67.22,1,1,0,0,0-.25.59A7.14,7.14,0,0,0,70,137v2.65h-.71v-5.1h.62l0,.71H70a1.06,1.06,0,0,1,.41-.59,1.53,1.53,0,0,1,.84-.2,1.42,1.42,0,0,1,.85.2.94.94,0,0,1,.38.6,5.58,5.58,0,0,1,.1,1.16v3.22h-.71Z"/><path class="f5ca5cd3-9571-4c83-84e1-20c1ab90d427" d="M73.66,139.42a1.71,1.71,0,0,1-.31-1.16,2.74,2.74,0,0,1,.12-.91.82.82,0,0,1,.39-.46,1.63,1.63,0,0,1,.77-.14c.2,0,.64,0,1.32.05v-.36a3.38,3.38,0,0,0-.08-.91.54.54,0,0,0-.31-.36,2.59,2.59,0,0,0-.75-.08l-.59,0-.62.08v-.58a6.36,6.36,0,0,1,1.41-.14,2.38,2.38,0,0,1,1,.17.87.87,0,0,1,.47.58,4.06,4.06,0,0,1,.13,1.2v3.23H76l0-.7h0a1,1,0,0,1-.48.62,1.77,1.77,0,0,1-.79.16A1.39,1.39,0,0,1,73.66,139.42Zm2.53-6.4a.77.77,0,0,1-.31.46,1.38,1.38,0,0,1-.76.17,1.33,1.33,0,0,1-.74-.17.75.75,0,0,1-.3-.46,4,4,0,0,1-.07-.79h.5a3.78,3.78,0,0,0,0,.56.46.46,0,0,0,.16.29.68.68,0,0,0,.42.11.73.73,0,0,0,.44-.11.42.42,0,0,0,.16-.29,3.78,3.78,0,0,0,0-.56h.5A4.16,4.16,0,0,1,76.19,133Zm-.72,6a.57.57,0,0,0,.33-.36,3.16,3.16,0,0,0,.15-1.07v-.33H74.81a1.37,1.37,0,0,0-.47.06.41.41,0,0,0-.22.26,2.15,2.15,0,0,0-.07.61,2,2,0,0,0,.07.58.41.41,0,0,0,.24.26,1.5,1.5,0,0,0,.54.08A1.48,1.48,0,0,0,75.47,139Z"/><path class="f5ca5cd3-9571-4c83-84e1-20c1ab90d427" d="M78.71,133.61v-.06l.78-1.32h.77l.77,1.32v.06h-.5l-.66-1-.66,1Zm.8,6v-5.1h.71v5.1Z"/><path class="f5ca5cd3-9571-4c83-84e1-20c1ab90d427" d="M83.91,136.68a6.29,6.29,0,0,0-.06-1,.61.61,0,0,0-.24-.42,1.27,1.27,0,0,0-.6-.1.9.9,0,0,0-.67.22,1,1,0,0,0-.26.59A9.24,9.24,0,0,0,82,137v2.65h-.71v-5.1h.62l0,.71H82a1.08,1.08,0,0,1,.42-.59,1.53,1.53,0,0,1,.84-.2,1.42,1.42,0,0,1,.85.2.94.94,0,0,1,.38.6,5.71,5.71,0,0,1,.09,1.16v3.22h-.71Z"/><path class="f5ca5cd3-9571-4c83-84e1-20c1ab90d427" d="M87.47,134.56h.62l0,.71h.06a1,1,0,0,1,.46-.63,1.61,1.61,0,0,1,.76-.16,1.49,1.49,0,0,1,.9.22,1.18,1.18,0,0,1,.44.77,11.13,11.13,0,0,1,0,3.26,1.23,1.23,0,0,1-.43.78,1.49,1.49,0,0,1-.9.23,1.68,1.68,0,0,1-.76-.16,1,1,0,0,1-.43-.54h0v2.55h-.71ZM89.83,139a.76.76,0,0,0,.26-.53,12.67,12.67,0,0,0,0-2.66.72.72,0,0,0-.26-.53,1.23,1.23,0,0,0-.67-.13,1,1,0,0,0-.59.15.82.82,0,0,0-.3.5,2.84,2.84,0,0,0-.07.55c0,.2,0,.47,0,.79a6.56,6.56,0,0,0,.08,1.25,1,1,0,0,0,.3.57,1,1,0,0,0,.6.17A1.33,1.33,0,0,0,89.83,139Z"/><path class="f5ca5cd3-9571-4c83-84e1-20c1ab90d427" d="M91.82,134.56h.62l0,.95h.06a1.22,1.22,0,0,1,.46-.81,1.48,1.48,0,0,1,.86-.22v.72a1.32,1.32,0,0,0-.81.22,1.15,1.15,0,0,0-.4.65,4.56,4.56,0,0,0-.12,1.17v2.42h-.71Z"/><path class="f5ca5cd3-9571-4c83-84e1-20c1ab90d427" d="M94.93,139.53a1,1,0,0,1-.46-.73,13,13,0,0,1,0-3.38,1,1,0,0,1,.46-.73,2.39,2.39,0,0,1,1.16-.21,2.43,2.43,0,0,1,1.17.21,1,1,0,0,1,.45.73,14.33,14.33,0,0,1,0,3.38,1,1,0,0,1-.45.73,2.43,2.43,0,0,1-1.17.21A2.39,2.39,0,0,1,94.93,139.53ZM96.8,139a.7.7,0,0,0,.25-.52,10.86,10.86,0,0,0,0-1.36,10.66,10.66,0,0,0,0-1.36.66.66,0,0,0-.25-.52,1.87,1.87,0,0,0-1.42,0,.75.75,0,0,0-.25.52,10.33,10.33,0,0,0-.06,1.36,10.15,10.15,0,0,0,.06,1.35.78.78,0,0,0,.25.53,1.87,1.87,0,0,0,1.42,0Z"/><path class="f5ca5cd3-9571-4c83-84e1-20c1ab90d427" d="M98.76,134.56h.62l0,.71h.07a1,1,0,0,1,.45-.63,1.61,1.61,0,0,1,.76-.16,1.55,1.55,0,0,1,.91.22,1.22,1.22,0,0,1,.43.77,11.13,11.13,0,0,1,0,3.26,1.23,1.23,0,0,1-.43.78,1.49,1.49,0,0,1-.9.23,1.68,1.68,0,0,1-.76-.16,1,1,0,0,1-.42-.54h-.06v2.55h-.71Zm2.36,4.41a.76.76,0,0,0,.26-.53,12.67,12.67,0,0,0,0-2.66.72.72,0,0,0-.26-.53,1.23,1.23,0,0,0-.67-.13,1,1,0,0,0-.59.15.77.77,0,0,0-.29.5,2.79,2.79,0,0,0-.08.55c0,.2,0,.47,0,.79a6.56,6.56,0,0,0,.08,1.25.92.92,0,0,0,.31.57.9.9,0,0,0,.59.17A1.33,1.33,0,0,0,101.12,139Z"/><path class="f5ca5cd3-9571-4c83-84e1-20c1ab90d427" d="M103.11,134.56h.62l0,.95h.06a1.22,1.22,0,0,1,.46-.81,1.48,1.48,0,0,1,.86-.22v.72a1.32,1.32,0,0,0-.81.22,1.15,1.15,0,0,0-.4.65,4.56,4.56,0,0,0-.12,1.17v2.42h-.71Z"/><path class="f5ca5cd3-9571-4c83-84e1-20c1ab90d427" d="M105.79,133.06v-.83h.75v.83Zm0,6.6v-5.1h.71v5.1Z"/><path class="f5ca5cd3-9571-4c83-84e1-20c1ab90d427" d="M107.64,139.42a1.71,1.71,0,0,1-.31-1.16,2.74,2.74,0,0,1,.12-.91.82.82,0,0,1,.39-.46,1.63,1.63,0,0,1,.77-.14c.2,0,.64,0,1.32.05v-.36a3.38,3.38,0,0,0-.08-.91.54.54,0,0,0-.31-.36,2.59,2.59,0,0,0-.75-.08l-.59,0-.62.08v-.58a6.36,6.36,0,0,1,1.41-.14,2.38,2.38,0,0,1,1.05.17.87.87,0,0,1,.47.58,4.06,4.06,0,0,1,.13,1.2v3.23H110l0-.7h0a1,1,0,0,1-.48.62,1.77,1.77,0,0,1-.79.16A1.39,1.39,0,0,1,107.64,139.42Zm1.81-.38a.57.57,0,0,0,.33-.36,3.16,3.16,0,0,0,.15-1.07v-.33h-1.14a1.37,1.37,0,0,0-.47.06.41.41,0,0,0-.22.26,2.15,2.15,0,0,0-.07.61,2,2,0,0,0,.07.58.41.41,0,0,0,.24.26,1.46,1.46,0,0,0,.54.08A1.48,1.48,0,0,0,109.45,139Z"/><path class="f5ca5cd3-9571-4c83-84e1-20c1ab90d427" d="M113.8,135.17h-.73v-.61h.73v-.86a2.32,2.32,0,0,1,.16-1,.73.73,0,0,1,.49-.4,4.17,4.17,0,0,1,1-.09v.56a2.83,2.83,0,0,0-.6.05.4.4,0,0,0-.27.22,1.29,1.29,0,0,0-.08.51v1h.95v.61h-.95v4.49h-.71Z"/><path class="f5ca5cd3-9571-4c83-84e1-20c1ab90d427" d="M119.32,137.34H116.7a6.1,6.1,0,0,0,.08,1.16.68.68,0,0,0,.32.49,1.8,1.8,0,0,0,.82.14,7.29,7.29,0,0,0,1.26-.11v.58a4.64,4.64,0,0,1-.63.1c-.26,0-.52,0-.77,0a2.24,2.24,0,0,1-1.18-.24,1.16,1.16,0,0,1-.49-.76,8.07,8.07,0,0,1-.12-1.62,10.24,10.24,0,0,1,.1-1.62,1.15,1.15,0,0,1,.47-.77,2.07,2.07,0,0,1,1.17-.25,1.89,1.89,0,0,1,1.09.24,1.12,1.12,0,0,1,.42.75,10.79,10.79,0,0,1,.08,1.64ZM117,135.2a.61.61,0,0,0-.27.46,7.24,7.24,0,0,0-.07,1.15h1.94v-.12a4.71,4.71,0,0,0-.08-1.07.65.65,0,0,0-.26-.44,1.23,1.23,0,0,0-.58-.1A1.45,1.45,0,0,0,117,135.2Z"/><path class="f5ca5cd3-9571-4c83-84e1-20c1ab90d427" d="M120.28,134.56h.62l0,.95H121a1.22,1.22,0,0,1,.46-.81,1.48,1.48,0,0,1,.86-.22v.72a1.32,1.32,0,0,0-.81.22,1.15,1.15,0,0,0-.4.65,4.56,4.56,0,0,0-.12,1.17v2.42h-.71Z"/><path class="f5ca5cd3-9571-4c83-84e1-20c1ab90d427" d="M127.93,136.68a6.29,6.29,0,0,0-.06-1,.6.6,0,0,0-.22-.42,1,1,0,0,0-.54-.1.91.91,0,0,0-.64.2,1,1,0,0,0-.26.58,9.58,9.58,0,0,0,0,1.11v2.65h-.71v-3a6.43,6.43,0,0,0,0-1,.6.6,0,0,0-.22-.42,1,1,0,0,0-.54-.1.87.87,0,0,0-.64.21,1.07,1.07,0,0,0-.26.59,9.56,9.56,0,0,0,0,1.09v2.65H123v-5.1h.62l0,.71h.06a1.17,1.17,0,0,1,.4-.58,1.29,1.29,0,0,1,.8-.21,1.49,1.49,0,0,1,.82.18.91.91,0,0,1,.36.61h.06a1.11,1.11,0,0,1,.41-.59,1.48,1.48,0,0,1,.82-.2,1.38,1.38,0,0,1,.81.19,1,1,0,0,1,.37.61,5.6,5.6,0,0,1,.09,1.15v3.23h-.71Z"/><path class="f5ca5cd3-9571-4c83-84e1-20c1ab90d427" d="M129.74,139.42a1.71,1.71,0,0,1-.31-1.16,2.74,2.74,0,0,1,.12-.91.82.82,0,0,1,.39-.46,1.63,1.63,0,0,1,.77-.14c.2,0,.64,0,1.32.05v-.36a3.38,3.38,0,0,0-.08-.91.54.54,0,0,0-.31-.36,2.59,2.59,0,0,0-.75-.08l-.59,0-.62.08v-.58a6.36,6.36,0,0,1,1.41-.14,2.38,2.38,0,0,1,1,.17.87.87,0,0,1,.47.58,4.06,4.06,0,0,1,.13,1.2v3.23h-.63l0-.7h0a1,1,0,0,1-.49.62,1.77,1.77,0,0,1-.79.16A1.39,1.39,0,0,1,129.74,139.42Zm2.53-6.4a.77.77,0,0,1-.31.46,1.38,1.38,0,0,1-.76.17,1.33,1.33,0,0,1-.74-.17.75.75,0,0,1-.3-.46,4,4,0,0,1-.07-.79h.5a3.78,3.78,0,0,0,0,.56.46.46,0,0,0,.16.29.68.68,0,0,0,.42.11.73.73,0,0,0,.44-.11.42.42,0,0,0,.16-.29,3.78,3.78,0,0,0,0-.56h.5A4.16,4.16,0,0,1,132.27,133Zm-.72,6a.57.57,0,0,0,.33-.36,2.93,2.93,0,0,0,.15-1.07v-.33h-1.14a1.37,1.37,0,0,0-.47.06.41.41,0,0,0-.22.26,2.15,2.15,0,0,0-.07.61,2,2,0,0,0,.07.58.41.41,0,0,0,.24.26,1.52,1.52,0,0,0,.55.08A1.46,1.46,0,0,0,131.55,139Z"/><path class="f5ca5cd3-9571-4c83-84e1-20c1ab90d427" d="M136.1,139.7c-.26,0-.47,0-.64-.08V139a8.2,8.2,0,0,0,1.32.11,1.32,1.32,0,0,0,.57-.1.49.49,0,0,0,.25-.28,1.63,1.63,0,0,0,.06-.49,2.25,2.25,0,0,0,0-.53.32.32,0,0,0-.13-.21,1.11,1.11,0,0,0-.33-.08l-1-.15a.85.85,0,0,1-.65-.37,2.05,2.05,0,0,1-.17-1,2,2,0,0,1,.19-.93,1,1,0,0,1,.53-.44,2.58,2.58,0,0,1,.86-.12,5.07,5.07,0,0,1,.66,0,2.86,2.86,0,0,1,.56.1v.58a5.07,5.07,0,0,0-.56-.09q-.33,0-.66,0a1,1,0,0,0-.68.17.82.82,0,0,0-.21.67,2.51,2.51,0,0,0,0,.48.37.37,0,0,0,.14.22.82.82,0,0,0,.31.09l1,.13a1.1,1.1,0,0,1,.51.16.77.77,0,0,1,.27.42,2.93,2.93,0,0,1,.09.83,1.5,1.5,0,0,1-.36,1.16,1.7,1.7,0,0,1-1.17.33A6.41,6.41,0,0,1,136.1,139.7Zm.68,2.05a.8.8,0,0,0,.09-.45v-.16h-.33v-.86h.8v.78a2.49,2.49,0,0,1-.07.71.46.46,0,0,1-.27.33,1.49,1.49,0,0,1-.64.1v-.34A.57.57,0,0,0,136.78,141.75Z"/><path class="f5ca5cd3-9571-4c83-84e1-20c1ab90d427" d="M139.19,133.06v-.83h.75v.83Zm0,6.6v-5.1h.71v5.1Z"/><path class="f5ca5cd3-9571-4c83-84e1-20c1ab90d427" d="M142.79,134.56h.62l0,.71h.06a1,1,0,0,1,.46-.63,1.61,1.61,0,0,1,.76-.16,1.49,1.49,0,0,1,.9.22,1.18,1.18,0,0,1,.44.77,11.13,11.13,0,0,1,0,3.26,1.23,1.23,0,0,1-.43.78,1.49,1.49,0,0,1-.9.23,1.68,1.68,0,0,1-.76-.16,1,1,0,0,1-.43-.54h-.05v2.55h-.71Zm2.36,4.41a.76.76,0,0,0,.26-.53,12.67,12.67,0,0,0,0-2.66.72.72,0,0,0-.26-.53,1.23,1.23,0,0,0-.67-.13,1,1,0,0,0-.59.15.82.82,0,0,0-.3.5,2.84,2.84,0,0,0-.07.55c0,.2,0,.47,0,.79a6.56,6.56,0,0,0,.08,1.25,1,1,0,0,0,.3.57,1,1,0,0,0,.6.17A1.33,1.33,0,0,0,145.15,139Z"/><path class="f5ca5cd3-9571-4c83-84e1-20c1ab90d427" d="M150.31,137.34h-2.62a6.1,6.1,0,0,0,.08,1.16.68.68,0,0,0,.32.49,1.8,1.8,0,0,0,.82.14,7.29,7.29,0,0,0,1.26-.11v.58a4.64,4.64,0,0,1-.63.1c-.26,0-.52,0-.77,0a2.26,2.26,0,0,1-1.18-.24,1.16,1.16,0,0,1-.49-.76,8.23,8.23,0,0,1-.11-1.62,10.52,10.52,0,0,1,.09-1.62,1.15,1.15,0,0,1,.47-.77,2.07,2.07,0,0,1,1.17-.25,1.89,1.89,0,0,1,1.09.24,1.12,1.12,0,0,1,.42.75,10.79,10.79,0,0,1,.08,1.64ZM148,135.2a.61.61,0,0,0-.27.46,7.24,7.24,0,0,0-.07,1.15h1.94v-.12a4.71,4.71,0,0,0-.08-1.07.65.65,0,0,0-.26-.44,1.23,1.23,0,0,0-.58-.1A1.45,1.45,0,0,0,148,135.2Z"/><path class="f5ca5cd3-9571-4c83-84e1-20c1ab90d427" d="M153.86,136.68a6.29,6.29,0,0,0-.06-1,.59.59,0,0,0-.25-.42,1.22,1.22,0,0,0-.59-.1.89.89,0,0,0-.67.22,1,1,0,0,0-.26.59A9.24,9.24,0,0,0,152,137v2.65h-.71v-5.1h.62l0,.71H152a1.08,1.08,0,0,1,.42-.59,1.53,1.53,0,0,1,.84-.2,1.42,1.42,0,0,1,.85.2.94.94,0,0,1,.38.6,5.71,5.71,0,0,1,.09,1.16v3.22h-.71Z"/><path class="f5ca5cd3-9571-4c83-84e1-20c1ab90d427" d="M156,139.66v-4.49h-.74v-.61H156v-1.48h.71v1.48h.88v.61h-.88v4.49Z"/><path class="f5ca5cd3-9571-4c83-84e1-20c1ab90d427" d="M158.23,134.56h.62l0,.95H159a1.22,1.22,0,0,1,.46-.81,1.48,1.48,0,0,1,.86-.22v.72a1.32,1.32,0,0,0-.81.22,1.15,1.15,0,0,0-.4.65,4.56,4.56,0,0,0-.12,1.17v2.42h-.71Z"/><path class="f5ca5cd3-9571-4c83-84e1-20c1ab90d427" d="M163.53,139h-.05a1,1,0,0,1-.41.58,1.46,1.46,0,0,1-.85.21,1.49,1.49,0,0,1-.84-.2,1,1,0,0,1-.38-.61,5.47,5.47,0,0,1-.1-1.15v-3.22h.71v3a6,6,0,0,0,.07,1,.58.58,0,0,0,.24.41,1.23,1.23,0,0,0,.59.11.86.86,0,0,0,.66-.22,1,1,0,0,0,.27-.59,7.6,7.6,0,0,0,.05-1.08v-2.65h.71v5.1h-.63Z"/><path class="f5ca5cd3-9571-4c83-84e1-20c1ab90d427" d="M60.05,151.42a1.71,1.71,0,0,1-.31-1.16,2.74,2.74,0,0,1,.12-.91.82.82,0,0,1,.39-.46,1.65,1.65,0,0,1,.78-.14c.19,0,.63,0,1.31.05v-.36a3.38,3.38,0,0,0-.08-.91.54.54,0,0,0-.31-.36,2.59,2.59,0,0,0-.75-.08l-.59,0-.62.08v-.58a6.36,6.36,0,0,1,1.41-.14,2.38,2.38,0,0,1,1.05.17.87.87,0,0,1,.47.58,4.06,4.06,0,0,1,.13,1.2v3.23h-.63l0-.7h-.05a.92.92,0,0,1-.48.62,1.75,1.75,0,0,1-.78.16A1.4,1.4,0,0,1,60.05,151.42Zm1.81-.38a.57.57,0,0,0,.33-.36,3.16,3.16,0,0,0,.15-1.07v-.33H61.2a1.37,1.37,0,0,0-.47.06.41.41,0,0,0-.22.26,2.15,2.15,0,0,0-.07.61,2,2,0,0,0,.07.58.41.41,0,0,0,.24.26,1.46,1.46,0,0,0,.54.08A1.48,1.48,0,0,0,61.86,151Z"/><path class="f5ca5cd3-9571-4c83-84e1-20c1ab90d427" d="M67.16,151.66l-1.4-5.1h.74l1.08,4.2h.06l1.07-4.2h.72l-1.4,5.1Z"/><path class="f5ca5cd3-9571-4c83-84e1-20c1ab90d427" d="M70.23,145.06v-.83H71v.83Zm0,6.6v-5.1H71v5.1Z"/><path class="f5ca5cd3-9571-4c83-84e1-20c1ab90d427" d="M74.8,148.68a6.29,6.29,0,0,0-.06-1,.59.59,0,0,0-.25-.42,1.22,1.22,0,0,0-.59-.1.89.89,0,0,0-.67.22,1,1,0,0,0-.26.59,9.24,9.24,0,0,0,0,1.08v2.65h-.71v-5.1h.62l0,.71h.06a1.08,1.08,0,0,1,.42-.59,1.53,1.53,0,0,1,.84-.2,1.42,1.42,0,0,1,.85.2.94.94,0,0,1,.38.6,5.71,5.71,0,0,1,.09,1.16v3.22H74.8Z"/><path class="f5ca5cd3-9571-4c83-84e1-20c1ab90d427" d="M77.14,151.52a1.28,1.28,0,0,1-.43-.77,8.1,8.1,0,0,1-.13-1.63,8.25,8.25,0,0,1,.12-1.63,1.28,1.28,0,0,1,.43-.79,1.48,1.48,0,0,1,.89-.22,1.55,1.55,0,0,1,.77.16.89.89,0,0,1,.43.54h0v-3H80v7.43h-.63l0-.7h0a1,1,0,0,1-.45.62,1.8,1.8,0,0,1-.78.16A1.56,1.56,0,0,1,77.14,151.52Zm1.73-.56a.75.75,0,0,0,.29-.46,2.61,2.61,0,0,0,.09-.59c0-.21,0-.51,0-.88a5.43,5.43,0,0,0-.09-1.2.85.85,0,0,0-.29-.55,1,1,0,0,0-.62-.16,1.22,1.22,0,0,0-.65.13.72.72,0,0,0-.26.53,9.65,9.65,0,0,0-.07,1.33,9.76,9.76,0,0,0,.07,1.33.81.81,0,0,0,.27.53,1.31,1.31,0,0,0,.66.13A1.06,1.06,0,0,0,78.87,151Z"/><path class="f5ca5cd3-9571-4c83-84e1-20c1ab90d427" d="M84.41,149.34H81.79a6.1,6.1,0,0,0,.08,1.16.68.68,0,0,0,.32.49,1.8,1.8,0,0,0,.82.14,7.29,7.29,0,0,0,1.26-.11v.58a4.64,4.64,0,0,1-.63.1c-.26,0-.52,0-.77,0a2.24,2.24,0,0,1-1.18-.24,1.16,1.16,0,0,1-.49-.76,8.07,8.07,0,0,1-.12-1.62,10.24,10.24,0,0,1,.1-1.62,1.15,1.15,0,0,1,.47-.77,2.07,2.07,0,0,1,1.17-.25,1.89,1.89,0,0,1,1.09.24,1.12,1.12,0,0,1,.42.75,10.79,10.79,0,0,1,.08,1.64Zm-2.28-2.14a.61.61,0,0,0-.27.46,7.24,7.24,0,0,0-.07,1.15h1.94v-.12a4.71,4.71,0,0,0-.08-1.07.65.65,0,0,0-.26-.44,1.23,1.23,0,0,0-.58-.1A1.45,1.45,0,0,0,82.13,147.2Z"/><path class="f5ca5cd3-9571-4c83-84e1-20c1ab90d427" d="M87.44,146.56h.62l0,.71h.06a1,1,0,0,1,.46-.63,1.61,1.61,0,0,1,.76-.16,1.49,1.49,0,0,1,.9.22,1.18,1.18,0,0,1,.44.77,11.13,11.13,0,0,1,0,3.26,1.23,1.23,0,0,1-.43.78,1.49,1.49,0,0,1-.9.23,1.68,1.68,0,0,1-.76-.16,1,1,0,0,1-.43-.54h0v2.55h-.71ZM89.8,151a.76.76,0,0,0,.26-.53,12.67,12.67,0,0,0,0-2.66.72.72,0,0,0-.26-.53,1.23,1.23,0,0,0-.67-.13,1,1,0,0,0-.59.15.82.82,0,0,0-.3.5,2.84,2.84,0,0,0-.07.55c0,.2,0,.47,0,.79a6.56,6.56,0,0,0,.08,1.25,1,1,0,0,0,.3.57,1,1,0,0,0,.6.17A1.33,1.33,0,0,0,89.8,151Z"/><path class="f5ca5cd3-9571-4c83-84e1-20c1ab90d427" d="M91.94,146.56h.62l0,.95h.06a1.22,1.22,0,0,1,.46-.81,1.48,1.48,0,0,1,.86-.22v.72a1.32,1.32,0,0,0-.81.22,1.15,1.15,0,0,0-.4.65,4.56,4.56,0,0,0-.12,1.17v2.42h-.71Z"/><path class="f5ca5cd3-9571-4c83-84e1-20c1ab90d427" d="M95.2,151.53a1,1,0,0,1-.46-.73,13,13,0,0,1,0-3.38,1,1,0,0,1,.46-.73,2.39,2.39,0,0,1,1.16-.21,2.43,2.43,0,0,1,1.17.21,1,1,0,0,1,.45.73,14.33,14.33,0,0,1,0,3.38,1,1,0,0,1-.45.73,2.43,2.43,0,0,1-1.17.21A2.39,2.39,0,0,1,95.2,151.53Zm1.87-.54a.7.7,0,0,0,.25-.52,10.86,10.86,0,0,0,.05-1.36,10.66,10.66,0,0,0-.05-1.36.66.66,0,0,0-.25-.52,1.87,1.87,0,0,0-1.42,0,.75.75,0,0,0-.25.52,10.33,10.33,0,0,0-.06,1.36,10.15,10.15,0,0,0,.06,1.35.78.78,0,0,0,.25.53,1.87,1.87,0,0,0,1.42,0Z"/><path class="f5ca5cd3-9571-4c83-84e1-20c1ab90d427" d="M99.58,151.52a1.28,1.28,0,0,1-.43-.77,8.1,8.1,0,0,1-.13-1.63,8.25,8.25,0,0,1,.12-1.63,1.28,1.28,0,0,1,.43-.79,1.48,1.48,0,0,1,.89-.22,1.55,1.55,0,0,1,.77.16.89.89,0,0,1,.43.54h0v-3h.71v7.43h-.63l0-.7h0a1,1,0,0,1-.45.62,1.8,1.8,0,0,1-.78.16A1.56,1.56,0,0,1,99.58,151.52Zm1.73-.56a.75.75,0,0,0,.29-.46,2.61,2.61,0,0,0,.09-.59c0-.21,0-.51,0-.88a5.43,5.43,0,0,0-.09-1.2.85.85,0,0,0-.29-.55,1,1,0,0,0-.62-.16,1.22,1.22,0,0,0-.65.13.72.72,0,0,0-.26.53,9.65,9.65,0,0,0-.07,1.33,9.76,9.76,0,0,0,.07,1.33.81.81,0,0,0,.27.53,1.31,1.31,0,0,0,.66.13A1.06,1.06,0,0,0,101.31,151Z"/><path class="f5ca5cd3-9571-4c83-84e1-20c1ab90d427" d="M106.28,151h0a1,1,0,0,1-.41.58,1.46,1.46,0,0,1-.85.21,1.49,1.49,0,0,1-.84-.2,1,1,0,0,1-.38-.61,5.47,5.47,0,0,1-.1-1.15v-3.22h.71v3a6,6,0,0,0,.07,1,.58.58,0,0,0,.24.41,1.23,1.23,0,0,0,.59.11.86.86,0,0,0,.66-.22,1,1,0,0,0,.27-.59,7.6,7.6,0,0,0,0-1.08v-2.65H107v5.1h-.63Z"/><path class="f5ca5cd3-9571-4c83-84e1-20c1ab90d427" d="M108.72,151.7c-.26,0-.47,0-.64-.08V151a8.2,8.2,0,0,0,1.32.11,1.32,1.32,0,0,0,.57-.1.49.49,0,0,0,.25-.28,1.63,1.63,0,0,0,.06-.49,2.25,2.25,0,0,0,0-.53.32.32,0,0,0-.13-.21,1.11,1.11,0,0,0-.33-.08l-1-.15a.85.85,0,0,1-.65-.37,2.05,2.05,0,0,1-.17-1,2,2,0,0,1,.19-.93,1,1,0,0,1,.53-.44,2.58,2.58,0,0,1,.86-.12,5.07,5.07,0,0,1,.66,0,2.86,2.86,0,0,1,.56.1v.58a5.07,5.07,0,0,0-.56-.09q-.33,0-.66,0a1,1,0,0,0-.68.17.82.82,0,0,0-.21.67,2.51,2.51,0,0,0,0,.48.37.37,0,0,0,.14.22.82.82,0,0,0,.31.09l1,.13a1.1,1.1,0,0,1,.51.16.77.77,0,0,1,.27.42,2.93,2.93,0,0,1,.09.83,1.5,1.5,0,0,1-.36,1.16,1.7,1.7,0,0,1-1.17.33A6.41,6.41,0,0,1,108.72,151.7Z"/><path class="f5ca5cd3-9571-4c83-84e1-20c1ab90d427" d="M115.15,149.34h-2.62a6.1,6.1,0,0,0,.08,1.16.68.68,0,0,0,.32.49,1.8,1.8,0,0,0,.82.14A7.29,7.29,0,0,0,115,151v.58a4.64,4.64,0,0,1-.63.1c-.26,0-.52,0-.77,0a2.24,2.24,0,0,1-1.18-.24,1.16,1.16,0,0,1-.49-.76,8.07,8.07,0,0,1-.12-1.62,10.24,10.24,0,0,1,.1-1.62,1.15,1.15,0,0,1,.47-.77,2.07,2.07,0,0,1,1.17-.25,1.89,1.89,0,0,1,1.09.24,1.12,1.12,0,0,1,.42.75,10.79,10.79,0,0,1,.08,1.64Zm-2.28-2.14a.61.61,0,0,0-.27.46,7.24,7.24,0,0,0-.07,1.15h1.94v-.12a4.71,4.71,0,0,0-.08-1.07.65.65,0,0,0-.26-.44,1.23,1.23,0,0,0-.58-.1A1.45,1.45,0,0,0,112.87,147.2Z"/><path class="f5ca5cd3-9571-4c83-84e1-20c1ab90d427" d="M116.26,151.66v-7.43H117v7.43Z"/><path class="f5ca5cd3-9571-4c83-84e1-20c1ab90d427" d="M121.39,149.34h-2.62a6.1,6.1,0,0,0,.08,1.16.68.68,0,0,0,.32.49,1.8,1.8,0,0,0,.82.14,7.29,7.29,0,0,0,1.26-.11v.58a4.64,4.64,0,0,1-.63.1c-.26,0-.52,0-.77,0a2.24,2.24,0,0,1-1.18-.24,1.16,1.16,0,0,1-.49-.76,8.07,8.07,0,0,1-.12-1.62,10.24,10.24,0,0,1,.1-1.62,1.15,1.15,0,0,1,.47-.77,2.07,2.07,0,0,1,1.17-.25,1.89,1.89,0,0,1,1.09.24,1.12,1.12,0,0,1,.42.75,12.32,12.32,0,0,1,.08,1.64Zm-2.28-2.14a.61.61,0,0,0-.27.46,7.24,7.24,0,0,0-.07,1.15h1.94v-.12a4.71,4.71,0,0,0-.08-1.07.65.65,0,0,0-.26-.44,1.26,1.26,0,0,0-.58-.1A1.45,1.45,0,0,0,119.11,147.2Z"/><path class="f5ca5cd3-9571-4c83-84e1-20c1ab90d427" d="M124.42,146.56H125l0,.71h.06a1,1,0,0,1,.46-.63,1.61,1.61,0,0,1,.76-.16,1.49,1.49,0,0,1,.9.22,1.23,1.23,0,0,1,.44.77,11.13,11.13,0,0,1,0,3.26,1.23,1.23,0,0,1-.43.78,1.49,1.49,0,0,1-.9.23,1.68,1.68,0,0,1-.76-.16,1,1,0,0,1-.43-.54h-.05v2.55h-.71Zm2.36,4.41a.76.76,0,0,0,.26-.53,12.67,12.67,0,0,0,0-2.66.72.72,0,0,0-.26-.53,1.23,1.23,0,0,0-.67-.13,1,1,0,0,0-.59.15.82.82,0,0,0-.3.5,2.84,2.84,0,0,0-.07.55c0,.2,0,.47,0,.79a6.56,6.56,0,0,0,.08,1.25,1,1,0,0,0,.3.57,1,1,0,0,0,.6.17A1.33,1.33,0,0,0,126.78,151Z"/><path class="f5ca5cd3-9571-4c83-84e1-20c1ab90d427" d="M132.09,149.34h-2.62a6.1,6.1,0,0,0,.08,1.16.66.66,0,0,0,.32.49,1.8,1.8,0,0,0,.82.14A7.29,7.29,0,0,0,132,151v.58a4.64,4.64,0,0,1-.63.1c-.26,0-.52,0-.77,0a2.24,2.24,0,0,1-1.18-.24,1.16,1.16,0,0,1-.49-.76,8.07,8.07,0,0,1-.12-1.62,10.24,10.24,0,0,1,.1-1.62,1.12,1.12,0,0,1,.47-.77,2.07,2.07,0,0,1,1.17-.25,1.89,1.89,0,0,1,1.09.24,1.12,1.12,0,0,1,.42.75,10.79,10.79,0,0,1,.08,1.64Zm-2.28-2.14a.61.61,0,0,0-.27.46,6.19,6.19,0,0,0-.07,1.15h1.94v-.12a4.71,4.71,0,0,0-.08-1.07.65.65,0,0,0-.26-.44,1.26,1.26,0,0,0-.58-.1A1.45,1.45,0,0,0,129.81,147.2Z"/><path class="f5ca5cd3-9571-4c83-84e1-20c1ab90d427" d="M135.12,146.56h.62l0,.71h.06a1,1,0,0,1,.46-.63,1.61,1.61,0,0,1,.76-.16,1.49,1.49,0,0,1,.9.22,1.18,1.18,0,0,1,.44.77,11.13,11.13,0,0,1,0,3.26,1.23,1.23,0,0,1-.43.78,1.49,1.49,0,0,1-.9.23,1.68,1.68,0,0,1-.76-.16,1,1,0,0,1-.43-.54h0v2.55h-.71Zm2.36,4.41a.76.76,0,0,0,.26-.53,12.67,12.67,0,0,0,0-2.66.72.72,0,0,0-.26-.53,1.23,1.23,0,0,0-.67-.13,1,1,0,0,0-.59.15.82.82,0,0,0-.3.5,2.84,2.84,0,0,0-.07.55c0,.2,0,.47,0,.79a6.56,6.56,0,0,0,.08,1.25,1,1,0,0,0,.3.57,1,1,0,0,0,.6.17A1.33,1.33,0,0,0,137.48,151Z"/><path class="f5ca5cd3-9571-4c83-84e1-20c1ab90d427" d="M139.6,145.06v-.83h.75v.83Zm0,6.6v-5.1h.71v5.1Z"/><path class="f5ca5cd3-9571-4c83-84e1-20c1ab90d427" d="M141.6,151.42a1.71,1.71,0,0,1-.31-1.16,2.74,2.74,0,0,1,.12-.91.78.78,0,0,1,.39-.46,1.63,1.63,0,0,1,.77-.14c.2,0,.64,0,1.32.05v-.36a3.86,3.86,0,0,0-.08-.91.54.54,0,0,0-.31-.36,2.59,2.59,0,0,0-.75-.08l-.59,0-.62.08v-.58a6.36,6.36,0,0,1,1.41-.14,2.38,2.38,0,0,1,1.05.17.87.87,0,0,1,.47.58,4.06,4.06,0,0,1,.13,1.2v3.23H144l0-.7h-.05a1,1,0,0,1-.48.62,1.8,1.8,0,0,1-.79.16A1.39,1.39,0,0,1,141.6,151.42Zm1.81-.38a.57.57,0,0,0,.33-.36,3.16,3.16,0,0,0,.15-1.07v-.33h-1.14a1.37,1.37,0,0,0-.47.06.39.39,0,0,0-.22.26,1.84,1.84,0,0,0-.07.61,1.71,1.71,0,0,0,.07.58.41.41,0,0,0,.24.26,1.46,1.46,0,0,0,.54.08A1.48,1.48,0,0,0,143.41,151Z"/><path class="f5ca5cd3-9571-4c83-84e1-20c1ab90d427" d="M146.14,151.66v-4.49h-.74v-.61h.74v-1.48h.71v1.48h.88v.61h-.88v4.49Zm.29,2.09a.8.8,0,0,0,.09-.45v-.16h-.33v-.86h.8v.78a2.49,2.49,0,0,1-.07.71.48.48,0,0,1-.27.33,1.49,1.49,0,0,1-.64.1v-.34A.57.57,0,0,0,146.43,153.75Z"/><path class="f5ca5cd3-9571-4c83-84e1-20c1ab90d427" d="M148.58,151.42a1.71,1.71,0,0,1-.31-1.16,2.74,2.74,0,0,1,.12-.91.75.75,0,0,1,.39-.46,1.63,1.63,0,0,1,.77-.14c.2,0,.64,0,1.32.05v-.36a3.86,3.86,0,0,0-.08-.91.54.54,0,0,0-.31-.36,2.59,2.59,0,0,0-.75-.08l-.59,0-.62.08v-.58a6.36,6.36,0,0,1,1.41-.14,2.38,2.38,0,0,1,1,.17.87.87,0,0,1,.47.58,4.06,4.06,0,0,1,.13,1.2v3.23H151l0-.7h0a1,1,0,0,1-.48.62,1.8,1.8,0,0,1-.79.16A1.39,1.39,0,0,1,148.58,151.42Zm1.81-.38a.57.57,0,0,0,.33-.36,3.16,3.16,0,0,0,.15-1.07v-.33h-1.14a1.37,1.37,0,0,0-.47.06.39.39,0,0,0-.22.26,1.84,1.84,0,0,0-.07.61,1.71,1.71,0,0,0,.07.58.41.41,0,0,0,.24.26,1.46,1.46,0,0,0,.54.08A1.48,1.48,0,0,0,150.39,151Z"/><path class="f5ca5cd3-9571-4c83-84e1-20c1ab90d427" d="M155.13,151.52a1.23,1.23,0,0,1-.43-.77,7.42,7.42,0,0,1-.13-1.63,8.25,8.25,0,0,1,.12-1.63,1.23,1.23,0,0,1,.43-.79,1.48,1.48,0,0,1,.89-.22,1.55,1.55,0,0,1,.77.16.89.89,0,0,1,.43.54h0v-3H158v7.43h-.63l0-.7h-.05a1,1,0,0,1-.45.62,1.8,1.8,0,0,1-.78.16A1.56,1.56,0,0,1,155.13,151.52Zm1.73-.56a.75.75,0,0,0,.29-.46,2.61,2.61,0,0,0,.09-.59c0-.21,0-.51,0-.88a5.43,5.43,0,0,0-.09-1.2.85.85,0,0,0-.29-.55,1,1,0,0,0-.62-.16,1.22,1.22,0,0,0-.65.13.72.72,0,0,0-.26.53,8.25,8.25,0,0,0-.07,1.33,9.76,9.76,0,0,0,.07,1.33.81.81,0,0,0,.27.53,1.31,1.31,0,0,0,.66.13A1.06,1.06,0,0,0,156.86,151Z"/><path class="f5ca5cd3-9571-4c83-84e1-20c1ab90d427" d="M162.4,149.34h-2.62a6.1,6.1,0,0,0,.08,1.16.66.66,0,0,0,.32.49,1.8,1.8,0,0,0,.82.14,7.29,7.29,0,0,0,1.26-.11v.58a4.64,4.64,0,0,1-.63.1c-.26,0-.52,0-.77,0a2.24,2.24,0,0,1-1.18-.24,1.16,1.16,0,0,1-.49-.76,8.07,8.07,0,0,1-.12-1.62,10.24,10.24,0,0,1,.1-1.62,1.12,1.12,0,0,1,.47-.77,2.07,2.07,0,0,1,1.17-.25,1.89,1.89,0,0,1,1.09.24,1.12,1.12,0,0,1,.42.75,12.32,12.32,0,0,1,.08,1.64Zm-2.28-2.14a.61.61,0,0,0-.27.46,6.19,6.19,0,0,0-.07,1.15h1.94v-.12a4.71,4.71,0,0,0-.08-1.07.65.65,0,0,0-.26-.44,1.26,1.26,0,0,0-.58-.1A1.45,1.45,0,0,0,160.12,147.2Z"/><path class="f5ca5cd3-9571-4c83-84e1-20c1ab90d427" d="M85.72,163.58a1,1,0,0,1-.46-.62H85.2l0,.7h-.62v-7.43h.71v3h0a1,1,0,0,1,.43-.54,1.56,1.56,0,0,1,.76-.16,1.49,1.49,0,0,1,.9.22,1.23,1.23,0,0,1,.43.78,8.25,8.25,0,0,1,.12,1.63,8.39,8.39,0,0,1-.12,1.63,1.24,1.24,0,0,1-.44.78,1.57,1.57,0,0,1-.9.22A1.74,1.74,0,0,1,85.72,163.58ZM86.9,163a.76.76,0,0,0,.26-.53,12.67,12.67,0,0,0,0-2.66.72.72,0,0,0-.26-.53,1.23,1.23,0,0,0-.67-.13,1,1,0,0,0-.57.14.75.75,0,0,0-.29.44,4,4,0,0,0-.09.58c0,.22,0,.49,0,.83s0,.61,0,.82a4.37,4.37,0,0,0,.09.56.8.8,0,0,0,.29.47,1.08,1.08,0,0,0,.58.14A1.33,1.33,0,0,0,86.9,163Z"/><path class="f5ca5cd3-9571-4c83-84e1-20c1ab90d427" d="M91.64,163h0a1,1,0,0,1-.41.58,1.46,1.46,0,0,1-.85.21,1.49,1.49,0,0,1-.84-.2,1,1,0,0,1-.38-.61,5.47,5.47,0,0,1-.1-1.15v-3.22h.71v3a6,6,0,0,0,.07,1A.58.58,0,0,0,90,163a1.23,1.23,0,0,0,.59.11.86.86,0,0,0,.66-.22,1,1,0,0,0,.27-.59,7.6,7.6,0,0,0,0-1.08v-2.65h.71v5.1h-.63Z"/><path class="f5ca5cd3-9571-4c83-84e1-20c1ab90d427" d="M96.16,160.68a6.29,6.29,0,0,0-.06-1,.59.59,0,0,0-.25-.42,1.22,1.22,0,0,0-.59-.1.89.89,0,0,0-.67.22,1,1,0,0,0-.26.59,9.24,9.24,0,0,0,0,1.08v2.65h-.71v-5.1h.62l0,.71h.06a1.08,1.08,0,0,1,.42-.59,1.51,1.51,0,0,1,.84-.2,1.42,1.42,0,0,1,.85.2.94.94,0,0,1,.38.6,5.71,5.71,0,0,1,.09,1.16v3.22h-.71Z"/><path class="f5ca5cd3-9571-4c83-84e1-20c1ab90d427" d="M100.7,163h0a1,1,0,0,1-.41.58,1.46,1.46,0,0,1-.85.21,1.49,1.49,0,0,1-.84-.2,1,1,0,0,1-.38-.61,5.47,5.47,0,0,1-.1-1.15v-3.22h.71v3a6,6,0,0,0,.07,1,.58.58,0,0,0,.24.41,1.23,1.23,0,0,0,.59.11.86.86,0,0,0,.66-.22,1,1,0,0,0,.27-.59,7.6,7.6,0,0,0,0-1.08v-2.65h.71v5.1h-.63Z"/><path class="f5ca5cd3-9571-4c83-84e1-20c1ab90d427" d="M102.63,158.56h.62l0,.95h.06a1.22,1.22,0,0,1,.46-.81,1.48,1.48,0,0,1,.86-.22v.72a1.32,1.32,0,0,0-.81.22,1.1,1.1,0,0,0-.4.65,4.56,4.56,0,0,0-.12,1.17v2.42h-.71Z"/><path class="f5ca5cd3-9571-4c83-84e1-20c1ab90d427" d="M105.46,157.06v-.83h.75v.83Zm0,6.6v-5.1h.71v5.1Z"/><path class="f5ca5cd3-9571-4c83-84e1-20c1ab90d427" d="M109.38,163.42a1.71,1.71,0,0,1-.31-1.16,2.74,2.74,0,0,1,.12-.91.82.82,0,0,1,.39-.46,1.63,1.63,0,0,1,.77-.14c.2,0,.64,0,1.32.05v-.36a3.38,3.38,0,0,0-.08-.91.54.54,0,0,0-.31-.36,2.59,2.59,0,0,0-.75-.08l-.59,0-.62.08v-.58a6.36,6.36,0,0,1,1.41-.14,2.38,2.38,0,0,1,1,.17.87.87,0,0,1,.47.58,4.06,4.06,0,0,1,.13,1.2v3.23h-.63l0-.7h0a1,1,0,0,1-.48.62,1.8,1.8,0,0,1-.79.16A1.39,1.39,0,0,1,109.38,163.42Zm1.81-.38a.57.57,0,0,0,.33-.36,3.16,3.16,0,0,0,.15-1.07v-.33h-1.14a1.37,1.37,0,0,0-.47.06.39.39,0,0,0-.22.26,1.84,1.84,0,0,0-.07.61,1.71,1.71,0,0,0,.07.58.41.41,0,0,0,.24.26,1.46,1.46,0,0,0,.54.08A1.48,1.48,0,0,0,111.19,163Z"/><path class="f5ca5cd3-9571-4c83-84e1-20c1ab90d427" d="M113.63,165.58V165l1.21,0a1.88,1.88,0,0,0,.87-.15.8.8,0,0,0,.35-.53,6.68,6.68,0,0,0,.08-1.2V163h0a.9.9,0,0,1-.42.54,1.66,1.66,0,0,1-.77.16,1.57,1.57,0,0,1-.9-.22,1.23,1.23,0,0,1-.43-.77,8.21,8.21,0,0,1-.12-1.62,7.42,7.42,0,0,1,.13-1.63,1.22,1.22,0,0,1,.43-.77,1.49,1.49,0,0,1,.9-.22,1.65,1.65,0,0,1,.77.16,1,1,0,0,1,.45.63h.05l0-.71h.63v4.36a8.41,8.41,0,0,1-.12,1.65,1.28,1.28,0,0,1-.52.82,2.36,2.36,0,0,1-1.24.26C114.51,165.65,114.07,165.62,113.63,165.58Zm2.11-2.65a.78.78,0,0,0,.29-.48,5.53,5.53,0,0,0,.11-1.35c0-.32,0-.58,0-.78a2.27,2.27,0,0,0-.08-.5.88.88,0,0,0-.3-.54.92.92,0,0,0-.59-.16,1.21,1.21,0,0,0-.66.13.76.76,0,0,0-.27.52,9.76,9.76,0,0,0-.07,1.33,9.48,9.48,0,0,0,.07,1.32.78.78,0,0,0,.27.53,1.31,1.31,0,0,0,.66.13A1,1,0,0,0,115.74,162.93Z"/><path class="f5ca5cd3-9571-4c83-84e1-20c1ab90d427" d="M118.11,158.56h.62l0,.95h.06a1.22,1.22,0,0,1,.46-.81,1.46,1.46,0,0,1,.86-.22v.72a1.32,1.32,0,0,0-.81.22,1.15,1.15,0,0,0-.4.65,4.56,4.56,0,0,0-.12,1.17v2.42h-.71Z"/><path class="f5ca5cd3-9571-4c83-84e1-20c1ab90d427" d="M120.94,157.06v-.83h.75v.83Zm0,6.6v-5.1h.71v5.1Z"/><path class="f5ca5cd3-9571-4c83-84e1-20c1ab90d427" d="M125,163.7a3.86,3.86,0,0,1-.58,0,1.83,1.83,0,0,1-1.08-.26,1.27,1.27,0,0,1-.45-.79,10,10,0,0,1-.1-1.58,7.91,7.91,0,0,1,.13-1.6,1.32,1.32,0,0,1,.46-.79,1.79,1.79,0,0,1,1-.24l.58,0a3,3,0,0,1,.48.1v.58a3.71,3.71,0,0,0-.9-.1,1.22,1.22,0,0,0-.69.15.84.84,0,0,0-.29.56,7.79,7.79,0,0,0-.08,1.3,8.16,8.16,0,0,0,.08,1.32.85.85,0,0,0,.29.56,1.28,1.28,0,0,0,.7.15,3.68,3.68,0,0,0,.92-.11v.59A2.7,2.7,0,0,1,125,163.7Z"/><path class="f5ca5cd3-9571-4c83-84e1-20c1ab90d427" d="M126.84,163.53a1,1,0,0,1-.46-.73,13,13,0,0,1,0-3.38,1,1,0,0,1,.46-.73,2.36,2.36,0,0,1,1.16-.21,2.43,2.43,0,0,1,1.17.21,1,1,0,0,1,.45.73,14.33,14.33,0,0,1,0,3.38,1,1,0,0,1-.45.73,2.43,2.43,0,0,1-1.17.21A2.36,2.36,0,0,1,126.84,163.53Zm1.87-.54a.74.74,0,0,0,.25-.52,10.86,10.86,0,0,0,0-1.36,10.66,10.66,0,0,0,0-1.36.7.7,0,0,0-.25-.52,1.87,1.87,0,0,0-1.42,0,.71.71,0,0,0-.25.52,10.33,10.33,0,0,0-.06,1.36,10.15,10.15,0,0,0,.06,1.35.74.74,0,0,0,.25.53,1.87,1.87,0,0,0,1.42,0Z"/><path class="f5ca5cd3-9571-4c83-84e1-20c1ab90d427" d="M130.82,163.66v-7.43h.71v7.43Z"/><path class="f5ca5cd3-9571-4c83-84e1-20c1ab90d427" d="M136,161.34h-2.62a6.1,6.1,0,0,0,.08,1.16.68.68,0,0,0,.32.49,1.8,1.8,0,0,0,.82.14,7.29,7.29,0,0,0,1.26-.11v.58a4.64,4.64,0,0,1-.63.1c-.26,0-.52,0-.77,0a2.24,2.24,0,0,1-1.18-.24,1.16,1.16,0,0,1-.49-.76,8.07,8.07,0,0,1-.12-1.62,10.24,10.24,0,0,1,.1-1.62,1.12,1.12,0,0,1,.47-.77,2.07,2.07,0,0,1,1.17-.25,1.89,1.89,0,0,1,1.09.24,1.12,1.12,0,0,1,.42.75,12.32,12.32,0,0,1,.08,1.64Zm-2.28-2.14a.61.61,0,0,0-.27.46,7.24,7.24,0,0,0-.07,1.15h1.94v-.12a4.71,4.71,0,0,0-.08-1.07.65.65,0,0,0-.26-.44,1.26,1.26,0,0,0-.58-.1A1.45,1.45,0,0,0,133.67,159.2Z"/><path class="f5ca5cd3-9571-4c83-84e1-20c1ab90d427" d="M137,163.66v-.9h.82v.9Z"/><path class="a2ce1785-866e-442d-896c-8e2fdbfd1930" d="M129.93,50.38A14.08,14.08,0,1,1,115.85,36.3a14.08,14.08,0,0,1,14.08,14.08"/><polygon class="a92b5101-b50d-43c4-b4dd-7c4929c6ce54" points="125.16 54.04 105.28 53.99 105.28 53.66 125.16 53.71 125.16 54.04"/><rect class="a92b5101-b50d-43c4-b4dd-7c4929c6ce54" x="108.15" y="43.34" width="0.33" height="14.47"/><rect class="a92b5101-b50d-43c4-b4dd-7c4929c6ce54" x="110.41" y="43.59" width="2.83" height="10.23"/><path class="a92b5101-b50d-43c4-b4dd-7c4929c6ce54" d="M113.39,54h-3.13V43.44h3.13Zm-2.83-.3h2.53V43.74h-2.53Z"/><rect class="a92b5101-b50d-43c4-b4dd-7c4929c6ce54" x="115.27" y="46.13" width="2.19" height="7.7"/><path class="a92b5101-b50d-43c4-b4dd-7c4929c6ce54" d="M117.57,53.94h-2.42V46h2.42Zm-2.19-.23h2V46.24h-2Z"/><rect class="a92b5101-b50d-43c4-b4dd-7c4929c6ce54" x="119.27" y="44.01" width="2.79" height="9.81"/><path class="a92b5101-b50d-43c4-b4dd-7c4929c6ce54" d="M122.21,54h-3.08V43.87h3.08Zm-2.79-.29h2.5V44.16h-2.5Z"/><polygon class="a92b5101-b50d-43c4-b4dd-7c4929c6ce54" points="108.32 43.84 109.11 43.84 108.71 43.15 108.32 42.47 107.92 43.15 107.53 43.84 108.32 43.84"/><path class="a92b5101-b50d-43c4-b4dd-7c4929c6ce54" d="M109.2,43.89h-1.77l.89-1.53Zm-1.58-.11H109l-.69-1.2Z"/><polygon class="a92b5101-b50d-43c4-b4dd-7c4929c6ce54" points="124.72 53.88 124.7 54.67 125.39 54.3 126.09 53.93 125.42 53.51 124.75 53.09 124.72 53.88"/><path class="a92b5101-b50d-43c4-b4dd-7c4929c6ce54" d="M124.64,54.76,124.7,53l1.5.93Zm.16-1.57,0,1.39,1.22-.65Z"/><path class="b7da902f-c560-4188-9334-9776e52ac838" d="M173.05,63.68a13.23,13.23,0,1,0-13.23-13.23,13.23,13.23,0,0,0,13.23,13.23"/><path class="ef5d0879-9ece-4873-93c4-ff3b535139e3" d="M171,54l.05-.65.14-2,3.82,0,.2,2.66c-1.38,3.4-3.5,1.68-4.21,0"/><path class="ad847802-b36e-48df-b7c2-22bbed17966f" d="M177,44.86a4.84,4.84,0,0,0-.09-.65c-.34-2-1.48-3.38-2.59-3.38a1.38,1.38,0,0,0-.58.15,1.76,1.76,0,0,1-1.52,0,1.49,1.49,0,0,0-.57-.14c-1.12,0-2.27,1.39-2.59,3.4,0,.21-.07.44-.09.65Z"/><path class="ad847802-b36e-48df-b7c2-22bbed17966f" d="M173,44.4c3.7,0,6.69.82,6.7,1.86s-3,1.9-6.68,1.91-6.69-.82-6.69-1.86,3-1.9,6.67-1.91"/><path class="ef5d0879-9ece-4873-93c4-ff3b535139e3" d="M169.91,46.23a3.61,3.61,0,0,0-.33,1.6c0,2.36,1.56,5.32,3.46,5.31s3.43-3,3.42-5.33a3.65,3.65,0,0,0-.34-1.61Z"/><path class="ef5d0879-9ece-4873-93c4-ff3b535139e3" d="M177.09,49.24c-.24.56-.68.87-1,.72s-.34-.74-.1-1.29.68-.88,1-.72.33.73.09,1.29"/><path class="ef5d0879-9ece-4873-93c4-ff3b535139e3" d="M169,49.27c.25.55.69.87,1,.71s.33-.74.09-1.29-.69-.87-1-.72-.33.74-.09,1.3"/><path class="bafe43f6-c1d9-4649-8724-7f1c63ccd68b" d="M170,46.05h-.8a4,4,0,0,0-.15,1.1,3.82,3.82,0,0,0,.76,2.29,6,6,0,0,1-.22-1.61,3.84,3.84,0,0,1,.41-1.78"/><path class="bafe43f6-c1d9-4649-8724-7f1c63ccd68b" d="M176.07,46a3.6,3.6,0,0,1,.42,1.78,6.38,6.38,0,0,1-.2,1.6,3.84,3.84,0,0,0,.74-2.28,3.61,3.61,0,0,0-.16-1.1Z"/><path class="bafe43f6-c1d9-4649-8724-7f1c63ccd68b" d="M177,47.13a4.26,4.26,0,0,1-.08.8.51.51,0,0,0-.47.12v-.4a1,1,0,0,0-1.36-.87,6,6,0,0,1-4.15,0,1,1,0,0,0-1.36.88v.4a.49.49,0,0,0-.47-.12,3.59,3.59,0,0,1-.09-.81,4,4,0,0,1,.15-1.1s0-.07,0-.1a21.55,21.55,0,0,1,7.57,0s0,.07,0,.11a3.34,3.34,0,0,1,.19,1.1"/><path class="ac468603-97af-47af-b44d-35389c87033e" d="M181.54,55.05a6.27,6.27,0,0,1-.36.62l-.28.42,0,0v0l-.11.15,0,0h0l-.12.16a0,0,0,0,0,0,0l-.09.11h0l-.06.07,0,0,0,0a.08.08,0,0,0,0,0l-.16.19-.09.09-.05.06-.06.06-.11.11-.06.07a.27.27,0,0,0-.08.07l-.08.08h0l0,0s0,0-.05.05l-.17.16-.08.06h0l0,0-.23.19h0l-.09.06h0l-.27.21,0,0,0,0-.2.14-.07,0a.26.26,0,0,0-.09,0,.41.41,0,0,1-.11.07l0,0-.23.13h0l-.22.11a.1.1,0,0,1-.05,0c-.24.13-.48.24-.73.35l-.23.1-.27.11-.05,0-.09,0h0l-.31.11-.26.07-.29.08-.26.06-.1,0H175l-.16,0-.08,0-.08,0h0l-.19,0-.13,0h0l-.13,0h-1.6l-.27,0h-.39l-.18,0h0l-.06,0-.23,0-.11,0-.13,0-.21,0h-.18l-.11,0-.3-.08-.19-.05-.19-.07-.08,0-.06,0h0l-.32-.12-.29-.11h0l-.29-.14-.13-.06-.16-.08-.24-.13h0l-.1-.06-.27-.16h0l0,0h0l-.08-.05-.12-.08h0l-.09-.06,0,0-.13-.1-.15-.11h0l-.41-.32-.1-.08a.46.46,0,0,1-.07-.07l-.13-.11-.09-.08-.09-.08-.12-.12s0,0,0,0h0l-.06-.07,0,0h0c-.06-.06-.12-.11-.17-.17l-.06-.06a.18.18,0,0,1-.05-.07.12.12,0,0,1,0,0h0l-.06-.07-.12-.13-.12-.15,0,0,0-.07h0s0,0,0,0l0,0s-.05,0-.06-.08l-.06-.07s0,0,0,0l-.21-.29c-.16-.24-.31-.48-.46-.73l.11-.21,3.51-.87.11,0,.11,0,.4-.1h0l.1,0h0l.1,0h0l.11,0,.1,0h0l.3-.08.55-.13.61-.15a2.84,2.84,0,0,0,2.06,1.36h0l.36,0h0l.36,0h0a2.86,2.86,0,0,0,2.06-1.36l.61.15.65.16.16,0,.08,0,.42.1.45.11h0l.12,0h0l3.52.86Z"/><path class="bafe43f6-c1d9-4649-8724-7f1c63ccd68b" d="M177.88,54.09l0,4.86A10.15,10.15,0,0,1,174,60.12H172.3l-.19,0-.47-.05-.23,0-.23,0L171,60l-.08,0h-.08l-.43-.11-.19,0a10.07,10.07,0,0,1-1.92-.79l0-4.85.11,0,.4-.1h0l.1,0h0l.1,0h0l.11,0,.1,0h0v3.22l7.75,0V53.85l.08,0,.42.11Z"/><path class="ad847802-b36e-48df-b7c2-22bbed17966f" d="M175.08,53a3.88,3.88,0,0,1-2,1.9,7.59,7.59,0,0,1,.94,1s1.67-1.84,1.68-2.5Z"/><path class="ad847802-b36e-48df-b7c2-22bbed17966f" d="M171,53a3.84,3.84,0,0,0,2,1.88,6.61,6.61,0,0,0-.92,1s-1.69-1.83-1.71-2.49Z"/><path class="ac468603-97af-47af-b44d-35389c87033e" d="M176.22,58a.54.54,0,0,1,.55.54.55.55,0,1,1-.55-.54"/><path class="ac468603-97af-47af-b44d-35389c87033e" d="M169.83,58a.54.54,0,0,1,.55.55.55.55,0,1,1-1.09,0,.55.55,0,0,1,.54-.55"/><path class="b7da902f-c560-4188-9334-9776e52ac838" d="M50.6,266a13.23,13.23,0,1,0-13.24-13.23A13.23,13.23,0,0,0,50.6,266"/><path class="ef5d0879-9ece-4873-93c4-ff3b535139e3" d="M48.49,256.31l.06-.65.14-2,3.82,0,.2,2.66c-1.38,3.4-3.5,1.68-4.22,0"/><path class="ad847802-b36e-48df-b7c2-22bbed17966f" d="M54.59,247.16a4.84,4.84,0,0,0-.09-.65c-.34-2-1.48-3.38-2.6-3.38a1.21,1.21,0,0,0-.57.15,1.8,1.8,0,0,1-1.52,0,1.34,1.34,0,0,0-.58-.14c-1.11,0-2.26,1.39-2.58,3.4,0,.21-.07.44-.09.64Z"/><path class="ad847802-b36e-48df-b7c2-22bbed17966f" d="M50.57,246.7c3.69,0,6.69.82,6.69,1.86s-3,1.9-6.67,1.91-6.69-.82-6.69-1.86,3-1.9,6.67-1.91"/><path class="ef5d0879-9ece-4873-93c4-ff3b535139e3" d="M47.46,248.53a3.61,3.61,0,0,0-.33,1.6c0,2.36,1.55,5.32,3.46,5.31s3.42-3,3.42-5.33a3.8,3.8,0,0,0-.34-1.61Z"/><path class="ef5d0879-9ece-4873-93c4-ff3b535139e3" d="M54.64,251.54c-.24.56-.68.87-1,.72s-.33-.74-.09-1.3.68-.87,1-.71.33.73.09,1.29"/><path class="ef5d0879-9ece-4873-93c4-ff3b535139e3" d="M46.54,251.57c.25.55.69.87,1,.71s.33-.74.08-1.29-.68-.87-1-.72-.33.74-.08,1.3"/><path class="bafe43f6-c1d9-4649-8724-7f1c63ccd68b" d="M47.54,248.35h-.8a3.66,3.66,0,0,0-.15,1.1,3.88,3.88,0,0,0,.75,2.29,6.41,6.41,0,0,1-.21-1.61,3.72,3.72,0,0,1,.41-1.78"/><path class="bafe43f6-c1d9-4649-8724-7f1c63ccd68b" d="M53.62,248.33a3.57,3.57,0,0,1,.42,1.78,6.38,6.38,0,0,1-.2,1.6,3.84,3.84,0,0,0,.74-2.28,3.9,3.9,0,0,0-.16-1.1Z"/><path class="bafe43f6-c1d9-4649-8724-7f1c63ccd68b" d="M54.58,249.43a4.26,4.26,0,0,1-.08.8.54.54,0,0,0-.48.12V250a1,1,0,0,0-1.36-.87,6,6,0,0,1-4.16,0,1,1,0,0,0-1.35.88v.4a.49.49,0,0,0-.47-.12,3.92,3.92,0,0,1,.06-1.91.38.38,0,0,0,0-.1,21.61,21.61,0,0,1,7.58,0,.45.45,0,0,1,0,.11,3.07,3.07,0,0,1,.2,1.1"/><path class="ac468603-97af-47af-b44d-35389c87033e" d="M59.09,257.35c-.11.21-.23.42-.36.62s-.18.28-.29.42l0,0h0l-.11.15,0,0h0l-.12.16a0,0,0,0,0,0,0l-.09.11h0L58,259l0,0,0,0a.08.08,0,0,0,0,0l-.16.19-.09.09-.06.06-.06.06-.1.11-.07.07-.07.07-.09.08h0l0,0-.05,0-.18.15-.07.07h0l0,0-.22.19h0l-.08.06h0l-.27.21,0,0,0,0-.21.14-.07.05-.08.05a.41.41,0,0,1-.11.07l0,0-.23.13h0l-.22.11a.05.05,0,0,1-.05,0c-.24.13-.48.25-.73.36l-.23.1-.28.11,0,0-.08,0h0l-.3.11-.26.07-.29.08-.26.06-.1,0h0l-.16,0-.08,0-.08,0h0l-.2,0-.12,0h0l-.13,0h-1.6l-.27,0h-.39l-.19,0h0l-.06,0-.24,0-.11,0-.12,0-.21-.05H48.3a.35.35,0,0,1-.11,0l-.3-.07-.19-.06a1.06,1.06,0,0,1-.19-.06l-.08,0-.06,0h0l-.32-.12-.29-.11h0l-.29-.14-.13-.06-.16-.08-.24-.13h0l-.1-.06-.27-.16h0l0,0h0l-.08-.05-.12-.08h0l-.1-.06,0,0-.13-.1-.15-.11h0l-.41-.32-.1-.08-.07-.07-.14-.11-.08-.08-.09-.08-.12-.12,0,0h0l-.06-.07,0,0h0l-.17-.17-.06-.06a.18.18,0,0,1-.05-.07l-.06-.05h0l-.07-.08-.11-.12-.12-.15,0,0,0-.07h0s0,0,0,0l0,0a.21.21,0,0,1-.06-.08l-.06-.07s0,0,0,0l-.21-.29a8.09,8.09,0,0,1-.46-.73l.1-.21,3.52-.87.11,0,.11,0,.4-.1h0l.1,0h0l.09,0h0l.11,0,.1,0h0l.3-.08.55-.13.61-.15a2.79,2.79,0,0,0,2.06,1.35h0l.35,0h0l.35,0h0a2.86,2.86,0,0,0,2.06-1.36l.6.15.66.16.16,0,.08,0,.42.1.45.11h0l.12,0h0l3.52.86Z"/><path class="bafe43f6-c1d9-4649-8724-7f1c63ccd68b" d="M55.43,256.38l0,4.87a10.15,10.15,0,0,1-3.86,1.17H50.12l-.27,0h-.19l-.47-.05-.23,0-.23,0-.22,0-.08,0h-.08l-.43-.11-.19-.05a10.07,10.07,0,0,1-1.92-.79l0-4.85.11,0,.4-.1h0l.09,0h0l.1,0h0l.11,0,.1,0h0l0,3.22,7.75,0v-3.23l.08,0,.42.11Z"/><path class="ad847802-b36e-48df-b7c2-22bbed17966f" d="M52.62,255.29a3.84,3.84,0,0,1-2,1.9,7,7,0,0,1,.93,1s1.68-1.84,1.69-2.5Z"/><path class="ad847802-b36e-48df-b7c2-22bbed17966f" d="M48.59,255.31a3.84,3.84,0,0,0,2,1.88,6.61,6.61,0,0,0-.92,1S48,256.4,48,255.74Z"/><path class="ac468603-97af-47af-b44d-35389c87033e" d="M53.77,260.29a.54.54,0,0,1,.55.54.55.55,0,0,1-.55.55.55.55,0,1,1,0-1.09"/><path class="ac468603-97af-47af-b44d-35389c87033e" d="M47.38,260.31a.55.55,0,1,1,0,1.09.53.53,0,0,1-.55-.54.55.55,0,0,1,.54-.55"/><path class="b943e54a-5fa1-4c2a-856a-fde7bcf87f37" d="M97.1,50.38A14.09,14.09,0,1,1,83,36.28,14.09,14.09,0,0,1,97.1,50.38Z"/><path class="a92b5101-b50d-43c4-b4dd-7c4929c6ce54" d="M79.44,50.81v5.75l2.49-.86s5.76.38,7.2-.86l3.76-4.23s2-2.38-1.06-1.12L88.7,51a1.7,1.7,0,0,1-.93.1,5.69,5.69,0,0,1-3.34-1.16s-1.28-1-5,.87Z"/><path class="b38ce614-dc50-4e57-b55e-a86671c2b703" d="M79.44,50.81v5.75l2.49-.86s5.76.38,7.2-.86l3.76-4.23s2-2.38-1.06-1.12L88.7,51a1.7,1.7,0,0,1-.93.1,5.69,5.69,0,0,1-3.34-1.16S83.15,48.89,79.44,50.81Z"/><path class="a92b5101-b50d-43c4-b4dd-7c4929c6ce54" d="M83.78,52s5.36,1.56,5.58.48c0,0-.19-.92-2.18-1.37Z"/><path class="b38ce614-dc50-4e57-b55e-a86671c2b703" d="M83.78,52s5.36,1.56,5.58.48c0,0-.19-.92-2.18-1.37"/><path class="a92b5101-b50d-43c4-b4dd-7c4929c6ce54" d="M89.38,52.34s.26.73-1.58.59c0,0-2.19-.45-2.33-.41a10.57,10.57,0,0,0,3.27.57s1.34-.34.78-1c0,0-.45-.67-.14.23Z"/><path class="b38ce614-dc50-4e57-b55e-a86671c2b703" d="M89.38,52.34s.26.73-1.58.59c0,0-2.19-.45-2.33-.41a10.57,10.57,0,0,0,3.27.57s1.34-.34.78-1C89.52,52.11,89.07,51.44,89.38,52.34Z"/><polygon class="a92b5101-b50d-43c4-b4dd-7c4929c6ce54" points="79.45 54.16 81.96 55.71 79.46 56.56 79.45 54.16"/><polygon class="b38ce614-dc50-4e57-b55e-a86671c2b703" points="79.45 54.16 81.96 55.71 79.46 56.56 79.45 54.16"/><polygon class="a92b5101-b50d-43c4-b4dd-7c4929c6ce54" points="79.46 50.45 79.46 49.49 75.97 49.49 75.97 49.98 75.97 57.3 79.46 57.3 79.46 50.45"/><polygon class="b38ce614-dc50-4e57-b55e-a86671c2b703" points="79.46 50.45 79.46 49.49 75.97 49.49 75.97 49.98 75.97 57.3 79.46 57.3 79.46 50.45"/><rect class="a92b5101-b50d-43c4-b4dd-7c4929c6ce54" x="74.31" y="49.98" width="1.66" height="7.32"/><rect class="b38ce614-dc50-4e57-b55e-a86671c2b703" x="74.31" y="49.98" width="1.66" height="7.32"/><path class="a92b5101-b50d-43c4-b4dd-7c4929c6ce54" d="M89.92,44.55l1-.7-.3-.68h-1.1l-.3-.55.3-1.06-.68-.42-.88.62-.6-.17L87,40.51h-.86l-.3,1.05-.64.2-.89-.67-.68.47.39,1-.48.59-1-.08-.27.83.9.57,0,.61-.93.65h0l.27.8,1.08-.07L84,47l-.35,1,.64.46,1-.61.59.26v0l.35,1h.71l.41-1,.76-.15.84.52.56-.46-.35-.94.46-.59h1.07l.25-.69L90,45.05Zm-3.36,1.58a1.36,1.36,0,1,1,1.36-1.36A1.37,1.37,0,0,1,86.56,46.13Z"/><polygon class="a92b5101-b50d-43c4-b4dd-7c4929c6ce54" points="90.63 46.48 89.58 46.37 89.56 46.48 90.63 46.48"/><polygon class="b38ce614-dc50-4e57-b55e-a86671c2b703" points="90.63 46.48 89.58 46.37 89.56 46.48 90.63 46.48"/><polygon class="a92b5101-b50d-43c4-b4dd-7c4929c6ce54" points="88.9 48.47 88.16 47.85 88.05 47.95 88.9 48.47"/><polygon class="b38ce614-dc50-4e57-b55e-a86671c2b703" points="88.9 48.47 88.16 47.85 88.05 47.95 88.9 48.47"/><polygon class="a92b5101-b50d-43c4-b4dd-7c4929c6ce54" points="85.81 48.1 85.94 48.08 86.17 49.1 85.82 48.12 85.81 48.1"/><polyline class="b38ce614-dc50-4e57-b55e-a86671c2b703" points="85.81 48.1 85.94 48.08 86.17 49.1 85.82 48.12"/><polygon class="a92b5101-b50d-43c4-b4dd-7c4929c6ce54" points="83.95 47 84.07 47.07 83.6 47.99 83.95 47"/><polygon class="b38ce614-dc50-4e57-b55e-a86671c2b703" points="83.95 47 84.07 47.07 83.6 47.99 83.95 47"/><polygon class="a92b5101-b50d-43c4-b4dd-7c4929c6ce54" points="83.19 45.09 83.27 45.19 82.25 45.75 83.19 45.09"/><polygon class="b38ce614-dc50-4e57-b55e-a86671c2b703" points="83.19 45.09 83.27 45.19 82.25 45.75 83.19 45.09"/><polygon class="a92b5101-b50d-43c4-b4dd-7c4929c6ce54" points="75.65 49.98 75.97 51.61 75.97 49.98 75.65 49.98"/><polygon class="b38ce614-dc50-4e57-b55e-a86671c2b703" points="75.65 49.98 75.97 51.61 75.97 49.98 75.65 49.98"/><polygon class="a92b5101-b50d-43c4-b4dd-7c4929c6ce54" points="79.45 55.88 79.13 57.3 79.46 57.3 79.46 55.84 79.45 55.88"/><polyline class="b38ce614-dc50-4e57-b55e-a86671c2b703" points="79.45 55.88 79.13 57.3 79.46 57.3 79.46 55.84"/></g></svg>