<svg xmlns="http://www.w3.org/2000/svg" viewBox="0 0 223.23 311.81"><defs><style>.a9748dc1-0fa1-4615-b8cd-3defc9b28207{fill:#00bcef;}.e1223bcc-8b7f-4b24-b61c-ac2fd2205da6,.f6dea3c2-76d5-459d-bff2-9b438bb104a9{fill:#fff;}.a43eb225-cec6-4615-891a-0aab44da4fd7{fill:#0be;}.a279181d-19bb-4be4-bd0f-7060f3034f63,.e2fefdb5-1d7e-4505-a71a-d1d5001c7c67,.fa313fd5-1949-489f-bc11-eaebd73c2340{fill:none;stroke:#fff;}.a279181d-19bb-4be4-bd0f-7060f3034f63,.e1223bcc-8b7f-4b24-b61c-ac2fd2205da6,.e2fefdb5-1d7e-4505-a71a-d1d5001c7c67,.fa313fd5-1949-489f-bc11-eaebd73c2340{stroke-miterlimit:10;}.e2fefdb5-1d7e-4505-a71a-d1d5001c7c67{stroke-width:0.05px;}.a279181d-19bb-4be4-bd0f-7060f3034f63{stroke-width:0.08px;}.fa313fd5-1949-489f-bc11-eaebd73c2340{stroke-width:0.03px;}.b211a840-9704-449e-8df3-2d13a18a7090{fill:#ec008c;}.ee103f68-c52e-49df-8bd6-4e018fab8071{fill:#99ca3c;}.a9371afd-9960-4baf-b5b8-68d3d9911dab{fill:#2a2664;}.b0b4bb68-a4ae-431e-a99c-7e7694b5782c{fill:#4d4e4f;}.f602486b-c7f3-4e5e-96d9-f770a4651171{fill:#28b573;}.e1223bcc-8b7f-4b24-b61c-ac2fd2205da6{stroke:#26b9ec;stroke-width:1.5px;}.ea4958a8-925b-464d-a62d-f3a4fc1265e8{fill:#282560;}.bd8bd44a-44b3-490e-90dc-1329f5524e78{fill:#ffdfb2;}.b0dc5907-22bd-4091-b45b-7f733c759323{fill:#24baed;}.bcec5d47-d659-4c84-9de2-c1e8905349d8{fill:#d1d6da;}.e0d4c974-81f1-443a-9211-a1ee2f44c4ad{fill:#b3babf;}.b668fffa-ffa6-4ed9-857b-bc190bfb8677{fill:#555567;}</style></defs><g id="b31f29e5-8dfd-418f-9510-7d9f5bd256f8" data-name="Layer 5"><rect class="a9748dc1-0fa1-4615-b8cd-3defc9b28207" width="223.23" height="23.73"/><rect class="a9748dc1-0fa1-4615-b8cd-3defc9b28207" y="279.44" width="223.23" height="32.37"/><rect class="a9748dc1-0fa1-4615-b8cd-3defc9b28207" x="-122.31" y="142.04" width="268.35" height="23.73" transform="translate(165.77 142.04) rotate(90)"/><rect class="a9748dc1-0fa1-4615-b8cd-3defc9b28207" x="77.19" y="144.04" width="268.35" height="23.73" transform="translate(367.27 -55.46) rotate(90)"/><path class="f6dea3c2-76d5-459d-bff2-9b438bb104a9" d="M62.51,293.38l-.42,0a1.68,1.68,0,0,1-.92-.19,1,1,0,0,1-.39-.69,11.4,11.4,0,0,1,0-3.16,1,1,0,0,1,.39-.7,1.78,1.78,0,0,1,.92-.19l.41,0a2.08,2.08,0,0,1,.36.07V289a4.65,4.65,0,0,0-.66-.07,1.37,1.37,0,0,0-.68.13.71.71,0,0,0-.25.52,15.33,15.33,0,0,0,0,2.71.71.71,0,0,0,.25.52,1.27,1.27,0,0,0,.68.13,3.82,3.82,0,0,0,.68-.06v.44Z"/><path class="f6dea3c2-76d5-459d-bff2-9b438bb104a9" d="M63.56,293.18a1.15,1.15,0,0,1-.22-.82,2.05,2.05,0,0,1,.08-.63.64.64,0,0,1,.27-.33,1.34,1.34,0,0,1,.55-.09l.92,0v-.25a2.31,2.31,0,0,0-.06-.63.38.38,0,0,0-.21-.26,2,2,0,0,0-.53-.06l-.41,0-.43.05v-.4a4.34,4.34,0,0,1,1-.1,1.77,1.77,0,0,1,.74.12.64.64,0,0,1,.33.4,3,3,0,0,1,.09.84v2.26h-.44l0-.49h0a.68.68,0,0,1-.33.44,1.35,1.35,0,0,1-.55.11A.94.94,0,0,1,63.56,293.18Zm1.27-.27a.44.44,0,0,0,.23-.25,2.23,2.23,0,0,0,.1-.75v-.23h-.8a.92.92,0,0,0-.33,0,.27.27,0,0,0-.15.19,1.4,1.4,0,0,0-.05.42,1.25,1.25,0,0,0,.05.4.29.29,0,0,0,.17.19.94.94,0,0,0,.38.05A1.16,1.16,0,0,0,64.83,292.91Z"/><path class="f6dea3c2-76d5-459d-bff2-9b438bb104a9" d="M66.52,289.77H67l0,.67h0a.87.87,0,0,1,.32-.57,1.1,1.1,0,0,1,.61-.15v.5a.88.88,0,0,0-.57.16.75.75,0,0,0-.28.45,3.1,3.1,0,0,0-.08.82v1.69h-.5Z"/><path class="f6dea3c2-76d5-459d-bff2-9b438bb104a9" d="M70.73,291.72H68.9a5.08,5.08,0,0,0,0,.82.48.48,0,0,0,.23.34,1.29,1.29,0,0,0,.57.09,5.1,5.1,0,0,0,.89-.07v.4a3.07,3.07,0,0,1-.45.07l-.53,0a1.71,1.71,0,0,1-.83-.16.8.8,0,0,1-.34-.54,5.25,5.25,0,0,1-.09-1.13,7.32,7.32,0,0,1,.07-1.13.84.84,0,0,1,.33-.55,1.54,1.54,0,0,1,.82-.17,1.24,1.24,0,0,1,.76.17.73.73,0,0,1,.29.52,7.76,7.76,0,0,1,.06,1.15Zm-1.59-1.5a.5.5,0,0,0-.2.33,5.09,5.09,0,0,0,0,.8h1.36v-.09a3.28,3.28,0,0,0-.06-.74.48.48,0,0,0-.18-.31.86.86,0,0,0-.41-.07A1.07,1.07,0,0,0,69.14,290.22Z"/><path class="f6dea3c2-76d5-459d-bff2-9b438bb104a9" d="M73.73,291.72H71.9a4.13,4.13,0,0,0,0,.82.47.47,0,0,0,.22.34,1.37,1.37,0,0,0,.58.09,5,5,0,0,0,.88-.07v.4a2.9,2.9,0,0,1-.44.07l-.54,0a1.66,1.66,0,0,1-.82-.16.81.81,0,0,1-.35-.54,8.55,8.55,0,0,1,0-2.26.83.83,0,0,1,.32-.55,1.58,1.58,0,0,1,.83-.17,1.26,1.26,0,0,1,.76.17.77.77,0,0,1,.29.52,7.76,7.76,0,0,1,.06,1.15Zm-1.6-1.5a.49.49,0,0,0-.19.33,5.09,5.09,0,0,0,0,.8h1.35v-.09a3.42,3.42,0,0,0,0-.74.45.45,0,0,0-.19-.31.82.82,0,0,0-.4-.07A1.12,1.12,0,0,0,72.13,290.22Z"/><path class="f6dea3c2-76d5-459d-bff2-9b438bb104a9" d="M74.51,289.77h.43l0,.67h0a.87.87,0,0,1,.32-.57,1.08,1.08,0,0,1,.61-.15v.5a.86.86,0,0,0-.57.16.81.81,0,0,0-.29.45,3.59,3.59,0,0,0-.08.82v1.69h-.49Z"/><path class="f6dea3c2-76d5-459d-bff2-9b438bb104a9" d="M77.9,288.53h1.46a1,1,0,0,1,.85.31,1.35,1.35,0,0,1,.26.89,1.49,1.49,0,0,1-.17.77.82.82,0,0,1-.54.37v0a.81.81,0,0,1,.59.39,1.67,1.67,0,0,1,.16.8,1.48,1.48,0,0,1-.25.92,1.09,1.09,0,0,1-.93.34H77.9Zm1.86,1.94a.91.91,0,0,0,.19-.64,1.55,1.55,0,0,0-.07-.49.46.46,0,0,0-.22-.27,1,1,0,0,0-.45-.08h-.8v1.68h.8A.71.71,0,0,0,79.76,290.47Zm.06,2.22A1.1,1.1,0,0,0,80,292a1.07,1.07,0,0,0-.17-.68.72.72,0,0,0-.58-.2h-.82v1.75h.82A.72.72,0,0,0,79.82,292.69Z"/><path class="f6dea3c2-76d5-459d-bff2-9b438bb104a9" d="M83.11,292.85h0a.76.76,0,0,1-.29.41,1.31,1.31,0,0,1-1.18,0,.71.71,0,0,1-.27-.42,4.17,4.17,0,0,1-.06-.81v-2.26h.5v2.09a4.26,4.26,0,0,0,0,.73.44.44,0,0,0,.17.29.88.88,0,0,0,.42.07.62.62,0,0,0,.46-.15.68.68,0,0,0,.18-.41,5,5,0,0,0,0-.76v-1.86h.5v3.57h-.44Z"/><path class="f6dea3c2-76d5-459d-bff2-9b438bb104a9" d="M84.82,293.38l-.45-.06v-.42a5.62,5.62,0,0,0,.92.08.84.84,0,0,0,.4-.07.35.35,0,0,0,.18-.2,1,1,0,0,0,0-.34,1.64,1.64,0,0,0,0-.37.21.21,0,0,0-.09-.14.54.54,0,0,0-.23-.06l-.7-.11a.61.61,0,0,1-.46-.25,1.47,1.47,0,0,1-.11-.68,1.29,1.29,0,0,1,.13-.65.7.7,0,0,1,.37-.31,1.93,1.93,0,0,1,.6-.08l.46,0a1.71,1.71,0,0,1,.4.07v.4l-.4-.06-.46,0a.72.72,0,0,0-.47.12.57.57,0,0,0-.15.47,1.46,1.46,0,0,0,0,.34.27.27,0,0,0,.09.15l.22.06.68.09a.76.76,0,0,1,.35.12.5.5,0,0,1,.2.29,2.09,2.09,0,0,1,.06.58,1,1,0,0,1-.25.81,1.22,1.22,0,0,1-.82.23Z"/><path class="f6dea3c2-76d5-459d-bff2-9b438bb104a9" d="M90,293.34V292.2H88.23v-.41l1.27-3.26h.55l-1.27,3.21H90l.1-1.78h.42v1.78H91v.46h-.5v1.14Z"/><path class="f6dea3c2-76d5-459d-bff2-9b438bb104a9" d="M91.67,293.34v-.63h.57v.63Z"/><path class="f6dea3c2-76d5-459d-bff2-9b438bb104a9" d="M93.43,293.21a1,1,0,0,1-.35-.66,18.67,18.67,0,0,1,0-3.23,1,1,0,0,1,.35-.66,1.56,1.56,0,0,1,.9-.19,1.64,1.64,0,0,1,.92.19.9.9,0,0,1,.33.65,18.78,18.78,0,0,1,0,3.24.92.92,0,0,1-.35.66,2.23,2.23,0,0,1-1.8,0Zm1.45-.38a.68.68,0,0,0,.2-.49,19.77,19.77,0,0,0,0-2.81.68.68,0,0,0-.2-.49,1,1,0,0,0-.55-.11,1,1,0,0,0-.56.11c-.1.07-.16.23-.19.49a13.92,13.92,0,0,0,0,1.41,13.68,13.68,0,0,0,0,1.4c0,.26.09.42.19.49a1,1,0,0,0,.56.11A1,1,0,0,0,94.88,292.83Z"/><path class="f6dea3c2-76d5-459d-bff2-9b438bb104a9" d="M97.93,294.47v-6.33h.46v6.33Z"/><path class="f6dea3c2-76d5-459d-bff2-9b438bb104a9" d="M101.25,293.23a.82.82,0,0,1-.38-.64,11.86,11.86,0,0,1-.08-1.65,12.14,12.14,0,0,1,.08-1.66.85.85,0,0,1,.38-.64,3.3,3.3,0,0,1,2.09,0,.85.85,0,0,1,.38.64,12.14,12.14,0,0,1,.08,1.66,11.86,11.86,0,0,1-.08,1.65.82.82,0,0,1-.38.64,2.3,2.3,0,0,1-1,.17A2.35,2.35,0,0,1,101.25,293.23Zm1.92-.21a.71.71,0,0,0,.3-.54,12.78,12.78,0,0,0,.06-1.54,13,13,0,0,0-.06-1.55.71.71,0,0,0-.3-.54,2.12,2.12,0,0,0-.87-.13,2.15,2.15,0,0,0-.88.13.71.71,0,0,0-.3.54,13,13,0,0,0-.06,1.55,12.78,12.78,0,0,0,.06,1.54.71.71,0,0,0,.3.54,2,2,0,0,0,.88.13A2,2,0,0,0,103.17,293Zm-1.25-.86a.55.55,0,0,1-.21-.37,5.53,5.53,0,0,1,0-.85,5.63,5.63,0,0,1,0-.85.55.55,0,0,1,.22-.37.89.89,0,0,1,.49-.11,1.61,1.61,0,0,1,.42.05V290a2,2,0,0,0-.35,0,.69.69,0,0,0-.34.07.37.37,0,0,0-.12.26,8.18,8.18,0,0,0,0,1.4.37.37,0,0,0,.12.26.71.71,0,0,0,.34.06,2,2,0,0,0,.36,0v.29a2,2,0,0,1-.43,0A.93.93,0,0,1,101.92,292.16Z"/><path class="f6dea3c2-76d5-459d-bff2-9b438bb104a9" d="M105.13,292.88H107v.46h-2.41v-.55a8.56,8.56,0,0,1,0-.87,1,1,0,0,1,.14-.43,1.21,1.21,0,0,1,.41-.34l.91-.54a.75.75,0,0,0,.32-.32,1.46,1.46,0,0,0,.07-.54,1.72,1.72,0,0,0-.06-.52.4.4,0,0,0-.23-.23,1.52,1.52,0,0,0-.5-.07,9.22,9.22,0,0,0-1,.08v-.43a4.55,4.55,0,0,1,.54-.08l.61,0a2.3,2.3,0,0,1,.65.08.73.73,0,0,1,.39.35,1.65,1.65,0,0,1,.15.79,2.72,2.72,0,0,1-.06.64.89.89,0,0,1-.19.39,1.57,1.57,0,0,1-.36.29l-1,.58a.55.55,0,0,0-.23.22,1.09,1.09,0,0,0,0,.25c0,.1,0,.26,0,.47Z"/><path class="f6dea3c2-76d5-459d-bff2-9b438bb104a9" d="M108.14,293.21a.91.91,0,0,1-.34-.66,16.34,16.34,0,0,1,0-3.23.91.91,0,0,1,.34-.66,1.58,1.58,0,0,1,.9-.19,1.62,1.62,0,0,1,.92.19.91.91,0,0,1,.34.65,14.09,14.09,0,0,1,.07,1.63,11.69,11.69,0,0,1-.08,1.61,1,1,0,0,1-.34.66,1.6,1.6,0,0,1-.91.19A1.58,1.58,0,0,1,108.14,293.21Zm1.45-.38a.68.68,0,0,0,.2-.49,19.77,19.77,0,0,0,0-2.81.68.68,0,0,0-.2-.49,1.43,1.43,0,0,0-1.1,0,.68.68,0,0,0-.2.49c0,.26,0,.72,0,1.41s0,1.15,0,1.4a.68.68,0,0,0,.2.49,1.43,1.43,0,0,0,1.1,0Z"/><path class="f6dea3c2-76d5-459d-bff2-9b438bb104a9" d="M111.57,292.88h1.9v.46h-2.41v-.55a8.56,8.56,0,0,1,0-.87.79.79,0,0,1,.15-.43,1.08,1.08,0,0,1,.4-.34l.91-.54a.75.75,0,0,0,.32-.32,1.46,1.46,0,0,0,.07-.54,1.72,1.72,0,0,0-.06-.52.43.43,0,0,0-.23-.23,1.52,1.52,0,0,0-.5-.07,9.22,9.22,0,0,0-1,.08v-.43a4.55,4.55,0,0,1,.54-.08l.61,0a2.3,2.3,0,0,1,.65.08.73.73,0,0,1,.39.35,1.65,1.65,0,0,1,.15.79,2.72,2.72,0,0,1-.06.64.89.89,0,0,1-.19.39,1.57,1.57,0,0,1-.36.29l-1,.58a.55.55,0,0,0-.23.22,1.09,1.09,0,0,0,0,.25c0,.1,0,.26,0,.47Z"/><path class="f6dea3c2-76d5-459d-bff2-9b438bb104a9" d="M114.66,293.34v-4.17l-.67.33V289l.81-.48h.38v4.81Z"/><path class="f6dea3c2-76d5-459d-bff2-9b438bb104a9" d="M118.06,293.91a.92.92,0,0,1-.48-.72,11.5,11.5,0,0,1-.1-1.9,11.65,11.65,0,0,1,.1-1.91.92.92,0,0,1,.48-.72,5.11,5.11,0,0,1,2.76,0,.9.9,0,0,1,.48.72,11.49,11.49,0,0,1,.1,1.91,6.35,6.35,0,0,1-.06,1,.64.64,0,0,1-.2.4.82.82,0,0,1-.41.08H120l0-.41h0a.58.58,0,0,1-.25.37,1,1,0,0,1-.43.09.75.75,0,0,1-.58-.2,1,1,0,0,1-.17-.69,1.87,1.87,0,0,1,.06-.54.45.45,0,0,1,.22-.28.89.89,0,0,1,.44-.08c.17,0,.41,0,.73,0v-.21a2,2,0,0,0,0-.52.28.28,0,0,0-.16-.21,1.25,1.25,0,0,0-.4-.05l-.36,0a1.83,1.83,0,0,0-.33,0v-.37a3.79,3.79,0,0,1,.82-.08,1.14,1.14,0,0,1,.59.11.52.52,0,0,1,.27.34,2.58,2.58,0,0,1,.07.71v1.66h.39a.24.24,0,0,0,.19-.06.69.69,0,0,0,.09-.33,8.47,8.47,0,0,0,0-.86c0-.73,0-1.24,0-1.54a1.28,1.28,0,0,0-.2-.68.82.82,0,0,0-.55-.27,6.47,6.47,0,0,0-.87-.05q-.47,0-.78,0a.89.89,0,0,0-.6.26,1.2,1.2,0,0,0-.21.67c0,.3,0,.83,0,1.58a14.6,14.6,0,0,0,.06,1.61,1.06,1.06,0,0,0,.26.66,1.16,1.16,0,0,0,.71.24h.62c.49,0,.8,0,1,0v.3h-1A3.42,3.42,0,0,1,118.06,293.91Zm1.65-1.5a.43.43,0,0,0,.18-.26,2.3,2.3,0,0,0,0-.53v-.22h-.63a.65.65,0,0,0-.24,0,.25.25,0,0,0-.11.15,1.6,1.6,0,0,0,0,.36,1.4,1.4,0,0,0,0,.34.27.27,0,0,0,.13.16.66.66,0,0,0,.28,0A.63.63,0,0,0,119.71,292.41Z"/><path class="f6dea3c2-76d5-459d-bff2-9b438bb104a9" d="M123.55,293.31v-.46a4.46,4.46,0,0,0,.54.06l.5,0a2.36,2.36,0,0,0,.44,0,.58.58,0,0,0,.27-.14.43.43,0,0,0,.13-.26,3,3,0,0,0,0-.47,3.58,3.58,0,0,0,0-.54.34.34,0,0,0-.13-.22,1,1,0,0,0-.36-.11l-.82-.13a.79.79,0,0,1-.44-.2.8.8,0,0,1-.19-.38,3.67,3.67,0,0,1,0-.64,1.42,1.42,0,0,1,.3-1,1.35,1.35,0,0,1,1-.31,4.51,4.51,0,0,1,1.07.11V289a5.09,5.09,0,0,0-.95-.09,1.56,1.56,0,0,0-.48.06.51.51,0,0,0-.26.15.57.57,0,0,0-.12.26,2.21,2.21,0,0,0,0,.39,2.51,2.51,0,0,0,0,.47.32.32,0,0,0,.11.2.7.7,0,0,0,.28.09l.78.13a1.55,1.55,0,0,1,.47.14.66.66,0,0,1,.26.34,2.66,2.66,0,0,1,.08.8,2.4,2.4,0,0,1-.12.85.75.75,0,0,1-.38.45,1.68,1.68,0,0,1-.74.14A7.51,7.51,0,0,1,123.55,293.31Zm1.12,1.5a.5.5,0,0,0,.07-.32v-.11h-.23v-.6h.56v.54a2,2,0,0,1,0,.5.4.4,0,0,1-.2.24,1.18,1.18,0,0,1-.44.06v-.24C124.53,294.88,124.63,294.86,124.67,294.81Z"/><path class="f6dea3c2-76d5-459d-bff2-9b438bb104a9" d="M128.15,293.38l-.4,0a1.27,1.27,0,0,1-.76-.18.84.84,0,0,1-.31-.55,6.19,6.19,0,0,1-.07-1.11,5.4,5.4,0,0,1,.08-1.12.89.89,0,0,1,.33-.55,1.26,1.26,0,0,1,.71-.17l.41,0a2,2,0,0,1,.34.07v.4a3.39,3.39,0,0,0-.64-.07.85.85,0,0,0-.48.11.66.66,0,0,0-.21.4,6.12,6.12,0,0,0-.05.9,6.61,6.61,0,0,0,.05.93.61.61,0,0,0,.21.39.9.9,0,0,0,.49.1,2.64,2.64,0,0,0,.65-.07v.41Z"/><path class="f6dea3c2-76d5-459d-bff2-9b438bb104a9" d="M129.46,293.25a.72.72,0,0,1-.32-.51,6.42,6.42,0,0,1-.08-1.18,6.35,6.35,0,0,1,.08-1.18.68.68,0,0,1,.32-.51,1.63,1.63,0,0,1,.81-.15,1.68,1.68,0,0,1,.82.15.71.71,0,0,1,.32.51,7.7,7.7,0,0,1,.07,1.18,7.8,7.8,0,0,1-.07,1.18.75.75,0,0,1-.32.51,1.68,1.68,0,0,1-.82.15A1.63,1.63,0,0,1,129.46,293.25Zm1.31-.37a.56.56,0,0,0,.18-.37c0-.18,0-.49,0-.95s0-.78,0-.95a.56.56,0,0,0-.18-.37,1,1,0,0,0-.5-.1.94.94,0,0,0-.49.1.49.49,0,0,0-.18.37,11.3,11.3,0,0,0,0,1.9.49.49,0,0,0,.18.37,1,1,0,0,0,.49.09A1,1,0,0,0,130.77,292.88Z"/><path class="f6dea3c2-76d5-459d-bff2-9b438bb104a9" d="M132.26,293.18a1.2,1.2,0,0,1-.22-.82,2.05,2.05,0,0,1,.08-.63.61.61,0,0,1,.28-.33,1.32,1.32,0,0,1,.54-.09l.92,0v-.25a3,3,0,0,0-.05-.63.39.39,0,0,0-.22-.26,2,2,0,0,0-.52-.06l-.42,0-.43.05v-.4a4.37,4.37,0,0,1,1-.1,1.72,1.72,0,0,1,.73.12.64.64,0,0,1,.33.4,3,3,0,0,1,.09.84v2.26h-.44l0-.49h0a.69.69,0,0,1-.34.44,1.35,1.35,0,0,1-.55.11A1,1,0,0,1,132.26,293.18Zm1.27-.27a.41.41,0,0,0,.23-.25,2.23,2.23,0,0,0,.1-.75v-.23h-.79a1,1,0,0,0-.34,0,.27.27,0,0,0-.15.19,1.4,1.4,0,0,0-.05.42,1.25,1.25,0,0,0,.05.4.32.32,0,0,0,.17.19,1,1,0,0,0,.38.05A1.12,1.12,0,0,0,133.53,292.91Z"/><path class="f6dea3c2-76d5-459d-bff2-9b438bb104a9" d="M135.22,293.34v-5.2h.5v5.2Z"/><path class="f6dea3c2-76d5-459d-bff2-9b438bb104a9" d="M136.61,293.18a1.15,1.15,0,0,1-.22-.82,2.05,2.05,0,0,1,.08-.63.64.64,0,0,1,.27-.33,1.34,1.34,0,0,1,.55-.09l.92,0v-.25a2.31,2.31,0,0,0-.06-.63.38.38,0,0,0-.21-.26,2,2,0,0,0-.53-.06l-.41,0-.43.05v-.4a4.34,4.34,0,0,1,1-.1,1.69,1.69,0,0,1,.73.12.62.62,0,0,1,.34.4,3,3,0,0,1,.09.84v2.26h-.44l0-.49h0a.66.66,0,0,1-.34.44,1.27,1.27,0,0,1-.54.11A.94.94,0,0,1,136.61,293.18Zm1.27-.27a.41.41,0,0,0,.23-.25,2.23,2.23,0,0,0,.1-.75v-.23h-.8a.92.92,0,0,0-.33,0,.27.27,0,0,0-.15.19,1.4,1.4,0,0,0-.05.42,1.25,1.25,0,0,0,.05.4.29.29,0,0,0,.17.19.94.94,0,0,0,.38.05A1.16,1.16,0,0,0,137.88,292.91Z"/><path class="f6dea3c2-76d5-459d-bff2-9b438bb104a9" d="M141.19,293.25a.94.94,0,0,1-.3-.54,5.42,5.42,0,0,1-.09-1.14,5.6,5.6,0,0,1,.09-1.15.83.83,0,0,1,.29-.54,1,1,0,0,1,.63-.16,1.08,1.08,0,0,1,.54.11.7.7,0,0,1,.3.38h0v-2.07h.5v5.2h-.44l0-.49h0a.69.69,0,0,1-.32.44,1.27,1.27,0,0,1-.54.11A1.08,1.08,0,0,1,141.19,293.25Zm1.21-.4a.51.51,0,0,0,.21-.32,2.37,2.37,0,0,0,.06-.41c0-.15,0-.36,0-.62a4.11,4.11,0,0,0-.06-.84.56.56,0,0,0-.21-.38.64.64,0,0,0-.42-.11.86.86,0,0,0-.46.09.52.52,0,0,0-.19.37,6.82,6.82,0,0,0,0,.93,6.51,6.51,0,0,0,0,.93.52.52,0,0,0,.18.37.9.9,0,0,0,.47.09A.66.66,0,0,0,142.4,292.85Z"/><path class="f6dea3c2-76d5-459d-bff2-9b438bb104a9" d="M146.28,291.72h-1.83a5.08,5.08,0,0,0,.05.82.48.48,0,0,0,.23.34,1.29,1.29,0,0,0,.57.09,5,5,0,0,0,.88-.07v.4a2.7,2.7,0,0,1-.44.07l-.54,0a1.69,1.69,0,0,1-.82-.16.8.8,0,0,1-.34-.54,5.25,5.25,0,0,1-.09-1.13,7.32,7.32,0,0,1,.07-1.13.84.84,0,0,1,.33-.55,1.54,1.54,0,0,1,.82-.17,1.26,1.26,0,0,1,.76.17.73.73,0,0,1,.29.52,7.76,7.76,0,0,1,.06,1.15Zm-1.59-1.5a.46.46,0,0,0-.2.33,5.09,5.09,0,0,0,0,.8h1.36v-.09a3.28,3.28,0,0,0-.06-.74.48.48,0,0,0-.18-.31.89.89,0,0,0-.41-.07A1,1,0,0,0,144.69,290.22Z"/><path class="f6dea3c2-76d5-459d-bff2-9b438bb104a9" d="M149.24,293.34,148,288.53h.55l1,4.12h0l1-4.12h.53l-1.2,4.81Z"/><path class="f6dea3c2-76d5-459d-bff2-9b438bb104a9" d="M151.65,293.18a1.2,1.2,0,0,1-.22-.82,2.05,2.05,0,0,1,.08-.63.61.61,0,0,1,.28-.33,1.32,1.32,0,0,1,.54-.09l.92,0v-.25a2.31,2.31,0,0,0-.06-.63.38.38,0,0,0-.21-.26,2,2,0,0,0-.52-.06l-.42,0-.43.05v-.4a4.37,4.37,0,0,1,1-.1,1.72,1.72,0,0,1,.73.12.64.64,0,0,1,.33.4,3,3,0,0,1,.09.84v2.26h-.44l0-.49h0a.69.69,0,0,1-.34.44,1.35,1.35,0,0,1-.55.11A1,1,0,0,1,151.65,293.18Zm1.27-.27a.41.41,0,0,0,.23-.25,2.23,2.23,0,0,0,.1-.75v-.23h-.79a1,1,0,0,0-.34,0,.27.27,0,0,0-.15.19,1.4,1.4,0,0,0-.05.42,1.25,1.25,0,0,0,.05.4.32.32,0,0,0,.17.19,1,1,0,0,0,.38.05A1.12,1.12,0,0,0,152.92,292.91Z"/><path class="f6dea3c2-76d5-459d-bff2-9b438bb104a9" d="M154.61,293.34v-5.2h.5v5.2Z"/><path class="f6dea3c2-76d5-459d-bff2-9b438bb104a9" d="M156.27,293.25a.69.69,0,0,1-.32-.51,6.42,6.42,0,0,1-.08-1.18,6.35,6.35,0,0,1,.08-1.18.65.65,0,0,1,.32-.51,1.63,1.63,0,0,1,.81-.15,1.68,1.68,0,0,1,.82.15.71.71,0,0,1,.32.51,7.7,7.7,0,0,1,.07,1.18,7.8,7.8,0,0,1-.07,1.18.75.75,0,0,1-.32.51,1.68,1.68,0,0,1-.82.15A1.63,1.63,0,0,1,156.27,293.25Zm1.31-.37a.56.56,0,0,0,.18-.37c0-.18,0-.49,0-.95s0-.78,0-.95a.56.56,0,0,0-.18-.37,1,1,0,0,0-.5-.1.94.94,0,0,0-.49.1.49.49,0,0,0-.18.37,11.3,11.3,0,0,0,0,1.9.49.49,0,0,0,.18.37,1,1,0,0,0,.49.09A1,1,0,0,0,157.58,292.88Z"/><path class="f6dea3c2-76d5-459d-bff2-9b438bb104a9" d="M159.06,289.77h.43l0,.67h0a.87.87,0,0,1,.32-.57,1.08,1.08,0,0,1,.61-.15v.5a.86.86,0,0,0-.57.16.81.81,0,0,0-.29.45,3.59,3.59,0,0,0-.08.82v1.69h-.49Z"/><path class="f6dea3c2-76d5-459d-bff2-9b438bb104a9" d="M161,288.72v-.58h.52v.58Zm0,4.62v-3.57h.5v3.57Z"/><path class="f6dea3c2-76d5-459d-bff2-9b438bb104a9" d="M37.54,301.77l-.4,0a1.27,1.27,0,0,1-.76-.18.84.84,0,0,1-.31-.56A6,6,0,0,1,36,300a6.21,6.21,0,0,1,.08-1.12.89.89,0,0,1,.33-.55,1.18,1.18,0,0,1,.71-.17l.41,0a2,2,0,0,1,.34.07v.4a3.38,3.38,0,0,0-.63-.07.86.86,0,0,0-.49.11.58.58,0,0,0-.2.39,5,5,0,0,0-.06.91,5.12,5.12,0,0,0,.06.93.56.56,0,0,0,.2.39.92.92,0,0,0,.49.1,2.23,2.23,0,0,0,.65-.08v.42A1.58,1.58,0,0,1,37.54,301.77Z"/><path class="f6dea3c2-76d5-459d-bff2-9b438bb104a9" d="M38.85,301.65a.72.72,0,0,1-.32-.51,6.42,6.42,0,0,1-.08-1.18,6.35,6.35,0,0,1,.08-1.18.72.72,0,0,1,.32-.52,1.78,1.78,0,0,1,.81-.14,1.83,1.83,0,0,1,.82.14.72.72,0,0,1,.32.52,6.58,6.58,0,0,1,.07,1.18,6.65,6.65,0,0,1-.07,1.18.72.72,0,0,1-.32.51,1.68,1.68,0,0,1-.82.15A1.63,1.63,0,0,1,38.85,301.65Zm1.31-.38a.51.51,0,0,0,.18-.36c0-.18,0-.49,0-1s0-.78,0-.95a.56.56,0,0,0-.18-.37,1,1,0,0,0-.5-.1.94.94,0,0,0-.49.1A.49.49,0,0,0,39,299a11.3,11.3,0,0,0,0,1.9.45.45,0,0,0,.18.36.85.85,0,0,0,.49.1A.89.89,0,0,0,40.16,301.27Z"/><path class="f6dea3c2-76d5-459d-bff2-9b438bb104a9" d="M43.45,299.66a4.26,4.26,0,0,0,0-.73.41.41,0,0,0-.18-.29.84.84,0,0,0-.41-.07.65.65,0,0,0-.47.15.68.68,0,0,0-.18.41,7.16,7.16,0,0,0,0,.76v1.85h-.5v-3.57h.43l0,.5h0a.77.77,0,0,1,.29-.41,1.09,1.09,0,0,1,.59-.14,1,1,0,0,1,.6.14.65.65,0,0,1,.26.42,3.41,3.41,0,0,1,.07.81v2.25h-.5Z"/><path class="f6dea3c2-76d5-459d-bff2-9b438bb104a9" d="M46.24,301.77l-.4,0a1.27,1.27,0,0,1-.76-.18.84.84,0,0,1-.31-.56,6,6,0,0,1-.07-1.1,6.21,6.21,0,0,1,.08-1.12.89.89,0,0,1,.33-.55,1.18,1.18,0,0,1,.71-.17l.41,0a2,2,0,0,1,.34.07v.4a3.38,3.38,0,0,0-.63-.07.86.86,0,0,0-.49.11.58.58,0,0,0-.2.39,5,5,0,0,0-.06.91,5.12,5.12,0,0,0,.06.93.56.56,0,0,0,.2.39.92.92,0,0,0,.49.1,2.18,2.18,0,0,0,.65-.08v.42A1.58,1.58,0,0,1,46.24,301.77Z"/><path class="f6dea3c2-76d5-459d-bff2-9b438bb104a9" d="M49.49,300.12H47.65a4.85,4.85,0,0,0,.05.81.5.5,0,0,0,.23.35,1.31,1.31,0,0,0,.58.09,4.24,4.24,0,0,0,.88-.08v.41a3.13,3.13,0,0,1-.44.07l-.54,0a1.58,1.58,0,0,1-.83-.17.76.76,0,0,1-.34-.53,5.29,5.29,0,0,1-.09-1.14,7.52,7.52,0,0,1,.07-1.13.84.84,0,0,1,.33-.54,1.54,1.54,0,0,1,.82-.17,1.29,1.29,0,0,1,.77.17.77.77,0,0,1,.29.52,7.76,7.76,0,0,1,.06,1.15Zm-1.6-1.5a.45.45,0,0,0-.19.33,4.8,4.8,0,0,0-.05.8H49v-.09a3.28,3.28,0,0,0-.06-.74.44.44,0,0,0-.18-.31.86.86,0,0,0-.41-.07A1.1,1.1,0,0,0,47.89,298.62Z"/><path class="f6dea3c2-76d5-459d-bff2-9b438bb104a9" d="M50.26,298.17h.44l0,.5h.05a.71.71,0,0,1,.31-.44,1.27,1.27,0,0,1,.54-.11,1.08,1.08,0,0,1,.63.15.79.79,0,0,1,.3.54,5.42,5.42,0,0,1,.09,1.14,6.43,6.43,0,0,1-.08,1.15.91.91,0,0,1-.3.54,1,1,0,0,1-.63.16,1.13,1.13,0,0,1-.53-.11.7.7,0,0,1-.31-.38h0v1.78h-.5Zm1.65,3.09a.56.56,0,0,0,.19-.37,6.51,6.51,0,0,0,0-.93,6.31,6.31,0,0,0,0-.93.56.56,0,0,0-.19-.37.9.9,0,0,0-.47-.09.71.71,0,0,0-.41.1.58.58,0,0,0-.21.35,2.06,2.06,0,0,0,0,.39c0,.14,0,.32,0,.55a4.05,4.05,0,0,0,.06.87.69.69,0,0,0,.21.41.67.67,0,0,0,.41.11A.9.9,0,0,0,51.91,301.26Z"/><path class="f6dea3c2-76d5-459d-bff2-9b438bb104a9" d="M53.63,301.74V298.6h-.52v-.43h.52v-1h.5v1h.61v.43h-.61v3.14Z"/><path class="f6dea3c2-76d5-459d-bff2-9b438bb104a9" d="M58.1,301.77l-.4,0a1.27,1.27,0,0,1-.76-.18.89.89,0,0,1-.32-.56,7.35,7.35,0,0,1-.06-1.1,5.4,5.4,0,0,1,.08-1.12.89.89,0,0,1,.33-.55,1.16,1.16,0,0,1,.71-.17l.41,0a1.68,1.68,0,0,1,.33.07v.4a3.2,3.2,0,0,0-.63-.07.85.85,0,0,0-.48.11.63.63,0,0,0-.21.39,6.38,6.38,0,0,0-.05.91,6.61,6.61,0,0,0,.05.93.61.61,0,0,0,.21.39.9.9,0,0,0,.49.1,2.12,2.12,0,0,0,.64-.08v.42A1.39,1.39,0,0,1,58.1,301.77Z"/><path class="f6dea3c2-76d5-459d-bff2-9b438bb104a9" d="M59.12,298.17h.44l0,.67h0a.83.83,0,0,1,.32-.57,1.07,1.07,0,0,1,.6-.15v.5a.85.85,0,0,0-.56.16.81.81,0,0,0-.29.45,3.59,3.59,0,0,0-.08.82v1.69h-.5Z"/><path class="f6dea3c2-76d5-459d-bff2-9b438bb104a9" d="M63.34,300.12H61.5a3.77,3.77,0,0,0,.06.81.49.49,0,0,0,.22.35,1.37,1.37,0,0,0,.58.09,4.18,4.18,0,0,0,.88-.08v.41a2.9,2.9,0,0,1-.44.07l-.54,0a1.61,1.61,0,0,1-.83-.17.79.79,0,0,1-.34-.53A5.44,5.44,0,0,1,61,300a6.38,6.38,0,0,1,.07-1.13.79.79,0,0,1,.32-.54,1.58,1.58,0,0,1,.83-.17,1.28,1.28,0,0,1,.76.17.77.77,0,0,1,.29.52,7.76,7.76,0,0,1,.06,1.15Zm-1.6-1.5a.45.45,0,0,0-.19.33,4.8,4.8,0,0,0,0,.8h1.36v-.09a4.23,4.23,0,0,0,0-.74.45.45,0,0,0-.19-.31.84.84,0,0,0-.4-.07A1.12,1.12,0,0,0,61.74,298.62Z"/><path class="f6dea3c2-76d5-459d-bff2-9b438bb104a9" d="M64.13,301.58a1.15,1.15,0,0,1-.22-.82,2.05,2.05,0,0,1,.08-.63.61.61,0,0,1,.28-.33,1.25,1.25,0,0,1,.54-.09l.92,0v-.25a2.31,2.31,0,0,0-.06-.63.38.38,0,0,0-.21-.26,1.66,1.66,0,0,0-.53-.06l-.41,0-.43.05v-.41a5,5,0,0,1,1-.09,1.74,1.74,0,0,1,.74.12.64.64,0,0,1,.33.4,3,3,0,0,1,.09.84v2.26h-.44l0-.49h0a.72.72,0,0,1-.34.44,1.35,1.35,0,0,1-.55.11A1,1,0,0,1,64.13,301.58Zm1.27-.27a.41.41,0,0,0,.23-.25,2.23,2.23,0,0,0,.1-.75v-.23h-.8a.92.92,0,0,0-.33,0,.28.28,0,0,0-.15.18,1.53,1.53,0,0,0,0,.43,1.25,1.25,0,0,0,0,.4.29.29,0,0,0,.17.19,1.41,1.41,0,0,0,.78,0Z"/><path class="f6dea3c2-76d5-459d-bff2-9b438bb104a9" d="M67.31,301.74V298.6h-.52v-.43h.52v-1h.49v1h.62v.43H67.8v3.14Z"/><path class="f6dea3c2-76d5-459d-bff2-9b438bb104a9" d="M70.62,301.65a.94.94,0,0,1-.3-.54,5.47,5.47,0,0,1-.09-1.15,5.55,5.55,0,0,1,.09-1.14.88.88,0,0,1,.29-.55,1.13,1.13,0,0,1,.63-.15,1,1,0,0,1,.54.11.62.62,0,0,1,.3.38h0v-2.07h.49v5.2h-.44l0-.49h0a.69.69,0,0,1-.32.44,1.27,1.27,0,0,1-.54.11A1.08,1.08,0,0,1,70.62,301.65Zm1.22-.4a.54.54,0,0,0,.2-.32,2.37,2.37,0,0,0,.06-.41c0-.15,0-.36,0-.62a3.36,3.36,0,0,0-.07-.84.56.56,0,0,0-.2-.38.69.69,0,0,0-.43-.11.88.88,0,0,0-.46.09.52.52,0,0,0-.18.37,6.31,6.31,0,0,0,0,.93,6.51,6.51,0,0,0,0,.93.52.52,0,0,0,.18.37.93.93,0,0,0,.47.09A.71.71,0,0,0,71.84,301.25Z"/><path class="f6dea3c2-76d5-459d-bff2-9b438bb104a9" d="M75.71,300.12H73.88a4.85,4.85,0,0,0,.05.81.5.5,0,0,0,.23.35,1.29,1.29,0,0,0,.57.09,4.27,4.27,0,0,0,.89-.08v.41a3.13,3.13,0,0,1-.44.07l-.54,0a1.58,1.58,0,0,1-.83-.17.76.76,0,0,1-.34-.53,5.29,5.29,0,0,1-.09-1.14,7.52,7.52,0,0,1,.07-1.13.84.84,0,0,1,.33-.54,1.54,1.54,0,0,1,.82-.17,1.24,1.24,0,0,1,.76.17.73.73,0,0,1,.29.52,7.76,7.76,0,0,1,.06,1.15Zm-1.59-1.5a.45.45,0,0,0-.19.33,4.8,4.8,0,0,0-.05.8h1.36v-.09a3.28,3.28,0,0,0-.06-.74.44.44,0,0,0-.18-.31.86.86,0,0,0-.41-.07A1.07,1.07,0,0,0,74.12,298.62Z"/><path class="f6dea3c2-76d5-459d-bff2-9b438bb104a9" d="M80.19,301.74l-.34-1.33H78.37L78,301.74h-.52l1.26-4.81h.69l1.26,4.81Zm-1.06-4.18h0l-.6,2.38h1.23Z"/><path class="f6dea3c2-76d5-459d-bff2-9b438bb104a9" d="M81.29,298.17h.44l0,.67h0a.83.83,0,0,1,.32-.57,1.07,1.07,0,0,1,.6-.15v.5a.9.9,0,0,0-.57.16.8.8,0,0,0-.28.45,3.59,3.59,0,0,0-.08.82v1.69h-.5Z"/><path class="f6dea3c2-76d5-459d-bff2-9b438bb104a9" d="M86.75,299.66a4.26,4.26,0,0,0,0-.73.47.47,0,0,0-.15-.29.73.73,0,0,0-.38-.07.58.58,0,0,0-.45.14.62.62,0,0,0-.18.4,6.77,6.77,0,0,0,0,.78v1.85H85v-2.08a5.53,5.53,0,0,0,0-.73.44.44,0,0,0-.15-.29.73.73,0,0,0-.38-.07.58.58,0,0,0-.45.15.65.65,0,0,0-.18.41,6.64,6.64,0,0,0,0,.76v1.85h-.49v-3.57h.43l0,.5h0a.86.86,0,0,1,.28-.41,1,1,0,0,1,.56-.14,1.05,1.05,0,0,1,.57.12.69.69,0,0,1,.26.43h0a.77.77,0,0,1,.29-.41,1.27,1.27,0,0,1,1.14,0,.71.71,0,0,1,.25.43,3.37,3.37,0,0,1,.07.8v2.26h-.5Z"/><path class="f6dea3c2-76d5-459d-bff2-9b438bb104a9" d="M88.1,297.12v-.58h.52v.58Zm0,4.62v-3.57h.5v3.57Z"/><path class="f6dea3c2-76d5-459d-bff2-9b438bb104a9" d="M91.3,299.66a4,4,0,0,0,0-.73.44.44,0,0,0-.17-.29.86.86,0,0,0-.41-.07.62.62,0,0,0-.47.15.68.68,0,0,0-.18.41,4.92,4.92,0,0,0,0,.76v1.85h-.5v-3.57h.44l0,.5h0a.72.72,0,0,1,.29-.41,1,1,0,0,1,.59-.14,1,1,0,0,1,.59.14.71.71,0,0,1,.27.42,4.17,4.17,0,0,1,.06.81v2.25H91.3Z"/><path class="f6dea3c2-76d5-459d-bff2-9b438bb104a9" d="M92.67,301.58a1.15,1.15,0,0,1-.22-.82,2.05,2.05,0,0,1,.08-.63.6.6,0,0,1,.27-.33,1.34,1.34,0,0,1,.55-.09l.92,0v-.25a2.31,2.31,0,0,0-.06-.63.37.37,0,0,0-.22-.26,1.55,1.55,0,0,0-.52-.06l-.41,0-.43.05v-.41a5,5,0,0,1,1-.09,1.69,1.69,0,0,1,.73.12.62.62,0,0,1,.34.4,3,3,0,0,1,.09.84v2.26h-.44l0-.49h0a.66.66,0,0,1-.34.44,1.31,1.31,0,0,1-.55.11A1,1,0,0,1,92.67,301.58Zm1.27-.27a.44.44,0,0,0,.23-.25,2.23,2.23,0,0,0,.1-.75v-.23h-.8a.92.92,0,0,0-.33,0,.28.28,0,0,0-.15.18,1.53,1.53,0,0,0,0,.43,1.25,1.25,0,0,0,0,.4.29.29,0,0,0,.17.19,1.41,1.41,0,0,0,.78,0Z"/><path class="f6dea3c2-76d5-459d-bff2-9b438bb104a9" d="M96.91,301.71v-.46a4,4,0,0,0,.54.06l.5,0a2.45,2.45,0,0,0,.44,0,.58.58,0,0,0,.27-.14.43.43,0,0,0,.13-.26,3,3,0,0,0,0-.47,3.22,3.22,0,0,0,0-.54.31.31,0,0,0-.13-.22.84.84,0,0,0-.36-.11l-.81-.13a.75.75,0,0,1-.44-.2.72.72,0,0,1-.19-.39,3.4,3.4,0,0,1,0-.63,1.38,1.38,0,0,1,.31-1,1.32,1.32,0,0,1,1-.31,4.36,4.36,0,0,1,1.06.11v.44a5,5,0,0,0-.94-.09,1.56,1.56,0,0,0-.48.06.51.51,0,0,0-.27.15.57.57,0,0,0-.12.26c0,.11,0,.24,0,.39s0,.37,0,.47a.31.31,0,0,0,.12.2.65.65,0,0,0,.28.09l.78.13a1.39,1.39,0,0,1,.46.14.66.66,0,0,1,.26.34,2.28,2.28,0,0,1,.09.8,2.4,2.4,0,0,1-.12.85.78.78,0,0,1-.38.45,1.68,1.68,0,0,1-.74.14A7.33,7.33,0,0,1,96.91,301.71Z"/><path class="f6dea3c2-76d5-459d-bff2-9b438bb104a9" d="M99.51,297.51v0l.54-.93h.55l.53.93v0h-.35l-.45-.68-.47.68Zm.56,4.23v-3.57h.5v3.57Z"/><path class="f6dea3c2-76d5-459d-bff2-9b438bb104a9" d="M101.45,298.17h.43l0,.67h0a.87.87,0,0,1,.32-.57,1.07,1.07,0,0,1,.6-.15v.5a.85.85,0,0,0-.56.16.81.81,0,0,0-.29.45,3.59,3.59,0,0,0-.08.82v1.69h-.49Z"/><path class="f6dea3c2-76d5-459d-bff2-9b438bb104a9" d="M104.26,301.69a.73.73,0,0,1-.32-.44h0l0,.49h-.43v-5.2h.5v2.07h0a.7.7,0,0,1,.3-.38,1.08,1.08,0,0,1,.54-.11,1.13,1.13,0,0,1,.63.15.94.94,0,0,1,.3.55,6.39,6.39,0,0,1,.08,1.14,5.42,5.42,0,0,1-.09,1.14.89.89,0,0,1-.3.55,1.13,1.13,0,0,1-.63.15A1.27,1.27,0,0,1,104.26,301.69Zm.83-.43a.56.56,0,0,0,.19-.37,6.91,6.91,0,0,0,0-.93,6.72,6.72,0,0,0,0-.93.56.56,0,0,0-.19-.37.9.9,0,0,0-.47-.09.73.73,0,0,0-.39.09.54.54,0,0,0-.21.31,2.23,2.23,0,0,0-.06.41,4.8,4.8,0,0,0,0,.58c0,.24,0,.43,0,.57a1.43,1.43,0,0,0,.07.39.46.46,0,0,0,.2.33.68.68,0,0,0,.4.1A.9.9,0,0,0,105.09,301.26Z"/><path class="f6dea3c2-76d5-459d-bff2-9b438bb104a9" d="M108.41,301.25h0a.88.88,0,0,1-.29.41,1.11,1.11,0,0,1-.6.14,1.07,1.07,0,0,1-.59-.14.68.68,0,0,1-.26-.42,3.41,3.41,0,0,1-.07-.81v-2.26h.5v2.09a4.26,4.26,0,0,0,0,.73.44.44,0,0,0,.17.29.91.91,0,0,0,.42.07.62.62,0,0,0,.46-.15.68.68,0,0,0,.18-.41,5,5,0,0,0,0-.76v-1.86h.5v3.57h-.44Z"/><path class="f6dea3c2-76d5-459d-bff2-9b438bb104a9" d="M114.24,299.09v.43h-.59v2.16l-.56.08a4,4,0,0,1-.57,0,2.4,2.4,0,0,1-1-.15.9.9,0,0,1-.44-.44,2.2,2.2,0,0,1-.11-.75,1.54,1.54,0,0,1,.16-.81.9.9,0,0,1,.5-.35v0a.82.82,0,0,1-.48-.36,1.56,1.56,0,0,1-.15-.77,1.79,1.79,0,0,1,.12-.7.92.92,0,0,1,.45-.42,2.2,2.2,0,0,1,.91-.15,4,4,0,0,1,.56,0,3.71,3.71,0,0,1,.55.09v.4l-.51-.07-.46,0a2.09,2.09,0,0,0-.72.09.52.52,0,0,0-.32.27,1.56,1.56,0,0,0-.07.55,1.34,1.34,0,0,0,.13.65.58.58,0,0,0,.55.23h.44v.43h-.44a.82.82,0,0,0-.46.11.47.47,0,0,0-.21.3,2.3,2.3,0,0,0,0,.53,1.27,1.27,0,0,0,.11.58.49.49,0,0,0,.32.26,1.89,1.89,0,0,0,.6.07,3.58,3.58,0,0,0,.61-.05v-2.23Z"/><path class="f6dea3c2-76d5-459d-bff2-9b438bb104a9" d="M115.59,297.51v0l.54-.93h.55l.53.93v0h-.35l-.46-.68-.46.68Zm.56,4.23v-3.57h.5v3.57Z"/><path class="f6dea3c2-76d5-459d-bff2-9b438bb104a9" d="M121,299.66a4.26,4.26,0,0,0,0-.73.43.43,0,0,0-.16-.29.69.69,0,0,0-.37-.07.62.62,0,0,0-.46.14.67.67,0,0,0-.17.4,5,5,0,0,0,0,.78v1.85h-.5v-2.08a4.18,4.18,0,0,0,0-.73.37.37,0,0,0-.15-.29.69.69,0,0,0-.37-.07.58.58,0,0,0-.45.15.65.65,0,0,0-.18.41,4.92,4.92,0,0,0,0,.76v1.85h-.5v-3.57H118l0,.5h0a.8.8,0,0,1,.28-.41.94.94,0,0,1,.56-.14,1.08,1.08,0,0,1,.57.12.68.68,0,0,1,.25.43h0a.76.76,0,0,1,.28-.41,1.06,1.06,0,0,1,.58-.14,1,1,0,0,1,.56.13.68.68,0,0,1,.26.43,4,4,0,0,1,.07.8v2.26H121Z"/><path class="f6dea3c2-76d5-459d-bff2-9b438bb104a9" d="M123.17,301.69a.69.69,0,0,1-.32-.44h0l0,.49h-.43v-5.2h.49v2.07h0a.62.62,0,0,1,.3-.38,1,1,0,0,1,.53-.11,1.08,1.08,0,0,1,.63.15.84.84,0,0,1,.3.55,7.26,7.26,0,0,1,0,2.28.94.94,0,0,1-.3.55,1.14,1.14,0,0,1-.64.15A1.22,1.22,0,0,1,123.17,301.69Zm.83-.43a.52.52,0,0,0,.18-.37,6.51,6.51,0,0,0,0-.93,6.31,6.31,0,0,0,0-.93.52.52,0,0,0-.18-.37.93.93,0,0,0-.47-.09.76.76,0,0,0-.4.09.53.53,0,0,0-.2.31,2.18,2.18,0,0,0-.07.41c0,.15,0,.34,0,.58s0,.43,0,.57a2,2,0,0,0,.06.39.54.54,0,0,0,.2.33.71.71,0,0,0,.41.1A.93.93,0,0,0,124,301.26Z"/><path class="f6dea3c2-76d5-459d-bff2-9b438bb104a9" d="M127.32,301.25h0a.76.76,0,0,1-.29.41,1.07,1.07,0,0,1-.59.14,1,1,0,0,1-.59-.14.74.74,0,0,1-.27-.42,4.17,4.17,0,0,1-.06-.81v-2.26H126v2.09a4,4,0,0,0,0,.73.44.44,0,0,0,.17.29.84.84,0,0,0,.41.07.65.65,0,0,0,.47-.15.74.74,0,0,0,.18-.41,5,5,0,0,0,0-.76v-1.86h.5v3.57h-.44Z"/><path class="f6dea3c2-76d5-459d-bff2-9b438bb104a9" d="M130.48,299.66a4.26,4.26,0,0,0,0-.73.44.44,0,0,0-.18-.29.84.84,0,0,0-.41-.07.65.65,0,0,0-.47.15.68.68,0,0,0-.18.41,6.64,6.64,0,0,0,0,.76v1.85h-.49v-3.57h.43l0,.5h0a.77.77,0,0,1,.29-.41,1.09,1.09,0,0,1,.59-.14,1,1,0,0,1,.6.14.65.65,0,0,1,.26.42,3.41,3.41,0,0,1,.07.81v2.25h-.5Z"/><path class="f6dea3c2-76d5-459d-bff2-9b438bb104a9" d="M131.85,301.58a1.21,1.21,0,0,1-.21-.82,1.78,1.78,0,0,1,.08-.63.56.56,0,0,1,.27-.33,1.32,1.32,0,0,1,.54-.09l.93,0v-.25a2.31,2.31,0,0,0-.06-.63.39.39,0,0,0-.22-.26,1.63,1.63,0,0,0-.52-.06l-.42,0-.43.05v-.41a5.06,5.06,0,0,1,1-.09,1.72,1.72,0,0,1,.73.12.64.64,0,0,1,.33.4,3,3,0,0,1,.09.84v2.26h-.44l0-.49h0a.66.66,0,0,1-.34.44,1.35,1.35,0,0,1-.55.11A1,1,0,0,1,131.85,301.58Zm1.77-4.49a.51.51,0,0,1-.22.33.92.92,0,0,1-.53.12.87.87,0,0,1-.51-.12.51.51,0,0,1-.22-.33,2.62,2.62,0,0,1,0-.55h.35a2.13,2.13,0,0,0,0,.4.31.31,0,0,0,.11.2.46.46,0,0,0,.29.07.49.49,0,0,0,.31-.07.31.31,0,0,0,.11-.2,2,2,0,0,0,0-.4h.35A2.51,2.51,0,0,1,133.62,297.09Zm-.5,4.22a.41.41,0,0,0,.23-.25,2.2,2.2,0,0,0,.11-.75v-.23h-.8a.92.92,0,0,0-.33,0,.26.26,0,0,0-.16.18,1.6,1.6,0,0,0,0,.43,1.32,1.32,0,0,0,0,.4.32.32,0,0,0,.17.19,1.2,1.2,0,0,0,.38.05A1.12,1.12,0,0,0,133.12,301.31Z"/><path class="f6dea3c2-76d5-459d-bff2-9b438bb104a9" d="M135,301.74V298.6h-.52v-.43H135v-1h.5v1h.61v.43h-.61v3.14Z"/><path class="f6dea3c2-76d5-459d-bff2-9b438bb104a9" d="M136.74,301.58a1.15,1.15,0,0,1-.22-.82,2.05,2.05,0,0,1,.08-.63.61.61,0,0,1,.28-.33,1.25,1.25,0,0,1,.54-.09l.92,0v-.25a2.31,2.31,0,0,0-.06-.63.38.38,0,0,0-.21-.26,1.66,1.66,0,0,0-.53-.06l-.41,0-.43.05v-.41a5,5,0,0,1,1-.09,1.77,1.77,0,0,1,.74.12.64.64,0,0,1,.33.4,3,3,0,0,1,.09.84v2.26h-.44l0-.49h0a.65.65,0,0,1-.33.44,1.35,1.35,0,0,1-.55.11A1,1,0,0,1,136.74,301.58Zm1.77-4.49a.54.54,0,0,1-.22.33,1.21,1.21,0,0,1-1,0,.53.53,0,0,1-.21-.33,2.51,2.51,0,0,1-.05-.55h.35a2,2,0,0,0,0,.4.31.31,0,0,0,.11.2.46.46,0,0,0,.29.07.53.53,0,0,0,.31-.07.31.31,0,0,0,.11-.2,3.59,3.59,0,0,0,0-.4h.35A2.62,2.62,0,0,1,138.51,297.09Zm-.5,4.22a.41.41,0,0,0,.23-.25,2.23,2.23,0,0,0,.1-.75v-.23h-.8a.92.92,0,0,0-.33,0,.28.28,0,0,0-.15.18,1.53,1.53,0,0,0-.05.43,1.25,1.25,0,0,0,.05.4.32.32,0,0,0,.17.19,1.41,1.41,0,0,0,.78,0Z"/><path class="f6dea3c2-76d5-459d-bff2-9b438bb104a9" d="M139.92,301.74V298.6h-.52v-.43h.52v-1h.49v1H141v.43h-.62v3.14Zm.2,1.47a.6.6,0,0,0,.06-.32v-.11H140v-.6h.56v.54a1.59,1.59,0,0,1,0,.5.36.36,0,0,1-.19.24,1.18,1.18,0,0,1-.44.06v-.24C140,303.28,140.08,303.26,140.12,303.21Z"/><path class="f6dea3c2-76d5-459d-bff2-9b438bb104a9" d="M141.6,297.12v-.58h.52v.58Zm0,4.62v-3.57h.5v3.57Z"/><path class="f6dea3c2-76d5-459d-bff2-9b438bb104a9" d="M143.2,301.74V298.6h-.52v-.43h.52v-1h.5v1h.61v.43h-.61v3.14Z"/><path class="f6dea3c2-76d5-459d-bff2-9b438bb104a9" d="M146.51,301.65a.94.94,0,0,1-.3-.54,5.61,5.61,0,0,1-.08-1.15,5.68,5.68,0,0,1,.08-1.14.89.89,0,0,1,.3-.55,1.07,1.07,0,0,1,.62-.15,1,1,0,0,1,.54.11.62.62,0,0,1,.3.38h0v-2.07h.5v5.2h-.44l0-.49h0a.66.66,0,0,1-.32.44,1.2,1.2,0,0,1-.54.11A1.13,1.13,0,0,1,146.51,301.65Zm1.22-.4a.46.46,0,0,0,.2-.32,2.33,2.33,0,0,0,.07-.41c0-.15,0-.36,0-.62a4.11,4.11,0,0,0-.06-.84.61.61,0,0,0-.21-.38.67.67,0,0,0-.43-.11.91.91,0,0,0-.46.09.52.52,0,0,0-.18.37,6.31,6.31,0,0,0,0,.93,6.51,6.51,0,0,0,0,.93.52.52,0,0,0,.19.37.86.86,0,0,0,.46.09A.69.69,0,0,0,147.73,301.25Z"/><path class="f6dea3c2-76d5-459d-bff2-9b438bb104a9" d="M151.61,300.12h-1.84a3.77,3.77,0,0,0,.06.81.49.49,0,0,0,.22.35,1.34,1.34,0,0,0,.58.09,4.18,4.18,0,0,0,.88-.08v.41a3.13,3.13,0,0,1-.44.07l-.54,0a1.61,1.61,0,0,1-.83-.17.79.79,0,0,1-.34-.53,5.44,5.44,0,0,1-.08-1.14,6.38,6.38,0,0,1,.07-1.13.79.79,0,0,1,.32-.54,1.57,1.57,0,0,1,.82-.17,1.29,1.29,0,0,1,.77.17.77.77,0,0,1,.29.52,7.76,7.76,0,0,1,.06,1.15Zm-1.6-1.5a.45.45,0,0,0-.19.33,4.8,4.8,0,0,0,0,.8h1.36v-.09a3.28,3.28,0,0,0-.06-.74.41.41,0,0,0-.18-.31.84.84,0,0,0-.4-.07A1.12,1.12,0,0,0,150,298.62Z"/><path class="f6dea3c2-76d5-459d-bff2-9b438bb104a9" d="M153.66,301.71v-.46a4.46,4.46,0,0,0,.54.06l.5,0a2.48,2.48,0,0,0,.45,0,.5.5,0,0,0,.26-.14.43.43,0,0,0,.13-.26,2.05,2.05,0,0,0,0-.47,3.22,3.22,0,0,0,0-.54.31.31,0,0,0-.13-.22,1,1,0,0,0-.36-.11l-.81-.13a.7.7,0,0,1-.64-.59,3.55,3.55,0,0,1,0-.63,1.42,1.42,0,0,1,.3-1,1.35,1.35,0,0,1,1-.31,4.45,4.45,0,0,1,1.07.11v.44a5.09,5.09,0,0,0-1-.09,1.56,1.56,0,0,0-.48.06.51.51,0,0,0-.26.15.57.57,0,0,0-.12.26,2.21,2.21,0,0,0,0,.39,2.59,2.59,0,0,0,0,.47.35.35,0,0,0,.11.2.7.7,0,0,0,.28.09l.79.13a1.48,1.48,0,0,1,.46.14.66.66,0,0,1,.26.34,2.66,2.66,0,0,1,.08.8,2.69,2.69,0,0,1-.11.85.79.79,0,0,1-.39.45,1.68,1.68,0,0,1-.74.14A7.51,7.51,0,0,1,153.66,301.71Z"/><path class="f6dea3c2-76d5-459d-bff2-9b438bb104a9" d="M156.82,297.12v-.58h.52v.58Zm0,4.62v-3.57h.5v3.57Z"/><path class="f6dea3c2-76d5-459d-bff2-9b438bb104a9" d="M158.2,301.74v-5.2h.5v5.2Z"/><path class="f6dea3c2-76d5-459d-bff2-9b438bb104a9" d="M160.24,301.74l-1-3.57h.51l.76,2.94h0l.75-2.94h.5l-1,3.57Z"/><path class="f6dea3c2-76d5-459d-bff2-9b438bb104a9" d="M162.39,297.12v-.58h.53v.58Zm0,4.62v-3.57h.49v3.57Z"/><path class="f6dea3c2-76d5-459d-bff2-9b438bb104a9" d="M163.79,301.58a1.21,1.21,0,0,1-.21-.82,1.78,1.78,0,0,1,.08-.63.56.56,0,0,1,.27-.33,1.32,1.32,0,0,1,.54-.09l.93,0v-.25a2.31,2.31,0,0,0-.06-.63.37.37,0,0,0-.22-.26,1.59,1.59,0,0,0-.52-.06l-.42,0-.43.05v-.41a5.13,5.13,0,0,1,1-.09,1.69,1.69,0,0,1,.73.12.64.64,0,0,1,.33.4,3,3,0,0,1,.09.84v2.26h-.44l0-.49h0a.66.66,0,0,1-.34.44,1.35,1.35,0,0,1-.55.11A1,1,0,0,1,163.79,301.58Zm1.27-.27a.41.41,0,0,0,.23-.25,2.2,2.2,0,0,0,.11-.75v-.23h-.8a.92.92,0,0,0-.33,0,.26.26,0,0,0-.16.18,1.6,1.6,0,0,0,0,.43,1.32,1.32,0,0,0,0,.4.32.32,0,0,0,.17.19,1.2,1.2,0,0,0,.38.05A1.09,1.09,0,0,0,165.06,301.31Z"/><path class="f6dea3c2-76d5-459d-bff2-9b438bb104a9" d="M168.15,296.93h1.46a1.06,1.06,0,0,1,.86.31,1.35,1.35,0,0,1,.25.89,1.4,1.4,0,0,1-.17.77.8.8,0,0,1-.54.37v0a.83.83,0,0,1,.6.39,1.77,1.77,0,0,1,.16.8,1.48,1.48,0,0,1-.26.92,1.06,1.06,0,0,1-.93.34h-1.43Zm1.87,1.94a1,1,0,0,0,.18-.64,1.54,1.54,0,0,0-.06-.49.54.54,0,0,0-.22-.27,1.12,1.12,0,0,0-.46-.08h-.79v1.68h.79A.73.73,0,0,0,170,298.87Zm.06,2.21a1.12,1.12,0,0,0,.15-.67,1.08,1.08,0,0,0-.16-.68.75.75,0,0,0-.58-.2h-.82v1.75h.82A.71.71,0,0,0,170.08,301.08Z"/><path class="f6dea3c2-76d5-459d-bff2-9b438bb104a9" d="M171.83,301.65a.73.73,0,0,1-.33-.51,7.8,7.8,0,0,1-.07-1.18,7.7,7.7,0,0,1,.07-1.18.73.73,0,0,1,.33-.52,1.75,1.75,0,0,1,.81-.14,1.83,1.83,0,0,1,.82.14.75.75,0,0,1,.32.52,7.7,7.7,0,0,1,.07,1.18,7.8,7.8,0,0,1-.07,1.18.75.75,0,0,1-.32.51,1.68,1.68,0,0,1-.82.15A1.61,1.61,0,0,1,171.83,301.65Zm1.31-.38a.47.47,0,0,0,.17-.36,6.88,6.88,0,0,0,0-1,6.78,6.78,0,0,0,0-.95.52.52,0,0,0-.17-.37,1,1,0,0,0-.5-.1.92.92,0,0,0-.49.1.49.49,0,0,0-.18.37,11.3,11.3,0,0,0,0,1.9.45.45,0,0,0,.18.36.83.83,0,0,0,.49.1A.89.89,0,0,0,173.14,301.27Z"/><path class="f6dea3c2-76d5-459d-bff2-9b438bb104a9" d="M174.63,303.09v-.41l.85,0a1.25,1.25,0,0,0,.6-.11.51.51,0,0,0,.25-.36,4.29,4.29,0,0,0,.06-.85v-.1h0a.67.67,0,0,1-.29.38,1.2,1.2,0,0,1-.54.11,1,1,0,0,1-.63-.16.79.79,0,0,1-.3-.54,5.25,5.25,0,0,1-.09-1.13,5.42,5.42,0,0,1,.09-1.14.88.88,0,0,1,.3-.54,1.12,1.12,0,0,1,.64-.15,1.22,1.22,0,0,1,.53.11.72.72,0,0,1,.32.44h0l0-.5h.44v3.06a6.35,6.35,0,0,1-.08,1.15.86.86,0,0,1-.37.57,1.5,1.5,0,0,1-.86.19C175.25,303.14,174.93,303.12,174.63,303.09Zm1.48-1.86a.6.6,0,0,0,.2-.33,4.26,4.26,0,0,0,.08-.95c0-.22,0-.4,0-.54a1.68,1.68,0,0,0-.06-.36.55.55,0,0,0-.62-.48.86.86,0,0,0-.46.09.48.48,0,0,0-.19.36,8.67,8.67,0,0,0,0,1.86.51.51,0,0,0,.19.37.86.86,0,0,0,.46.09A.71.71,0,0,0,176.11,301.23Z"/><path class="f6dea3c2-76d5-459d-bff2-9b438bb104a9" d="M178,301.65a.94.94,0,0,1-.3-.54,5.47,5.47,0,0,1-.09-1.15,5.55,5.55,0,0,1,.09-1.14.88.88,0,0,1,.29-.55,1.13,1.13,0,0,1,.63-.15,1,1,0,0,1,.54.11.62.62,0,0,1,.3.38h0v-2.07H180v5.2h-.44l0-.49h0a.69.69,0,0,1-.32.44,1.27,1.27,0,0,1-.54.11A1.08,1.08,0,0,1,178,301.65Zm1.22-.4a.54.54,0,0,0,.2-.32,2.37,2.37,0,0,0,.06-.41c0-.15,0-.36,0-.62a3.36,3.36,0,0,0-.07-.84.56.56,0,0,0-.2-.38.69.69,0,0,0-.43-.11.91.91,0,0,0-.46.09.52.52,0,0,0-.18.37,6.31,6.31,0,0,0,0,.93,6.51,6.51,0,0,0,0,.93.49.49,0,0,0,.19.37.86.86,0,0,0,.46.09A.71.71,0,0,0,179.26,301.25Z"/><path class="f6dea3c2-76d5-459d-bff2-9b438bb104a9" d="M180.93,301.58a1.15,1.15,0,0,1-.22-.82,2.05,2.05,0,0,1,.08-.63.61.61,0,0,1,.28-.33,1.25,1.25,0,0,1,.54-.09l.92,0v-.25a2.31,2.31,0,0,0-.06-.63.38.38,0,0,0-.21-.26,1.66,1.66,0,0,0-.53-.06l-.41,0-.43.05v-.41a5,5,0,0,1,1-.09,1.77,1.77,0,0,1,.74.12.64.64,0,0,1,.33.4,3,3,0,0,1,.09.84v2.26h-.44l0-.49h0a.69.69,0,0,1-.34.44,1.35,1.35,0,0,1-.55.11A1,1,0,0,1,180.93,301.58Zm1.27-.27a.41.41,0,0,0,.23-.25,2.23,2.23,0,0,0,.1-.75v-.23h-.8a.92.92,0,0,0-.33,0,.28.28,0,0,0-.15.18,1.53,1.53,0,0,0-.05.43,1.25,1.25,0,0,0,.05.4.32.32,0,0,0,.17.19,1.41,1.41,0,0,0,.78,0Z"/><path class="f6dea3c2-76d5-459d-bff2-9b438bb104a9" d="M185.7,299.66a4.26,4.26,0,0,0,0-.73.44.44,0,0,0-.17-.29.88.88,0,0,0-.42-.07.65.65,0,0,0-.47.15.82.82,0,0,0-.18.41,7.16,7.16,0,0,0,0,.76v1.85h-.5v-3.57h.43l0,.5h0a.79.79,0,0,1,.3-.41,1,1,0,0,1,.59-.14,1,1,0,0,1,.59.14.65.65,0,0,1,.26.42,3.41,3.41,0,0,1,.07.81v2.25h-.5Z"/><path class="a43eb225-cec6-4615-891a-0aab44da4fd7" d="M96.77,50.6A13.93,13.93,0,1,1,82.84,36.52,14,14,0,0,1,96.77,50.6"/><polygon class="f6dea3c2-76d5-459d-bff2-9b438bb104a9" points="81.86 49.77 83.54 51.88 84.66 51.03 82.93 49 81.86 49.77"/><polygon class="e2fefdb5-1d7e-4505-a71a-d1d5001c7c67" points="81.86 49.77 83.54 51.88 84.66 51.03 82.93 49 81.86 49.77"/><path class="f6dea3c2-76d5-459d-bff2-9b438bb104a9" d="M84.43,45.49A4.94,4.94,0,0,1,82,49.77a4.84,4.84,0,0,1-2.42.65,4.94,4.94,0,1,1,4.88-4.93"/><path class="e2fefdb5-1d7e-4505-a71a-d1d5001c7c67" d="M84.43,45.49A4.94,4.94,0,0,1,82,49.77a4.84,4.84,0,0,1-2.42.65,4.94,4.94,0,1,1,4.88-4.93Z"/><path class="a43eb225-cec6-4615-891a-0aab44da4fd7" d="M83.75,45.49a4.2,4.2,0,1,1-4.2-4.25,4.22,4.22,0,0,1,4.2,4.25"/><path class="f6dea3c2-76d5-459d-bff2-9b438bb104a9" d="M83.31,52l1.57-1.16L90.48,58a1.1,1.1,0,0,1-1.37,1.14Z"/><path class="a279181d-19bb-4be4-bd0f-7060f3034f63" d="M83.31,52l1.57-1.16L90.48,58a1.1,1.1,0,0,1-1.37,1.14Z"/><path class="f6dea3c2-76d5-459d-bff2-9b438bb104a9" d="M43.1,50.15s-.73,1-.38,1.34c0,0,.13.08.29-.13a8.33,8.33,0,0,0,.22-1.16s0-.2-.13-.05"/><path class="fa313fd5-1949-489f-bc11-eaebd73c2340" d="M43.1,50.15s-.73,1-.38,1.34c0,0,.13.08.29-.13a8.33,8.33,0,0,0,.22-1.16S43.27,50,43.1,50.15Z"/><path class="f6dea3c2-76d5-459d-bff2-9b438bb104a9" d="M42.62,52.58s-.37.68-.22.62.42-.77.22-.62"/><path class="e2fefdb5-1d7e-4505-a71a-d1d5001c7c67" d="M42.62,52.58s-.37.68-.22.62S42.82,52.43,42.62,52.58Z"/><path class="f6dea3c2-76d5-459d-bff2-9b438bb104a9" d="M42.09,58.12c-.55-.34-.34-.61-.34-.61.12-.22.39.52.39.52s.08.17,0,.09"/><path class="e2fefdb5-1d7e-4505-a71a-d1d5001c7c67" d="M42.09,58.12c-.55-.34-.34-.61-.34-.61.12-.22.39.52.39.52S42.22,58.2,42.09,58.12Z"/><path class="b211a840-9704-449e-8df3-2d13a18a7090" d="M64.24,50.38A13.94,13.94,0,1,1,50.3,36.3,14,14,0,0,1,64.24,50.38"/><path class="f6dea3c2-76d5-459d-bff2-9b438bb104a9" d="M45.92,53.3l-.19-.79s-.21-.33.38-1.58a6.28,6.28,0,0,0,0-2.84s-.94-4.05,1.45-6.16a6.21,6.21,0,0,1,6.18-2s3,.6,4.21,4.45a6.37,6.37,0,0,1-1.18,5.81,13.34,13.34,0,0,1-1.9,1.69,11.07,11.07,0,0,0-1.53,1.43,8,8,0,0,0-1,1.68,2.39,2.39,0,0,1-1.18.77,13.17,13.17,0,0,1-5.26-2.45"/><path class="e2fefdb5-1d7e-4505-a71a-d1d5001c7c67" d="M45.92,53.3l-.19-.79s-.21-.33.38-1.58a6.28,6.28,0,0,0,0-2.84s-.94-4.05,1.45-6.16a6.21,6.21,0,0,1,6.18-2s3,.6,4.21,4.45a6.37,6.37,0,0,1-1.18,5.81,13.34,13.34,0,0,1-1.9,1.69,11.07,11.07,0,0,0-1.53,1.43,8,8,0,0,0-1,1.68,2.39,2.39,0,0,1-1.18.77A13.17,13.17,0,0,1,45.92,53.3Z"/><path class="f6dea3c2-76d5-459d-bff2-9b438bb104a9" d="M45.92,53.3l-.35.82s-.11.18.13.37l-.2.38s-.56-.19-.23.32l-.17.41s-.52-.06-.15.35l-.19.38s-.46-.08-.16.34l-.17.4s-.5-.37.48,1.63L44.8,59l.57.68a1,1,0,0,0,1.28.68l.93,0,.17-.14s1.52-.42,1.52-.69c0,0,.74.11.36-.43l.11-.36s.58.07.25-.4l.06-.36s.56.09.27-.4l.12-.38s.6,0,.23-.43a1.76,1.76,0,0,0,.51-1,13.88,13.88,0,0,1-5.26-2.45"/><path class="e2fefdb5-1d7e-4505-a71a-d1d5001c7c67" d="M45.92,53.3l-.35.82s-.11.18.13.37l-.2.38s-.56-.19-.23.32l-.17.41s-.52-.06-.15.35l-.19.38s-.46-.08-.16.34l-.17.4s-.5-.37.48,1.63L44.8,59l.57.68a1,1,0,0,0,1.28.68l.93,0,.17-.14s1.52-.42,1.52-.69c0,0,.74.11.36-.43l.11-.36s.58.07.25-.4l.06-.36s.56.09.27-.4l.12-.38s.6,0,.23-.43a1.76,1.76,0,0,0,.51-1A13.88,13.88,0,0,1,45.92,53.3Z"/><path class="f6dea3c2-76d5-459d-bff2-9b438bb104a9" d="M50.61,56.75c0,.06-.48,0-2.35-.47l2.16.84s.6.09.19-.37"/><path class="b211a840-9704-449e-8df3-2d13a18a7090" d="M50.61,56.75c0,.06-.48,0-2.35-.47l2.16.84S51,57.21,50.61,56.75Z"/><path class="f6dea3c2-76d5-459d-bff2-9b438bb104a9" d="M45.52,54.93a9.17,9.17,0,0,0,2.07,1.12l-2.27-.88s-.35-.44.2-.24"/><path class="b211a840-9704-449e-8df3-2d13a18a7090" d="M45.52,54.93a9.17,9.17,0,0,0,2.07,1.12l-2.27-.88S45,54.73,45.52,54.93Z"/><path class="f6dea3c2-76d5-459d-bff2-9b438bb104a9" d="M45.12,55.64a10.15,10.15,0,0,0,2.16,1.18L45,55.93s-.38-.33.11-.29"/><path class="b211a840-9704-449e-8df3-2d13a18a7090" d="M45.12,55.64a10.15,10.15,0,0,0,2.16,1.18L45,55.93S44.63,55.6,45.12,55.64Z"/><path class="f6dea3c2-76d5-459d-bff2-9b438bb104a9" d="M44.79,56.39A11.7,11.7,0,0,0,47,57.55l-2.3-.89s-.31-.38.14-.27"/><path class="b211a840-9704-449e-8df3-2d13a18a7090" d="M44.79,56.39A11.7,11.7,0,0,0,47,57.55l-2.3-.89S44.34,56.28,44.79,56.39Z"/><path class="f6dea3c2-76d5-459d-bff2-9b438bb104a9" d="M44.45,57.14a25.27,25.27,0,0,0,2.28,1.12l-2.34-.91s-.16-.4.06-.21"/><path class="b211a840-9704-449e-8df3-2d13a18a7090" d="M44.45,57.14a25.27,25.27,0,0,0,2.28,1.12l-2.34-.91S44.23,57,44.45,57.14Z"/><path class="ee103f68-c52e-49df-8bd6-4e018fab8071" d="M50.26,57.56c0,.06-.51,0-2.38-.51l2.15.84s.54.13.23-.33"/><path class="b211a840-9704-449e-8df3-2d13a18a7090" d="M50.26,57.56c0,.06-.51,0-2.38-.51l2.15.84S50.57,58,50.26,57.56Z"/><path class="f6dea3c2-76d5-459d-bff2-9b438bb104a9" d="M50,58.33a7.61,7.61,0,0,1-2.41-.51l2.17.84s.56.1.24-.33"/><path class="b211a840-9704-449e-8df3-2d13a18a7090" d="M50,58.33a7.61,7.61,0,0,1-2.41-.51l2.17.84S50.27,58.76,50,58.33Z"/><path class="f6dea3c2-76d5-459d-bff2-9b438bb104a9" d="M49.59,59.09c0,.06-.5,0-2.37-.49l2,.85s.75.13.37-.36"/><path class="b211a840-9704-449e-8df3-2d13a18a7090" d="M49.59,59.09c0,.06-.5,0-2.37-.49l2,.85S50,59.58,49.59,59.09Z"/><path class="f6dea3c2-76d5-459d-bff2-9b438bb104a9" d="M47.74,60.15l-1.89-.65s.64.4.63.5-1-.09-1.07-.36a.9.9,0,0,0,1.23.66l.92,0Z"/><path class="e2fefdb5-1d7e-4505-a71a-d1d5001c7c67" d="M47.74,60.15l-1.89-.65s.64.4.63.5-1-.09-1.07-.36a.9.9,0,0,0,1.23.66l.92,0Z"/><path class="f6dea3c2-76d5-459d-bff2-9b438bb104a9" d="M46.63,54.16s2,1.31,1.82.93c0,0-2.41-1.49-1.82-.93"/><path class="e2fefdb5-1d7e-4505-a71a-d1d5001c7c67" d="M46.63,54.16s2,1.31,1.82.93C48.45,55.09,46,53.6,46.63,54.16Z"/><path class="a9371afd-9960-4baf-b5b8-68d3d9911dab" d="M89.65,88.13h3.6a5.66,5.66,0,0,1,2.94.57,2.59,2.59,0,0,1,1.09,1.84,29.76,29.76,0,0,1,.21,4.26,29.5,29.5,0,0,1-.21,4.25,2.57,2.57,0,0,1-1.09,1.84,5.66,5.66,0,0,1-2.94.57h-3.6Zm3.56,11a2.3,2.3,0,0,0,1.15-.2c.21-.14.33-.48.39-1s.09-1.58.09-3.1a29.86,29.86,0,0,0-.1-3.09,1.5,1.5,0,0,0-.38-1,2.19,2.19,0,0,0-1.15-.2H92.3v8.64Z"/><path class="a9371afd-9960-4baf-b5b8-68d3d9911dab" d="M100.07,101.19a2,2,0,0,1-.95-1.43,25,25,0,0,1,0-6.47,2.07,2.07,0,0,1,.95-1.44,5.09,5.09,0,0,1,2.4-.42,5.17,5.17,0,0,1,2.41.42,2.1,2.1,0,0,1,1,1.44,25,25,0,0,1,0,6.47,2.06,2.06,0,0,1-1,1.43,5,5,0,0,1-2.41.43A5,5,0,0,1,100.07,101.19Zm3.17-1.84a1.12,1.12,0,0,0,.25-.73c0-.36.05-1.06.05-2.1s0-1.73-.05-2.1a1.12,1.12,0,0,0-.25-.73,1.28,1.28,0,0,0-.77-.17,1.25,1.25,0,0,0-.76.17,1.07,1.07,0,0,0-.25.73c0,.37,0,1.07,0,2.1s0,1.74,0,2.1a1.07,1.07,0,0,0,.25.73,1.17,1.17,0,0,0,.76.18A1.2,1.2,0,0,0,103.24,99.35Z"/><path class="a9371afd-9960-4baf-b5b8-68d3d9911dab" d="M110.63,101.62a3.44,3.44,0,0,1-2.13-.54,2.65,2.65,0,0,1-.92-1.59,15.09,15.09,0,0,1-.22-3,14.27,14.27,0,0,1,.24-3,2.6,2.6,0,0,1,.94-1.59,3.4,3.4,0,0,1,2.07-.52,6.9,6.9,0,0,1,2.13.27v1.93a12.83,12.83,0,0,0-1.41-.11,1.85,1.85,0,0,0-1,.19,1.18,1.18,0,0,0-.39.8,15.42,15.42,0,0,0-.09,2,13.71,13.71,0,0,0,.1,2,1.11,1.11,0,0,0,.4.78,2,2,0,0,0,1,.19,13,13,0,0,0,1.45-.12v1.92A7.8,7.8,0,0,1,110.63,101.62Z"/><path class="a9371afd-9960-4baf-b5b8-68d3d9911dab" d="M114.82,101.46V93.67h-1.23V91.58h1.23V88.71h2.5v2.87h1.56v2.09h-1.56v7.79Z"/><path class="a9371afd-9960-4baf-b5b8-68d3d9911dab" d="M121,101.19a2,2,0,0,1-1-1.43,16.58,16.58,0,0,1-.22-3.24,16.53,16.53,0,0,1,.22-3.23,2.07,2.07,0,0,1,1-1.44,7.07,7.07,0,0,1,4.8,0,2.07,2.07,0,0,1,1,1.44,25,25,0,0,1,0,6.47,2,2,0,0,1-1,1.43,6.91,6.91,0,0,1-4.8,0Zm3.16-1.84a1.12,1.12,0,0,0,.26-.73c0-.36,0-1.06,0-2.1s0-1.73,0-2.1a1.12,1.12,0,0,0-.26-.73,1.25,1.25,0,0,0-.76-.17,1.28,1.28,0,0,0-.77.17,1.12,1.12,0,0,0-.25.73c0,.37,0,1.07,0,2.1s0,1.74,0,2.1a1.12,1.12,0,0,0,.25.73,1.2,1.2,0,0,0,.77.18A1.17,1.17,0,0,0,124.14,99.35Z"/><path class="a9371afd-9960-4baf-b5b8-68d3d9911dab" d="M128.49,91.58h2.37l.08,1.63h.15a2.06,2.06,0,0,1,2.29-1.78V94a3.32,3.32,0,0,0-1.39.25,1.55,1.55,0,0,0-.75.9A5,5,0,0,0,131,97v4.49h-2.5Z"/><path class="b0b4bb68-a4ae-431e-a99c-7e7694b5782c" d="M63.19,127.66v-6.88h3.25v.66h-2.5v2.41h2.17v.66H63.94V127h2.5v.66Z"/><path class="b0b4bb68-a4ae-431e-a99c-7e7694b5782c" d="M68,127.7c-.26,0-.47,0-.64-.08V127a8.2,8.2,0,0,0,1.32.11,1.32,1.32,0,0,0,.57-.1.49.49,0,0,0,.25-.28,1.63,1.63,0,0,0,.06-.49,2.25,2.25,0,0,0,0-.53.32.32,0,0,0-.13-.21,1.11,1.11,0,0,0-.33-.08l-1-.15a.85.85,0,0,1-.65-.37,2.05,2.05,0,0,1-.17-1,2,2,0,0,1,.19-.93,1,1,0,0,1,.53-.44,2.58,2.58,0,0,1,.86-.12,5.07,5.07,0,0,1,.66,0,2.86,2.86,0,0,1,.56.1v.58a5.07,5.07,0,0,0-.56-.09q-.33,0-.66,0a1,1,0,0,0-.68.17.82.82,0,0,0-.21.67,2.51,2.51,0,0,0,0,.48.37.37,0,0,0,.14.22.82.82,0,0,0,.31.09l1,.13a1.1,1.1,0,0,1,.51.16.77.77,0,0,1,.27.42,2.93,2.93,0,0,1,.09.83,1.5,1.5,0,0,1-.36,1.16,1.7,1.7,0,0,1-1.17.33A6.41,6.41,0,0,1,68,127.7Z"/><path class="b0b4bb68-a4ae-431e-a99c-7e7694b5782c" d="M71.53,127.66v-4.49h-.74v-.61h.74v-1.48h.71v1.48h.88v.61h-.88v4.49Z"/><path class="b0b4bb68-a4ae-431e-a99c-7e7694b5782c" d="M77.12,125.34H74.5a6.1,6.1,0,0,0,.08,1.16.68.68,0,0,0,.32.49,1.8,1.8,0,0,0,.82.14A7.29,7.29,0,0,0,77,127v.58a4.64,4.64,0,0,1-.63.1c-.26,0-.52,0-.77,0a2.24,2.24,0,0,1-1.18-.24,1.16,1.16,0,0,1-.49-.76,8.07,8.07,0,0,1-.12-1.62,10.24,10.24,0,0,1,.1-1.62,1.15,1.15,0,0,1,.47-.77,2.07,2.07,0,0,1,1.17-.25,1.89,1.89,0,0,1,1.09.24,1.12,1.12,0,0,1,.42.75,10.79,10.79,0,0,1,.08,1.64Zm-2.28-2.14a.61.61,0,0,0-.27.46,7.24,7.24,0,0,0-.07,1.15h1.94v-.12a4.71,4.71,0,0,0-.08-1.07.65.65,0,0,0-.26-.44,1.23,1.23,0,0,0-.58-.1A1.45,1.45,0,0,0,74.84,123.2Z"/><path class="b0b4bb68-a4ae-431e-a99c-7e7694b5782c" d="M80.66,127.7c-.26,0-.47,0-.64-.08V127a8.2,8.2,0,0,0,1.32.11,1.32,1.32,0,0,0,.57-.1.49.49,0,0,0,.25-.28,1.63,1.63,0,0,0,.06-.49,2.25,2.25,0,0,0,0-.53.32.32,0,0,0-.13-.21,1.11,1.11,0,0,0-.33-.08l-1-.15a.85.85,0,0,1-.65-.37,2.05,2.05,0,0,1-.17-1,2,2,0,0,1,.19-.93,1,1,0,0,1,.53-.44,2.58,2.58,0,0,1,.86-.12,5.07,5.07,0,0,1,.66,0,2.86,2.86,0,0,1,.56.1v.58a5.07,5.07,0,0,0-.56-.09q-.33,0-.66,0a1,1,0,0,0-.68.17.82.82,0,0,0-.21.67,2.51,2.51,0,0,0,0,.48.37.37,0,0,0,.14.22.82.82,0,0,0,.31.09l1,.13a1.1,1.1,0,0,1,.51.16.77.77,0,0,1,.27.42,2.93,2.93,0,0,1,.09.83,1.5,1.5,0,0,1-.36,1.16,1.7,1.7,0,0,1-1.17.33A6.41,6.41,0,0,1,80.66,127.7Z"/><path class="b0b4bb68-a4ae-431e-a99c-7e7694b5782c" d="M83.92,122.56h.62l0,.71h.06a1,1,0,0,1,.46-.63,1.61,1.61,0,0,1,.76-.16,1.49,1.49,0,0,1,.9.22,1.18,1.18,0,0,1,.44.77,11.13,11.13,0,0,1,0,3.26,1.23,1.23,0,0,1-.43.78,1.49,1.49,0,0,1-.9.23,1.68,1.68,0,0,1-.76-.16,1,1,0,0,1-.43-.54h-.05v2.55h-.71ZM86.28,127a.76.76,0,0,0,.26-.53,12.67,12.67,0,0,0,0-2.66.72.72,0,0,0-.26-.53,1.23,1.23,0,0,0-.67-.13,1,1,0,0,0-.59.15.82.82,0,0,0-.3.5,2.84,2.84,0,0,0-.07.55c0,.2,0,.47,0,.79a6.56,6.56,0,0,0,.08,1.25,1,1,0,0,0,.3.57,1,1,0,0,0,.6.17A1.33,1.33,0,0,0,86.28,127Z"/><path class="b0b4bb68-a4ae-431e-a99c-7e7694b5782c" d="M91.59,125.34H89a6.1,6.1,0,0,0,.08,1.16.68.68,0,0,0,.32.49,1.8,1.8,0,0,0,.82.14,7.29,7.29,0,0,0,1.26-.11v.58a4.64,4.64,0,0,1-.63.1c-.26,0-.52,0-.77,0a2.24,2.24,0,0,1-1.18-.24,1.16,1.16,0,0,1-.49-.76,8.07,8.07,0,0,1-.12-1.62,10.24,10.24,0,0,1,.1-1.62,1.15,1.15,0,0,1,.47-.77,2.07,2.07,0,0,1,1.17-.25,1.89,1.89,0,0,1,1.09.24,1.12,1.12,0,0,1,.42.75,10.79,10.79,0,0,1,.08,1.64Zm-2.28-2.14a.61.61,0,0,0-.27.46,7.24,7.24,0,0,0-.07,1.15h1.94v-.12a4.71,4.71,0,0,0-.08-1.07.65.65,0,0,0-.26-.44,1.26,1.26,0,0,0-.58-.1A1.45,1.45,0,0,0,89.31,123.2Z"/><path class="b0b4bb68-a4ae-431e-a99c-7e7694b5782c" d="M94.75,127.7a3.86,3.86,0,0,1-.58,0,1.83,1.83,0,0,1-1.08-.26,1.27,1.27,0,0,1-.45-.79,10,10,0,0,1-.1-1.58,7.91,7.91,0,0,1,.13-1.6,1.32,1.32,0,0,1,.46-.79,1.79,1.79,0,0,1,1-.24l.58,0a3,3,0,0,1,.48.1v.58a3.71,3.71,0,0,0-.9-.1,1.22,1.22,0,0,0-.69.15.88.88,0,0,0-.29.56,7.79,7.79,0,0,0-.08,1.3,8.16,8.16,0,0,0,.08,1.32.85.85,0,0,0,.29.56,1.28,1.28,0,0,0,.7.15,3.68,3.68,0,0,0,.92-.11v.59A2.7,2.7,0,0,1,94.75,127.7Z"/><path class="b0b4bb68-a4ae-431e-a99c-7e7694b5782c" d="M96.19,121.06v-.83h.75v.83Zm0,6.6v-5.1h.71v5.1Z"/><path class="b0b4bb68-a4ae-431e-a99c-7e7694b5782c" d="M98.19,127.42a1.71,1.71,0,0,1-.31-1.16,2.74,2.74,0,0,1,.12-.91.75.75,0,0,1,.39-.46,1.63,1.63,0,0,1,.77-.14c.2,0,.64,0,1.32,0v-.36a3.86,3.86,0,0,0-.08-.91.54.54,0,0,0-.31-.36,2.59,2.59,0,0,0-.75-.08l-.59,0-.62.08v-.58a6.36,6.36,0,0,1,1.41-.14,2.38,2.38,0,0,1,1,.17.87.87,0,0,1,.47.58,4.06,4.06,0,0,1,.13,1.2v3.23h-.63l0-.7h0a1,1,0,0,1-.48.62,1.77,1.77,0,0,1-.79.16A1.39,1.39,0,0,1,98.19,127.42ZM100,127a.57.57,0,0,0,.33-.36,3.16,3.16,0,0,0,.15-1.07v-.33H99.34a1.37,1.37,0,0,0-.47.06.41.41,0,0,0-.22.26,2.15,2.15,0,0,0-.07.61,2,2,0,0,0,.07.58.41.41,0,0,0,.24.26,1.46,1.46,0,0,0,.54.08A1.48,1.48,0,0,0,100,127Z"/><path class="b0b4bb68-a4ae-431e-a99c-7e7694b5782c" d="M102.42,127.66v-7.43h.71v7.43Z"/><path class="b0b4bb68-a4ae-431e-a99c-7e7694b5782c" d="M104.36,121.06v-.83h.75v.83Zm0,6.6v-5.1h.71v5.1Z"/><path class="b0b4bb68-a4ae-431e-a99c-7e7694b5782c" d="M106.05,127.66v-.56l2.18-3.93h-2.1v-.61h3v.55l-2.19,3.94h2.2v.61Z"/><path class="b0b4bb68-a4ae-431e-a99c-7e7694b5782c" d="M110.09,127.42a1.71,1.71,0,0,1-.31-1.16,2.74,2.74,0,0,1,.12-.91.82.82,0,0,1,.39-.46,1.63,1.63,0,0,1,.77-.14c.2,0,.64,0,1.32,0v-.36a3.38,3.38,0,0,0-.08-.91.54.54,0,0,0-.31-.36,2.59,2.59,0,0,0-.75-.08l-.59,0-.62.08v-.58a6.36,6.36,0,0,1,1.41-.14,2.38,2.38,0,0,1,1,.17.87.87,0,0,1,.47.58,4.06,4.06,0,0,1,.13,1.2v3.23h-.63l0-.7h0a1,1,0,0,1-.48.62,1.8,1.8,0,0,1-.79.16A1.39,1.39,0,0,1,110.09,127.42Zm1.81-.38a.57.57,0,0,0,.33-.36,3.16,3.16,0,0,0,.15-1.07v-.33h-1.14a1.37,1.37,0,0,0-.47.06.39.39,0,0,0-.22.26,1.84,1.84,0,0,0-.07.61,1.71,1.71,0,0,0,.07.58.41.41,0,0,0,.24.26,1.46,1.46,0,0,0,.54.08A1.48,1.48,0,0,0,111.9,127Z"/><path class="b0b4bb68-a4ae-431e-a99c-7e7694b5782c" d="M114.63,127.66v-4.49h-.74v-.61h.74v-1.48h.71v1.48h.88v.61h-.88v4.49Z"/><path class="b0b4bb68-a4ae-431e-a99c-7e7694b5782c" d="M118.17,121.61v-.06l.77-1.32h.78l.76,1.32v.06H120l-.65-1-.66,1Zm.8,6v-5.1h.71v5.1Z"/><path class="b0b4bb68-a4ae-431e-a99c-7e7694b5782c" d="M123.52,124.68a6.29,6.29,0,0,0-.06-1,.62.62,0,0,0-.25-.42,1.22,1.22,0,0,0-.59-.1.89.89,0,0,0-.67.22,1,1,0,0,0-.26.59,9.24,9.24,0,0,0,0,1.08v2.65h-.71v-5.1h.62l0,.71h.06a1.08,1.08,0,0,1,.42-.59,1.51,1.51,0,0,1,.84-.2,1.42,1.42,0,0,1,.85.2,1,1,0,0,1,.38.6,5.71,5.71,0,0,1,.09,1.16v3.22h-.71Z"/><path class="b0b4bb68-a4ae-431e-a99c-7e7694b5782c" d="M127.78,127.52a1.23,1.23,0,0,1-.43-.77,7.42,7.42,0,0,1-.13-1.63,8.25,8.25,0,0,1,.12-1.63,1.23,1.23,0,0,1,.43-.79,1.48,1.48,0,0,1,.89-.22,1.55,1.55,0,0,1,.77.16.89.89,0,0,1,.43.54h0v-3h.71v7.43H130l0-.7h0a1,1,0,0,1-.45.62,1.8,1.8,0,0,1-.78.16A1.56,1.56,0,0,1,127.78,127.52Zm1.73-.56a.75.75,0,0,0,.29-.46,2.61,2.61,0,0,0,.09-.59c0-.21,0-.51,0-.88a5.43,5.43,0,0,0-.09-1.2.85.85,0,0,0-.29-.55,1,1,0,0,0-.62-.16,1.22,1.22,0,0,0-.65.13.72.72,0,0,0-.26.53,8.25,8.25,0,0,0-.07,1.33,9.76,9.76,0,0,0,.07,1.33.81.81,0,0,0,.27.53,1.31,1.31,0,0,0,.66.13A1.06,1.06,0,0,0,129.51,127Z"/><path class="b0b4bb68-a4ae-431e-a99c-7e7694b5782c" d="M132.29,127.53a1,1,0,0,1-.46-.73,13,13,0,0,1,0-3.38,1,1,0,0,1,.46-.73,2.36,2.36,0,0,1,1.16-.21,2.43,2.43,0,0,1,1.17.21,1,1,0,0,1,.45.73,14.33,14.33,0,0,1,0,3.38,1,1,0,0,1-.45.73,2.43,2.43,0,0,1-1.17.21A2.36,2.36,0,0,1,132.29,127.53Zm1.87-.54a.74.74,0,0,0,.25-.52,10.86,10.86,0,0,0,.05-1.36,10.66,10.66,0,0,0-.05-1.36.7.7,0,0,0-.25-.52,1.87,1.87,0,0,0-1.42,0,.71.71,0,0,0-.25.52,10.33,10.33,0,0,0-.06,1.36,10.15,10.15,0,0,0,.06,1.35.74.74,0,0,0,.25.53,1.87,1.87,0,0,0,1.42,0Z"/><path class="b0b4bb68-a4ae-431e-a99c-7e7694b5782c" d="M141.22,124.68a6.29,6.29,0,0,0-.06-1,.6.6,0,0,0-.22-.42,1,1,0,0,0-.54-.1.89.89,0,0,0-.64.2,1,1,0,0,0-.26.58,9.58,9.58,0,0,0-.05,1.11v2.65h-.71v-3a7.89,7.89,0,0,0-.05-1,.6.6,0,0,0-.22-.42,1,1,0,0,0-.54-.1.85.85,0,0,0-.64.21,1.07,1.07,0,0,0-.26.59A9.56,9.56,0,0,0,137,125v2.65h-.71v-5.1h.62l0,.71H137a1.11,1.11,0,0,1,.4-.58,1.29,1.29,0,0,1,.8-.21,1.49,1.49,0,0,1,.82.18,1,1,0,0,1,.36.61h.06a1.11,1.11,0,0,1,.41-.59,1.48,1.48,0,0,1,.82-.2,1.38,1.38,0,0,1,.81.19,1,1,0,0,1,.37.61,5.6,5.6,0,0,1,.09,1.15v3.23h-.71Z"/><path class="b0b4bb68-a4ae-431e-a99c-7e7694b5782c" d="M146.33,125.34h-2.62a6.1,6.1,0,0,0,.08,1.16.66.66,0,0,0,.32.49,1.8,1.8,0,0,0,.82.14,7.29,7.29,0,0,0,1.26-.11v.58a4.64,4.64,0,0,1-.63.1c-.26,0-.52,0-.77,0a2.24,2.24,0,0,1-1.18-.24,1.16,1.16,0,0,1-.49-.76,8.07,8.07,0,0,1-.12-1.62,10.24,10.24,0,0,1,.1-1.62,1.12,1.12,0,0,1,.47-.77,2.07,2.07,0,0,1,1.17-.25,1.89,1.89,0,0,1,1.09.24,1.12,1.12,0,0,1,.42.75,12.32,12.32,0,0,1,.08,1.64Zm-2.28-2.14a.61.61,0,0,0-.27.46,7.24,7.24,0,0,0-.07,1.15h1.94v-.12a4.71,4.71,0,0,0-.08-1.07.65.65,0,0,0-.26-.44,1.26,1.26,0,0,0-.58-.1A1.45,1.45,0,0,0,144.05,123.2Z"/><path class="b0b4bb68-a4ae-431e-a99c-7e7694b5782c" d="M150,124.68a6.29,6.29,0,0,0-.06-1,.62.62,0,0,0-.25-.42,1.22,1.22,0,0,0-.59-.1.89.89,0,0,0-.67.22,1,1,0,0,0-.26.59,9.24,9.24,0,0,0,0,1.08v2.65h-.71v-5.1h.62l0,.71h.06a1.08,1.08,0,0,1,.42-.59,1.51,1.51,0,0,1,.84-.2,1.42,1.42,0,0,1,.85.2,1,1,0,0,1,.38.6,5.71,5.71,0,0,1,.09,1.16v3.22H150Z"/><path class="b0b4bb68-a4ae-431e-a99c-7e7694b5782c" d="M152,121.06v-.83h.75v.83Zm0,6.6v-5.1h.71v5.1Z"/><path class="b0b4bb68-a4ae-431e-a99c-7e7694b5782c" d="M156.53,127h-.05a1.09,1.09,0,0,1-.41.58,1.46,1.46,0,0,1-.85.21,1.49,1.49,0,0,1-.84-.2,1,1,0,0,1-.38-.61,4.87,4.87,0,0,1-.1-1.15v-3.22h.71v3a5.14,5.14,0,0,0,.07,1,.58.58,0,0,0,.24.41,1.23,1.23,0,0,0,.59.11.86.86,0,0,0,.66-.22,1,1,0,0,0,.27-.59,9.49,9.49,0,0,0,.05-1.08v-2.65h.71v5.1h-.63Z"/><path class="b0b4bb68-a4ae-431e-a99c-7e7694b5782c" d="M158.46,127.66v-7.43h.71v7.43Z"/><path class="b0b4bb68-a4ae-431e-a99c-7e7694b5782c" d="M78.88,136.68a6.29,6.29,0,0,0-.06-1,.6.6,0,0,0-.22-.42,1,1,0,0,0-.54-.1.91.91,0,0,0-.64.2,1,1,0,0,0-.26.58,9.58,9.58,0,0,0,0,1.11v2.65H76.4v-3a6.43,6.43,0,0,0-.05-1,.6.6,0,0,0-.22-.42,1,1,0,0,0-.54-.1.87.87,0,0,0-.64.21,1.07,1.07,0,0,0-.26.59,9.56,9.56,0,0,0,0,1.09v2.65h-.71v-5.1h.62l0,.71h.06a1.11,1.11,0,0,1,.4-.58,1.29,1.29,0,0,1,.8-.21,1.49,1.49,0,0,1,.82.18.91.91,0,0,1,.36.61h.06a1.11,1.11,0,0,1,.41-.59,1.48,1.48,0,0,1,.82-.2,1.38,1.38,0,0,1,.81.19,1,1,0,0,1,.37.61,5.6,5.6,0,0,1,.09,1.15v3.23h-.71Z"/><path class="b0b4bb68-a4ae-431e-a99c-7e7694b5782c" d="M84,137.34H81.37a6.1,6.1,0,0,0,.08,1.16.68.68,0,0,0,.32.49,1.8,1.8,0,0,0,.82.14,7.29,7.29,0,0,0,1.26-.11v.58a4.64,4.64,0,0,1-.63.1c-.26,0-.52,0-.77,0a2.24,2.24,0,0,1-1.18-.24,1.16,1.16,0,0,1-.49-.76,8.07,8.07,0,0,1-.12-1.62,10.24,10.24,0,0,1,.1-1.62,1.15,1.15,0,0,1,.47-.77,2.07,2.07,0,0,1,1.17-.25,1.89,1.89,0,0,1,1.09.24,1.12,1.12,0,0,1,.42.75,10.79,10.79,0,0,1,.08,1.64Zm-2.28-2.14a.61.61,0,0,0-.27.46,7.24,7.24,0,0,0-.07,1.15h1.94v-.12a4.71,4.71,0,0,0-.08-1.07.65.65,0,0,0-.26-.44,1.23,1.23,0,0,0-.58-.1A1.45,1.45,0,0,0,81.71,135.2Z"/><path class="b0b4bb68-a4ae-431e-a99c-7e7694b5782c" d="M85.5,139.52a1.28,1.28,0,0,1-.43-.77,8.1,8.1,0,0,1-.13-1.63,8.25,8.25,0,0,1,.12-1.63,1.23,1.23,0,0,1,.43-.79,1.48,1.48,0,0,1,.89-.22,1.55,1.55,0,0,1,.77.16.89.89,0,0,1,.43.54h0v-3h.71v7.43h-.63l0-.7h0a1,1,0,0,1-.45.62,1.8,1.8,0,0,1-.78.16A1.56,1.56,0,0,1,85.5,139.52Zm1.73-.56a.75.75,0,0,0,.29-.46,2.61,2.61,0,0,0,.09-.59c0-.21,0-.51,0-.88a5.43,5.43,0,0,0-.09-1.2.85.85,0,0,0-.29-.55,1,1,0,0,0-.62-.16,1.22,1.22,0,0,0-.65.13.72.72,0,0,0-.26.53,9.65,9.65,0,0,0-.07,1.33,9.76,9.76,0,0,0,.07,1.33A.81.81,0,0,0,86,139a1.31,1.31,0,0,0,.66.13A1.06,1.06,0,0,0,87.23,139Z"/><path class="b0b4bb68-a4ae-431e-a99c-7e7694b5782c" d="M89.58,133.06v-.83h.75v.83Zm0,6.6v-5.1h.71v5.1Z"/><path class="b0b4bb68-a4ae-431e-a99c-7e7694b5782c" d="M93.61,139.7a3.86,3.86,0,0,1-.58,0,1.83,1.83,0,0,1-1.08-.26,1.27,1.27,0,0,1-.45-.79,10,10,0,0,1-.1-1.58,7.23,7.23,0,0,1,.13-1.6,1.32,1.32,0,0,1,.46-.79,1.79,1.79,0,0,1,1-.24l.58,0a3,3,0,0,1,.48.1v.58a3.71,3.71,0,0,0-.9-.1,1.22,1.22,0,0,0-.69.15.84.84,0,0,0-.29.56,7.79,7.79,0,0,0-.08,1.3,8.16,8.16,0,0,0,.08,1.32.85.85,0,0,0,.29.56,1.28,1.28,0,0,0,.7.15,3.68,3.68,0,0,0,.92-.11v.59A2.54,2.54,0,0,1,93.61,139.7Z"/><path class="b0b4bb68-a4ae-431e-a99c-7e7694b5782c" d="M95.09,139.42a1.71,1.71,0,0,1-.31-1.16,2.74,2.74,0,0,1,.12-.91.82.82,0,0,1,.39-.46,1.63,1.63,0,0,1,.77-.14c.2,0,.64,0,1.32.05v-.36a3.38,3.38,0,0,0-.08-.91.54.54,0,0,0-.31-.36,2.59,2.59,0,0,0-.75-.08l-.59,0-.62.08v-.58a6.36,6.36,0,0,1,1.41-.14,2.38,2.38,0,0,1,1,.17.87.87,0,0,1,.47.58,4.06,4.06,0,0,1,.13,1.2v3.23h-.63l0-.7h0a1,1,0,0,1-.48.62,1.8,1.8,0,0,1-.79.16A1.39,1.39,0,0,1,95.09,139.42ZM96.9,139a.57.57,0,0,0,.33-.36,3.16,3.16,0,0,0,.15-1.07v-.33H96.24a1.37,1.37,0,0,0-.47.06.39.39,0,0,0-.22.26,1.84,1.84,0,0,0-.07.61,1.71,1.71,0,0,0,.07.58.41.41,0,0,0,.24.26,1.46,1.46,0,0,0,.54.08A1.48,1.48,0,0,0,96.9,139Z"/><path class="b0b4bb68-a4ae-431e-a99c-7e7694b5782c" d="M99.32,139.66v-7.43H100v7.43Z"/><path class="b0b4bb68-a4ae-431e-a99c-7e7694b5782c" d="M101.35,140.42a.25.25,0,0,0,.15-.18,2.07,2.07,0,0,0,0-.41v-.17h-.33v-.9H102v.82a3,3,0,0,1-.07.78.56.56,0,0,1-.29.36,1.54,1.54,0,0,1-.66.11v-.35A.71.71,0,0,0,101.35,140.42Z"/><path class="b0b4bb68-a4ae-431e-a99c-7e7694b5782c" d="M108.31,137.34h-2.62a6.1,6.1,0,0,0,.08,1.16.66.66,0,0,0,.32.49,1.8,1.8,0,0,0,.82.14,7.29,7.29,0,0,0,1.26-.11v.58a4.64,4.64,0,0,1-.63.1c-.26,0-.52,0-.77,0a2.24,2.24,0,0,1-1.18-.24,1.16,1.16,0,0,1-.49-.76,8.07,8.07,0,0,1-.12-1.62,10.24,10.24,0,0,1,.1-1.62,1.12,1.12,0,0,1,.47-.77,2.07,2.07,0,0,1,1.17-.25,1.89,1.89,0,0,1,1.09.24,1.12,1.12,0,0,1,.42.75,12.32,12.32,0,0,1,.08,1.64ZM106,135.2a.61.61,0,0,0-.27.46,6.19,6.19,0,0,0-.07,1.15h1.94v-.12a4.71,4.71,0,0,0-.08-1.07.65.65,0,0,0-.26-.44,1.26,1.26,0,0,0-.58-.1A1.45,1.45,0,0,0,106,135.2Z"/><path class="b0b4bb68-a4ae-431e-a99c-7e7694b5782c" d="M111.93,139.66l-1.07-2h0l-1.08,2H109l1.44-2.59L109,134.56h.79l1,1.91h0l1-1.91h.75l-1.38,2.49,1.44,2.61Z"/><path class="b0b4bb68-a4ae-431e-a99c-7e7694b5782c" d="M113.55,139.42a1.71,1.71,0,0,1-.31-1.16,2.74,2.74,0,0,1,.12-.91.75.75,0,0,1,.39-.46,1.63,1.63,0,0,1,.77-.14c.2,0,.64,0,1.32.05v-.36a3.86,3.86,0,0,0-.08-.91.54.54,0,0,0-.31-.36,2.59,2.59,0,0,0-.75-.08l-.59,0-.62.08v-.58a6.36,6.36,0,0,1,1.41-.14,2.38,2.38,0,0,1,1,.17.87.87,0,0,1,.47.58,4.06,4.06,0,0,1,.13,1.2v3.23h-.63l0-.7h0a1,1,0,0,1-.48.62,1.8,1.8,0,0,1-.79.16A1.39,1.39,0,0,1,113.55,139.42Zm1.81-.38a.57.57,0,0,0,.33-.36,3.16,3.16,0,0,0,.15-1.07v-.33H114.7a1.37,1.37,0,0,0-.47.06.39.39,0,0,0-.22.26,1.84,1.84,0,0,0-.07.61,1.71,1.71,0,0,0,.07.58.41.41,0,0,0,.24.26,1.46,1.46,0,0,0,.54.08A1.48,1.48,0,0,0,115.36,139Z"/><path class="b0b4bb68-a4ae-431e-a99c-7e7694b5782c" d="M122.73,136.68a6.29,6.29,0,0,0-.06-1,.6.6,0,0,0-.22-.42,1,1,0,0,0-.54-.1.89.89,0,0,0-.64.2,1,1,0,0,0-.26.58A9.58,9.58,0,0,0,121,137v2.65h-.71v-3a7.89,7.89,0,0,0,0-1,.6.6,0,0,0-.22-.42,1,1,0,0,0-.54-.1.85.85,0,0,0-.64.21,1.07,1.07,0,0,0-.26.59,9.56,9.56,0,0,0-.05,1.09v2.65h-.71v-5.1h.62l0,.71h.06a1.11,1.11,0,0,1,.4-.58,1.29,1.29,0,0,1,.8-.21,1.49,1.49,0,0,1,.82.18,1,1,0,0,1,.36.61h.06a1.11,1.11,0,0,1,.41-.59,1.48,1.48,0,0,1,.82-.2,1.38,1.38,0,0,1,.81.19,1,1,0,0,1,.37.61,5.6,5.6,0,0,1,.09,1.15v3.23h-.71Z"/><path class="b0b4bb68-a4ae-431e-a99c-7e7694b5782c" d="M124.65,133.06v-.83h.75v.83Zm0,6.6v-5.1h.71v5.1Z"/><path class="b0b4bb68-a4ae-431e-a99c-7e7694b5782c" d="M129.22,136.68a6.29,6.29,0,0,0-.06-1,.62.62,0,0,0-.25-.42,1.22,1.22,0,0,0-.59-.1.89.89,0,0,0-.67.22,1,1,0,0,0-.26.59,9.24,9.24,0,0,0,0,1.08v2.65h-.71v-5.1h.62l0,.71h.06a1.08,1.08,0,0,1,.42-.59,1.51,1.51,0,0,1,.84-.2,1.42,1.42,0,0,1,.85.2,1,1,0,0,1,.38.6,5.71,5.71,0,0,1,.09,1.16v3.22h-.71Z"/><path class="b0b4bb68-a4ae-431e-a99c-7e7694b5782c" d="M134.33,137.34h-2.62a6.1,6.1,0,0,0,.08,1.16.66.66,0,0,0,.32.49,1.8,1.8,0,0,0,.82.14,7.29,7.29,0,0,0,1.26-.11v.58a4.64,4.64,0,0,1-.63.1c-.26,0-.52,0-.77,0a2.24,2.24,0,0,1-1.18-.24,1.16,1.16,0,0,1-.49-.76,8.07,8.07,0,0,1-.12-1.62,10.24,10.24,0,0,1,.1-1.62,1.12,1.12,0,0,1,.47-.77,2.07,2.07,0,0,1,1.17-.25,1.89,1.89,0,0,1,1.09.24,1.12,1.12,0,0,1,.42.75,12.32,12.32,0,0,1,.08,1.64Zm-2.28-2.14a.61.61,0,0,0-.27.46,6.19,6.19,0,0,0-.07,1.15h1.94v-.12a4.71,4.71,0,0,0-.08-1.07.65.65,0,0,0-.26-.44,1.26,1.26,0,0,0-.58-.1A1.45,1.45,0,0,0,132.05,135.2Z"/><path class="b0b4bb68-a4ae-431e-a99c-7e7694b5782c" d="M135.46,139.42a1.71,1.71,0,0,1-.31-1.16,2.74,2.74,0,0,1,.12-.91.75.75,0,0,1,.39-.46,1.63,1.63,0,0,1,.77-.14c.2,0,.64,0,1.32.05v-.36a3.86,3.86,0,0,0-.08-.91.54.54,0,0,0-.31-.36,2.59,2.59,0,0,0-.75-.08l-.59,0-.62.08v-.58a6.36,6.36,0,0,1,1.41-.14,2.38,2.38,0,0,1,1.05.17.87.87,0,0,1,.47.58,4.06,4.06,0,0,1,.13,1.2v3.23h-.63l0-.7h0a1,1,0,0,1-.48.62,1.8,1.8,0,0,1-.79.16A1.39,1.39,0,0,1,135.46,139.42Zm1.81-.38a.57.57,0,0,0,.33-.36,3.16,3.16,0,0,0,.15-1.07v-.33h-1.14a1.37,1.37,0,0,0-.47.06.39.39,0,0,0-.22.26,1.84,1.84,0,0,0-.07.61,1.71,1.71,0,0,0,.07.58.41.41,0,0,0,.24.26,1.46,1.46,0,0,0,.54.08A1.48,1.48,0,0,0,137.27,139Z"/><path class="b0b4bb68-a4ae-431e-a99c-7e7694b5782c" d="M139.4,139.66v-.56l2.18-3.93h-2.1v-.61h3v.55l-2.19,3.94h2.2v.61Z"/><path class="b0b4bb68-a4ae-431e-a99c-7e7694b5782c" d="M143.44,139.42a1.71,1.71,0,0,1-.31-1.16,2.74,2.74,0,0,1,.12-.91.75.75,0,0,1,.39-.46,1.63,1.63,0,0,1,.77-.14c.2,0,.64,0,1.32.05v-.36a3.86,3.86,0,0,0-.08-.91.54.54,0,0,0-.31-.36,2.59,2.59,0,0,0-.75-.08l-.59,0-.62.08v-.58a6.36,6.36,0,0,1,1.41-.14,2.38,2.38,0,0,1,1.05.17.87.87,0,0,1,.47.58,4.06,4.06,0,0,1,.13,1.2v3.23h-.63l0-.7h-.05a1,1,0,0,1-.48.62,1.8,1.8,0,0,1-.79.16A1.39,1.39,0,0,1,143.44,139.42ZM146,133a.81.81,0,0,1-.31.46,1.4,1.4,0,0,1-.76.17,1.33,1.33,0,0,1-.74-.17.75.75,0,0,1-.3-.46,3.39,3.39,0,0,1-.07-.79h.5a3.78,3.78,0,0,0,0,.56.46.46,0,0,0,.16.29.68.68,0,0,0,.42.11.73.73,0,0,0,.44-.11.42.42,0,0,0,.16-.29,3.78,3.78,0,0,0,0-.56h.5A4.16,4.16,0,0,1,146,133Zm-.72,6a.57.57,0,0,0,.33-.36,3.16,3.16,0,0,0,.15-1.07v-.33h-1.14a1.37,1.37,0,0,0-.47.06.39.39,0,0,0-.22.26,1.84,1.84,0,0,0-.07.61,1.71,1.71,0,0,0,.07.58.41.41,0,0,0,.24.26,1.46,1.46,0,0,0,.54.08A1.48,1.48,0,0,0,145.25,139Z"/><path class="b0b4bb68-a4ae-431e-a99c-7e7694b5782c" d="M147.74,140.42a.27.27,0,0,0,.15-.18,2.07,2.07,0,0,0,0-.41v-.17h-.33v-.9h.83v.82a3,3,0,0,1-.07.78.56.56,0,0,1-.29.36,1.57,1.57,0,0,1-.66.11v-.35A.71.71,0,0,0,147.74,140.42Z"/><path class="b0b4bb68-a4ae-431e-a99c-7e7694b5782c" d="M77.65,151.52a1.23,1.23,0,0,1-.43-.77,8.1,8.1,0,0,1-.13-1.63,8.25,8.25,0,0,1,.12-1.63,1.28,1.28,0,0,1,.43-.79,1.48,1.48,0,0,1,.89-.22,1.55,1.55,0,0,1,.77.16.89.89,0,0,1,.43.54h0v-3h.71v7.43h-.63l0-.7h0a1,1,0,0,1-.45.62,1.8,1.8,0,0,1-.78.16A1.56,1.56,0,0,1,77.65,151.52Zm1.73-.56a.75.75,0,0,0,.29-.46,2.61,2.61,0,0,0,.09-.59c0-.21,0-.51,0-.88a5.43,5.43,0,0,0-.09-1.2.85.85,0,0,0-.29-.55,1,1,0,0,0-.62-.16,1.22,1.22,0,0,0-.65.13.72.72,0,0,0-.26.53,8.25,8.25,0,0,0-.07,1.33,9.76,9.76,0,0,0,.07,1.33.81.81,0,0,0,.27.53,1.31,1.31,0,0,0,.66.13A1.06,1.06,0,0,0,79.38,151Z"/><path class="b0b4bb68-a4ae-431e-a99c-7e7694b5782c" d="M82,145.06v-.83h.75v.83Zm0,6.6v-5.1h.71v5.1Z"/><path class="b0b4bb68-a4ae-431e-a99c-7e7694b5782c" d="M84.23,151.42a1.71,1.71,0,0,1-.31-1.16,2.74,2.74,0,0,1,.12-.91.75.75,0,0,1,.39-.46,1.63,1.63,0,0,1,.77-.14c.2,0,.64,0,1.32.05v-.36a3.86,3.86,0,0,0-.08-.91.54.54,0,0,0-.31-.36,2.59,2.59,0,0,0-.75-.08l-.59,0-.62.08v-.58a6.36,6.36,0,0,1,1.41-.14,2.38,2.38,0,0,1,1,.17.87.87,0,0,1,.47.58,4.06,4.06,0,0,1,.13,1.2v3.23H86.6l0-.7h0a1,1,0,0,1-.48.62,1.77,1.77,0,0,1-.79.16A1.39,1.39,0,0,1,84.23,151.42ZM86,151a.57.57,0,0,0,.33-.36,3.16,3.16,0,0,0,.15-1.07v-.33H85.38a1.37,1.37,0,0,0-.47.06.41.41,0,0,0-.22.26,2.15,2.15,0,0,0-.07.61,2,2,0,0,0,.07.58.41.41,0,0,0,.24.26,1.46,1.46,0,0,0,.54.08A1.48,1.48,0,0,0,86,151Z"/><path class="b0b4bb68-a4ae-431e-a99c-7e7694b5782c" d="M88.73,153.58V153l1.21,0a1.88,1.88,0,0,0,.87-.15.77.77,0,0,0,.35-.53,6.68,6.68,0,0,0,.08-1.2V151h0a.9.9,0,0,1-.42.54,1.66,1.66,0,0,1-.77.16,1.57,1.57,0,0,1-.9-.22,1.28,1.28,0,0,1-.43-.77,8.21,8.21,0,0,1-.12-1.62,8.1,8.1,0,0,1,.13-1.63,1.18,1.18,0,0,1,.43-.77,1.49,1.49,0,0,1,.9-.22,1.65,1.65,0,0,1,.77.16,1,1,0,0,1,.45.63h0l0-.71H92v4.36a8.41,8.41,0,0,1-.12,1.65,1.32,1.32,0,0,1-.52.82,2.36,2.36,0,0,1-1.24.26C89.61,153.65,89.17,153.62,88.73,153.58Zm2.11-2.65a.78.78,0,0,0,.29-.48,5.53,5.53,0,0,0,.11-1.35c0-.32,0-.58,0-.78a2.27,2.27,0,0,0-.08-.5.88.88,0,0,0-.3-.54.92.92,0,0,0-.59-.16,1.21,1.21,0,0,0-.66.13.76.76,0,0,0-.27.52,9.76,9.76,0,0,0-.07,1.33,9.48,9.48,0,0,0,.07,1.32.78.78,0,0,0,.27.53,1.31,1.31,0,0,0,.66.13A1,1,0,0,0,90.84,150.93Z"/><path class="b0b4bb68-a4ae-431e-a99c-7e7694b5782c" d="M96.05,148.68a6.29,6.29,0,0,0-.06-1,.62.62,0,0,0-.25-.42,1.22,1.22,0,0,0-.59-.1.89.89,0,0,0-.67.22,1,1,0,0,0-.26.59,9.24,9.24,0,0,0,0,1.08v2.65h-.71v-5.1h.62l0,.71h.06a1.08,1.08,0,0,1,.42-.59,1.51,1.51,0,0,1,.84-.2,1.42,1.42,0,0,1,.85.2.94.94,0,0,1,.38.6,5.71,5.71,0,0,1,.09,1.16v3.22h-.71Z"/><path class="b0b4bb68-a4ae-431e-a99c-7e7694b5782c" d="M98.65,151.53a1,1,0,0,1-.46-.73,13,13,0,0,1,0-3.38,1,1,0,0,1,.46-.73,2.36,2.36,0,0,1,1.16-.21,2.43,2.43,0,0,1,1.17.21,1,1,0,0,1,.45.73,14.33,14.33,0,0,1,0,3.38,1,1,0,0,1-.45.73,2.43,2.43,0,0,1-1.17.21A2.36,2.36,0,0,1,98.65,151.53Zm1.87-.54a.74.74,0,0,0,.25-.52,10.86,10.86,0,0,0,0-1.36,10.66,10.66,0,0,0,0-1.36.7.7,0,0,0-.25-.52,1.87,1.87,0,0,0-1.42,0,.71.71,0,0,0-.25.52,10.33,10.33,0,0,0-.06,1.36,10.15,10.15,0,0,0,.06,1.35.74.74,0,0,0,.25.53,1.87,1.87,0,0,0,1.42,0Z"/><path class="b0b4bb68-a4ae-431e-a99c-7e7694b5782c" d="M103.39,151.7c-.26,0-.47,0-.64-.08V151a8.2,8.2,0,0,0,1.32.11,1.32,1.32,0,0,0,.57-.1.49.49,0,0,0,.25-.28,1.63,1.63,0,0,0,.06-.49,2.25,2.25,0,0,0,0-.53.32.32,0,0,0-.13-.21,1.21,1.21,0,0,0-.33-.08l-1-.15a.85.85,0,0,1-.65-.37,2.05,2.05,0,0,1-.17-1,2,2,0,0,1,.19-.93,1,1,0,0,1,.53-.44,2.58,2.58,0,0,1,.86-.12,5.07,5.07,0,0,1,.66,0,2.86,2.86,0,0,1,.56.1v.58a5.07,5.07,0,0,0-.56-.09q-.33,0-.66,0a1,1,0,0,0-.68.17.82.82,0,0,0-.21.67,2.51,2.51,0,0,0,0,.48.37.37,0,0,0,.14.22.82.82,0,0,0,.31.09l1,.13a1.14,1.14,0,0,1,.51.16.77.77,0,0,1,.27.42,2.93,2.93,0,0,1,.09.83,1.5,1.5,0,0,1-.36,1.16,1.7,1.7,0,0,1-1.17.33A6.41,6.41,0,0,1,103.39,151.7Z"/><path class="b0b4bb68-a4ae-431e-a99c-7e7694b5782c" d="M107.21,151.66v-4.49h-.74v-.61h.74v-1.48h.71v1.48h.88v.61h-.88v4.49Z"/><path class="b0b4bb68-a4ae-431e-a99c-7e7694b5782c" d="M109.86,145.06v-.83h.75v.83Zm0,6.6v-5.1h.71v5.1Z"/><path class="b0b4bb68-a4ae-431e-a99c-7e7694b5782c" d="M114.14,151.7a3.86,3.86,0,0,1-.58,0,1.83,1.83,0,0,1-1.08-.26,1.27,1.27,0,0,1-.45-.79,10,10,0,0,1-.1-1.58,7.91,7.91,0,0,1,.13-1.6,1.32,1.32,0,0,1,.46-.79,1.79,1.79,0,0,1,1-.24l.58,0a3,3,0,0,1,.48.1v.58a3.71,3.71,0,0,0-.9-.1,1.22,1.22,0,0,0-.69.15.84.84,0,0,0-.29.56,7.79,7.79,0,0,0-.08,1.3,8.16,8.16,0,0,0,.08,1.32.85.85,0,0,0,.29.56,1.28,1.28,0,0,0,.7.15,3.68,3.68,0,0,0,.92-.11v.59A2.7,2.7,0,0,1,114.14,151.7Z"/><path class="b0b4bb68-a4ae-431e-a99c-7e7694b5782c" d="M118.44,148.68a6.29,6.29,0,0,0-.06-1,.62.62,0,0,0-.25-.42,1.22,1.22,0,0,0-.59-.1.89.89,0,0,0-.67.22,1,1,0,0,0-.26.59,9.24,9.24,0,0,0,0,1.08v2.65h-.71v-7.43h.71v2.94h0a1.16,1.16,0,0,1,1.22-.69,1.51,1.51,0,0,1,.85.19,1,1,0,0,1,.38.61,5.6,5.6,0,0,1,.09,1.15v3.23h-.71Z"/><path class="b0b4bb68-a4ae-431e-a99c-7e7694b5782c" d="M123.8,149.34h-2.62a6.1,6.1,0,0,0,.08,1.16.66.66,0,0,0,.32.49,1.8,1.8,0,0,0,.82.14,7.29,7.29,0,0,0,1.26-.11v.58a4.64,4.64,0,0,1-.63.1c-.26,0-.52,0-.77,0a2.24,2.24,0,0,1-1.18-.24,1.16,1.16,0,0,1-.49-.76,8.07,8.07,0,0,1-.12-1.62,10.24,10.24,0,0,1,.1-1.62,1.12,1.12,0,0,1,.47-.77,2.07,2.07,0,0,1,1.17-.25,1.89,1.89,0,0,1,1.09.24,1.12,1.12,0,0,1,.42.75,12.32,12.32,0,0,1,.08,1.64Zm-2.28-2.14a.61.61,0,0,0-.27.46,6.19,6.19,0,0,0-.07,1.15h1.94v-.12a4.71,4.71,0,0,0-.08-1.07.65.65,0,0,0-.26-.44,1.26,1.26,0,0,0-.58-.1A1.45,1.45,0,0,0,121.52,147.2Z"/><path class="b0b4bb68-a4ae-431e-a99c-7e7694b5782c" d="M125.18,151.42a1.71,1.71,0,0,1-.31-1.16,2.74,2.74,0,0,1,.12-.91.75.75,0,0,1,.39-.46,1.63,1.63,0,0,1,.77-.14c.2,0,.64,0,1.32.05v-.36a3.86,3.86,0,0,0-.08-.91.54.54,0,0,0-.31-.36,2.59,2.59,0,0,0-.75-.08l-.59,0-.62.08v-.58a6.36,6.36,0,0,1,1.41-.14,2.38,2.38,0,0,1,1,.17.87.87,0,0,1,.47.58,4.06,4.06,0,0,1,.13,1.2v3.23h-.63l0-.7h-.05a1,1,0,0,1-.48.62,1.8,1.8,0,0,1-.79.16A1.39,1.39,0,0,1,125.18,151.42ZM127,151a.57.57,0,0,0,.33-.36,3.16,3.16,0,0,0,.15-1.07v-.33h-1.14a1.37,1.37,0,0,0-.47.06.39.39,0,0,0-.22.26,1.84,1.84,0,0,0-.07.61,1.71,1.71,0,0,0,.07.58.41.41,0,0,0,.24.26,1.46,1.46,0,0,0,.54.08A1.48,1.48,0,0,0,127,151Z"/><path class="b0b4bb68-a4ae-431e-a99c-7e7694b5782c" d="M129.37,151.66v-.56l2.18-3.93h-2.1v-.61h3v.55l-2.19,3.94h2.2v.61Z"/><path class="b0b4bb68-a4ae-431e-a99c-7e7694b5782c" d="M133.66,151.42a1.71,1.71,0,0,1-.31-1.16,2.74,2.74,0,0,1,.12-.91.75.75,0,0,1,.39-.46,1.63,1.63,0,0,1,.77-.14c.2,0,.64,0,1.32.05v-.36a3.86,3.86,0,0,0-.08-.91.54.54,0,0,0-.31-.36,2.59,2.59,0,0,0-.75-.08l-.59,0-.62.08v-.58a6.36,6.36,0,0,1,1.41-.14,2.38,2.38,0,0,1,1.05.17.87.87,0,0,1,.47.58,4.06,4.06,0,0,1,.13,1.2v3.23H136l0-.7h-.05a1,1,0,0,1-.48.62,1.8,1.8,0,0,1-.79.16A1.39,1.39,0,0,1,133.66,151.42Zm2.53-6.4a.81.81,0,0,1-.31.46,1.4,1.4,0,0,1-.76.17,1.33,1.33,0,0,1-.74-.17.75.75,0,0,1-.3-.46,3.39,3.39,0,0,1-.07-.79h.5a3.78,3.78,0,0,0,0,.56.46.46,0,0,0,.16.29.68.68,0,0,0,.42.11.73.73,0,0,0,.44-.11.42.42,0,0,0,.16-.29,3.78,3.78,0,0,0,0-.56h.5A4.16,4.16,0,0,1,136.19,145Zm-.72,6a.57.57,0,0,0,.33-.36,3.16,3.16,0,0,0,.15-1.07v-.33h-1.14a1.37,1.37,0,0,0-.47.06.39.39,0,0,0-.22.26,1.84,1.84,0,0,0-.07.61,1.71,1.71,0,0,0,.07.58.41.41,0,0,0,.24.26,1.46,1.46,0,0,0,.54.08A1.48,1.48,0,0,0,135.47,151Z"/><path class="b0b4bb68-a4ae-431e-a99c-7e7694b5782c" d="M140.82,151.7c-.26,0-.47,0-.64-.08V151a8.2,8.2,0,0,0,1.32.11,1.32,1.32,0,0,0,.57-.1.49.49,0,0,0,.25-.28,1.63,1.63,0,0,0,.06-.49,2.25,2.25,0,0,0,0-.53.32.32,0,0,0-.13-.21,1.21,1.21,0,0,0-.33-.08l-1-.15a.85.85,0,0,1-.65-.37,2.05,2.05,0,0,1-.17-1,2,2,0,0,1,.19-.93,1,1,0,0,1,.53-.44,2.58,2.58,0,0,1,.86-.12,5.07,5.07,0,0,1,.66,0,2.86,2.86,0,0,1,.56.1v.58a5.07,5.07,0,0,0-.56-.09l-.66,0a1,1,0,0,0-.68.17.82.82,0,0,0-.21.67,2.51,2.51,0,0,0,0,.48.33.33,0,0,0,.14.22.82.82,0,0,0,.31.09l1,.13a1.14,1.14,0,0,1,.51.16.77.77,0,0,1,.27.42,2.93,2.93,0,0,1,.09.83,1.5,1.5,0,0,1-.36,1.16,1.7,1.7,0,0,1-1.17.33A6.41,6.41,0,0,1,140.82,151.7Zm.68,2.05a.8.8,0,0,0,.09-.45v-.16h-.33v-.86h.8v.78a2.49,2.49,0,0,1-.07.71.48.48,0,0,1-.27.33,1.49,1.49,0,0,1-.64.1v-.34A.57.57,0,0,0,141.5,153.75Z"/><path class="b0b4bb68-a4ae-431e-a99c-7e7694b5782c" d="M144.31,145.06v-.83h.75v.83Zm0,6.6v-5.1H145v5.1Z"/><path class="b0b4bb68-a4ae-431e-a99c-7e7694b5782c" d="M77,163.66v-4.49h-.74v-.61H77v-1.48h.71v1.48h.88v.61h-.88v4.49Z"/><path class="b0b4bb68-a4ae-431e-a99c-7e7694b5782c" d="M79.12,158.56h.62l0,.95h.06a1.26,1.26,0,0,1,.45-.81,1.52,1.52,0,0,1,.87-.22v.72a1.28,1.28,0,0,0-.81.22,1.11,1.11,0,0,0-.41.65,5.15,5.15,0,0,0-.11,1.17v2.42h-.71Z"/><path class="b0b4bb68-a4ae-431e-a99c-7e7694b5782c" d="M81.74,163.42a1.66,1.66,0,0,1-.31-1.16,3.08,3.08,0,0,1,.11-.91.82.82,0,0,1,.39-.46,1.7,1.7,0,0,1,.78-.14c.19,0,.63,0,1.32.05v-.36a3.29,3.29,0,0,0-.09-.91.52.52,0,0,0-.31-.36,2.51,2.51,0,0,0-.74-.08l-.6,0-.61.08v-.58a6.24,6.24,0,0,1,1.41-.14,2.33,2.33,0,0,1,1,.17.91.91,0,0,1,.48.58,4.43,4.43,0,0,1,.13,1.2v3.23h-.63l0-.7h0a.93.93,0,0,1-.49.62,1.73,1.73,0,0,1-.78.16A1.36,1.36,0,0,1,81.74,163.42Zm1.81-.38a.59.59,0,0,0,.33-.36,3.16,3.16,0,0,0,.15-1.07v-.33H82.89a1.48,1.48,0,0,0-.48.06.45.45,0,0,0-.22.26,2.24,2.24,0,0,0-.06.61,2.09,2.09,0,0,0,.06.58.46.46,0,0,0,.25.26,1.46,1.46,0,0,0,.54.08A1.55,1.55,0,0,0,83.55,163Z"/><path class="b0b4bb68-a4ae-431e-a99c-7e7694b5782c" d="M86,163.66v-4.49h-.74v-.61H86v-1.48h.71v1.48h.88v.61h-.88v4.49Z"/><path class="b0b4bb68-a4ae-431e-a99c-7e7694b5782c" d="M91.37,161.34H88.75a6.32,6.32,0,0,0,.07,1.16.68.68,0,0,0,.32.49,1.85,1.85,0,0,0,.83.14,7.29,7.29,0,0,0,1.26-.11v.58a5.24,5.24,0,0,1-.63.1c-.27,0-.53,0-.77,0a2.24,2.24,0,0,1-1.18-.24,1.13,1.13,0,0,1-.49-.76,8.07,8.07,0,0,1-.12-1.62,9.15,9.15,0,0,1,.1-1.62,1.14,1.14,0,0,1,.46-.77,2.14,2.14,0,0,1,1.18-.25,1.89,1.89,0,0,1,1.09.24,1.07,1.07,0,0,1,.41.75,10.47,10.47,0,0,1,.09,1.64Zm-2.28-2.14a.65.65,0,0,0-.28.46,7.58,7.58,0,0,0-.06,1.15h1.94v-.12a5.38,5.38,0,0,0-.08-1.07.62.62,0,0,0-.27-.44,1.19,1.19,0,0,0-.57-.1A1.45,1.45,0,0,0,89.09,159.2Z"/><path class="b0b4bb68-a4ae-431e-a99c-7e7694b5782c" d="M92.25,163.42a1.66,1.66,0,0,1-.31-1.16,3.08,3.08,0,0,1,.11-.91.82.82,0,0,1,.39-.46,1.7,1.7,0,0,1,.78-.14c.19,0,.63,0,1.32.05v-.36a3.29,3.29,0,0,0-.09-.91.52.52,0,0,0-.31-.36,2.56,2.56,0,0,0-.74-.08l-.6,0-.61.08v-.58a6.24,6.24,0,0,1,1.41-.14,2.33,2.33,0,0,1,1,.17.91.91,0,0,1,.48.58,4.43,4.43,0,0,1,.13,1.2v3.23h-.63l0-.7h0a.93.93,0,0,1-.49.62,1.73,1.73,0,0,1-.78.16A1.36,1.36,0,0,1,92.25,163.42Zm1.81-.38a.59.59,0,0,0,.33-.36,3.16,3.16,0,0,0,.15-1.07v-.33H93.4a1.48,1.48,0,0,0-.48.06.45.45,0,0,0-.22.26,2.24,2.24,0,0,0-.06.61,2.09,2.09,0,0,0,.06.58.46.46,0,0,0,.25.26,1.46,1.46,0,0,0,.54.08A1.55,1.55,0,0,0,94.06,163Z"/><path class="b0b4bb68-a4ae-431e-a99c-7e7694b5782c" d="M95.94,163.66v-.56l2.18-3.93H96v-.61h3v.55l-2.19,3.94H99v.61Z"/><path class="b0b4bb68-a4ae-431e-a99c-7e7694b5782c" d="M99.73,163.42a1.66,1.66,0,0,1-.31-1.16,3.08,3.08,0,0,1,.11-.91.82.82,0,0,1,.39-.46,1.67,1.67,0,0,1,.78-.14c.19,0,.63,0,1.32.05v-.36a3.29,3.29,0,0,0-.09-.91.52.52,0,0,0-.31-.36,2.51,2.51,0,0,0-.74-.08l-.6,0-.61.08v-.58a6.24,6.24,0,0,1,1.41-.14,2.33,2.33,0,0,1,1,.17.91.91,0,0,1,.48.58,4.06,4.06,0,0,1,.13,1.2v3.23h-.63l0-.7h0a.93.93,0,0,1-.49.62,1.73,1.73,0,0,1-.78.16A1.37,1.37,0,0,1,99.73,163.42Zm2.52-6.4a.73.73,0,0,1-.31.46,1.34,1.34,0,0,1-.75.17,1.33,1.33,0,0,1-.74-.17.81.81,0,0,1-.31-.46,4.16,4.16,0,0,1-.06-.79h.5a3.78,3.78,0,0,0,0,.56.42.42,0,0,0,.16.29.66.66,0,0,0,.42.11.69.69,0,0,0,.43-.11.43.43,0,0,0,.17-.29,3.78,3.78,0,0,0,0-.56h.5A3.39,3.39,0,0,1,102.25,157Zm-.71,6a.57.57,0,0,0,.33-.36,3.16,3.16,0,0,0,.15-1.07v-.33h-1.14a1.43,1.43,0,0,0-.48.06.45.45,0,0,0-.22.26,2.24,2.24,0,0,0-.06.61,2.09,2.09,0,0,0,.06.58.46.46,0,0,0,.25.26,1.46,1.46,0,0,0,.54.08A1.55,1.55,0,0,0,101.54,163Z"/><path class="b0b4bb68-a4ae-431e-a99c-7e7694b5782c" d="M105.38,158.56H106l0,.71h.06a1,1,0,0,1,.45-.63,1.65,1.65,0,0,1,.77-.16,1.54,1.54,0,0,1,.9.22,1.18,1.18,0,0,1,.43.77,7.42,7.42,0,0,1,.13,1.63,8.25,8.25,0,0,1-.12,1.63,1.23,1.23,0,0,1-.43.78,1.53,1.53,0,0,1-.9.23,1.65,1.65,0,0,1-.76-.16,1,1,0,0,1-.43-.54h0v2.55h-.71Zm2.35,4.41a.81.81,0,0,0,.27-.53,9.76,9.76,0,0,0,.07-1.33,9.65,9.65,0,0,0-.07-1.33.76.76,0,0,0-.27-.53,1.21,1.21,0,0,0-.66-.13,1,1,0,0,0-.59.15.82.82,0,0,0-.3.5,2.79,2.79,0,0,0-.08.55c0,.2,0,.47,0,.79a5.8,5.8,0,0,0,.08,1.25,1,1,0,0,0,.3.57,1,1,0,0,0,.6.17A1.31,1.31,0,0,0,107.73,163Z"/><path class="b0b4bb68-a4ae-431e-a99c-7e7694b5782c" d="M109.65,163.42a1.66,1.66,0,0,1-.31-1.16,3.08,3.08,0,0,1,.11-.91.82.82,0,0,1,.39-.46,1.67,1.67,0,0,1,.78-.14c.19,0,.63,0,1.32.05v-.36a3.29,3.29,0,0,0-.09-.91.52.52,0,0,0-.31-.36,2.51,2.51,0,0,0-.74-.08l-.6,0-.61.08v-.58a6.24,6.24,0,0,1,1.41-.14,2.33,2.33,0,0,1,1,.17.91.91,0,0,1,.48.58,4.06,4.06,0,0,1,.13,1.2v3.23H112l0-.7h0a.93.93,0,0,1-.49.62,1.73,1.73,0,0,1-.78.16A1.37,1.37,0,0,1,109.65,163.42Zm1.81-.38a.57.57,0,0,0,.33-.36,3.16,3.16,0,0,0,.15-1.07v-.33H110.8a1.43,1.43,0,0,0-.48.06.45.45,0,0,0-.22.26,2.24,2.24,0,0,0-.06.61,2.09,2.09,0,0,0,.06.58.46.46,0,0,0,.25.26,1.46,1.46,0,0,0,.54.08A1.55,1.55,0,0,0,111.46,163Z"/><path class="b0b4bb68-a4ae-431e-a99c-7e7694b5782c" d="M115.67,163.7a3.73,3.73,0,0,1-.57,0,1.86,1.86,0,0,1-1.09-.26,1.26,1.26,0,0,1-.44-.79,8.93,8.93,0,0,1-.1-1.58,8,8,0,0,1,.12-1.6,1.33,1.33,0,0,1,.47-.79,1.74,1.74,0,0,1,1-.24l.58,0a3,3,0,0,1,.48.1v.58a3.82,3.82,0,0,0-.9-.1,1.28,1.28,0,0,0-.7.15.88.88,0,0,0-.29.56,8.07,8.07,0,0,0-.07,1.3,8.44,8.44,0,0,0,.07,1.32.82.82,0,0,0,.3.56,1.25,1.25,0,0,0,.7.15,3.68,3.68,0,0,0,.92-.11v.59A2.82,2.82,0,0,1,115.67,163.7Z"/><path class="b0b4bb68-a4ae-431e-a99c-7e7694b5782c" d="M116.87,157.06v-.83h.75v.83Zm0,6.6v-5.1h.71v5.1Z"/><path class="b0b4bb68-a4ae-431e-a99c-7e7694b5782c" d="M121.77,161.34h-2.62a6.32,6.32,0,0,0,.07,1.16.68.68,0,0,0,.32.49,1.85,1.85,0,0,0,.83.14,7.29,7.29,0,0,0,1.26-.11v.58a5.24,5.24,0,0,1-.63.1c-.27,0-.53,0-.77,0a2.21,2.21,0,0,1-1.18-.24,1.13,1.13,0,0,1-.49-.76,8.07,8.07,0,0,1-.12-1.62,9.15,9.15,0,0,1,.1-1.62,1.14,1.14,0,0,1,.46-.77,2.14,2.14,0,0,1,1.18-.25,1.89,1.89,0,0,1,1.09.24,1.07,1.07,0,0,1,.41.75,10.47,10.47,0,0,1,.09,1.64Zm-2.28-2.14a.65.65,0,0,0-.28.46,7.58,7.58,0,0,0-.06,1.15h1.94v-.12a5.38,5.38,0,0,0-.08-1.07.66.66,0,0,0-.27-.44,1.19,1.19,0,0,0-.57-.1A1.45,1.45,0,0,0,119.49,159.2Z"/><path class="b0b4bb68-a4ae-431e-a99c-7e7694b5782c" d="M125.22,160.68a5.14,5.14,0,0,0-.07-1,.58.58,0,0,0-.24-.42,1.25,1.25,0,0,0-.59-.1.87.87,0,0,0-.67.22,1,1,0,0,0-.26.59,7.43,7.43,0,0,0,0,1.08v2.65h-.71v-5.1h.62l0,.71h.06a1.11,1.11,0,0,1,.41-.59,1.55,1.55,0,0,1,.85-.2,1.41,1.41,0,0,1,.84.2.94.94,0,0,1,.38.6,5,5,0,0,1,.1,1.16v3.22h-.71Z"/><path class="b0b4bb68-a4ae-431e-a99c-7e7694b5782c" d="M127.22,163.66v-4.49h-.74v-.61h.74v-1.48h.71v1.48h.88v.61h-.88v4.49Zm.29,2.09a.8.8,0,0,0,.09-.45v-.16h-.33v-.86h.8v.78a2.92,2.92,0,0,1-.07.71.49.49,0,0,1-.28.33,1.44,1.44,0,0,1-.63.1v-.34A.57.57,0,0,0,127.51,165.75Z"/><path class="b0b4bb68-a4ae-431e-a99c-7e7694b5782c" d="M129.37,157.06v-.83h.75v.83Zm0,6.6v-5.1h.71v5.1Z"/><path class="b0b4bb68-a4ae-431e-a99c-7e7694b5782c" d="M134.81,163.7a3.73,3.73,0,0,1-.57,0,1.84,1.84,0,0,1-1.09-.26,1.22,1.22,0,0,1-.44-.79,8.93,8.93,0,0,1-.1-1.58,8,8,0,0,1,.12-1.6,1.33,1.33,0,0,1,.47-.79,1.74,1.74,0,0,1,1-.24l.58,0a3,3,0,0,1,.48.1v.58a3.82,3.82,0,0,0-.9-.1,1.28,1.28,0,0,0-.7.15.88.88,0,0,0-.29.56,8.07,8.07,0,0,0-.07,1.3,8.44,8.44,0,0,0,.07,1.32.82.82,0,0,0,.3.56,1.25,1.25,0,0,0,.7.15,3.74,3.74,0,0,0,.92-.11v.59A2.82,2.82,0,0,1,134.81,163.7Z"/><path class="b0b4bb68-a4ae-431e-a99c-7e7694b5782c" d="M136.05,163.42a1.66,1.66,0,0,1-.31-1.16,3.08,3.08,0,0,1,.11-.91.82.82,0,0,1,.39-.46,1.67,1.67,0,0,1,.78-.14c.19,0,.63,0,1.32.05v-.36a3.29,3.29,0,0,0-.09-.91.52.52,0,0,0-.31-.36,2.56,2.56,0,0,0-.74-.08l-.6,0-.61.08v-.58a6.24,6.24,0,0,1,1.41-.14,2.36,2.36,0,0,1,1,.17.91.91,0,0,1,.48.58,4.43,4.43,0,0,1,.13,1.2v3.23h-.63l0-.7h0a.93.93,0,0,1-.49.62,1.73,1.73,0,0,1-.78.16A1.36,1.36,0,0,1,136.05,163.42Zm1.81-.38a.62.62,0,0,0,.33-.36,3.16,3.16,0,0,0,.15-1.07v-.33H137.2a1.43,1.43,0,0,0-.48.06.45.45,0,0,0-.22.26,2.24,2.24,0,0,0-.06.61,2.09,2.09,0,0,0,.06.58.46.46,0,0,0,.25.26,1.46,1.46,0,0,0,.54.08A1.55,1.55,0,0,0,137.86,163Z"/><path class="b0b4bb68-a4ae-431e-a99c-7e7694b5782c" d="M140,158.56h.62l0,.95h.06a1.22,1.22,0,0,1,.45-.81,1.52,1.52,0,0,1,.87-.22v.72a1.28,1.28,0,0,0-.81.22,1.11,1.11,0,0,0-.41.65,5.15,5.15,0,0,0-.11,1.17v2.42H140Z"/><path class="b0b4bb68-a4ae-431e-a99c-7e7694b5782c" d="M145.8,161.34h-2.62a6.32,6.32,0,0,0,.07,1.16.68.68,0,0,0,.32.49,1.85,1.85,0,0,0,.83.14,7.29,7.29,0,0,0,1.26-.11v.58a5.24,5.24,0,0,1-.63.1c-.27,0-.53,0-.77,0a2.21,2.21,0,0,1-1.18-.24,1.13,1.13,0,0,1-.49-.76,8.07,8.07,0,0,1-.12-1.62,9.15,9.15,0,0,1,.1-1.62,1.11,1.11,0,0,1,.46-.77,2.14,2.14,0,0,1,1.18-.25,1.91,1.91,0,0,1,1.09.24,1.07,1.07,0,0,1,.41.75,10.47,10.47,0,0,1,.09,1.64Zm-2.28-2.14a.65.65,0,0,0-.28.46,7.58,7.58,0,0,0-.06,1.15h1.94v-.12a5.38,5.38,0,0,0-.08-1.07.66.66,0,0,0-.27-.44,1.19,1.19,0,0,0-.57-.1A1.42,1.42,0,0,0,143.52,159.2Z"/><path class="b0b4bb68-a4ae-431e-a99c-7e7694b5782c" d="M76.55,175.42a1.66,1.66,0,0,1-.31-1.16,3.08,3.08,0,0,1,.11-.91.82.82,0,0,1,.39-.46,1.7,1.7,0,0,1,.78-.14c.19,0,.63,0,1.32.05v-.36a3.29,3.29,0,0,0-.09-.91.52.52,0,0,0-.31-.36,2.51,2.51,0,0,0-.74-.08l-.6,0-.61.08v-.58a6.24,6.24,0,0,1,1.41-.14,2.33,2.33,0,0,1,1,.17.91.91,0,0,1,.48.58,4.06,4.06,0,0,1,.13,1.2v3.23h-.63l0-.7h0a.93.93,0,0,1-.49.62,1.73,1.73,0,0,1-.78.16A1.37,1.37,0,0,1,76.55,175.42Zm1.81-.38a.57.57,0,0,0,.33-.36,3.16,3.16,0,0,0,.15-1.07v-.33H77.7a1.48,1.48,0,0,0-.48.06.45.45,0,0,0-.22.26,2.24,2.24,0,0,0-.06.61,2.09,2.09,0,0,0,.06.58.46.46,0,0,0,.25.26,1.46,1.46,0,0,0,.54.08A1.55,1.55,0,0,0,78.36,175Z"/><path class="b0b4bb68-a4ae-431e-a99c-7e7694b5782c" d="M83.38,175h0a1.05,1.05,0,0,1-.42.58,1.41,1.41,0,0,1-.84.21,1.5,1.5,0,0,1-.85-.2,1,1,0,0,1-.38-.61,5.6,5.6,0,0,1-.09-1.15v-3.22h.71v3a6.29,6.29,0,0,0,.06,1,.62.62,0,0,0,.25.41,1.23,1.23,0,0,0,.59.11.86.86,0,0,0,.66-.22,1,1,0,0,0,.26-.59,7.32,7.32,0,0,0,.06-1.08v-2.65h.71v5.1h-.63Z"/><path class="b0b4bb68-a4ae-431e-a99c-7e7694b5782c" d="M87.62,175.52a1.33,1.33,0,0,1-.43-.77,11.13,11.13,0,0,1,0-3.26,1.27,1.27,0,0,1,.42-.79,1.51,1.51,0,0,1,.9-.22,1.57,1.57,0,0,1,.77.16,1,1,0,0,1,.43.54h.05v-3h.71v7.43h-.63l0-.7h0a1,1,0,0,1-.46.62,1.79,1.79,0,0,1-.77.16A1.59,1.59,0,0,1,87.62,175.52Zm1.74-.56a.75.75,0,0,0,.29-.46,3.33,3.33,0,0,0,.09-.59c0-.21,0-.51,0-.88a5.43,5.43,0,0,0-.09-1.2.86.86,0,0,0-.3-.55,1,1,0,0,0-.61-.16,1.19,1.19,0,0,0-.65.13.76.76,0,0,0-.27.53,10.1,10.1,0,0,0-.06,1.33,8.34,8.34,0,0,0,.07,1.33.8.8,0,0,0,.26.53,1.36,1.36,0,0,0,.67.13A1.06,1.06,0,0,0,89.36,175Z"/><path class="b0b4bb68-a4ae-431e-a99c-7e7694b5782c" d="M91.71,169.06v-.83h.75v.83Zm0,6.6v-5.1h.71v5.1Z"/><path class="b0b4bb68-a4ae-431e-a99c-7e7694b5782c" d="M94,171.17h-.74v-.61H94v-.86a2.35,2.35,0,0,1,.15-1,.75.75,0,0,1,.49-.4,4.27,4.27,0,0,1,1-.09v.56a2.94,2.94,0,0,0-.61.05.4.4,0,0,0-.27.22,1.32,1.32,0,0,0-.07.51v1h1v.61h-1v4.49H94Z"/><path class="b0b4bb68-a4ae-431e-a99c-7e7694b5782c" d="M99.67,173.34H97.05a6.32,6.32,0,0,0,.07,1.16.68.68,0,0,0,.32.49,1.85,1.85,0,0,0,.83.14,7.29,7.29,0,0,0,1.26-.11v.58a5.24,5.24,0,0,1-.63.1c-.27,0-.53,0-.77,0A2.21,2.21,0,0,1,97,175.5a1.13,1.13,0,0,1-.49-.76,8.07,8.07,0,0,1-.12-1.62,9.15,9.15,0,0,1,.1-1.62,1.14,1.14,0,0,1,.46-.77,2.14,2.14,0,0,1,1.18-.25,1.89,1.89,0,0,1,1.09.24,1.07,1.07,0,0,1,.41.75,10.47,10.47,0,0,1,.09,1.64Zm-2.28-2.14a.65.65,0,0,0-.28.46,7.58,7.58,0,0,0-.06,1.15H99v-.12a5.38,5.38,0,0,0-.08-1.07.62.62,0,0,0-.27-.44,1.19,1.19,0,0,0-.57-.1A1.45,1.45,0,0,0,97.39,171.2Z"/><path class="b0b4bb68-a4ae-431e-a99c-7e7694b5782c" d="M100.78,170.56h.62l0,.95h.06a1.22,1.22,0,0,1,.45-.81,1.52,1.52,0,0,1,.87-.22v.72a1.28,1.28,0,0,0-.81.22,1.17,1.17,0,0,0-.41.65,5.15,5.15,0,0,0-.11,1.17v2.42h-.71Z"/><path class="b0b4bb68-a4ae-431e-a99c-7e7694b5782c" d="M103.61,169.06v-.83h.75v.83Zm0,6.6v-5.1h.71v5.1Z"/><path class="b0b4bb68-a4ae-431e-a99c-7e7694b5782c" d="M105.9,175.66v-4.49h-.74v-.61h.74v-1.48h.71v1.48h.88v.61h-.88v4.49Z"/><path class="b0b4bb68-a4ae-431e-a99c-7e7694b5782c" d="M111.49,173.34h-2.62a6.32,6.32,0,0,0,.07,1.16.68.68,0,0,0,.32.49,1.85,1.85,0,0,0,.83.14,7.29,7.29,0,0,0,1.26-.11v.58a4.93,4.93,0,0,1-.63.1c-.27,0-.53,0-.77,0a2.24,2.24,0,0,1-1.18-.24,1.13,1.13,0,0,1-.49-.76,8.07,8.07,0,0,1-.12-1.62,9.15,9.15,0,0,1,.1-1.62,1.11,1.11,0,0,1,.46-.77,2.14,2.14,0,0,1,1.18-.25,1.91,1.91,0,0,1,1.09.24,1.07,1.07,0,0,1,.41.75,10.47,10.47,0,0,1,.09,1.64Zm-2.28-2.14a.65.65,0,0,0-.28.46,7.58,7.58,0,0,0-.06,1.15h1.94v-.12a5.38,5.38,0,0,0-.08-1.07.66.66,0,0,0-.27-.44,1.19,1.19,0,0,0-.57-.1A1.42,1.42,0,0,0,109.21,171.2Z"/><path class="b0b4bb68-a4ae-431e-a99c-7e7694b5782c" d="M114.54,175.42a1.66,1.66,0,0,1-.31-1.16,3.08,3.08,0,0,1,.11-.91.82.82,0,0,1,.39-.46,1.67,1.67,0,0,1,.78-.14c.19,0,.63,0,1.32.05v-.36a3.29,3.29,0,0,0-.09-.91.52.52,0,0,0-.31-.36,2.56,2.56,0,0,0-.74-.08l-.6,0-.61.08v-.58a6.24,6.24,0,0,1,1.41-.14,2.33,2.33,0,0,1,1,.17.91.91,0,0,1,.48.58,4.43,4.43,0,0,1,.13,1.2v3.23h-.63l0-.7h-.05a.93.93,0,0,1-.49.62,1.73,1.73,0,0,1-.78.16A1.36,1.36,0,0,1,114.54,175.42Zm1.81-.38a.59.59,0,0,0,.33-.36,3.16,3.16,0,0,0,.15-1.07v-.33h-1.14a1.43,1.43,0,0,0-.48.06.45.45,0,0,0-.22.26,2.24,2.24,0,0,0-.06.61,2.09,2.09,0,0,0,.06.58.46.46,0,0,0,.25.26,1.46,1.46,0,0,0,.54.08A1.55,1.55,0,0,0,116.35,175Z"/><path class="b0b4bb68-a4ae-431e-a99c-7e7694b5782c" d="M119.08,171.17h-.74v-.61h.74v-.86a2.35,2.35,0,0,1,.15-1,.75.75,0,0,1,.49-.4,4.27,4.27,0,0,1,1-.09v.56a2.87,2.87,0,0,0-.61.05.4.4,0,0,0-.27.22,1.32,1.32,0,0,0-.07.51v1h.95v.61h-.95v4.49h-.71Z"/><path class="b0b4bb68-a4ae-431e-a99c-7e7694b5782c" d="M124.75,173.34h-2.62a6.32,6.32,0,0,0,.07,1.16.68.68,0,0,0,.32.49,1.85,1.85,0,0,0,.83.14,7.29,7.29,0,0,0,1.26-.11v.58a5.24,5.24,0,0,1-.63.1c-.27,0-.53,0-.77,0a2.24,2.24,0,0,1-1.18-.24,1.13,1.13,0,0,1-.49-.76,8.07,8.07,0,0,1-.12-1.62,9.15,9.15,0,0,1,.1-1.62,1.11,1.11,0,0,1,.46-.77,2.14,2.14,0,0,1,1.18-.25,1.91,1.91,0,0,1,1.09.24,1.07,1.07,0,0,1,.41.75,10.47,10.47,0,0,1,.09,1.64Zm-2.28-2.14a.65.65,0,0,0-.28.46,7.58,7.58,0,0,0-.06,1.15h1.94v-.12a5.38,5.38,0,0,0-.08-1.07.66.66,0,0,0-.27-.44,1.19,1.19,0,0,0-.57-.1A1.42,1.42,0,0,0,122.47,171.2Z"/><path class="b0b4bb68-a4ae-431e-a99c-7e7694b5782c" d="M127.9,175.7a3.73,3.73,0,0,1-.57,0,1.84,1.84,0,0,1-1.09-.26,1.22,1.22,0,0,1-.44-.79,8.93,8.93,0,0,1-.1-1.58,8,8,0,0,1,.12-1.6,1.33,1.33,0,0,1,.47-.79,1.74,1.74,0,0,1,1-.24l.58,0a3,3,0,0,1,.48.1v.58a3.82,3.82,0,0,0-.9-.1,1.28,1.28,0,0,0-.7.15.88.88,0,0,0-.29.56,8.07,8.07,0,0,0-.07,1.3,8.44,8.44,0,0,0,.07,1.32.82.82,0,0,0,.3.56,1.25,1.25,0,0,0,.7.15,3.74,3.74,0,0,0,.92-.11v.59A2.82,2.82,0,0,1,127.9,175.7Z"/><path class="b0b4bb68-a4ae-431e-a99c-7e7694b5782c" d="M129.68,175.66v-4.49h-.74v-.61h.74v-1.48h.71v1.48h.88v.61h-.88v4.49Zm.29,2.09a.8.8,0,0,0,.09-.45v-.16h-.33v-.86h.8v.78a2.92,2.92,0,0,1-.07.71.49.49,0,0,1-.28.33,1.44,1.44,0,0,1-.63.1v-.34A.57.57,0,0,0,130,177.75Z"/><path class="b0b4bb68-a4ae-431e-a99c-7e7694b5782c" d="M132.08,169.06v-.83h.75v.83Zm0,6.6v-5.1h.71v5.1Z"/><path class="b0b4bb68-a4ae-431e-a99c-7e7694b5782c" d="M136.66,175h0a1.05,1.05,0,0,1-.42.58,1.43,1.43,0,0,1-.84.21,1.5,1.5,0,0,1-.85-.2,1,1,0,0,1-.38-.61,5.6,5.6,0,0,1-.09-1.15v-3.22h.71v3a6.29,6.29,0,0,0,.06,1,.62.62,0,0,0,.25.41,1.2,1.2,0,0,0,.59.11.86.86,0,0,0,.66-.22,1,1,0,0,0,.26-.59,7.32,7.32,0,0,0,.06-1.08v-2.65h.71v5.1h-.63Z"/><path class="b0b4bb68-a4ae-431e-a99c-7e7694b5782c" d="M141.18,172.68a5.14,5.14,0,0,0-.07-1,.58.58,0,0,0-.24-.42,1.25,1.25,0,0,0-.59-.1.87.87,0,0,0-.67.22,1,1,0,0,0-.26.59,7.43,7.43,0,0,0,0,1.08v2.65h-.71v-5.1h.62l0,.71h.06a1.11,1.11,0,0,1,.41-.59,1.55,1.55,0,0,1,.85-.2,1.41,1.41,0,0,1,.84.2.94.94,0,0,1,.38.6,5,5,0,0,1,.1,1.16v3.22h-.71Z"/><path class="b0b4bb68-a4ae-431e-a99c-7e7694b5782c" d="M143.1,169.06v-.83h.75v.83Zm0,6.6v-5.1h.71v5.1Z"/><path class="b0b4bb68-a4ae-431e-a99c-7e7694b5782c" d="M145,175.66v-.9h.82v.9Z"/><path class="f602486b-c7f3-4e5e-96d9-f770a4651171" d="M129.6,50.56a14.08,14.08,0,1,1-14.08-14.08A14.08,14.08,0,0,1,129.6,50.56"/><rect class="f6dea3c2-76d5-459d-bff2-9b438bb104a9" x="111.53" y="45.44" width="10.18" height="0.09"/><rect class="f6dea3c2-76d5-459d-bff2-9b438bb104a9" x="111.53" y="47.12" width="10.18" height="0.09"/><rect class="f6dea3c2-76d5-459d-bff2-9b438bb104a9" x="111.53" y="48.76" width="10.18" height="0.09"/><rect class="f6dea3c2-76d5-459d-bff2-9b438bb104a9" x="111.53" y="50.31" width="10.18" height="0.09"/><path class="f6dea3c2-76d5-459d-bff2-9b438bb104a9" d="M123.68,54.06H109.55a.42.42,0,0,1-.43-.42V44a.43.43,0,0,1,.43-.43h14.13a.43.43,0,0,1,.43.43v9.62a.42.42,0,0,1-.43.42"/><path class="f602486b-c7f3-4e5e-96d9-f770a4651171" d="M123.68,54.15H109.55a.51.51,0,0,1-.51-.51V44a.51.51,0,0,1,.51-.51h14.13a.51.51,0,0,1,.51.51v9.62A.51.51,0,0,1,123.68,54.15ZM109.55,43.68a.34.34,0,0,0-.34.34v9.62a.34.34,0,0,0,.34.34h14.13a.34.34,0,0,0,.34-.34V44a.34.34,0,0,0-.34-.34Z"/><rect class="f602486b-c7f3-4e5e-96d9-f770a4651171" x="112.21" y="47.32" width="10.18" height="0.33"/><rect class="f602486b-c7f3-4e5e-96d9-f770a4651171" x="112.21" y="48.96" width="10.18" height="0.33"/><rect class="f602486b-c7f3-4e5e-96d9-f770a4651171" x="112.21" y="50.51" width="10.18" height="0.33"/><path class="f6dea3c2-76d5-459d-bff2-9b438bb104a9" d="M120.18,46.55v8a.53.53,0,0,1-.53.53H108.76l-2,2.27.39-2.27a.52.52,0,0,1-.52-.53v-8a.52.52,0,0,1,.52-.53h12.52a.53.53,0,0,1,.53.53"/><path class="f602486b-c7f3-4e5e-96d9-f770a4651171" d="M106.52,57.82l.45-2.6a.68.68,0,0,1-.5-.65v-8a.67.67,0,0,1,.66-.67h12.52a.66.66,0,0,1,.66.67v8a.66.66,0,0,1-.66.67H108.82Zm.61-11.66a.39.39,0,0,0-.39.39v8a.39.39,0,0,0,.39.39h.17l-.34,2,1.74-2h11a.39.39,0,0,0,.39-.39v-8a.39.39,0,0,0-.39-.39Z"/><polygon class="f6dea3c2-76d5-459d-bff2-9b438bb104a9" points="123.31 53.86 123.7 56.13 121.68 53.86 123.31 53.86"/><rect class="f602486b-c7f3-4e5e-96d9-f770a4651171" x="108.3" y="47.96" width="10.18" height="0.33"/><rect class="f602486b-c7f3-4e5e-96d9-f770a4651171" x="108.3" y="49.64" width="10.18" height="0.33"/><rect class="f602486b-c7f3-4e5e-96d9-f770a4651171" x="108.3" y="51.28" width="10.18" height="0.33"/><rect class="f602486b-c7f3-4e5e-96d9-f770a4651171" x="108.3" y="52.83" width="10.18" height="0.33"/><path class="e1223bcc-8b7f-4b24-b61c-ac2fd2205da6" d="M173.16,63.6a13.25,13.25,0,1,0-13.24-13.24A13.24,13.24,0,0,0,173.16,63.6"/><path class="ea4958a8-925b-464d-a62d-f3a4fc1265e8" d="M176,40.93,173.72,53l1.6.32c3.36-2.47,4.81-12.42.63-12.42Z"/><path class="ea4958a8-925b-464d-a62d-f3a4fc1265e8" d="M176,40.93a7.16,7.16,0,0,0-5.73,0c-2.74,1.48-5.14,6.74-1.27,12.1,0,0,2.86-.32,2.86-.32Z"/><path class="bd8bd44a-44b3-490e-90dc-1329f5524e78" d="M175.54,53.56v6.06l-.28.3-.16.17,0,0H175l-.15,0-.08,0-.08,0h0l-.2,0-.12,0h0l-.13,0h-.34l-.19,0h-1.8l-.19,0h-.09l-.24,0-.12,0h-.12l-.49-.54v-6h0s0,0,0,0a.27.27,0,0,0,.08-.07s0,0,0,0,0,0,0,0h0a.51.51,0,0,0,.09-.13h0A1.34,1.34,0,0,0,171,53a3.64,3.64,0,0,0,.11-1.1v-.63H175v.63h0a5.47,5.47,0,0,0,0,.7l0,.17s0,.11,0,.16l.06.16.07.15A1.45,1.45,0,0,0,175.54,53.56Z"/><path class="bd8bd44a-44b3-490e-90dc-1329f5524e78" d="M177.54,46.66c0,2.55-2.53,5.73-4.45,5.73s-4.46-3.18-4.46-5.73,2-3.5,4.46-3.5,4.45,1,4.45,3.5Z"/><path class="ea4958a8-925b-464d-a62d-f3a4fc1265e8" d="M173.72,41.57a6.38,6.38,0,0,0-1.23.38l0-.06-.18.14-.46.18.08.12c-1.21,1-4,3.13-4.21,3.38s1.91,8.44,1.91,3.82c0-3.86,2.14-4.63,4.13-5.09A1.52,1.52,0,0,0,175,43.16c.1-.53-1-1.59-1.28-1.59Z"/><path class="ea4958a8-925b-464d-a62d-f3a4fc1265e8" d="M174.68,43.48c.58,2.1,1.75,3,2.84,3.32.6.16.34-1.73.34-1.73s-.85-2.17-1-2.23a20.08,20.08,0,0,1-1-1.91L174,42.53Z"/><path class="bd8bd44a-44b3-490e-90dc-1329f5524e78" d="M177.07,46.69c.52-.12.86.14.86.64,0,.66-.7,2.29-1.43,1.27s.57-1.91.57-1.91Z"/><path class="b0dc5907-22bd-4091-b45b-7f733c759323" d="M181.83,55.06c-.11.22-.24.43-.37.64s-.19.29-.3.44l0,0v0l-.12.16,0,0h0l-.12.16v0l-.1.11h0l-.06.07,0,.05,0,0,0,0-.17.19-.09.09a.19.19,0,0,1-.06.07l-.06.06-.11.12-.06.06a.6.6,0,0,0-.08.08l-.09.08h0l0,0s0,0,0,0l-.19.16a.27.27,0,0,1-.08.07h0l0,0a2.31,2.31,0,0,1-.24.2h0l-.08.06h0l-.28.21,0,0,0,0-.21.15-.07,0-.09.06-.11.07h0c-.08.06-.16.1-.24.15h0l-.22.12-.06,0a7.45,7.45,0,0,1-.75.37l-.24.11-.28.1-.05,0-.1,0h0l-.32.11-.26.08-.3.07-.27.07H175l-.15,0-.08,0-.08,0h0l-.2,0-.12,0h0l-.13,0h-.34l-.19,0h-1.8l-.19,0h-.09l-.24,0-.12,0h-.12l-.22-.05-.09,0h-.1l-.12,0-.3-.08-.2,0-.19-.07-.08,0-.07,0h0l-.33-.12c-.1-.05-.2-.08-.3-.12h0l-.3-.14-.13-.07-.17-.08-.25-.13h0l-.1-.06-.28-.16h0l0,0h0l-.08-.06-.13-.08h0l-.1-.06,0,0-.13-.1-.16-.11h0c-.14-.11-.29-.22-.42-.34l-.11-.08a.46.46,0,0,1-.07-.07l-.14-.11-.09-.08-.09-.09-.13-.12,0,0h0l-.07-.06,0,0h0l-.18-.18-.05-.07-.06-.06,0-.06h0l-.07-.08-.11-.13-.13-.15,0,0-.06-.07v0a.05.05,0,0,1,0,0l0,0-.06-.08s0,0-.06-.07v0c-.07-.1-.15-.2-.22-.31s-.32-.49-.47-.74l.11-.22,3.61-.89h0l.11,0,.11,0,.42-.1h0l.1,0h0l.1,0h0l.12,0,.1,0h0l.31-.08.44-.11.13,0,.62-.16.06.09a2,2,0,0,0,.22.29,2.87,2.87,0,0,0,.39.39l0,0a2.91,2.91,0,0,0,1.42.6h0a2.31,2.31,0,0,0,.37,0h0l.36,0h0a2.92,2.92,0,0,0,1.35-.54l.24-.2a3.39,3.39,0,0,0,.31-.34h0a2,2,0,0,0,.17-.23l.06-.09.62.15.68.17.16,0,.08,0,.44.11.46.11h0l.13,0h0l3.62.89Z"/><path class="f6dea3c2-76d5-459d-bff2-9b438bb104a9" d="M175.12,54.14v6H175l-.15,0-.08,0-.08,0h0l-.2,0-.12,0h0l-.13,0h-.34l-.19,0h-1.8l-.19,0h-.09l-.24,0-.12,0v-6h0a2.68,2.68,0,0,0,3.61,0Z"/><path class="b0dc5907-22bd-4091-b45b-7f733c759323" d="M172.71,60.34h-.85l-.19,0h-.09l-.24,0-.12,0h-.08l0,0-.88-.5,0-2.75.35-2.31.12-.8.1.06.39.25,0,.17Z"/><path class="b0dc5907-22bd-4091-b45b-7f733c759323" d="M175.88,59.66l-.78.43-.09,0-.15,0-.08,0-.08,0h0l-.2,0-.12,0h0l-.13,0h-.34l-.19,0h-.27l1.43-6,.05-.23.5-.31h0l.17,1.13.3,2Z"/><path class="bcec5d47-d659-4c84-9de2-c1e8905349d8" d="M169.14,57a.78.78,0,1,1-.78.78.78.78,0,0,1,.78-.78Z"/><path class="bcec5d47-d659-4c84-9de2-c1e8905349d8" d="M169.14,57.46a.2.2,0,0,1-.2-.2c0-3.36,1.59-4.28,1.66-4.32a.21.21,0,0,1,.27.08.2.2,0,0,1-.08.26s-1.46.88-1.46,4a.19.19,0,0,1-.19.2Z"/><path class="e0d4c974-81f1-443a-9211-a1ee2f44c4ad" d="M169.14,57.37a.41.41,0,0,1,.41.41.41.41,0,1,1-.82,0,.41.41,0,0,1,.41-.41Z"/><path class="bcec5d47-d659-4c84-9de2-c1e8905349d8" d="M177.9,58.67l-.32-.22a3.13,3.13,0,0,0,.44-1.7c0-1.16-.5-2.15-1.1-2.15s-1.1,1-1.1,2.15a3,3,0,0,0,.45,1.7l-.32.22a3.47,3.47,0,0,1-.52-1.92c0-1.42.65-2.53,1.49-2.53s1.49,1.11,1.49,2.53a3.56,3.56,0,0,1-.51,1.92Z"/><path class="bcec5d47-d659-4c84-9de2-c1e8905349d8" d="M176.92,54.61a.19.19,0,0,1-.18-.13,1.54,1.54,0,0,0-.45-.69.19.19,0,0,1,.22-.32,1.78,1.78,0,0,1,.59.88.18.18,0,0,1-.11.24l-.07,0Z"/><path class="b668fffa-ffa6-4ed9-857b-bc190bfb8677" d="M176,58.27a.28.28,0,1,1-.27.28.28.28,0,0,1,.27-.28Z"/><path class="b668fffa-ffa6-4ed9-857b-bc190bfb8677" d="M177.67,58.27a.28.28,0,0,1,0,.56.28.28,0,1,1,0-.56Z"/><path class="bd8bd44a-44b3-490e-90dc-1329f5524e78" d="M175.55,53.57a3.1,3.1,0,0,1-5,0l0,0Z"/><path class="e1223bcc-8b7f-4b24-b61c-ac2fd2205da6" d="M50.51,266a13.25,13.25,0,1,0-13.24-13.24A13.25,13.25,0,0,0,50.51,266"/><path class="ea4958a8-925b-464d-a62d-f3a4fc1265e8" d="M53.3,243.35l-2.22,12.09,1.59.32c3.37-2.47,4.81-12.41.63-12.41Z"/><path class="ea4958a8-925b-464d-a62d-f3a4fc1265e8" d="M53.3,243.35a7.08,7.08,0,0,0-5.73,0c-2.74,1.47-5.14,6.73-1.27,12.09,0,0,2.87-.32,2.87-.32Z"/><path class="bd8bd44a-44b3-490e-90dc-1329f5524e78" d="M52.89,256V262l-.27.3-.17.18,0,0h0l-.15,0-.08,0-.08,0h0l-.19,0-.13,0h0l-.13,0H49.89l-.28,0h-.4l-.19,0h-.09l-.24,0-.12,0h-.12L48,262v-6h0a.08.08,0,0,0,0,0,.27.27,0,0,0,.08-.07.08.08,0,0,0,0,0l0,0h0a.64.64,0,0,0,.1-.13h0a1.34,1.34,0,0,0,.13-.27,3.64,3.64,0,0,0,.11-1.1v-.63h3.84v.63h0c0,.23,0,.47,0,.7l0,.17,0,.16.06.16.07.15A1.28,1.28,0,0,0,52.89,256Z"/><path class="bd8bd44a-44b3-490e-90dc-1329f5524e78" d="M54.89,249.07c0,2.55-2.53,5.73-4.45,5.73S46,251.62,46,249.07s2-3.5,4.46-3.5,4.45,1,4.45,3.5Z"/><path class="ea4958a8-925b-464d-a62d-f3a4fc1265e8" d="M51.08,244a6.42,6.42,0,0,0-1.24.38l0-.06-.18.14-.45.18.07.12c-1.21.95-4,3.13-4.21,3.38s1.91,8.44,1.91,3.82c0-3.86,2.14-4.62,4.14-5.09a1.52,1.52,0,0,0,1.27-1.28c.1-.53-1-1.59-1.27-1.59Z"/><path class="ea4958a8-925b-464d-a62d-f3a4fc1265e8" d="M52,245.89c.58,2.1,1.75,3.05,2.84,3.32.6.16.34-1.73.34-1.73s-.85-2.17-1-2.22a21.34,21.34,0,0,1-1-1.91l-1.91,1.59Z"/><path class="bd8bd44a-44b3-490e-90dc-1329f5524e78" d="M54.42,249.1c.52-.12.86.14.86.64,0,.66-.7,2.29-1.43,1.27s.57-1.91.57-1.91Z"/><path class="b0dc5907-22bd-4091-b45b-7f733c759323" d="M59.18,257.47a5.89,5.89,0,0,1-.37.64c-.09.15-.19.29-.3.44l0,0v0a.91.91,0,0,0-.11.16l0,0h0l-.12.16v0l-.1.11h0s0,.05-.06.08,0,0,0,0l0,0,0,0-.17.19-.09.1,0,.06-.07.06-.11.12-.06.06-.08.08-.09.08h0l0,0-.05.05-.18.16-.09.07h0l0,0-.23.19h0l-.08.06h0l-.28.21,0,0,0,0a1.1,1.1,0,0,1-.21.14l-.07.05-.09.06-.11.07h0l-.24.15h0l-.22.12-.06,0c-.24.14-.49.26-.75.38l-.24.1-.28.11-.05,0-.09,0h0l-.31.11-.27.08-.3.08-.27.06h-.17l-.15,0-.08,0-.08,0h0l-.19,0-.13,0h0l-.13,0H49.89l-.28,0h-.4l-.19,0h-.09l-.24,0-.12,0h-.12l-.22-.05-.08,0h-.1l-.12,0-.31-.08-.2-.05-.19-.07-.08,0-.07,0h0l-.33-.12-.3-.12h0l-.3-.14-.13-.06-.17-.09-.24-.13h0l-.11-.06-.28-.16h0l0,0h0l-.08-.06-.13-.08h0l-.1-.06,0,0-.13-.1-.16-.11h0l-.42-.33-.11-.09-.07-.07-.14-.11a.34.34,0,0,0-.09-.08l-.09-.09-.12-.12,0,0h0l-.07-.06,0,0h0l-.18-.18-.05-.06L43,259.5l-.05-.06h0v0l-.07-.07-.11-.14-.13-.15,0,0,0-.07,0,0a.05.05,0,0,1,0,0l0,0a.27.27,0,0,1-.07-.08l-.05-.07,0,0-.22-.3c-.16-.25-.32-.49-.46-.75l.1-.22,3.61-.89h0l.11,0,.12,0,.41-.1h0l.1,0h0l.1,0h0l.12,0,.1,0h0l.31-.08.44-.1.13,0,.63-.16A.41.41,0,0,0,48,256a3.15,3.15,0,0,0,.22.29,2.4,2.4,0,0,0,.39.39l0,0a2.84,2.84,0,0,0,1.41.6h0l.36,0h0l.36,0h0a2.92,2.92,0,0,0,1.35-.54l.24-.2a3.39,3.39,0,0,0,.31-.34h0a2,2,0,0,0,.17-.23l.06-.09.62.15.68.17.16,0,.09,0,.43.11.46.11h0l.13,0h0l3.63.89Z"/><path class="f6dea3c2-76d5-459d-bff2-9b438bb104a9" d="M52.47,256.55v6h-.11l-.15,0-.08,0-.08,0h0l-.19,0-.13,0h0l-.13,0H49.89l-.28,0h-.4l-.19,0h-.09l-.24,0-.12,0v-6.05h0a2.68,2.68,0,0,0,3.61,0Z"/><path class="b0dc5907-22bd-4091-b45b-7f733c759323" d="M50.06,262.75h-.17l-.28,0h-.4l-.19,0h-.09l-.24,0-.12,0h-.08l0,0-.88-.5,0-2.74L48,257l.12-.8.1.06.39.25,0,.17Z"/><path class="b0dc5907-22bd-4091-b45b-7f733c759323" d="M53.23,262.07l-.78.44-.09.05-.15,0-.08,0-.08,0h0l-.19,0-.13,0h0l-.13,0h-.8l1.43-6,0-.23.5-.31h0l.17,1.13.3,2Z"/><path class="bcec5d47-d659-4c84-9de2-c1e8905349d8" d="M46.49,259.42a.77.77,0,0,1,.78.77.78.78,0,1,1-1.56,0,.77.77,0,0,1,.78-.77Z"/><path class="bcec5d47-d659-4c84-9de2-c1e8905349d8" d="M46.49,259.87a.19.19,0,0,1-.19-.19c0-3.37,1.58-4.29,1.65-4.33a.21.21,0,0,1,.27.08.19.19,0,0,1-.08.26s-1.46.88-1.46,4a.19.19,0,0,1-.19.19Z"/><path class="e0d4c974-81f1-443a-9211-a1ee2f44c4ad" d="M46.49,259.78a.42.42,0,1,1-.41.41.41.41,0,0,1,.41-.41Z"/><path class="bcec5d47-d659-4c84-9de2-c1e8905349d8" d="M55.25,261.08l-.32-.22a3.1,3.1,0,0,0,.45-1.7c0-1.16-.51-2.14-1.11-2.14s-1.1,1-1.1,2.14a3,3,0,0,0,.45,1.7l-.32.22a3.45,3.45,0,0,1-.52-1.92c0-1.42.66-2.53,1.49-2.53s1.49,1.11,1.49,2.53a3.45,3.45,0,0,1-.51,1.92Z"/><path class="bcec5d47-d659-4c84-9de2-c1e8905349d8" d="M54.27,257a.19.19,0,0,1-.18-.13,1.62,1.62,0,0,0-.45-.69.19.19,0,0,1,0-.27.21.21,0,0,1,.28-.05,2,2,0,0,1,.59.88.21.21,0,0,1-.12.25Z"/><path class="b668fffa-ffa6-4ed9-857b-bc190bfb8677" d="M53.37,260.69a.27.27,0,0,1,.27.27.28.28,0,1,1-.55,0,.27.27,0,0,1,.28-.27Z"/><path class="b668fffa-ffa6-4ed9-857b-bc190bfb8677" d="M55,260.69a.27.27,0,0,1,.27.27.28.28,0,0,1-.27.28.29.29,0,0,1-.28-.28.28.28,0,0,1,.28-.27Z"/><path class="bd8bd44a-44b3-490e-90dc-1329f5524e78" d="M52.9,256a3.1,3.1,0,0,1-5,0l0,0Z"/></g></svg>