<svg xmlns="http://www.w3.org/2000/svg" viewBox="0 0 223.23 311.81"><defs><style>.f7a2e45b-dcd3-446b-9b1a-50c77181330a{fill:#f05123;}.a7078a6e-f417-48d9-ac22-d29ab2e30e2d,.e8597c3b-523d-49dd-8e80-7fd512b2a494{fill:#fff;}.a6f11fd6-43b7-4ef5-a52e-6e595541bdec,.f2d424b7-8278-4afa-ab1c-0967d6163292{fill:none;stroke:#fff;}.a6f11fd6-43b7-4ef5-a52e-6e595541bdec,.a7078a6e-f417-48d9-ac22-d29ab2e30e2d,.f2d424b7-8278-4afa-ab1c-0967d6163292{stroke-miterlimit:10;}.a6f11fd6-43b7-4ef5-a52e-6e595541bdec{stroke-width:0.03px;}.f2d424b7-8278-4afa-ab1c-0967d6163292{stroke-width:0.05px;}.b55e60c7-e899-46d9-8851-f56729d7234a{fill:#2a2664;}.ebf627ba-64de-4fa5-9cd6-c8133c4bc72d{fill:#4d4e4f;}.a7078a6e-f417-48d9-ac22-d29ab2e30e2d{stroke:#f15b2b;stroke-width:1.5px;}.b2dc2873-1079-4ecf-8e06-08a494c04399{fill:#dfe0e2;}.af5d0aa3-b2c6-4407-8a18-ddc17d9d8453{fill:#fedc00;}.e54571fb-6b96-43e2-8776-84ad68766265{fill:#f2a31e;}.a7791936-7332-4074-9f77-44f295eee8b6{fill:#ec4a55;}.a86acda3-d41f-4fba-ac7d-e69b8c2f8cc4{fill:#21baae;}.bc92fed3-208f-4a25-8297-fe89ed2c8edb{fill:#0d6874;}.acd81e65-a8e1-46e1-9a3c-55e5d01a6cef{fill:#65318d;}.aff9fd97-df0d-49a7-a0f6-8c3d0fc42742{fill:#f15b2b;}</style></defs><g id="b7a319bf-01f9-4832-a84d-0f712cf06b9d" data-name="Layer 5"><rect class="f7a2e45b-dcd3-446b-9b1a-50c77181330a" width="223.23" height="23.73"/><rect class="f7a2e45b-dcd3-446b-9b1a-50c77181330a" y="279.44" width="223.23" height="32.37"/><rect class="f7a2e45b-dcd3-446b-9b1a-50c77181330a" x="-122.31" y="142.04" width="268.35" height="23.73" transform="translate(165.77 142.04) rotate(90)"/><rect class="f7a2e45b-dcd3-446b-9b1a-50c77181330a" x="77.19" y="144.04" width="268.35" height="23.73" transform="translate(367.27 -55.46) rotate(90)"/><path class="e8597c3b-523d-49dd-8e80-7fd512b2a494" d="M62.5,293.38l-.41,0a1.68,1.68,0,0,1-.92-.19,1,1,0,0,1-.39-.69,11.4,11.4,0,0,1,0-3.16,1,1,0,0,1,.39-.7,1.78,1.78,0,0,1,.92-.19l.41,0a2.3,2.3,0,0,1,.36.07V289a4.65,4.65,0,0,0-.66-.07,1.37,1.37,0,0,0-.68.13.68.68,0,0,0-.25.52,15.33,15.33,0,0,0,0,2.71.68.68,0,0,0,.25.52,1.27,1.27,0,0,0,.68.13,3.82,3.82,0,0,0,.68-.06v.44Z"/><path class="e8597c3b-523d-49dd-8e80-7fd512b2a494" d="M63.56,293.18a1.15,1.15,0,0,1-.22-.82,2.05,2.05,0,0,1,.08-.63.6.6,0,0,1,.27-.33,1.34,1.34,0,0,1,.55-.09l.92,0v-.25a2.36,2.36,0,0,0-.06-.63.37.37,0,0,0-.22-.26,1.87,1.87,0,0,0-.52-.06l-.41,0-.43.05v-.4a4.34,4.34,0,0,1,1-.1,1.69,1.69,0,0,1,.73.12.65.65,0,0,1,.34.4,3,3,0,0,1,.09.84v2.26h-.44l0-.49h0a.66.66,0,0,1-.34.44,1.31,1.31,0,0,1-.55.11A.93.93,0,0,1,63.56,293.18Zm1.26-.27a.42.42,0,0,0,.24-.25,2.23,2.23,0,0,0,.1-.75v-.23h-.8a.92.92,0,0,0-.33,0,.27.27,0,0,0-.15.19,1.4,1.4,0,0,0-.05.42,1.25,1.25,0,0,0,.05.4.29.29,0,0,0,.17.19.94.94,0,0,0,.38.05A1.07,1.07,0,0,0,64.82,292.91Z"/><path class="e8597c3b-523d-49dd-8e80-7fd512b2a494" d="M66.52,289.77H67l0,.67h0a.87.87,0,0,1,.32-.57,1.1,1.1,0,0,1,.61-.15v.5a.88.88,0,0,0-.57.16.75.75,0,0,0-.28.45,3.1,3.1,0,0,0-.08.82v1.69h-.5Z"/><path class="e8597c3b-523d-49dd-8e80-7fd512b2a494" d="M70.73,291.72H68.9a5.08,5.08,0,0,0,0,.82.48.48,0,0,0,.23.34,1.29,1.29,0,0,0,.57.09,4.91,4.91,0,0,0,.88-.07v.4a2.7,2.7,0,0,1-.44.07l-.54,0a1.69,1.69,0,0,1-.82-.16.8.8,0,0,1-.34-.54,5.25,5.25,0,0,1-.09-1.13,7.32,7.32,0,0,1,.07-1.13.84.84,0,0,1,.33-.55,1.54,1.54,0,0,1,.82-.17,1.26,1.26,0,0,1,.76.17.73.73,0,0,1,.29.52,7.76,7.76,0,0,1,.06,1.15Zm-1.59-1.5a.46.46,0,0,0-.2.33,5.09,5.09,0,0,0,0,.8h1.36v-.09a3.28,3.28,0,0,0-.06-.74.48.48,0,0,0-.18-.31.86.86,0,0,0-.41-.07A1,1,0,0,0,69.14,290.22Z"/><path class="e8597c3b-523d-49dd-8e80-7fd512b2a494" d="M73.73,291.72H71.89a4,4,0,0,0,.06.82.47.47,0,0,0,.22.34,1.37,1.37,0,0,0,.58.09,5,5,0,0,0,.88-.07v.4a2.9,2.9,0,0,1-.44.07l-.54,0a1.73,1.73,0,0,1-.83-.16.84.84,0,0,1-.34-.54,8.55,8.55,0,0,1,0-2.26.79.79,0,0,1,.32-.55,1.58,1.58,0,0,1,.83-.17,1.28,1.28,0,0,1,.76.17.77.77,0,0,1,.29.52,7.76,7.76,0,0,1,.06,1.15Zm-1.6-1.5a.49.49,0,0,0-.19.33,4.8,4.8,0,0,0,0,.8h1.36v-.09a4.23,4.23,0,0,0,0-.74.45.45,0,0,0-.19-.31.84.84,0,0,0-.4-.07A1.12,1.12,0,0,0,72.13,290.22Z"/><path class="e8597c3b-523d-49dd-8e80-7fd512b2a494" d="M74.51,289.77h.43l0,.67h0a.87.87,0,0,1,.32-.57,1.07,1.07,0,0,1,.6-.15v.5a.85.85,0,0,0-.56.16.81.81,0,0,0-.29.45,3.59,3.59,0,0,0-.08.82v1.69h-.49Z"/><path class="e8597c3b-523d-49dd-8e80-7fd512b2a494" d="M77.89,288.53h1.47a1,1,0,0,1,.85.31,1.35,1.35,0,0,1,.26.89,1.56,1.56,0,0,1-.17.78.87.87,0,0,1-.54.36v0a.81.81,0,0,1,.59.39,1.67,1.67,0,0,1,.16.8,1.48,1.48,0,0,1-.25.92,1.09,1.09,0,0,1-.93.34H77.89Zm1.87,1.94a1,1,0,0,0,.19-.64,1.55,1.55,0,0,0-.07-.49.46.46,0,0,0-.22-.27,1,1,0,0,0-.45-.08h-.8v1.68h.8A.71.71,0,0,0,79.76,290.47Zm.06,2.22A1.1,1.1,0,0,0,80,292a1.07,1.07,0,0,0-.17-.68.72.72,0,0,0-.58-.2h-.82v1.75h.82A.72.72,0,0,0,79.82,292.69Z"/><path class="e8597c3b-523d-49dd-8e80-7fd512b2a494" d="M83.11,292.85h0a.76.76,0,0,1-.29.41,1.31,1.31,0,0,1-1.18,0,.71.71,0,0,1-.27-.42,4.17,4.17,0,0,1-.06-.81v-2.26h.49v2.09a4,4,0,0,0,0,.73.44.44,0,0,0,.17.29.86.86,0,0,0,.41.07.65.65,0,0,0,.47-.15.68.68,0,0,0,.18-.41,5,5,0,0,0,0-.76v-1.86h.5v3.57h-.44Z"/><path class="e8597c3b-523d-49dd-8e80-7fd512b2a494" d="M84.82,293.38l-.45-.06v-.42a5.52,5.52,0,0,0,.92.08.84.84,0,0,0,.4-.07.35.35,0,0,0,.18-.2,1.37,1.37,0,0,0,0-.34,1.64,1.64,0,0,0,0-.37.21.21,0,0,0-.09-.14.54.54,0,0,0-.23-.06l-.7-.11a.6.6,0,0,1-.46-.25,1.47,1.47,0,0,1-.11-.68,1.29,1.29,0,0,1,.13-.65.7.7,0,0,1,.37-.31,1.93,1.93,0,0,1,.6-.08l.46,0a1.52,1.52,0,0,1,.39.07v.4l-.39-.06-.46,0a.77.77,0,0,0-.48.12.61.61,0,0,0-.14.47,1.46,1.46,0,0,0,0,.34.23.23,0,0,0,.09.15l.22.06.68.09a.76.76,0,0,1,.35.12.5.5,0,0,1,.2.29,2.09,2.09,0,0,1,.06.58,1.09,1.09,0,0,1-.25.81,1.22,1.22,0,0,1-.82.23Z"/><path class="e8597c3b-523d-49dd-8e80-7fd512b2a494" d="M90,293.34V292.2H88.23v-.41l1.27-3.26h.55l-1.27,3.21H90l.1-1.78h.42v1.78H91v.46h-.5v1.14Z"/><path class="e8597c3b-523d-49dd-8e80-7fd512b2a494" d="M91.67,293.34v-.63h.57v.63Z"/><path class="e8597c3b-523d-49dd-8e80-7fd512b2a494" d="M93.43,293.21a.92.92,0,0,1-.35-.66,18.67,18.67,0,0,1,0-3.23.92.92,0,0,1,.35-.66,1.54,1.54,0,0,1,.9-.19,1.64,1.64,0,0,1,.92.19.9.9,0,0,1,.33.65,18.78,18.78,0,0,1,0,3.24,1,1,0,0,1-.35.66,1.58,1.58,0,0,1-.9.19A1.54,1.54,0,0,1,93.43,293.21Zm1.45-.38a.68.68,0,0,0,.2-.49,19.77,19.77,0,0,0,0-2.81.68.68,0,0,0-.2-.49,1,1,0,0,0-.55-.11,1,1,0,0,0-.56.11c-.1.07-.16.23-.19.49a14.07,14.07,0,0,0,0,1.41,13.68,13.68,0,0,0,0,1.4c0,.26.09.42.19.49a1,1,0,0,0,.56.11A1,1,0,0,0,94.88,292.83Z"/><path class="e8597c3b-523d-49dd-8e80-7fd512b2a494" d="M97.93,294.47v-6.33h.46v6.33Z"/><path class="e8597c3b-523d-49dd-8e80-7fd512b2a494" d="M101.25,293.23a.82.82,0,0,1-.38-.64,11.86,11.86,0,0,1-.08-1.65,12.14,12.14,0,0,1,.08-1.66.85.85,0,0,1,.38-.64,3.3,3.3,0,0,1,2.09,0,.85.85,0,0,1,.38.64,12.14,12.14,0,0,1,.08,1.66,11.86,11.86,0,0,1-.08,1.65.82.82,0,0,1-.38.64,2.3,2.3,0,0,1-1,.17A2.35,2.35,0,0,1,101.25,293.23Zm1.92-.21a.71.71,0,0,0,.3-.54,12.78,12.78,0,0,0,.06-1.54,13,13,0,0,0-.06-1.55.71.71,0,0,0-.3-.54,2.12,2.12,0,0,0-.87-.13,2.15,2.15,0,0,0-.88.13.71.71,0,0,0-.3.54,13,13,0,0,0-.06,1.55,12.78,12.78,0,0,0,.06,1.54.71.71,0,0,0,.3.54,2,2,0,0,0,.88.13A2,2,0,0,0,103.17,293Zm-1.25-.86a.55.55,0,0,1-.21-.37,5.53,5.53,0,0,1,0-.85,5.63,5.63,0,0,1,0-.85.55.55,0,0,1,.22-.37.89.89,0,0,1,.49-.11,1.61,1.61,0,0,1,.42.05V290a2.09,2.09,0,0,0-.36,0,.65.65,0,0,0-.33.07.37.37,0,0,0-.12.26,8.18,8.18,0,0,0,0,1.4.37.37,0,0,0,.12.26.66.66,0,0,0,.33.06,2.05,2.05,0,0,0,.37,0v.29a2,2,0,0,1-.43,0A.93.93,0,0,1,101.92,292.16Z"/><path class="e8597c3b-523d-49dd-8e80-7fd512b2a494" d="M105.13,292.88H107v.46h-2.41v-.55a8.56,8.56,0,0,1,0-.87.88.88,0,0,1,.14-.43,1.21,1.21,0,0,1,.41-.34l.91-.54a.75.75,0,0,0,.32-.32,1.46,1.46,0,0,0,.07-.54,1.72,1.72,0,0,0-.06-.52.43.43,0,0,0-.23-.23,1.57,1.57,0,0,0-.5-.07,9.22,9.22,0,0,0-1,.08v-.43a4.67,4.67,0,0,1,.53-.08l.62,0a2.17,2.17,0,0,1,.64.08.72.72,0,0,1,.4.35,1.65,1.65,0,0,1,.15.79,2.72,2.72,0,0,1-.06.64.89.89,0,0,1-.19.39,1.57,1.57,0,0,1-.36.29l-1,.58a.49.49,0,0,0-.23.22,1.09,1.09,0,0,0,0,.25c0,.1,0,.26,0,.47Z"/><path class="e8597c3b-523d-49dd-8e80-7fd512b2a494" d="M108.14,293.21a.91.91,0,0,1-.34-.66,16.34,16.34,0,0,1,0-3.23.91.91,0,0,1,.34-.66,1.58,1.58,0,0,1,.9-.19,1.62,1.62,0,0,1,.92.19.91.91,0,0,1,.34.65,14.09,14.09,0,0,1,.07,1.63,11.69,11.69,0,0,1-.08,1.61,1,1,0,0,1-.34.66,1.6,1.6,0,0,1-.91.19A1.58,1.58,0,0,1,108.14,293.21Zm1.45-.38a.68.68,0,0,0,.2-.49,19.77,19.77,0,0,0,0-2.81.68.68,0,0,0-.2-.49,1.43,1.43,0,0,0-1.1,0,.68.68,0,0,0-.2.49,14.07,14.07,0,0,0-.05,1.41,13.68,13.68,0,0,0,.05,1.4.68.68,0,0,0,.2.49,1.43,1.43,0,0,0,1.1,0Z"/><path class="e8597c3b-523d-49dd-8e80-7fd512b2a494" d="M111.57,292.88h1.9v.46h-2.41v-.55a8.56,8.56,0,0,1,0-.87.88.88,0,0,1,.14-.43,1.21,1.21,0,0,1,.41-.34l.91-.54a.75.75,0,0,0,.32-.32,1.46,1.46,0,0,0,.07-.54,1.72,1.72,0,0,0-.06-.52.42.42,0,0,0-.24-.23,1.41,1.41,0,0,0-.49-.07,9.22,9.22,0,0,0-1,.08v-.43a4.67,4.67,0,0,1,.53-.08l.62,0a2.17,2.17,0,0,1,.64.08.72.72,0,0,1,.4.35,1.65,1.65,0,0,1,.15.79,2.72,2.72,0,0,1-.06.64,1,1,0,0,1-.19.39,1.57,1.57,0,0,1-.36.29l-1,.58a.49.49,0,0,0-.23.22,1.09,1.09,0,0,0,0,.25c0,.1,0,.26,0,.47Z"/><path class="e8597c3b-523d-49dd-8e80-7fd512b2a494" d="M114.66,293.34v-4.17l-.68.33V289l.82-.48h.38v4.81Z"/><path class="e8597c3b-523d-49dd-8e80-7fd512b2a494" d="M118.06,293.91a.92.92,0,0,1-.48-.72,11.5,11.5,0,0,1-.1-1.9,11.65,11.65,0,0,1,.1-1.91.92.92,0,0,1,.48-.72,5.11,5.11,0,0,1,2.76,0,.9.9,0,0,1,.48.72,11.49,11.49,0,0,1,.1,1.91,5.19,5.19,0,0,1-.07,1,.6.6,0,0,1-.19.4.86.86,0,0,1-.42.08H120l0-.41h0a.56.56,0,0,1-.26.37.91.91,0,0,1-.43.09.74.74,0,0,1-.57-.2,1,1,0,0,1-.17-.69,1.87,1.87,0,0,1,.06-.54.45.45,0,0,1,.22-.28.89.89,0,0,1,.44-.08l.72,0v-.21a2.15,2.15,0,0,0,0-.52.28.28,0,0,0-.16-.21,1.25,1.25,0,0,0-.4-.05l-.36,0a1.83,1.83,0,0,0-.33,0v-.37a3.79,3.79,0,0,1,.82-.08,1.17,1.17,0,0,1,.59.11.55.55,0,0,1,.27.34,2.58,2.58,0,0,1,.07.71v1.66h.39a.25.25,0,0,0,.19-.06.69.69,0,0,0,.09-.33,8.47,8.47,0,0,0,0-.86c0-.73,0-1.24,0-1.54a1.28,1.28,0,0,0-.2-.68.82.82,0,0,0-.55-.27,6.47,6.47,0,0,0-.87-.05q-.47,0-.78,0a.89.89,0,0,0-.6.26,1.2,1.2,0,0,0-.22.67c0,.3,0,.83,0,1.58s0,1.3,0,1.61a1.19,1.19,0,0,0,.26.66,1.22,1.22,0,0,0,.72.24h.62c.48,0,.8,0,1,0v.3h-1A3.42,3.42,0,0,1,118.06,293.91Zm1.65-1.5a.38.38,0,0,0,.17-.26,1.85,1.85,0,0,0,.05-.53v-.22h-.62a.65.65,0,0,0-.24,0,.22.22,0,0,0-.11.15,1.6,1.6,0,0,0,0,.36,1.4,1.4,0,0,0,0,.34.24.24,0,0,0,.13.16.66.66,0,0,0,.28,0A.63.63,0,0,0,119.71,292.41Z"/><path class="e8597c3b-523d-49dd-8e80-7fd512b2a494" d="M123.55,293.31v-.46a4.46,4.46,0,0,0,.54.06l.5,0a2.36,2.36,0,0,0,.44,0,.58.58,0,0,0,.27-.14.43.43,0,0,0,.13-.26,3,3,0,0,0,0-.47,3.58,3.58,0,0,0,0-.54.34.34,0,0,0-.13-.22,1,1,0,0,0-.36-.11l-.82-.13a.79.79,0,0,1-.44-.2.72.72,0,0,1-.19-.38,3.67,3.67,0,0,1,0-.64,1.42,1.42,0,0,1,.3-1,1.35,1.35,0,0,1,1-.31,4.36,4.36,0,0,1,1.06.11V289a4.91,4.91,0,0,0-.94-.09,1.56,1.56,0,0,0-.48.06.51.51,0,0,0-.26.15.57.57,0,0,0-.12.26,2.25,2.25,0,0,0,0,.4,2.46,2.46,0,0,0,0,.46.28.28,0,0,0,.11.2.7.7,0,0,0,.28.09l.78.13a1.55,1.55,0,0,1,.47.14.65.65,0,0,1,.25.34,2.32,2.32,0,0,1,.09.8,2.4,2.4,0,0,1-.12.85.75.75,0,0,1-.38.45,1.68,1.68,0,0,1-.74.14A7.51,7.51,0,0,1,123.55,293.31Zm1.12,1.5a.56.56,0,0,0,.07-.32v-.11h-.24v-.6h.56v.54a2.07,2.07,0,0,1,0,.5.4.4,0,0,1-.2.24,1.18,1.18,0,0,1-.44.06v-.24C124.53,294.88,124.63,294.86,124.67,294.81Z"/><path class="e8597c3b-523d-49dd-8e80-7fd512b2a494" d="M128.15,293.38l-.4,0a1.27,1.27,0,0,1-.76-.18.89.89,0,0,1-.32-.55,7.6,7.6,0,0,1-.06-1.11,5.4,5.4,0,0,1,.08-1.12.89.89,0,0,1,.33-.55,1.24,1.24,0,0,1,.71-.17l.41,0a1.68,1.68,0,0,1,.33.07v.4a3.2,3.2,0,0,0-.63-.07.85.85,0,0,0-.48.11.66.66,0,0,0-.21.4,6.12,6.12,0,0,0-.05.9,6.61,6.61,0,0,0,.05.93.61.61,0,0,0,.21.39.9.9,0,0,0,.49.1,2.64,2.64,0,0,0,.65-.07v.41Z"/><path class="e8597c3b-523d-49dd-8e80-7fd512b2a494" d="M129.46,293.25a.73.73,0,0,1-.33-.51,7.8,7.8,0,0,1-.07-1.18,7.7,7.7,0,0,1,.07-1.18.69.69,0,0,1,.33-.51,1.61,1.61,0,0,1,.81-.15,1.68,1.68,0,0,1,.82.15.71.71,0,0,1,.32.51,7.7,7.7,0,0,1,.07,1.18,7.8,7.8,0,0,1-.07,1.18.75.75,0,0,1-.32.51,1.68,1.68,0,0,1-.82.15A1.61,1.61,0,0,1,129.46,293.25Zm1.31-.37a.56.56,0,0,0,.18-.37c0-.18,0-.49,0-.95s0-.78,0-.95a.56.56,0,0,0-.18-.37,1,1,0,0,0-.5-.1.94.94,0,0,0-.49.1.49.49,0,0,0-.18.37,11.3,11.3,0,0,0,0,1.9.49.49,0,0,0,.18.37,1,1,0,0,0,.49.09A1,1,0,0,0,130.77,292.88Z"/><path class="e8597c3b-523d-49dd-8e80-7fd512b2a494" d="M132.26,293.18a1.2,1.2,0,0,1-.22-.82,2.05,2.05,0,0,1,.08-.63.61.61,0,0,1,.28-.33,1.32,1.32,0,0,1,.54-.09l.92,0v-.25a2.36,2.36,0,0,0-.06-.63.38.38,0,0,0-.21-.26,2,2,0,0,0-.52-.06l-.42,0-.43.05v-.4a4.37,4.37,0,0,1,1-.1,1.72,1.72,0,0,1,.73.12.64.64,0,0,1,.33.4,3,3,0,0,1,.09.84v2.26h-.44l0-.49h0a.69.69,0,0,1-.34.44,1.35,1.35,0,0,1-.55.11A1,1,0,0,1,132.26,293.18Zm1.27-.27a.41.41,0,0,0,.23-.25,2.23,2.23,0,0,0,.1-.75v-.23h-.79a1,1,0,0,0-.34,0,.27.27,0,0,0-.15.19,1.4,1.4,0,0,0-.05.42,1.25,1.25,0,0,0,.05.4.32.32,0,0,0,.17.19.94.94,0,0,0,.38.05A1.16,1.16,0,0,0,133.53,292.91Z"/><path class="e8597c3b-523d-49dd-8e80-7fd512b2a494" d="M135.22,293.34v-5.2h.5v5.2Z"/><path class="e8597c3b-523d-49dd-8e80-7fd512b2a494" d="M136.61,293.18a1.15,1.15,0,0,1-.22-.82,2.05,2.05,0,0,1,.08-.63.64.64,0,0,1,.27-.33,1.34,1.34,0,0,1,.55-.09l.92,0v-.25a2.36,2.36,0,0,0-.06-.63.37.37,0,0,0-.22-.26,1.87,1.87,0,0,0-.52-.06l-.41,0-.43.05v-.4a4.34,4.34,0,0,1,1-.1,1.69,1.69,0,0,1,.73.12.62.62,0,0,1,.34.4,3,3,0,0,1,.09.84v2.26h-.44l0-.49h0a.66.66,0,0,1-.34.44,1.28,1.28,0,0,1-.55.11A.93.93,0,0,1,136.61,293.18Zm1.27-.27a.44.44,0,0,0,.23-.25,2.23,2.23,0,0,0,.1-.75v-.23h-.8a.92.92,0,0,0-.33,0,.27.27,0,0,0-.15.19,1.4,1.4,0,0,0-.05.42,1.25,1.25,0,0,0,.05.4.29.29,0,0,0,.17.19.94.94,0,0,0,.38.05A1.16,1.16,0,0,0,137.88,292.91Z"/><path class="e8597c3b-523d-49dd-8e80-7fd512b2a494" d="M141.19,293.25a.94.94,0,0,1-.3-.54,5.42,5.42,0,0,1-.09-1.14,6.6,6.6,0,0,1,.08-1.15.88.88,0,0,1,.3-.54,1,1,0,0,1,.63-.16,1.2,1.2,0,0,1,.54.11.7.7,0,0,1,.3.38h0v-2.07h.5v5.2h-.44l0-.49h0a.69.69,0,0,1-.32.44,1.27,1.27,0,0,1-.54.11A1.08,1.08,0,0,1,141.19,293.25Zm1.21-.4a.51.51,0,0,0,.21-.32,2.37,2.37,0,0,0,.06-.41c0-.15,0-.36,0-.62a4.11,4.11,0,0,0-.06-.84.61.61,0,0,0-.21-.38.67.67,0,0,0-.43-.11.84.84,0,0,0-.45.09.52.52,0,0,0-.19.37,6.82,6.82,0,0,0,0,.93,5.28,5.28,0,0,0,0,.93.52.52,0,0,0,.18.37.9.9,0,0,0,.47.09A.66.66,0,0,0,142.4,292.85Z"/><path class="e8597c3b-523d-49dd-8e80-7fd512b2a494" d="M146.28,291.72h-1.83a4.13,4.13,0,0,0,.05.82.5.5,0,0,0,.22.34,1.37,1.37,0,0,0,.58.09,5,5,0,0,0,.88-.07v.4a2.7,2.7,0,0,1-.44.07l-.54,0a1.69,1.69,0,0,1-.82-.16.8.8,0,0,1-.34-.54,5.25,5.25,0,0,1-.09-1.13,6.23,6.23,0,0,1,.07-1.13.84.84,0,0,1,.33-.55,1.54,1.54,0,0,1,.82-.17,1.26,1.26,0,0,1,.76.17.73.73,0,0,1,.29.52,7.76,7.76,0,0,1,.06,1.15Zm-1.59-1.5a.46.46,0,0,0-.2.33,5.09,5.09,0,0,0,0,.8h1.36v-.09a3.28,3.28,0,0,0-.06-.74.45.45,0,0,0-.19-.31.82.82,0,0,0-.4-.07A1,1,0,0,0,144.69,290.22Z"/><path class="e8597c3b-523d-49dd-8e80-7fd512b2a494" d="M149.24,293.34,148,288.53h.55l1,4.12h.05l1-4.12h.53l-1.2,4.81Z"/><path class="e8597c3b-523d-49dd-8e80-7fd512b2a494" d="M151.65,293.18a1.2,1.2,0,0,1-.22-.82,2.05,2.05,0,0,1,.08-.63.61.61,0,0,1,.28-.33,1.32,1.32,0,0,1,.54-.09l.92,0v-.25a2.36,2.36,0,0,0-.06-.63.38.38,0,0,0-.21-.26,2,2,0,0,0-.52-.06l-.42,0-.43.05v-.4a4.37,4.37,0,0,1,1-.1,1.72,1.72,0,0,1,.73.12.64.64,0,0,1,.33.4,3,3,0,0,1,.09.84v2.26h-.44l0-.49h0a.69.69,0,0,1-.34.44,1.35,1.35,0,0,1-.55.11A1,1,0,0,1,151.65,293.18Zm1.27-.27a.41.41,0,0,0,.23-.25,2.23,2.23,0,0,0,.1-.75v-.23h-.79a1,1,0,0,0-.34,0,.27.27,0,0,0-.15.19,1.4,1.4,0,0,0-.05.42,1.25,1.25,0,0,0,.05.4.32.32,0,0,0,.17.19.94.94,0,0,0,.38.05A1.16,1.16,0,0,0,152.92,292.91Z"/><path class="e8597c3b-523d-49dd-8e80-7fd512b2a494" d="M154.61,293.34v-5.2h.5v5.2Z"/><path class="e8597c3b-523d-49dd-8e80-7fd512b2a494" d="M156.27,293.25a.69.69,0,0,1-.32-.51,6.42,6.42,0,0,1-.08-1.18,6.35,6.35,0,0,1,.08-1.18.65.65,0,0,1,.32-.51,1.63,1.63,0,0,1,.81-.15,1.68,1.68,0,0,1,.82.15.71.71,0,0,1,.32.51,7.7,7.7,0,0,1,.07,1.18,7.8,7.8,0,0,1-.07,1.18.75.75,0,0,1-.32.51,1.68,1.68,0,0,1-.82.15A1.63,1.63,0,0,1,156.27,293.25Zm1.31-.37a.52.52,0,0,0,.17-.37,6.88,6.88,0,0,0,0-.95,6.78,6.78,0,0,0,0-.95.52.52,0,0,0-.17-.37,1,1,0,0,0-.5-.1.92.92,0,0,0-.49.1.49.49,0,0,0-.18.37,11.3,11.3,0,0,0,0,1.9.49.49,0,0,0,.18.37.94.94,0,0,0,.49.09A1,1,0,0,0,157.58,292.88Z"/><path class="e8597c3b-523d-49dd-8e80-7fd512b2a494" d="M159.06,289.77h.43l0,.67h0a.87.87,0,0,1,.32-.57,1.07,1.07,0,0,1,.6-.15v.5a.85.85,0,0,0-.56.16.81.81,0,0,0-.29.45,3.59,3.59,0,0,0-.08.82v1.69h-.49Z"/><path class="e8597c3b-523d-49dd-8e80-7fd512b2a494" d="M161,288.72v-.58h.52v.58Zm0,4.62v-3.57h.5v3.57Z"/><path class="e8597c3b-523d-49dd-8e80-7fd512b2a494" d="M37.54,301.77l-.4,0a1.27,1.27,0,0,1-.76-.18.84.84,0,0,1-.31-.56A6,6,0,0,1,36,300a5.4,5.4,0,0,1,.08-1.12.89.89,0,0,1,.33-.55,1.16,1.16,0,0,1,.71-.17l.41,0a2,2,0,0,1,.34.07v.4a3.39,3.39,0,0,0-.64-.07.85.85,0,0,0-.48.11.59.59,0,0,0-.2.4,4.75,4.75,0,0,0-.06.9,5.12,5.12,0,0,0,.06.93.56.56,0,0,0,.2.39.9.9,0,0,0,.49.1,2.64,2.64,0,0,0,.65-.07v.41A1.58,1.58,0,0,1,37.54,301.77Z"/><path class="e8597c3b-523d-49dd-8e80-7fd512b2a494" d="M38.85,301.65a.72.72,0,0,1-.32-.51,6.42,6.42,0,0,1-.08-1.18,6.35,6.35,0,0,1,.08-1.18.72.72,0,0,1,.32-.52,1.78,1.78,0,0,1,.81-.14,1.83,1.83,0,0,1,.82.14.75.75,0,0,1,.32.52,7.7,7.7,0,0,1,.07,1.18,7.8,7.8,0,0,1-.07,1.18.75.75,0,0,1-.32.51,1.68,1.68,0,0,1-.82.15A1.63,1.63,0,0,1,38.85,301.65Zm1.31-.38a.51.51,0,0,0,.18-.36c0-.18,0-.49,0-1s0-.78,0-.95a.56.56,0,0,0-.18-.37,1,1,0,0,0-.5-.1.94.94,0,0,0-.49.1A.49.49,0,0,0,39,299a11.3,11.3,0,0,0,0,1.9.45.45,0,0,0,.18.36.85.85,0,0,0,.49.1A.89.89,0,0,0,40.16,301.27Z"/><path class="e8597c3b-523d-49dd-8e80-7fd512b2a494" d="M43.45,299.66a3.26,3.26,0,0,0-.05-.73.37.37,0,0,0-.17-.29.84.84,0,0,0-.41-.07.65.65,0,0,0-.47.15.68.68,0,0,0-.18.41,6.64,6.64,0,0,0,0,.76v1.85h-.49v-3.57h.43l0,.5h0a.77.77,0,0,1,.29-.41,1.09,1.09,0,0,1,.59-.14,1,1,0,0,1,.6.14.65.65,0,0,1,.26.42,3.41,3.41,0,0,1,.07.81v2.25h-.5Z"/><path class="e8597c3b-523d-49dd-8e80-7fd512b2a494" d="M46.24,301.77l-.4,0a1.27,1.27,0,0,1-.76-.18.84.84,0,0,1-.31-.56,6,6,0,0,1-.07-1.1,5.4,5.4,0,0,1,.08-1.12.89.89,0,0,1,.33-.55,1.18,1.18,0,0,1,.71-.17l.41,0a2,2,0,0,1,.34.07v.4a3.38,3.38,0,0,0-.63-.07.86.86,0,0,0-.49.11.59.59,0,0,0-.2.4,4.75,4.75,0,0,0-.06.9,5.12,5.12,0,0,0,.06.93.56.56,0,0,0,.2.39.9.9,0,0,0,.49.1,2.64,2.64,0,0,0,.65-.07v.41A1.58,1.58,0,0,1,46.24,301.77Z"/><path class="e8597c3b-523d-49dd-8e80-7fd512b2a494" d="M49.48,300.12H47.65a4.85,4.85,0,0,0,.05.81.5.5,0,0,0,.23.35,1.29,1.29,0,0,0,.57.09,5.1,5.1,0,0,0,.89-.07v.4a3.13,3.13,0,0,1-.44.07l-.54,0a1.58,1.58,0,0,1-.83-.17.76.76,0,0,1-.34-.53,5.29,5.29,0,0,1-.09-1.14,7.27,7.27,0,0,1,.07-1.12.84.84,0,0,1,.33-.55,1.54,1.54,0,0,1,.82-.17,1.24,1.24,0,0,1,.76.17.73.73,0,0,1,.29.52,7.76,7.76,0,0,1,.06,1.15Zm-1.59-1.5a.45.45,0,0,0-.19.33,4.8,4.8,0,0,0-.05.8H49v-.09a3.28,3.28,0,0,0-.06-.74.44.44,0,0,0-.18-.31.86.86,0,0,0-.41-.07A1.07,1.07,0,0,0,47.89,298.62Z"/><path class="e8597c3b-523d-49dd-8e80-7fd512b2a494" d="M50.26,298.17h.44l0,.5h.05a.71.71,0,0,1,.31-.44,1.27,1.27,0,0,1,.54-.11,1.13,1.13,0,0,1,.63.15.83.83,0,0,1,.3.54,5.42,5.42,0,0,1,.09,1.14,6.43,6.43,0,0,1-.08,1.15.91.91,0,0,1-.3.54,1,1,0,0,1-.63.16,1.2,1.2,0,0,1-.54-.11.73.73,0,0,1-.3-.38h0v1.78h-.5Zm1.65,3.09a.56.56,0,0,0,.19-.37,6.91,6.91,0,0,0,0-.93,6.72,6.72,0,0,0,0-.93.56.56,0,0,0-.19-.37.9.9,0,0,0-.47-.09.71.71,0,0,0-.41.1.58.58,0,0,0-.21.35,2.06,2.06,0,0,0,0,.39c0,.14,0,.32,0,.55a5.2,5.2,0,0,0,.05.87.83.83,0,0,0,.21.41.72.72,0,0,0,.42.11A.9.9,0,0,0,51.91,301.26Z"/><path class="e8597c3b-523d-49dd-8e80-7fd512b2a494" d="M53.63,301.74V298.6h-.52v-.43h.52v-1h.5v1h.61v.43h-.61v3.14Z"/><path class="e8597c3b-523d-49dd-8e80-7fd512b2a494" d="M58.1,301.77l-.4,0a1.27,1.27,0,0,1-.76-.18.85.85,0,0,1-.32-.56,7.06,7.06,0,0,1-.07-1.1,5.27,5.27,0,0,1,.09-1.12.89.89,0,0,1,.33-.55,1.16,1.16,0,0,1,.71-.17l.41,0a1.68,1.68,0,0,1,.33.07v.4a3.2,3.2,0,0,0-.63-.07.85.85,0,0,0-.48.11.64.64,0,0,0-.21.4,6.12,6.12,0,0,0-.05.9,6.61,6.61,0,0,0,.05.93.61.61,0,0,0,.21.39.9.9,0,0,0,.49.1,2.51,2.51,0,0,0,.64-.07v.41A1.39,1.39,0,0,1,58.1,301.77Z"/><path class="e8597c3b-523d-49dd-8e80-7fd512b2a494" d="M59.12,298.17h.44l0,.67h0a.83.83,0,0,1,.32-.57,1.07,1.07,0,0,1,.6-.15v.5a.9.9,0,0,0-.57.16.8.8,0,0,0-.28.45,3.59,3.59,0,0,0-.08.82v1.69h-.5Z"/><path class="e8597c3b-523d-49dd-8e80-7fd512b2a494" d="M63.34,300.12H61.5a3.77,3.77,0,0,0,.06.81.49.49,0,0,0,.22.35,1.34,1.34,0,0,0,.58.09,5,5,0,0,0,.88-.07v.4a3.13,3.13,0,0,1-.44.07l-.54,0a1.61,1.61,0,0,1-.83-.17.79.79,0,0,1-.34-.53A5.44,5.44,0,0,1,61,300a6.18,6.18,0,0,1,.07-1.12.79.79,0,0,1,.32-.55,1.57,1.57,0,0,1,.82-.17,1.29,1.29,0,0,1,.77.17.77.77,0,0,1,.29.52,7.76,7.76,0,0,1,.06,1.15Zm-1.6-1.5a.45.45,0,0,0-.19.33,4.8,4.8,0,0,0,0,.8h1.36v-.09a3.28,3.28,0,0,0-.06-.74.41.41,0,0,0-.18-.31.84.84,0,0,0-.4-.07A1.12,1.12,0,0,0,61.74,298.62Z"/><path class="e8597c3b-523d-49dd-8e80-7fd512b2a494" d="M64.13,301.58a1.15,1.15,0,0,1-.22-.82,2.05,2.05,0,0,1,.08-.63.64.64,0,0,1,.27-.33,1.34,1.34,0,0,1,.55-.09l.92,0v-.25a2.31,2.31,0,0,0-.06-.63.38.38,0,0,0-.21-.26,1.66,1.66,0,0,0-.53-.06l-.41,0-.43.05v-.41a5,5,0,0,1,1-.09,1.69,1.69,0,0,1,.73.12.62.62,0,0,1,.34.4,3,3,0,0,1,.09.84v2.26h-.44l0-.49h0a.66.66,0,0,1-.34.44,1.27,1.27,0,0,1-.54.11A1,1,0,0,1,64.13,301.58Zm1.27-.27a.44.44,0,0,0,.23-.25,2.23,2.23,0,0,0,.1-.75v-.23h-.8a.92.92,0,0,0-.33,0,.28.28,0,0,0-.15.18,1.53,1.53,0,0,0,0,.43,1.25,1.25,0,0,0,0,.4.29.29,0,0,0,.17.19,1.41,1.41,0,0,0,.78,0Z"/><path class="e8597c3b-523d-49dd-8e80-7fd512b2a494" d="M67.31,301.74V298.6h-.52v-.43h.52v-1h.49v1h.62v.43H67.8v3.14Z"/><path class="e8597c3b-523d-49dd-8e80-7fd512b2a494" d="M70.62,301.65a.94.94,0,0,1-.3-.54,5.47,5.47,0,0,1-.09-1.15,5.55,5.55,0,0,1,.09-1.14.88.88,0,0,1,.29-.55,1.11,1.11,0,0,1,.63-.15,1.08,1.08,0,0,1,.54.11.66.66,0,0,1,.3.38h0v-2.07h.49v5.2h-.44l0-.49h0a.69.69,0,0,1-.32.44,1.27,1.27,0,0,1-.54.11A1.08,1.08,0,0,1,70.62,301.65Zm1.22-.4a.54.54,0,0,0,.2-.32,2.37,2.37,0,0,0,.06-.41c0-.15,0-.36,0-.62a3.94,3.94,0,0,0-.07-.84.56.56,0,0,0-.2-.38.69.69,0,0,0-.43-.11.88.88,0,0,0-.46.09.48.48,0,0,0-.18.37,5.14,5.14,0,0,0,0,.93,6.51,6.51,0,0,0,0,.93.52.52,0,0,0,.18.37.9.9,0,0,0,.47.09A.71.71,0,0,0,71.84,301.25Z"/><path class="e8597c3b-523d-49dd-8e80-7fd512b2a494" d="M75.71,300.12H73.88a4.85,4.85,0,0,0,.05.81.5.5,0,0,0,.23.35,1.29,1.29,0,0,0,.57.09,5.1,5.1,0,0,0,.89-.07v.4a3.07,3.07,0,0,1-.45.07,4.89,4.89,0,0,1-.54,0,1.57,1.57,0,0,1-.82-.17.76.76,0,0,1-.34-.53,5.29,5.29,0,0,1-.09-1.14,7.27,7.27,0,0,1,.07-1.12.84.84,0,0,1,.33-.55,1.54,1.54,0,0,1,.82-.17,1.24,1.24,0,0,1,.76.17.73.73,0,0,1,.29.52,7.76,7.76,0,0,1,.06,1.15Zm-1.59-1.5a.5.5,0,0,0-.2.33,5.09,5.09,0,0,0,0,.8h1.36v-.09a3.28,3.28,0,0,0-.06-.74.48.48,0,0,0-.18-.31.86.86,0,0,0-.41-.07A1,1,0,0,0,74.12,298.62Z"/><path class="e8597c3b-523d-49dd-8e80-7fd512b2a494" d="M80.19,301.74l-.34-1.33H78.37L78,301.74h-.52l1.26-4.81h.68l1.26,4.81Zm-1.06-4.18h0l-.59,2.38h1.22Z"/><path class="e8597c3b-523d-49dd-8e80-7fd512b2a494" d="M81.29,298.17h.44l0,.67h0a.83.83,0,0,1,.32-.57,1.07,1.07,0,0,1,.6-.15v.5a.9.9,0,0,0-.57.16.8.8,0,0,0-.28.45,3.59,3.59,0,0,0-.08.82v1.69h-.5Z"/><path class="e8597c3b-523d-49dd-8e80-7fd512b2a494" d="M86.75,299.66a4.26,4.26,0,0,0,0-.73.47.47,0,0,0-.15-.29.73.73,0,0,0-.38-.07.58.58,0,0,0-.45.14.62.62,0,0,0-.18.4,6.77,6.77,0,0,0,0,.78v1.85H85v-2.08a5.53,5.53,0,0,0,0-.73.44.44,0,0,0-.15-.29.73.73,0,0,0-.38-.07.58.58,0,0,0-.45.15.65.65,0,0,0-.18.41,6.64,6.64,0,0,0,0,.76v1.85h-.49v-3.57h.43l0,.5h0a.86.86,0,0,1,.28-.41,1,1,0,0,1,.56-.14,1.05,1.05,0,0,1,.57.12.69.69,0,0,1,.26.43h0a.72.72,0,0,1,.29-.41,1.27,1.27,0,0,1,1.14,0,.71.71,0,0,1,.25.43,3.37,3.37,0,0,1,.07.8v2.26h-.5Z"/><path class="e8597c3b-523d-49dd-8e80-7fd512b2a494" d="M88.1,297.12v-.58h.52v.58Zm0,4.62v-3.57h.5v3.57Z"/><path class="e8597c3b-523d-49dd-8e80-7fd512b2a494" d="M91.3,299.66a4,4,0,0,0,0-.73.44.44,0,0,0-.17-.29.86.86,0,0,0-.41-.07.62.62,0,0,0-.47.15.75.75,0,0,0-.19.41,7.16,7.16,0,0,0,0,.76v1.85h-.5v-3.57h.44l0,.5h0a.72.72,0,0,1,.29-.41,1,1,0,0,1,.59-.14,1,1,0,0,1,.59.14.71.71,0,0,1,.27.42,4.17,4.17,0,0,1,.06.81v2.25H91.3Z"/><path class="e8597c3b-523d-49dd-8e80-7fd512b2a494" d="M92.67,301.58a1.15,1.15,0,0,1-.22-.82,2.05,2.05,0,0,1,.08-.63.56.56,0,0,1,.27-.33,1.34,1.34,0,0,1,.55-.09l.92,0v-.25a2.31,2.31,0,0,0-.06-.63.37.37,0,0,0-.22-.26,1.59,1.59,0,0,0-.52-.06l-.42,0-.42.05v-.41a5,5,0,0,1,1-.09,1.69,1.69,0,0,1,.73.12.65.65,0,0,1,.34.4,3,3,0,0,1,.09.84v2.26h-.44l0-.49h0a.66.66,0,0,1-.34.44,1.31,1.31,0,0,1-.55.11A1,1,0,0,1,92.67,301.58Zm1.26-.27a.42.42,0,0,0,.24-.25,2.52,2.52,0,0,0,.1-.75v-.23h-.8a.92.92,0,0,0-.33,0,.28.28,0,0,0-.15.18,1.53,1.53,0,0,0,0,.43,1.25,1.25,0,0,0,0,.4.29.29,0,0,0,.17.19,1.16,1.16,0,0,0,.38.05A1.07,1.07,0,0,0,93.93,301.31Z"/><path class="e8597c3b-523d-49dd-8e80-7fd512b2a494" d="M96.91,301.71v-.46a4,4,0,0,0,.54.06l.5,0a2.45,2.45,0,0,0,.44,0,.58.58,0,0,0,.27-.14.49.49,0,0,0,.13-.26,3,3,0,0,0,0-.47,3.22,3.22,0,0,0,0-.54.31.31,0,0,0-.13-.22,1,1,0,0,0-.36-.11l-.81-.13a.75.75,0,0,1-.44-.2.72.72,0,0,1-.19-.39,3.4,3.4,0,0,1,0-.63,1.38,1.38,0,0,1,.31-1,1.32,1.32,0,0,1,1-.31,4.42,4.42,0,0,1,1.06.11v.44a5,5,0,0,0-1-.09,1.49,1.49,0,0,0-.47.06.51.51,0,0,0-.27.15.57.57,0,0,0-.12.26c0,.11,0,.24,0,.39s0,.37,0,.47a.29.29,0,0,0,.12.2.65.65,0,0,0,.28.09l.78.13a1.39,1.39,0,0,1,.46.14.66.66,0,0,1,.26.34,2.36,2.36,0,0,1,.08.8,2.43,2.43,0,0,1-.11.85.79.79,0,0,1-.39.45,1.63,1.63,0,0,1-.73.14A7.33,7.33,0,0,1,96.91,301.71Z"/><path class="e8597c3b-523d-49dd-8e80-7fd512b2a494" d="M99.51,297.51v0l.54-.93h.55l.53.93v0h-.35l-.46-.68-.46.68Zm.56,4.23v-3.57h.5v3.57Z"/><path class="e8597c3b-523d-49dd-8e80-7fd512b2a494" d="M101.45,298.17h.43l0,.67h0a.87.87,0,0,1,.32-.57,1.07,1.07,0,0,1,.6-.15v.5a.85.85,0,0,0-.56.16.81.81,0,0,0-.29.45,3.59,3.59,0,0,0-.08.82v1.69h-.49Z"/><path class="e8597c3b-523d-49dd-8e80-7fd512b2a494" d="M104.26,301.69a.73.73,0,0,1-.32-.44h0l0,.49h-.43v-5.2h.5v2.07h0a.7.7,0,0,1,.3-.38,1.07,1.07,0,0,1,.53-.11,1.14,1.14,0,0,1,.64.15.94.94,0,0,1,.3.55,6.39,6.39,0,0,1,.08,1.14,5.42,5.42,0,0,1-.09,1.14.94.94,0,0,1-.3.55,1.13,1.13,0,0,1-.63.15A1.27,1.27,0,0,1,104.26,301.69Zm.83-.43a.52.52,0,0,0,.18-.37,5.28,5.28,0,0,0,0-.93,5.14,5.14,0,0,0,0-.93.52.52,0,0,0-.18-.37.9.9,0,0,0-.47-.09.79.79,0,0,0-.4.09.58.58,0,0,0-.2.31,2.23,2.23,0,0,0-.06.41,4.8,4.8,0,0,0,0,.58c0,.24,0,.43,0,.57a2,2,0,0,0,.06.39.5.5,0,0,0,.21.33.66.66,0,0,0,.4.1A.9.9,0,0,0,105.09,301.26Z"/><path class="e8597c3b-523d-49dd-8e80-7fd512b2a494" d="M108.41,301.25h0a.83.83,0,0,1-.3.41,1,1,0,0,1-.59.14,1.07,1.07,0,0,1-.59-.14.74.74,0,0,1-.27-.42,4.17,4.17,0,0,1-.06-.81v-2.26h.5v2.09a4.26,4.26,0,0,0,0,.73.44.44,0,0,0,.17.29.88.88,0,0,0,.42.07.62.62,0,0,0,.46-.15.68.68,0,0,0,.18-.41,5,5,0,0,0,0-.76v-1.86h.5v3.57h-.44Z"/><path class="e8597c3b-523d-49dd-8e80-7fd512b2a494" d="M114.24,299.09v.43h-.59v2.16l-.56.08a4,4,0,0,1-.57,0,2.4,2.4,0,0,1-1-.15.9.9,0,0,1-.44-.44,2.2,2.2,0,0,1-.11-.75,1.54,1.54,0,0,1,.16-.81.9.9,0,0,1,.5-.35v0a.82.82,0,0,1-.48-.36,1.56,1.56,0,0,1-.15-.77,1.79,1.79,0,0,1,.12-.7.88.88,0,0,1,.45-.42,2.2,2.2,0,0,1,.91-.15,4,4,0,0,1,.56,0,3.71,3.71,0,0,1,.55.09v.4l-.51-.07-.46,0a2.2,2.2,0,0,0-.73.09.53.53,0,0,0-.31.27,1.56,1.56,0,0,0-.07.55,1.34,1.34,0,0,0,.13.65.58.58,0,0,0,.55.23h.44v.43h-.44a.82.82,0,0,0-.46.11.47.47,0,0,0-.21.3,2.3,2.3,0,0,0,0,.53,1.27,1.27,0,0,0,.11.58.49.49,0,0,0,.32.26,1.89,1.89,0,0,0,.6.07,3.58,3.58,0,0,0,.61-.05v-2.23Z"/><path class="e8597c3b-523d-49dd-8e80-7fd512b2a494" d="M115.59,297.51v0l.54-.93h.55l.53.93v0h-.35l-.46-.68-.46.68Zm.56,4.23v-3.57h.5v3.57Z"/><path class="e8597c3b-523d-49dd-8e80-7fd512b2a494" d="M121,299.66a5.65,5.65,0,0,0,0-.73.43.43,0,0,0-.16-.29.71.71,0,0,0-.38-.07.61.61,0,0,0-.45.14.67.67,0,0,0-.17.4,5,5,0,0,0,0,.78v1.85h-.5v-2.08a4.18,4.18,0,0,0,0-.73.37.37,0,0,0-.15-.29.69.69,0,0,0-.37-.07.62.62,0,0,0-.46.15.7.7,0,0,0-.17.41,4.92,4.92,0,0,0,0,.76v1.85h-.5v-3.57H118l0,.5h0a.85.85,0,0,1,.27-.41,1,1,0,0,1,.57-.14,1.1,1.1,0,0,1,.57.12.68.68,0,0,1,.25.43h0a.76.76,0,0,1,.28-.41,1.06,1.06,0,0,1,.58-.14,1,1,0,0,1,.56.13.68.68,0,0,1,.26.43,4,4,0,0,1,.07.8v2.26H121Z"/><path class="e8597c3b-523d-49dd-8e80-7fd512b2a494" d="M123.17,301.69a.69.69,0,0,1-.32-.44h0l0,.49h-.43v-5.2h.49v2.07h0a.62.62,0,0,1,.3-.38,1,1,0,0,1,.53-.11,1.08,1.08,0,0,1,.63.15.84.84,0,0,1,.3.55,7.26,7.26,0,0,1,0,2.28.89.89,0,0,1-.31.55,1.08,1.08,0,0,1-.63.15A1.22,1.22,0,0,1,123.17,301.69Zm.82-.43a.49.49,0,0,0,.19-.37,6.51,6.51,0,0,0,0-.93,6.31,6.31,0,0,0,0-.93.49.49,0,0,0-.19-.37.86.86,0,0,0-.46-.09.76.76,0,0,0-.4.09.49.49,0,0,0-.2.31,1.59,1.59,0,0,0-.07.41c0,.15,0,.34,0,.58s0,.43,0,.57a2,2,0,0,0,.06.39.54.54,0,0,0,.2.33.71.71,0,0,0,.41.1A.86.86,0,0,0,124,301.26Z"/><path class="e8597c3b-523d-49dd-8e80-7fd512b2a494" d="M127.32,301.25h0a.81.81,0,0,1-.29.41,1.07,1.07,0,0,1-.59.14,1,1,0,0,1-.59-.14.69.69,0,0,1-.27-.42,4,4,0,0,1-.07-.81v-2.26h.5v2.09a4,4,0,0,0,0,.73.44.44,0,0,0,.17.29.84.84,0,0,0,.41.07.61.61,0,0,0,.46-.15.75.75,0,0,0,.19-.41,5,5,0,0,0,0-.76v-1.86h.5v3.57h-.45Z"/><path class="e8597c3b-523d-49dd-8e80-7fd512b2a494" d="M130.48,299.66a4,4,0,0,0,0-.73.4.4,0,0,0-.17-.29.84.84,0,0,0-.41-.07.63.63,0,0,0-.47.15.68.68,0,0,0-.18.41,6.64,6.64,0,0,0,0,.76v1.85h-.49v-3.57h.43l0,.5h0a.77.77,0,0,1,.29-.41,1.09,1.09,0,0,1,.59-.14,1,1,0,0,1,.59.14.63.63,0,0,1,.27.42,3.41,3.41,0,0,1,.07.81v2.25h-.5Z"/><path class="e8597c3b-523d-49dd-8e80-7fd512b2a494" d="M131.85,301.58a1.2,1.2,0,0,1-.22-.82,2.05,2.05,0,0,1,.08-.63.61.61,0,0,1,.28-.33,1.32,1.32,0,0,1,.54-.09l.93,0v-.25a2.31,2.31,0,0,0-.06-.63.39.39,0,0,0-.22-.26,1.63,1.63,0,0,0-.52-.06l-.42,0-.43.05v-.41a5.06,5.06,0,0,1,1-.09,1.72,1.72,0,0,1,.73.12.64.64,0,0,1,.33.4,3,3,0,0,1,.09.84v2.26h-.44l0-.49h0a.69.69,0,0,1-.34.44,1.35,1.35,0,0,1-.55.11A1,1,0,0,1,131.85,301.58Zm1.77-4.49a.51.51,0,0,1-.22.33.92.92,0,0,1-.53.12.87.87,0,0,1-.51-.12.51.51,0,0,1-.22-.33,2.62,2.62,0,0,1,0-.55h.35a2.13,2.13,0,0,0,0,.4.31.31,0,0,0,.11.2.46.46,0,0,0,.29.07.51.51,0,0,0,.31-.07.31.31,0,0,0,.11-.2,2.13,2.13,0,0,0,0-.4h.36A2.51,2.51,0,0,1,133.62,297.09Zm-.5,4.22a.41.41,0,0,0,.23-.25,2.2,2.2,0,0,0,.11-.75v-.23h-.8a1,1,0,0,0-.34,0,.28.28,0,0,0-.15.18,1.6,1.6,0,0,0,0,.43,1.32,1.32,0,0,0,0,.4.32.32,0,0,0,.17.19,1.2,1.2,0,0,0,.38.05A1.12,1.12,0,0,0,133.12,301.31Z"/><path class="e8597c3b-523d-49dd-8e80-7fd512b2a494" d="M135,301.74V298.6h-.52v-.43H135v-1h.5v1h.61v.43h-.61v3.14Z"/><path class="e8597c3b-523d-49dd-8e80-7fd512b2a494" d="M136.74,301.58a1.15,1.15,0,0,1-.22-.82,2.05,2.05,0,0,1,.08-.63.61.61,0,0,1,.28-.33,1.25,1.25,0,0,1,.54-.09l.92,0v-.25a2.31,2.31,0,0,0-.06-.63.37.37,0,0,0-.22-.26,1.55,1.55,0,0,0-.52-.06l-.41,0-.43.05v-.41a5,5,0,0,1,1-.09,1.69,1.69,0,0,1,.73.12.62.62,0,0,1,.34.4,3,3,0,0,1,.09.84v2.26h-.44l0-.49h0a.66.66,0,0,1-.34.44,1.27,1.27,0,0,1-.54.11A1,1,0,0,1,136.74,301.58Zm1.77-4.49a.59.59,0,0,1-.22.33.94.94,0,0,1-.53.12.91.91,0,0,1-.52-.12.53.53,0,0,1-.21-.33,2.51,2.51,0,0,1-.05-.55h.35a3.59,3.59,0,0,0,0,.4.37.37,0,0,0,.12.2.46.46,0,0,0,.29.07.47.47,0,0,0,.3-.07.28.28,0,0,0,.12-.2,3.59,3.59,0,0,0,0-.4h.35A2.62,2.62,0,0,1,138.51,297.09Zm-.5,4.22a.44.44,0,0,0,.23-.25,2.23,2.23,0,0,0,.1-.75v-.23h-.8a.92.92,0,0,0-.33,0,.28.28,0,0,0-.15.18,1.53,1.53,0,0,0-.05.43,1.25,1.25,0,0,0,.05.4.29.29,0,0,0,.17.19,1.41,1.41,0,0,0,.78,0Z"/><path class="e8597c3b-523d-49dd-8e80-7fd512b2a494" d="M139.92,301.74V298.6h-.52v-.43h.52v-1h.49v1H141v.43h-.62v3.14Zm.2,1.47a.6.6,0,0,0,.06-.32v-.11H140v-.6h.56v.54a1.59,1.59,0,0,1,0,.5.36.36,0,0,1-.19.24,1.22,1.22,0,0,1-.44.06v-.24C140,303.28,140.08,303.26,140.12,303.21Z"/><path class="e8597c3b-523d-49dd-8e80-7fd512b2a494" d="M141.6,297.12v-.58h.52v.58Zm0,4.62v-3.57h.5v3.57Z"/><path class="e8597c3b-523d-49dd-8e80-7fd512b2a494" d="M143.2,301.74V298.6h-.52v-.43h.52v-1h.5v1h.61v.43h-.61v3.14Z"/><path class="e8597c3b-523d-49dd-8e80-7fd512b2a494" d="M146.51,301.65a.94.94,0,0,1-.3-.54,5.61,5.61,0,0,1-.08-1.15,5.68,5.68,0,0,1,.08-1.14.89.89,0,0,1,.3-.55,1.07,1.07,0,0,1,.62-.15,1,1,0,0,1,.54.11.62.62,0,0,1,.3.38h0v-2.07h.5v5.2h-.45l0-.49h0a.66.66,0,0,1-.32.44,1.2,1.2,0,0,1-.54.11A1.13,1.13,0,0,1,146.51,301.65Zm1.22-.4a.5.5,0,0,0,.2-.32,2.37,2.37,0,0,0,.06-.41c0-.15,0-.36,0-.62a4.11,4.11,0,0,0-.06-.84.61.61,0,0,0-.21-.38.67.67,0,0,0-.43-.11.91.91,0,0,0-.46.09.52.52,0,0,0-.18.37,6.31,6.31,0,0,0,0,.93,6.51,6.51,0,0,0,0,.93.52.52,0,0,0,.19.37.86.86,0,0,0,.46.09A.69.69,0,0,0,147.73,301.25Z"/><path class="e8597c3b-523d-49dd-8e80-7fd512b2a494" d="M151.61,300.12h-1.84a4.85,4.85,0,0,0,0,.81.5.5,0,0,0,.23.35,1.34,1.34,0,0,0,.58.09,5.06,5.06,0,0,0,.88-.07v.4a3.13,3.13,0,0,1-.44.07l-.54,0a1.61,1.61,0,0,1-.83-.17.79.79,0,0,1-.34-.53,5.44,5.44,0,0,1-.08-1.14,6.18,6.18,0,0,1,.07-1.12.79.79,0,0,1,.32-.55,1.57,1.57,0,0,1,.82-.17,1.29,1.29,0,0,1,.77.17.77.77,0,0,1,.29.52,7.76,7.76,0,0,1,.06,1.15Zm-1.6-1.5a.45.45,0,0,0-.19.33,4.8,4.8,0,0,0,0,.8h1.36v-.09a3.28,3.28,0,0,0-.06-.74.44.44,0,0,0-.18-.31.84.84,0,0,0-.4-.07A1.12,1.12,0,0,0,150,298.62Z"/><path class="e8597c3b-523d-49dd-8e80-7fd512b2a494" d="M153.66,301.71v-.46a4.46,4.46,0,0,0,.54.06l.5,0a2.27,2.27,0,0,0,.44,0,.58.58,0,0,0,.27-.14.43.43,0,0,0,.13-.26,2.84,2.84,0,0,0,0-.47,3.22,3.22,0,0,0,0-.54.31.31,0,0,0-.13-.22,1,1,0,0,0-.36-.11l-.81-.13a.79.79,0,0,1-.45-.2.8.8,0,0,1-.19-.39,3.55,3.55,0,0,1,0-.63,1.42,1.42,0,0,1,.3-1,1.35,1.35,0,0,1,1-.31,4.45,4.45,0,0,1,1.07.11v.44a5.09,5.09,0,0,0-1-.09,1.56,1.56,0,0,0-.48.06.51.51,0,0,0-.26.15.57.57,0,0,0-.12.26,2.21,2.21,0,0,0,0,.39,2.59,2.59,0,0,0,0,.47.32.32,0,0,0,.11.2.7.7,0,0,0,.28.09l.79.13a1.57,1.57,0,0,1,.46.14.66.66,0,0,1,.26.34,2.66,2.66,0,0,1,.08.8,2.4,2.4,0,0,1-.12.85.75.75,0,0,1-.38.45,1.68,1.68,0,0,1-.74.14A7.51,7.51,0,0,1,153.66,301.71Z"/><path class="e8597c3b-523d-49dd-8e80-7fd512b2a494" d="M156.81,297.12v-.58h.53v.58Zm0,4.62v-3.57h.5v3.57Z"/><path class="e8597c3b-523d-49dd-8e80-7fd512b2a494" d="M158.2,301.74v-5.2h.5v5.2Z"/><path class="e8597c3b-523d-49dd-8e80-7fd512b2a494" d="M160.24,301.74l-1-3.57h.52l.76,2.94h0l.75-2.94h.5l-1,3.57Z"/><path class="e8597c3b-523d-49dd-8e80-7fd512b2a494" d="M162.39,297.12v-.58h.53v.58Zm0,4.62v-3.57h.49v3.57Z"/><path class="e8597c3b-523d-49dd-8e80-7fd512b2a494" d="M163.79,301.58a1.21,1.21,0,0,1-.21-.82,1.78,1.78,0,0,1,.08-.63.56.56,0,0,1,.27-.33,1.32,1.32,0,0,1,.54-.09l.93,0v-.25a2.31,2.31,0,0,0-.06-.63.39.39,0,0,0-.22-.26,1.63,1.63,0,0,0-.52-.06l-.42,0-.43.05v-.41a5.06,5.06,0,0,1,1-.09,1.72,1.72,0,0,1,.73.12.64.64,0,0,1,.33.4,3,3,0,0,1,.09.84v2.26h-.44l0-.49h0a.66.66,0,0,1-.34.44,1.35,1.35,0,0,1-.55.11A1,1,0,0,1,163.79,301.58Zm1.27-.27a.41.41,0,0,0,.23-.25,2.2,2.2,0,0,0,.11-.75v-.23h-.8a.92.92,0,0,0-.33,0,.26.26,0,0,0-.16.18,1.6,1.6,0,0,0,0,.43,1.32,1.32,0,0,0,0,.4.32.32,0,0,0,.17.19,1.2,1.2,0,0,0,.38.05A1.12,1.12,0,0,0,165.06,301.31Z"/><path class="e8597c3b-523d-49dd-8e80-7fd512b2a494" d="M168.15,296.93h1.46a1,1,0,0,1,.85.31,1.3,1.3,0,0,1,.26.89,1.4,1.4,0,0,1-.17.77.8.8,0,0,1-.54.37v0a.79.79,0,0,1,.59.39,1.64,1.64,0,0,1,.17.8,1.48,1.48,0,0,1-.26.92,1.06,1.06,0,0,1-.93.34h-1.43Zm1.87,1.94a1,1,0,0,0,.18-.64,1.27,1.27,0,0,0-.07-.49.46.46,0,0,0-.22-.27,1,1,0,0,0-.45-.08h-.79v1.68h.79A.75.75,0,0,0,170,298.87Zm.06,2.22a1.18,1.18,0,0,0,.15-.68,1.08,1.08,0,0,0-.16-.68.76.76,0,0,0-.59-.2h-.81v1.75h.81A.76.76,0,0,0,170.08,301.09Z"/><path class="e8597c3b-523d-49dd-8e80-7fd512b2a494" d="M171.83,301.65a.73.73,0,0,1-.33-.51,7.8,7.8,0,0,1-.07-1.18,7.7,7.7,0,0,1,.07-1.18.73.73,0,0,1,.33-.52,1.75,1.75,0,0,1,.81-.14,1.83,1.83,0,0,1,.82.14.75.75,0,0,1,.32.52,7.7,7.7,0,0,1,.07,1.18,7.8,7.8,0,0,1-.07,1.18.75.75,0,0,1-.32.51,1.68,1.68,0,0,1-.82.15A1.61,1.61,0,0,1,171.83,301.65Zm1.3-.38a.45.45,0,0,0,.18-.36,6.88,6.88,0,0,0,0-1,6.78,6.78,0,0,0,0-.95.49.49,0,0,0-.18-.37.92.92,0,0,0-.49-.1,1,1,0,0,0-.5.1.56.56,0,0,0-.18.37c0,.18,0,.5,0,.95s0,.77,0,1a.51.51,0,0,0,.18.36.89.89,0,0,0,.5.1A.83.83,0,0,0,173.13,301.27Z"/><path class="e8597c3b-523d-49dd-8e80-7fd512b2a494" d="M174.63,303.09v-.41l.85,0a1.25,1.25,0,0,0,.6-.11.51.51,0,0,0,.25-.36,4.29,4.29,0,0,0,.06-.85v-.1h0a.67.67,0,0,1-.29.38,1.2,1.2,0,0,1-.54.11,1.06,1.06,0,0,1-.64-.16.83.83,0,0,1-.29-.53,7.27,7.27,0,0,1,0-2.28.88.88,0,0,1,.3-.54,1.1,1.1,0,0,1,.64-.15,1.25,1.25,0,0,1,.53.11.72.72,0,0,1,.32.44h0l0-.5h.44v3.06a6.35,6.35,0,0,1-.08,1.15.86.86,0,0,1-.37.57,1.5,1.5,0,0,1-.86.19A9.36,9.36,0,0,1,174.63,303.09Zm1.48-1.86a.6.6,0,0,0,.2-.33,4.26,4.26,0,0,0,.08-.95c0-.22,0-.4,0-.54a1.68,1.68,0,0,0-.06-.36.61.61,0,0,0-.21-.37.63.63,0,0,0-.41-.11.93.93,0,0,0-.47.09.51.51,0,0,0-.18.36,8.67,8.67,0,0,0,0,1.86.54.54,0,0,0,.18.37.93.93,0,0,0,.47.09A.71.71,0,0,0,176.11,301.23Z"/><path class="e8597c3b-523d-49dd-8e80-7fd512b2a494" d="M178,301.65a.94.94,0,0,1-.3-.54,5.47,5.47,0,0,1-.09-1.15,5.55,5.55,0,0,1,.09-1.14.88.88,0,0,1,.29-.55,1.11,1.11,0,0,1,.63-.15,1.08,1.08,0,0,1,.54.11.62.62,0,0,1,.3.38h0v-2.07H180v5.2h-.44l0-.49h0a.69.69,0,0,1-.32.44,1.27,1.27,0,0,1-.54.11A1.08,1.08,0,0,1,178,301.65Zm1.22-.4a.54.54,0,0,0,.2-.32,2.37,2.37,0,0,0,.06-.41c0-.15,0-.36,0-.62a3.94,3.94,0,0,0-.07-.84.56.56,0,0,0-.2-.38.69.69,0,0,0-.43-.11.88.88,0,0,0-.46.09.52.52,0,0,0-.18.37,6.31,6.31,0,0,0,0,.93,6.51,6.51,0,0,0,0,.93.52.52,0,0,0,.18.37.9.9,0,0,0,.47.09A.71.71,0,0,0,179.26,301.25Z"/><path class="e8597c3b-523d-49dd-8e80-7fd512b2a494" d="M180.93,301.58a1.15,1.15,0,0,1-.22-.82,2.05,2.05,0,0,1,.08-.63.64.64,0,0,1,.27-.33,1.34,1.34,0,0,1,.55-.09l.92,0v-.25a2.31,2.31,0,0,0-.06-.63.38.38,0,0,0-.21-.26,1.66,1.66,0,0,0-.53-.06l-.41,0-.43.05v-.41a5,5,0,0,1,1-.09,1.77,1.77,0,0,1,.74.12.64.64,0,0,1,.33.4,3,3,0,0,1,.09.84v2.26h-.44l0-.49h0a.65.65,0,0,1-.33.44,1.35,1.35,0,0,1-.55.11A1,1,0,0,1,180.93,301.58Zm1.27-.27a.41.41,0,0,0,.23-.25,2.23,2.23,0,0,0,.1-.75v-.23h-.8a.92.92,0,0,0-.33,0,.28.28,0,0,0-.15.18,1.53,1.53,0,0,0-.05.43,1.25,1.25,0,0,0,.05.4.29.29,0,0,0,.17.19,1.41,1.41,0,0,0,.78,0Z"/><path class="e8597c3b-523d-49dd-8e80-7fd512b2a494" d="M185.7,299.66a4.26,4.26,0,0,0,0-.73.44.44,0,0,0-.17-.29.91.91,0,0,0-.42-.07.65.65,0,0,0-.47.15.82.82,0,0,0-.18.41,7.16,7.16,0,0,0,0,.76v1.85h-.5v-3.57h.43l0,.5h0a.83.83,0,0,1,.29-.41,1.11,1.11,0,0,1,.6-.14,1,1,0,0,1,.59.14.65.65,0,0,1,.26.42,3.41,3.41,0,0,1,.07.81v2.25h-.5Z"/><path class="e8597c3b-523d-49dd-8e80-7fd512b2a494" d="M43.1,50.15s-.73,1-.38,1.34c0,0,.13.08.29-.13a8.33,8.33,0,0,0,.22-1.16s0-.2-.13-.05"/><path class="a6f11fd6-43b7-4ef5-a52e-6e595541bdec" d="M43.1,50.15s-.73,1-.38,1.34c0,0,.13.08.29-.13a8.33,8.33,0,0,0,.22-1.16S43.27,50,43.1,50.15Z"/><path class="e8597c3b-523d-49dd-8e80-7fd512b2a494" d="M42.62,52.58s-.37.68-.22.62.42-.77.22-.62"/><path class="f2d424b7-8278-4afa-ab1c-0967d6163292" d="M42.62,52.58s-.37.68-.22.62S42.82,52.43,42.62,52.58Z"/><path class="e8597c3b-523d-49dd-8e80-7fd512b2a494" d="M42.09,58.12c-.55-.34-.34-.61-.34-.61.12-.22.39.52.39.52s.08.17,0,.09"/><path class="f2d424b7-8278-4afa-ab1c-0967d6163292" d="M42.09,58.12c-.55-.34-.34-.61-.34-.61.12-.22.39.52.39.52S42.22,58.2,42.09,58.12Z"/><path class="b55e60c7-e899-46d9-8851-f56729d7234a" d="M96.81,101.46l-.53-2.73h-3l-.52,2.73H90.12l2.75-13.33h3.9l2.75,13.33Zm-2-10.81h-.12l-1,5.78h2.19Z"/><path class="b55e60c7-e899-46d9-8851-f56729d7234a" d="M100.56,91.58h2.37l.08,1.63h.15a2.06,2.06,0,0,1,2.29-1.78V94a3.16,3.16,0,0,0-1.39.26,1.5,1.5,0,0,0-.75.89,5,5,0,0,0-.25,1.78v4.49h-2.5Z"/><path class="b55e60c7-e899-46d9-8851-f56729d7234a" d="M107.23,101.46V93.67H106V91.58h1.22V88.71h2.5v2.87h1.57v2.09h-1.57v7.79Z"/><path class="b55e60c7-e899-46d9-8851-f56729d7234a" d="M119.13,97.3h-4.4a7.55,7.55,0,0,0,.1,1.53.72.72,0,0,0,.44.56,3.91,3.91,0,0,0,1.26.14c.49,0,1.28,0,2.36-.12v1.92a12.13,12.13,0,0,1-1.35.2,15,15,0,0,1-1.59.09,4.73,4.73,0,0,1-2.51-.51,2.33,2.33,0,0,1-1-1.53,22,22,0,0,1,0-6.06,2.46,2.46,0,0,1,1-1.56,5.63,5.63,0,0,1,4.68,0A2.16,2.16,0,0,1,119,93.4a21.07,21.07,0,0,1,.17,3.14Zm-4-3.66a.78.78,0,0,0-.28.56,7.86,7.86,0,0,0-.08,1.41h2a9.53,9.53,0,0,0-.07-1.42.84.84,0,0,0-.28-.56,1.21,1.21,0,0,0-.66-.13A1.25,1.25,0,0,0,115.09,93.64Z"/><path class="b55e60c7-e899-46d9-8851-f56729d7234a" d="M120.7,101.46V87.07h2.5v14.39Z"/><path class="b55e60c7-e899-46d9-8851-f56729d7234a" d="M131.64,97.3h-4.4a8.39,8.39,0,0,0,.1,1.53.73.73,0,0,0,.45.56,3.91,3.91,0,0,0,1.26.14c.49,0,1.27,0,2.36-.12v1.92a12.37,12.37,0,0,1-1.36.2,14.67,14.67,0,0,1-1.59.09,4.69,4.69,0,0,1-2.5-.51,2.29,2.29,0,0,1-1-1.53,21,21,0,0,1,0-6.06,2.42,2.42,0,0,1,1-1.56,5.63,5.63,0,0,1,4.68,0,2.16,2.16,0,0,1,.87,1.48,21.4,21.4,0,0,1,.16,3.14Zm-4-3.66a.82.82,0,0,0-.28.56,9,9,0,0,0-.08,1.41h2.06a9.19,9.19,0,0,0-.08-1.42.79.79,0,0,0-.27-.56,1.21,1.21,0,0,0-.66-.13A1.32,1.32,0,0,0,127.6,93.64Z"/><path class="b55e60c7-e899-46d9-8851-f56729d7234a" d="M78.43,124.71V111.38h6.18v2.35H81.1v3.39h3.08v2.34H81.1v5.25Z"/><path class="b55e60c7-e899-46d9-8851-f56729d7234a" d="M85.91,114.83h2.36l.08,1.63h.15a2.46,2.46,0,0,1,.84-1.39,2.42,2.42,0,0,1,1.45-.39v2.61a3.19,3.19,0,0,0-1.39.26,1.5,1.5,0,0,0-.75.89,5.22,5.22,0,0,0-.24,1.78v4.49h-2.5Z"/><path class="b55e60c7-e899-46d9-8851-f56729d7234a" d="M96.47,123.53h-.16a2,2,0,0,1-2.17,1.34,2.25,2.25,0,0,1-1.42-.37,1.83,1.83,0,0,1-.64-1.11,10.06,10.06,0,0,1-.17-2.07v-6.49h2.5v5.35a15.91,15.91,0,0,0,.06,1.71.86.86,0,0,0,.24.59,1.35,1.35,0,0,0,.67.12,1,1,0,0,0,.69-.19,1.17,1.17,0,0,0,.26-.73c0-.35.06-1,.06-1.79v-5.06h2.5v9.88H96.54Z"/><path class="b55e60c7-e899-46d9-8851-f56729d7234a" d="M109.37,119.37a16,16,0,0,0-.06-1.7,1,1,0,0,0-.22-.6,1.09,1.09,0,0,0-.61-.12.91.91,0,0,0-.66.19,1.13,1.13,0,0,0-.24.71c0,.34,0,.94,0,1.81v5H105v-5.34a16,16,0,0,0-.06-1.7,1,1,0,0,0-.22-.6,1.15,1.15,0,0,0-.63-.12.87.87,0,0,0-.65.19,1.31,1.31,0,0,0-.24.73c0,.35-.06.95-.06,1.79v5h-2.5v-9.88H103l.07,1.18h.14a2,2,0,0,1,.81-1,2.58,2.58,0,0,1,1.34-.31,2.39,2.39,0,0,1,1.34.32,1.67,1.67,0,0,1,.64,1h.15a1.92,1.92,0,0,1,.81-1,2.71,2.71,0,0,1,1.36-.31,2.2,2.2,0,0,1,1.36.36,1.88,1.88,0,0,1,.64,1.08,9.41,9.41,0,0,1,.17,2v6.6h-2.5Z"/><path class="b55e60c7-e899-46d9-8851-f56729d7234a" d="M114.56,124.44a2.06,2.06,0,0,1-1-1.43,25,25,0,0,1,0-6.47,2.1,2.1,0,0,1,1-1.44,7.1,7.1,0,0,1,4.81,0,2.07,2.07,0,0,1,.95,1.44,25,25,0,0,1,0,6.47,2,2,0,0,1-.95,1.43,6.94,6.94,0,0,1-4.81,0Zm3.17-1.84a1,1,0,0,0,.25-.72c0-.37,0-1.07,0-2.11s0-1.73,0-2.1a1,1,0,0,0-.25-.72,1.17,1.17,0,0,0-.76-.18,1.2,1.2,0,0,0-.77.18,1,1,0,0,0-.25.72c0,.37,0,1.07,0,2.1s0,1.74,0,2.11a1,1,0,0,0,.25.72,1.2,1.2,0,0,0,.77.18A1.17,1.17,0,0,0,117.73,122.6Z"/><path class="b55e60c7-e899-46d9-8851-f56729d7234a" d="M122.2,124.14a3.9,3.9,0,0,1-.53-2.27,5.39,5.39,0,0,1,.24-1.8,1.63,1.63,0,0,1,.78-.94,3.14,3.14,0,0,1,1.54-.31c.47,0,1.09,0,1.86.08v-.44a3.89,3.89,0,0,0-.12-1.16.68.68,0,0,0-.47-.43,4.52,4.52,0,0,0-1.17-.1c-.54,0-1.27,0-2.17.14V115a15.14,15.14,0,0,1,2.92-.29,4.94,4.94,0,0,1,2.21.39,2,2,0,0,1,1,1.22,8.09,8.09,0,0,1,.27,2.38v6h-2.38l-.08-1.16H126a1.74,1.74,0,0,1-.82,1,2.61,2.61,0,0,1-1.26.3A2,2,0,0,1,122.2,124.14Zm3.34-1.52a.68.68,0,0,0,.34-.29,2.78,2.78,0,0,0,.21-1.33v-.49h-1.16a.82.82,0,0,0-.67.21,1.76,1.76,0,0,0-.16.93,1.5,1.5,0,0,0,.16.84q.17.21.75.21A1.56,1.56,0,0,0,125.54,122.62Z"/><path class="b55e60c7-e899-46d9-8851-f56729d7234a" d="M131.57,124.78a12.43,12.43,0,0,1-1.41-.22v-1.92a21.59,21.59,0,0,0,2.21.14,3.61,3.61,0,0,0,.86-.07.57.57,0,0,0,.39-.26,1.31,1.31,0,0,0,.11-.6,2.89,2.89,0,0,0,0-.63.35.35,0,0,0-.2-.25,1.9,1.9,0,0,0-.51-.13l-1.63-.27a1.36,1.36,0,0,1-1.09-.77,5.18,5.18,0,0,1-.32-2.12,2.87,2.87,0,0,1,.81-2.33,3.73,3.73,0,0,1,2.42-.67,11,11,0,0,1,1.36.09,6.15,6.15,0,0,1,1.16.22v1.94a15.88,15.88,0,0,0-2.05-.16,1.93,1.93,0,0,0-1,.17c-.16.11-.24.34-.24.7a2.74,2.74,0,0,0,0,.6.35.35,0,0,0,.16.25,1.43,1.43,0,0,0,.44.1l1.41.22a2.33,2.33,0,0,1,.89.32,1.53,1.53,0,0,1,.58.82,5.39,5.39,0,0,1,.22,1.72,3.29,3.29,0,0,1-.76,2.51,3.35,3.35,0,0,1-2.32.69A13.79,13.79,0,0,1,131.57,124.78Z"/><path class="b55e60c7-e899-46d9-8851-f56729d7234a" d="M144.19,120.55h-4.4a7.48,7.48,0,0,0,.1,1.53.72.72,0,0,0,.44.56,3.91,3.91,0,0,0,1.26.14q.74,0,2.37-.12v1.92a12.75,12.75,0,0,1-1.36.2,15,15,0,0,1-1.59.09,4.76,4.76,0,0,1-2.51-.51,2.36,2.36,0,0,1-1-1.52,22,22,0,0,1,0-6.07,2.5,2.5,0,0,1,1-1.56,4.27,4.27,0,0,1,2.39-.53,4.1,4.1,0,0,1,2.29.49,2.16,2.16,0,0,1,.87,1.48,21.07,21.07,0,0,1,.17,3.14Zm-4-3.66a.8.8,0,0,0-.28.56,9,9,0,0,0-.08,1.41h2.05a9.53,9.53,0,0,0-.07-1.42.88.88,0,0,0-.27-.56,1.21,1.21,0,0,0-.66-.13A1.27,1.27,0,0,0,140.15,116.89Z"/><path class="ebf627ba-64de-4fa5-9cd6-c8133c4bc72d" d="M76,150.66v-5.57h0l-1.53,5.57h-.68l-1.52-5.57h0v5.57h-.71v-6.88h1.08l1.52,5.59h.06l1.53-5.59h1.06v6.88Z"/><path class="ebf627ba-64de-4fa5-9cd6-c8133c4bc72d" d="M78.08,150.42a1.7,1.7,0,0,1-.31-1.16,2.74,2.74,0,0,1,.12-.91.78.78,0,0,1,.39-.46,1.76,1.76,0,0,1,.77-.14l1.32.05v-.36a3.38,3.38,0,0,0-.08-.91.54.54,0,0,0-.31-.36,2.59,2.59,0,0,0-.75-.08l-.59,0-.62.08v-.58a7,7,0,0,1,1.41-.14,2.53,2.53,0,0,1,1,.17.9.9,0,0,1,.47.58,4.06,4.06,0,0,1,.13,1.2v3.23h-.63l0-.7h0a1,1,0,0,1-.48.62,1.77,1.77,0,0,1-.79.16A1.39,1.39,0,0,1,78.08,150.42Zm2.53-6.4a.78.78,0,0,1-.31.46,1.4,1.4,0,0,1-.76.17,1.33,1.33,0,0,1-.74-.17.72.72,0,0,1-.3-.46,4,4,0,0,1-.07-.79h.5a3.78,3.78,0,0,0,0,.56.46.46,0,0,0,.16.29.68.68,0,0,0,.42.11.73.73,0,0,0,.44-.11.42.42,0,0,0,.16-.29,3.78,3.78,0,0,0,0-.56h.5A4.08,4.08,0,0,1,80.61,144Zm-.72,6a.54.54,0,0,0,.33-.36,3.12,3.12,0,0,0,.15-1.07v-.33H79.23a1.37,1.37,0,0,0-.47.06.41.41,0,0,0-.22.26,2.21,2.21,0,0,0-.07.61,2,2,0,0,0,.07.58.39.39,0,0,0,.24.26,1.46,1.46,0,0,0,.54.08A1.48,1.48,0,0,0,79.89,150Z"/><path class="ebf627ba-64de-4fa5-9cd6-c8133c4bc72d" d="M84.23,145.56h.62l0,.71H85a1,1,0,0,1,.46-.63,1.61,1.61,0,0,1,.76-.16,1.49,1.49,0,0,1,.9.22,1.21,1.21,0,0,1,.44.77,11.13,11.13,0,0,1,0,3.26,1.23,1.23,0,0,1-.43.78,1.49,1.49,0,0,1-.9.23,1.56,1.56,0,0,1-.76-.16A1,1,0,0,1,85,150h0v2.55h-.71ZM86.59,150a.74.74,0,0,0,.26-.53,12.67,12.67,0,0,0,0-2.66.74.74,0,0,0-.26-.53,1.23,1.23,0,0,0-.67-.13,1,1,0,0,0-.59.15.86.86,0,0,0-.3.5,2.84,2.84,0,0,0-.07.55c0,.21,0,.47,0,.79a6.48,6.48,0,0,0,.08,1.25,1,1,0,0,0,.3.57,1,1,0,0,0,.6.17A1.23,1.23,0,0,0,86.59,150Z"/><path class="ebf627ba-64de-4fa5-9cd6-c8133c4bc72d" d="M88.75,150.42a1.7,1.7,0,0,1-.31-1.16,2.74,2.74,0,0,1,.12-.91.78.78,0,0,1,.39-.46,1.76,1.76,0,0,1,.77-.14l1.32.05v-.36a3.38,3.38,0,0,0-.08-.91.54.54,0,0,0-.31-.36,2.59,2.59,0,0,0-.75-.08l-.59,0-.62.08v-.58a7,7,0,0,1,1.41-.14,2.53,2.53,0,0,1,1.05.17.9.9,0,0,1,.47.58,4.06,4.06,0,0,1,.13,1.2v3.23h-.63l0-.7h0a1,1,0,0,1-.48.62,1.77,1.77,0,0,1-.79.16A1.39,1.39,0,0,1,88.75,150.42Zm1.81-.38a.54.54,0,0,0,.33-.36,3.12,3.12,0,0,0,.15-1.07v-.33H89.9a1.37,1.37,0,0,0-.47.06.41.41,0,0,0-.22.26,2.21,2.21,0,0,0-.07.61,2,2,0,0,0,.07.58.39.39,0,0,0,.24.26,1.46,1.46,0,0,0,.54.08A1.48,1.48,0,0,0,90.56,150Z"/><path class="ebf627ba-64de-4fa5-9cd6-c8133c4bc72d" d="M93.49,150.7c-.26,0-.47,0-.64-.08V150a8.2,8.2,0,0,0,1.32.11,1.19,1.19,0,0,0,.57-.1.49.49,0,0,0,.25-.28,1.59,1.59,0,0,0,.06-.49,2.25,2.25,0,0,0,0-.53.32.32,0,0,0-.13-.21,1.21,1.21,0,0,0-.33-.08l-1-.15a.85.85,0,0,1-.65-.37,2,2,0,0,1-.17-1,2,2,0,0,1,.19-.93,1,1,0,0,1,.53-.44,2.58,2.58,0,0,1,.86-.12,5.07,5.07,0,0,1,.66,0,3.87,3.87,0,0,1,.56.1v.58l-.56-.09q-.33,0-.66,0a1.11,1.11,0,0,0-.68.17.84.84,0,0,0-.21.67,2.51,2.51,0,0,0,0,.48.37.37,0,0,0,.14.22.82.82,0,0,0,.31.09l1,.13a1.23,1.23,0,0,1,.51.16.81.81,0,0,1,.27.42,2.93,2.93,0,0,1,.09.83,1.5,1.5,0,0,1-.36,1.16,1.7,1.7,0,0,1-1.17.33A6.41,6.41,0,0,1,93.49,150.7Z"/><path class="ebf627ba-64de-4fa5-9cd6-c8133c4bc72d" d="M96.73,144.06v-.83h.75v.83Zm0,6.6v-5.1h.71v5.1Z"/><path class="ebf627ba-64de-4fa5-9cd6-c8133c4bc72d" d="M99.12,150.53a1,1,0,0,1-.46-.73,13,13,0,0,1,0-3.38,1,1,0,0,1,.46-.73,2.39,2.39,0,0,1,1.16-.21,2.43,2.43,0,0,1,1.17.21,1,1,0,0,1,.45.73,14.33,14.33,0,0,1,0,3.38,1,1,0,0,1-.45.73,2.43,2.43,0,0,1-1.17.21A2.39,2.39,0,0,1,99.12,150.53ZM101,150a.68.68,0,0,0,.25-.52,18.52,18.52,0,0,0,0-2.72.68.68,0,0,0-.25-.52,1.87,1.87,0,0,0-1.42,0,.75.75,0,0,0-.25.52,10.33,10.33,0,0,0-.06,1.36,10,10,0,0,0,.06,1.35.76.76,0,0,0,.25.53,1.87,1.87,0,0,0,1.42,0Z"/><path class="ebf627ba-64de-4fa5-9cd6-c8133c4bc72d" d="M105.69,147.68a6.29,6.29,0,0,0-.06-1,.59.59,0,0,0-.25-.42,1.22,1.22,0,0,0-.59-.1.89.89,0,0,0-.67.22,1.07,1.07,0,0,0-.26.59,9.49,9.49,0,0,0,0,1.08v2.65h-.71v-5.1h.62l0,.71h.06a1.11,1.11,0,0,1,.42-.59,1.53,1.53,0,0,1,.84-.2,1.5,1.5,0,0,1,.85.2.94.94,0,0,1,.38.6,5.71,5.71,0,0,1,.09,1.16v3.22h-.71Z"/><path class="ebf627ba-64de-4fa5-9cd6-c8133c4bc72d" d="M110.8,148.34h-2.62a6.1,6.1,0,0,0,.08,1.16.68.68,0,0,0,.32.49,1.8,1.8,0,0,0,.82.14,7.29,7.29,0,0,0,1.26-.11v.58a4.64,4.64,0,0,1-.63.1,6.74,6.74,0,0,1-.77,0,2.24,2.24,0,0,1-1.18-.24,1.16,1.16,0,0,1-.49-.76,7.94,7.94,0,0,1-.12-1.62,10.24,10.24,0,0,1,.1-1.62,1.18,1.18,0,0,1,.47-.77,2.07,2.07,0,0,1,1.17-.25,1.89,1.89,0,0,1,1.09.24,1.12,1.12,0,0,1,.42.75,10.87,10.87,0,0,1,.08,1.64Zm-2.28-2.14a.61.61,0,0,0-.27.46,7.34,7.34,0,0,0-.07,1.15h1.94v-.12a4.71,4.71,0,0,0-.08-1.07.65.65,0,0,0-.26-.44,1.26,1.26,0,0,0-.58-.1A1.45,1.45,0,0,0,108.52,146.2Z"/><path class="ebf627ba-64de-4fa5-9cd6-c8133c4bc72d" d="M111.93,150.42a1.7,1.7,0,0,1-.31-1.16,2.74,2.74,0,0,1,.12-.91.78.78,0,0,1,.39-.46,1.76,1.76,0,0,1,.77-.14l1.32.05v-.36a3.38,3.38,0,0,0-.08-.91.54.54,0,0,0-.31-.36,2.59,2.59,0,0,0-.75-.08l-.59,0-.62.08v-.58a7,7,0,0,1,1.41-.14,2.53,2.53,0,0,1,1,.17.9.9,0,0,1,.47.58,4.06,4.06,0,0,1,.13,1.2v3.23h-.63l0-.7h-.05a1,1,0,0,1-.48.62,1.8,1.8,0,0,1-.79.16A1.39,1.39,0,0,1,111.93,150.42Zm1.81-.38a.54.54,0,0,0,.33-.36,3.12,3.12,0,0,0,.15-1.07v-.33h-1.14a1.37,1.37,0,0,0-.47.06.39.39,0,0,0-.22.26,1.88,1.88,0,0,0-.07.61,1.71,1.71,0,0,0,.07.58.39.39,0,0,0,.24.26,1.46,1.46,0,0,0,.54.08A1.48,1.48,0,0,0,113.74,150Z"/><path class="ebf627ba-64de-4fa5-9cd6-c8133c4bc72d" d="M115.87,150.66v-.56l2.18-3.93H116v-.61h3v.55l-2.19,3.94h2.2v.61Z"/><path class="ebf627ba-64de-4fa5-9cd6-c8133c4bc72d" d="M119.91,150.42a1.7,1.7,0,0,1-.31-1.16,2.74,2.74,0,0,1,.12-.91.78.78,0,0,1,.39-.46,1.76,1.76,0,0,1,.77-.14l1.32.05v-.36a3.86,3.86,0,0,0-.08-.91.54.54,0,0,0-.31-.36,2.59,2.59,0,0,0-.75-.08l-.59,0-.62.08v-.58a7,7,0,0,1,1.41-.14,2.53,2.53,0,0,1,1,.17.9.9,0,0,1,.47.58,4.06,4.06,0,0,1,.13,1.2v3.23h-.63l0-.7h0a1,1,0,0,1-.48.62,1.8,1.8,0,0,1-.79.16A1.39,1.39,0,0,1,119.91,150.42Zm2.53-6.4a.78.78,0,0,1-.31.46,1.4,1.4,0,0,1-.76.17,1.33,1.33,0,0,1-.74-.17.72.72,0,0,1-.3-.46,4,4,0,0,1-.07-.79h.5a3.78,3.78,0,0,0,0,.56.46.46,0,0,0,.16.29.68.68,0,0,0,.42.11.73.73,0,0,0,.44-.11.42.42,0,0,0,.16-.29,3.78,3.78,0,0,0,0-.56h.5A4.08,4.08,0,0,1,122.44,144Zm-.72,6a.54.54,0,0,0,.33-.36,3.12,3.12,0,0,0,.15-1.07v-.33h-1.14a1.37,1.37,0,0,0-.47.06.39.39,0,0,0-.22.26,1.88,1.88,0,0,0-.07.61,1.71,1.71,0,0,0,.07.58.39.39,0,0,0,.24.26,1.46,1.46,0,0,0,.54.08A1.48,1.48,0,0,0,121.72,150Z"/><path class="ebf627ba-64de-4fa5-9cd6-c8133c4bc72d" d="M126.08,152.58V152c.52,0,.93,0,1.21,0a1.88,1.88,0,0,0,.87-.15.8.8,0,0,0,.35-.53,6.68,6.68,0,0,0,.08-1.2V150h-.05a.9.9,0,0,1-.42.54,1.55,1.55,0,0,1-.77.16,1.49,1.49,0,0,1-.9-.22,1.2,1.2,0,0,1-.43-.77,10.63,10.63,0,0,1,0-3.25,1.2,1.2,0,0,1,.43-.77,1.49,1.49,0,0,1,.9-.22,1.65,1.65,0,0,1,.77.16,1,1,0,0,1,.45.63h0l0-.71h.63v4.36a8.41,8.41,0,0,1-.12,1.65,1.3,1.3,0,0,1-.52.82,2.36,2.36,0,0,1-1.24.26A11.78,11.78,0,0,1,126.08,152.58Zm2.11-2.65a.78.78,0,0,0,.29-.48,5.53,5.53,0,0,0,.11-1.35c0-.32,0-.58,0-.78a2.27,2.27,0,0,0-.08-.5.94.94,0,0,0-.3-.54.92.92,0,0,0-.59-.16,1.21,1.21,0,0,0-.66.13.78.78,0,0,0-.27.52,9.76,9.76,0,0,0-.07,1.33,9.48,9.48,0,0,0,.07,1.32.78.78,0,0,0,.27.53,1.21,1.21,0,0,0,.66.13A1,1,0,0,0,128.19,149.93Z"/><path class="ebf627ba-64de-4fa5-9cd6-c8133c4bc72d" d="M130.56,145.56h.62l0,.95h.06a1.28,1.28,0,0,1,.46-.81,1.48,1.48,0,0,1,.86-.22v.72a1.32,1.32,0,0,0-.81.22,1.14,1.14,0,0,0-.4.65,4.56,4.56,0,0,0-.12,1.17v2.42h-.71Z"/><path class="ebf627ba-64de-4fa5-9cd6-c8133c4bc72d" d="M133.43,150.42a1.7,1.7,0,0,1-.31-1.16,2.74,2.74,0,0,1,.12-.91.78.78,0,0,1,.39-.46,1.76,1.76,0,0,1,.77-.14l1.32.05v-.36a3.38,3.38,0,0,0-.08-.91.54.54,0,0,0-.31-.36,2.59,2.59,0,0,0-.75-.08l-.59,0-.62.08v-.58a7,7,0,0,1,1.41-.14,2.53,2.53,0,0,1,1.05.17.9.9,0,0,1,.47.58,4.06,4.06,0,0,1,.13,1.2v3.23h-.63l0-.7h0a1,1,0,0,1-.48.62,1.8,1.8,0,0,1-.79.16A1.39,1.39,0,0,1,133.43,150.42Zm1.81-.38a.54.54,0,0,0,.33-.36,3.12,3.12,0,0,0,.15-1.07v-.33h-1.14a1.37,1.37,0,0,0-.47.06.39.39,0,0,0-.22.26,1.88,1.88,0,0,0-.07.61,1.71,1.71,0,0,0,.07.58.39.39,0,0,0,.24.26,1.46,1.46,0,0,0,.54.08A1.48,1.48,0,0,0,135.24,150Z"/><path class="ebf627ba-64de-4fa5-9cd6-c8133c4bc72d" d="M138,146.17h-.74v-.61H138v-.86a2.35,2.35,0,0,1,.16-1,.71.71,0,0,1,.49-.4,4.17,4.17,0,0,1,1-.09v.56a2.83,2.83,0,0,0-.6.05.4.4,0,0,0-.27.22,1.29,1.29,0,0,0-.08.51v1h.95v.61h-.95v4.49H138Zm2.48-2.11v-.83h.75v.83Zm0,6.6v-5.1h.71v5.1Z"/><path class="ebf627ba-64de-4fa5-9cd6-c8133c4bc72d" d="M144.48,150.7a3.86,3.86,0,0,1-.58,0,1.83,1.83,0,0,1-1.08-.26,1.25,1.25,0,0,1-.45-.79,9.93,9.93,0,0,1-.1-1.58,7.23,7.23,0,0,1,.13-1.6,1.32,1.32,0,0,1,.46-.79,1.79,1.79,0,0,1,1-.24l.58,0a3,3,0,0,1,.48.1v.58a3.71,3.71,0,0,0-.9-.1,1.22,1.22,0,0,0-.69.15.88.88,0,0,0-.29.56,7.87,7.87,0,0,0-.08,1.3,8,8,0,0,0,.08,1.32.85.85,0,0,0,.29.56,1.28,1.28,0,0,0,.7.15A3.68,3.68,0,0,0,145,150v.59A2.7,2.7,0,0,1,144.48,150.7Z"/><path class="ebf627ba-64de-4fa5-9cd6-c8133c4bc72d" d="M146,150.42a1.7,1.7,0,0,1-.31-1.16,2.74,2.74,0,0,1,.12-.91.75.75,0,0,1,.39-.46,1.76,1.76,0,0,1,.77-.14l1.32.05v-.36a3.86,3.86,0,0,0-.08-.91.54.54,0,0,0-.31-.36,2.59,2.59,0,0,0-.75-.08l-.59,0-.62.08v-.58a7,7,0,0,1,1.41-.14,2.53,2.53,0,0,1,1.05.17.9.9,0,0,1,.47.58,4.06,4.06,0,0,1,.13,1.2v3.23h-.63l0-.7h0a1,1,0,0,1-.48.62,1.77,1.77,0,0,1-.79.16A1.39,1.39,0,0,1,146,150.42Zm1.81-.38a.54.54,0,0,0,.33-.36,3.12,3.12,0,0,0,.15-1.07v-.33h-1.14a1.37,1.37,0,0,0-.47.06.41.41,0,0,0-.22.26,2.21,2.21,0,0,0-.07.61,2,2,0,0,0,.07.58.39.39,0,0,0,.24.26,1.46,1.46,0,0,0,.54.08A1.48,1.48,0,0,0,147.77,150Z"/><path class="ebf627ba-64de-4fa5-9cd6-c8133c4bc72d" d="M150.26,151.42a.25.25,0,0,0,.15-.18,2,2,0,0,0,0-.41v-.17h-.33v-.9h.83v.82a3,3,0,0,1-.07.78.56.56,0,0,1-.29.36,1.57,1.57,0,0,1-.66.11v-.35A.71.71,0,0,0,150.26,151.42Z"/><path class="ebf627ba-64de-4fa5-9cd6-c8133c4bc72d" d="M60.35,162.7a3.86,3.86,0,0,1-.58,0,1.83,1.83,0,0,1-1.08-.26,1.25,1.25,0,0,1-.45-.79,9.93,9.93,0,0,1-.1-1.58,7.91,7.91,0,0,1,.13-1.6,1.32,1.32,0,0,1,.46-.79,1.79,1.79,0,0,1,1-.24l.58,0a3,3,0,0,1,.48.1v.58a3.71,3.71,0,0,0-.9-.1,1.22,1.22,0,0,0-.69.15.88.88,0,0,0-.29.56,7.87,7.87,0,0,0-.08,1.3,8,8,0,0,0,.08,1.32.85.85,0,0,0,.29.56,1.28,1.28,0,0,0,.7.15,3.68,3.68,0,0,0,.92-.11v.59A2.54,2.54,0,0,1,60.35,162.7Z"/><path class="ebf627ba-64de-4fa5-9cd6-c8133c4bc72d" d="M62.22,162.53a1,1,0,0,1-.46-.73,13,13,0,0,1,0-3.38,1,1,0,0,1,.46-.73,2.39,2.39,0,0,1,1.16-.21,2.43,2.43,0,0,1,1.17.21,1,1,0,0,1,.45.73,14.33,14.33,0,0,1,0,3.38,1,1,0,0,1-.45.73,2.43,2.43,0,0,1-1.17.21A2.39,2.39,0,0,1,62.22,162.53Zm1.87-.54a.71.71,0,0,0,.25-.52,18.52,18.52,0,0,0,0-2.72.71.71,0,0,0-.25-.52,1.87,1.87,0,0,0-1.42,0,.75.75,0,0,0-.25.52,10.33,10.33,0,0,0-.06,1.36,10,10,0,0,0,.06,1.35.76.76,0,0,0,.25.53,1.87,1.87,0,0,0,1.42,0Z"/><path class="ebf627ba-64de-4fa5-9cd6-c8133c4bc72d" d="M66.2,162.66v-7.43h.71v7.43Z"/><path class="ebf627ba-64de-4fa5-9cd6-c8133c4bc72d" d="M68.57,162.53a1,1,0,0,1-.46-.73,13,13,0,0,1,0-3.38,1,1,0,0,1,.46-.73,2.36,2.36,0,0,1,1.16-.21,2.43,2.43,0,0,1,1.17.21,1,1,0,0,1,.45.73,14.33,14.33,0,0,1,0,3.38,1,1,0,0,1-.45.73,2.43,2.43,0,0,1-1.17.21A2.36,2.36,0,0,1,68.57,162.53Zm1.87-.54a.68.68,0,0,0,.25-.52,18.52,18.52,0,0,0,0-2.72.68.68,0,0,0-.25-.52,1.87,1.87,0,0,0-1.42,0,.71.71,0,0,0-.25.52,10.33,10.33,0,0,0-.06,1.36,10,10,0,0,0,.06,1.35A.72.72,0,0,0,69,162a1.87,1.87,0,0,0,1.42,0Z"/><path class="ebf627ba-64de-4fa5-9cd6-c8133c4bc72d" d="M72.55,157.56h.62l0,.95h.06a1.28,1.28,0,0,1,.46-.81,1.48,1.48,0,0,1,.86-.22v.72a1.32,1.32,0,0,0-.81.22,1.19,1.19,0,0,0-.4.65,4.56,4.56,0,0,0-.12,1.17v2.42h-.71Z"/><path class="ebf627ba-64de-4fa5-9cd6-c8133c4bc72d" d="M75.42,162.42a1.7,1.7,0,0,1-.31-1.16,2.74,2.74,0,0,1,.12-.91.82.82,0,0,1,.39-.46,1.76,1.76,0,0,1,.77-.14l1.32.05v-.36a3.38,3.38,0,0,0-.08-.91.54.54,0,0,0-.31-.36,2.59,2.59,0,0,0-.75-.08l-.59,0-.62.08v-.58a7,7,0,0,1,1.41-.14,2.53,2.53,0,0,1,1,.17.9.9,0,0,1,.47.58,4.06,4.06,0,0,1,.13,1.2v3.23h-.63l0-.7h0a1,1,0,0,1-.48.62,1.77,1.77,0,0,1-.79.16A1.39,1.39,0,0,1,75.42,162.42Zm1.81-.38a.54.54,0,0,0,.33-.36,3.12,3.12,0,0,0,.15-1.07v-.33H76.57a1.37,1.37,0,0,0-.47.06.41.41,0,0,0-.22.26,2.21,2.21,0,0,0-.07.61,2,2,0,0,0,.07.58.39.39,0,0,0,.24.26,1.46,1.46,0,0,0,.54.08A1.48,1.48,0,0,0,77.23,162Z"/><path class="ebf627ba-64de-4fa5-9cd6-c8133c4bc72d" d="M80,162.66v-4.49h-.74v-.61H80v-1.48h.71v1.48h.88v.61h-.88v4.49Z"/><path class="ebf627ba-64de-4fa5-9cd6-c8133c4bc72d" d="M85,162h0a1.09,1.09,0,0,1-.41.58,1.46,1.46,0,0,1-.85.21,1.49,1.49,0,0,1-.84-.2,1,1,0,0,1-.38-.61,4.87,4.87,0,0,1-.1-1.15v-3.22h.71v3a5.94,5.94,0,0,0,.07,1,.56.56,0,0,0,.24.41,1.23,1.23,0,0,0,.59.11.86.86,0,0,0,.66-.22,1,1,0,0,0,.27-.59,7.6,7.6,0,0,0,0-1.08v-2.65h.71v5.1H85Z"/><path class="ebf627ba-64de-4fa5-9cd6-c8133c4bc72d" d="M86.91,162.66v-7.43h.71v7.43Z"/><path class="ebf627ba-64de-4fa5-9cd6-c8133c4bc72d" d="M88.94,163.42a.23.23,0,0,0,.15-.18,2,2,0,0,0,0-.41v-.17h-.33v-.9h.83v.82a3,3,0,0,1-.07.78.56.56,0,0,1-.29.36,1.54,1.54,0,0,1-.66.11v-.35A.71.71,0,0,0,88.94,163.42Z"/><path class="ebf627ba-64de-4fa5-9cd6-c8133c4bc72d" d="M93.13,162.52a1.25,1.25,0,0,1-.43-.77,8.1,8.1,0,0,1-.13-1.63,8.32,8.32,0,0,1,.12-1.63,1.3,1.3,0,0,1,.43-.79,1.48,1.48,0,0,1,.89-.22,1.55,1.55,0,0,1,.77.16,1,1,0,0,1,.43.54h.05v-3H96v7.43h-.63l0-.7h0a1,1,0,0,1-.45.62,1.67,1.67,0,0,1-.78.16A1.48,1.48,0,0,1,93.13,162.52Zm1.73-.56a.73.73,0,0,0,.29-.46,2.52,2.52,0,0,0,.09-.59c0-.21,0-.51,0-.88a5.43,5.43,0,0,0-.09-1.2.88.88,0,0,0-.29-.55,1,1,0,0,0-.62-.16,1.22,1.22,0,0,0-.65.13.74.74,0,0,0-.26.53,8.34,8.34,0,0,0-.07,1.33,9.76,9.76,0,0,0,.07,1.33.78.78,0,0,0,.27.53,1.21,1.21,0,0,0,.66.13A1.06,1.06,0,0,0,94.86,162Z"/><path class="ebf627ba-64de-4fa5-9cd6-c8133c4bc72d" d="M100.4,160.34H97.78a6.1,6.1,0,0,0,.08,1.16.68.68,0,0,0,.32.49,1.8,1.8,0,0,0,.82.14,7.29,7.29,0,0,0,1.26-.11v.58a4.64,4.64,0,0,1-.63.1,6.74,6.74,0,0,1-.77,0,2.24,2.24,0,0,1-1.18-.24,1.16,1.16,0,0,1-.49-.76,7.94,7.94,0,0,1-.12-1.62,10.24,10.24,0,0,1,.1-1.62,1.14,1.14,0,0,1,.47-.77,2.07,2.07,0,0,1,1.17-.25,1.89,1.89,0,0,1,1.09.24,1.12,1.12,0,0,1,.42.75,10.87,10.87,0,0,1,.08,1.64Zm-2.28-2.14a.61.61,0,0,0-.27.46,6.27,6.27,0,0,0-.07,1.15h1.94v-.12a4.71,4.71,0,0,0-.08-1.07.65.65,0,0,0-.26-.44,1.26,1.26,0,0,0-.58-.1A1.45,1.45,0,0,0,98.12,158.2Z"/><path class="ebf627ba-64de-4fa5-9cd6-c8133c4bc72d" d="M102,162.7c-.26,0-.47,0-.64-.08V162a8.2,8.2,0,0,0,1.32.11,1.19,1.19,0,0,0,.57-.1.49.49,0,0,0,.25-.28,1.59,1.59,0,0,0,.06-.49,2.25,2.25,0,0,0,0-.53.32.32,0,0,0-.13-.21,1.21,1.21,0,0,0-.33-.08l-1-.15a.85.85,0,0,1-.65-.37,2,2,0,0,1-.17-1,2,2,0,0,1,.19-.93,1,1,0,0,1,.53-.44,2.58,2.58,0,0,1,.86-.12,5.07,5.07,0,0,1,.66,0,3.87,3.87,0,0,1,.56.1v.58l-.56-.09q-.33,0-.66,0a1.11,1.11,0,0,0-.68.17.84.84,0,0,0-.21.67,2.51,2.51,0,0,0,0,.48.33.33,0,0,0,.14.22.82.82,0,0,0,.31.09l1,.13a1.23,1.23,0,0,1,.51.16.81.81,0,0,1,.27.42,2.93,2.93,0,0,1,.09.83,1.5,1.5,0,0,1-.36,1.16,1.7,1.7,0,0,1-1.17.33A6.41,6.41,0,0,1,102,162.7Z"/><path class="ebf627ba-64de-4fa5-9cd6-c8133c4bc72d" d="M108.45,160.34h-2.62a6.1,6.1,0,0,0,.08,1.16.66.66,0,0,0,.32.49,1.8,1.8,0,0,0,.82.14,7.29,7.29,0,0,0,1.26-.11v.58a4.64,4.64,0,0,1-.63.1,6.74,6.74,0,0,1-.77,0,2.24,2.24,0,0,1-1.18-.24,1.16,1.16,0,0,1-.49-.76,7.94,7.94,0,0,1-.12-1.62,10.24,10.24,0,0,1,.1-1.62,1.18,1.18,0,0,1,.47-.77,2.07,2.07,0,0,1,1.17-.25,1.89,1.89,0,0,1,1.09.24,1.12,1.12,0,0,1,.42.75,12.42,12.42,0,0,1,.08,1.64Zm-2.28-2.14a.61.61,0,0,0-.27.46,7.34,7.34,0,0,0-.07,1.15h1.94v-.12a4.71,4.71,0,0,0-.08-1.07.65.65,0,0,0-.26-.44,1.26,1.26,0,0,0-.58-.1A1.45,1.45,0,0,0,106.17,158.2Z"/><path class="ebf627ba-64de-4fa5-9cd6-c8133c4bc72d" d="M112.15,159.68a6.29,6.29,0,0,0-.06-1,.59.59,0,0,0-.25-.42,1.22,1.22,0,0,0-.59-.1.89.89,0,0,0-.67.22,1.07,1.07,0,0,0-.26.59,9.49,9.49,0,0,0,0,1.08v2.65h-.71v-5.1h.62l0,.71h.06a1.11,1.11,0,0,1,.42-.59,1.89,1.89,0,0,1,1.69,0,.94.94,0,0,1,.38.6,5.71,5.71,0,0,1,.09,1.16v3.22h-.71Z"/><path class="ebf627ba-64de-4fa5-9cd6-c8133c4bc72d" d="M114.11,162.42a1.7,1.7,0,0,1-.31-1.16,2.74,2.74,0,0,1,.12-.91.78.78,0,0,1,.39-.46,1.76,1.76,0,0,1,.77-.14l1.32.05v-.36a3.38,3.38,0,0,0-.08-.91.54.54,0,0,0-.31-.36,2.59,2.59,0,0,0-.75-.08l-.59,0-.62.08v-.58a7,7,0,0,1,1.41-.14,2.53,2.53,0,0,1,1.05.17.9.9,0,0,1,.47.58,4.06,4.06,0,0,1,.13,1.2v3.23h-.63l0-.7h0a1,1,0,0,1-.48.62,1.8,1.8,0,0,1-.79.16A1.39,1.39,0,0,1,114.11,162.42Zm1.81-.38a.54.54,0,0,0,.33-.36,3.12,3.12,0,0,0,.15-1.07v-.33h-1.14a1.37,1.37,0,0,0-.47.06.39.39,0,0,0-.22.26,1.88,1.88,0,0,0-.07.61,1.71,1.71,0,0,0,.07.58.39.39,0,0,0,.24.26,1.46,1.46,0,0,0,.54.08A1.48,1.48,0,0,0,115.92,162Z"/><path class="ebf627ba-64de-4fa5-9cd6-c8133c4bc72d" d="M118.65,162.66v-4.49h-.74v-.61h.74v-1.48h.71v1.48h.88v.61h-.88v4.49Z"/><path class="ebf627ba-64de-4fa5-9cd6-c8133c4bc72d" d="M123.67,162h0a1.09,1.09,0,0,1-.41.58,1.46,1.46,0,0,1-.85.21,1.49,1.49,0,0,1-.84-.2,1,1,0,0,1-.38-.61,4.87,4.87,0,0,1-.1-1.15v-3.22h.71v3a5.08,5.08,0,0,0,.07,1,.56.56,0,0,0,.24.41,1.23,1.23,0,0,0,.59.11.86.86,0,0,0,.66-.22,1,1,0,0,0,.27-.59,9.49,9.49,0,0,0,0-1.08v-2.65h.71v5.1h-.63Z"/><path class="ebf627ba-64de-4fa5-9cd6-c8133c4bc72d" d="M125.6,162.66v-7.43h.71v7.43Z"/><path class="ebf627ba-64de-4fa5-9cd6-c8133c4bc72d" d="M130,162.7c-.26,0-.47,0-.64-.08V162a8.2,8.2,0,0,0,1.32.11,1.19,1.19,0,0,0,.57-.1.49.49,0,0,0,.25-.28,1.59,1.59,0,0,0,.06-.49,2.25,2.25,0,0,0,0-.53.32.32,0,0,0-.13-.21,1.21,1.21,0,0,0-.33-.08l-1-.15a.85.85,0,0,1-.65-.37,2,2,0,0,1-.17-1,2,2,0,0,1,.19-.93,1,1,0,0,1,.53-.44,2.58,2.58,0,0,1,.86-.12,5.07,5.07,0,0,1,.66,0,3.87,3.87,0,0,1,.56.1v.58l-.56-.09-.66,0a1.11,1.11,0,0,0-.68.17.84.84,0,0,0-.21.67,2.51,2.51,0,0,0,0,.48.33.33,0,0,0,.14.22.82.82,0,0,0,.31.09l1,.13a1.28,1.28,0,0,1,.51.16.81.81,0,0,1,.27.42,2.93,2.93,0,0,1,.09.83,1.5,1.5,0,0,1-.36,1.16,1.7,1.7,0,0,1-1.17.33A6.41,6.41,0,0,1,130,162.7Zm.68,2.05a.75.75,0,0,0,.09-.45v-.16h-.33v-.86h.8v.78a2.49,2.49,0,0,1-.07.71.48.48,0,0,1-.27.33,1.49,1.49,0,0,1-.64.1v-.34A.57.57,0,0,0,130.67,164.75Z"/><path class="ebf627ba-64de-4fa5-9cd6-c8133c4bc72d" d="M133.23,156.06v-.83H134v.83Zm0,6.6v-5.1H134v5.1Z"/><path class="ebf627ba-64de-4fa5-9cd6-c8133c4bc72d" d="M137.13,157.56h.62l0,.71h.06a1,1,0,0,1,.46-.63,1.61,1.61,0,0,1,.76-.16,1.49,1.49,0,0,1,.9.22,1.25,1.25,0,0,1,.44.77,11.13,11.13,0,0,1,0,3.26,1.23,1.23,0,0,1-.43.78,1.49,1.49,0,0,1-.9.23,1.56,1.56,0,0,1-.76-.16,1,1,0,0,1-.43-.54h0v2.55h-.71Zm2.36,4.41a.74.74,0,0,0,.26-.53,12.67,12.67,0,0,0,0-2.66.74.74,0,0,0-.26-.53,1.23,1.23,0,0,0-.67-.13,1,1,0,0,0-.59.15.86.86,0,0,0-.3.5,2.84,2.84,0,0,0-.07.55c0,.21,0,.47,0,.79a6.48,6.48,0,0,0,.08,1.25,1,1,0,0,0,.3.57,1,1,0,0,0,.6.17A1.23,1.23,0,0,0,139.49,162Z"/><path class="ebf627ba-64de-4fa5-9cd6-c8133c4bc72d" d="M141.61,156.06v-.83h.75v.83Zm0,6.6v-5.1h.71v5.1Z"/><path class="ebf627ba-64de-4fa5-9cd6-c8133c4bc72d" d="M145.64,162.7a3.86,3.86,0,0,1-.58,0,1.83,1.83,0,0,1-1.08-.26,1.25,1.25,0,0,1-.45-.79,9.93,9.93,0,0,1-.1-1.58,7.23,7.23,0,0,1,.13-1.6,1.32,1.32,0,0,1,.46-.79,1.79,1.79,0,0,1,1-.24l.58,0a3,3,0,0,1,.48.1v.58a3.71,3.71,0,0,0-.9-.1,1.22,1.22,0,0,0-.69.15.84.84,0,0,0-.29.56,7.87,7.87,0,0,0-.08,1.3,8,8,0,0,0,.08,1.32.85.85,0,0,0,.29.56,1.28,1.28,0,0,0,.7.15,3.68,3.68,0,0,0,.92-.11v.59A2.7,2.7,0,0,1,145.64,162.7Z"/><path class="ebf627ba-64de-4fa5-9cd6-c8133c4bc72d" d="M147.41,162.66v-4.49h-.74v-.61h.74v-1.48h.71v1.48H149v.61h-.88v4.49Z"/><path class="ebf627ba-64de-4fa5-9cd6-c8133c4bc72d" d="M149.85,162.42a1.7,1.7,0,0,1-.31-1.16,2.74,2.74,0,0,1,.12-.91.75.75,0,0,1,.39-.46,1.76,1.76,0,0,1,.77-.14l1.32.05v-.36a3.86,3.86,0,0,0-.08-.91.54.54,0,0,0-.31-.36,2.59,2.59,0,0,0-.75-.08l-.59,0-.62.08v-.58a7,7,0,0,1,1.41-.14,2.53,2.53,0,0,1,1.05.17.92.92,0,0,1,.47.58,4.06,4.06,0,0,1,.13,1.2v3.23h-.63l0-.7h-.05a1,1,0,0,1-.48.62,1.8,1.8,0,0,1-.79.16A1.39,1.39,0,0,1,149.85,162.42Zm1.81-.38a.54.54,0,0,0,.33-.36,3.12,3.12,0,0,0,.15-1.07v-.33H151a1.37,1.37,0,0,0-.47.06.39.39,0,0,0-.22.26,1.88,1.88,0,0,0-.07.61,1.71,1.71,0,0,0,.07.58.39.39,0,0,0,.24.26,1.46,1.46,0,0,0,.54.08A1.48,1.48,0,0,0,151.66,162Z"/><path class="ebf627ba-64de-4fa5-9cd6-c8133c4bc72d" d="M154.39,162.66v-4.49h-.74v-.61h.74v-1.48h.71v1.48H156v.61h-.88v4.49Z"/><path class="ebf627ba-64de-4fa5-9cd6-c8133c4bc72d" d="M159.41,162h0a1.09,1.09,0,0,1-.41.58,1.46,1.46,0,0,1-.85.21,1.49,1.49,0,0,1-.84-.2,1,1,0,0,1-.38-.61,4.87,4.87,0,0,1-.1-1.15v-3.22h.71v3a5.08,5.08,0,0,0,.07,1,.56.56,0,0,0,.24.41,1.23,1.23,0,0,0,.59.11.86.86,0,0,0,.66-.22,1,1,0,0,0,.27-.59,9.49,9.49,0,0,0,.05-1.08v-2.65h.71v5.1h-.63Z"/><path class="ebf627ba-64de-4fa5-9cd6-c8133c4bc72d" d="M161.34,162.66v-7.43h.71v7.43Z"/><path class="ebf627ba-64de-4fa5-9cd6-c8133c4bc72d" d="M163.23,162.66v-.9h.82v.9Z"/><path class="ebf627ba-64de-4fa5-9cd6-c8133c4bc72d" d="M59.5,167.16v-.06l.77-1.32h.78l.76,1.32v.06h-.5l-.65-1-.66,1Zm.79,7.5v-6.88H61v6.88Z"/><path class="ebf627ba-64de-4fa5-9cd6-c8133c4bc72d" d="M67.44,171.68a6.29,6.29,0,0,0-.06-1,.6.6,0,0,0-.22-.42,1.05,1.05,0,0,0-.54-.1.94.94,0,0,0-.65.2,1,1,0,0,0-.25.58,9.84,9.84,0,0,0,0,1.11v2.65H65v-3a6.21,6.21,0,0,0-.06-1,.56.56,0,0,0-.21-.42,1.05,1.05,0,0,0-.54-.1.89.89,0,0,0-.65.21,1.06,1.06,0,0,0-.25.59,7.76,7.76,0,0,0,0,1.09v2.65h-.71v-5.1h.62l0,.71h.06a1.15,1.15,0,0,1,.39-.58,1.33,1.33,0,0,1,.81-.21,1.43,1.43,0,0,1,.81.18,1,1,0,0,1,.37.61h.06a1.15,1.15,0,0,1,.41-.59,1.46,1.46,0,0,1,.82-.2,1.38,1.38,0,0,1,.81.19,1,1,0,0,1,.36.61,4.92,4.92,0,0,1,.1,1.15v3.23h-.71Z"/><path class="ebf627ba-64de-4fa5-9cd6-c8133c4bc72d" d="M69.46,168.06v-.83h.75v.83Zm0,6.6v-5.1h.71v5.1Z"/><path class="ebf627ba-64de-4fa5-9cd6-c8133c4bc72d" d="M73.56,169.56h.62l0,.71h.06a1,1,0,0,1,.45-.63,1.65,1.65,0,0,1,.77-.16,1.54,1.54,0,0,1,.9.22,1.2,1.2,0,0,1,.43.77A7.48,7.48,0,0,1,77,172.1a8.25,8.25,0,0,1-.12,1.63,1.23,1.23,0,0,1-.43.78,1.88,1.88,0,0,1-1.66.07,1,1,0,0,1-.43-.54h0v2.55h-.71ZM75.91,174a.78.78,0,0,0,.27-.53,12.67,12.67,0,0,0,0-2.66.78.78,0,0,0-.27-.53,1.21,1.21,0,0,0-.66-.13,1,1,0,0,0-.59.15.86.86,0,0,0-.3.5,2.79,2.79,0,0,0-.08.55c0,.21,0,.47,0,.79a6.48,6.48,0,0,0,.08,1.25,1,1,0,0,0,.3.57,1,1,0,0,0,.6.17A1.21,1.21,0,0,0,75.91,174Z"/><path class="ebf627ba-64de-4fa5-9cd6-c8133c4bc72d" d="M78.16,174.66v-7.43h.71v7.43Z"/><path class="ebf627ba-64de-4fa5-9cd6-c8133c4bc72d" d="M80.24,174.42a1.65,1.65,0,0,1-.31-1.16,3.08,3.08,0,0,1,.11-.91.82.82,0,0,1,.39-.46,1.84,1.84,0,0,1,.78-.14l1.32.05v-.36a3.29,3.29,0,0,0-.09-.91.52.52,0,0,0-.31-.36,2.56,2.56,0,0,0-.74-.08l-.6,0-.61.08v-.58a6.88,6.88,0,0,1,1.41-.14,2.51,2.51,0,0,1,1,.17.94.94,0,0,1,.48.58,4.06,4.06,0,0,1,.13,1.2v3.23h-.63l0-.7h0a.93.93,0,0,1-.49.62,1.73,1.73,0,0,1-.78.16A1.37,1.37,0,0,1,80.24,174.42Zm1.81-.38a.57.57,0,0,0,.33-.36,3.12,3.12,0,0,0,.15-1.07v-.33H81.39a1.43,1.43,0,0,0-.48.06.45.45,0,0,0-.22.26,2.29,2.29,0,0,0-.06.61,2.09,2.09,0,0,0,.06.58.43.43,0,0,0,.25.26,1.46,1.46,0,0,0,.54.08A1.55,1.55,0,0,0,82.05,174Z"/><path class="ebf627ba-64de-4fa5-9cd6-c8133c4bc72d" d="M86.61,174.7a3.73,3.73,0,0,1-.57,0,1.86,1.86,0,0,1-1.09-.26,1.24,1.24,0,0,1-.44-.79,8.86,8.86,0,0,1-.1-1.58,8,8,0,0,1,.12-1.6,1.33,1.33,0,0,1,.47-.79,1.74,1.74,0,0,1,1-.24l.58,0a3,3,0,0,1,.48.1v.58a3.82,3.82,0,0,0-.9-.1,1.28,1.28,0,0,0-.7.15.88.88,0,0,0-.29.56,8.15,8.15,0,0,0-.07,1.3,8.27,8.27,0,0,0,.07,1.32.82.82,0,0,0,.3.56,1.25,1.25,0,0,0,.7.15,3.68,3.68,0,0,0,.92-.11v.59A2.82,2.82,0,0,1,86.61,174.7Z"/><path class="ebf627ba-64de-4fa5-9cd6-c8133c4bc72d" d="M91.35,172.34H88.73a6.32,6.32,0,0,0,.07,1.16.68.68,0,0,0,.32.49,1.85,1.85,0,0,0,.83.14,7.29,7.29,0,0,0,1.26-.11v.58a5.24,5.24,0,0,1-.63.1,7,7,0,0,1-.77,0,2.24,2.24,0,0,1-1.18-.24,1.13,1.13,0,0,1-.49-.76,7.94,7.94,0,0,1-.12-1.62,9.15,9.15,0,0,1,.1-1.62,1.13,1.13,0,0,1,.46-.77,2.14,2.14,0,0,1,1.18-.25,1.91,1.91,0,0,1,1.09.24,1.07,1.07,0,0,1,.41.75,10.56,10.56,0,0,1,.09,1.64Zm-2.28-2.14a.65.65,0,0,0-.28.46,7.67,7.67,0,0,0-.06,1.15h1.94v-.12a5.38,5.38,0,0,0-.08-1.07.66.66,0,0,0-.27-.44,1.19,1.19,0,0,0-.57-.1A1.42,1.42,0,0,0,89.07,170.2Z"/><path class="ebf627ba-64de-4fa5-9cd6-c8133c4bc72d" d="M95.09,174.7a6.13,6.13,0,0,1-.64-.08V174a8.11,8.11,0,0,0,1.32.11,1.24,1.24,0,0,0,.57-.1.52.52,0,0,0,.25-.28,1.59,1.59,0,0,0,.06-.49,3,3,0,0,0,0-.53.33.33,0,0,0-.14-.21,1.11,1.11,0,0,0-.32-.08l-1-.15a.83.83,0,0,1-.65-.37,1.91,1.91,0,0,1-.17-1,1.84,1.84,0,0,1,.19-.93,1,1,0,0,1,.52-.44,2.64,2.64,0,0,1,.87-.12,5.29,5.29,0,0,1,.66,0,4.15,4.15,0,0,1,.56.1v.58l-.57-.09-.65,0a1.09,1.09,0,0,0-.68.17.84.84,0,0,0-.21.67,1.88,1.88,0,0,0,0,.48.32.32,0,0,0,.13.22.88.88,0,0,0,.32.09l1,.13a1.23,1.23,0,0,1,.5.16.77.77,0,0,1,.28.42,2.93,2.93,0,0,1,.09.83,1.5,1.5,0,0,1-.36,1.16,1.7,1.7,0,0,1-1.17.33A6.29,6.29,0,0,1,95.09,174.7Z"/><path class="ebf627ba-64de-4fa5-9cd6-c8133c4bc72d" d="M98.47,174.42a1.65,1.65,0,0,1-.31-1.16,3.08,3.08,0,0,1,.11-.91.82.82,0,0,1,.39-.46,1.81,1.81,0,0,1,.78-.14l1.32.05v-.36a3.29,3.29,0,0,0-.09-.91.52.52,0,0,0-.31-.36,2.56,2.56,0,0,0-.74-.08l-.6,0-.61.08v-.58a6.88,6.88,0,0,1,1.41-.14,2.48,2.48,0,0,1,1,.17.94.94,0,0,1,.48.58,4.43,4.43,0,0,1,.13,1.2v3.23h-.63l0-.7h0a.93.93,0,0,1-.49.62,1.73,1.73,0,0,1-.78.16A1.36,1.36,0,0,1,98.47,174.42ZM101,168a.7.7,0,0,1-.31.46,1.34,1.34,0,0,1-.75.17,1.3,1.3,0,0,1-.74-.17.78.78,0,0,1-.31-.46,4.08,4.08,0,0,1-.06-.79h.5a3.78,3.78,0,0,0,0,.56.42.42,0,0,0,.16.29.64.64,0,0,0,.42.11.69.69,0,0,0,.43-.11.43.43,0,0,0,.17-.29,3.78,3.78,0,0,0,0-.56h.5A3.33,3.33,0,0,1,101,168Zm-.71,6a.57.57,0,0,0,.33-.36,3.12,3.12,0,0,0,.15-1.07v-.33H99.62a1.43,1.43,0,0,0-.48.06.45.45,0,0,0-.22.26,2.29,2.29,0,0,0-.06.61,2.09,2.09,0,0,0,.06.58.43.43,0,0,0,.25.26,1.46,1.46,0,0,0,.54.08A1.55,1.55,0,0,0,100.28,174Z"/><path class="ebf627ba-64de-4fa5-9cd6-c8133c4bc72d" d="M108,172.34h-2.62a6.32,6.32,0,0,0,.07,1.16.68.68,0,0,0,.32.49,1.85,1.85,0,0,0,.83.14,7.29,7.29,0,0,0,1.26-.11v.58a5.24,5.24,0,0,1-.63.1,7,7,0,0,1-.77,0,2.21,2.21,0,0,1-1.18-.24,1.13,1.13,0,0,1-.49-.76,7.94,7.94,0,0,1-.12-1.62,9.15,9.15,0,0,1,.1-1.62,1.13,1.13,0,0,1,.46-.77,2.14,2.14,0,0,1,1.18-.25,1.91,1.91,0,0,1,1.09.24,1.07,1.07,0,0,1,.41.75,10.56,10.56,0,0,1,.09,1.64Zm-2.28-2.14a.65.65,0,0,0-.28.46,7.67,7.67,0,0,0-.06,1.15h1.94v-.12a5.38,5.38,0,0,0-.08-1.07.66.66,0,0,0-.27-.44,1.19,1.19,0,0,0-.57-.1A1.42,1.42,0,0,0,105.71,170.2Z"/><path class="ebf627ba-64de-4fa5-9cd6-c8133c4bc72d" d="M111.71,174.66l-1.07-2h0l-1.08,2h-.76l1.44-2.59-1.39-2.51h.79l1,1.91h0l1-1.91h.75l-1.38,2.49,1.44,2.61Z"/><path class="ebf627ba-64de-4fa5-9cd6-c8133c4bc72d" d="M113.41,169.56H114l0,.71h.06a1,1,0,0,1,.45-.63,1.65,1.65,0,0,1,.77-.16,1.54,1.54,0,0,1,.9.22,1.25,1.25,0,0,1,.43.77,7.48,7.48,0,0,1,.13,1.63,8.25,8.25,0,0,1-.12,1.63,1.28,1.28,0,0,1-.43.78,1.53,1.53,0,0,1-.9.23,1.51,1.51,0,0,1-.76-.16,1,1,0,0,1-.43-.54h0v2.55h-.71Zm2.35,4.41a.78.78,0,0,0,.27-.53,12.67,12.67,0,0,0,0-2.66.78.78,0,0,0-.27-.53,1.21,1.21,0,0,0-.66-.13,1,1,0,0,0-.59.15.86.86,0,0,0-.3.5,2.79,2.79,0,0,0-.08.55c0,.21,0,.47,0,.79a5.74,5.74,0,0,0,.08,1.25,1,1,0,0,0,.3.57,1,1,0,0,0,.6.17A1.21,1.21,0,0,0,115.76,174Z"/><path class="ebf627ba-64de-4fa5-9cd6-c8133c4bc72d" d="M118,174.66v-7.43h.71v7.43Z"/><path class="ebf627ba-64de-4fa5-9cd6-c8133c4bc72d" d="M120.47,174.53a1,1,0,0,1-.46-.73,14.33,14.33,0,0,1,0-3.38,1,1,0,0,1,.46-.73,2.43,2.43,0,0,1,1.17-.21,2.36,2.36,0,0,1,1.16.21,1,1,0,0,1,.46.73,14.33,14.33,0,0,1,0,3.38,1,1,0,0,1-.46.73,2.36,2.36,0,0,1-1.16.21A2.43,2.43,0,0,1,120.47,174.53Zm1.87-.54a.72.72,0,0,0,.26-.52,18.52,18.52,0,0,0,0-2.72.72.72,0,0,0-.26-.52,1.31,1.31,0,0,0-.7-.14,1.33,1.33,0,0,0-.71.14.72.72,0,0,0-.26.52,13.3,13.3,0,0,0,0,1.36,12.93,12.93,0,0,0,0,1.35.72.72,0,0,0,.26.53,1.33,1.33,0,0,0,.71.14A1.31,1.31,0,0,0,122.34,174Z"/><path class="ebf627ba-64de-4fa5-9cd6-c8133c4bc72d" d="M124.56,169.56h.62l0,.95h.06a1.27,1.27,0,0,1,.45-.81,1.52,1.52,0,0,1,.87-.22v.72a1.28,1.28,0,0,0-.81.22,1.15,1.15,0,0,0-.41.65,5.15,5.15,0,0,0-.11,1.17v2.42h-.71Z"/><path class="ebf627ba-64de-4fa5-9cd6-c8133c4bc72d" d="M130.68,172.34h-2.62a6.32,6.32,0,0,0,.07,1.16.68.68,0,0,0,.32.49,1.85,1.85,0,0,0,.83.14,7.29,7.29,0,0,0,1.26-.11v.58a5.24,5.24,0,0,1-.63.1,7,7,0,0,1-.77,0,2.21,2.21,0,0,1-1.18-.24,1.13,1.13,0,0,1-.49-.76,7.94,7.94,0,0,1-.12-1.62,9.15,9.15,0,0,1,.1-1.62,1.13,1.13,0,0,1,.46-.77,2.14,2.14,0,0,1,1.18-.25,1.91,1.91,0,0,1,1.09.24,1.07,1.07,0,0,1,.41.75,10.56,10.56,0,0,1,.09,1.64Zm-2.28-2.14a.65.65,0,0,0-.28.46,7.67,7.67,0,0,0-.06,1.15H130v-.12a5.38,5.38,0,0,0-.08-1.07.66.66,0,0,0-.27-.44,1.19,1.19,0,0,0-.57-.1A1.42,1.42,0,0,0,128.4,170.2Z"/><path class="ebf627ba-64de-4fa5-9cd6-c8133c4bc72d" d="M131.6,174.66v-.56l2.18-3.93h-2.1v-.61h3v.55l-2.19,3.94h2.2v.61Z"/><path class="ebf627ba-64de-4fa5-9cd6-c8133c4bc72d" d="M142.69,171.68a6.29,6.29,0,0,0-.06-1,.64.64,0,0,0-.22-.42,1.05,1.05,0,0,0-.54-.1.92.92,0,0,0-.65.2,1,1,0,0,0-.25.58,7.91,7.91,0,0,0-.05,1.11v2.65h-.71v-3a6.21,6.21,0,0,0-.06-1,.6.6,0,0,0-.21-.42,1.05,1.05,0,0,0-.54-.1.88.88,0,0,0-.65.21,1.06,1.06,0,0,0-.25.59,7.76,7.76,0,0,0-.05,1.09v2.65h-.71v-5.1h.62l0,.71h.06a1.15,1.15,0,0,1,.39-.58,1.33,1.33,0,0,1,.81-.21,1.45,1.45,0,0,1,.81.18,1,1,0,0,1,.37.61h.06a1.1,1.1,0,0,1,.41-.59,1.44,1.44,0,0,1,.82-.2,1.38,1.38,0,0,1,.81.19,1,1,0,0,1,.36.61,4.92,4.92,0,0,1,.1,1.15v3.23h-.71Z"/><path class="ebf627ba-64de-4fa5-9cd6-c8133c4bc72d" d="M145.13,174.53a1,1,0,0,1-.46-.73,14.33,14.33,0,0,1,0-3.38,1,1,0,0,1,.46-.73,2.43,2.43,0,0,1,1.17-.21,2.36,2.36,0,0,1,1.16.21,1,1,0,0,1,.46.73,14.33,14.33,0,0,1,0,3.38,1,1,0,0,1-.46.73,2.36,2.36,0,0,1-1.16.21A2.43,2.43,0,0,1,145.13,174.53ZM147,174a.72.72,0,0,0,.26-.52,18.52,18.52,0,0,0,0-2.72.72.72,0,0,0-.26-.52,1.31,1.31,0,0,0-.7-.14,1.33,1.33,0,0,0-.71.14.72.72,0,0,0-.26.52,13.3,13.3,0,0,0-.05,1.36,12.93,12.93,0,0,0,.05,1.35.72.72,0,0,0,.26.53,1.33,1.33,0,0,0,.71.14A1.31,1.31,0,0,0,147,174Z"/><path class="ebf627ba-64de-4fa5-9cd6-c8133c4bc72d" d="M149.61,174.52a1.3,1.3,0,0,1-.43-.77,11.13,11.13,0,0,1,0-3.26,1.3,1.3,0,0,1,.42-.79,1.51,1.51,0,0,1,.9-.22,1.57,1.57,0,0,1,.77.16,1,1,0,0,1,.43.54h.05v-3h.71v7.43h-.63l0-.7h0a1,1,0,0,1-.46.62,1.65,1.65,0,0,1-.77.16A1.51,1.51,0,0,1,149.61,174.52Zm1.74-.56a.77.77,0,0,0,.29-.46,4.34,4.34,0,0,0,.09-.59c0-.21,0-.51,0-.88a5.43,5.43,0,0,0-.09-1.2.89.89,0,0,0-.3-.55,1,1,0,0,0-.61-.16,1.19,1.19,0,0,0-.65.13.74.74,0,0,0-.27.53,10.21,10.21,0,0,0-.06,1.33,8.34,8.34,0,0,0,.07,1.33.74.74,0,0,0,.26.53,1.23,1.23,0,0,0,.67.13A1.08,1.08,0,0,0,151.35,174Z"/><path class="ebf627ba-64de-4fa5-9cd6-c8133c4bc72d" d="M156.42,174h0a1.05,1.05,0,0,1-.42.58,1.43,1.43,0,0,1-.84.21,1.5,1.5,0,0,1-.85-.2,1,1,0,0,1-.38-.61,5.6,5.6,0,0,1-.09-1.15v-3.22h.71v3a6.21,6.21,0,0,0,.06,1,.6.6,0,0,0,.25.41,1.2,1.2,0,0,0,.59.11.86.86,0,0,0,.66-.22,1,1,0,0,0,.26-.59,7.32,7.32,0,0,0,.06-1.08v-2.65h.71v5.1h-.63Z"/><path class="ebf627ba-64de-4fa5-9cd6-c8133c4bc72d" d="M158.45,169.56h.62l0,.95h.06a1.27,1.27,0,0,1,.45-.81,1.52,1.52,0,0,1,.87-.22v.72a1.28,1.28,0,0,0-.81.22,1.15,1.15,0,0,0-.41.65,5.15,5.15,0,0,0-.11,1.17v2.42h-.71Z"/><path class="ebf627ba-64de-4fa5-9cd6-c8133c4bc72d" d="M161.38,168.06v-.83h.75v.83Zm0,6.6v-5.1h.71v5.1Z"/><path class="ebf627ba-64de-4fa5-9cd6-c8133c4bc72d" d="M61.05,183.68a5.14,5.14,0,0,0-.07-1,.58.58,0,0,0-.24-.42,1.25,1.25,0,0,0-.59-.1.87.87,0,0,0-.67.22,1,1,0,0,0-.26.59,9.49,9.49,0,0,0,0,1.08v2.65h-.71v-5.1h.62l0,.71h.06a1.15,1.15,0,0,1,.41-.59,1.55,1.55,0,0,1,.85-.2,1.49,1.49,0,0,1,.84.2.94.94,0,0,1,.38.6,5,5,0,0,1,.1,1.16v3.22h-.71Z"/><path class="ebf627ba-64de-4fa5-9cd6-c8133c4bc72d" d="M63.29,186.53a1,1,0,0,1-.46-.73,14.33,14.33,0,0,1,0-3.38,1,1,0,0,1,.46-.73,2.43,2.43,0,0,1,1.17-.21,2.36,2.36,0,0,1,1.16.21,1,1,0,0,1,.46.73,14.33,14.33,0,0,1,0,3.38,1,1,0,0,1-.46.73,2.36,2.36,0,0,1-1.16.21A2.43,2.43,0,0,1,63.29,186.53Zm1.87-.54a.72.72,0,0,0,.26-.52,18.52,18.52,0,0,0,0-2.72.72.72,0,0,0-.26-.52,1.31,1.31,0,0,0-.7-.14,1.33,1.33,0,0,0-.71.14.76.76,0,0,0-.26.52,13.3,13.3,0,0,0-.05,1.36,12.93,12.93,0,0,0,.05,1.35.76.76,0,0,0,.26.53,1.33,1.33,0,0,0,.71.14A1.31,1.31,0,0,0,65.16,186Z"/><path class="ebf627ba-64de-4fa5-9cd6-c8133c4bc72d" d="M67.16,180.06v-.83h.75v.83Zm0,6.6v-5.1h.71v5.1Z"/><path class="ebf627ba-64de-4fa5-9cd6-c8133c4bc72d" d="M70.86,181.56h.62l0,.71h.06a1,1,0,0,1,.45-.63,1.65,1.65,0,0,1,.77-.16,1.54,1.54,0,0,1,.9.22,1.2,1.2,0,0,1,.43.77,7.48,7.48,0,0,1,.13,1.63,8.25,8.25,0,0,1-.12,1.63,1.23,1.23,0,0,1-.43.78,1.88,1.88,0,0,1-1.66.07,1,1,0,0,1-.43-.54h-.05v2.55h-.71ZM73.21,186a.78.78,0,0,0,.27-.53,12.67,12.67,0,0,0,0-2.66.78.78,0,0,0-.27-.53,1.21,1.21,0,0,0-.66-.13,1,1,0,0,0-.59.15.86.86,0,0,0-.3.5,2.79,2.79,0,0,0-.08.55c0,.21,0,.47,0,.79a6.48,6.48,0,0,0,.08,1.25,1,1,0,0,0,.3.57,1,1,0,0,0,.6.17A1.21,1.21,0,0,0,73.21,186Z"/><path class="ebf627ba-64de-4fa5-9cd6-c8133c4bc72d" d="M75.26,181.56h.62l0,.95H76a1.27,1.27,0,0,1,.45-.81,1.52,1.52,0,0,1,.87-.22v.72a1.28,1.28,0,0,0-.81.22,1.2,1.2,0,0,0-.41.65,5.15,5.15,0,0,0-.11,1.17v2.42h-.71Z"/><path class="ebf627ba-64de-4fa5-9cd6-c8133c4bc72d" d="M78,180.06v-.83h.75v.83Zm0,6.6v-5.1h.71v5.1Z"/><path class="ebf627ba-64de-4fa5-9cd6-c8133c4bc72d" d="M82.46,183.68a5.14,5.14,0,0,0-.07-1,.58.58,0,0,0-.24-.42,1.25,1.25,0,0,0-.59-.1.87.87,0,0,0-.67.22,1,1,0,0,0-.26.59,7.6,7.6,0,0,0,0,1.08v2.65h-.71v-5.1h.62l0,.71h.06a1.15,1.15,0,0,1,.41-.59,1.55,1.55,0,0,1,.85-.2,1.49,1.49,0,0,1,.84.2.94.94,0,0,1,.38.6,5,5,0,0,1,.1,1.16v3.22h-.71Z"/><path class="ebf627ba-64de-4fa5-9cd6-c8133c4bc72d" d="M88.16,186.7a3.64,3.64,0,0,1-.57,0,1.84,1.84,0,0,1-1.09-.26,1.24,1.24,0,0,1-.44-.79,8.86,8.86,0,0,1-.1-1.58,8,8,0,0,1,.12-1.6,1.33,1.33,0,0,1,.47-.79,1.79,1.79,0,0,1,1-.24l.58,0a3,3,0,0,1,.48.1v.58a3.82,3.82,0,0,0-.9-.1,1.28,1.28,0,0,0-.7.15.88.88,0,0,0-.29.56,8.15,8.15,0,0,0-.07,1.3,8.27,8.27,0,0,0,.07,1.32.82.82,0,0,0,.3.56,1.28,1.28,0,0,0,.7.15,3.74,3.74,0,0,0,.92-.11v.59A2.66,2.66,0,0,1,88.16,186.7Z"/><path class="ebf627ba-64de-4fa5-9cd6-c8133c4bc72d" d="M89.55,186.42a1.65,1.65,0,0,1-.31-1.16,3.08,3.08,0,0,1,.11-.91.82.82,0,0,1,.39-.46,1.81,1.81,0,0,1,.78-.14l1.32.05v-.36a3.29,3.29,0,0,0-.09-.91.52.52,0,0,0-.31-.36,2.51,2.51,0,0,0-.74-.08l-.6,0-.61.08v-.58a6.88,6.88,0,0,1,1.41-.14,2.48,2.48,0,0,1,1,.17.94.94,0,0,1,.48.58,4.43,4.43,0,0,1,.13,1.2v3.23h-.63l0-.7h0a.93.93,0,0,1-.49.62,1.73,1.73,0,0,1-.78.16A1.36,1.36,0,0,1,89.55,186.42Zm1.81-.38a.57.57,0,0,0,.33-.36,3.12,3.12,0,0,0,.15-1.07v-.33H90.7a1.43,1.43,0,0,0-.48.06.45.45,0,0,0-.22.26,2.29,2.29,0,0,0-.06.61,2.09,2.09,0,0,0,.06.58.43.43,0,0,0,.25.26,1.46,1.46,0,0,0,.54.08A1.55,1.55,0,0,0,91.36,186Z"/><path class="ebf627ba-64de-4fa5-9cd6-c8133c4bc72d" d="M93.68,181.56h.62l0,.95h.06a1.27,1.27,0,0,1,.45-.81,1.52,1.52,0,0,1,.87-.22v.72a1.28,1.28,0,0,0-.81.22,1.15,1.15,0,0,0-.41.65,5.15,5.15,0,0,0-.11,1.17v2.42h-.71Z"/><path class="ebf627ba-64de-4fa5-9cd6-c8133c4bc72d" d="M99.6,184.34H97a6.32,6.32,0,0,0,.07,1.16.68.68,0,0,0,.32.49,1.85,1.85,0,0,0,.83.14,7.29,7.29,0,0,0,1.26-.11v.58a5.24,5.24,0,0,1-.63.1,7,7,0,0,1-.77,0,2.24,2.24,0,0,1-1.18-.24,1.13,1.13,0,0,1-.49-.76,7.94,7.94,0,0,1-.12-1.62,9.15,9.15,0,0,1,.1-1.62,1.13,1.13,0,0,1,.46-.77,2.14,2.14,0,0,1,1.18-.25,1.91,1.91,0,0,1,1.09.24,1.07,1.07,0,0,1,.41.75,10.56,10.56,0,0,1,.09,1.64Zm-2.28-2.14a.65.65,0,0,0-.28.46,7.67,7.67,0,0,0-.06,1.15h1.94v-.12a5.38,5.38,0,0,0-.08-1.07.66.66,0,0,0-.27-.44,1.19,1.19,0,0,0-.57-.1A1.42,1.42,0,0,0,97.32,182.2Z"/><path class="ebf627ba-64de-4fa5-9cd6-c8133c4bc72d" d="M102.94,186.7a6.13,6.13,0,0,1-.64-.08V186a8,8,0,0,0,1.32.11,1.24,1.24,0,0,0,.57-.1.52.52,0,0,0,.25-.28,1.59,1.59,0,0,0,.06-.49,3,3,0,0,0,0-.53.33.33,0,0,0-.14-.21,1.11,1.11,0,0,0-.32-.08l-1-.15a.83.83,0,0,1-.65-.37,1.91,1.91,0,0,1-.17-1,1.84,1.84,0,0,1,.19-.93,1,1,0,0,1,.52-.44,2.64,2.64,0,0,1,.87-.12,5.29,5.29,0,0,1,.66,0,4.15,4.15,0,0,1,.56.1v.58l-.57-.09-.65,0a1.09,1.09,0,0,0-.68.17.84.84,0,0,0-.21.67,1.88,1.88,0,0,0,0,.48.32.32,0,0,0,.13.22.88.88,0,0,0,.32.09l1,.13a1.23,1.23,0,0,1,.5.16.77.77,0,0,1,.28.42,2.93,2.93,0,0,1,.09.83,1.5,1.5,0,0,1-.36,1.16,1.7,1.7,0,0,1-1.17.33A6.29,6.29,0,0,1,102.94,186.7Z"/><path class="ebf627ba-64de-4fa5-9cd6-c8133c4bc72d" d="M106.12,186.42a1.65,1.65,0,0,1-.31-1.16,3.08,3.08,0,0,1,.11-.91.82.82,0,0,1,.39-.46,1.81,1.81,0,0,1,.78-.14l1.32.05v-.36a3.29,3.29,0,0,0-.09-.91.52.52,0,0,0-.31-.36,2.56,2.56,0,0,0-.74-.08l-.6,0-.61.08v-.58a6.88,6.88,0,0,1,1.41-.14,2.51,2.51,0,0,1,1,.17.94.94,0,0,1,.48.58,4.43,4.43,0,0,1,.13,1.2v3.23h-.63l0-.7h0a.93.93,0,0,1-.49.62,1.73,1.73,0,0,1-.78.16A1.36,1.36,0,0,1,106.12,186.42Zm2.52-6.4a.7.7,0,0,1-.31.46,1.34,1.34,0,0,1-.75.17,1.3,1.3,0,0,1-.74-.17.78.78,0,0,1-.31-.46,4.08,4.08,0,0,1-.06-.79h.5a3.78,3.78,0,0,0,0,.56.42.42,0,0,0,.16.29.64.64,0,0,0,.42.11.69.69,0,0,0,.43-.11.43.43,0,0,0,.17-.29,3.78,3.78,0,0,0,0-.56h.5A3.33,3.33,0,0,1,108.64,180Zm-.71,6a.59.59,0,0,0,.33-.36,3.12,3.12,0,0,0,.15-1.07v-.33h-1.14a1.43,1.43,0,0,0-.48.06.45.45,0,0,0-.22.26,2.29,2.29,0,0,0-.06.61,2.09,2.09,0,0,0,.06.58.43.43,0,0,0,.25.26,1.46,1.46,0,0,0,.54.08A1.55,1.55,0,0,0,107.93,186Z"/><path class="ebf627ba-64de-4fa5-9cd6-c8133c4bc72d" d="M110.19,184.13v-.65h2v.65Z"/><path class="ebf627ba-64de-4fa5-9cd6-c8133c4bc72d" d="M118.19,183.68a6.29,6.29,0,0,0-.06-1,.64.64,0,0,0-.22-.42,1.05,1.05,0,0,0-.54-.1.92.92,0,0,0-.65.2,1,1,0,0,0-.25.58,7.91,7.91,0,0,0,0,1.11v2.65h-.71v-3a6.21,6.21,0,0,0-.06-1,.6.6,0,0,0-.21-.42,1.05,1.05,0,0,0-.54-.1.88.88,0,0,0-.65.21,1.06,1.06,0,0,0-.25.59,7.76,7.76,0,0,0,0,1.09v2.65h-.71v-5.1h.62l0,.71H114a1.15,1.15,0,0,1,.39-.58,1.33,1.33,0,0,1,.81-.21,1.45,1.45,0,0,1,.81.18,1,1,0,0,1,.37.61h.06a1.1,1.1,0,0,1,.41-.59,1.44,1.44,0,0,1,.82-.2,1.38,1.38,0,0,1,.81.19,1,1,0,0,1,.36.61,4.92,4.92,0,0,1,.1,1.15v3.23h-.71Z"/><path class="ebf627ba-64de-4fa5-9cd6-c8133c4bc72d" d="M120,180.06v-.83h.75v.83Zm0,6.6v-5.1h.71v5.1Z"/><path class="ebf627ba-64de-4fa5-9cd6-c8133c4bc72d" d="M123.71,181.56h.62l0,.71h.06a1,1,0,0,1,.45-.63,1.65,1.65,0,0,1,.77-.16,1.54,1.54,0,0,1,.9.22,1.25,1.25,0,0,1,.43.77,7.48,7.48,0,0,1,.13,1.63,8.25,8.25,0,0,1-.12,1.63,1.28,1.28,0,0,1-.43.78,1.53,1.53,0,0,1-.9.23,1.51,1.51,0,0,1-.76-.16,1,1,0,0,1-.43-.54h0v2.55h-.71Zm2.35,4.41a.78.78,0,0,0,.27-.53,12.67,12.67,0,0,0,0-2.66.78.78,0,0,0-.27-.53,1.21,1.21,0,0,0-.66-.13,1,1,0,0,0-.59.15.86.86,0,0,0-.3.5,2.79,2.79,0,0,0-.08.55c0,.21,0,.47,0,.79a5.74,5.74,0,0,0,.08,1.25,1,1,0,0,0,.3.57,1,1,0,0,0,.6.17A1.21,1.21,0,0,0,126.06,186Z"/><path class="ebf627ba-64de-4fa5-9cd6-c8133c4bc72d" d="M128.51,186.53a1,1,0,0,1-.46-.73,14.33,14.33,0,0,1,0-3.38,1,1,0,0,1,.46-.73,2.43,2.43,0,0,1,1.17-.21,2.36,2.36,0,0,1,1.16.21,1,1,0,0,1,.46.73,14.33,14.33,0,0,1,0,3.38,1,1,0,0,1-.46.73,2.36,2.36,0,0,1-1.16.21A2.43,2.43,0,0,1,128.51,186.53Zm1.87-.54a.72.72,0,0,0,.26-.52,18.52,18.52,0,0,0,0-2.72.72.72,0,0,0-.26-.52,1.31,1.31,0,0,0-.7-.14,1.33,1.33,0,0,0-.71.14.72.72,0,0,0-.26.52,13.3,13.3,0,0,0-.05,1.36,12.93,12.93,0,0,0,.05,1.35.72.72,0,0,0,.26.53,1.33,1.33,0,0,0,.71.14A1.31,1.31,0,0,0,130.38,186Z"/><path class="ebf627ba-64de-4fa5-9cd6-c8133c4bc72d" d="M132.71,186.66v-4.49H132v-.61h.74v-1.48h.71v1.48h.88v.61h-.88v4.49Z"/><path class="ebf627ba-64de-4fa5-9cd6-c8133c4bc72d" d="M140,184.34H137.4a6.32,6.32,0,0,0,.07,1.16.68.68,0,0,0,.32.49,1.85,1.85,0,0,0,.83.14,7.29,7.29,0,0,0,1.26-.11v.58a5.24,5.24,0,0,1-.63.1,7,7,0,0,1-.77,0,2.24,2.24,0,0,1-1.18-.24,1.13,1.13,0,0,1-.49-.76,7.94,7.94,0,0,1-.12-1.62,9.15,9.15,0,0,1,.1-1.62,1.13,1.13,0,0,1,.46-.77,2.14,2.14,0,0,1,1.18-.25,1.91,1.91,0,0,1,1.09.24,1.07,1.07,0,0,1,.41.75,10.56,10.56,0,0,1,.09,1.64Zm-2.28-2.14a.65.65,0,0,0-.28.46,7.67,7.67,0,0,0-.06,1.15h1.94v-.12a5.38,5.38,0,0,0-.08-1.07.66.66,0,0,0-.27-.44,1.19,1.19,0,0,0-.57-.1A1.42,1.42,0,0,0,137.74,182.2Z"/><path class="ebf627ba-64de-4fa5-9cd6-c8133c4bc72d" d="M143.54,186.66l-1.07-2h-.05l-1.08,2h-.76l1.44-2.59-1.39-2.51h.79l1,1.91h.05l1-1.91h.75l-1.38,2.49,1.44,2.61Z"/><path class="ebf627ba-64de-4fa5-9cd6-c8133c4bc72d" d="M145,181.56h.62l0,.71h.06a1,1,0,0,1,.45-.63,1.65,1.65,0,0,1,.77-.16,1.54,1.54,0,0,1,.9.22,1.25,1.25,0,0,1,.43.77,7.48,7.48,0,0,1,.13,1.63,8.25,8.25,0,0,1-.12,1.63,1.28,1.28,0,0,1-.43.78,1.53,1.53,0,0,1-.9.23,1.51,1.51,0,0,1-.76-.16,1,1,0,0,1-.43-.54h-.05v2.55H145Zm2.35,4.41a.78.78,0,0,0,.27-.53,12.67,12.67,0,0,0,0-2.66.78.78,0,0,0-.27-.53,1.21,1.21,0,0,0-.66-.13,1,1,0,0,0-.59.15.86.86,0,0,0-.3.5,2.79,2.79,0,0,0-.08.55c0,.21,0,.47,0,.79a5.74,5.74,0,0,0,.08,1.25,1,1,0,0,0,.3.57,1,1,0,0,0,.6.17A1.21,1.21,0,0,0,147.39,186Z"/><path class="ebf627ba-64de-4fa5-9cd6-c8133c4bc72d" d="M149.44,181.56h.62l0,.95h.06a1.27,1.27,0,0,1,.45-.81,1.52,1.52,0,0,1,.87-.22v.72a1.28,1.28,0,0,0-.81.22,1.15,1.15,0,0,0-.41.65,5.15,5.15,0,0,0-.11,1.17v2.42h-.71Z"/><path class="ebf627ba-64de-4fa5-9cd6-c8133c4bc72d" d="M152.17,180.06v-.83h.75v.83Zm0,6.6v-5.1h.71v5.1Z"/><path class="ebf627ba-64de-4fa5-9cd6-c8133c4bc72d" d="M159,183.68a6.29,6.29,0,0,0-.06-1,.64.64,0,0,0-.22-.42,1.05,1.05,0,0,0-.54-.1.92.92,0,0,0-.65.2,1,1,0,0,0-.25.58,7.91,7.91,0,0,0-.05,1.11v2.65h-.71v-3a6.21,6.21,0,0,0-.06-1,.6.6,0,0,0-.21-.42,1.05,1.05,0,0,0-.54-.1.88.88,0,0,0-.65.21,1.06,1.06,0,0,0-.25.59,7.76,7.76,0,0,0-.05,1.09v2.65h-.71v-5.1h.62l0,.71h.06a1.15,1.15,0,0,1,.39-.58,1.33,1.33,0,0,1,.81-.21,1.45,1.45,0,0,1,.81.18,1,1,0,0,1,.37.61h.06a1.1,1.1,0,0,1,.41-.59,1.44,1.44,0,0,1,.82-.2,1.38,1.38,0,0,1,.81.19,1,1,0,0,1,.36.61,4.92,4.92,0,0,1,.1,1.15v3.23H159Z"/><path class="ebf627ba-64de-4fa5-9cd6-c8133c4bc72d" d="M160.86,186.42a1.65,1.65,0,0,1-.31-1.16,3.08,3.08,0,0,1,.11-.91.82.82,0,0,1,.39-.46,1.81,1.81,0,0,1,.78-.14l1.32.05v-.36a3.29,3.29,0,0,0-.09-.91.52.52,0,0,0-.31-.36,2.56,2.56,0,0,0-.74-.08l-.6,0-.61.08v-.58a6.88,6.88,0,0,1,1.41-.14,2.51,2.51,0,0,1,1,.17.94.94,0,0,1,.48.58,4.43,4.43,0,0,1,.13,1.2v3.23h-.63l0-.7h-.05a.93.93,0,0,1-.49.62,1.73,1.73,0,0,1-.78.16A1.36,1.36,0,0,1,160.86,186.42Zm1.81-.38a.59.59,0,0,0,.33-.36,3.12,3.12,0,0,0,.15-1.07v-.33H162a1.43,1.43,0,0,0-.48.06.45.45,0,0,0-.22.26,2.29,2.29,0,0,0-.06.61,2.09,2.09,0,0,0,.06.58.43.43,0,0,0,.25.26,1.46,1.46,0,0,0,.54.08A1.55,1.55,0,0,0,162.67,186Z"/><path class="ebf627ba-64de-4fa5-9cd6-c8133c4bc72d" d="M75.13,200.58V200c.52,0,.93,0,1.21,0a1.88,1.88,0,0,0,.87-.15.8.8,0,0,0,.35-.53,5.85,5.85,0,0,0,.08-1.2V198h0a.9.9,0,0,1-.42.54,1.55,1.55,0,0,1-.77.16,1.49,1.49,0,0,1-.9-.22,1.25,1.25,0,0,1-.43-.77,10.63,10.63,0,0,1,0-3.25,1.2,1.2,0,0,1,.43-.77,1.49,1.49,0,0,1,.9-.22,1.65,1.65,0,0,1,.77.16,1,1,0,0,1,.45.63h.05l0-.71h.63v4.36a8.41,8.41,0,0,1-.12,1.65,1.3,1.3,0,0,1-.52.82,2.34,2.34,0,0,1-1.24.26A11.78,11.78,0,0,1,75.13,200.58Zm2.11-2.65a.78.78,0,0,0,.29-.48,5.53,5.53,0,0,0,.11-1.35c0-.32,0-.58,0-.78a2.27,2.27,0,0,0-.08-.5.94.94,0,0,0-.3-.54.92.92,0,0,0-.59-.16,1.21,1.21,0,0,0-.66.13.78.78,0,0,0-.27.52,9.76,9.76,0,0,0-.07,1.33,9.48,9.48,0,0,0,.07,1.32A.78.78,0,0,0,76,198a1.21,1.21,0,0,0,.66.13A1,1,0,0,0,77.24,197.93Z"/><path class="ebf627ba-64de-4fa5-9cd6-c8133c4bc72d" d="M79.63,198.42a1.7,1.7,0,0,1-.31-1.16,2.74,2.74,0,0,1,.12-.91.78.78,0,0,1,.39-.46,1.76,1.76,0,0,1,.77-.14l1.32.05v-.36a3.86,3.86,0,0,0-.08-.91.54.54,0,0,0-.31-.36,2.59,2.59,0,0,0-.75-.08l-.59,0-.62.08v-.58a7,7,0,0,1,1.41-.14,2.53,2.53,0,0,1,1,.17.9.9,0,0,1,.47.58,4.06,4.06,0,0,1,.13,1.2v3.23H82l0-.7h0a1,1,0,0,1-.48.62,1.77,1.77,0,0,1-.79.16A1.39,1.39,0,0,1,79.63,198.42Zm.32-5.81v-.06l.77-1.32h.78l.76,1.32v.06h-.5l-.65-1-.66,1ZM81.44,198a.54.54,0,0,0,.33-.36,3.12,3.12,0,0,0,.15-1.07v-.33H80.78a1.37,1.37,0,0,0-.47.06.41.41,0,0,0-.22.26,2.21,2.21,0,0,0-.07.61,2,2,0,0,0,.07.58.39.39,0,0,0,.24.26,1.46,1.46,0,0,0,.54.08A1.48,1.48,0,0,0,81.44,198Z"/><path class="ebf627ba-64de-4fa5-9cd6-c8133c4bc72d" d="M86.45,195.68a6.29,6.29,0,0,0-.06-1,.62.62,0,0,0-.25-.42,1.22,1.22,0,0,0-.59-.1.89.89,0,0,0-.67.22,1.07,1.07,0,0,0-.26.59,9.49,9.49,0,0,0-.05,1.08v2.65h-.71v-5.1h.62l0,.71h.06a1.11,1.11,0,0,1,.42-.59,1.53,1.53,0,0,1,.84-.2,1.5,1.5,0,0,1,.85.2,1,1,0,0,1,.38.6,5.71,5.71,0,0,1,.09,1.16v3.22h-.71Z"/><path class="ebf627ba-64de-4fa5-9cd6-c8133c4bc72d" d="M88.79,198.52a1.25,1.25,0,0,1-.43-.77,8.1,8.1,0,0,1-.13-1.63,8.32,8.32,0,0,1,.12-1.63,1.26,1.26,0,0,1,.43-.79,1.48,1.48,0,0,1,.89-.22,1.55,1.55,0,0,1,.77.16,1,1,0,0,1,.43.54h0v-3h.71v7.43H91l0-.7h0a1,1,0,0,1-.45.62,1.67,1.67,0,0,1-.78.16A1.48,1.48,0,0,1,88.79,198.52Zm1.73-.56a.73.73,0,0,0,.29-.46,2.52,2.52,0,0,0,.09-.59c0-.21,0-.51,0-.88a5.43,5.43,0,0,0-.09-1.2.88.88,0,0,0-.29-.55,1,1,0,0,0-.62-.16,1.22,1.22,0,0,0-.65.13.74.74,0,0,0-.26.53,8.34,8.34,0,0,0-.07,1.33,9.76,9.76,0,0,0,.07,1.33.78.78,0,0,0,.27.53,1.21,1.21,0,0,0,.66.13A1.06,1.06,0,0,0,90.52,198Z"/><path class="ebf627ba-64de-4fa5-9cd6-c8133c4bc72d" d="M95.49,198h0a1.09,1.09,0,0,1-.41.58,1.46,1.46,0,0,1-.85.21,1.49,1.49,0,0,1-.84-.2,1,1,0,0,1-.38-.61,4.87,4.87,0,0,1-.1-1.15v-3.22h.71v3a5.08,5.08,0,0,0,.07,1,.56.56,0,0,0,.24.41,1.23,1.23,0,0,0,.59.11.86.86,0,0,0,.66-.22,1,1,0,0,0,.27-.59,9.49,9.49,0,0,0,0-1.08v-2.65h.71v5.1h-.63Z"/><path class="ebf627ba-64de-4fa5-9cd6-c8133c4bc72d" d="M97.42,193.56H98l0,.95h.06a1.28,1.28,0,0,1,.46-.81,1.46,1.46,0,0,1,.86-.22v.72a1.32,1.32,0,0,0-.81.22,1.14,1.14,0,0,0-.4.65,4.56,4.56,0,0,0-.12,1.17v2.42h-.71Z"/><path class="ebf627ba-64de-4fa5-9cd6-c8133c4bc72d" d="M100.25,192.06v-.83H101v.83Zm0,6.6v-5.1H101v5.1Z"/><path class="ebf627ba-64de-4fa5-9cd6-c8133c4bc72d" d="M102.23,198.66v-7.43h.71v7.43Z"/><path class="ebf627ba-64de-4fa5-9cd6-c8133c4bc72d" d="M107.36,196.34h-2.62a6.1,6.1,0,0,0,.08,1.16.66.66,0,0,0,.32.49,1.8,1.8,0,0,0,.82.14,7.29,7.29,0,0,0,1.26-.11v.58a4.64,4.64,0,0,1-.63.1,6.74,6.74,0,0,1-.77,0,2.24,2.24,0,0,1-1.18-.24,1.16,1.16,0,0,1-.49-.76,7.94,7.94,0,0,1-.12-1.62,10.24,10.24,0,0,1,.1-1.62,1.14,1.14,0,0,1,.47-.77,2.07,2.07,0,0,1,1.17-.25,1.89,1.89,0,0,1,1.09.24,1.12,1.12,0,0,1,.42.75,12.42,12.42,0,0,1,.08,1.64Zm-2.28-2.14a.61.61,0,0,0-.27.46,6.27,6.27,0,0,0-.07,1.15h1.94v-.12a4.71,4.71,0,0,0-.08-1.07.65.65,0,0,0-.26-.44,1.26,1.26,0,0,0-.58-.1A1.45,1.45,0,0,0,105.08,194.2Z"/><path class="ebf627ba-64de-4fa5-9cd6-c8133c4bc72d" d="M110.9,198.7c-.26,0-.47,0-.64-.08V198a8.2,8.2,0,0,0,1.32.11,1.19,1.19,0,0,0,.57-.1.49.49,0,0,0,.25-.28,1.59,1.59,0,0,0,.06-.49,2.25,2.25,0,0,0,0-.53.32.32,0,0,0-.13-.21,1.21,1.21,0,0,0-.33-.08l-1-.15a.85.85,0,0,1-.65-.37,2,2,0,0,1-.17-1,2,2,0,0,1,.19-.93,1,1,0,0,1,.53-.44,2.58,2.58,0,0,1,.86-.12,5.07,5.07,0,0,1,.66,0,3.87,3.87,0,0,1,.56.1v.58l-.56-.09-.66,0a1.11,1.11,0,0,0-.68.17.84.84,0,0,0-.21.67,2.51,2.51,0,0,0,0,.48.33.33,0,0,0,.14.22.82.82,0,0,0,.31.09l1,.13a1.28,1.28,0,0,1,.51.16.81.81,0,0,1,.27.42,2.93,2.93,0,0,1,.09.83,1.5,1.5,0,0,1-.36,1.16,1.7,1.7,0,0,1-1.17.33A6.41,6.41,0,0,1,110.9,198.7Zm.68,2.05a.75.75,0,0,0,.09-.45v-.16h-.33v-.86h.8v.78a2.49,2.49,0,0,1-.07.71.48.48,0,0,1-.27.33,1.49,1.49,0,0,1-.64.1v-.34A.57.57,0,0,0,111.58,200.75Z"/><path class="ebf627ba-64de-4fa5-9cd6-c8133c4bc72d" d="M114.14,192.06v-.83h.75v.83Zm0,6.6v-5.1h.71v5.1Z"/><path class="ebf627ba-64de-4fa5-9cd6-c8133c4bc72d" d="M121.21,196.34h-2.62a6.1,6.1,0,0,0,.08,1.16.66.66,0,0,0,.32.49,1.8,1.8,0,0,0,.82.14,7.29,7.29,0,0,0,1.26-.11v.58a4.64,4.64,0,0,1-.63.1,6.74,6.74,0,0,1-.77,0,2.24,2.24,0,0,1-1.18-.24,1.16,1.16,0,0,1-.49-.76,7.94,7.94,0,0,1-.12-1.62,10.24,10.24,0,0,1,.1-1.62,1.14,1.14,0,0,1,.47-.77,2.07,2.07,0,0,1,1.17-.25,1.89,1.89,0,0,1,1.09.24,1.12,1.12,0,0,1,.42.75,12.42,12.42,0,0,1,.08,1.64Zm-2.28-2.14a.61.61,0,0,0-.27.46,6.27,6.27,0,0,0-.07,1.15h1.94v-.12a4.71,4.71,0,0,0-.08-1.07.65.65,0,0,0-.26-.44,1.26,1.26,0,0,0-.58-.1A1.45,1.45,0,0,0,118.93,194.2Z"/><path class="ebf627ba-64de-4fa5-9cd6-c8133c4bc72d" d="M127.27,195.68a6.29,6.29,0,0,0-.06-1,.6.6,0,0,0-.22-.42,1,1,0,0,0-.54-.1.89.89,0,0,0-.64.2,1,1,0,0,0-.26.58,9.84,9.84,0,0,0,0,1.11v2.65h-.71v-3a8,8,0,0,0-.05-1,.6.6,0,0,0-.22-.42,1,1,0,0,0-.54-.1.85.85,0,0,0-.64.21,1.07,1.07,0,0,0-.26.59,9.69,9.69,0,0,0,0,1.09v2.65h-.71v-5.1h.62l0,.71H123a1.11,1.11,0,0,1,.4-.58,1.29,1.29,0,0,1,.8-.21,1.49,1.49,0,0,1,.82.18,1,1,0,0,1,.36.61h.06a1.15,1.15,0,0,1,.41-.59,1.48,1.48,0,0,1,.82-.2,1.38,1.38,0,0,1,.81.19,1,1,0,0,1,.37.61,5.66,5.66,0,0,1,.09,1.15v3.23h-.71Z"/><path class="ebf627ba-64de-4fa5-9cd6-c8133c4bc72d" d="M129.62,198.53a1,1,0,0,1-.46-.73,13,13,0,0,1,0-3.38,1,1,0,0,1,.46-.73,2.36,2.36,0,0,1,1.16-.21,2.43,2.43,0,0,1,1.17.21,1,1,0,0,1,.45.73,14.33,14.33,0,0,1,0,3.38,1,1,0,0,1-.45.73,2.43,2.43,0,0,1-1.17.21A2.36,2.36,0,0,1,129.62,198.53Zm1.87-.54a.71.71,0,0,0,.25-.52,18.52,18.52,0,0,0,0-2.72.71.71,0,0,0-.25-.52,1.87,1.87,0,0,0-1.42,0,.71.71,0,0,0-.25.52,10.33,10.33,0,0,0-.06,1.36,10,10,0,0,0,.06,1.35.72.72,0,0,0,.25.53,1.87,1.87,0,0,0,1.42,0Z"/><path class="ebf627ba-64de-4fa5-9cd6-c8133c4bc72d" d="M133.91,198.66v-4.49h-.74v-.61h.74v-1.48h.71v1.48h.88v.61h-.88v4.49Zm.29,2.09a.75.75,0,0,0,.09-.45v-.16H134v-.86h.8v.78a2.49,2.49,0,0,1-.07.71.48.48,0,0,1-.27.33,1.49,1.49,0,0,1-.64.1v-.34A.57.57,0,0,0,134.2,200.75Z"/><path class="ebf627ba-64de-4fa5-9cd6-c8133c4bc72d" d="M136.31,192.06v-.83h.75v.83Zm0,6.6v-5.1H137v5.1Z"/><path class="ebf627ba-64de-4fa5-9cd6-c8133c4bc72d" d="M138.27,192.06v-.83H139v.83Zm0,6.6v-5.1H139v5.1Z"/><path class="ebf627ba-64de-4fa5-9cd6-c8133c4bc72d" d="M140.25,198.66v-7.43H141v7.43Z"/><path class="ebf627ba-64de-4fa5-9cd6-c8133c4bc72d" d="M145.38,196.34h-2.62a6.1,6.1,0,0,0,.08,1.16.66.66,0,0,0,.32.49,1.8,1.8,0,0,0,.82.14,7.29,7.29,0,0,0,1.26-.11v.58a4.64,4.64,0,0,1-.63.1,6.74,6.74,0,0,1-.77,0,2.24,2.24,0,0,1-1.18-.24,1.16,1.16,0,0,1-.49-.76,7.94,7.94,0,0,1-.12-1.62,10.24,10.24,0,0,1,.1-1.62,1.14,1.14,0,0,1,.47-.77,2.07,2.07,0,0,1,1.17-.25,1.89,1.89,0,0,1,1.09.24,1.12,1.12,0,0,1,.42.75,12.42,12.42,0,0,1,.08,1.64Zm-2.28-2.14a.61.61,0,0,0-.27.46,6.27,6.27,0,0,0-.07,1.15h1.94v-.12a4.71,4.71,0,0,0-.08-1.07.65.65,0,0,0-.26-.44,1.26,1.26,0,0,0-.58-.1A1.45,1.45,0,0,0,143.1,194.2Z"/><path class="ebf627ba-64de-4fa5-9cd6-c8133c4bc72d" d="M146.42,198.66v-.9h.82v.9Z"/><path class="a7078a6e-f417-48d9-ac22-d29ab2e30e2d" d="M167.77,64.28A13.68,13.68,0,1,0,154.09,50.6a13.69,13.69,0,0,0,13.68,13.68"/><path class="b2dc2873-1079-4ecf-8e06-08a494c04399" d="M173.68,53.37c-.22,2.65-3.11,4.31-7.52,4.31s-7.94-2-7.9-4.42,3.6-4.38,8-4.41c.8-.07,4.29.42,2.76,1.5-2.8,2,1,3,1.82,1.76,1.21-1.7,3-.58,2.88,1.26"/><path class="af5d0aa3-b2c6-4407-8a18-ddc17d9d8453" d="M173.6,53.12c-.17,2.57-3,4.18-7.44,4.18s-8-1.92-8-4.28,3.52-4.25,7.88-4.28c.8-.06,4.29.41,2.78,1.46-2.76,1.91,1,2.9,1.86,1.71,1.18-1.66,3-.57,2.9,1.21Z"/><path class="e54571fb-6b96-43e2-8776-84ad68766265" d="M164.88,49.46s-1.06,0-1.08.23-.81.22-.44.52.82,0,1.36.08,1.06-.27.88-.47-.31-.41-.72-.36"/><path class="a7791936-7332-4074-9f77-44f295eee8b6" d="M161.77,51.19c.69.08.72.27.8.39s-.45.45-.85.55-.48-.15-1.08,0c-1.26.32-.74-1.15,1.13-.94"/><path class="a86acda3-d41f-4fba-ac7d-e69b8c2f8cc4" d="M161.48,53.64s-1.38-.4-1.75,0-.46.58,0,.74a11.29,11.29,0,0,0,1.75,0c.33.06.57-.47,0-.75Z"/><path class="e54571fb-6b96-43e2-8776-84ad68766265" d="M162.6,55.48c-.54.34,0,.69.71.86s.8-.16,1.2-.31,1.13-.63.52-.74-.7-.39-1.14-.31a2.08,2.08,0,0,0-1.29.5Z"/><path class="bc92fed3-208f-4a25-8297-fe89ed2c8edb" d="M167.43,55.9c0,.38.85.48,1.25.5a3.46,3.46,0,0,0,1.41-.47c.29-.16.44-.66,0-.72s-.48.08-.83-.1a.8.8,0,0,0-.95.06c-.32.23-.83.41-.84.73Z"/><path class="a7791936-7332-4074-9f77-44f295eee8b6" d="M171.72,53a2.53,2.53,0,0,0-.81.4c-.27.19-.25.32-.31.53s.69.44,1.21.32,1.37-.86,1-1-.41-.41-1.05-.26"/><polygon class="acd81e65-a8e1-46e1-9a3c-55e5d01a6cef" points="168.51 51.99 168.16 51.58 166.78 52.82 167.13 53.22 168.51 51.99"/><path class="af5d0aa3-b2c6-4407-8a18-ddc17d9d8453" d="M166.78,52.82a.9.9,0,0,0-1.07.5c-.46.74-.89.59-1.31.64,0,0,2.86.88,2.73-.74l-.35-.4Z"/><path class="af5d0aa3-b2c6-4407-8a18-ddc17d9d8453" d="M169.86,51c-.73.55-1.35,1-1.35,1l-.34-.41s.5-.57,1.12-1.23l.57.66Z"/><path class="acd81e65-a8e1-46e1-9a3c-55e5d01a6cef" d="M169.29,50.35c.44-.46.93-1,1.37-1.35,1.05-.93,4.93-4.12,5.15-3.88h0c.21.25-3.41,3.76-4.46,4.7-.44.38-1,.82-1.49,1.19l-.57-.66Z"/><path class="aff9fd97-df0d-49a7-a0f6-8c3d0fc42742" d="M164.86,49.42s-1.06,0-1.07.23-.82.21-.44.51.82,0,1.36.09,1-.27.87-.47-.3-.41-.72-.36Z"/><path class="e8597c3b-523d-49dd-8e80-7fd512b2a494" d="M161.76,51.15c.69.07.71.27.8.39s-.45.44-.86.55-.48-.16-1.08,0c-1.26.32-.74-1.15,1.14-.94"/><path class="acd81e65-a8e1-46e1-9a3c-55e5d01a6cef" d="M161.47,53.6s-1.39-.4-1.75,0-.47.58,0,.74a11.42,11.42,0,0,0,1.76,0c.32,0,.56-.47,0-.75"/><path class="aff9fd97-df0d-49a7-a0f6-8c3d0fc42742" d="M162.58,55.44c-.54.34,0,.69.72.86s.8-.16,1.2-.31,1.13-.64.52-.74-.71-.4-1.14-.31a2.08,2.08,0,0,0-1.3.5"/><path class="acd81e65-a8e1-46e1-9a3c-55e5d01a6cef" d="M167.42,55.86c0,.38.84.48,1.25.5a3.37,3.37,0,0,0,1.4-.47c.3-.16.44-.66,0-.73s-.49.09-.83-.09a.8.8,0,0,0-1,.06c-.32.23-.83.41-.84.73Z"/><path class="e8597c3b-523d-49dd-8e80-7fd512b2a494" d="M171.71,53a2.48,2.48,0,0,0-.81.39.72.72,0,0,0-.31.54c-.07.21.68.44,1.2.31s1.38-.86,1-1-.41-.41-1-.26"/><path class="a7078a6e-f417-48d9-ac22-d29ab2e30e2d" d="M51,266.17a13.68,13.68,0,1,0-13.68-13.68A13.67,13.67,0,0,0,51,266.17"/><path class="b2dc2873-1079-4ecf-8e06-08a494c04399" d="M56.88,255.26c-.23,2.65-3.11,4.31-7.52,4.31s-7.94-2-7.9-4.42,3.6-4.38,8-4.41c.8-.06,4.28.43,2.75,1.5-2.8,2,1,3,1.83,1.77,1.21-1.71,3-.58,2.88,1.25"/><path class="af5d0aa3-b2c6-4407-8a18-ddc17d9d8453" d="M56.8,255c-.18,2.57-3,4.18-7.44,4.18s-8-1.92-8-4.28,3.52-4.25,7.88-4.28c.8-.06,4.29.42,2.78,1.46-2.76,1.91,1,2.9,1.86,1.71,1.17-1.65,3-.56,2.9,1.21Z"/><path class="e54571fb-6b96-43e2-8776-84ad68766265" d="M48.07,251.35s-1.06,0-1.07.23-.82.22-.44.52.82,0,1.36.08,1-.27.87-.47-.31-.41-.72-.36"/><path class="a7791936-7332-4074-9f77-44f295eee8b6" d="M45,253.08c.69.08.71.27.79.4s-.44.44-.85.54-.48-.15-1.08,0c-1.26.32-.74-1.14,1.14-.94"/><path class="a86acda3-d41f-4fba-ac7d-e69b8c2f8cc4" d="M44.68,255.53s-1.39-.39-1.75,0-.47.58,0,.74a10.28,10.28,0,0,0,1.76,0c.32.06.56-.47,0-.75Z"/><path class="e54571fb-6b96-43e2-8776-84ad68766265" d="M45.79,257.37c-.54.35,0,.7.72.86s.8-.16,1.2-.31,1.13-.63.52-.73-.71-.4-1.14-.32a2.08,2.08,0,0,0-1.3.5Z"/><path class="bc92fed3-208f-4a25-8297-fe89ed2c8edb" d="M50.63,257.79c-.05.38.84.48,1.25.5a3.51,3.51,0,0,0,1.4-.46c.3-.17.44-.67,0-.73s-.49.08-.83-.1a.81.81,0,0,0-1,.06c-.32.23-.83.41-.84.73Z"/><path class="a7791936-7332-4074-9f77-44f295eee8b6" d="M54.92,254.88a2.53,2.53,0,0,0-.81.4c-.27.2-.25.32-.32.53s.69.45,1.21.32,1.38-.86,1-1-.41-.41-1-.26"/><polygon class="acd81e65-a8e1-46e1-9a3c-55e5d01a6cef" points="51.7 253.88 51.36 253.48 49.98 254.71 50.32 255.11 51.7 253.88"/><path class="af5d0aa3-b2c6-4407-8a18-ddc17d9d8453" d="M50,254.71a.91.91,0,0,0-1.07.5c-.46.74-.89.59-1.31.64,0,0,2.85.88,2.72-.74l-.34-.4Z"/><path class="af5d0aa3-b2c6-4407-8a18-ddc17d9d8453" d="M53.05,252.91c-.73.54-1.35,1-1.35,1l-.34-.4s.5-.57,1.13-1.24l.56.67Z"/><path class="acd81e65-a8e1-46e1-9a3c-55e5d01a6cef" d="M52.49,252.25c.43-.46.93-1,1.36-1.35,1-.94,4.94-4.13,5.16-3.89h0c.2.26-3.41,3.76-4.47,4.7-.43.38-1,.82-1.49,1.2l-.56-.66Z"/><path class="aff9fd97-df0d-49a7-a0f6-8c3d0fc42742" d="M48.06,251.31s-1.06,0-1.08.23-.81.22-.44.52.82,0,1.36.08,1.06-.27.88-.47-.31-.41-.72-.36Z"/><path class="e8597c3b-523d-49dd-8e80-7fd512b2a494" d="M45,253c.69.08.72.27.8.39s-.45.45-.85.55-.48-.15-1.08,0c-1.26.32-.74-1.15,1.13-.94"/><path class="acd81e65-a8e1-46e1-9a3c-55e5d01a6cef" d="M44.66,255.49s-1.38-.4-1.75,0-.46.58,0,.74a11.29,11.29,0,0,0,1.75,0c.33.06.56-.47,0-.75"/><path class="aff9fd97-df0d-49a7-a0f6-8c3d0fc42742" d="M45.78,257.33c-.54.34,0,.69.71.86s.8-.16,1.2-.31,1.13-.63.52-.74-.71-.39-1.14-.31a2.08,2.08,0,0,0-1.29.5"/><path class="acd81e65-a8e1-46e1-9a3c-55e5d01a6cef" d="M50.61,257.75c0,.38.85.48,1.25.5a3.46,3.46,0,0,0,1.41-.47c.29-.16.44-.66,0-.72s-.49.08-.83-.1a.8.8,0,0,0-.95.06c-.32.23-.83.41-.84.73Z"/><path class="e8597c3b-523d-49dd-8e80-7fd512b2a494" d="M54.9,254.84a2.33,2.33,0,0,0-.81.4c-.27.19-.25.32-.31.53s.69.44,1.21.32,1.37-.86,1-1-.41-.41-1.05-.26"/></g></svg>