<svg xmlns="http://www.w3.org/2000/svg" viewBox="0 0 223.23 311.81"><defs><style>.ad46c61e-f42a-49b5-97e2-1f5648db62b5{fill:#f05123;}.edb67350-8e29-4320-9350-31b357242597,.f1b26784-ea0e-4456-a145-604a8289d243{fill:#fff;}.ac1c5113-d433-4ed9-8c0f-fa2ca00b4da0,.b94a49fd-22c5-41a6-a873-b3a33b6c665f{fill:none;stroke:#fff;}.ac1c5113-d433-4ed9-8c0f-fa2ca00b4da0,.b94a49fd-22c5-41a6-a873-b3a33b6c665f,.f1b26784-ea0e-4456-a145-604a8289d243{stroke-miterlimit:10;}.b94a49fd-22c5-41a6-a873-b3a33b6c665f{stroke-width:0.03px;}.ac1c5113-d433-4ed9-8c0f-fa2ca00b4da0{stroke-width:0.05px;}.fb784a51-ce20-47a9-bb7e-ee4dd8f00df9{fill:#2a2664;}.a24ee600-b63b-4a7e-9d61-ec2e5fa88b3c{fill:#4d4e4f;}.f1b26784-ea0e-4456-a145-604a8289d243{stroke:#f05023;stroke-width:1.5px;}.ed29dec2-5a27-4957-92bf-2e4fe1f8cfac{fill:#ffda00;}.f3eacf05-2a7f-4fb8-9b04-f901d89a989b{fill:#f05023;}.a4090c40-27bb-4a4c-b7bf-c78b6e03fcf0{fill:#6e3092;}.fca8ba4e-97ae-44be-86ac-f5f86b4bd403{fill:#fefbdb;}.fcb40087-1749-446b-8756-d94ed683b39f{fill:#ec008c;}</style></defs><g id="ad3659cd-88f3-4682-9fbf-a6d801aa6e6e" data-name="Layer 5"><rect class="ad46c61e-f42a-49b5-97e2-1f5648db62b5" width="223.23" height="23.73"/><rect class="ad46c61e-f42a-49b5-97e2-1f5648db62b5" y="279.44" width="223.23" height="32.37"/><rect class="ad46c61e-f42a-49b5-97e2-1f5648db62b5" x="-122.31" y="142.04" width="268.35" height="23.73" transform="translate(165.77 142.04) rotate(90)"/><rect class="ad46c61e-f42a-49b5-97e2-1f5648db62b5" x="77.19" y="144.04" width="268.35" height="23.73" transform="translate(367.27 -55.46) rotate(90)"/><path class="edb67350-8e29-4320-9350-31b357242597" d="M62.5,293.38l-.41,0a1.68,1.68,0,0,1-.92-.19.94.94,0,0,1-.39-.69,11.4,11.4,0,0,1,0-3.16.94.94,0,0,1,.39-.69,1.67,1.67,0,0,1,.92-.2l.41,0a2.3,2.3,0,0,1,.36.07V289a4.65,4.65,0,0,0-.66-.07,1.37,1.37,0,0,0-.68.13.68.68,0,0,0-.25.52,10.33,10.33,0,0,0-.06,1.36,10.54,10.54,0,0,0,.06,1.36.65.65,0,0,0,.25.51,1.27,1.27,0,0,0,.68.13,3.82,3.82,0,0,0,.68-.06v.44Z"/><path class="edb67350-8e29-4320-9350-31b357242597" d="M63.56,293.18a1.15,1.15,0,0,1-.22-.82,2.05,2.05,0,0,1,.08-.63.54.54,0,0,1,.27-.32,1.17,1.17,0,0,1,.55-.1l.92,0v-.25a2.36,2.36,0,0,0-.06-.63.35.35,0,0,0-.22-.25,1.55,1.55,0,0,0-.52-.06,3.34,3.34,0,0,0-.41,0l-.43.05v-.4a4.34,4.34,0,0,1,1-.1,1.69,1.69,0,0,1,.73.12.62.62,0,0,1,.34.4,3,3,0,0,1,.09.84v2.26h-.44l0-.49h0a.66.66,0,0,1-.34.44,1.31,1.31,0,0,1-.55.11A.93.93,0,0,1,63.56,293.18Zm1.26-.27a.4.4,0,0,0,.24-.25,2.23,2.23,0,0,0,.1-.75v-.23h-.8a.92.92,0,0,0-.33,0,.32.32,0,0,0-.15.19,1.4,1.4,0,0,0-.05.42,1.37,1.37,0,0,0,.05.41.28.28,0,0,0,.17.18.94.94,0,0,0,.38.05A1.07,1.07,0,0,0,64.82,292.91Z"/><path class="edb67350-8e29-4320-9350-31b357242597" d="M66.52,289.77H67l0,.67h0a.9.9,0,0,1,.32-.57,1.1,1.1,0,0,1,.61-.15v.5a.88.88,0,0,0-.57.16.74.74,0,0,0-.28.46,3,3,0,0,0-.08.81v1.69h-.5Z"/><path class="edb67350-8e29-4320-9350-31b357242597" d="M70.73,291.72H68.9a5.08,5.08,0,0,0,0,.82.48.48,0,0,0,.23.34,1.29,1.29,0,0,0,.57.09,4.91,4.91,0,0,0,.88-.07v.4a2.7,2.7,0,0,1-.44.07l-.53,0a1.6,1.6,0,0,1-.83-.16.8.8,0,0,1-.34-.54,5.19,5.19,0,0,1-.09-1.13,7.32,7.32,0,0,1,.07-1.13.84.84,0,0,1,.33-.55,1.54,1.54,0,0,1,.82-.17,1.26,1.26,0,0,1,.76.17.73.73,0,0,1,.29.52,7.76,7.76,0,0,1,.06,1.15Zm-1.59-1.5a.46.46,0,0,0-.2.33,5.09,5.09,0,0,0,0,.8h1.36v-.08a3.32,3.32,0,0,0-.06-.75.48.48,0,0,0-.18-.31.89.89,0,0,0-.41-.07A1.07,1.07,0,0,0,69.14,290.22Z"/><path class="edb67350-8e29-4320-9350-31b357242597" d="M73.73,291.72H71.9a4.13,4.13,0,0,0,0,.82.47.47,0,0,0,.22.34,1.37,1.37,0,0,0,.58.09,5,5,0,0,0,.88-.07v.4a2.9,2.9,0,0,1-.44.07l-.54,0a1.62,1.62,0,0,1-.83-.16.84.84,0,0,1-.34-.54,6.1,6.1,0,0,1-.08-1.13,6.23,6.23,0,0,1,.07-1.13.79.79,0,0,1,.32-.55,1.58,1.58,0,0,1,.83-.17,1.28,1.28,0,0,1,.76.17.77.77,0,0,1,.29.52,7.76,7.76,0,0,1,.06,1.15Zm-1.6-1.5a.45.45,0,0,0-.19.33,5.09,5.09,0,0,0,0,.8h1.35v-.08a4.28,4.28,0,0,0,0-.75.45.45,0,0,0-.19-.31.84.84,0,0,0-.4-.07A1.12,1.12,0,0,0,72.13,290.22Z"/><path class="edb67350-8e29-4320-9350-31b357242597" d="M74.51,289.77h.43l0,.67h0a.9.9,0,0,1,.32-.57,1.07,1.07,0,0,1,.6-.15v.5a.85.85,0,0,0-.56.16.8.8,0,0,0-.29.46,3.44,3.44,0,0,0-.08.81v1.69h-.49Z"/><path class="edb67350-8e29-4320-9350-31b357242597" d="M77.89,288.53h1.47a1,1,0,0,1,.85.31,1.35,1.35,0,0,1,.26.89,1.56,1.56,0,0,1-.17.78.87.87,0,0,1-.54.36v0a.89.89,0,0,1,.59.39,1.67,1.67,0,0,1,.16.8,1.53,1.53,0,0,1-.25.93,1.11,1.11,0,0,1-.93.33H77.89Zm1.87,1.94a1,1,0,0,0,.19-.64,1.55,1.55,0,0,0-.07-.49.41.41,0,0,0-.22-.26.89.89,0,0,0-.45-.09h-.8v1.68h.8A.71.71,0,0,0,79.76,290.47Zm.06,2.22a1.48,1.48,0,0,0,0-1.36.72.72,0,0,0-.58-.2h-.82v1.75h.82A.72.72,0,0,0,79.82,292.69Z"/><path class="edb67350-8e29-4320-9350-31b357242597" d="M83.11,292.85h0a.72.72,0,0,1-.29.41,1.31,1.31,0,0,1-1.18,0,.71.71,0,0,1-.27-.42,4.17,4.17,0,0,1-.06-.81v-2.26h.49v2.09a4,4,0,0,0,0,.73.44.44,0,0,0,.17.29.86.86,0,0,0,.41.07.65.65,0,0,0,.47-.15.74.74,0,0,0,.18-.41,5,5,0,0,0,0-.76v-1.86h.5v3.57h-.44Z"/><path class="edb67350-8e29-4320-9350-31b357242597" d="M84.82,293.38l-.45-.06v-.42a4.7,4.7,0,0,0,.92.08.84.84,0,0,0,.4-.07.35.35,0,0,0,.18-.2,1.37,1.37,0,0,0,0-.34,1.64,1.64,0,0,0,0-.37.21.21,0,0,0-.09-.14.54.54,0,0,0-.23-.06l-.7-.11a.57.57,0,0,1-.46-.25,1.45,1.45,0,0,1-.12-.68,1.31,1.31,0,0,1,.14-.65.72.72,0,0,1,.36-.31,2,2,0,0,1,.61-.08l.46,0a2.14,2.14,0,0,1,.39.07v.4l-.39-.06-.46,0a.77.77,0,0,0-.48.12.61.61,0,0,0-.14.47,1.46,1.46,0,0,0,0,.34.23.23,0,0,0,.09.15.49.49,0,0,0,.22.06l.68.09a.76.76,0,0,1,.35.12.54.54,0,0,1,.2.29,2.14,2.14,0,0,1,.06.58,1.09,1.09,0,0,1-.25.81,1.17,1.17,0,0,1-.82.23Z"/><path class="edb67350-8e29-4320-9350-31b357242597" d="M90,293.34V292.2H88.23v-.41l1.27-3.26h.55l-1.27,3.21H90l.09-1.78h.43v1.78H91v.46h-.5v1.14Z"/><path class="edb67350-8e29-4320-9350-31b357242597" d="M91.67,293.34v-.63h.57v.63Z"/><path class="edb67350-8e29-4320-9350-31b357242597" d="M93.43,293.21a.92.92,0,0,1-.35-.66,18.67,18.67,0,0,1,0-3.23.92.92,0,0,1,.35-.66,1.56,1.56,0,0,1,.9-.19,1.64,1.64,0,0,1,.92.19.9.9,0,0,1,.33.65,12.08,12.08,0,0,1,.07,1.63,10.26,10.26,0,0,1-.08,1.61.91.91,0,0,1-.34.66,1.58,1.58,0,0,1-.9.19A1.56,1.56,0,0,1,93.43,293.21Zm1.45-.38a.68.68,0,0,0,.2-.49,19.77,19.77,0,0,0,0-2.81.68.68,0,0,0-.2-.49,1,1,0,0,0-.55-.11,1,1,0,0,0-.56.11c-.1.07-.16.23-.19.49a14.07,14.07,0,0,0,0,1.41,13.68,13.68,0,0,0,0,1.4c0,.26.09.42.19.49a1,1,0,0,0,.56.11A1,1,0,0,0,94.88,292.83Z"/><path class="edb67350-8e29-4320-9350-31b357242597" d="M97.93,294.47v-6.33h.46v6.33Z"/><path class="edb67350-8e29-4320-9350-31b357242597" d="M101.25,293.23a.82.82,0,0,1-.38-.63,12.14,12.14,0,0,1-.08-1.66,11.86,11.86,0,0,1,.08-1.65.86.86,0,0,1,.38-.65,3.3,3.3,0,0,1,2.09,0,.86.86,0,0,1,.38.65,11.86,11.86,0,0,1,.08,1.65,12.14,12.14,0,0,1-.08,1.66.82.82,0,0,1-.38.63,3.3,3.3,0,0,1-2.09,0Zm1.92-.21a.71.71,0,0,0,.3-.54,12.78,12.78,0,0,0,.06-1.54,13.1,13.1,0,0,0-.06-1.55.73.73,0,0,0-.3-.54,2.15,2.15,0,0,0-.88-.13,2.12,2.12,0,0,0-.87.13.73.73,0,0,0-.3.54,13.1,13.1,0,0,0-.06,1.55,12.78,12.78,0,0,0,.06,1.54.71.71,0,0,0,.3.54,2,2,0,0,0,.87.13A2,2,0,0,0,103.17,293Zm-1.25-.85a.61.61,0,0,1-.21-.38,5.53,5.53,0,0,1,0-.85,5.63,5.63,0,0,1,0-.85.55.55,0,0,1,.22-.37.89.89,0,0,1,.49-.11,1.61,1.61,0,0,1,.42.05V290a2.1,2.1,0,0,0-.36,0,.64.64,0,0,0-.33.06.4.4,0,0,0-.12.26,5.48,5.48,0,0,0,0,.7,5.37,5.37,0,0,0,0,.7.37.37,0,0,0,.12.26.62.62,0,0,0,.33.07,2,2,0,0,0,.37,0v.29a2,2,0,0,1-.43,0A1,1,0,0,1,101.92,292.17Z"/><path class="edb67350-8e29-4320-9350-31b357242597" d="M105.13,292.88H107v.46h-2.41v-.55q0-.6,0-.87a.91.91,0,0,1,.14-.43,1.21,1.21,0,0,1,.41-.34l.91-.54a.75.75,0,0,0,.32-.32,1.43,1.43,0,0,0,.07-.54,1.72,1.72,0,0,0-.06-.52.42.42,0,0,0-.24-.23,1.46,1.46,0,0,0-.49-.07,9.22,9.22,0,0,0-1,.08v-.42a4.43,4.43,0,0,1,.53-.09l.62,0a2.17,2.17,0,0,1,.64.08.72.72,0,0,1,.4.35,1.65,1.65,0,0,1,.15.79,2.72,2.72,0,0,1-.06.64,1,1,0,0,1-.19.39,1.57,1.57,0,0,1-.36.29l-1,.58a.49.49,0,0,0-.23.22.79.79,0,0,0,0,.25c0,.11,0,.26,0,.47Z"/><path class="edb67350-8e29-4320-9350-31b357242597" d="M108.14,293.21a.91.91,0,0,1-.34-.66,16.34,16.34,0,0,1,0-3.23.91.91,0,0,1,.34-.66,1.58,1.58,0,0,1,.9-.19,1.62,1.62,0,0,1,.92.19.91.91,0,0,1,.34.65,14.09,14.09,0,0,1,.07,1.63,11.69,11.69,0,0,1-.08,1.61,1,1,0,0,1-.34.66,1.6,1.6,0,0,1-.91.19A1.58,1.58,0,0,1,108.14,293.21Zm1.45-.38a.68.68,0,0,0,.2-.49,19.77,19.77,0,0,0,0-2.81.68.68,0,0,0-.2-.49,1.43,1.43,0,0,0-1.1,0,.68.68,0,0,0-.2.49,14.07,14.07,0,0,0-.05,1.41,13.68,13.68,0,0,0,.05,1.4.68.68,0,0,0,.2.49,1.43,1.43,0,0,0,1.1,0Z"/><path class="edb67350-8e29-4320-9350-31b357242597" d="M111.57,292.88h1.9v.46h-2.41v-.55q0-.6,0-.87a.91.91,0,0,1,.14-.43,1.21,1.21,0,0,1,.41-.34l.91-.54a.75.75,0,0,0,.32-.32,1.43,1.43,0,0,0,.07-.54,1.72,1.72,0,0,0-.06-.52.42.42,0,0,0-.24-.23,1.46,1.46,0,0,0-.49-.07,9.22,9.22,0,0,0-1,.08v-.42a4.43,4.43,0,0,1,.53-.09l.62,0a2.22,2.22,0,0,1,.64.08.72.72,0,0,1,.4.35,1.65,1.65,0,0,1,.15.79,2.72,2.72,0,0,1-.06.64,1,1,0,0,1-.19.39,1.57,1.57,0,0,1-.36.29l-1,.58a.49.49,0,0,0-.23.22,1.22,1.22,0,0,0,0,.25c0,.11,0,.26,0,.47Z"/><path class="edb67350-8e29-4320-9350-31b357242597" d="M114.66,293.34v-4.17l-.68.33V289l.82-.48h.38v4.81Z"/><path class="edb67350-8e29-4320-9350-31b357242597" d="M118.06,293.91a1,1,0,0,1-.49-.72,13.2,13.2,0,0,1-.09-1.9,13.37,13.37,0,0,1,.09-1.91.91.91,0,0,1,.49-.71,3.38,3.38,0,0,1,1.38-.2,3.61,3.61,0,0,1,1.38.19.92.92,0,0,1,.48.72,11.57,11.57,0,0,1,.1,1.91,5.19,5.19,0,0,1-.07,1c0,.21-.1.35-.19.4a.82.82,0,0,1-.41.08H120l0-.41h0a.54.54,0,0,1-.26.37.91.91,0,0,1-.43.09.78.78,0,0,1-.57-.19,1,1,0,0,1-.17-.7,1.91,1.91,0,0,1,.06-.54.45.45,0,0,1,.22-.28.89.89,0,0,1,.44-.08l.72,0v-.21a2.15,2.15,0,0,0,0-.52.28.28,0,0,0-.16-.21,1.28,1.28,0,0,0-.41-.05l-.35,0a1.83,1.83,0,0,0-.33,0v-.37a3.79,3.79,0,0,1,.82-.08,1.29,1.29,0,0,1,.59.11.55.55,0,0,1,.27.34,2.58,2.58,0,0,1,.07.71v1.66h.39a.25.25,0,0,0,.19-.06.69.69,0,0,0,.09-.33,8.47,8.47,0,0,0,0-.86c0-.73,0-1.24,0-1.54a1.21,1.21,0,0,0-.2-.67.79.79,0,0,0-.55-.28,6.58,6.58,0,0,0-.87-.05q-.47,0-.78,0a.89.89,0,0,0-.6.26,1.2,1.2,0,0,0-.22.67c0,.3,0,.83,0,1.58s0,1.3,0,1.61a1.16,1.16,0,0,0,.26.66,1.22,1.22,0,0,0,.72.24h.62c.48,0,.8,0,1,0v.3h-1A3.42,3.42,0,0,1,118.06,293.91Zm1.65-1.5a.4.4,0,0,0,.18-.26,2.42,2.42,0,0,0,0-.53v-.21h-.62a.7.7,0,0,0-.24,0,.22.22,0,0,0-.11.15,1.6,1.6,0,0,0,0,.36,1.5,1.5,0,0,0,0,.35.24.24,0,0,0,.13.15.66.66,0,0,0,.28,0A.63.63,0,0,0,119.71,292.41Z"/><path class="edb67350-8e29-4320-9350-31b357242597" d="M123.55,293.31v-.46a4.46,4.46,0,0,0,.54.06l.5,0a1.73,1.73,0,0,0,.44,0,.5.5,0,0,0,.27-.14.43.43,0,0,0,.13-.26,3,3,0,0,0,0-.47c0-.26,0-.44,0-.54a.34.34,0,0,0-.13-.22,1,1,0,0,0-.36-.11l-.82-.12a.86.86,0,0,1-.44-.2.72.72,0,0,1-.19-.39,3.52,3.52,0,0,1,0-.64,1.42,1.42,0,0,1,.31-1,1.35,1.35,0,0,1,1-.31,3.87,3.87,0,0,1,1.06.12V289a4.91,4.91,0,0,0-.94-.09,1.56,1.56,0,0,0-.48.06.6.6,0,0,0-.26.15.57.57,0,0,0-.12.26,2.25,2.25,0,0,0,0,.4,2.46,2.46,0,0,0,0,.46.28.28,0,0,0,.11.2.7.7,0,0,0,.28.09l.78.13a1.3,1.3,0,0,1,.47.15.64.64,0,0,1,.26.33,2.74,2.74,0,0,1,.08.81,2.34,2.34,0,0,1-.12.84.75.75,0,0,1-.38.45,1.68,1.68,0,0,1-.74.14A7.51,7.51,0,0,1,123.55,293.31Zm1.12,1.5a.56.56,0,0,0,.07-.32v-.11h-.24v-.6h.57v.55a2,2,0,0,1,0,.5.41.41,0,0,1-.2.23,1.18,1.18,0,0,1-.44.06v-.24C124.53,294.88,124.63,294.86,124.67,294.81Z"/><path class="edb67350-8e29-4320-9350-31b357242597" d="M128.15,293.38l-.4,0a1.27,1.27,0,0,1-.76-.18.85.85,0,0,1-.32-.55,7.6,7.6,0,0,1-.06-1.11,5.4,5.4,0,0,1,.08-1.12.92.92,0,0,1,.33-.55,1.24,1.24,0,0,1,.71-.17l.41,0a1.68,1.68,0,0,1,.33.07v.41a2.59,2.59,0,0,0-.63-.07.86.86,0,0,0-.48.1.66.66,0,0,0-.21.4,6.22,6.22,0,0,0-.05.9,6.51,6.51,0,0,0,.05.93.61.61,0,0,0,.21.39.9.9,0,0,0,.49.1,2.51,2.51,0,0,0,.64-.07v.41A2,2,0,0,1,128.15,293.38Z"/><path class="edb67350-8e29-4320-9350-31b357242597" d="M129.46,293.25a.65.65,0,0,1-.32-.51,8.74,8.74,0,0,1,0-2.36.65.65,0,0,1,.32-.51,1.63,1.63,0,0,1,.81-.15,1.68,1.68,0,0,1,.82.15.71.71,0,0,1,.32.51,10,10,0,0,1,0,2.36.71.71,0,0,1-.32.51,1.68,1.68,0,0,1-.82.15A1.63,1.63,0,0,1,129.46,293.25Zm1.31-.37a.56.56,0,0,0,.18-.37c0-.18,0-.49,0-.95s0-.77,0-.95a.56.56,0,0,0-.18-.37,1,1,0,0,0-.5-.09.94.94,0,0,0-.49.09.49.49,0,0,0-.18.37,11.3,11.3,0,0,0,0,1.9.49.49,0,0,0,.18.37.94.94,0,0,0,.49.09A1,1,0,0,0,130.77,292.88Z"/><path class="edb67350-8e29-4320-9350-31b357242597" d="M132.26,293.18a1.2,1.2,0,0,1-.22-.82,2.05,2.05,0,0,1,.08-.63.56.56,0,0,1,.28-.32,1.16,1.16,0,0,1,.54-.1l.92,0v-.25a2.36,2.36,0,0,0-.06-.63.36.36,0,0,0-.21-.25,1.63,1.63,0,0,0-.52-.06,3.4,3.4,0,0,0-.42,0l-.43.05v-.4a4.37,4.37,0,0,1,1-.1,1.72,1.72,0,0,1,.73.12.64.64,0,0,1,.33.4,3,3,0,0,1,.09.84v2.26h-.44l0-.49h0a.69.69,0,0,1-.34.44,1.35,1.35,0,0,1-.55.11A1,1,0,0,1,132.26,293.18Zm1.27-.27a.39.39,0,0,0,.23-.25,2.23,2.23,0,0,0,.1-.75v-.23h-.79a1,1,0,0,0-.34,0,.32.32,0,0,0-.15.19,1.4,1.4,0,0,0-.05.42,1.37,1.37,0,0,0,.05.41.3.3,0,0,0,.17.18.94.94,0,0,0,.38.05A1.16,1.16,0,0,0,133.53,292.91Z"/><path class="edb67350-8e29-4320-9350-31b357242597" d="M135.22,293.34v-5.2h.5v5.2Z"/><path class="edb67350-8e29-4320-9350-31b357242597" d="M136.61,293.18a1.15,1.15,0,0,1-.22-.82,2.05,2.05,0,0,1,.08-.63.58.58,0,0,1,.27-.32,1.17,1.17,0,0,1,.55-.1l.92,0v-.25a2.36,2.36,0,0,0-.06-.63.35.35,0,0,0-.22-.25,1.55,1.55,0,0,0-.52-.06,3.34,3.34,0,0,0-.41,0l-.43.05v-.4a4.34,4.34,0,0,1,1-.1,1.69,1.69,0,0,1,.73.12.62.62,0,0,1,.34.4,3,3,0,0,1,.09.84v2.26h-.44l0-.49h0a.66.66,0,0,1-.34.44,1.27,1.27,0,0,1-.54.11A.94.94,0,0,1,136.61,293.18Zm1.26-.27a.4.4,0,0,0,.24-.25,2.23,2.23,0,0,0,.1-.75v-.23h-.8a.92.92,0,0,0-.33,0,.32.32,0,0,0-.15.19,1.4,1.4,0,0,0-.05.42,1.37,1.37,0,0,0,.05.41.28.28,0,0,0,.17.18.94.94,0,0,0,.38.05A1.07,1.07,0,0,0,137.87,292.91Z"/><path class="edb67350-8e29-4320-9350-31b357242597" d="M141.19,293.25a.94.94,0,0,1-.3-.54,5.42,5.42,0,0,1-.09-1.14,6.39,6.39,0,0,1,.08-1.14.88.88,0,0,1,.3-.55,1,1,0,0,1,.63-.16,1.2,1.2,0,0,1,.54.11.73.73,0,0,1,.3.38h0v-2.07h.5v5.2h-.44l0-.49h0a.69.69,0,0,1-.32.44,1.27,1.27,0,0,1-.54.11A1.08,1.08,0,0,1,141.19,293.25Zm1.21-.4a.51.51,0,0,0,.21-.32,2.23,2.23,0,0,0,.06-.41c0-.15,0-.36,0-.62a4.11,4.11,0,0,0-.06-.84.61.61,0,0,0-.21-.38.67.67,0,0,0-.43-.11.84.84,0,0,0-.45.09.52.52,0,0,0-.19.37,6.91,6.91,0,0,0,0,.93,5.28,5.28,0,0,0,0,.93.52.52,0,0,0,.18.37.9.9,0,0,0,.47.09A.66.66,0,0,0,142.4,292.85Z"/><path class="edb67350-8e29-4320-9350-31b357242597" d="M146.28,291.72h-1.83a4.13,4.13,0,0,0,.05.82.47.47,0,0,0,.22.34,1.37,1.37,0,0,0,.58.09,5,5,0,0,0,.88-.07v.4a2.7,2.7,0,0,1-.44.07l-.54,0a1.58,1.58,0,0,1-.82-.16.81.81,0,0,1-.35-.54,6.1,6.1,0,0,1-.08-1.13,6.23,6.23,0,0,1,.07-1.13.84.84,0,0,1,.33-.55,1.54,1.54,0,0,1,.82-.17,1.26,1.26,0,0,1,.76.17.73.73,0,0,1,.29.52,7.76,7.76,0,0,1,.06,1.15Zm-1.59-1.5a.46.46,0,0,0-.2.33,5.09,5.09,0,0,0,0,.8h1.36v-.08a3.32,3.32,0,0,0-.06-.75.45.45,0,0,0-.19-.31.82.82,0,0,0-.4-.07A1,1,0,0,0,144.69,290.22Z"/><path class="edb67350-8e29-4320-9350-31b357242597" d="M149.24,293.34,148,288.53h.55l1,4.12h.05l1-4.12h.53l-1.2,4.81Z"/><path class="edb67350-8e29-4320-9350-31b357242597" d="M151.65,293.18a1.2,1.2,0,0,1-.22-.82,2.05,2.05,0,0,1,.08-.63.56.56,0,0,1,.28-.32,1.13,1.13,0,0,1,.54-.1l.92,0v-.25a2.36,2.36,0,0,0-.06-.63.36.36,0,0,0-.21-.25,1.66,1.66,0,0,0-.53-.06,3.34,3.34,0,0,0-.41,0l-.43.05v-.4a4.37,4.37,0,0,1,1-.1,1.72,1.72,0,0,1,.73.12.64.64,0,0,1,.33.4,3,3,0,0,1,.09.84v2.26h-.44l0-.49h0a.69.69,0,0,1-.34.44,1.35,1.35,0,0,1-.55.11A.94.94,0,0,1,151.65,293.18Zm1.27-.27a.39.39,0,0,0,.23-.25,2.23,2.23,0,0,0,.1-.75v-.23h-.8a1,1,0,0,0-.33,0,.32.32,0,0,0-.15.19,1.4,1.4,0,0,0-.05.42,1.37,1.37,0,0,0,.05.41.3.3,0,0,0,.17.18.94.94,0,0,0,.38.05A1.16,1.16,0,0,0,152.92,292.91Z"/><path class="edb67350-8e29-4320-9350-31b357242597" d="M154.61,293.34v-5.2h.5v5.2Z"/><path class="edb67350-8e29-4320-9350-31b357242597" d="M156.27,293.25a.65.65,0,0,1-.32-.51,8.74,8.74,0,0,1,0-2.36.65.65,0,0,1,.32-.51,1.61,1.61,0,0,1,.81-.15,1.68,1.68,0,0,1,.82.15.71.71,0,0,1,.32.51,10,10,0,0,1,0,2.36.71.71,0,0,1-.32.51,1.68,1.68,0,0,1-.82.15A1.61,1.61,0,0,1,156.27,293.25Zm1.31-.37a.52.52,0,0,0,.17-.37,11.3,11.3,0,0,0,0-1.9.52.52,0,0,0-.17-.37,1,1,0,0,0-.5-.09.94.94,0,0,0-.49.09.49.49,0,0,0-.18.37,11.3,11.3,0,0,0,0,1.9.49.49,0,0,0,.18.37.94.94,0,0,0,.49.09A1,1,0,0,0,157.58,292.88Z"/><path class="edb67350-8e29-4320-9350-31b357242597" d="M159.06,289.77h.43l0,.67h0a.9.9,0,0,1,.32-.57,1.07,1.07,0,0,1,.6-.15v.5a.85.85,0,0,0-.56.16.8.8,0,0,0-.29.46,3.44,3.44,0,0,0-.08.81v1.69h-.49Z"/><path class="edb67350-8e29-4320-9350-31b357242597" d="M161,288.72v-.58h.52v.58Zm0,4.62v-3.57h.5v3.57Z"/><path class="edb67350-8e29-4320-9350-31b357242597" d="M37.54,301.78l-.4,0a1.27,1.27,0,0,1-.76-.18.84.84,0,0,1-.31-.55A6.19,6.19,0,0,1,36,300a5.4,5.4,0,0,1,.08-1.12.89.89,0,0,1,.33-.55,1.26,1.26,0,0,1,.71-.17l.41,0a1.68,1.68,0,0,1,.33.07v.41a2.59,2.59,0,0,0-.63-.07.86.86,0,0,0-.48.1.66.66,0,0,0-.21.4,6.12,6.12,0,0,0,0,.9,6.61,6.61,0,0,0,0,.93.61.61,0,0,0,.21.39.9.9,0,0,0,.49.1,2.64,2.64,0,0,0,.65-.07v.41A2.39,2.39,0,0,1,37.54,301.78Z"/><path class="edb67350-8e29-4320-9350-31b357242597" d="M38.85,301.65a.69.69,0,0,1-.32-.51,8.74,8.74,0,0,1,0-2.36.65.65,0,0,1,.32-.51,1.63,1.63,0,0,1,.81-.15,1.68,1.68,0,0,1,.82.15.71.71,0,0,1,.32.51,10,10,0,0,1,0,2.36.75.75,0,0,1-.32.51,1.68,1.68,0,0,1-.82.15A1.63,1.63,0,0,1,38.85,301.65Zm1.31-.37a.56.56,0,0,0,.18-.37c0-.18,0-.49,0-1s0-.78,0-.95a.56.56,0,0,0-.18-.37,1,1,0,0,0-.5-.09,1,1,0,0,0-.49.09A.49.49,0,0,0,39,299a11.3,11.3,0,0,0,0,1.9.49.49,0,0,0,.18.37,1,1,0,0,0,.49.09A1,1,0,0,0,40.16,301.28Z"/><path class="edb67350-8e29-4320-9350-31b357242597" d="M43.45,299.66a4.26,4.26,0,0,0,0-.73.44.44,0,0,0-.18-.29.84.84,0,0,0-.41-.07.65.65,0,0,0-.47.15.68.68,0,0,0-.18.41,6.79,6.79,0,0,0,0,.76v1.85h-.49v-3.57h.43l0,.5h0a.77.77,0,0,1,.29-.41,1.09,1.09,0,0,1,.59-.14,1,1,0,0,1,.59.14.63.63,0,0,1,.27.42,3.41,3.41,0,0,1,.07.81v2.25h-.5Z"/><path class="edb67350-8e29-4320-9350-31b357242597" d="M46.24,301.78l-.4,0a1.27,1.27,0,0,1-.76-.18.84.84,0,0,1-.31-.55,8.33,8.33,0,0,1,0-2.23.89.89,0,0,1,.33-.55,1.26,1.26,0,0,1,.71-.17l.41,0a2,2,0,0,1,.34.07v.41a2.7,2.7,0,0,0-.63-.07.87.87,0,0,0-.49.1.61.61,0,0,0-.2.4,4.75,4.75,0,0,0-.06.9,5.12,5.12,0,0,0,.06.93.56.56,0,0,0,.2.39.9.9,0,0,0,.49.1,2.59,2.59,0,0,0,.65-.07v.41A2.39,2.39,0,0,1,46.24,301.78Z"/><path class="edb67350-8e29-4320-9350-31b357242597" d="M49.48,300.12H47.65a5.08,5.08,0,0,0,.05.82.48.48,0,0,0,.23.34,1.29,1.29,0,0,0,.57.09,5.1,5.1,0,0,0,.89-.07v.4a3.13,3.13,0,0,1-.44.07l-.54,0a1.6,1.6,0,0,1-.83-.16.8.8,0,0,1-.34-.54,5.25,5.25,0,0,1-.09-1.13,7.32,7.32,0,0,1,.07-1.13.84.84,0,0,1,.33-.55,1.54,1.54,0,0,1,.82-.17,1.24,1.24,0,0,1,.76.17.7.7,0,0,1,.29.52,7.76,7.76,0,0,1,.06,1.15Zm-1.59-1.5a.45.45,0,0,0-.19.33,4.8,4.8,0,0,0-.05.8H49v-.08a3.32,3.32,0,0,0-.06-.75.48.48,0,0,0-.18-.31.86.86,0,0,0-.41-.07A1.1,1.1,0,0,0,47.89,298.62Z"/><path class="edb67350-8e29-4320-9350-31b357242597" d="M50.26,298.17h.44l0,.5h.05a.71.71,0,0,1,.31-.44,1.27,1.27,0,0,1,.54-.11,1.13,1.13,0,0,1,.63.15.89.89,0,0,1,.3.54,5.42,5.42,0,0,1,.09,1.14,6.43,6.43,0,0,1-.08,1.15.88.88,0,0,1-.3.54,1,1,0,0,1-.63.16,1.2,1.2,0,0,1-.54-.11.73.73,0,0,1-.3-.38h0v1.78h-.5Zm1.65,3.09a.56.56,0,0,0,.19-.37,6.91,6.91,0,0,0,0-.93,6.82,6.82,0,0,0,0-.93.56.56,0,0,0-.19-.37.9.9,0,0,0-.47-.09.71.71,0,0,0-.41.1.58.58,0,0,0-.21.35,2.06,2.06,0,0,0,0,.39c0,.14,0,.33,0,.55a5.2,5.2,0,0,0,.05.87.78.78,0,0,0,.21.41.72.72,0,0,0,.42.11A.9.9,0,0,0,51.91,301.26Z"/><path class="edb67350-8e29-4320-9350-31b357242597" d="M53.63,301.74V298.6h-.52v-.43h.52v-1h.49v1h.62v.43h-.62v3.14Z"/><path class="edb67350-8e29-4320-9350-31b357242597" d="M58.1,301.78l-.4,0a1.27,1.27,0,0,1-.76-.18.85.85,0,0,1-.32-.55,7.31,7.31,0,0,1-.07-1.11,5.27,5.27,0,0,1,.09-1.12.89.89,0,0,1,.33-.55,1.24,1.24,0,0,1,.71-.17l.41,0a1.68,1.68,0,0,1,.33.07v.41a2.59,2.59,0,0,0-.63-.07.86.86,0,0,0-.48.1.66.66,0,0,0-.21.4,6.12,6.12,0,0,0-.05.9,6.61,6.61,0,0,0,.05.93.61.61,0,0,0,.21.39.9.9,0,0,0,.49.1,2.51,2.51,0,0,0,.64-.07v.41A2,2,0,0,1,58.1,301.78Z"/><path class="edb67350-8e29-4320-9350-31b357242597" d="M59.12,298.17h.44l0,.67h.05a.86.86,0,0,1,.32-.57,1.07,1.07,0,0,1,.6-.15v.5a.9.9,0,0,0-.57.16.8.8,0,0,0-.28.45,3.59,3.59,0,0,0-.08.82v1.69h-.5Z"/><path class="edb67350-8e29-4320-9350-31b357242597" d="M63.34,300.12H61.5a4,4,0,0,0,.06.82.47.47,0,0,0,.22.34,1.34,1.34,0,0,0,.58.09,5.06,5.06,0,0,0,.88-.07v.4a2.9,2.9,0,0,1-.44.07l-.54,0a1.62,1.62,0,0,1-.83-.16.84.84,0,0,1-.34-.54A5.39,5.39,0,0,1,61,300a6.23,6.23,0,0,1,.07-1.13.79.79,0,0,1,.32-.55,1.57,1.57,0,0,1,.82-.17,1.29,1.29,0,0,1,.77.17.77.77,0,0,1,.29.52,7.76,7.76,0,0,1,.06,1.15Zm-1.6-1.5a.45.45,0,0,0-.19.33,4.8,4.8,0,0,0,0,.8h1.36v-.08a4.28,4.28,0,0,0,0-.75.45.45,0,0,0-.19-.31.84.84,0,0,0-.4-.07A1.12,1.12,0,0,0,61.74,298.62Z"/><path class="edb67350-8e29-4320-9350-31b357242597" d="M64.13,301.58a1.15,1.15,0,0,1-.22-.82,2.05,2.05,0,0,1,.08-.63.64.64,0,0,1,.27-.33,1.34,1.34,0,0,1,.55-.09l.92,0v-.25a2.36,2.36,0,0,0-.06-.63.37.37,0,0,0-.22-.26,2,2,0,0,0-.52-.05,3.34,3.34,0,0,0-.41,0l-.43.05v-.4a4.34,4.34,0,0,1,1-.1,1.69,1.69,0,0,1,.73.12.62.62,0,0,1,.34.4,3,3,0,0,1,.09.84v2.26h-.44l0-.49h0a.66.66,0,0,1-.34.44,1.27,1.27,0,0,1-.54.11A.94.94,0,0,1,64.13,301.58Zm1.27-.27a.44.44,0,0,0,.23-.25,2.23,2.23,0,0,0,.1-.75v-.23h-.8a.92.92,0,0,0-.33,0,.27.27,0,0,0-.15.19,1.4,1.4,0,0,0,0,.42,1.25,1.25,0,0,0,0,.4.27.27,0,0,0,.17.19.94.94,0,0,0,.38.05A1.16,1.16,0,0,0,65.4,301.31Z"/><path class="edb67350-8e29-4320-9350-31b357242597" d="M67.31,301.74V298.6h-.52v-.43h.52v-1h.49v1h.62v.43H67.8v3.14Z"/><path class="edb67350-8e29-4320-9350-31b357242597" d="M70.62,301.65a.94.94,0,0,1-.3-.54,7.27,7.27,0,0,1,0-2.28.83.83,0,0,1,.29-.55,1,1,0,0,1,.63-.16,1.2,1.2,0,0,1,.54.11.66.66,0,0,1,.3.38h0v-2.07h.5v5.2h-.44l0-.49h0a.69.69,0,0,1-.32.44,1.27,1.27,0,0,1-.54.11A1.08,1.08,0,0,1,70.62,301.65Zm1.22-.4a.54.54,0,0,0,.2-.32,2.37,2.37,0,0,0,.06-.41c0-.15,0-.36,0-.62a4.11,4.11,0,0,0-.06-.84.56.56,0,0,0-.2-.38.69.69,0,0,0-.43-.11.86.86,0,0,0-.46.09.52.52,0,0,0-.18.37,5.21,5.21,0,0,0,0,.93,6.51,6.51,0,0,0,0,.93.52.52,0,0,0,.18.37.9.9,0,0,0,.47.09A.71.71,0,0,0,71.84,301.25Z"/><path class="edb67350-8e29-4320-9350-31b357242597" d="M75.71,300.12H73.88a5.08,5.08,0,0,0,.05.82.48.48,0,0,0,.23.34,1.29,1.29,0,0,0,.57.09,4.91,4.91,0,0,0,.88-.07v.4a2.7,2.7,0,0,1-.44.07l-.53,0a1.6,1.6,0,0,1-.83-.16.8.8,0,0,1-.34-.54,5.25,5.25,0,0,1-.09-1.13,7.32,7.32,0,0,1,.07-1.13.84.84,0,0,1,.33-.55,1.54,1.54,0,0,1,.82-.17,1.26,1.26,0,0,1,.76.17.73.73,0,0,1,.29.52,7.76,7.76,0,0,1,.06,1.15Zm-1.59-1.5a.46.46,0,0,0-.2.33,5.09,5.09,0,0,0,0,.8h1.36v-.08a3.32,3.32,0,0,0-.06-.75.48.48,0,0,0-.18-.31.86.86,0,0,0-.41-.07A1.07,1.07,0,0,0,74.12,298.62Z"/><path class="edb67350-8e29-4320-9350-31b357242597" d="M80.19,301.74l-.34-1.33H78.37L78,301.74h-.52l1.26-4.81h.68l1.27,4.81Zm-1.06-4.17h0L78.5,300h1.22Z"/><path class="edb67350-8e29-4320-9350-31b357242597" d="M81.29,298.17h.44l0,.67h0a.89.89,0,0,1,.31-.57,1.13,1.13,0,0,1,.61-.15v.5a.9.9,0,0,0-.57.16.8.8,0,0,0-.28.45,3.59,3.59,0,0,0-.08.82v1.69h-.5Z"/><path class="edb67350-8e29-4320-9350-31b357242597" d="M86.75,299.66a4.26,4.26,0,0,0,0-.73.47.47,0,0,0-.15-.29.73.73,0,0,0-.38-.07.58.58,0,0,0-.45.14.65.65,0,0,0-.18.4,6.91,6.91,0,0,0,0,.78v1.85H85v-2.08a5.65,5.65,0,0,0,0-.73.47.47,0,0,0-.15-.29.73.73,0,0,0-.38-.07.58.58,0,0,0-.45.15.68.68,0,0,0-.18.41,6.64,6.64,0,0,0,0,.76v1.85h-.49v-3.57h.43l0,.5h0a.79.79,0,0,1,.28-.4.89.89,0,0,1,.56-.15,1.05,1.05,0,0,1,.57.12.74.74,0,0,1,.26.43h0a.77.77,0,0,1,.29-.41,1,1,0,0,1,.57-.14.92.92,0,0,1,.57.14.68.68,0,0,1,.25.42,3.37,3.37,0,0,1,.07.8v2.26h-.5Z"/><path class="edb67350-8e29-4320-9350-31b357242597" d="M88.1,297.12v-.58h.52v.58Zm0,4.62v-3.57h.5v3.57Z"/><path class="edb67350-8e29-4320-9350-31b357242597" d="M91.29,299.66a4.26,4.26,0,0,0,0-.73.44.44,0,0,0-.17-.29.88.88,0,0,0-.42-.07.61.61,0,0,0-.46.15.75.75,0,0,0-.19.41,7.29,7.29,0,0,0,0,.76v1.85h-.5v-3.57h.44l0,.5h0a.72.72,0,0,1,.29-.41,1.31,1.31,0,0,1,1.18,0,.71.71,0,0,1,.27.42,4.17,4.17,0,0,1,.06.81v2.25h-.5Z"/><path class="edb67350-8e29-4320-9350-31b357242597" d="M92.67,301.58a1.15,1.15,0,0,1-.22-.82,2.05,2.05,0,0,1,.08-.63.56.56,0,0,1,.27-.33,1.34,1.34,0,0,1,.55-.09l.92,0v-.25a2.36,2.36,0,0,0-.06-.63.37.37,0,0,0-.22-.26,2,2,0,0,0-.52-.05,3.26,3.26,0,0,0-.41,0l-.44.05v-.4a4.49,4.49,0,0,1,1-.1,1.69,1.69,0,0,1,.73.12.68.68,0,0,1,.34.4,3,3,0,0,1,.09.84v2.26h-.44l0-.49h0a.66.66,0,0,1-.34.44,1.31,1.31,0,0,1-.55.11A.93.93,0,0,1,92.67,301.58Zm1.26-.27a.38.38,0,0,0,.23-.25,2,2,0,0,0,.11-.75v-.23h-.8a.92.92,0,0,0-.33,0,.27.27,0,0,0-.15.19,1.13,1.13,0,0,0,0,.42,1,1,0,0,0,0,.4.27.27,0,0,0,.17.19.91.91,0,0,0,.37.05A1.09,1.09,0,0,0,93.93,301.31Z"/><path class="edb67350-8e29-4320-9350-31b357242597" d="M96.91,301.71v-.46a4,4,0,0,0,.54.06l.5,0a1.78,1.78,0,0,0,.44,0,.58.58,0,0,0,.27-.14.49.49,0,0,0,.13-.26,3,3,0,0,0,0-.47,3.22,3.22,0,0,0,0-.54.31.31,0,0,0-.13-.22,1,1,0,0,0-.36-.11l-.81-.13a.7.7,0,0,1-.44-.2.69.69,0,0,1-.19-.38,3.52,3.52,0,0,1,0-.64,1.38,1.38,0,0,1,.31-1,1.32,1.32,0,0,1,1-.31,4.42,4.42,0,0,1,1.06.11v.44a5,5,0,0,0-1-.09,1.45,1.45,0,0,0-.47.06.51.51,0,0,0-.27.15.57.57,0,0,0-.12.26c0,.11,0,.24,0,.4a4.48,4.48,0,0,0,0,.46.29.29,0,0,0,.12.2.6.6,0,0,0,.28.09l.78.13a1.39,1.39,0,0,1,.46.14.66.66,0,0,1,.26.34,2.43,2.43,0,0,1,.08.81,2.4,2.4,0,0,1-.11.84.79.79,0,0,1-.39.45,1.63,1.63,0,0,1-.73.14A7.33,7.33,0,0,1,96.91,301.71Z"/><path class="edb67350-8e29-4320-9350-31b357242597" d="M99.51,297.51v0l.54-.93h.55l.53.93v0h-.35l-.46-.68-.46.68Zm.56,4.23v-3.57h.5v3.57Z"/><path class="edb67350-8e29-4320-9350-31b357242597" d="M101.45,298.17h.43l0,.67h0a.9.9,0,0,1,.32-.57,1.07,1.07,0,0,1,.6-.15v.5a.85.85,0,0,0-.56.16.81.81,0,0,0-.29.45,3.59,3.59,0,0,0-.08.82v1.69h-.49Z"/><path class="edb67350-8e29-4320-9350-31b357242597" d="M104.26,301.69a.73.73,0,0,1-.32-.44h0l0,.49h-.43v-5.2h.5v2.07h0a.7.7,0,0,1,.3-.38,1.2,1.2,0,0,1,.54-.11,1,1,0,0,1,.63.16.88.88,0,0,1,.3.54,6.39,6.39,0,0,1,.08,1.14,5.42,5.42,0,0,1-.09,1.14.94.94,0,0,1-.3.55,1.13,1.13,0,0,1-.63.15A1.27,1.27,0,0,1,104.26,301.69Zm.83-.43a.52.52,0,0,0,.18-.37,5.28,5.28,0,0,0,0-.93,5.21,5.21,0,0,0,0-.93.52.52,0,0,0-.18-.37.9.9,0,0,0-.47-.09.76.76,0,0,0-.4.09.58.58,0,0,0-.2.31,3.46,3.46,0,0,0-.07.41c0,.15,0,.35,0,.58s0,.43,0,.57a2,2,0,0,0,.06.39.5.5,0,0,0,.21.33.68.68,0,0,0,.4.1A.9.9,0,0,0,105.09,301.26Z"/><path class="edb67350-8e29-4320-9350-31b357242597" d="M108.41,301.25h0a.76.76,0,0,1-.29.41,1.31,1.31,0,0,1-1.18,0,.65.65,0,0,1-.26-.42,3.41,3.41,0,0,1-.07-.81v-2.26h.5v2.09a4.26,4.26,0,0,0,0,.73.44.44,0,0,0,.17.29.88.88,0,0,0,.42.07.62.62,0,0,0,.46-.15.68.68,0,0,0,.18-.41,5,5,0,0,0,0-.76v-1.86h.5v3.57h-.44Z"/><path class="edb67350-8e29-4320-9350-31b357242597" d="M114.24,299.09v.44h-.59v2.15l-.56.09-.57,0a2.4,2.4,0,0,1-1-.15.9.9,0,0,1-.44-.44,2,2,0,0,1-.11-.75,1.54,1.54,0,0,1,.16-.81.9.9,0,0,1,.5-.35v0a.82.82,0,0,1-.48-.36,1.56,1.56,0,0,1-.15-.77,1.79,1.79,0,0,1,.12-.7.88.88,0,0,1,.45-.42,2.2,2.2,0,0,1,.91-.15,4,4,0,0,1,.56,0,3.71,3.71,0,0,1,.55.09v.4l-.51-.07-.46,0a2.25,2.25,0,0,0-.73.08.53.53,0,0,0-.31.27,1.56,1.56,0,0,0-.07.55,1.34,1.34,0,0,0,.13.65.58.58,0,0,0,.55.23h.44v.44h-.44a.83.83,0,0,0-.46.1.47.47,0,0,0-.21.3,2.37,2.37,0,0,0,0,.53,1.27,1.27,0,0,0,.11.58.49.49,0,0,0,.32.26,1.89,1.89,0,0,0,.6.07,3.58,3.58,0,0,0,.61-.05v-2.23Z"/><path class="edb67350-8e29-4320-9350-31b357242597" d="M115.59,297.51v0l.54-.93h.55l.53.93v0h-.35l-.46-.68-.46.68Zm.56,4.23v-3.57h.5v3.57Z"/><path class="edb67350-8e29-4320-9350-31b357242597" d="M121,299.66a5.65,5.65,0,0,0,0-.73.43.43,0,0,0-.16-.29.71.71,0,0,0-.38-.07.61.61,0,0,0-.45.14.78.78,0,0,0-.18.4,7.46,7.46,0,0,0,0,.78v1.85h-.5v-2.08a4.26,4.26,0,0,0,0-.73.39.39,0,0,0-.15-.29.69.69,0,0,0-.37-.07.62.62,0,0,0-.46.15.73.73,0,0,0-.17.41,4.92,4.92,0,0,0,0,.76v1.85h-.5v-3.57H118l0,.5h0a.77.77,0,0,1,.27-.4.92.92,0,0,1,.57-.15,1.1,1.1,0,0,1,.57.12.68.68,0,0,1,.25.43h0a.76.76,0,0,1,.28-.41,1.06,1.06,0,0,1,.58-.14.87.87,0,0,1,.56.14.69.69,0,0,1,.26.42,4,4,0,0,1,.07.8v2.26H121Z"/><path class="edb67350-8e29-4320-9350-31b357242597" d="M123.17,301.69a.69.69,0,0,1-.32-.44h0l0,.49h-.43v-5.2h.49v2.07h0a.62.62,0,0,1,.3-.38,1.13,1.13,0,0,1,.53-.11,1,1,0,0,1,.63.16.79.79,0,0,1,.3.54,7.26,7.26,0,0,1,0,2.28.89.89,0,0,1-.31.55,1.08,1.08,0,0,1-.63.15A1.22,1.22,0,0,1,123.17,301.69Zm.82-.43a.49.49,0,0,0,.19-.37,6.51,6.51,0,0,0,0-.93,6.41,6.41,0,0,0,0-.93.49.49,0,0,0-.19-.37.86.86,0,0,0-.46-.09.76.76,0,0,0-.4.09.49.49,0,0,0-.2.31,1.59,1.59,0,0,0-.07.41c0,.15,0,.35,0,.58s0,.43,0,.57a2,2,0,0,0,.06.39.54.54,0,0,0,.2.33.71.71,0,0,0,.41.1A.86.86,0,0,0,124,301.26Z"/><path class="edb67350-8e29-4320-9350-31b357242597" d="M127.32,301.25h0a.76.76,0,0,1-.29.41,1.07,1.07,0,0,1-.59.14,1,1,0,0,1-.59-.14.66.66,0,0,1-.27-.42,4.17,4.17,0,0,1-.06-.81v-2.26H126v2.09a4,4,0,0,0,0,.73.44.44,0,0,0,.17.29.84.84,0,0,0,.41.07.61.61,0,0,0,.46-.15.75.75,0,0,0,.19-.41,5,5,0,0,0,0-.76v-1.86h.49v3.57h-.44Z"/><path class="edb67350-8e29-4320-9350-31b357242597" d="M130.48,299.66a4,4,0,0,0,0-.73.4.4,0,0,0-.17-.29.84.84,0,0,0-.41-.07.65.65,0,0,0-.47.15.68.68,0,0,0-.18.41,6.79,6.79,0,0,0,0,.76v1.85h-.49v-3.57h.43l0,.5h0a.77.77,0,0,1,.29-.41,1.09,1.09,0,0,1,.59-.14,1,1,0,0,1,.59.14.63.63,0,0,1,.27.42,4,4,0,0,1,.07.81v2.25h-.5Z"/><path class="edb67350-8e29-4320-9350-31b357242597" d="M131.85,301.58a1.2,1.2,0,0,1-.22-.82,1.75,1.75,0,0,1,.09-.63.56.56,0,0,1,.27-.33,1.32,1.32,0,0,1,.54-.09l.92,0v-.25a2.46,2.46,0,0,0,0-.63.39.39,0,0,0-.22-.26,2.09,2.09,0,0,0-.52-.05,3.4,3.4,0,0,0-.42,0l-.43.05v-.4a4.37,4.37,0,0,1,1-.1,1.72,1.72,0,0,1,.73.12.64.64,0,0,1,.33.4,3,3,0,0,1,.09.84v2.26h-.44l0-.49h0a.69.69,0,0,1-.34.44,1.35,1.35,0,0,1-.55.11A1,1,0,0,1,131.85,301.58Zm1.77-4.48a.51.51,0,0,1-.22.32.92.92,0,0,1-.53.12.87.87,0,0,1-.51-.12.51.51,0,0,1-.22-.32,2.79,2.79,0,0,1,0-.56h.35a2.13,2.13,0,0,0,0,.4.29.29,0,0,0,.11.2.46.46,0,0,0,.29.07.53.53,0,0,0,.31-.07.29.29,0,0,0,.11-.2,2,2,0,0,0,0-.4h.34A2.79,2.79,0,0,1,133.62,297.1Zm-.5,4.21a.41.41,0,0,0,.23-.25,2.23,2.23,0,0,0,.1-.75v-.23h-.79a1,1,0,0,0-.34,0,.27.27,0,0,0-.15.19,1.4,1.4,0,0,0,0,.42,1.25,1.25,0,0,0,0,.4.29.29,0,0,0,.17.19,1,1,0,0,0,.38.05A1.12,1.12,0,0,0,133.12,301.31Z"/><path class="edb67350-8e29-4320-9350-31b357242597" d="M135,301.74V298.6h-.52v-.43H135v-1h.5v1h.61v.43h-.61v3.14Z"/><path class="edb67350-8e29-4320-9350-31b357242597" d="M136.74,301.58a1.15,1.15,0,0,1-.22-.82,2.05,2.05,0,0,1,.08-.63.64.64,0,0,1,.27-.33,1.34,1.34,0,0,1,.55-.09l.92,0v-.25a2.36,2.36,0,0,0-.06-.63.38.38,0,0,0-.21-.26,2.12,2.12,0,0,0-.53-.05,3.34,3.34,0,0,0-.41,0l-.43.05v-.4a4.34,4.34,0,0,1,1-.1,1.69,1.69,0,0,1,.73.12.62.62,0,0,1,.34.4,3,3,0,0,1,.09.84v2.26h-.44l0-.49h0a.66.66,0,0,1-.34.44,1.27,1.27,0,0,1-.54.11A.94.94,0,0,1,136.74,301.58Zm1.77-4.48a.55.55,0,0,1-.22.32.94.94,0,0,1-.53.12.91.91,0,0,1-.52-.12.54.54,0,0,1-.21-.32,2.68,2.68,0,0,1-.05-.56h.35a3.59,3.59,0,0,0,0,.4.34.34,0,0,0,.12.2.44.44,0,0,0,.29.07.53.53,0,0,0,.31-.07.29.29,0,0,0,.11-.2,3.59,3.59,0,0,0,0-.4h.35A2.79,2.79,0,0,1,138.51,297.1Zm-.5,4.21a.44.44,0,0,0,.23-.25,2.23,2.23,0,0,0,.1-.75v-.23h-.8a.92.92,0,0,0-.33,0,.27.27,0,0,0-.15.19,1.4,1.4,0,0,0-.05.42,1.25,1.25,0,0,0,.05.4.27.27,0,0,0,.17.19.94.94,0,0,0,.38.05A1.16,1.16,0,0,0,138,301.31Z"/><path class="edb67350-8e29-4320-9350-31b357242597" d="M139.92,301.74V298.6h-.52v-.43h.52v-1h.49v1H141v.43h-.62v3.14Zm.2,1.47a.57.57,0,0,0,.06-.32v-.11H140v-.6h.56v.54a1.91,1.91,0,0,1,0,.5.39.39,0,0,1-.19.24,1.24,1.24,0,0,1-.45.06v-.24C140,303.28,140.08,303.26,140.12,303.21Z"/><path class="edb67350-8e29-4320-9350-31b357242597" d="M141.6,297.12v-.58h.52v.58Zm0,4.62v-3.57h.5v3.57Z"/><path class="edb67350-8e29-4320-9350-31b357242597" d="M143.2,301.74V298.6h-.52v-.43h.52v-1h.5v1h.61v.43h-.61v3.14Z"/><path class="edb67350-8e29-4320-9350-31b357242597" d="M146.51,301.65a.94.94,0,0,1-.3-.54,8.16,8.16,0,0,1,0-2.28.83.83,0,0,1,.3-.55,1,1,0,0,1,.62-.16,1.15,1.15,0,0,1,.54.11.62.62,0,0,1,.3.38h0v-2.07h.5v5.2h-.45l0-.49h0a.66.66,0,0,1-.32.44,1.2,1.2,0,0,1-.54.11A1.11,1.11,0,0,1,146.51,301.65Zm1.22-.4a.5.5,0,0,0,.2-.32,1.68,1.68,0,0,0,.06-.41c0-.15,0-.36,0-.62a4.11,4.11,0,0,0-.06-.84.61.61,0,0,0-.21-.38.69.69,0,0,0-.43-.11.91.91,0,0,0-.46.09.52.52,0,0,0-.18.37,6.41,6.41,0,0,0,0,.93,6.51,6.51,0,0,0,0,.93.52.52,0,0,0,.19.37.86.86,0,0,0,.46.09A.71.71,0,0,0,147.73,301.25Z"/><path class="edb67350-8e29-4320-9350-31b357242597" d="M151.61,300.12h-1.84a5.08,5.08,0,0,0,0,.82.48.48,0,0,0,.23.34,1.34,1.34,0,0,0,.58.09,5.06,5.06,0,0,0,.88-.07v.4a3.13,3.13,0,0,1-.44.07l-.54,0a1.6,1.6,0,0,1-.83-.16.84.84,0,0,1-.34-.54,5.39,5.39,0,0,1-.08-1.13,6.23,6.23,0,0,1,.07-1.13.79.79,0,0,1,.32-.55,1.54,1.54,0,0,1,.82-.17,1.29,1.29,0,0,1,.77.17.77.77,0,0,1,.29.52,7.76,7.76,0,0,1,.06,1.15Zm-1.6-1.5a.45.45,0,0,0-.19.33,4.8,4.8,0,0,0,0,.8h1.36v-.08a3.32,3.32,0,0,0-.06-.75.41.41,0,0,0-.18-.31.84.84,0,0,0-.4-.07A1.12,1.12,0,0,0,150,298.62Z"/><path class="edb67350-8e29-4320-9350-31b357242597" d="M153.66,301.71v-.46a4.46,4.46,0,0,0,.54.06l.5,0a1.73,1.73,0,0,0,.44,0,.58.58,0,0,0,.27-.14.43.43,0,0,0,.13-.26,3,3,0,0,0,0-.47,3.58,3.58,0,0,0,0-.54.31.31,0,0,0-.13-.22,1,1,0,0,0-.36-.11l-.82-.13a.72.72,0,0,1-.44-.2.76.76,0,0,1-.19-.38,3.67,3.67,0,0,1,0-.64,1.42,1.42,0,0,1,.3-1,1.35,1.35,0,0,1,1-.31,4.51,4.51,0,0,1,1.07.11v.44a5.09,5.09,0,0,0-1-.09,1.56,1.56,0,0,0-.48.06.51.51,0,0,0-.26.15.57.57,0,0,0-.12.26,2.25,2.25,0,0,0,0,.4,2.46,2.46,0,0,0,0,.46.32.32,0,0,0,.11.2.7.7,0,0,0,.28.09l.78.13a1.46,1.46,0,0,1,.47.14.66.66,0,0,1,.26.34,2.74,2.74,0,0,1,.08.81,2.67,2.67,0,0,1-.11.84.79.79,0,0,1-.39.45,1.68,1.68,0,0,1-.74.14A7.51,7.51,0,0,1,153.66,301.71Z"/><path class="edb67350-8e29-4320-9350-31b357242597" d="M156.81,297.12v-.58h.53v.58Zm0,4.62v-3.57h.49v3.57Z"/><path class="edb67350-8e29-4320-9350-31b357242597" d="M158.2,301.74v-5.2h.5v5.2Z"/><path class="edb67350-8e29-4320-9350-31b357242597" d="M160.24,301.74l-1-3.57h.52l.76,2.94h0l.75-2.94h.5l-1,3.57Z"/><path class="edb67350-8e29-4320-9350-31b357242597" d="M162.39,297.12v-.58h.53v.58Zm0,4.62v-3.57h.49v3.57Z"/><path class="edb67350-8e29-4320-9350-31b357242597" d="M163.79,301.58a1.21,1.21,0,0,1-.21-.82,1.78,1.78,0,0,1,.08-.63.56.56,0,0,1,.27-.33,1.32,1.32,0,0,1,.54-.09l.93,0v-.25a2.36,2.36,0,0,0-.06-.63.37.37,0,0,0-.22-.26,2.09,2.09,0,0,0-.52-.05,3.4,3.4,0,0,0-.42,0l-.43.05v-.4a4.37,4.37,0,0,1,1-.1,1.69,1.69,0,0,1,.73.12.64.64,0,0,1,.33.4,3,3,0,0,1,.09.84v2.26h-.44l0-.49h0a.66.66,0,0,1-.34.44,1.35,1.35,0,0,1-.55.11A1,1,0,0,1,163.79,301.58Zm1.27-.27a.41.41,0,0,0,.23-.25,2.2,2.2,0,0,0,.11-.75v-.23h-.8a.92.92,0,0,0-.33,0,.26.26,0,0,0-.16.19,1.47,1.47,0,0,0,0,.42,1.32,1.32,0,0,0,0,.4.29.29,0,0,0,.17.19,1,1,0,0,0,.38.05A1.12,1.12,0,0,0,165.06,301.31Z"/><path class="edb67350-8e29-4320-9350-31b357242597" d="M168.15,296.93h1.46a1,1,0,0,1,.85.31,1.3,1.3,0,0,1,.26.89,1.46,1.46,0,0,1-.17.78.82.82,0,0,1-.54.36v0a.79.79,0,0,1,.59.39,1.67,1.67,0,0,1,.17.8,1.48,1.48,0,0,1-.26.92,1.08,1.08,0,0,1-.93.34h-1.43Zm1.87,1.94a1,1,0,0,0,.18-.64,1.59,1.59,0,0,0-.06-.49.51.51,0,0,0-.23-.27,1,1,0,0,0-.45-.08h-.8v1.68h.8A.73.73,0,0,0,170,298.87Zm.06,2.22a1.16,1.16,0,0,0,.15-.68,1.08,1.08,0,0,0-.16-.68.76.76,0,0,0-.59-.2h-.82v1.75h.82A.76.76,0,0,0,170.08,301.09Z"/><path class="edb67350-8e29-4320-9350-31b357242597" d="M171.83,301.65a.73.73,0,0,1-.33-.51,10,10,0,0,1,0-2.36.69.69,0,0,1,.33-.51,1.61,1.61,0,0,1,.81-.15,1.68,1.68,0,0,1,.82.15.71.71,0,0,1,.32.51,10,10,0,0,1,0,2.36.75.75,0,0,1-.32.51,1.68,1.68,0,0,1-.82.15A1.61,1.61,0,0,1,171.83,301.65Zm1.3-.37a.49.49,0,0,0,.18-.37,6.88,6.88,0,0,0,0-1,6.78,6.78,0,0,0,0-.95.49.49,0,0,0-.18-.37,1,1,0,0,0-.49-.09,1,1,0,0,0-.5.09.52.52,0,0,0-.17.37,11.3,11.3,0,0,0,0,1.9.52.52,0,0,0,.17.37,1,1,0,0,0,.5.09A1,1,0,0,0,173.13,301.28Z"/><path class="edb67350-8e29-4320-9350-31b357242597" d="M174.63,303.09v-.41l.85,0a1.41,1.41,0,0,0,.6-.1.56.56,0,0,0,.25-.37,4.29,4.29,0,0,0,.06-.85v-.1h0a.67.67,0,0,1-.29.38,1.2,1.2,0,0,1-.54.11,1.14,1.14,0,0,1-.64-.15.88.88,0,0,1-.29-.54,7.27,7.27,0,0,1,0-2.28.94.94,0,0,1,.3-.54,1.1,1.1,0,0,1,.64-.15,1.22,1.22,0,0,1,.53.11.72.72,0,0,1,.32.44h0l0-.5h.44v3.06a6.35,6.35,0,0,1-.08,1.15.91.91,0,0,1-.37.58,1.6,1.6,0,0,1-.86.18A9.36,9.36,0,0,1,174.63,303.09Zm1.48-1.86a.6.6,0,0,0,.2-.33,4.2,4.2,0,0,0,.08-.95c0-.22,0-.4,0-.54a1.48,1.48,0,0,0-.06-.35.61.61,0,0,0-.21-.38.63.63,0,0,0-.41-.11.9.9,0,0,0-.47.09.51.51,0,0,0-.18.36,6.51,6.51,0,0,0-.05.93,6.31,6.31,0,0,0,.05.93.54.54,0,0,0,.18.37.9.9,0,0,0,.47.09A.71.71,0,0,0,176.11,301.23Z"/><path class="edb67350-8e29-4320-9350-31b357242597" d="M178,301.65a.94.94,0,0,1-.3-.54,7.27,7.27,0,0,1,0-2.28.83.83,0,0,1,.29-.55,1,1,0,0,1,.63-.16,1.2,1.2,0,0,1,.54.11.66.66,0,0,1,.3.38h0v-2.07H180v5.2h-.44l0-.49h0a.69.69,0,0,1-.32.44,1.27,1.27,0,0,1-.54.11A1.08,1.08,0,0,1,178,301.65Zm1.22-.4a.54.54,0,0,0,.2-.32,2.37,2.37,0,0,0,.06-.41c0-.15,0-.36,0-.62a3.94,3.94,0,0,0-.07-.84.56.56,0,0,0-.2-.38.69.69,0,0,0-.43-.11.88.88,0,0,0-.46.09.52.52,0,0,0-.18.37,5.21,5.21,0,0,0,0,.93,6.51,6.51,0,0,0,0,.93.52.52,0,0,0,.18.37.93.93,0,0,0,.47.09A.71.71,0,0,0,179.26,301.25Z"/><path class="edb67350-8e29-4320-9350-31b357242597" d="M180.93,301.58a1.15,1.15,0,0,1-.22-.82,2.05,2.05,0,0,1,.08-.63.61.61,0,0,1,.28-.33,1.25,1.25,0,0,1,.54-.09l.92,0v-.25a2.36,2.36,0,0,0-.06-.63.38.38,0,0,0-.21-.26,2.12,2.12,0,0,0-.53-.05,3.34,3.34,0,0,0-.41,0l-.43.05v-.4a4.34,4.34,0,0,1,1-.1,1.77,1.77,0,0,1,.74.12.64.64,0,0,1,.33.4,3,3,0,0,1,.09.84v2.26h-.44l0-.49h0a.68.68,0,0,1-.33.44,1.35,1.35,0,0,1-.55.11A.94.94,0,0,1,180.93,301.58Zm1.27-.27a.44.44,0,0,0,.23-.25,2.23,2.23,0,0,0,.1-.75v-.23h-.8a.92.92,0,0,0-.33,0,.27.27,0,0,0-.15.19,1.4,1.4,0,0,0-.05.42,1.25,1.25,0,0,0,.05.4.27.27,0,0,0,.17.19.94.94,0,0,0,.38.05A1.16,1.16,0,0,0,182.2,301.31Z"/><path class="edb67350-8e29-4320-9350-31b357242597" d="M185.7,299.66a4.26,4.26,0,0,0,0-.73.44.44,0,0,0-.17-.29.91.91,0,0,0-.42-.07.65.65,0,0,0-.47.15.82.82,0,0,0-.18.41,7.29,7.29,0,0,0,0,.76v1.85h-.5v-3.57h.43l0,.5h0a.83.83,0,0,1,.29-.41,1.11,1.11,0,0,1,.6-.14,1.07,1.07,0,0,1,.59.14.65.65,0,0,1,.26.42,3.41,3.41,0,0,1,.07.81v2.25h-.5Z"/><path class="edb67350-8e29-4320-9350-31b357242597" d="M43.1,50.15s-.73,1-.38,1.34c0,0,.13.08.29-.13a8.33,8.33,0,0,0,.22-1.16s0-.2-.13-.05"/><path class="b94a49fd-22c5-41a6-a873-b3a33b6c665f" d="M43.1,50.15s-.73,1-.38,1.34c0,0,.13.08.29-.13a8.33,8.33,0,0,0,.22-1.16S43.27,50,43.1,50.15Z"/><path class="edb67350-8e29-4320-9350-31b357242597" d="M42.62,52.58s-.37.68-.22.62.42-.77.22-.62"/><path class="ac1c5113-d433-4ed9-8c0f-fa2ca00b4da0" d="M42.62,52.58s-.37.68-.22.62S42.82,52.43,42.62,52.58Z"/><path class="edb67350-8e29-4320-9350-31b357242597" d="M42.09,58.12c-.55-.34-.34-.61-.34-.61.12-.22.39.52.39.52s.08.17,0,.09"/><path class="ac1c5113-d433-4ed9-8c0f-fa2ca00b4da0" d="M42.09,58.12c-.55-.34-.34-.61-.34-.61.12-.22.39.52.39.52S42.22,58.2,42.09,58.12Z"/><path class="fb784a51-ce20-47a9-bb7e-ee4dd8f00df9" d="M94.32,99.1a.74.74,0,0,0,.46-.6,9.72,9.72,0,0,0,.1-1.76V88.13h2.67V95.5a23.72,23.72,0,0,1-.24,4.19,1.81,1.81,0,0,1-1.11,1.44,11.14,11.14,0,0,1-3.24.33v-2.2A5.09,5.09,0,0,0,94.32,99.1Z"/><path class="fb784a51-ce20-47a9-bb7e-ee4dd8f00df9" d="M100.3,101.19a2,2,0,0,1-1-1.43,25,25,0,0,1,0-6.47,2.07,2.07,0,0,1,1-1.44,7.1,7.1,0,0,1,4.81,0,2.1,2.1,0,0,1,1,1.44,25,25,0,0,1,0,6.47,2.06,2.06,0,0,1-1,1.43,6.94,6.94,0,0,1-4.81,0Zm3.17-1.84a1,1,0,0,0,.25-.72c0-.37,0-1.07,0-2.11s0-1.73,0-2.1a1.07,1.07,0,0,0-.25-.73,1.28,1.28,0,0,0-.77-.17,1.25,1.25,0,0,0-.76.17,1.07,1.07,0,0,0-.25.73c0,.37,0,1.07,0,2.1s0,1.74,0,2.11a1,1,0,0,0,.25.72,1.17,1.17,0,0,0,.76.18A1.2,1.2,0,0,0,103.47,99.35Z"/><path class="fb784a51-ce20-47a9-bb7e-ee4dd8f00df9" d="M112.43,101.46l-1.59-3.85h-.52v3.85h-2.5V87.07h2.5V95.5h.52l1.65-3.92h2.56l-2.13,4.71,2.15,5.17Z"/><path class="fb784a51-ce20-47a9-bb7e-ee4dd8f00df9" d="M122.82,97.3h-4.4a7.55,7.55,0,0,0,.1,1.53.72.72,0,0,0,.44.56,3.91,3.91,0,0,0,1.26.14c.49,0,1.28,0,2.36-.12v1.92a12.13,12.13,0,0,1-1.35.2,15,15,0,0,1-1.59.09,4.73,4.73,0,0,1-2.51-.51,2.33,2.33,0,0,1-1-1.53,22,22,0,0,1,0-6.06,2.46,2.46,0,0,1,1-1.56,5.63,5.63,0,0,1,4.68,0,2.16,2.16,0,0,1,.87,1.48,21.07,21.07,0,0,1,.17,3.14Zm-4-3.66a.78.78,0,0,0-.28.56,7.86,7.86,0,0,0-.08,1.41h2a9.53,9.53,0,0,0-.07-1.42.84.84,0,0,0-.28-.56,1.19,1.19,0,0,0-.66-.13A1.25,1.25,0,0,0,118.78,93.64Z"/><path class="fb784a51-ce20-47a9-bb7e-ee4dd8f00df9" d="M124.39,91.58h2.36l.08,1.63H127a2.52,2.52,0,0,1,.84-1.4,2.49,2.49,0,0,1,1.45-.38V94a3.19,3.19,0,0,0-1.39.26,1.5,1.5,0,0,0-.75.89,5.22,5.22,0,0,0-.24,1.78v4.49h-2.5Z"/><path class="a24ee600-b63b-4a7e-9d61-ec2e5fa88b3c" d="M53.93,127.61V127l.77.09.71,0a3.32,3.32,0,0,0,.63,0,.9.9,0,0,0,.39-.2.68.68,0,0,0,.18-.38,3.9,3.9,0,0,0,0-.67,4.58,4.58,0,0,0,0-.77.43.43,0,0,0-.19-.31,1.21,1.21,0,0,0-.51-.16l-1.16-.18a1.09,1.09,0,0,1-.63-.29,1.07,1.07,0,0,1-.28-.55,5.5,5.5,0,0,1-.06-.91,2.06,2.06,0,0,1,.44-1.48,1.94,1.94,0,0,1,1.41-.43,5.79,5.79,0,0,1,1.52.16v.62a7.7,7.7,0,0,0-1.35-.12,2.48,2.48,0,0,0-.68.07.79.79,0,0,0-.38.23.75.75,0,0,0-.17.37,2.92,2.92,0,0,0,0,.56,3.62,3.62,0,0,0,0,.67.43.43,0,0,0,.16.28,1.09,1.09,0,0,0,.4.13l1.12.18a2.13,2.13,0,0,1,.66.21.89.89,0,0,1,.37.48,4.89,4.89,0,0,1,0,2.36,1.13,1.13,0,0,1-.55.64,2.3,2.3,0,0,1-1,.2A10.07,10.07,0,0,1,53.93,127.61Z"/><path class="a24ee600-b63b-4a7e-9d61-ec2e5fa88b3c" d="M58.45,122.56h.62l0,.71h.06a1,1,0,0,1,.45-.63,1.79,1.79,0,0,1,.77-.16,1.54,1.54,0,0,1,.9.22,1.2,1.2,0,0,1,.43.77,7.48,7.48,0,0,1,.13,1.63,8.18,8.18,0,0,1-.12,1.63,1.2,1.2,0,0,1-.43.78,1.88,1.88,0,0,1-1.66.07,1,1,0,0,1-.43-.54h-.05v2.55h-.71ZM60.8,127a.78.78,0,0,0,.27-.53,12.67,12.67,0,0,0,0-2.66.78.78,0,0,0-.27-.53,1.21,1.21,0,0,0-.66-.13,1,1,0,0,0-.59.15.86.86,0,0,0-.3.5,2.79,2.79,0,0,0-.08.55c0,.21,0,.47,0,.79a6.48,6.48,0,0,0,.08,1.25,1,1,0,0,0,.3.57.89.89,0,0,0,.6.17A1.21,1.21,0,0,0,60.8,127Z"/><path class="a24ee600-b63b-4a7e-9d61-ec2e5fa88b3c" d="M65.55,127h0a1.11,1.11,0,0,1-.42.59,1.49,1.49,0,0,1-.84.2,1.52,1.52,0,0,1-.85-.2,1,1,0,0,1-.38-.61,5.6,5.6,0,0,1-.09-1.15v-3.22h.71v3a6.21,6.21,0,0,0,.06,1,.6.6,0,0,0,.25.41,1.23,1.23,0,0,0,.59.11.86.86,0,0,0,.66-.22,1,1,0,0,0,.26-.58,7.47,7.47,0,0,0,.06-1.09v-2.65h.71v5.1h-.63Z"/><path class="a24ee600-b63b-4a7e-9d61-ec2e5fa88b3c" d="M70.07,124.68a5.14,5.14,0,0,0-.07-1,.6.6,0,0,0-.24-.42,1.25,1.25,0,0,0-.59-.1.87.87,0,0,0-.67.22,1,1,0,0,0-.26.59,9.49,9.49,0,0,0,0,1.08v2.65h-.71v-5.1h.62l0,.71h.06a1.15,1.15,0,0,1,.41-.59,1.55,1.55,0,0,1,.85-.2,1.49,1.49,0,0,1,.84.2.94.94,0,0,1,.38.61,4.81,4.81,0,0,1,.1,1.15v3.22h-.71Z"/><path class="a24ee600-b63b-4a7e-9d61-ec2e5fa88b3c" d="M75.18,125.34H72.56a6.52,6.52,0,0,0,.07,1.17A.68.68,0,0,0,73,127a1.85,1.85,0,0,0,.83.14A7.29,7.29,0,0,0,75,127v.58a4.64,4.64,0,0,1-.63.1,6.85,6.85,0,0,1-.77,0,2.36,2.36,0,0,1-1.18-.23,1.17,1.17,0,0,1-.49-.77,7.94,7.94,0,0,1-.12-1.62,9,9,0,0,1,.1-1.61,1.17,1.17,0,0,1,.46-.78,2.14,2.14,0,0,1,1.18-.25,1.89,1.89,0,0,1,1.09.24,1.07,1.07,0,0,1,.41.75,10.56,10.56,0,0,1,.09,1.64ZM72.9,123.2a.65.65,0,0,0-.28.46,7.67,7.67,0,0,0-.06,1.15H74.5v-.12a5.19,5.19,0,0,0-.08-1.06.68.68,0,0,0-.27-.45,1.32,1.32,0,0,0-.57-.1A1.45,1.45,0,0,0,72.9,123.2Z"/><path class="a24ee600-b63b-4a7e-9d61-ec2e5fa88b3c" d="M76.23,125.13v-.65h2v.65Z"/><path class="a24ee600-b63b-4a7e-9d61-ec2e5fa88b3c" d="M79.38,127.66v-7.43h.71v7.43Z"/><path class="a24ee600-b63b-4a7e-9d61-ec2e5fa88b3c" d="M84.51,125.34H81.89a6.52,6.52,0,0,0,.07,1.17.68.68,0,0,0,.32.48,1.85,1.85,0,0,0,.83.14,7.29,7.29,0,0,0,1.26-.11v.58a5.24,5.24,0,0,1-.63.1,7,7,0,0,1-.77,0,2.33,2.33,0,0,1-1.18-.23,1.17,1.17,0,0,1-.49-.77,7.94,7.94,0,0,1-.12-1.62,9,9,0,0,1,.1-1.61,1.17,1.17,0,0,1,.46-.78,2.14,2.14,0,0,1,1.18-.25,1.89,1.89,0,0,1,1.09.24,1.07,1.07,0,0,1,.41.75,10.56,10.56,0,0,1,.09,1.64Zm-2.28-2.14a.65.65,0,0,0-.28.46,7.67,7.67,0,0,0-.06,1.15h1.94v-.12a5.19,5.19,0,0,0-.08-1.06.65.65,0,0,0-.27-.45,1.32,1.32,0,0,0-.57-.1A1.45,1.45,0,0,0,82.23,123.2Z"/><path class="a24ee600-b63b-4a7e-9d61-ec2e5fa88b3c" d="M89.58,127.71a5.44,5.44,0,0,1-.57,0,1.84,1.84,0,0,1-1.09-.26,1.19,1.19,0,0,1-.44-.79,8.86,8.86,0,0,1-.1-1.58,8,8,0,0,1,.12-1.6,1.33,1.33,0,0,1,.47-.79,1.76,1.76,0,0,1,1-.24l.58,0a3,3,0,0,1,.48.1v.58a3.82,3.82,0,0,0-.9-.1,1.28,1.28,0,0,0-.7.15.91.91,0,0,0-.29.56,8.15,8.15,0,0,0-.07,1.3,8.27,8.27,0,0,0,.07,1.32.82.82,0,0,0,.3.56,1.28,1.28,0,0,0,.7.15,3.74,3.74,0,0,0,.92-.11v.59A3.65,3.65,0,0,1,89.58,127.71Z"/><path class="a24ee600-b63b-4a7e-9d61-ec2e5fa88b3c" d="M91.45,127.53a1,1,0,0,1-.46-.73,14.33,14.33,0,0,1,0-3.38,1,1,0,0,1,.46-.73,2.43,2.43,0,0,1,1.17-.21,2.36,2.36,0,0,1,1.16.21,1,1,0,0,1,.46.73,14.33,14.33,0,0,1,0,3.38,1,1,0,0,1-.46.73,2.36,2.36,0,0,1-1.16.21A2.43,2.43,0,0,1,91.45,127.53Zm1.87-.54a.72.72,0,0,0,.26-.52,18.52,18.52,0,0,0,0-2.72.72.72,0,0,0-.26-.52,1.31,1.31,0,0,0-.7-.14,1.33,1.33,0,0,0-.71.14.72.72,0,0,0-.26.53,18.25,18.25,0,0,0,0,2.7.72.72,0,0,0,.26.53,1.33,1.33,0,0,0,.71.14A1.31,1.31,0,0,0,93.32,127Z"/><path class="a24ee600-b63b-4a7e-9d61-ec2e5fa88b3c" d="M95.44,127.66v-7.43h.71v7.43Z"/><path class="a24ee600-b63b-4a7e-9d61-ec2e5fa88b3c" d="M100.57,125.34H98a6.52,6.52,0,0,0,.07,1.17.68.68,0,0,0,.32.48,1.85,1.85,0,0,0,.83.14,7.29,7.29,0,0,0,1.26-.11v.58a5.24,5.24,0,0,1-.63.1,7,7,0,0,1-.77,0,2.33,2.33,0,0,1-1.18-.23,1.17,1.17,0,0,1-.49-.77,7.94,7.94,0,0,1-.12-1.62,9,9,0,0,1,.1-1.61,1.17,1.17,0,0,1,.46-.78,2.14,2.14,0,0,1,1.18-.25,1.89,1.89,0,0,1,1.09.24,1.07,1.07,0,0,1,.41.75,10.56,10.56,0,0,1,.09,1.64Zm-2.28-2.14a.65.65,0,0,0-.28.46,7.67,7.67,0,0,0-.06,1.15h1.94v-.12a5.19,5.19,0,0,0-.08-1.06.68.68,0,0,0-.27-.45,1.32,1.32,0,0,0-.57-.1A1.45,1.45,0,0,0,98.29,123.2Z"/><path class="a24ee600-b63b-4a7e-9d61-ec2e5fa88b3c" d="M101.7,129.58V129c.52,0,.92,0,1.21,0a1.81,1.81,0,0,0,.86-.15.72.72,0,0,0,.35-.52,5.8,5.8,0,0,0,.09-1.21V127h0a1,1,0,0,1-.42.54,1.57,1.57,0,0,1-.77.16,1.55,1.55,0,0,1-.91-.22,1.24,1.24,0,0,1-.42-.77,8.21,8.21,0,0,1-.12-1.62,8.32,8.32,0,0,1,.12-1.63,1.3,1.3,0,0,1,.43-.77,1.55,1.55,0,0,1,.91-.22,1.74,1.74,0,0,1,.76.16,1,1,0,0,1,.46.63h0l0-.71h.63v4.36a7.5,7.5,0,0,1-.13,1.65,1.2,1.2,0,0,1-.52.82,2.3,2.3,0,0,1-1.23.26A11.66,11.66,0,0,1,101.7,129.58Zm2.11-2.65a.82.82,0,0,0,.29-.48,6.09,6.09,0,0,0,.11-1.35c0-.32,0-.58,0-.78a2.32,2.32,0,0,0-.07-.5.79.79,0,0,0-.89-.7,1.23,1.23,0,0,0-.67.13.74.74,0,0,0-.26.53,12.48,12.48,0,0,0,0,2.64.74.74,0,0,0,.26.53,1.23,1.23,0,0,0,.67.13A1,1,0,0,0,103.81,126.93Z"/><path class="a24ee600-b63b-4a7e-9d61-ec2e5fa88b3c" d="M106.16,121.06v-.83h.75v.83Zm0,6.6v-5.1h.71v5.1Z"/><path class="a24ee600-b63b-4a7e-9d61-ec2e5fa88b3c" d="M108.14,127.66v-7.43h.71v7.43Z"/><path class="a24ee600-b63b-4a7e-9d61-ec2e5fa88b3c" d="M110.5,127.53a1,1,0,0,1-.46-.73,14.33,14.33,0,0,1,0-3.38,1,1,0,0,1,.46-.73,2.43,2.43,0,0,1,1.17-.21,2.36,2.36,0,0,1,1.16.21,1,1,0,0,1,.46.73,14.33,14.33,0,0,1,0,3.38,1,1,0,0,1-.46.73,2.36,2.36,0,0,1-1.16.21A2.43,2.43,0,0,1,110.5,127.53Zm1.87-.54a.72.72,0,0,0,.26-.52,18.52,18.52,0,0,0,0-2.72.72.72,0,0,0-.26-.52,1.31,1.31,0,0,0-.7-.14,1.33,1.33,0,0,0-.71.14.72.72,0,0,0-.26.53,18.25,18.25,0,0,0,0,2.7.72.72,0,0,0,.26.53,1.33,1.33,0,0,0,.71.14A1.31,1.31,0,0,0,112.37,127Z"/><path class="a24ee600-b63b-4a7e-9d61-ec2e5fa88b3c" d="M114.49,122.56h.62l0,1h.06a1.27,1.27,0,0,1,.45-.81,1.52,1.52,0,0,1,.87-.22v.72a1.28,1.28,0,0,0-.81.22,1.18,1.18,0,0,0-.41.65,5.21,5.21,0,0,0-.11,1.17v2.42h-.71Z"/><path class="a24ee600-b63b-4a7e-9d61-ec2e5fa88b3c" d="M119.57,127.66v-4.49h-.74v-.61h.74v-1.48h.71v1.48h.88v.61h-.88v4.49Z"/><path class="a24ee600-b63b-4a7e-9d61-ec2e5fa88b3c" d="M122,127.42a1.65,1.65,0,0,1-.31-1.16,3.08,3.08,0,0,1,.11-.91.82.82,0,0,1,.39-.46,1.81,1.81,0,0,1,.78-.14l1.32,0v-.36a3.16,3.16,0,0,0-.09-.9.51.51,0,0,0-.31-.37,2.56,2.56,0,0,0-.74-.08,5,5,0,0,0-.6,0c-.24,0-.45,0-.61.07v-.58a6.88,6.88,0,0,1,1.41-.14,2.51,2.51,0,0,1,1,.17.94.94,0,0,1,.48.58,4.43,4.43,0,0,1,.13,1.2v3.23h-.63l0-.7h0a.93.93,0,0,1-.49.62,1.73,1.73,0,0,1-.78.16A1.36,1.36,0,0,1,122,127.42Zm2.52-6.4a.7.7,0,0,1-.31.46,1.34,1.34,0,0,1-.75.17,1.3,1.3,0,0,1-.74-.17.78.78,0,0,1-.31-.46,4.08,4.08,0,0,1-.06-.79h.5a4,4,0,0,0,0,.57.42.42,0,0,0,.16.28.64.64,0,0,0,.42.11.69.69,0,0,0,.43-.11.43.43,0,0,0,.17-.28,4,4,0,0,0,0-.57h.5A3.33,3.33,0,0,1,124.53,121Zm-.71,6a.64.64,0,0,0,.33-.37,3.12,3.12,0,0,0,.15-1.07v-.33h-1.14a1.43,1.43,0,0,0-.48.06.45.45,0,0,0-.22.26,2.29,2.29,0,0,0-.06.61,2.09,2.09,0,0,0,.06.58.41.41,0,0,0,.25.26,1.46,1.46,0,0,0,.54.08A1.82,1.82,0,0,0,123.82,127.05Z"/><path class="a24ee600-b63b-4a7e-9d61-ec2e5fa88b3c" d="M126.22,121.06v-.83H127v.83Zm0,6.6v-5.1H127v5.1Z"/><path class="a24ee600-b63b-4a7e-9d61-ec2e5fa88b3c" d="M130.51,127.52a1.3,1.3,0,0,1-.43-.77,11.13,11.13,0,0,1,0-3.26,1.24,1.24,0,0,1,.42-.78,1.44,1.44,0,0,1,.9-.23,1.57,1.57,0,0,1,.77.16,1,1,0,0,1,.43.54h.05v-3h.71v7.43h-.63l0-.7h-.05a1,1,0,0,1-.46.62,1.65,1.65,0,0,1-.77.16A1.51,1.51,0,0,1,130.51,127.52Zm1.74-.56a.77.77,0,0,0,.29-.46,4.34,4.34,0,0,0,.09-.59c0-.21,0-.51,0-.88a5.43,5.43,0,0,0-.09-1.2.89.89,0,0,0-.3-.55,1,1,0,0,0-.61-.16,1.19,1.19,0,0,0-.65.13.74.74,0,0,0-.27.53,10.21,10.21,0,0,0-.06,1.33,8.34,8.34,0,0,0,.07,1.33.74.74,0,0,0,.26.53,1.23,1.23,0,0,0,.67.13A1.08,1.08,0,0,0,132.25,127Z"/><path class="a24ee600-b63b-4a7e-9d61-ec2e5fa88b3c" d="M137.79,125.34h-2.62a6.52,6.52,0,0,0,.07,1.17.68.68,0,0,0,.32.48,1.85,1.85,0,0,0,.83.14,7.29,7.29,0,0,0,1.26-.11v.58a5.24,5.24,0,0,1-.63.1,7,7,0,0,1-.77,0,2.33,2.33,0,0,1-1.18-.23,1.17,1.17,0,0,1-.49-.77,7.94,7.94,0,0,1-.12-1.62,9,9,0,0,1,.1-1.61,1.13,1.13,0,0,1,.46-.78,2.14,2.14,0,0,1,1.18-.25,1.91,1.91,0,0,1,1.09.24,1.07,1.07,0,0,1,.41.75,10.56,10.56,0,0,1,.09,1.64Zm-2.28-2.14a.65.65,0,0,0-.28.46,7.67,7.67,0,0,0-.06,1.15h1.94v-.12a5.19,5.19,0,0,0-.08-1.06.68.68,0,0,0-.27-.45,1.32,1.32,0,0,0-.57-.1A1.42,1.42,0,0,0,135.51,123.2Z"/><path class="a24ee600-b63b-4a7e-9d61-ec2e5fa88b3c" d="M139.41,127.71l-.64-.09V127a8,8,0,0,0,1.32.11,1.24,1.24,0,0,0,.57-.1.52.52,0,0,0,.25-.28,1.59,1.59,0,0,0,.06-.49,3,3,0,0,0,0-.53.28.28,0,0,0-.14-.2.82.82,0,0,0-.32-.09l-1-.15a.83.83,0,0,1-.65-.37,1.91,1.91,0,0,1-.17-1,1.78,1.78,0,0,1,.19-.92,1,1,0,0,1,.52-.45,2.64,2.64,0,0,1,.87-.12,5.29,5.29,0,0,1,.66,0,4.15,4.15,0,0,1,.56.1v.58a5.58,5.58,0,0,0-.57-.08,4.82,4.82,0,0,0-.65,0,1.09,1.09,0,0,0-.68.17.84.84,0,0,0-.21.67,1.88,1.88,0,0,0,0,.48.32.32,0,0,0,.13.22.88.88,0,0,0,.32.09l1,.13a1.09,1.09,0,0,1,.5.17.7.7,0,0,1,.28.41,2.93,2.93,0,0,1,.09.83,1.5,1.5,0,0,1-.36,1.16,1.7,1.7,0,0,1-1.17.33Z"/><path class="a24ee600-b63b-4a7e-9d61-ec2e5fa88b3c" d="M142.67,122.56h.62l0,.71h.06a1,1,0,0,1,.45-.63,1.79,1.79,0,0,1,.77-.16,1.54,1.54,0,0,1,.9.22,1.25,1.25,0,0,1,.43.77,7.48,7.48,0,0,1,.13,1.63,8.18,8.18,0,0,1-.12,1.63,1.25,1.25,0,0,1-.43.78,1.53,1.53,0,0,1-.9.23,1.51,1.51,0,0,1-.76-.16,1,1,0,0,1-.43-.54h-.05v2.55h-.71ZM145,127a.78.78,0,0,0,.27-.53,12.67,12.67,0,0,0,0-2.66.78.78,0,0,0-.27-.53,1.21,1.21,0,0,0-.66-.13,1,1,0,0,0-.59.15.86.86,0,0,0-.3.5,2.79,2.79,0,0,0-.08.55c0,.21,0,.47,0,.79a5.74,5.74,0,0,0,.08,1.25,1,1,0,0,0,.3.57.89.89,0,0,0,.6.17A1.21,1.21,0,0,0,145,127Z"/><path class="a24ee600-b63b-4a7e-9d61-ec2e5fa88b3c" d="M147.17,122.56h.62l0,1h.06a1.27,1.27,0,0,1,.45-.81,1.52,1.52,0,0,1,.87-.22v.72a1.28,1.28,0,0,0-.81.22,1.18,1.18,0,0,0-.41.65,5.21,5.21,0,0,0-.11,1.17v2.42h-.71Z"/><path class="a24ee600-b63b-4a7e-9d61-ec2e5fa88b3c" d="M153.19,125.34h-2.62a6.52,6.52,0,0,0,.07,1.17.68.68,0,0,0,.32.48,1.85,1.85,0,0,0,.83.14,7.29,7.29,0,0,0,1.26-.11v.58a5.24,5.24,0,0,1-.63.1,7,7,0,0,1-.77,0,2.33,2.33,0,0,1-1.18-.23,1.17,1.17,0,0,1-.49-.77,7.94,7.94,0,0,1-.12-1.62,9,9,0,0,1,.1-1.61,1.13,1.13,0,0,1,.46-.78,2.14,2.14,0,0,1,1.18-.25,1.91,1.91,0,0,1,1.09.24,1.07,1.07,0,0,1,.41.75,10.56,10.56,0,0,1,.09,1.64Zm-2.28-2.14a.65.65,0,0,0-.28.46,7.67,7.67,0,0,0-.06,1.15h1.94v-.12a5.19,5.19,0,0,0-.08-1.06.68.68,0,0,0-.27-.45,1.32,1.32,0,0,0-.57-.1A1.42,1.42,0,0,0,150.91,123.2Z"/><path class="a24ee600-b63b-4a7e-9d61-ec2e5fa88b3c" d="M158.82,127h0a1.11,1.11,0,0,1-.42.59,1.89,1.89,0,0,1-1.69,0,1,1,0,0,1-.38-.61,5.6,5.6,0,0,1-.09-1.15v-3.22h.71v3a6.21,6.21,0,0,0,.06,1,.6.6,0,0,0,.25.41,1.2,1.2,0,0,0,.59.11.86.86,0,0,0,.66-.22,1,1,0,0,0,.26-.58,7.47,7.47,0,0,0,.06-1.09v-2.65h.71v5.1h-.63Z"/><path class="a24ee600-b63b-4a7e-9d61-ec2e5fa88b3c" d="M163.34,124.68a5.14,5.14,0,0,0-.07-1,.6.6,0,0,0-.24-.42,1.25,1.25,0,0,0-.59-.1.87.87,0,0,0-.67.22,1,1,0,0,0-.26.59,7.6,7.6,0,0,0,0,1.08v2.65h-.71v-5.1h.62l0,.71h.06a1.15,1.15,0,0,1,.41-.59,1.55,1.55,0,0,1,.85-.2,1.49,1.49,0,0,1,.84.2.94.94,0,0,1,.38.61,4.81,4.81,0,0,1,.1,1.15v3.22h-.71Z"/><path class="a24ee600-b63b-4a7e-9d61-ec2e5fa88b3c" d="M165.3,127.42a1.65,1.65,0,0,1-.31-1.16,3.08,3.08,0,0,1,.11-.91.82.82,0,0,1,.39-.46,1.81,1.81,0,0,1,.78-.14l1.32,0v-.36a3.16,3.16,0,0,0-.09-.9.51.51,0,0,0-.31-.37,2.56,2.56,0,0,0-.74-.08,5,5,0,0,0-.6,0c-.24,0-.45,0-.61.07v-.58a6.88,6.88,0,0,1,1.41-.14,2.51,2.51,0,0,1,1,.17.94.94,0,0,1,.48.58,4.43,4.43,0,0,1,.13,1.2v3.23h-.63l0-.7h0a.93.93,0,0,1-.49.62,1.73,1.73,0,0,1-.78.16A1.36,1.36,0,0,1,165.3,127.42Zm1.81-.37a.64.64,0,0,0,.33-.37,3.12,3.12,0,0,0,.15-1.07v-.33h-1.14a1.4,1.4,0,0,0-.48.06.45.45,0,0,0-.22.26,2.29,2.29,0,0,0-.06.61,2.09,2.09,0,0,0,.06.58.41.41,0,0,0,.25.26,1.46,1.46,0,0,0,.54.08A1.82,1.82,0,0,0,167.11,127.05Z"/><path class="a24ee600-b63b-4a7e-9d61-ec2e5fa88b3c" d="M53.78,139.52a1.25,1.25,0,0,1-.43-.77,8.1,8.1,0,0,1-.13-1.63,8.32,8.32,0,0,1,.12-1.63,1.25,1.25,0,0,1,.43-.78,1.41,1.41,0,0,1,.89-.23,1.55,1.55,0,0,1,.77.16,1,1,0,0,1,.43.54h0v-3h.71v7.43H56l0-.7H55.9a1,1,0,0,1-.45.62,1.67,1.67,0,0,1-.78.16A1.48,1.48,0,0,1,53.78,139.52Zm1.73-.56a.73.73,0,0,0,.29-.46,2.52,2.52,0,0,0,.09-.59c0-.21,0-.51,0-.88a5.43,5.43,0,0,0-.09-1.2.88.88,0,0,0-.29-.55,1,1,0,0,0-.62-.16,1.22,1.22,0,0,0-.65.13.74.74,0,0,0-.26.53,12.67,12.67,0,0,0,0,2.66.78.78,0,0,0,.27.53,1.21,1.21,0,0,0,.66.13A1.06,1.06,0,0,0,55.51,139Z"/><path class="a24ee600-b63b-4a7e-9d61-ec2e5fa88b3c" d="M57.86,133.06v-.83h.75v.83Zm0,6.6v-5.1h.71v5.1Z"/><path class="a24ee600-b63b-4a7e-9d61-ec2e5fa88b3c" d="M62.43,136.68a6.29,6.29,0,0,0-.06-1,.61.61,0,0,0-.25-.42,1.22,1.22,0,0,0-.59-.1.89.89,0,0,0-.67.22,1.07,1.07,0,0,0-.26.59,9.49,9.49,0,0,0-.05,1.08v2.65h-.71v-5.1h.62l0,.71h.06a1.11,1.11,0,0,1,.42-.59,1.53,1.53,0,0,1,.84-.2,1.5,1.5,0,0,1,.85.2.94.94,0,0,1,.38.61,5.53,5.53,0,0,1,.09,1.15v3.22h-.71Z"/><path class="a24ee600-b63b-4a7e-9d61-ec2e5fa88b3c" d="M64.68,139.66v-4.49h-.74v-.61h.74v-1.48h.71v1.48h.88v.61h-.88v4.49Z"/><path class="a24ee600-b63b-4a7e-9d61-ec2e5fa88b3c" d="M67.1,134.56h.62l0,.95h.06a1.28,1.28,0,0,1,.46-.81,1.48,1.48,0,0,1,.86-.22v.72a1.32,1.32,0,0,0-.81.22,1.23,1.23,0,0,0-.4.65,4.62,4.62,0,0,0-.12,1.17v2.42H67.1Z"/><path class="a24ee600-b63b-4a7e-9d61-ec2e5fa88b3c" d="M73.12,137.34H70.5a6.3,6.3,0,0,0,.08,1.17.68.68,0,0,0,.32.48,1.8,1.8,0,0,0,.82.14A7.29,7.29,0,0,0,73,139v.58a4.64,4.64,0,0,1-.63.1,6.74,6.74,0,0,1-.77,0,2.36,2.36,0,0,1-1.18-.23,1.21,1.21,0,0,1-.49-.77,7.94,7.94,0,0,1-.12-1.62,10,10,0,0,1,.1-1.61,1.18,1.18,0,0,1,.47-.78,2.07,2.07,0,0,1,1.17-.25,1.89,1.89,0,0,1,1.09.24,1.12,1.12,0,0,1,.42.75,10.87,10.87,0,0,1,.08,1.64Zm-2.28-2.14a.61.61,0,0,0-.27.46,7.34,7.34,0,0,0-.07,1.15h1.94v-.12a4.55,4.55,0,0,0-.08-1.06.68.68,0,0,0-.26-.45,1.37,1.37,0,0,0-.58-.1A1.45,1.45,0,0,0,70.84,135.2Z"/><path class="a24ee600-b63b-4a7e-9d61-ec2e5fa88b3c" d="M76.15,134.56h.62l0,.71h.06a1,1,0,0,1,.46-.63,1.74,1.74,0,0,1,.76-.16,1.49,1.49,0,0,1,.9.22,1.21,1.21,0,0,1,.44.77,8.32,8.32,0,0,1,.12,1.63,8.18,8.18,0,0,1-.12,1.63,1.2,1.2,0,0,1-.43.78,1.49,1.49,0,0,1-.9.23,1.56,1.56,0,0,1-.76-.16,1,1,0,0,1-.43-.54h0v2.55h-.71ZM78.51,139a.74.74,0,0,0,.26-.53,12.67,12.67,0,0,0,0-2.66.74.74,0,0,0-.26-.53,1.23,1.23,0,0,0-.67-.13,1,1,0,0,0-.59.15.86.86,0,0,0-.3.5,2.84,2.84,0,0,0-.07.55c0,.21,0,.47,0,.79a6.48,6.48,0,0,0,.08,1.25,1,1,0,0,0,.3.57.89.89,0,0,0,.6.17A1.23,1.23,0,0,0,78.51,139Z"/><path class="a24ee600-b63b-4a7e-9d61-ec2e5fa88b3c" d="M80.67,139.42a1.7,1.7,0,0,1-.31-1.16,2.74,2.74,0,0,1,.12-.91.82.82,0,0,1,.39-.46,1.76,1.76,0,0,1,.77-.14l1.32.05v-.36a3.25,3.25,0,0,0-.08-.9.54.54,0,0,0-.31-.37,2.59,2.59,0,0,0-.75-.08,4.83,4.83,0,0,0-.59,0c-.24,0-.45,0-.62.07v-.58a7,7,0,0,1,1.41-.14,2.53,2.53,0,0,1,1,.17.9.9,0,0,1,.47.58,4.06,4.06,0,0,1,.13,1.2v3.23H83l0-.7h0a1,1,0,0,1-.48.62,1.77,1.77,0,0,1-.79.16A1.39,1.39,0,0,1,80.67,139.42Zm1.81-.37a.59.59,0,0,0,.33-.37,3.12,3.12,0,0,0,.15-1.07v-.33H81.82a1.37,1.37,0,0,0-.47.06.41.41,0,0,0-.22.26,2.21,2.21,0,0,0-.07.61,2,2,0,0,0,.07.58.37.37,0,0,0,.24.26,1.46,1.46,0,0,0,.54.08A1.73,1.73,0,0,0,82.48,139.05Z"/><path class="a24ee600-b63b-4a7e-9d61-ec2e5fa88b3c" d="M85.41,139.71l-.64-.09V139a8.2,8.2,0,0,0,1.32.11,1.19,1.19,0,0,0,.57-.1.49.49,0,0,0,.25-.28,1.59,1.59,0,0,0,.06-.49,2.25,2.25,0,0,0,0-.53.27.27,0,0,0-.13-.2.83.83,0,0,0-.33-.09l-1-.15a.85.85,0,0,1-.65-.37,2,2,0,0,1-.17-1,1.89,1.89,0,0,1,.19-.92,1,1,0,0,1,.53-.45,2.58,2.58,0,0,1,.86-.12,5.07,5.07,0,0,1,.66,0,3.87,3.87,0,0,1,.56.1v.58a5.35,5.35,0,0,0-.56-.08,4.87,4.87,0,0,0-.66,0,1.11,1.11,0,0,0-.68.17.84.84,0,0,0-.21.67,2.51,2.51,0,0,0,0,.48.37.37,0,0,0,.14.22.82.82,0,0,0,.31.09l1,.13a1.09,1.09,0,0,1,.51.17.74.74,0,0,1,.27.41,2.93,2.93,0,0,1,.09.83,1.5,1.5,0,0,1-.36,1.16,1.7,1.7,0,0,1-1.17.33Z"/><path class="a24ee600-b63b-4a7e-9d61-ec2e5fa88b3c" d="M88.65,133.06v-.83h.75v.83Zm0,6.6v-5.1h.71v5.1Z"/><path class="a24ee600-b63b-4a7e-9d61-ec2e5fa88b3c" d="M93.23,139h0a1.1,1.1,0,0,1-.41.59,1.55,1.55,0,0,1-.85.2,1.49,1.49,0,0,1-.84-.2.94.94,0,0,1-.38-.61,5.47,5.47,0,0,1-.1-1.15v-3.22h.71v3a5.94,5.94,0,0,0,.07,1,.56.56,0,0,0,.24.41,1.23,1.23,0,0,0,.59.11.86.86,0,0,0,.66-.22,1,1,0,0,0,.27-.58,7.76,7.76,0,0,0,0-1.09v-2.65h.71v5.1h-.63Z"/><path class="a24ee600-b63b-4a7e-9d61-ec2e5fa88b3c" d="M97.75,136.68a6.29,6.29,0,0,0-.06-1,.61.61,0,0,0-.25-.42,1.22,1.22,0,0,0-.59-.1.89.89,0,0,0-.67.22,1.07,1.07,0,0,0-.26.59,9.49,9.49,0,0,0,0,1.08v2.65h-.71v-5.1h.62l0,.71h.06a1.11,1.11,0,0,1,.42-.59,1.89,1.89,0,0,1,1.69,0,.94.94,0,0,1,.38.61,5.53,5.53,0,0,1,.09,1.15v3.22h-.71Z"/><path class="a24ee600-b63b-4a7e-9d61-ec2e5fa88b3c" d="M99.67,133.06v-.83h.75v.83Zm0,6.6v-5.1h.71v5.1Z"/><path class="a24ee600-b63b-4a7e-9d61-ec2e5fa88b3c" d="M101.65,139.66v-7.43h.71v7.43Z"/><path class="a24ee600-b63b-4a7e-9d61-ec2e5fa88b3c" d="M106.78,137.34h-2.62a6.3,6.3,0,0,0,.08,1.17.68.68,0,0,0,.32.48,1.8,1.8,0,0,0,.82.14,7.29,7.29,0,0,0,1.26-.11v.58a4.64,4.64,0,0,1-.63.1,6.74,6.74,0,0,1-.77,0,2.36,2.36,0,0,1-1.18-.23,1.21,1.21,0,0,1-.49-.77,7.94,7.94,0,0,1-.12-1.62,10,10,0,0,1,.1-1.61,1.18,1.18,0,0,1,.47-.78,2.07,2.07,0,0,1,1.17-.25,1.89,1.89,0,0,1,1.09.24,1.12,1.12,0,0,1,.42.75,12.42,12.42,0,0,1,.08,1.64Zm-2.28-2.14a.61.61,0,0,0-.27.46,7.34,7.34,0,0,0-.07,1.15h1.94v-.12a4.55,4.55,0,0,0-.08-1.06.68.68,0,0,0-.26-.45,1.41,1.41,0,0,0-.58-.1A1.45,1.45,0,0,0,104.5,135.2Z"/><path class="a24ee600-b63b-4a7e-9d61-ec2e5fa88b3c" d="M110.12,139.66v-4.49h-.74v-.61h.74v-1.48h.71v1.48h.88v.61h-.88v4.49Z"/><path class="a24ee600-b63b-4a7e-9d61-ec2e5fa88b3c" d="M112.56,139.42a1.7,1.7,0,0,1-.31-1.16,2.74,2.74,0,0,1,.12-.91.78.78,0,0,1,.39-.46,1.76,1.76,0,0,1,.77-.14l1.32.05v-.36a3.7,3.7,0,0,0-.08-.9.54.54,0,0,0-.31-.37,2.59,2.59,0,0,0-.75-.08,4.83,4.83,0,0,0-.59,0c-.25,0-.45,0-.62.07v-.58a7,7,0,0,1,1.41-.14,2.53,2.53,0,0,1,1,.17.9.9,0,0,1,.47.58,4.06,4.06,0,0,1,.13,1.2v3.23h-.63l0-.7h0a1,1,0,0,1-.48.62,1.8,1.8,0,0,1-.79.16A1.39,1.39,0,0,1,112.56,139.42Zm1.81-.37a.59.59,0,0,0,.33-.37,3.12,3.12,0,0,0,.15-1.07v-.33h-1.14a1.37,1.37,0,0,0-.47.06.39.39,0,0,0-.22.26,1.88,1.88,0,0,0-.07.61,1.71,1.71,0,0,0,.07.58.37.37,0,0,0,.24.26,1.46,1.46,0,0,0,.54.08A1.73,1.73,0,0,0,114.37,139.05Z"/><path class="a24ee600-b63b-4a7e-9d61-ec2e5fa88b3c" d="M116.79,139.66v-7.43h.71v7.43Z"/><path class="a24ee600-b63b-4a7e-9d61-ec2e5fa88b3c" d="M121.92,137.34H119.3a6.3,6.3,0,0,0,.08,1.17.66.66,0,0,0,.32.48,1.8,1.8,0,0,0,.82.14,7.29,7.29,0,0,0,1.26-.11v.58a4.64,4.64,0,0,1-.63.1,6.74,6.74,0,0,1-.77,0,2.36,2.36,0,0,1-1.18-.23,1.21,1.21,0,0,1-.49-.77,7.94,7.94,0,0,1-.12-1.62,10,10,0,0,1,.1-1.61,1.14,1.14,0,0,1,.47-.78,2.07,2.07,0,0,1,1.17-.25,1.89,1.89,0,0,1,1.09.24,1.12,1.12,0,0,1,.42.75,12.42,12.42,0,0,1,.08,1.64Zm-2.28-2.14a.61.61,0,0,0-.27.46,6.27,6.27,0,0,0-.07,1.15h1.94v-.12a4.55,4.55,0,0,0-.08-1.06.68.68,0,0,0-.26-.45,1.41,1.41,0,0,0-.58-.1A1.45,1.45,0,0,0,119.64,135.2Z"/><path class="a24ee600-b63b-4a7e-9d61-ec2e5fa88b3c" d="M123,139.66v-.9h.82v.9Z"/><path class="a24ee600-b63b-4a7e-9d61-ec2e5fa88b3c" d="M128.78,136.64V136h1.75v3.55a7.05,7.05,0,0,1-.8.13,6.31,6.31,0,0,1-.81.06,2.68,2.68,0,0,1-1.35-.27,1.48,1.48,0,0,1-.61-1,11.15,11.15,0,0,1-.17-2.26A11,11,0,0,1,127,134a1.58,1.58,0,0,1,.61-1,2.69,2.69,0,0,1,1.36-.27,6.67,6.67,0,0,1,.86.06,5.65,5.65,0,0,1,.72.13v.62c-.18,0-.4-.08-.65-.11s-.46,0-.62,0a3,3,0,0,0-1.13.15,1,1,0,0,0-.44.72,11.11,11.11,0,0,0-.12,2,13.48,13.48,0,0,0,.09,1.87,1.2,1.2,0,0,0,.37.79,1.58,1.58,0,0,0,.92.21,4.16,4.16,0,0,0,.87-.08v-2.37Z"/><path class="a24ee600-b63b-4a7e-9d61-ec2e5fa88b3c" d="M131.74,139.42a1.7,1.7,0,0,1-.31-1.16,2.74,2.74,0,0,1,.12-.91.75.75,0,0,1,.39-.46,1.76,1.76,0,0,1,.77-.14l1.32.05v-.36a3.7,3.7,0,0,0-.08-.9.54.54,0,0,0-.31-.37,2.59,2.59,0,0,0-.75-.08,4.83,4.83,0,0,0-.59,0c-.25,0-.45,0-.62.07v-.58a7,7,0,0,1,1.41-.14,2.53,2.53,0,0,1,1,.17.9.9,0,0,1,.47.58,4.06,4.06,0,0,1,.13,1.2v3.23h-.63l0-.7h0a1,1,0,0,1-.48.62,1.8,1.8,0,0,1-.79.16A1.39,1.39,0,0,1,131.74,139.42Zm.32-5.81v-.06l.77-1.32h.78l.76,1.32v.06h-.5l-.65-1-.66,1Zm1.49,5.44a.59.59,0,0,0,.33-.37,3.12,3.12,0,0,0,.15-1.07v-.33h-1.14a1.37,1.37,0,0,0-.47.06.39.39,0,0,0-.22.26,1.88,1.88,0,0,0-.07.61,1.71,1.71,0,0,0,.07.58.37.37,0,0,0,.24.26,1.46,1.46,0,0,0,.54.08A1.73,1.73,0,0,0,133.55,139.05Z"/><path class="a24ee600-b63b-4a7e-9d61-ec2e5fa88b3c" d="M138.56,136.68a6.29,6.29,0,0,0-.06-1,.64.64,0,0,0-.25-.42,1.22,1.22,0,0,0-.59-.1.89.89,0,0,0-.67.22,1.07,1.07,0,0,0-.26.59,9.49,9.49,0,0,0,0,1.08v2.65H136v-5.1h.62l0,.71h.06a1.11,1.11,0,0,1,.42-.59,1.89,1.89,0,0,1,1.69,0,1,1,0,0,1,.38.61,5.53,5.53,0,0,1,.09,1.15v3.22h-.71Z"/><path class="a24ee600-b63b-4a7e-9d61-ec2e5fa88b3c" d="M140.9,139.52a1.2,1.2,0,0,1-.43-.77,7.42,7.42,0,0,1-.13-1.63,8.32,8.32,0,0,1,.12-1.63,1.2,1.2,0,0,1,.43-.78,1.41,1.41,0,0,1,.89-.23,1.55,1.55,0,0,1,.77.16,1,1,0,0,1,.43.54H143v-3h.71v7.43h-.63l0-.7h0a1,1,0,0,1-.45.62,1.67,1.67,0,0,1-.78.16A1.48,1.48,0,0,1,140.9,139.52Zm1.73-.56a.73.73,0,0,0,.29-.46,2.52,2.52,0,0,0,.09-.59c0-.21,0-.51,0-.88a5.43,5.43,0,0,0-.09-1.2.88.88,0,0,0-.29-.55,1,1,0,0,0-.62-.16,1.22,1.22,0,0,0-.65.13.74.74,0,0,0-.26.53,8.34,8.34,0,0,0-.07,1.33,9.76,9.76,0,0,0,.07,1.33.78.78,0,0,0,.27.53,1.21,1.21,0,0,0,.66.13A1.06,1.06,0,0,0,142.63,139Z"/><path class="a24ee600-b63b-4a7e-9d61-ec2e5fa88b3c" d="M148.17,137.34h-2.62a6.3,6.3,0,0,0,.08,1.17.66.66,0,0,0,.32.48,1.8,1.8,0,0,0,.82.14A7.29,7.29,0,0,0,148,139v.58a4.64,4.64,0,0,1-.63.1,6.74,6.74,0,0,1-.77,0,2.36,2.36,0,0,1-1.18-.23,1.21,1.21,0,0,1-.49-.77,7.94,7.94,0,0,1-.12-1.62,10,10,0,0,1,.1-1.61,1.14,1.14,0,0,1,.47-.78,2.07,2.07,0,0,1,1.17-.25,1.89,1.89,0,0,1,1.09.24,1.12,1.12,0,0,1,.42.75,12.42,12.42,0,0,1,.08,1.64Zm-2.28-2.14a.61.61,0,0,0-.27.46,6.27,6.27,0,0,0-.07,1.15h1.94v-.12a4.55,4.55,0,0,0-.08-1.06.68.68,0,0,0-.26-.45,1.41,1.41,0,0,0-.58-.1A1.45,1.45,0,0,0,145.89,135.2Z"/><path class="a24ee600-b63b-4a7e-9d61-ec2e5fa88b3c" d="M149.79,139.71l-.64-.09V139a8.2,8.2,0,0,0,1.32.11,1.19,1.19,0,0,0,.57-.1.49.49,0,0,0,.25-.28,1.59,1.59,0,0,0,.06-.49,2.25,2.25,0,0,0,0-.53.27.27,0,0,0-.13-.2.89.89,0,0,0-.33-.09l-1-.15a.85.85,0,0,1-.65-.37,2,2,0,0,1-.17-1,1.89,1.89,0,0,1,.19-.92,1,1,0,0,1,.53-.45,2.58,2.58,0,0,1,.86-.12,5.07,5.07,0,0,1,.66,0,3.87,3.87,0,0,1,.56.1v.58a5.35,5.35,0,0,0-.56-.08,5,5,0,0,0-.66,0,1.11,1.11,0,0,0-.68.17.84.84,0,0,0-.21.67,2.51,2.51,0,0,0,0,.48.33.33,0,0,0,.14.22.82.82,0,0,0,.31.09l1,.13a1.13,1.13,0,0,1,.51.17.74.74,0,0,1,.27.41,2.93,2.93,0,0,1,.09.83,1.5,1.5,0,0,1-.36,1.16,1.7,1.7,0,0,1-1.17.33Zm.68,2a.75.75,0,0,0,.09-.45v-.16h-.33v-.86h.8v.78a2.62,2.62,0,0,1-.07.72.48.48,0,0,1-.27.32,1.49,1.49,0,0,1-.64.1v-.34A.57.57,0,0,0,150.47,141.75Z"/><path class="a24ee600-b63b-4a7e-9d61-ec2e5fa88b3c" d="M153.36,139.66v-4.49h-.74v-.61h.74v-1.48h.71v1.48H155v.61h-.88v4.49Z"/><path class="a24ee600-b63b-4a7e-9d61-ec2e5fa88b3c" d="M159,137.34h-2.62a6.3,6.3,0,0,0,.08,1.17.66.66,0,0,0,.32.48,1.8,1.8,0,0,0,.82.14,7.29,7.29,0,0,0,1.26-.11v.58a4.64,4.64,0,0,1-.63.1,6.74,6.74,0,0,1-.77,0,2.36,2.36,0,0,1-1.18-.23,1.21,1.21,0,0,1-.49-.77,7.94,7.94,0,0,1-.12-1.62,10,10,0,0,1,.1-1.61,1.14,1.14,0,0,1,.47-.78,2.07,2.07,0,0,1,1.17-.25,1.89,1.89,0,0,1,1.09.24,1.12,1.12,0,0,1,.42.75,12.42,12.42,0,0,1,.08,1.64Zm-2.28-2.14a.61.61,0,0,0-.27.46,6.27,6.27,0,0,0-.07,1.15h1.94v-.12a4.55,4.55,0,0,0-.08-1.06.68.68,0,0,0-.26-.45,1.41,1.41,0,0,0-.58-.1A1.45,1.45,0,0,0,156.67,135.2Z"/><path class="a24ee600-b63b-4a7e-9d61-ec2e5fa88b3c" d="M160,137.13v-.65H162v.65Z"/><path class="a24ee600-b63b-4a7e-9d61-ec2e5fa88b3c" d="M163.46,139.66v-4.49h-.74v-.61h.74v-1.48h.71v1.48h.88v.61h-.88v4.49Z"/><path class="a24ee600-b63b-4a7e-9d61-ec2e5fa88b3c" d="M169.05,137.34h-2.62a6.3,6.3,0,0,0,.08,1.17.66.66,0,0,0,.32.48,1.8,1.8,0,0,0,.82.14,7.29,7.29,0,0,0,1.26-.11v.58a4.64,4.64,0,0,1-.63.1,6.74,6.74,0,0,1-.77,0,2.36,2.36,0,0,1-1.18-.23,1.21,1.21,0,0,1-.49-.77,7.94,7.94,0,0,1-.12-1.62,10,10,0,0,1,.1-1.61,1.14,1.14,0,0,1,.47-.78,2.07,2.07,0,0,1,1.17-.25,1.89,1.89,0,0,1,1.09.24,1.12,1.12,0,0,1,.42.75,12.42,12.42,0,0,1,.08,1.64Zm-2.28-2.14a.61.61,0,0,0-.27.46,6.27,6.27,0,0,0-.07,1.15h1.94v-.12a4.55,4.55,0,0,0-.08-1.06.68.68,0,0,0-.26-.45,1.41,1.41,0,0,0-.58-.1A1.45,1.45,0,0,0,166.77,135.2Z"/><path class="a24ee600-b63b-4a7e-9d61-ec2e5fa88b3c" d="M58.36,151.66v-7.43h.71v7.43Z"/><path class="a24ee600-b63b-4a7e-9d61-ec2e5fa88b3c" d="M60.39,151.42a1.7,1.7,0,0,1-.31-1.16,2.74,2.74,0,0,1,.12-.91.82.82,0,0,1,.39-.46,1.76,1.76,0,0,1,.77-.14l1.32.05v-.36a3.25,3.25,0,0,0-.08-.9.54.54,0,0,0-.31-.37,2.59,2.59,0,0,0-.75-.08,4.83,4.83,0,0,0-.59,0c-.24,0-.45,0-.62.07v-.58a7,7,0,0,1,1.41-.14,2.53,2.53,0,0,1,1,.17.9.9,0,0,1,.47.58,4.06,4.06,0,0,1,.13,1.2v3.23h-.63l0-.7h0a1,1,0,0,1-.48.62,1.77,1.77,0,0,1-.79.16A1.39,1.39,0,0,1,60.39,151.42Zm1.81-.37a.59.59,0,0,0,.33-.37,3.12,3.12,0,0,0,.15-1.07v-.33H61.54a1.37,1.37,0,0,0-.47.06.41.41,0,0,0-.22.26,2.21,2.21,0,0,0-.07.61,2,2,0,0,0,.07.58.37.37,0,0,0,.24.26,1.46,1.46,0,0,0,.54.08A1.73,1.73,0,0,0,62.2,151.05Z"/><path class="a24ee600-b63b-4a7e-9d61-ec2e5fa88b3c" d="M66.66,151.42a1.7,1.7,0,0,1-.31-1.16,2.74,2.74,0,0,1,.12-.91.82.82,0,0,1,.39-.46,1.76,1.76,0,0,1,.77-.14l1.32.05v-.36a3.25,3.25,0,0,0-.08-.9.54.54,0,0,0-.31-.37,2.59,2.59,0,0,0-.75-.08,4.83,4.83,0,0,0-.59,0c-.24,0-.45,0-.62.07v-.58a7,7,0,0,1,1.41-.14,2.53,2.53,0,0,1,1,.17.9.9,0,0,1,.47.58,4.06,4.06,0,0,1,.13,1.2v3.23H69l0-.7h0a1,1,0,0,1-.48.62,1.77,1.77,0,0,1-.79.16A1.39,1.39,0,0,1,66.66,151.42Zm1.81-.37a.59.59,0,0,0,.33-.37,3.12,3.12,0,0,0,.15-1.07v-.33H67.81a1.37,1.37,0,0,0-.47.06.41.41,0,0,0-.22.26,2.21,2.21,0,0,0-.07.61,2,2,0,0,0,.07.58.37.37,0,0,0,.24.26,1.46,1.46,0,0,0,.54.08A1.73,1.73,0,0,0,68.47,151.05Z"/><path class="a24ee600-b63b-4a7e-9d61-ec2e5fa88b3c" d="M73,151.71l-.58,0a1.83,1.83,0,0,1-1.08-.26,1.25,1.25,0,0,1-.45-.79,9.93,9.93,0,0,1-.1-1.58,7.91,7.91,0,0,1,.13-1.6,1.32,1.32,0,0,1,.46-.79,1.79,1.79,0,0,1,1-.24l.58,0a3,3,0,0,1,.48.1v.58a3.71,3.71,0,0,0-.9-.1,1.22,1.22,0,0,0-.69.15.91.91,0,0,0-.29.56,7.87,7.87,0,0,0-.08,1.3,8,8,0,0,0,.08,1.32.85.85,0,0,0,.29.56,1.28,1.28,0,0,0,.7.15,3.68,3.68,0,0,0,.92-.11v.59A3.47,3.47,0,0,1,73,151.71Z"/><path class="a24ee600-b63b-4a7e-9d61-ec2e5fa88b3c" d="M77.67,149.34H75.05a6.3,6.3,0,0,0,.08,1.17.68.68,0,0,0,.32.48,1.8,1.8,0,0,0,.82.14,7.29,7.29,0,0,0,1.26-.11v.58a4.64,4.64,0,0,1-.63.1,6.74,6.74,0,0,1-.77,0,2.36,2.36,0,0,1-1.18-.23,1.21,1.21,0,0,1-.49-.77,7.94,7.94,0,0,1-.12-1.62,10,10,0,0,1,.1-1.61,1.18,1.18,0,0,1,.47-.78,2.07,2.07,0,0,1,1.17-.25,1.89,1.89,0,0,1,1.09.24,1.12,1.12,0,0,1,.42.75,10.87,10.87,0,0,1,.08,1.64Zm-2.28-2.14a.61.61,0,0,0-.27.46,7.34,7.34,0,0,0-.07,1.15H77v-.12a4.55,4.55,0,0,0-.08-1.06.68.68,0,0,0-.26-.45,1.37,1.37,0,0,0-.58-.1A1.45,1.45,0,0,0,75.39,147.2Z"/><path class="a24ee600-b63b-4a7e-9d61-ec2e5fa88b3c" d="M82,149.34H79.38a6.3,6.3,0,0,0,.08,1.17.66.66,0,0,0,.32.48,1.8,1.8,0,0,0,.82.14,7.29,7.29,0,0,0,1.26-.11v.58a4.64,4.64,0,0,1-.63.1,6.74,6.74,0,0,1-.77,0,2.36,2.36,0,0,1-1.18-.23,1.21,1.21,0,0,1-.49-.77,7.94,7.94,0,0,1-.12-1.62,10,10,0,0,1,.1-1.61,1.14,1.14,0,0,1,.47-.78,2.07,2.07,0,0,1,1.17-.25,1.89,1.89,0,0,1,1.09.24,1.12,1.12,0,0,1,.42.75,10.87,10.87,0,0,1,.08,1.64Zm-2.28-2.14a.61.61,0,0,0-.27.46,7.34,7.34,0,0,0-.07,1.15h1.94v-.12a4.55,4.55,0,0,0-.08-1.06.68.68,0,0,0-.26-.45,1.37,1.37,0,0,0-.58-.1A1.45,1.45,0,0,0,79.72,147.2Z"/><path class="a24ee600-b63b-4a7e-9d61-ec2e5fa88b3c" d="M83.18,151.42a1.7,1.7,0,0,1-.31-1.16,2.74,2.74,0,0,1,.12-.91.82.82,0,0,1,.39-.46,1.76,1.76,0,0,1,.77-.14l1.32.05v-.36a3.25,3.25,0,0,0-.08-.9.54.54,0,0,0-.31-.37,2.59,2.59,0,0,0-.75-.08,4.83,4.83,0,0,0-.59,0c-.25,0-.45,0-.62.07v-.58a7,7,0,0,1,1.41-.14,2.53,2.53,0,0,1,1,.17.9.9,0,0,1,.47.58,4.06,4.06,0,0,1,.13,1.2v3.23h-.63l0-.7h-.05a1,1,0,0,1-.48.62,1.77,1.77,0,0,1-.79.16A1.39,1.39,0,0,1,83.18,151.42Zm1.81-.37a.59.59,0,0,0,.33-.37,3.12,3.12,0,0,0,.15-1.07v-.33H84.33a1.37,1.37,0,0,0-.47.06.41.41,0,0,0-.22.26,2.21,2.21,0,0,0-.07.61,2,2,0,0,0,.07.58.37.37,0,0,0,.24.26,1.46,1.46,0,0,0,.54.08A1.73,1.73,0,0,0,85,151.05Z"/><path class="a24ee600-b63b-4a7e-9d61-ec2e5fa88b3c" d="M91.48,151.71l-.58,0a1.83,1.83,0,0,1-1.08-.26,1.25,1.25,0,0,1-.45-.79,9.93,9.93,0,0,1-.1-1.58,7.91,7.91,0,0,1,.13-1.6,1.32,1.32,0,0,1,.46-.79,1.79,1.79,0,0,1,1-.24l.58,0a3,3,0,0,1,.48.1v.58a3.71,3.71,0,0,0-.9-.1,1.22,1.22,0,0,0-.69.15.86.86,0,0,0-.29.56,7.87,7.87,0,0,0-.08,1.3,8,8,0,0,0,.08,1.32.85.85,0,0,0,.29.56,1.28,1.28,0,0,0,.7.15A3.68,3.68,0,0,0,92,151v.59A3.47,3.47,0,0,1,91.48,151.71Z"/><path class="a24ee600-b63b-4a7e-9d61-ec2e5fa88b3c" d="M93,151.42a1.7,1.7,0,0,1-.31-1.16,2.74,2.74,0,0,1,.12-.91.82.82,0,0,1,.39-.46,1.76,1.76,0,0,1,.77-.14l1.32.05v-.36a3.25,3.25,0,0,0-.08-.9.54.54,0,0,0-.31-.37,2.59,2.59,0,0,0-.75-.08,4.83,4.83,0,0,0-.59,0c-.25,0-.45,0-.62.07v-.58a7,7,0,0,1,1.41-.14,2.53,2.53,0,0,1,1,.17.9.9,0,0,1,.47.58,4.06,4.06,0,0,1,.13,1.2v3.23h-.63l0-.7h0a1,1,0,0,1-.48.62,1.8,1.8,0,0,1-.79.16A1.39,1.39,0,0,1,93,151.42Zm1.81-.37a.59.59,0,0,0,.33-.37,3.12,3.12,0,0,0,.15-1.07v-.33H94.16a1.37,1.37,0,0,0-.47.06.39.39,0,0,0-.22.26,1.88,1.88,0,0,0-.07.61,1.71,1.71,0,0,0,.07.58.37.37,0,0,0,.24.26,1.46,1.46,0,0,0,.54.08A1.73,1.73,0,0,0,94.82,151.05Z"/><path class="a24ee600-b63b-4a7e-9d61-ec2e5fa88b3c" d="M97.29,146.56h.62l0,.95H98a1.28,1.28,0,0,1,.46-.81,1.46,1.46,0,0,1,.86-.22v.72a1.32,1.32,0,0,0-.81.22,1.23,1.23,0,0,0-.4.65,4.62,4.62,0,0,0-.12,1.17v2.42h-.71Z"/><path class="a24ee600-b63b-4a7e-9d61-ec2e5fa88b3c" d="M103.36,149.34h-2.62a6.3,6.3,0,0,0,.08,1.17.68.68,0,0,0,.32.48,1.8,1.8,0,0,0,.82.14,7.29,7.29,0,0,0,1.26-.11v.58a4.64,4.64,0,0,1-.63.1,6.74,6.74,0,0,1-.77,0,2.36,2.36,0,0,1-1.18-.23,1.21,1.21,0,0,1-.49-.77,7.94,7.94,0,0,1-.12-1.62,10,10,0,0,1,.1-1.61,1.18,1.18,0,0,1,.47-.78,2.07,2.07,0,0,1,1.17-.25,1.89,1.89,0,0,1,1.09.24,1.12,1.12,0,0,1,.42.75,12.42,12.42,0,0,1,.08,1.64Zm-2.28-2.14a.61.61,0,0,0-.27.46,7.34,7.34,0,0,0-.07,1.15h1.94v-.12a4.55,4.55,0,0,0-.08-1.06.68.68,0,0,0-.26-.45,1.41,1.41,0,0,0-.58-.1A1.45,1.45,0,0,0,101.08,147.2Z"/><path class="a24ee600-b63b-4a7e-9d61-ec2e5fa88b3c" d="M104.46,149.13v-.65h2v.65Z"/><path class="a24ee600-b63b-4a7e-9d61-ec2e5fa88b3c" d="M108,151.66v-4.49h-.74v-.61H108v-1.48h.71v1.48h.88v.61h-.88v4.49Zm.29,2.09a.75.75,0,0,0,.09-.45v-.16H108v-.86h.8v.78a2.62,2.62,0,0,1-.07.72.48.48,0,0,1-.27.32,1.49,1.49,0,0,1-.64.1v-.34A.57.57,0,0,0,108.26,153.75Z"/><path class="a24ee600-b63b-4a7e-9d61-ec2e5fa88b3c" d="M110.42,145.06v-.83h.75v.83Zm0,6.6v-5.1h.71v5.1Z"/><path class="a24ee600-b63b-4a7e-9d61-ec2e5fa88b3c" d="M114.83,151.53a1,1,0,0,1-.46-.73,13,13,0,0,1,0-3.38,1,1,0,0,1,.46-.73,2.36,2.36,0,0,1,1.16-.21,2.43,2.43,0,0,1,1.17.21,1,1,0,0,1,.45.73,14.33,14.33,0,0,1,0,3.38,1,1,0,0,1-.45.73,2.43,2.43,0,0,1-1.17.21A2.36,2.36,0,0,1,114.83,151.53Zm1.87-.54a.71.71,0,0,0,.25-.52,18.52,18.52,0,0,0,0-2.72.71.71,0,0,0-.25-.52,1.87,1.87,0,0,0-1.42,0,.72.72,0,0,0-.25.53,15.22,15.22,0,0,0,0,2.7.72.72,0,0,0,.25.53,1.87,1.87,0,0,0,1.42,0Z"/><path class="a24ee600-b63b-4a7e-9d61-ec2e5fa88b3c" d="M120.91,151.71l-.58,0a1.83,1.83,0,0,1-1.08-.26,1.25,1.25,0,0,1-.45-.79,9.93,9.93,0,0,1-.1-1.58,7.23,7.23,0,0,1,.13-1.6,1.32,1.32,0,0,1,.46-.79,1.79,1.79,0,0,1,1-.24l.58,0a3,3,0,0,1,.48.1v.58a3.71,3.71,0,0,0-.9-.1,1.22,1.22,0,0,0-.69.15.86.86,0,0,0-.29.56,7.87,7.87,0,0,0-.08,1.3,8,8,0,0,0,.08,1.32.85.85,0,0,0,.29.56,1.28,1.28,0,0,0,.7.15,3.68,3.68,0,0,0,.92-.11v.59A3.8,3.8,0,0,1,120.91,151.71Z"/><path class="a24ee600-b63b-4a7e-9d61-ec2e5fa88b3c" d="M125,151h0a1.15,1.15,0,0,1-.41.59,1.55,1.55,0,0,1-.85.2,1.49,1.49,0,0,1-.84-.2.94.94,0,0,1-.38-.61,4.87,4.87,0,0,1-.1-1.15v-3.22h.71v3a5.08,5.08,0,0,0,.07,1,.56.56,0,0,0,.24.41,1.23,1.23,0,0,0,.59.11.86.86,0,0,0,.66-.22,1,1,0,0,0,.27-.58,9.69,9.69,0,0,0,0-1.09v-2.65h.71v5.1h-.63Z"/><path class="a24ee600-b63b-4a7e-9d61-ec2e5fa88b3c" d="M127,146.56h.62l0,.71h.06a1,1,0,0,1,.46-.63,1.74,1.74,0,0,1,.76-.16,1.49,1.49,0,0,1,.9.22,1.25,1.25,0,0,1,.44.77,8.32,8.32,0,0,1,.12,1.63,8.18,8.18,0,0,1-.12,1.63,1.2,1.2,0,0,1-.43.78,1.49,1.49,0,0,1-.9.23,1.56,1.56,0,0,1-.76-.16,1,1,0,0,1-.43-.54h-.05v2.55H127Zm2.36,4.41a.74.74,0,0,0,.26-.53,12.67,12.67,0,0,0,0-2.66.74.74,0,0,0-.26-.53,1.23,1.23,0,0,0-.67-.13,1,1,0,0,0-.59.15.86.86,0,0,0-.3.5,2.84,2.84,0,0,0-.07.55c0,.21,0,.47,0,.79a6.48,6.48,0,0,0,.08,1.25,1,1,0,0,0,.3.57.89.89,0,0,0,.6.17A1.23,1.23,0,0,0,129.36,151Z"/><path class="a24ee600-b63b-4a7e-9d61-ec2e5fa88b3c" d="M131.57,151.42a1.7,1.7,0,0,1-.31-1.16,2.74,2.74,0,0,1,.12-.91.75.75,0,0,1,.39-.46,1.76,1.76,0,0,1,.77-.14l1.32.05v-.36a3.7,3.7,0,0,0-.08-.9.54.54,0,0,0-.31-.37,2.59,2.59,0,0,0-.75-.08,4.83,4.83,0,0,0-.59,0c-.25,0-.45,0-.62.07v-.58a7,7,0,0,1,1.41-.14,2.53,2.53,0,0,1,1.05.17.9.9,0,0,1,.47.58,4.06,4.06,0,0,1,.13,1.2v3.23h-.63l0-.7h-.05a1,1,0,0,1-.48.62,1.8,1.8,0,0,1-.79.16A1.39,1.39,0,0,1,131.57,151.42Zm2.53-6.4a.78.78,0,0,1-.31.46,1.4,1.4,0,0,1-.76.17,1.33,1.33,0,0,1-.74-.17.72.72,0,0,1-.3-.46,3.33,3.33,0,0,1-.07-.79h.5a4,4,0,0,0,0,.57.46.46,0,0,0,.16.28.68.68,0,0,0,.42.11.73.73,0,0,0,.44-.11.42.42,0,0,0,.16-.28,4,4,0,0,0,0-.57h.5A4.08,4.08,0,0,1,134.1,145Zm-.72,6a.59.59,0,0,0,.33-.37,3.12,3.12,0,0,0,.15-1.07v-.33h-1.14a1.37,1.37,0,0,0-.47.06.39.39,0,0,0-.22.26,1.88,1.88,0,0,0-.07.61,1.71,1.71,0,0,0,.07.58.37.37,0,0,0,.24.26,1.46,1.46,0,0,0,.54.08A1.73,1.73,0,0,0,133.38,151.05Z"/><path class="a24ee600-b63b-4a7e-9d61-ec2e5fa88b3c" d="M139.87,151.71l-.58,0a1.83,1.83,0,0,1-1.08-.26,1.25,1.25,0,0,1-.45-.79,9.93,9.93,0,0,1-.1-1.58,7.23,7.23,0,0,1,.13-1.6,1.32,1.32,0,0,1,.46-.79,1.79,1.79,0,0,1,1-.24l.58,0a3,3,0,0,1,.48.1v.58a3.71,3.71,0,0,0-.9-.1,1.22,1.22,0,0,0-.69.15.86.86,0,0,0-.29.56,7.87,7.87,0,0,0-.08,1.3,8,8,0,0,0,.08,1.32.85.85,0,0,0,.29.56,1.28,1.28,0,0,0,.7.15,3.68,3.68,0,0,0,.92-.11v.59A3.8,3.8,0,0,1,139.87,151.71Z"/><path class="a24ee600-b63b-4a7e-9d61-ec2e5fa88b3c" d="M144.55,149.34h-2.62a6.3,6.3,0,0,0,.08,1.17.66.66,0,0,0,.32.48,1.8,1.8,0,0,0,.82.14,7.29,7.29,0,0,0,1.26-.11v.58a4.64,4.64,0,0,1-.63.1,6.74,6.74,0,0,1-.77,0,2.36,2.36,0,0,1-1.18-.23,1.21,1.21,0,0,1-.49-.77,7.94,7.94,0,0,1-.12-1.62,10,10,0,0,1,.1-1.61,1.14,1.14,0,0,1,.47-.78,2.07,2.07,0,0,1,1.17-.25,1.89,1.89,0,0,1,1.09.24,1.12,1.12,0,0,1,.42.75,12.42,12.42,0,0,1,.08,1.64Zm-2.28-2.14a.61.61,0,0,0-.27.46,6.27,6.27,0,0,0-.07,1.15h1.94v-.12a4.55,4.55,0,0,0-.08-1.06.68.68,0,0,0-.26-.45,1.41,1.41,0,0,0-.58-.1A1.45,1.45,0,0,0,142.27,147.2Z"/><path class="a24ee600-b63b-4a7e-9d61-ec2e5fa88b3c" d="M145.73,151.42a1.7,1.7,0,0,1-.31-1.16,2.74,2.74,0,0,1,.12-.91.75.75,0,0,1,.39-.46,1.76,1.76,0,0,1,.77-.14l1.32.05v-.36a3.7,3.7,0,0,0-.08-.9.54.54,0,0,0-.31-.37,2.59,2.59,0,0,0-.75-.08,4.83,4.83,0,0,0-.59,0c-.25,0-.45,0-.62.07v-.58a7,7,0,0,1,1.41-.14,2.53,2.53,0,0,1,1,.17.9.9,0,0,1,.47.58,4.06,4.06,0,0,1,.13,1.2v3.23h-.63l0-.7H148a1,1,0,0,1-.48.62,1.8,1.8,0,0,1-.79.16A1.39,1.39,0,0,1,145.73,151.42Zm1.81-.37a.59.59,0,0,0,.33-.37,3.12,3.12,0,0,0,.15-1.07v-.33h-1.14a1.37,1.37,0,0,0-.47.06.39.39,0,0,0-.22.26,1.88,1.88,0,0,0-.07.61,1.71,1.71,0,0,0,.07.58.37.37,0,0,0,.24.26,1.46,1.46,0,0,0,.54.08A1.77,1.77,0,0,0,147.54,151.05Z"/><path class="a24ee600-b63b-4a7e-9d61-ec2e5fa88b3c" d="M156.93,148.68a6.29,6.29,0,0,0-.06-1,.63.63,0,0,0-.22-.42,1,1,0,0,0-.54-.1.89.89,0,0,0-.64.2,1,1,0,0,0-.26.58,9.84,9.84,0,0,0-.05,1.11v2.65h-.71v-3a8,8,0,0,0,0-1,.63.63,0,0,0-.22-.42,1,1,0,0,0-.54-.1.85.85,0,0,0-.64.21,1.07,1.07,0,0,0-.26.59,9.69,9.69,0,0,0-.05,1.09v2.65H152v-5.1h.62l0,.71h.06a1.11,1.11,0,0,1,.4-.58,1.29,1.29,0,0,1,.8-.21,1.49,1.49,0,0,1,.82.18,1,1,0,0,1,.36.61h.06a1.15,1.15,0,0,1,.41-.59,1.8,1.8,0,0,1,1.63,0,1,1,0,0,1,.37.61,5.66,5.66,0,0,1,.09,1.15v3.23h-.71Z"/><path class="a24ee600-b63b-4a7e-9d61-ec2e5fa88b3c" d="M158.94,151.42a1.7,1.7,0,0,1-.31-1.16,2.74,2.74,0,0,1,.12-.91.75.75,0,0,1,.39-.46,1.76,1.76,0,0,1,.77-.14l1.32.05v-.36a3.7,3.7,0,0,0-.08-.9.54.54,0,0,0-.31-.37,2.59,2.59,0,0,0-.75-.08,4.83,4.83,0,0,0-.59,0c-.25,0-.45,0-.62.07v-.58a7,7,0,0,1,1.41-.14,2.53,2.53,0,0,1,1.05.17.9.9,0,0,1,.47.58,4.06,4.06,0,0,1,.13,1.2v3.23h-.63l0-.7h-.05a1,1,0,0,1-.48.62,1.8,1.8,0,0,1-.79.16A1.39,1.39,0,0,1,158.94,151.42Zm1.81-.37a.59.59,0,0,0,.33-.37,3.12,3.12,0,0,0,.15-1.07v-.33h-1.14a1.37,1.37,0,0,0-.47.06.39.39,0,0,0-.22.26,1.88,1.88,0,0,0-.07.61,1.71,1.71,0,0,0,.07.58.37.37,0,0,0,.24.26,1.46,1.46,0,0,0,.54.08A1.77,1.77,0,0,0,160.75,151.05Z"/><path class="a24ee600-b63b-4a7e-9d61-ec2e5fa88b3c" d="M163.2,145.06v-.83H164v.83Zm0,6.6v-5.1h.71v5.1Z"/><path class="a24ee600-b63b-4a7e-9d61-ec2e5fa88b3c" d="M68.92,160.68a6.29,6.29,0,0,0-.06-1,.63.63,0,0,0-.22-.42,1.05,1.05,0,0,0-.54-.1.94.94,0,0,0-.65.2,1,1,0,0,0-.25.58,9.84,9.84,0,0,0,0,1.11v2.65h-.71v-3a6.21,6.21,0,0,0-.06-1,.58.58,0,0,0-.21-.42,1.05,1.05,0,0,0-.54-.1.89.89,0,0,0-.65.21,1.06,1.06,0,0,0-.25.59,9.69,9.69,0,0,0,0,1.09v2.65H64v-5.1h.62l0,.71h.06a1.15,1.15,0,0,1,.39-.58,1.35,1.35,0,0,1,.81-.21,1.43,1.43,0,0,1,.81.18,1,1,0,0,1,.37.61h.06a1.15,1.15,0,0,1,.41-.59,1.8,1.8,0,0,1,1.63,0,1,1,0,0,1,.36.61,4.92,4.92,0,0,1,.1,1.15v3.23h-.71Z"/><path class="a24ee600-b63b-4a7e-9d61-ec2e5fa88b3c" d="M70.88,163.42a1.65,1.65,0,0,1-.31-1.16,3.08,3.08,0,0,1,.11-.91.82.82,0,0,1,.39-.46,1.84,1.84,0,0,1,.78-.14l1.32.05v-.36a3.16,3.16,0,0,0-.09-.9.51.51,0,0,0-.31-.37,2.51,2.51,0,0,0-.74-.08,5.1,5.1,0,0,0-.6,0c-.24,0-.44,0-.61.07v-.58a6.88,6.88,0,0,1,1.41-.14,2.48,2.48,0,0,1,1,.17.94.94,0,0,1,.48.58,4.06,4.06,0,0,1,.13,1.2v3.23h-.63l0-.7h0a.93.93,0,0,1-.49.62,1.73,1.73,0,0,1-.78.16A1.37,1.37,0,0,1,70.88,163.42Zm1.81-.37a.59.59,0,0,0,.33-.37,3.12,3.12,0,0,0,.15-1.07v-.33H72a1.48,1.48,0,0,0-.48.06.45.45,0,0,0-.22.26,2.29,2.29,0,0,0-.06.61,2.09,2.09,0,0,0,.06.58.41.41,0,0,0,.25.26,1.46,1.46,0,0,0,.54.08A1.82,1.82,0,0,0,72.69,163.05Z"/><path class="a24ee600-b63b-4a7e-9d61-ec2e5fa88b3c" d="M75.11,158.56h.62l0,.95h.06a1.32,1.32,0,0,1,.45-.81,1.52,1.52,0,0,1,.87-.22v.72a1.28,1.28,0,0,0-.81.22,1.24,1.24,0,0,0-.41.65,5.21,5.21,0,0,0-.11,1.17v2.42h-.71Z"/><path class="a24ee600-b63b-4a7e-9d61-ec2e5fa88b3c" d="M81.13,161.34H78.51a6.52,6.52,0,0,0,.07,1.17.68.68,0,0,0,.32.48,1.85,1.85,0,0,0,.83.14A7.29,7.29,0,0,0,81,163v.58a4.64,4.64,0,0,1-.63.1,6.85,6.85,0,0,1-.77,0,2.36,2.36,0,0,1-1.18-.23,1.17,1.17,0,0,1-.49-.77,7.94,7.94,0,0,1-.12-1.62,9,9,0,0,1,.1-1.61,1.17,1.17,0,0,1,.46-.78,2.14,2.14,0,0,1,1.18-.25,1.89,1.89,0,0,1,1.09.24,1.07,1.07,0,0,1,.41.75,10.56,10.56,0,0,1,.09,1.64Zm-2.28-2.14a.65.65,0,0,0-.28.46,7.67,7.67,0,0,0-.06,1.15h1.94v-.12a5.19,5.19,0,0,0-.08-1.06.65.65,0,0,0-.27-.45,1.32,1.32,0,0,0-.57-.1A1.45,1.45,0,0,0,78.85,159.2Z"/><path class="a24ee600-b63b-4a7e-9d61-ec2e5fa88b3c" d="M84.16,158.56h.62l0,.71h.06a1,1,0,0,1,.45-.63,1.79,1.79,0,0,1,.77-.16,1.54,1.54,0,0,1,.9.22,1.2,1.2,0,0,1,.43.77,7.48,7.48,0,0,1,.13,1.63,8.18,8.18,0,0,1-.12,1.63,1.2,1.2,0,0,1-.43.78,1.88,1.88,0,0,1-1.66.07,1,1,0,0,1-.43-.54h0v2.55h-.71ZM86.51,163a.78.78,0,0,0,.27-.53,12.67,12.67,0,0,0,0-2.66.78.78,0,0,0-.27-.53,1.21,1.21,0,0,0-.66-.13,1,1,0,0,0-.59.15.86.86,0,0,0-.3.5,2.79,2.79,0,0,0-.08.55c0,.21,0,.47,0,.79a6.48,6.48,0,0,0,.08,1.25,1,1,0,0,0,.3.57.89.89,0,0,0,.6.17A1.21,1.21,0,0,0,86.51,163Z"/><path class="a24ee600-b63b-4a7e-9d61-ec2e5fa88b3c" d="M88.68,163.42a1.65,1.65,0,0,1-.31-1.16,3.08,3.08,0,0,1,.11-.91.82.82,0,0,1,.39-.46,1.84,1.84,0,0,1,.78-.14l1.32.05v-.36a3.16,3.16,0,0,0-.09-.9.51.51,0,0,0-.31-.37,2.51,2.51,0,0,0-.74-.08,5.1,5.1,0,0,0-.6,0c-.24,0-.45,0-.61.07v-.58a6.88,6.88,0,0,1,1.41-.14,2.48,2.48,0,0,1,1,.17.94.94,0,0,1,.48.58,4.06,4.06,0,0,1,.13,1.2v3.23h-.63l0-.7H91a.93.93,0,0,1-.49.62,1.73,1.73,0,0,1-.78.16A1.37,1.37,0,0,1,88.68,163.42Zm1.81-.37a.59.59,0,0,0,.33-.37,3.12,3.12,0,0,0,.15-1.07v-.33H89.83a1.43,1.43,0,0,0-.48.06.45.45,0,0,0-.22.26,2.29,2.29,0,0,0-.06.61,2.09,2.09,0,0,0,.06.58.41.41,0,0,0,.25.26,1.46,1.46,0,0,0,.54.08A1.82,1.82,0,0,0,90.49,163.05Z"/><path class="a24ee600-b63b-4a7e-9d61-ec2e5fa88b3c" d="M92.91,158.56h.62l0,.95h.06a1.32,1.32,0,0,1,.45-.81,1.52,1.52,0,0,1,.87-.22v.72a1.28,1.28,0,0,0-.81.22,1.24,1.24,0,0,0-.41.65,5.21,5.21,0,0,0-.11,1.17v2.42h-.71Z"/><path class="a24ee600-b63b-4a7e-9d61-ec2e5fa88b3c" d="M96.07,163.66v-4.49h-.74v-.61h.74v-1.48h.71v1.48h.88v.61h-.88v4.49Z"/><path class="a24ee600-b63b-4a7e-9d61-ec2e5fa88b3c" d="M101.66,161.34H99a6.52,6.52,0,0,0,.07,1.17.68.68,0,0,0,.32.48,1.85,1.85,0,0,0,.83.14,7.29,7.29,0,0,0,1.26-.11v.58a4.93,4.93,0,0,1-.63.1,7,7,0,0,1-.77,0,2.36,2.36,0,0,1-1.18-.23,1.17,1.17,0,0,1-.49-.77,7.94,7.94,0,0,1-.12-1.62,9,9,0,0,1,.1-1.61,1.17,1.17,0,0,1,.46-.78,2.14,2.14,0,0,1,1.18-.25,1.89,1.89,0,0,1,1.09.24,1.07,1.07,0,0,1,.41.75,10.56,10.56,0,0,1,.09,1.64Zm-2.28-2.14a.65.65,0,0,0-.28.46,7.67,7.67,0,0,0-.06,1.15H101v-.12a5.19,5.19,0,0,0-.08-1.06.65.65,0,0,0-.27-.45,1.32,1.32,0,0,0-.57-.1A1.45,1.45,0,0,0,99.38,159.2Z"/><path class="a24ee600-b63b-4a7e-9d61-ec2e5fa88b3c" d="M105.08,163.52a1.3,1.3,0,0,1-.43-.77,11.13,11.13,0,0,1,0-3.26,1.24,1.24,0,0,1,.42-.78,1.44,1.44,0,0,1,.9-.23,1.57,1.57,0,0,1,.77.16,1,1,0,0,1,.43.54h0v-3h.71v7.43h-.63l0-.7h-.05a1,1,0,0,1-.46.62,1.65,1.65,0,0,1-.77.16A1.51,1.51,0,0,1,105.08,163.52Zm1.74-.56a.73.73,0,0,0,.29-.46,2.52,2.52,0,0,0,.09-.59c0-.21,0-.51,0-.88a5.43,5.43,0,0,0-.09-1.2.89.89,0,0,0-.3-.55,1,1,0,0,0-.61-.16,1.19,1.19,0,0,0-.65.13.78.78,0,0,0-.27.53,10.21,10.21,0,0,0-.06,1.33,8.34,8.34,0,0,0,.07,1.33.78.78,0,0,0,.26.53,1.25,1.25,0,0,0,.67.13A1.06,1.06,0,0,0,106.82,163Z"/><path class="a24ee600-b63b-4a7e-9d61-ec2e5fa88b3c" d="M109.17,157.06v-.83h.75v.83Zm0,6.6v-5.1h.71v5.1Z"/><path class="a24ee600-b63b-4a7e-9d61-ec2e5fa88b3c" d="M113.74,160.68a5.14,5.14,0,0,0-.07-1,.6.6,0,0,0-.24-.42,1.25,1.25,0,0,0-.59-.1.87.87,0,0,0-.67.22,1,1,0,0,0-.26.59,7.6,7.6,0,0,0,0,1.08v2.65h-.71v-5.1h.62l0,.71h.06a1.15,1.15,0,0,1,.41-.59,1.55,1.55,0,0,1,.85-.2,1.49,1.49,0,0,1,.84.2.94.94,0,0,1,.38.61,4.81,4.81,0,0,1,.1,1.15v3.22h-.71Z"/><path class="a24ee600-b63b-4a7e-9d61-ec2e5fa88b3c" d="M117.91,163.66v-4.49h-.74v-.61h.74v-1.48h.71v1.48h.88v.61h-.88v4.49Z"/><path class="a24ee600-b63b-4a7e-9d61-ec2e5fa88b3c" d="M120.31,157.06v-.83h.75v.83Zm0,6.6v-5.1H121v5.1Z"/><path class="a24ee600-b63b-4a7e-9d61-ec2e5fa88b3c" d="M127.24,160.68a6.29,6.29,0,0,0-.06-1,.63.63,0,0,0-.22-.42,1.05,1.05,0,0,0-.54-.1.92.92,0,0,0-.65.2,1,1,0,0,0-.25.58,9.84,9.84,0,0,0,0,1.11v2.65h-.71v-3a6.21,6.21,0,0,0-.06-1,.62.62,0,0,0-.21-.42,1.05,1.05,0,0,0-.54-.1.89.89,0,0,0-.65.21,1.06,1.06,0,0,0-.25.59,7.76,7.76,0,0,0,0,1.09v2.65h-.71v-5.1h.62l0,.71H123a1.15,1.15,0,0,1,.39-.58,1.35,1.35,0,0,1,.81-.21,1.45,1.45,0,0,1,.81.18,1,1,0,0,1,.37.61h.06a1.1,1.1,0,0,1,.41-.59,1.44,1.44,0,0,1,.82-.2,1.47,1.47,0,0,1,.81.19,1,1,0,0,1,.36.61,4.92,4.92,0,0,1,.1,1.15v3.23h-.71Z"/><path class="a24ee600-b63b-4a7e-9d61-ec2e5fa88b3c" d="M129.18,158.56h.62l0,.71h.06a1,1,0,0,1,.45-.63,1.79,1.79,0,0,1,.77-.16,1.54,1.54,0,0,1,.9.22,1.2,1.2,0,0,1,.43.77,7.48,7.48,0,0,1,.13,1.63,8.18,8.18,0,0,1-.12,1.63,1.2,1.2,0,0,1-.43.78,1.88,1.88,0,0,1-1.66.07,1,1,0,0,1-.43-.54h-.05v2.55h-.71Zm2.35,4.41a.78.78,0,0,0,.27-.53,12.67,12.67,0,0,0,0-2.66.78.78,0,0,0-.27-.53,1.21,1.21,0,0,0-.66-.13,1,1,0,0,0-.59.15.86.86,0,0,0-.3.5,2.79,2.79,0,0,0-.08.55c0,.21,0,.47,0,.79a5.74,5.74,0,0,0,.08,1.25,1,1,0,0,0,.3.57.89.89,0,0,0,.6.17A1.21,1.21,0,0,0,131.53,163Z"/><path class="a24ee600-b63b-4a7e-9d61-ec2e5fa88b3c" d="M136.28,163h-.05a1.11,1.11,0,0,1-.42.59,1.89,1.89,0,0,1-1.69,0,1,1,0,0,1-.38-.61,5.6,5.6,0,0,1-.09-1.15v-3.22h.71v3a6.21,6.21,0,0,0,.06,1,.6.6,0,0,0,.25.41,1.23,1.23,0,0,0,.59.11.86.86,0,0,0,.66-.22,1,1,0,0,0,.26-.58,7.47,7.47,0,0,0,.06-1.09v-2.65H137v5.1h-.63Z"/><path class="a24ee600-b63b-4a7e-9d61-ec2e5fa88b3c" d="M138.21,163.66v-7.43h.71v7.43Z"/><path class="a24ee600-b63b-4a7e-9d61-ec2e5fa88b3c" d="M142.09,163.66v-7.43h.71v7.43Z"/><path class="a24ee600-b63b-4a7e-9d61-ec2e5fa88b3c" d="M144,157.06v-.83h.75v.83Zm0,6.6v-5.1h.71v5.1Z"/><path class="a24ee600-b63b-4a7e-9d61-ec2e5fa88b3c" d="M147.18,163.58a1,1,0,0,1-.45-.62h-.06l0,.7H146v-7.43h.71v3h.05a1,1,0,0,1,.43-.54,1.51,1.51,0,0,1,.76-.16,1.46,1.46,0,0,1,.9.23,1.25,1.25,0,0,1,.43.77,8.32,8.32,0,0,1,.12,1.63,7.48,7.48,0,0,1-.13,1.63,1.28,1.28,0,0,1-.43.78,1.54,1.54,0,0,1-.9.22A1.65,1.65,0,0,1,147.18,163.58Zm1.18-.61a.78.78,0,0,0,.27-.53,12.67,12.67,0,0,0,0-2.66.78.78,0,0,0-.27-.53,1.21,1.21,0,0,0-.66-.13,1,1,0,0,0-.57.14.71.71,0,0,0-.29.44,3,3,0,0,0-.1.58c0,.22,0,.5,0,.83s0,.61,0,.82a2.34,2.34,0,0,0,.09.56.72.72,0,0,0,.29.47,1.06,1.06,0,0,0,.58.14A1.21,1.21,0,0,0,148.36,163Z"/><path class="a24ee600-b63b-4a7e-9d61-ec2e5fa88b3c" d="M153.68,161.34h-2.62a6.52,6.52,0,0,0,.07,1.17.68.68,0,0,0,.32.48,1.85,1.85,0,0,0,.83.14,7.29,7.29,0,0,0,1.26-.11v.58a5.24,5.24,0,0,1-.63.1,7,7,0,0,1-.77,0,2.33,2.33,0,0,1-1.18-.23,1.17,1.17,0,0,1-.49-.77,7.94,7.94,0,0,1-.12-1.62,9,9,0,0,1,.1-1.61,1.13,1.13,0,0,1,.46-.78,2.14,2.14,0,0,1,1.18-.25,1.91,1.91,0,0,1,1.09.24,1.07,1.07,0,0,1,.41.75,10.56,10.56,0,0,1,.09,1.64Zm-2.28-2.14a.65.65,0,0,0-.28.46,7.67,7.67,0,0,0-.06,1.15H153v-.12a5.19,5.19,0,0,0-.08-1.06.68.68,0,0,0-.27-.45,1.32,1.32,0,0,0-.57-.1A1.42,1.42,0,0,0,151.4,159.2Z"/><path class="a24ee600-b63b-4a7e-9d61-ec2e5fa88b3c" d="M154.79,158.56h.62l0,.95h.06a1.27,1.27,0,0,1,.45-.81,1.52,1.52,0,0,1,.87-.22v.72a1.28,1.28,0,0,0-.81.22,1.18,1.18,0,0,0-.41.65,5.21,5.21,0,0,0-.11,1.17v2.42h-.71Z"/><path class="a24ee600-b63b-4a7e-9d61-ec2e5fa88b3c" d="M157.57,163.66v-.9h.82v.9Z"/><path class="f1b26784-ea0e-4456-a145-604a8289d243" d="M172.35,64.22a13.64,13.64,0,1,0-13.63-13.63,13.63,13.63,0,0,0,13.63,13.63"/><path class="ed29dec2-5a27-4957-92bf-2e4fe1f8cfac" d="M168.91,48.51a4.16,4.16,0,0,0,7.27,0c1.12-1.61.46-4.83.46-4.83s-1.16.54-1.16,1.1c0-1.11-2.94-3.91-2.94-3.91s-2.93,2.8-2.93,3.91c0-.56-1.16-1.1-1.16-1.1s-.66,3.22.46,4.83"/><path class="f3eacf05-2a7f-4fb8-9b04-f901d89a989b" d="M172.54,43.11S175,45.34,175,47.46a2.41,2.41,0,1,1-4.81,0c0-2.12,2.4-4.35,2.4-4.35"/><path class="edb67350-8e29-4320-9350-31b357242597" d="M174.44,44.68a1.61,1.61,0,0,0-1.9.42,1.6,1.6,0,0,0-1.89-.42,1.82,1.82,0,0,0,0,3,9.17,9.17,0,0,0,1.89,1.48,9,9,0,0,0,1.9-1.48,1.82,1.82,0,0,0,0-3"/><path class="a4090c40-27bb-4a4c-b7bf-c78b6e03fcf0" d="M172.54,49.62h0a3.63,3.63,0,0,0-3.62,3.62v4.87h7.24V53.24a3.62,3.62,0,0,0-3.62-3.62"/><path class="fca8ba4e-97ae-44be-86ac-f5f86b4bd403" d="M175.28,59.92h-5.47V59A2.18,2.18,0,0,1,172,56.84h1.11A2.18,2.18,0,0,1,175.28,59Z"/><rect class="f3eacf05-2a7f-4fb8-9b04-f901d89a989b" x="171.26" y="56.5" width="2.53" height="1.45"/><polygon class="edb67350-8e29-4320-9350-31b357242597" points="173.63 56.36 172.54 58.53 171.46 56.36 173.63 56.36"/><path class="fca8ba4e-97ae-44be-86ac-f5f86b4bd403" d="M170.37,55.4h-.79a.66.66,0,0,1-.66-.65V54.6a.66.66,0,0,1,.66-.65h.79Z"/><path class="fca8ba4e-97ae-44be-86ac-f5f86b4bd403" d="M174.72,55.4h.79a.65.65,0,0,0,.65-.65V54.6a.66.66,0,0,0-.65-.65h-.79Z"/><path class="fca8ba4e-97ae-44be-86ac-f5f86b4bd403" d="M173.75,52.82a2.16,2.16,0,0,1-.33-.27,6.44,6.44,0,0,1-3.51,1h-.6a2.17,2.17,0,0,0,0,.36,3.26,3.26,0,1,0,6.51,0,2.17,2.17,0,0,0,0-.36,3.67,3.67,0,0,1-2-.77"/><path class="a4090c40-27bb-4a4c-b7bf-c78b6e03fcf0" d="M170.84,53.42a.47.47,0,1,1-.47.46.47.47,0,0,1,.47-.46"/><path class="a4090c40-27bb-4a4c-b7bf-c78b6e03fcf0" d="M174.25,53.42a.47.47,0,1,1-.47.46.47.47,0,0,1,.47-.46"/><path class="fcb40087-1749-446b-8756-d94ed683b39f" d="M172.54,56a1.09,1.09,0,0,0,1.09-1.09h-2.17A1.08,1.08,0,0,0,172.54,56"/><path class="f1b26784-ea0e-4456-a145-604a8289d243" d="M50.86,266.16a13.61,13.61,0,1,0-13.61-13.6,13.6,13.6,0,0,0,13.61,13.6"/><path class="ed29dec2-5a27-4957-92bf-2e4fe1f8cfac" d="M47.43,250.49a4.15,4.15,0,0,0,7.25,0c1.12-1.62.46-4.83.46-4.83s-1.16.55-1.16,1.11c0-1.12-2.93-3.91-2.93-3.91s-2.93,2.79-2.93,3.91c0-.56-1.16-1.11-1.16-1.11s-.66,3.21.47,4.83"/><path class="f3eacf05-2a7f-4fb8-9b04-f901d89a989b" d="M51.05,245.1s2.4,2.22,2.4,4.34a2.4,2.4,0,1,1-4.79,0c0-2.12,2.39-4.34,2.39-4.34"/><path class="edb67350-8e29-4320-9350-31b357242597" d="M53,246.66a1.61,1.61,0,0,0-1.9.42,1.6,1.6,0,0,0-1.89-.42,1.82,1.82,0,0,0,0,3,8.8,8.8,0,0,0,1.89,1.47,8.65,8.65,0,0,0,1.9-1.47,1.82,1.82,0,0,0,0-3"/><path class="a4090c40-27bb-4a4c-b7bf-c78b6e03fcf0" d="M51.05,251.6h0a3.61,3.61,0,0,0-3.61,3.61v4.86h7.22v-4.86a3.6,3.6,0,0,0-3.61-3.61"/><path class="fca8ba4e-97ae-44be-86ac-f5f86b4bd403" d="M53.78,261.87H48.32V261a2.19,2.19,0,0,1,2.18-2.18h1.11A2.18,2.18,0,0,1,53.78,261Z"/><rect class="f3eacf05-2a7f-4fb8-9b04-f901d89a989b" x="49.77" y="258.46" width="2.53" height="1.44"/><polygon class="edb67350-8e29-4320-9350-31b357242597" points="52.14 258.32 51.05 260.49 49.97 258.32 52.14 258.32"/><path class="fca8ba4e-97ae-44be-86ac-f5f86b4bd403" d="M48.88,257.36h-.79a.65.65,0,0,1-.65-.65v-.14a.65.65,0,0,1,.65-.65h.79Z"/><path class="fca8ba4e-97ae-44be-86ac-f5f86b4bd403" d="M53.22,257.36H54a.65.65,0,0,0,.65-.65v-.14a.65.65,0,0,0-.65-.65h-.79Z"/><path class="fca8ba4e-97ae-44be-86ac-f5f86b4bd403" d="M52.25,254.79l-.32-.27a6.46,6.46,0,0,1-3.5,1h-.61c0,.11,0,.24,0,.36a3.25,3.25,0,1,0,6.5,0,2.23,2.23,0,0,0,0-.37,3.65,3.65,0,0,1-2-.76"/><path class="a4090c40-27bb-4a4c-b7bf-c78b6e03fcf0" d="M49.35,255.38a.47.47,0,1,1-.47.47.47.47,0,0,1,.47-.47"/><path class="a4090c40-27bb-4a4c-b7bf-c78b6e03fcf0" d="M52.75,255.38a.47.47,0,1,1-.46.47.47.47,0,0,1,.46-.47"/><path class="fcb40087-1749-446b-8756-d94ed683b39f" d="M51.05,257.91a1.08,1.08,0,0,0,1.09-1.08H50a1.08,1.08,0,0,0,1.08,1.08"/></g></svg>